<svg width="82" height="59" viewBox="0 0 82 59" fill="none" xmlns="http://www.w3.org/2000/svg">
    <g clip-path="url(#clip0_773_4682)">
        <path d="M81.4619 33.9811C81.836 34.0943 82.0605 34.4717 81.9857 34.8491L80.6389 40.9245C80.5641 41.2264 80.3397 41.4151 80.0404 41.4151H78.1325C77.7584 41.4151 77.4965 41.1132 77.4965 40.7358C77.4965 40.6604 77.4965 40.6226 77.4965 40.6226C77.5714 38.6604 76.3369 37.1509 73.5312 37.1509C68.855 37.1509 65.4882 41 65.0392 46.0943C64.5903 51.3396 68.219 54.3585 73.2319 54.3585C75.8131 54.3585 77.8332 53.8679 78.9929 53.4906C79.4418 53.3396 79.8907 53.7547 79.8159 54.2075L79.2174 57.3396C79.18 57.6038 78.9929 57.8302 78.7311 57.9057C77.721 58.2453 74.8031 59 70.3888 59C59.8768 59 55.6121 52.9245 56.2855 46.6981C56.884 41.1509 60.5127 33 74.8031 33C77.534 33.0377 79.7411 33.4906 81.4619 33.9811ZM22.243 33.9811C22.3178 33.6792 22.5797 33.4528 22.9163 33.4528H33.2413C33.6528 33.4528 33.9521 33.8302 33.8399 34.2075L33.5032 35.7925C33.4284 36.0566 33.2039 36.2453 32.942 36.283C32.9046 36.283 32.8672 36.283 32.8672 36.283C32.0816 36.3962 30.6975 36.6604 29.5378 37.566L20.9711 44.7736L27.5551 53.7924C28.827 55.4528 29.463 55.7547 30.7349 55.7547C31.1464 55.7547 31.4457 56.1698 31.3709 56.5849L30.9968 58.2075C30.9219 58.5094 30.6975 58.6981 30.3982 58.6981H25.2731C19.5869 58.6981 18.0157 56.1698 13.2647 47.4528L11.8806 53.8302C11.6561 54.8113 12.4791 55.3396 13.1151 55.6038C13.1525 55.6038 13.1525 55.6415 13.1899 55.6415C13.4892 55.7547 13.6388 56.0566 13.564 56.3585L13.1525 58.2453C13.0777 58.5472 12.8532 58.7358 12.554 58.7358H0.657796C0.246293 58.7358 -0.0903907 58.3585 0.0218373 57.9434L0.358521 56.3585C0.43334 56.0566 0.657796 55.8679 0.95707 55.8302H0.99448C2.07935 55.717 3.23904 55 3.94982 51.6038L6.64329 39.1132C6.97997 37.4528 6.15697 36.8113 5.44619 36.5472C5.44619 36.5472 5.40878 36.5472 5.33396 36.5094C4.99728 36.3962 4.81023 36.0566 4.88505 35.717L5.25914 34.0566C5.33396 33.7547 5.59583 33.5283 5.93251 33.5283H17.2675C17.679 33.5283 17.9409 33.9057 17.8661 34.283L17.492 35.9434C17.4546 36.1698 17.2675 36.3962 17.0431 36.434C17.0057 36.434 16.9683 36.434 16.9683 36.4717C16.4445 36.6604 15.5841 37.0755 15.3597 38.1321L13.8633 45.0755L22.5797 37.6415C23.1034 37.1887 22.9912 36.6226 22.3552 36.3962C22.0185 36.283 21.7941 35.9434 21.8689 35.566L22.243 33.9811ZM54.0035 40.8868C53.6294 40.8868 53.3301 40.5472 53.3675 40.1698C53.3675 40.0943 53.3675 40.0943 53.3675 40.0943C53.4798 38.5094 52.9186 37.6038 51.1604 37.6038H45.6986L44.2397 44.283H52.0208C52.4323 44.283 52.7316 44.6604 52.6193 45.0377L51.8712 48.4717C51.7963 48.7736 51.5719 48.9623 51.2726 48.9623H43.1922C43.1922 48.9623 42.2944 53.0755 42.257 53.2264C41.9577 54.5472 42.8555 55.2264 43.4541 55.5283C43.4915 55.5283 43.5289 55.566 43.5289 55.566C43.7907 55.6792 43.9404 55.9811 43.8656 56.2453L43.4541 58.1321C43.3792 58.434 43.1548 58.6226 42.8555 58.6226H33.4284C33.0169 58.6226 32.7176 58.2453 32.8298 57.8679L36.9448 38.9623C37.3563 37.3019 36.3837 36.6226 35.7103 36.3585C35.6729 36.3585 35.6729 36.3585 35.6355 36.3208C35.3362 36.2075 35.1492 35.8679 35.224 35.566L35.5981 33.9057C35.6729 33.6038 35.9348 33.3774 36.2715 33.3774H57.3703C57.7818 33.3774 58.0811 33.7547 57.9689 34.1321L56.6221 40.3208C56.5473 40.6226 56.3229 40.8113 56.0236 40.8113H54.0035" fill="black"/>
        <path d="M0 0H16V16H0V0Z" fill="#E4002B"/>
        <path d="M33 0H49V16H33V0Z" fill="#E4002B"/>
        <path d="M66 0H82V16H66V0Z" fill="#E4002B"/>
    </g>
    <defs>
        <clipPath id="clip0_773_4682">
            <rect width="82" height="59" fill="white"/>
        </clipPath>
    </defs>
</svg>
