<svg width="155" height="40" viewBox="0 0 155 40" fill="none" xmlns="http://www.w3.org/2000/svg">
    <g clip-path="url(#clip0_1830_25895)">
        <path d="M45.2636 14.6083C45.1389 14.4836 45.0658 14.3693 44.9626 14.2107C44.9088 14.1302 44.8508 14.0435 44.7863 13.9503C44.9647 13.7473 45.1153 13.5125 45.2292 13.2543L45.6851 12.2325L44.5626 12.0738C44.3734 12.0463 44.0681 11.9681 43.7111 11.875C43.023 11.6973 42.1393 11.4688 41.1759 11.3693C41.505 11.2276 41.7845 10.9716 41.9801 10.6246L42.165 10.2967C42.165 10.2967 42.1156 9.83767 41.935 9.69383C42.0038 9.55208 42.0575 9.3955 42.0941 9.22408L42.2468 8.49208L41.5286 8.25097C41.4167 8.21288 41.305 8.18528 41.1953 8.16838C41.1545 8.03513 41.0942 7.89337 41.0125 7.74312L40.5868 6.97517L39.8191 7.41733C39.6278 7.52739 39.4664 7.65436 39.3353 7.796C39.2214 7.77492 39.0987 7.76432 38.9697 7.76432C38.9697 7.76432 38.5311 7.71562 38.0473 7.88917L37.428 7.25658L36.6947 6.48653C36.0087 5.76506 35.0798 5.55142 34.1337 5.90681C33.7725 5.55142 33.2092 5.25732 32.334 5.25732C32.0372 5.25732 31.7769 5.29331 31.6243 5.3123C31.6243 5.3123 30.4202 5.52813 29.7428 6.16073L28.9214 5.77565C28.3709 6.62828 27.4292 6.89899 27.4292 6.89899C27.3646 6.64937 27.255 6.41664 27.0981 6.20302L27.1517 5.90262C27.1517 5.89412 27.3366 4.87654 27.9 4.01332L28.8806 2.51119L27.4914 2.66564C27.4958 2.53029 27.4893 2.36955 27.47 2.1791L27.3453 1.01128L26.2572 1.49572C26.1368 1.5486 26.0357 1.60148 25.9412 1.65017L25.726 1.19951L25.2272 1.45343C25.1777 1.33288 25.1133 1.19532 25.0252 1.03667L24.4509 0L23.636 0.865325C23.5521 0.9542 23.4812 1.03667 23.421 1.11494L22.9264 0.630503L22.4275 1.11704C22.3652 1.03877 22.2964 0.9563 22.2125 0.867425L21.389 0L20.8126 1.04087C20.7245 1.19951 20.6621 1.33498 20.6127 1.45553L20.116 1.20172L19.9009 1.65227C19.8064 1.60369 19.7053 1.5507 19.5848 1.49572L18.4925 1.01338L18.3721 2.1854C18.3528 2.37374 18.3463 2.53239 18.3506 2.66785L16.9593 2.5134L17.942 4.01541C18.5076 4.87654 18.6881 5.89412 18.6881 5.90262L18.7397 6.20302C18.5828 6.41874 18.471 6.65147 18.4086 6.9012C18.4086 6.9012 17.5185 6.52672 16.9227 5.77565L16.0842 6.16913C15.1273 5.53443 14.5338 5.28691 13.5017 5.25732C12.6265 5.23403 12.0631 5.55142 11.7019 5.90681C10.7536 5.55352 9.82678 5.76715 9.14305 6.48863C9.14305 6.48863 8.69364 6.96888 8.40979 7.25868C8.12596 7.55068 7.70662 7.79181 7.70662 7.79181C7.70662 7.79181 7.11102 7.66065 6.49812 7.79821C6.36698 7.65645 6.20363 7.52949 6.01007 7.41733L5.24022 6.97517L4.81661 7.74743C4.73487 7.89548 4.67683 8.03513 4.63821 8.16838C4.52852 8.18528 4.4167 8.21288 4.30487 8.25097L3.59093 8.49625L3.73936 9.22408C3.77584 9.39967 3.82749 9.55625 3.89845 9.698C3.85758 9.77625 3.82109 9.85875 3.791 9.9455L3.67053 10.2988L3.85331 10.6267C4.04687 10.9716 4.32418 11.2297 4.65539 11.3715C3.68984 11.4709 2.80828 11.6993 2.11803 11.8771C1.76325 11.9681 1.45786 12.0484 1.26868 12.0759L0.141914 12.2368L0.397782 12.8079L0.60212 13.2628C0.718209 13.5167 0.870898 13.7515 1.04717 13.9547C0.980475 14.0477 0.696652 14.4857 0.569784 14.6104L0 15.1795L0.546208 15.7719C0.614918 15.8438 1.22781 16.4764 2.21907 16.4785C2.48998 16.4785 2.75876 16.4321 3.02542 16.3388C3.28992 16.7452 3.60384 17.1576 3.88992 17.3608C3.36302 17.9701 2.76314 18.499 1.90942 18.8988L1.19559 19.233L1.50299 20.0349C1.70307 20.5193 2.0922 21.0503 2.84476 21.2535C2.68354 21.7273 2.60619 22.1759 2.53736 22.5758C2.37603 23.5257 2.3072 23.9192 1.45786 24.2132L0.694519 24.4756L0.913898 25.2414C1.09017 25.8655 1.35469 26.2781 1.64064 26.551L1.13317 27.101C1.13317 27.101 2.33741 27.9897 3.51784 28.0975C3.53502 28.0996 4.54143 28.1631 4.99299 27.5961C5.17364 28.2393 5.45959 28.8317 5.71973 29.369C6.25303 30.4733 6.53686 31.127 6.17994 31.7237L5.37359 33.0693L6.95832 33.0037C7.65071 32.9762 8.29369 32.9338 8.85059 32.7984C8.85059 32.828 8.84847 32.8556 8.84627 32.8831L8.71729 34.0382L10.1064 33.7504C10.2526 33.7081 10.3902 33.651 10.5149 33.5854C11.375 34.5755 12.8373 35.3477 14.8069 35.3477H14.9208L12.6566 36.2617L14.3059 37.1058C15.3918 37.6623 16.5981 38.1277 17.9743 38.5233L17.7829 39.1728L18.6108 39.4118C19.0881 39.5493 20.8148 40 22.9178 40C25.0208 40 26.7453 39.5493 27.2249 39.4118L28.0505 39.1728L27.8592 38.5253C29.2375 38.1298 30.4439 37.6643 31.5297 37.1079L33.1791 36.2638L30.9126 35.3499H31.0265C32.9963 35.3499 34.4563 34.5777 35.3164 33.5876C35.4411 33.6532 35.5787 33.7102 35.7249 33.7526L37.114 34.0403L36.9871 32.8873C36.985 32.8598 36.9829 32.8302 36.9829 32.8005C37.5377 32.936 38.1827 32.9762 38.873 33.0058L40.4577 33.0713L39.6558 31.7279C39.2965 31.1313 39.5825 30.4775 40.1136 29.3732C40.3739 28.8358 40.6599 28.2434 40.8405 27.6003C41.1458 27.8288 41.4749 27.9663 41.8017 28.0383C41.8017 28.0383 42.0554 28.1123 42.2984 28.1187C42.9994 28.1398 43.3498 27.9431 43.8316 27.6448L44.7068 27.1031L44.1949 26.5531C44.481 26.2822 44.7453 25.8698 44.9218 25.2478L45.1433 24.4797L44.3777 24.2174C43.5262 23.9234 43.4595 23.5298 43.2983 22.58C43.2295 22.1801 43.1542 21.7296 42.9908 21.2577C43.7434 21.0524 44.1304 20.5215 44.3304 20.0391L44.6358 19.2353L43.9219 18.9009C43.0681 18.5011 42.4683 17.9722 41.9392 17.3628C42.2275 17.1598 42.5414 16.7473 42.808 16.3411C43.0725 16.4342 43.3413 16.4785 43.6143 16.4806C44.6056 16.4806 45.2206 15.8482 45.2873 15.7762L45.8336 15.1838L45.2636 14.6083Z" fill="white"/>
        <path fill-rule="evenodd" clip-rule="evenodd" d="M15.93 25.0341V18.5815C15.93 17.9806 15.7536 17.3797 15.543 16.8276H20.6327C21.0993 17.458 21.9465 17.8811 22.9185 17.8811C23.8861 17.8811 24.7333 17.458 25.2021 16.8276H30.2919C30.0769 17.382 29.9026 17.9806 29.9026 18.5815V25.0341H15.93ZM22.9164 33.852C22.2047 33.156 21.6971 33.0798 19.7791 33.0798C17.4868 33.0798 15.93 31.7576 15.93 29.644V25.4127H29.9005V29.644C29.9005 31.7576 28.3458 33.0798 26.0493 33.0798C24.1334 33.0777 23.6259 33.156 22.9164 33.852Z" fill="#FFDD2D"/>
        <path d="M16.739 34.6494V35.9378L15.6016 36.3885C16.5627 36.818 17.7561 37.2453 19.1582 37.5605L19.8032 35.4936C18.4271 35.2163 17.468 34.9266 16.739 34.6494Z" fill="white"/>
        <path d="M22.9168 36.3948C21.5729 36.3948 20.4419 36.2573 19.9903 36.1558L19.3086 38.3243C20.3794 38.5823 21.6331 38.7728 22.9168 38.7728C24.1963 38.7728 25.45 38.5844 26.525 38.3243L25.8413 36.1558C25.3897 36.2594 24.263 36.3948 22.9168 36.3948Z" fill="white"/>
        <path d="M29.0915 34.6494C28.3605 34.9266 27.4036 35.2142 26.0273 35.4957L26.6746 37.5626C28.0788 37.2474 29.2679 36.8201 30.229 36.3906L29.0936 35.9399V34.6494H29.0915Z" fill="white"/>
        <path d="M14.3568 13.8638C16.1372 12.9181 20.4893 10.8363 17.5391 8.59166C17.1371 8.28709 16.694 8.01208 16.3221 7.67138C15.8618 8.02046 16.494 8.88791 16.6532 9.20516C16.6532 9.20516 15.6706 9.30258 15.4362 9.30258C13.9181 9.29616 12.3268 8.41183 13.1332 6.71729C12.529 6.83994 12.4558 7.41116 12.2709 7.8999C11.8838 7.64178 11.2109 7.08746 10.6926 7.16574C11.1141 8.49233 12.8881 9.68766 14.2642 9.95833C12.873 10.7031 10.2927 11.2573 8.93574 9.65374C7.98325 11.4668 9.30997 12.2242 10.6109 13.1741C5.65875 15.3976 6.38987 17.892 3.14081 19.8552C3.56229 20.0499 5.44162 19.6586 5.60935 19.6352C4.90406 20.5343 4.57499 20.9152 4.36863 21.3531C4.1708 21.7636 4.08256 22.2268 3.88698 23.2254C3.73429 24.0146 3.45473 24.8016 2.47852 25.3242C2.86125 26.0053 3.7106 25.4722 4.06538 25.3812C4.01812 25.4532 3.89764 26.274 3.57946 26.6697C5.24806 26.5638 4.47607 23.1027 6.14479 23.9362C6.61565 24.169 6.75757 24.7148 6.54043 25.1612C5.44375 27.3869 7.93598 29.3481 7.80047 31.2986C8.41325 31.2944 9.0476 31.2774 9.4476 30.463C9.65624 30.8692 9.9787 31.4404 10.1593 31.9904L10.6583 31.1547C10.9657 32.5384 12.2773 33.8162 14.0492 33.9305C13.2041 32.6145 14.217 30.8184 12.1634 28.908C12.4193 28.7048 13.0106 28.3135 13.2213 28.047C10.7012 28.3388 8.07138 26.3777 9.2648 25.4468C10.0454 24.8397 10.3873 26.1006 11.5915 25.8889L11.1205 25.4892C11.2861 25.3283 11.4752 25.1189 11.671 24.9602C11.1592 24.8988 10.6001 24.5772 10.6001 24.5772L10.9055 24.0802C7.95316 24.0759 7.87783 21.8546 9.07777 21.7657C9.64107 21.7255 10.3701 22.7472 12.1871 22.5337C11.9548 22.2586 11.8623 21.8418 11.7527 21.5351C12.1913 21.4948 12.7074 21.4991 13.1224 21.3002C12.2344 21.1881 12.0107 20.8941 11.2711 20.3439L12.129 20.0352C10.884 19.4236 10.9593 18.3596 10.9206 17.2509C11.572 17.619 12.3376 18.1902 13.1547 17.9258C13.3482 17.8623 13.4729 17.7734 13.4772 17.5746C12.3118 17.1156 11.5635 15.349 14.3568 13.8638ZM12.2301 14.0373C10.6711 15.6769 11.3462 16.6586 11.6603 16.9611C11.0796 16.8383 10.2131 16.1106 10.4109 15.4061C10.226 15.6241 10.0368 15.861 9.84328 16.1042C9.45616 16.612 9.11006 17.1092 8.80252 17.5915C8.32939 18.9752 9.19599 20.4032 10.6711 21.0358C9.03252 20.7987 8.29716 19.3644 8.30154 18.4505C7.51878 19.9061 7.14468 21.2347 7.17904 22.3496C7.19408 22.7642 7.23069 23.1514 7.2866 23.5174C7.66282 24.2197 8.26708 24.4779 9.3443 24.607C8.36598 24.6682 7.84774 24.6238 7.422 24.1838C8.08856 27.0039 11.2065 29.4453 12.4751 31.5356C11.2044 29.9107 8.57455 27.4906 7.65429 25.7409C7.58334 26.3735 7.75534 27.9941 8.55514 28.9905C7.37686 27.8502 7.28435 26.1239 7.36182 25.1126C7.06295 24.3848 6.87366 23.5724 6.84784 22.6479C6.82426 21.7973 6.88444 21.059 7.01557 20.3968C6.27165 21.4377 5.19641 21.8397 4.6675 23.4243C4.77068 21.3806 6.32105 21.3489 7.48218 18.8673C7.9316 17.7819 8.5854 16.8447 9.30785 15.7827C8.38968 16.0789 7.70156 16.2904 6.63935 17.4349C7.39404 15.679 11.7548 13.7052 13.7525 11.7947C13.1525 11.9197 10.7034 11.9809 9.68633 11.3124C11.529 11.8032 15.6297 11.2425 17.1779 10.2017C16.1092 11.7144 13.7826 11.8011 10.9507 14.8095C11.3119 14.526 11.7935 14.2404 12.2301 14.0373Z" fill="white"/>
        <path d="M41.9408 23.2249C41.7452 22.2264 41.6591 21.7632 41.4613 21.3527C41.2571 20.9147 40.9259 20.5339 40.2185 19.6348C40.3863 19.658 42.2698 20.0495 42.6891 19.8548C39.4401 17.8915 40.1713 15.3972 35.2169 13.1737C36.5179 12.2238 37.8446 11.4664 36.8919 9.65117C35.5352 11.2569 32.9548 10.7027 31.5636 9.95584C32.9419 9.68501 34.7138 8.49176 35.1352 7.16321C34.6148 7.08493 33.9418 7.63926 33.5548 7.89517C33.3697 7.40653 33.2988 6.83532 32.6947 6.71045C33.501 8.40717 31.9076 9.29151 30.3874 9.29784C30.1552 9.29784 29.1746 9.20059 29.1746 9.20059C29.3315 8.88326 29.9637 8.01584 29.5014 7.66675C29.1294 8.00943 28.6908 8.28235 28.2865 8.58709C25.3341 10.8318 29.6907 12.9156 31.4711 13.8592C34.2601 15.3443 33.5182 17.1108 32.3505 17.5636C32.3549 17.7624 32.4796 17.8513 32.6752 17.9148C33.4881 18.1814 34.2579 17.6102 34.9051 17.2398C34.8686 18.3485 34.9459 19.4148 33.7009 20.0241L34.5568 20.3329C33.817 20.883 33.5955 21.177 32.7075 21.2892C33.1204 21.488 33.6408 21.4838 34.0773 21.524C33.9655 21.8308 33.8687 22.2476 33.6408 22.5226C35.4599 22.7341 36.1909 21.7144 36.7501 21.7547C37.9457 21.8435 37.8747 24.0649 34.9202 24.0691L35.2255 24.5663C35.2255 24.5663 34.6664 24.8878 34.1525 24.9493C34.3482 25.1058 34.5395 25.3173 34.7052 25.4782L34.2342 25.8779C35.4363 26.0896 35.7802 24.8287 36.5608 25.4358C37.7542 26.3667 35.1266 28.3278 32.6043 28.0359C32.8171 28.3024 33.4085 28.696 33.6644 28.899C31.6087 30.8073 32.6193 32.6057 31.7786 33.9237C33.5461 33.8073 34.8578 32.5295 35.1696 31.1458L35.6685 31.9816C35.8469 31.4314 36.1738 30.8603 36.3781 30.4541C36.7759 31.2686 37.4145 31.2855 38.0295 31.2897C37.8897 29.3391 40.3797 27.3779 39.2875 25.1523C39.068 24.708 39.21 24.1622 39.6809 23.9273C41.3538 23.0938 40.5775 26.555 42.2484 26.6608C41.928 26.2651 41.8097 25.4443 41.7646 25.3724C42.1173 25.4633 42.9645 25.9965 43.3472 25.3131C42.3774 24.8012 42.0979 24.0141 41.9408 23.2249ZM38.8165 20.3943C38.9477 21.0586 39.0144 21.7948 38.9841 22.6453C38.9563 23.5698 38.7691 24.3822 38.4703 25.1099C38.5455 26.1213 38.4552 27.8476 37.2769 28.9879C38.0747 27.9893 38.2488 26.3708 38.1779 25.7383C37.2533 27.4879 34.6257 29.9083 33.3526 31.533C34.6234 29.4428 37.7414 26.9993 38.4102 24.1813C37.98 24.6193 37.4662 24.6657 36.4856 24.6043C37.5608 24.4753 38.1649 24.2173 38.5413 23.5148C38.5972 23.1509 38.6338 22.7616 38.6488 22.3471C38.6853 21.2321 38.3091 19.9034 37.5264 18.4479C37.5328 19.3619 36.7974 20.7963 35.1567 21.0332C36.6275 20.3985 37.4963 18.9704 37.0253 17.589C36.72 17.1066 36.376 16.6073 35.9846 16.1018C35.791 15.8584 35.6019 15.6215 35.4147 15.4036C35.6125 16.108 34.746 16.8358 34.1654 16.9586C34.4815 16.656 35.1546 15.6744 33.5978 14.0347C34.0343 14.2378 34.5159 14.5234 34.8792 14.8027C32.0475 11.7943 29.7229 11.7097 28.6499 10.1949C30.2003 11.2358 34.3009 11.7985 36.1415 11.3056C35.1266 11.9742 32.6752 11.9128 32.0753 11.7879C34.073 13.6983 38.438 15.6722 39.1907 17.4283C38.1285 16.2837 37.4382 16.0721 36.5243 15.7758C37.2489 16.84 37.8983 17.7751 38.3477 18.8605C39.5111 21.3421 41.0636 21.3717 41.1647 23.4175C40.6357 21.8371 39.5626 21.4352 38.8165 20.3943Z" fill="white"/>
        <path d="M25.2002 16.8252C24.7336 17.4557 23.8842 17.8789 22.9186 17.8789C22.6929 17.8789 22.4758 17.8534 22.2693 17.8154C22.3273 18.0756 22.4628 18.3442 22.7445 18.5749C22.6306 19.3301 22.9617 20.0368 23.7853 20.2208C23.8735 20.6059 24.1142 20.8957 24.5228 21.0333L23.9486 21.6849C23.7273 21.9344 23.4391 22.0149 23.2069 21.9852L20.6437 21.6996C20.7555 21.4203 20.4588 21.0966 19.6459 21.2342L20.6524 18.4628L20.0394 17.1786L18.8762 18.1559L18.7902 21.0629L18.2891 20.8237C17.644 20.5487 17.4527 21.7059 18.0676 21.7102L18.3149 21.7124C18.2977 21.8308 18.3365 21.9619 18.4331 22.0042C18.317 22.0508 18.2827 22.2644 18.4268 22.3406C18.2806 22.4105 18.259 22.6305 18.3772 22.7257C18.2503 22.9394 18.2268 23.4027 18.6762 23.519C19.046 23.6142 19.2782 23.2249 19.3536 22.9986L23.3423 24.2129C23.9036 24.3717 24.3078 24.2828 24.7765 23.8787L25.8173 22.9838C25.6861 23.5699 25.8991 24.0965 26.3527 24.2722C26.3527 24.2722 26.2818 24.8095 26.3097 25.0316L27.7053 25.0339H29.9028V18.5812C29.9028 17.9803 30.077 17.3795 30.292 16.8252H27.7053H25.2002Z" fill="white"/>
        <path d="M19.2265 27.6828L19.3039 27.778C19.4114 27.9091 19.4759 27.8774 19.5985 27.8075L19.779 27.7124C19.8931 27.6277 20.6349 27.907 20.6758 27.2998C20.7575 27.7525 20.2092 28.7067 20.5403 29.2398L20.9854 29.957L19.5318 29.9781C19.3727 29.9781 19.2888 30.0735 19.2459 30.158L18.8653 30.9345C18.7664 31.1397 18.7727 31.3512 18.8975 31.493L19.1554 31.7786C19.1554 31.7786 19.3662 31.603 19.435 31.3725L19.321 31.256C19.2265 31.1672 19.2265 31.0825 19.2781 30.9725L19.5125 30.4944C19.6027 30.3061 19.6953 30.266 19.9016 30.3145L21.0779 30.5642C21.1639 30.5854 21.3037 30.6255 21.3875 30.4838C21.5316 30.232 21.7853 30.2152 22.0433 30.2554C22.6885 30.3505 24.1786 30.5029 24.7097 29.8915C25.3332 30.706 26.5526 30.706 26.473 31.1333L26.2149 32.5339H26.602L26.8385 31.1016C26.8643 30.9345 26.9697 30.706 26.7869 30.5769C26.7116 30.5198 26.6772 30.4902 26.5073 30.2025C26.2859 29.8216 26.2965 29.2504 26.0837 28.7575C26.2859 28.5226 26.5052 28.4423 26.6966 28.4866C27.1266 28.5903 27.2428 29.3203 27.8535 29.9147C27.7847 29.6503 27.7546 29.3605 27.6105 29.1086C27.6105 29.1086 28.0341 29.4324 28.1437 29.811C28.2125 30.048 28.2835 30.2215 28.5007 30.3315C28.6448 30.3822 28.8168 30.3145 28.9887 30.1115C28.9887 30.1115 28.5867 29.5487 28.2921 29.1806C27.8878 28.675 27.3481 28.1672 26.6127 28.2265C26.3804 28.2455 26.1569 28.3492 25.9439 28.474C25.1075 28.0128 24.4581 28.5015 24.2001 28.5015L22.6347 28.4105C22.3271 28.3915 22.0842 28.0403 22.0842 28.0403C22.0455 26.7371 20.9811 26.2188 20.6134 26.2188C20.6134 26.2188 20.6478 25.984 20.551 25.9014L20.2242 26.3055L19.3168 25.9796L20.0285 26.553L19.2565 27.4353C19.177 27.522 19.1878 27.6362 19.2265 27.6828Z" fill="white"/>
        <path d="M18.2007 29.5131C17.9812 29.6803 17.9921 29.9129 18.1233 30.1732L18.2545 30.4144L18.5963 30.1584L18.519 29.9934C18.463 29.8769 18.4651 29.7585 18.5619 29.6845L19.0522 29.3207C19.1898 29.2212 19.2328 29.2106 19.379 29.2318L20.4134 29.4454C20.4134 29.4454 20.2564 29.2212 20.2047 28.9927L19.2307 28.8658C19.093 28.8488 19.0091 28.906 18.8888 28.9969L18.2007 29.5131Z" fill="white"/>
        <path d="M24.8145 32.5339H25.2058L25.8338 31.0128C25.8552 30.9599 25.8853 30.9367 25.9089 30.8922C25.6273 30.7822 25.4617 30.706 25.2273 30.5728C25.3843 30.7801 25.5068 30.869 25.4423 31.0615L24.8145 32.5339Z" fill="white"/>
        <path d="M25.1481 11.9598L25.8729 7.86182L23.127 8.77999V13.0049L25.1481 11.9598ZM23.5914 9.19466L25.4127 8.53458C25.4127 8.53458 25.0579 8.81807 24.6343 9.10374C24.258 9.35966 23.5914 9.63257 23.5914 9.63257V9.19466ZM23.5914 10.1869L25.2579 9.60082C25.2579 9.60082 25.0579 9.80816 24.6364 10.0938C24.2602 10.3476 23.5936 10.6207 23.5936 10.6207V10.1869H23.5914ZM23.5914 11.2404L25.0579 10.6862C25.0579 10.6862 25.0579 10.8617 24.6343 11.1452C24.258 11.4013 23.5914 11.6742 23.5914 11.6742V11.2404Z" fill="white"/>
        <path d="M20.2623 15.5833L20.3224 15.6784H20.8879L20.8945 15.7758C20.9009 15.8688 20.9224 15.964 20.9546 16.0614C21.0428 16.3259 21.2169 16.603 21.4965 16.8273C21.8212 17.0853 22.2901 17.2715 22.9136 17.2715C24.2662 17.2715 24.8768 16.4105 24.9348 15.7758L24.9391 15.6784H25.5068L25.567 15.5833C26.1003 14.7624 26.7518 13.8506 27.5087 13.7193L25.4445 12.541L22.9136 13.895L20.3805 12.541L18.3184 13.7193C19.0753 13.8484 19.7268 14.7624 20.2623 15.5833Z" fill="white"/>
        <path d="M22.7007 13.0049V8.77999L19.959 7.86182L20.6793 11.9598L22.7007 13.0049ZM22.2383 11.6784C22.2383 11.6784 21.5718 11.4034 21.1954 11.1495C20.7718 10.8659 20.7718 10.6883 20.7718 10.6883L22.2404 11.2425V11.6784H22.2383ZM22.2383 9.19466V9.63257C22.2383 9.63257 21.5718 9.35966 21.1954 9.10374C20.7697 8.81807 20.4126 8.53458 20.4126 8.53458L22.2383 9.19466ZM22.2383 10.1869V10.6227C22.2383 10.6227 21.5718 10.3498 21.1954 10.0959C20.7697 9.81032 20.5719 9.60299 20.5719 9.60299L22.2383 10.1869Z" fill="white"/>
        <path d="M22.9157 6.05518C21.3481 6.05518 20.1719 6.56081 19.916 7.15312L22.9157 8.31884L25.911 7.15312C25.6573 6.56081 24.4832 6.05518 22.9157 6.05518Z" fill="white"/>
        <path d="M22.9165 4.36268C24.0713 4.36268 25.2281 4.70757 26.0065 5.15393C26.1334 4.74135 26.2689 4.44736 26.4538 4.11096L25.7442 4.21883L25.1701 3.01291L24.0971 3.57353L22.9165 2.4248L21.734 3.57353L20.6631 3.01291L20.0847 4.21883L19.375 4.11096C19.5599 4.44736 19.6933 4.74135 19.8244 5.15393C20.6051 4.70757 21.7575 4.36268 22.9165 4.36268Z" fill="white"/>
        <path d="M42.4826 13.6499C42.8696 13.6013 43.1814 13.4744 43.562 13.195C42.7428 12.9814 41.0268 12.37 39.5625 12.645C39.0786 12.7085 38.8099 12.901 38.9818 13.011C39.7689 13.5251 40.7408 14.7163 41.4483 16.1062C42.0697 15.3467 41.8095 14.3502 41.6784 14.0645C42.9169 14.7987 43.2416 15.1562 43.8157 15.0167C43.5083 14.5533 43.0761 14.1365 42.4826 13.6499Z" fill="white"/>
        <path d="M4.38116 16.1041C5.0886 14.7141 6.06054 13.523 6.8497 13.0089C7.02597 12.8988 6.75293 12.7063 6.27341 12.6428C4.8069 12.3699 3.08666 12.9792 2.2674 13.193C2.65227 13.4721 2.95766 13.5991 3.34904 13.6478C2.75343 14.1365 2.32118 14.5511 2.01367 15.0145C2.5921 15.1541 2.91466 14.7966 4.15111 14.0625C4.02425 14.3502 3.76187 15.3446 4.38116 16.1041Z" fill="white"/>
        <path fill-rule="evenodd" clip-rule="evenodd" d="M12.9687 29.005C13.5385 28.5608 14.0116 28.3386 13.988 27.2618C13.1321 27.6933 10.7044 27.6701 9.68948 26.295C9.40346 25.9036 9.70889 25.7068 9.98618 26.0157C10.6807 26.79 11.9667 26.4389 12.4354 26.2167C12.3601 25.9501 12.1516 25.6031 11.9774 25.455C12.1537 25.2858 12.6504 25.0319 12.7514 24.5961C12.4869 24.4544 11.4569 24.3528 11.4569 24.3528C11.6225 24.1963 11.8291 23.9783 11.7043 23.3965C10.6528 23.7139 9.35185 23.2824 9.05728 22.8994C8.76702 22.5228 9.06372 22.1695 9.30889 22.4191C9.83346 22.9608 12.4182 23.5806 13.3794 22.6391C13.0224 22.5419 12.629 22.2288 12.558 22.0341C13.4482 21.9453 14.1578 21.429 14.2158 20.7859C13.7234 20.7859 12.7945 20.75 12.4763 20.5172C12.902 20.3628 13.173 20.2105 13.3085 19.7408C11.6806 19.6434 11.5516 18.4545 11.543 18.2578C12.6031 18.8585 14.4696 18.592 13.9858 17.111C13.1041 17.0645 12.216 15.6619 14.6395 14.3735C16.8435 13.1993 19.3486 11.9342 19.1271 9.85021C18.983 8.51738 16.7532 7.60766 16.4694 6.93278C15.5383 7.36864 15.3512 7.87429 15.7705 8.72263C15.7705 8.72263 13.6954 8.92571 13.5321 7.66904C13.4612 7.10633 13.8439 6.57949 14.2546 6.17543C14.0223 6.17543 12.459 5.76285 11.9881 7.01536C11.113 6.42725 10.3625 6.44834 9.77329 7.07034C10.7152 7.62036 11.2979 9.50754 12.8547 10.064C11.7473 10.6542 9.95609 10.4067 8.91109 8.59146C7.92195 10.0575 7.35216 11.509 9.47448 13.0596C5.61462 14.788 5.64258 18.0927 2.28384 19.6667C2.62357 20.5658 3.34178 20.5658 4.25781 20.4263C2.80635 22.2817 4.04281 24.2237 1.74414 25.0171C1.95914 25.7745 2.39139 26.3795 3.2386 26.1575C2.99778 26.5277 2.83868 26.5192 2.46448 26.9254C3.72025 27.704 5.21045 27.1412 5.54805 24.6426C5.60823 24.1963 6.23179 24.4755 6.01679 24.9135C4.58464 27.8267 8.20577 30.0185 6.92417 32.1552C8.05307 32.1086 8.91533 32.022 9.38414 31.6475C9.61423 32.096 9.75397 32.5403 9.70236 32.9781C10.3259 32.8534 10.5538 32.4916 10.5969 32.0727C11.0054 33.2469 12.4676 34.5015 14.8072 34.5015C13.5664 32.7582 14.7212 30.9915 12.9687 29.005ZM10.6592 31.1525L10.1604 31.988C9.98194 31.438 9.65719 30.8668 9.44863 30.4606C9.0466 31.2751 8.41223 31.2921 7.80147 31.2963C7.93699 29.3457 5.44476 27.3845 6.54144 25.1589C6.76082 24.7146 6.61666 24.1688 6.14579 23.934C4.47506 23.1004 5.24906 26.5615 3.58047 26.6673C3.89876 26.2717 4.01912 25.4509 4.0665 25.3789C3.71161 25.4699 2.86226 26.003 2.47952 25.3218C3.45573 24.7993 3.73529 24.0122 3.88799 23.223C4.08154 22.2245 4.17181 21.7612 4.3675 21.3508C4.57397 20.9128 4.90293 20.532 5.60823 19.633C5.44049 19.6561 3.56329 20.0476 3.13968 19.853C6.38874 17.8895 5.65762 15.3953 10.6097 13.1718C9.31101 12.2219 7.98425 11.4645 8.93473 9.65138C10.2916 11.255 12.8698 10.7008 14.2631 9.95604C12.8869 9.68521 11.113 8.49213 10.6936 7.16341C11.2119 7.08514 11.8849 7.63946 12.2698 7.89758C12.4569 7.40674 12.5301 6.83761 13.1342 6.71496C12.3279 8.40954 13.9191 9.29379 15.4373 9.30021C15.6737 9.30021 16.6543 9.20288 16.6543 9.20288C16.4974 8.88554 15.863 8.01814 16.3231 7.66904C16.6952 8.01184 17.138 8.28476 17.5402 8.58938C20.4925 10.8361 16.1382 12.9179 14.3578 13.8635C11.5645 15.3488 12.3128 17.1175 13.4783 17.5681C13.474 17.767 13.3493 17.8558 13.1558 17.9193C12.3386 18.1858 11.5731 17.6125 10.9217 17.2444C10.9602 18.353 10.8829 19.4192 12.1301 20.0285L11.272 20.3353C12.0097 20.8874 12.2355 21.1795 13.1235 21.2937C12.7085 21.4925 12.1946 21.4883 11.7537 21.5285C11.8655 21.8352 11.9559 22.252 12.188 22.5271C10.3711 22.7386 9.64219 21.7189 9.0788 21.759C7.87894 21.8479 7.95417 24.0693 10.9065 24.0736L10.6013 24.5707C10.6013 24.5707 11.1602 24.8924 11.6742 24.9536C11.4785 25.1101 11.2893 25.3218 11.1237 25.4825L11.5946 25.8825C10.3884 26.094 10.0486 24.833 9.26584 25.4403C8.0725 26.3711 10.7023 28.3324 13.2224 28.0403C13.0117 28.307 12.4182 28.7004 12.1645 28.9035C14.218 30.8119 13.2052 32.61 14.0502 33.9281C12.2785 33.8139 10.9668 32.5339 10.6592 31.1525Z" fill="black"/>
        <path fill-rule="evenodd" clip-rule="evenodd" d="M7.41838 24.184C7.84636 24.6219 8.36236 24.6684 9.3408 24.607C8.26346 24.478 7.6592 24.22 7.28297 23.5175C7.22919 23.1537 7.1926 22.7644 7.17755 22.3497C7.14319 21.2348 7.51729 19.9061 8.30006 18.4505C8.29579 19.3625 9.02902 20.7968 10.6697 21.0359C9.19453 20.4012 8.32801 18.9732 8.80097 17.5916C9.10852 17.1093 9.45479 16.61 9.84182 16.1045C10.0354 15.8611 10.2245 15.6242 10.4094 15.4062C10.2117 16.1107 11.0783 16.8385 11.6588 16.9613C11.3449 16.6586 10.6697 15.6791 12.2286 14.0396C11.7943 14.2426 11.3126 14.5282 10.9471 14.8075C13.7768 11.7991 16.1055 11.7145 17.1743 10.1997C15.6261 11.2405 11.5255 11.8033 9.68267 11.3104C10.6998 11.979 13.149 11.9175 13.7489 11.7928C11.7534 13.7032 7.39267 15.677 6.63573 17.433C7.69794 16.2864 8.38606 16.0768 9.3064 15.7828C8.58174 16.847 7.93023 17.7821 7.4808 18.8673C6.31968 21.3469 4.76717 21.3786 4.66602 23.4223C5.19504 21.8377 6.27017 21.4357 7.01419 20.3949C6.88295 21.0591 6.82063 21.7954 6.84433 22.6458C6.87015 23.5705 7.05933 24.3828 7.3582 25.1105C7.28297 26.1218 7.37324 27.8481 8.55165 28.9885C7.75172 27.992 7.57971 26.3715 7.65067 25.739C8.57309 27.4885 11.203 29.9088 12.4738 31.5336C11.203 29.4455 8.08718 27.004 7.41838 24.184Z" fill="black"/>
        <path fill-rule="evenodd" clip-rule="evenodd" d="M36.5267 15.7827C37.4406 16.0789 38.1308 16.2883 39.193 17.435C38.4405 15.6791 34.0732 13.7052 32.0778 11.7948C32.6776 11.9176 35.129 11.9809 36.144 11.3124C34.3032 11.8054 30.2027 11.2427 28.6523 10.2017C29.7232 11.7165 32.0498 11.8012 34.8817 14.8095C34.5184 14.5303 34.0367 14.2447 33.6001 14.0416C35.1569 15.6812 34.4839 16.6628 34.1679 16.9653C34.7484 16.8427 35.6149 16.1149 35.4171 15.4104C35.6042 15.6282 35.7934 15.8653 35.987 16.1085C36.3761 16.6162 36.7202 17.1135 37.0278 17.5958C37.5007 18.9794 36.632 20.4074 35.1612 21.04C36.8019 20.8031 37.5373 19.3666 37.5287 18.4547C38.3136 19.9103 38.6877 21.2388 38.6534 22.3538C38.6383 22.7685 38.6017 23.1557 38.5457 23.5217C38.1673 24.224 37.563 24.4822 36.4879 24.6112C37.4685 24.6705 37.9824 24.626 38.4125 24.1882C37.7437 27.0082 34.6279 29.4497 33.355 31.5399C34.6279 29.9151 37.2535 27.4947 38.1802 25.7452C38.2512 26.3777 38.0791 27.9983 37.2792 28.9948C38.4576 27.8545 38.5479 26.1281 38.4727 25.1168C38.7694 24.3891 38.9565 23.5767 38.9866 22.6521C39.0145 21.8017 38.9479 21.0633 38.8188 20.4012C39.565 21.442 40.6379 21.844 41.1691 23.4286C41.0681 21.3828 39.5156 21.351 38.3522 18.8715C37.9007 17.7799 37.2512 16.8447 36.5267 15.7827Z" fill="black"/>
        <path fill-rule="evenodd" clip-rule="evenodd" d="M41.5769 20.4221C42.4906 20.5638 43.2088 20.5639 43.5507 19.6647C40.1919 18.0907 40.2199 14.7882 36.3602 13.0577C38.4825 11.5091 37.9106 10.0557 36.9236 8.5895C35.8807 10.4046 34.083 10.6522 32.9799 10.0619C34.5324 9.5055 35.1195 7.61841 36.0614 7.06829C35.4721 6.4464 34.7196 6.4252 33.8442 7.0133C33.3713 5.76091 31.8101 6.17348 31.5758 6.17348C31.9844 6.57545 32.3714 7.10218 32.2983 7.6671C32.1369 8.92366 30.0619 8.72066 30.0619 8.72066C30.4813 7.87223 30.2942 7.36659 29.3631 6.93084C29.0793 7.60572 26.8516 8.51541 26.7053 9.84833C26.4818 11.9322 28.9911 13.1973 31.193 14.3714C33.6164 15.6598 32.7283 17.0646 31.8488 17.1091C31.3607 18.59 33.2272 18.8565 34.2894 18.2557C34.2852 18.4524 34.1497 19.6415 32.5219 19.7387C32.6595 20.2085 32.9284 20.3607 33.3541 20.5152C33.0358 20.75 32.1069 20.7839 31.6167 20.7839C31.6747 21.427 32.3864 21.9453 33.2766 22.0321C33.2057 22.2267 32.81 22.5398 32.4553 22.6372C33.4164 23.5786 36.001 22.9587 36.5258 22.4172C36.7666 22.1674 37.0611 22.5208 36.773 22.8974C36.4763 23.2824 35.1775 23.7141 34.1238 23.3946C34.0035 23.9742 34.2056 24.1943 34.3712 24.3508C34.3712 24.3508 33.3412 24.4523 33.0746 24.5941C33.1756 25.0299 33.6744 25.2817 33.8486 25.453C33.6723 25.6012 33.4636 25.9482 33.3885 26.2147C33.8616 26.4389 35.1475 26.788 35.8377 26.0137C36.1172 25.7069 36.4225 25.9016 36.1365 26.2929C35.1216 27.6681 32.6939 27.6893 31.8359 27.2598C31.8123 28.3367 32.2853 28.5588 32.8552 29.0031C31.1006 30.9897 32.2596 32.7562 31.0188 34.4952C33.3563 34.4952 34.8184 33.2406 35.2269 32.0665C35.2743 32.4832 35.498 32.8472 36.1194 32.972C36.072 32.5341 36.2097 32.0897 36.4375 31.6412C36.9107 32.0157 37.773 32.1025 38.9019 32.149C37.6224 30.0122 41.2435 27.8204 39.8071 24.9072C39.5942 24.4693 40.2178 24.19 40.278 24.6365C40.6134 27.135 42.1058 27.6977 43.3636 26.9192C42.9852 26.513 42.8282 26.5215 42.5874 26.1512C43.4346 26.3733 43.8647 25.7683 44.0819 25.0108C41.794 24.2196 43.0304 22.2775 41.5769 20.4221ZM41.7703 25.3812C41.8154 25.453 41.9337 26.2739 42.2542 26.6695C40.5833 26.5637 41.3575 23.1026 39.6867 23.9362C39.2158 24.1689 39.0759 24.7147 39.2932 25.1611C40.3855 27.3867 37.8955 29.3478 38.0353 31.2985C37.4203 31.2942 36.7817 31.2773 36.3838 30.4628C36.1796 30.8691 35.8506 31.4403 35.6721 31.9903L35.1732 31.1547C34.8636 32.5382 33.5519 33.8162 31.7843 33.9325C32.6251 32.6165 31.6144 30.8183 33.6702 28.9079C33.4121 28.7047 32.8208 28.3113 32.608 28.0447C35.1303 28.3367 37.7579 26.3755 36.5644 25.4446C35.7839 24.8374 35.4399 26.0983 34.2378 25.8867L34.7088 25.4869C34.5431 25.3262 34.3518 25.1167 34.1562 24.958C34.6701 24.8967 35.2291 24.5751 35.2291 24.5751L34.9238 24.0779C37.8761 24.0737 37.947 21.8522 36.7537 21.7634C36.1925 21.7232 35.4614 22.7451 33.6443 22.5313C33.8745 22.2563 33.969 21.8396 34.0808 21.5328C33.6422 21.4926 33.1239 21.4969 32.7111 21.2979C33.5992 21.1859 33.8228 20.8917 34.5603 20.3417L33.7046 20.0328C34.9496 19.4214 34.87 18.3572 34.9087 17.2487C34.2593 17.6168 33.4895 18.188 32.6789 17.9236C32.4853 17.8602 32.3585 17.7712 32.3542 17.5724C33.5219 17.1197 34.2658 15.3532 31.4747 13.8679C29.6964 12.9222 25.34 10.8405 28.2902 8.59583C28.6943 8.2912 29.133 8.01608 29.5029 7.6755C29.9653 8.02458 29.333 8.892 29.1761 9.20933C29.1761 9.20933 30.1566 9.30666 30.3889 9.30666C31.9091 9.30025 33.5024 8.416 32.6961 6.7193C33.3003 6.84196 33.3713 7.41528 33.5562 7.90402C33.9432 7.6459 34.6142 7.09368 35.1366 7.17195C34.713 8.4985 32.9434 9.69383 31.565 9.96466C32.9564 10.7093 35.5365 11.2637 36.8935 9.66C37.8439 11.4731 36.5193 12.2304 35.2184 13.1803C40.1726 15.4017 39.4394 17.8982 42.6906 19.8615C42.2714 20.0562 40.3876 19.6647 40.2199 19.6415C40.9296 20.5406 41.2607 20.9213 41.4628 21.3593C41.6606 21.7697 41.7467 22.2309 41.9423 23.2316C42.0971 24.0207 42.3788 24.8078 43.3508 25.3303C42.9702 26.0052 42.123 25.4721 41.7703 25.3812Z" fill="black"/>
        <path fill-rule="evenodd" clip-rule="evenodd" d="M18.1779 30.8417L18.8853 30.2515L18.7779 30.0399C18.7004 29.8876 18.7413 29.8791 18.8231 29.8199L19.1971 29.547C19.2831 29.4772 19.3735 29.4857 19.4788 29.511L20.5992 29.7692H19.4165C19.1435 29.786 19.0638 29.8897 18.9649 30.0885L18.8832 30.2515L18.5801 30.865C18.4768 31.0766 18.423 31.3579 18.694 31.6754L18.909 31.9271L18.4747 32.7924H18.8402L19.1412 32.1914C19.1649 32.1704 19.6101 31.7705 19.7046 31.3579C19.5756 31.2543 19.4853 31.1824 19.5563 31.0385L19.6917 30.7508C19.737 30.6556 19.752 30.6175 19.8809 30.6408L21.055 30.8904C21.2012 30.9306 21.4163 30.9941 21.5732 30.7614C21.7345 30.5202 21.756 30.5456 22.1301 30.5815L22.7301 30.6449C23.5493 30.7212 24.3686 30.5202 24.6868 30.2705C24.7986 30.5202 25.0202 30.7128 25.1233 30.9073C25.162 30.9793 25.0976 31.0809 25.0481 31.2078L24.375 32.7903H25.4136L26.0008 31.3474C26.0544 31.2099 26.134 31.0999 26.1942 31.0449L25.8565 32.7924H26.8651L27.1318 31.0639C27.1898 30.6789 27.1553 30.5561 26.9683 30.3974C26.549 30.0484 26.5576 29.3164 26.4221 28.8722C26.4931 28.8319 26.577 28.8108 26.6758 28.8234C26.8952 28.8424 27.0608 29.3947 27.3188 29.75C27.8349 30.463 28.538 31.2501 29.3444 30.1414C29.267 30.0146 29.1831 29.9004 29.0842 29.7903L28.8584 29.53C28.7273 29.3862 28.1037 28.6838 27.8435 28.4321C27.2521 27.8461 26.3447 27.9349 25.9835 28.2205C25.1642 27.7974 24.2998 28.2416 24.0956 28.2248L22.685 28.1401C22.6204 28.1359 22.5236 28.1147 22.4548 28.0069L22.7172 27.9223C22.472 26.9173 21.8549 26.0774 20.7775 25.9314C20.7775 25.9314 20.7153 25.6141 20.5497 25.5527L20.2271 25.9251C20.1369 25.9378 20.0379 25.9653 19.9562 25.999L18.5801 25.4956L19.6122 26.5217C19.6122 26.5217 19.0768 27.2684 18.9241 27.4208C18.8231 27.5604 18.8315 27.6684 18.9455 27.8016L19.1456 28.0597C19.2487 28.1929 19.3627 28.1888 19.5283 28.1063L19.7541 27.9899C19.853 27.9095 20.1841 28.0682 20.326 27.9413C20.2358 28.2333 20.1906 28.5145 20.1691 28.7367L19.2424 28.6267C19.0402 28.5993 18.9477 28.6267 18.8252 28.7219L18.0338 29.3206C17.7758 29.5153 17.6963 29.8516 17.8553 30.1795L18.1779 30.8417ZM25.833 31.0132L25.2051 32.5364H24.8136L25.4416 31.0618C25.506 30.8714 25.3836 30.7825 25.2266 30.5752C25.4588 30.7043 25.6265 30.7889 25.9082 30.8947C25.8845 30.937 25.8544 30.9603 25.833 31.0132ZM19.7777 27.7149L19.5992 27.808C19.4746 27.8778 19.4122 27.9095 19.3047 27.7783L19.2272 27.681C19.1886 27.6344 19.1757 27.5224 19.2552 27.4335L20.025 26.5513L19.3154 25.9779L20.2186 26.3059L20.5497 25.8997C20.6464 25.9801 20.6121 26.2149 20.6121 26.2149C20.9776 26.2149 22.042 26.7354 22.0829 28.0386C22.0829 28.0386 22.3236 28.3876 22.6312 28.4067L24.1987 28.4998C24.4589 28.4998 25.1083 28.0132 25.9425 28.4723C26.1533 28.3474 26.3791 28.248 26.6114 28.2227C27.3468 28.1698 27.8886 28.6732 28.2908 29.181C28.5853 29.5491 28.9896 30.1119 28.9896 30.1119C28.8154 30.315 28.6455 30.3827 28.5015 30.3319C28.2842 30.2219 28.2133 30.0504 28.1446 29.8114C28.0349 29.4328 27.6113 29.1091 27.6113 29.1091C27.7553 29.363 27.7854 29.6507 27.8542 29.9151C27.2414 29.3185 27.1253 28.5908 26.6974 28.4892C26.5082 28.4427 26.2867 28.523 26.0824 28.7558C26.2975 29.2487 26.2867 29.8199 26.5082 30.2029C26.6758 30.4884 26.7125 30.5139 26.7876 30.5773C26.9683 30.7043 26.8672 30.9349 26.8393 31.1019L26.6071 32.5343H26.2158L26.4737 31.1337C26.5533 30.7064 25.3341 30.7064 24.7105 29.8919C24.1793 30.5032 22.6892 30.3509 22.0442 30.2557C21.784 30.2176 21.5303 30.2346 21.3883 30.4864C21.3045 30.6281 21.1647 30.5858 21.0787 30.5646L19.9024 30.315C19.696 30.2684 19.6057 30.3086 19.5154 30.4949L19.281 30.9729C19.2294 31.085 19.2316 31.1676 19.3261 31.2586L19.438 31.3749C19.3714 31.6034 19.1585 31.779 19.1585 31.779L18.9025 31.4955C18.7779 31.3517 18.7714 31.1444 18.8703 30.9412L19.2509 30.1584C19.296 30.0717 19.3778 29.9786 19.5369 29.9786L20.9904 29.9574L20.5454 29.2444C20.2142 28.7092 20.7647 27.7551 20.6808 27.3044C20.6357 27.9074 19.8939 27.6324 19.7777 27.7149ZM18.1995 29.5131L18.8875 28.9969C19.0101 28.9059 19.0918 28.8468 19.2316 28.8637L20.2036 28.9906C20.2572 29.219 20.412 29.4434 20.412 29.4434L19.3778 29.2296C19.2316 29.2128 19.1886 29.219 19.0509 29.3164L18.5607 29.6803C18.4639 29.7544 18.4596 29.8729 18.5155 29.9892L18.5951 30.1564L18.2531 30.4102L18.122 30.169C17.9887 29.913 17.9801 29.6782 18.1995 29.5131Z" fill="black"/>
        <path fill-rule="evenodd" clip-rule="evenodd" d="M21.1973 11.147C21.5736 11.4031 22.2403 11.676 22.2403 11.676V11.2401L20.7715 10.688C20.7715 10.688 20.7715 10.8656 21.1973 11.147Z" fill="black"/>
        <path fill-rule="evenodd" clip-rule="evenodd" d="M22.2387 10.6224V10.1866L20.5723 9.60059C20.5723 9.60059 20.7701 9.80792 21.1959 10.0935C21.5722 10.3474 22.2387 10.6224 22.2387 10.6224Z" fill="black"/>
        <path fill-rule="evenodd" clip-rule="evenodd" d="M22.2378 9.63258V9.19475L20.4121 8.53467C20.4121 8.53467 20.7691 8.81817 21.1949 9.10375C21.5711 9.35967 22.2378 9.63258 22.2378 9.63258Z" fill="black"/>
        <path fill-rule="evenodd" clip-rule="evenodd" d="M27.3672 15.5835H29.2335C29.1563 15.3169 28.8659 15.0483 28.3218 15.0483C27.8058 15.0483 27.4962 15.3402 27.3672 15.5835Z" fill="black"/>
        <path fill-rule="evenodd" clip-rule="evenodd" d="M25.4152 8.53467L23.5938 9.19475V9.63258C23.5938 9.63258 24.2604 9.35967 24.6367 9.10375C25.0603 8.81817 25.4152 8.53467 25.4152 8.53467Z" fill="black"/>
        <path fill-rule="evenodd" clip-rule="evenodd" d="M25.0603 10.688L23.5938 11.2422V11.6781C23.5938 11.6781 24.2604 11.4031 24.6367 11.1492C25.0603 10.8656 25.0603 10.688 25.0603 10.688Z" fill="black"/>
        <path fill-rule="evenodd" clip-rule="evenodd" d="M25.2563 9.60059L23.5898 10.1866V10.6224C23.5898 10.6224 24.2586 10.3495 24.6327 10.0956C25.0585 9.80792 25.2563 9.60059 25.2563 9.60059Z" fill="black"/>
        <path fill-rule="evenodd" clip-rule="evenodd" d="M17.5054 15.0483C16.9614 15.0483 16.671 15.3169 16.5938 15.5835H18.4622C18.329 15.3402 18.0236 15.0483 17.5054 15.0483Z" fill="black"/>
        <path fill-rule="evenodd" clip-rule="evenodd" d="M26.6226 7.35834C26.6226 6.32587 24.8594 5.40137 22.9134 5.40137C20.9674 5.40137 19.2042 6.32587 19.2042 7.35834L19.245 7.61215L20.0192 11.9978L16.3421 14.1071C15.9507 14.3335 15.4605 14.9555 15.3981 15.5817H16.0691C16.1809 14.9555 16.6818 14.2615 17.6215 14.3039C18.4709 14.3483 18.9741 14.8561 19.4729 15.5817L19.602 15.7722L19.7869 16.0577H14.3789C14.7767 16.8426 15.153 17.6762 15.153 18.5796V29.6421C15.153 32.4876 17.3742 33.8437 19.7804 33.8437C21.6383 33.8437 21.8898 33.7612 22.9155 34.7704C23.937 33.7612 24.1885 33.8437 26.0507 33.8437C28.4548 33.8437 30.6781 32.4876 30.6781 29.6421V18.5817C30.6781 17.6782 31.0544 16.8447 31.4522 16.0598H26.04L26.227 15.7742L26.356 15.5838C26.8527 14.8582 27.3581 14.3504 28.2074 14.306C29.1429 14.2637 29.6481 14.9576 29.7578 15.5838H30.4266C30.3663 14.9576 29.8739 14.3335 29.4848 14.1092L25.8077 11.9999L26.5839 7.61425L26.6226 7.35834ZM19.9567 7.86177L22.7005 8.77999V13.0049L20.6793 11.9597L19.9567 7.86177ZM20.632 16.8257C20.9932 17.3122 21.5781 17.6719 22.2704 17.8116C22.3286 18.0675 22.4705 18.3489 22.7457 18.5753C22.6317 19.3306 22.9607 20.0351 23.7864 20.2212C23.8725 20.6063 24.1154 20.8961 24.5218 21.0337L23.9476 21.6852C23.7284 21.9349 23.4423 22.0153 23.2059 21.9857L20.6427 21.7001C20.7545 21.4208 20.4578 21.0972 19.647 21.2346L20.6556 18.4632L20.0406 17.179L18.8752 18.1564L18.7892 21.0632L18.2946 20.8242C17.643 20.5492 17.4538 21.7064 18.0731 21.7107L18.3182 21.7127C18.3031 21.8312 18.3398 21.9623 18.4344 22.0027C18.3182 22.0512 18.2838 22.2671 18.43 22.3432C18.2817 22.4109 18.2623 22.631 18.3806 22.7262C18.2516 22.9398 18.2322 23.4031 18.6816 23.5195C19.0493 23.6147 19.2793 23.2255 19.3547 22.999L23.3413 24.2134C23.9068 24.3721 24.3068 24.2832 24.7756 23.8792L25.8164 22.9842C25.6851 23.5702 25.9002 24.0971 26.3539 24.2727C26.3539 24.2727 26.2893 24.7995 26.3087 25.0342H15.9292V18.5817C15.9292 17.9808 15.7529 17.3801 15.5423 16.8257H20.632ZM24.9196 19.2734C24.7003 19.686 24.7218 20.1599 24.9798 20.5894L24.8078 20.7543C24.0595 20.6634 23.7649 19.5654 23.7649 19.5654C23.7498 19.6648 23.7413 19.7601 23.7435 19.8573C23.307 19.6987 23.0316 19.3179 23.0532 18.7954C23.2188 18.8863 23.4037 18.9497 23.6015 18.9837L23.6531 18.662C23.1305 18.5732 22.8253 18.2517 22.7092 17.8707C22.6834 17.8687 22.6618 17.8624 22.6381 17.8602C22.7306 17.8666 22.8231 17.8751 22.9176 17.8751C23.2273 17.8751 23.522 17.8285 23.7972 17.7481C24.0143 18.0527 24.3992 18.2707 24.7864 18.3129C24.7239 18.5668 24.754 18.8821 24.9196 19.2734ZM26.027 22.1761C25.9517 22.2756 25.8915 22.3897 25.8528 22.5146L25.4357 22.8912C25.5196 22.2903 25.1089 21.5816 24.7347 21.2917L25.1776 20.8644L25.2659 20.9533C25.1175 21.3362 25.4078 22.0872 26.027 22.1761ZM24.0122 21.9877L24.3562 21.6557C24.7046 21.9561 25.1648 22.6267 25.0207 23.2657L24.6465 23.6042C24.5691 23.6782 24.4896 23.7311 24.4079 23.7797C24.6423 23.2107 24.3433 22.3347 24.0122 21.9877ZM23.2725 22.2692H23.2832C23.408 22.2882 23.5414 22.2671 23.6617 22.2184C23.9241 22.5866 24.1283 23.4243 23.8144 23.9468C23.6359 23.9512 23.4618 23.9193 23.2983 23.8728L23.1692 23.8347C23.4338 23.4307 23.3972 22.7155 23.2725 22.2692ZM22.4059 22.1634L22.8898 22.2227C22.9672 22.6182 22.9155 23.3017 22.6597 23.6909L22.0963 23.5301C22.3437 23.2001 22.4598 22.5209 22.4059 22.1634ZM21.3975 22.0428L21.9845 22.1105C22.0425 22.4278 21.9328 23.1027 21.7114 23.4243L21.1136 23.2551C21.3523 22.9441 21.4382 22.3962 21.3975 22.0428ZM19.0214 21.8884C18.7483 21.9751 18.6279 21.7804 18.6387 21.6155C19.1741 21.4229 19.4127 21.5478 19.5697 21.6451C19.7137 21.7339 19.8342 21.9877 20.0276 22.1465C19.9954 22.3622 19.9287 22.6753 19.8492 22.8847C19.3009 22.7473 19.273 22.2712 19.4772 21.9815C19.3632 21.8503 19.2429 21.8164 19.0214 21.8884ZM18.6387 22.9398C18.6387 22.9398 18.8021 23.0075 19.0085 23.0223C18.9848 23.1345 18.8966 23.2402 18.7569 23.2107C18.6408 23.1852 18.5891 23.0457 18.6387 22.9398ZM18.0989 21.3954C17.9634 21.3066 18.0236 21.1119 18.1742 21.1119C18.3398 21.1162 18.559 21.3002 18.7763 21.3912C18.7763 21.3912 18.2064 21.4673 18.0989 21.3954ZM18.6558 22.5167C18.7742 22.6288 19.1289 22.5866 19.1289 22.5866L19.1419 22.6563C18.987 22.8595 18.5569 22.7685 18.6558 22.5167ZM19.1332 22.2861C18.8794 22.3855 18.6193 22.2502 18.6988 22.0893C18.8171 22.1951 19.1461 22.1422 19.1461 22.1422L19.1332 22.2861ZM19.5074 19.3814L19.0214 21.1226L19.187 18.3129L19.9395 17.6804L20.3223 18.5076L19.3547 21.2368L19.6106 19.4004C19.6342 19.2692 19.5288 19.2544 19.5074 19.3814ZM19.5418 21.4927C19.5418 21.4927 20.0836 21.4673 20.2363 21.5245C20.3481 21.571 20.2729 21.7572 20.1266 21.7361C19.974 21.7171 19.5418 21.4927 19.5418 21.4927ZM20.3911 21.9159L20.9803 21.9877C21.0254 22.3052 20.9415 22.8425 20.7309 23.1429L20.161 22.9801C20.3116 22.6267 20.3481 22.2946 20.3911 21.9159ZM29.9018 29.6442C29.9018 30.9897 29.2698 32.0116 28.2181 32.5786L28.5945 31.8254H28.229L27.7451 32.7901C27.2441 32.9763 26.6764 33.08 26.0485 33.08C24.1304 33.08 23.623 33.1562 22.9134 33.8522C22.2017 33.1562 21.6942 33.08 19.7783 33.08C19.1548 33.08 18.587 32.9806 18.0881 32.7944H18.101L18.5848 31.8254H18.2214L17.7978 32.6737C17.6968 32.6272 17.5979 32.5765 17.5033 32.5215L17.8516 31.8254H17.4904L17.2323 32.3437C16.4109 31.7492 15.9271 30.8184 15.9271 29.6442V25.413H29.8976V29.6442H29.9018ZM30.2911 16.8257C30.0739 17.3801 29.8997 17.9808 29.8997 18.5817V25.0342H29.1364C28.7902 24.7043 28.4977 23.6042 28.4977 23.6042C28.3085 23.9997 28.5257 24.8016 28.7278 25.0342H27.7451C27.5021 24.7106 27.2914 23.564 27.2914 23.564C26.9968 23.8939 27.1839 24.7847 27.3667 25.0342H26.713C26.672 24.5752 26.8054 24.0759 26.8054 24.0759C26.4636 24.0146 26.1002 23.8368 26.1023 23.4645C26.2743 23.6232 26.3453 23.621 26.5839 23.6168L26.8614 23.401C25.941 23.4307 25.8981 22.4363 26.6291 21.9708C25.9002 21.9942 25.3561 21.5668 25.6206 20.8052C25.1024 20.5407 24.9196 19.6775 25.3024 19.2988C25.025 19.0026 24.9798 18.4209 25.1562 18.0252C24.7885 18.0252 24.3757 17.8814 24.1455 17.6338C24.1283 17.6423 24.1069 17.6487 24.0875 17.6551C24.5476 17.471 24.9368 17.1832 25.1992 16.8278H30.2911V16.8257ZM27.5087 13.72C26.7517 13.8491 26.1002 14.7609 25.5669 15.5838L25.5067 15.679H24.9368L24.9347 15.7763C24.8766 16.4111 24.2638 17.2721 22.9134 17.2721C22.2898 17.2721 21.8188 17.0838 21.4964 16.8278C21.2169 16.6036 21.0405 16.3263 20.9545 16.062C20.9222 15.9668 20.9028 15.8694 20.8943 15.7763L20.89 15.679H20.3244L20.2642 15.5838C19.7288 14.763 19.0773 13.8512 18.3226 13.72L20.3847 12.5416L22.9176 13.8956L25.4465 12.5416L27.5087 13.72ZM25.1475 11.9597L23.1284 13.0049V8.77999L25.8722 7.86177L25.1475 11.9597ZM22.9155 8.31883L19.9159 7.1531C20.1697 6.56069 21.3459 6.05505 22.9155 6.05505C24.4831 6.05505 25.6571 6.56069 25.9109 7.1531L22.9155 8.31883Z" fill="black"/>
        <path fill-rule="evenodd" clip-rule="evenodd" d="M29.5818 20.9954L29.5883 20.6718C28.5797 20.6484 28.3475 19.4785 28.3475 19.4785C28.053 20.3395 28.8228 20.9828 29.5818 20.9954Z" fill="black"/>
        <path fill-rule="evenodd" clip-rule="evenodd" d="M28.308 22.9778L28.207 22.671C27.3469 22.8868 26.9018 21.5454 26.9018 21.5454C26.6266 22.5207 27.5856 23.2105 28.308 22.9778Z" fill="black"/>
        <path fill-rule="evenodd" clip-rule="evenodd" d="M28.9073 21.7338C27.8794 21.8946 27.458 20.7183 27.458 20.7183C27.344 21.3593 27.7655 22.0088 28.4472 22.0765C28.2923 22.9122 29.0815 23.3416 29.7652 23.0433L29.6663 22.7514C29.0729 22.9482 28.516 22.3705 28.9073 21.7338Z" fill="black"/>
        <path fill-rule="evenodd" clip-rule="evenodd" d="M28.292 18.3764L28.3005 18.0526C26.9437 17.7776 27.0576 16.8594 27.0576 16.8594C26.7653 17.7247 27.535 18.3636 28.292 18.3764Z" fill="black"/>
        <path fill-rule="evenodd" clip-rule="evenodd" d="M19.6949 31.8252L19.209 32.794H19.5746L20.0583 31.8252H19.6949Z" fill="black"/>
        <path fill-rule="evenodd" clip-rule="evenodd" d="M20.4273 31.8252L19.9434 32.794H20.3112L20.7906 31.8252H20.4273Z" fill="black"/>
        <path fill-rule="evenodd" clip-rule="evenodd" d="M23.3647 31.8252L22.8809 32.794H23.2442L23.7302 31.8252H23.3647Z" fill="black"/>
        <path fill-rule="evenodd" clip-rule="evenodd" d="M24.1014 31.8252L23.6133 32.794H23.981L24.4626 31.8252H24.1014Z" fill="black"/>
        <path fill-rule="evenodd" clip-rule="evenodd" d="M22.6324 31.8252L22.1465 32.794H22.5121L22.9959 31.8252H22.6324Z" fill="black"/>
        <path fill-rule="evenodd" clip-rule="evenodd" d="M26.9219 32.794H27.2874L27.7712 31.8252H27.4056L26.9219 32.794Z" fill="black"/>
        <path fill-rule="evenodd" clip-rule="evenodd" d="M21.1636 31.8252L20.6797 32.794H21.0452L21.5291 31.8252H21.1636Z" fill="black"/>
        <path fill-rule="evenodd" clip-rule="evenodd" d="M21.894 31.8252L21.4102 32.794H21.7779L22.2617 31.8252H21.894Z" fill="black"/>
        <path fill-rule="evenodd" clip-rule="evenodd" d="M20.2341 26.6167C20.1674 26.6167 20.1094 26.6802 20.1094 26.7627C20.1094 26.843 20.1674 26.9086 20.2341 26.9086C20.3029 26.9086 20.3631 26.843 20.3631 26.7627C20.361 26.6802 20.3029 26.6167 20.2341 26.6167Z" fill="black"/>
        <path fill-rule="evenodd" clip-rule="evenodd" d="M22.9154 4.74707C24.4207 4.74707 25.6269 5.23791 26.2913 5.76463C26.2913 5.76463 26.4913 4.58841 27.1644 3.55594L25.9516 3.6892L25.3173 2.36062L24.0981 2.98472L22.9154 1.82959L21.7328 2.98472L20.5092 2.36062L19.8749 3.6892L18.6621 3.55594C19.3373 4.58841 19.5352 5.76463 19.5352 5.76463C20.2018 5.23791 21.4102 4.74707 22.9154 4.74707ZM20.0835 4.21813L20.6619 3.01221L21.7328 3.57294L22.9154 2.42411L24.0981 3.57294L25.169 3.01221L25.7409 4.21813L26.4527 4.11026C26.2699 4.44666 26.1323 4.74066 26.0054 5.15323C25.227 4.70687 24.0702 4.36198 22.9154 4.36198C21.7564 4.36198 20.6017 4.70687 19.8233 5.15323C19.6943 4.74066 19.5588 4.44666 19.3739 4.11026L20.0835 4.21813Z" fill="black"/>
        <path fill-rule="evenodd" clip-rule="evenodd" d="M24.1551 2.37163C24.3314 2.38642 24.4883 2.25526 24.5033 2.08392C24.5206 1.91048 24.2626 1.44922 24.2626 1.44922C24.2626 1.44922 23.8777 1.85749 23.8648 2.03104C23.8476 2.20029 23.9809 2.35474 24.1551 2.37163Z" fill="black"/>
        <path fill-rule="evenodd" clip-rule="evenodd" d="M26.1405 3.08011C26.2976 3.16269 26.4888 3.10131 26.5727 2.94686C26.6588 2.7945 26.6028 2.27197 26.6028 2.27197C26.6028 2.27197 26.091 2.49841 26.0072 2.65275C25.9254 2.8051 25.9858 2.99554 26.1405 3.08011Z" fill="black"/>
        <path fill-rule="evenodd" clip-rule="evenodd" d="M21.6747 2.37163C21.8532 2.35474 21.9844 2.20238 21.9693 2.03104C21.9522 1.85749 21.5715 1.44922 21.5715 1.44922C21.5715 1.44922 21.3156 1.91258 21.3307 2.08392C21.3436 2.25526 21.5006 2.38642 21.6747 2.37163Z" fill="black"/>
        <path fill-rule="evenodd" clip-rule="evenodd" d="M19.6899 3.08011C19.8468 2.99554 19.9049 2.8051 19.8231 2.65275C19.7414 2.49841 19.2275 2.27197 19.2275 2.27197C19.2275 2.27197 19.1738 2.7945 19.2598 2.94686C19.3394 3.10131 19.5329 3.16269 19.6899 3.08011Z" fill="black"/>
        <path fill-rule="evenodd" clip-rule="evenodd" d="M43.5256 13.8274C43.9491 13.6792 44.276 13.2815 44.4394 12.9134C43.3621 12.761 40.5001 11.5784 38.1476 12.541C39.0293 11.718 39.8206 11.6123 39.8958 10.4276C40.2613 10.6857 40.8786 10.8316 41.2269 10.216C40.984 9.51146 40.3711 10.0827 40.2851 9.88805C40.1646 9.61721 41.057 9.97063 41.2484 9.05455C40.5538 8.81971 40.3474 9.37821 40.2227 9.24913C40.1086 9.12655 40.6636 8.89155 40.255 8.15332C39.5324 8.57005 39.9087 9.03763 39.7562 9.09055C39.5711 9.16238 39.7174 8.58905 38.9174 8.61655C38.8379 9.46071 39.6679 9.48821 39.5324 9.62155C39.3669 9.78438 39.1519 9.13696 38.5476 9.46496C38.5584 10.1462 39.1196 10.5206 39.698 10.3599C39.6035 11.6546 38.3949 11.4135 37.4961 12.8732C39.4013 13.8337 40.2635 15.5093 41.4355 16.6685C41.8225 16.3979 42.4848 15.1961 42.4848 15.1961C43.7535 16.163 44.6458 15.2004 44.6458 15.2004C44.2093 14.7603 44.1921 14.4261 43.5256 13.8274ZM41.6763 14.0622C41.8074 14.3479 42.0676 15.3442 41.4462 16.1038C40.7387 14.7138 39.7668 13.5227 38.9797 13.0086C38.8078 12.8986 39.0744 12.706 39.5604 12.6425C41.0247 12.3696 42.7428 12.979 43.5599 13.1927C43.1793 13.4719 42.8697 13.5989 42.4806 13.6455C43.0741 14.1362 43.5083 14.5509 43.8136 15.0121C43.2395 15.1539 42.9148 14.7963 41.6763 14.0622Z" fill="black"/>
        <path fill-rule="evenodd" clip-rule="evenodd" d="M29.4435 35.6714V34.0889C28.2007 34.6496 26.6202 35.1045 24.5861 35.2844L24.4935 35.8491C24.6656 35.8725 24.8849 35.8935 25.1774 35.9126C24.4247 36.0142 23.4507 36.0629 22.9174 36.0629C22.382 36.0629 21.4101 36.0142 20.6553 35.9126C20.9457 35.8935 21.1649 35.8725 21.337 35.8491L21.2445 35.2844C19.2103 35.1045 17.6278 34.6496 16.387 34.0889V35.6714L14.7012 36.3527C15.9505 36.9916 17.3869 37.512 19.0469 37.9331L18.8491 38.5953C19.7996 38.8703 21.3197 39.1494 22.9131 39.1494C24.5064 39.1494 26.0246 38.8682 26.9771 38.5953L26.7814 37.9331C28.4394 37.512 29.8801 36.9916 31.1294 36.3527L29.4435 35.6714ZM15.6021 36.3887L16.7396 35.938V34.6496C17.4707 34.9267 18.4297 35.2145 19.8059 35.4959L19.1608 37.5628C17.7568 37.2455 16.5633 36.8181 15.6021 36.3887ZM22.9152 38.7708C21.6315 38.7708 20.378 38.5825 19.3071 38.3224L19.9887 36.1539C20.4403 36.2575 21.5713 36.3929 22.9152 36.3929C24.2613 36.3929 25.386 36.2553 25.8397 36.1539L26.5235 38.3224C25.4483 38.5825 24.1968 38.7708 22.9152 38.7708ZM26.6719 37.5628L26.0268 35.4959C27.4029 35.2165 28.3619 34.9267 29.093 34.6496V35.938L30.2285 36.3887C29.2673 36.8181 28.0781 37.2455 26.6719 37.5628Z" fill="black"/>
        <path fill-rule="evenodd" clip-rule="evenodd" d="M3.34657 15.1961C3.34657 15.1961 4.00887 16.3979 4.39374 16.6685C5.56778 15.5114 6.43217 13.8358 8.33518 12.8732C7.4342 11.4135 6.22581 11.6589 6.13543 10.3599C6.71385 10.5206 7.27297 10.144 7.28589 9.46496C6.6795 9.13696 6.4645 9.78871 6.30103 9.62155C6.16562 9.48396 6.99341 9.46071 6.91606 8.61655C6.11611 8.59121 6.26229 9.16238 6.07525 9.09055C5.92469 9.03763 6.30103 8.56788 5.57642 8.15332C5.17 8.8938 5.72687 9.12655 5.61078 9.24913C5.48828 9.37821 5.27755 8.8218 4.58506 9.05455C4.77221 9.97063 5.66882 9.61721 5.54846 9.88805C5.46246 10.0827 4.8517 9.51146 4.61088 10.216C4.95499 10.8338 5.57428 10.6878 5.9376 10.4297C6.01507 11.6165 6.80423 11.716 7.68794 12.541C5.33346 11.5784 2.47141 12.761 1.38978 12.9155C1.55538 13.2815 1.8822 13.6792 2.3058 13.8231C1.63924 14.4282 1.62195 14.7625 1.18555 15.2004C1.18555 15.2004 2.07576 16.163 3.34657 15.1961ZM2.01333 15.0142C2.32085 14.553 2.7531 14.1362 3.35083 13.6475C2.95945 13.5989 2.65195 13.4719 2.26921 13.1927C3.08845 12.979 4.8087 12.3675 6.27521 12.6425C6.75685 12.706 7.02788 12.8986 6.8515 13.0086C6.06447 13.5227 5.09039 14.7138 4.38296 16.1038C3.76367 15.3442 4.02605 14.35 4.15291 14.0643C2.91645 14.7963 2.59389 15.1539 2.01333 15.0142Z" fill="black"/>
        <path fill-rule="evenodd" clip-rule="evenodd" d="M21.8848 14.314V15.01C22.1278 14.7202 22.6009 14.7773 22.6009 14.7773V15.7822C22.6009 15.7822 22.5837 16.2774 22.4073 16.4889H22.917H23.4266C23.2481 16.2774 23.2331 15.7822 23.2331 15.7822V14.7794C23.2331 14.7794 23.7039 14.7224 23.947 15.0121V14.316H22.917H21.8848V14.314Z" fill="black"/>
        <path d="M60.428 25.69V18.9681H64.463V16.522H53.4551V18.9681H57.49V25.69H60.428ZM68.4789 21.8572V16.522H65.6388V25.69H68.146L73.0426 20.3549V25.69H75.8828V16.522H73.3757L68.4789 21.8572ZM85.4375 22.281V25.69H88.2774V16.522H85.4375V19.8734H80.8738V16.522H78.0337V25.69H80.8738V22.281H85.4375ZM96.1875 25.69C96.8333 25.69 97.4214 25.6323 97.9697 25.4781C99.4392 25.0738 100.398 23.8989 100.398 22.3001C100.398 20.7786 99.5765 19.7193 98.2638 19.2377C97.6358 19.0066 96.8926 18.9873 96.1875 18.9873H93.2689V16.522H90.4282V25.69H96.1875ZM95.6977 21.1445C96.0892 21.1445 96.4613 21.1445 96.7943 21.2601C97.2647 21.4141 97.5384 21.7995 97.5384 22.2617C97.5384 22.7432 97.2647 23.1477 96.8138 23.3402C96.5003 23.4751 96.1875 23.4751 95.6977 23.4751H93.2689V21.1445H95.6977ZM105.491 22.2232L108.879 25.69H112.66L107.939 20.9134L112.483 16.522H108.918L105.491 19.9697H104.707V16.522H101.868V25.69H104.707V22.2232H105.491ZM118.503 16.2716C114.683 16.2716 112.392 18.3903 112.392 21.1252C112.392 23.8603 114.683 25.979 118.503 25.979C122.304 25.979 124.595 23.8603 124.595 21.1252C124.595 18.3903 122.304 16.2716 118.503 16.2716ZM118.503 23.7447C116.604 23.7447 115.39 22.6276 115.39 21.1252C115.39 19.623 116.604 18.525 118.503 18.525C120.383 18.525 121.617 19.623 121.617 21.1252C121.617 22.6276 120.383 23.7447 118.503 23.7447ZM134.054 16.002H131.214V16.9265C127.649 17.0035 125.514 18.4866 125.514 21.106C125.514 23.7255 127.649 25.093 131.214 25.17V26.0945H134.054V25.17C137.638 25.093 139.773 23.7255 139.773 21.106C139.773 18.4866 137.638 17.0035 134.054 16.9265V16.002ZM131.214 23.2055C129.254 23.1284 128.393 22.3386 128.393 21.106C128.393 19.8734 129.254 18.9873 131.214 18.9104V23.2055ZM134.054 18.9104C136.032 18.9873 136.874 19.8734 136.874 21.106C136.874 22.3386 136.032 23.1284 134.054 23.2055V18.9104ZM149.222 16.002H146.382V16.9265C142.817 17.0035 140.682 18.4866 140.682 21.106C140.682 23.7255 142.817 25.093 146.382 25.17V26.0945H149.222V25.17C152.807 25.093 154.941 23.7255 154.941 21.106C154.941 18.4866 152.807 17.0035 149.222 16.9265V16.002ZM146.382 23.2055C144.423 23.1284 143.561 22.3386 143.561 21.106C143.561 19.8734 144.423 18.9873 146.382 18.9104V23.2055ZM149.222 18.9104C151.2 18.9873 152.043 19.8734 152.043 21.106C152.043 22.3386 151.2 23.1284 149.222 23.2055V18.9104Z" fill="black"/>
    </g>
    <defs>
        <clipPath id="clip0_1830_25895">
            <rect width="155" height="40" fill="white"/>
        </clipPath>
    </defs>
</svg>
