<svg width="407" height="79" viewBox="0 0 407 79" fill="none" xmlns="http://www.w3.org/2000/svg">
    <path d="M406.879 2.59088C407.205 1.82943 406.852 0.947616 406.091 0.621282C405.329 0.294949 404.448 0.647676 404.121 1.40912L406.879 2.59088ZM1.15135 32.5411C0.345611 32.7336 -0.151473 33.5429 0.0410818 34.3487L3.17894 47.4789C3.3715 48.2847 4.18077 48.7817 4.98651 48.5892C5.79225 48.3966 6.28933 47.5874 6.09678 46.7816L3.30757 35.1103L14.9789 32.3211C15.7847 32.1285 16.2817 31.3192 16.0892 30.5135C15.8966 29.7078 15.0874 29.2107 14.2816 29.4032L1.15135 32.5411ZM4.14862 37.3441C4.86233 37.7647 5.78188 37.5271 6.20249 36.8134C6.6231 36.0997 6.3855 35.1802 5.6718 34.7595L4.14862 37.3441ZM12.5827 38.6675C11.8545 38.2725 10.944 38.5426 10.549 39.2708C10.154 39.999 10.4241 40.9095 11.1523 41.3046L12.5827 38.6675ZM18.2776 45.0135C19.0188 45.3836 19.9196 45.0827 20.2897 44.3416C20.6598 43.6004 20.359 42.6995 19.6178 42.3295L18.2776 45.0135ZM26.7887 45.7645C26.0359 45.4187 25.1453 45.7487 24.7995 46.5015C24.4537 47.2543 24.7836 48.1449 25.5364 48.4907L26.7887 45.7645ZM32.8783 51.7256C33.6414 52.0479 34.5214 51.6906 34.8437 50.9274C35.1661 50.1643 34.8087 49.2843 34.0456 48.962L32.8783 51.7256ZM41.4254 51.9498C40.653 51.6503 39.784 52.0336 39.4845 52.806C39.1849 53.5783 39.5682 54.4473 40.3406 54.7469L41.4254 51.9498ZM47.8531 57.5381C48.6337 57.8158 49.4915 57.4081 49.7691 56.6275C50.0467 55.847 49.639 54.9892 48.8585 54.7116L47.8531 57.5381ZM56.403 57.2794C55.6153 57.023 54.7688 57.4538 54.5125 58.2416C54.2562 59.0294 54.687 59.8758 55.4748 60.1321L56.403 57.2794ZM63.1214 62.5105C63.9155 62.7464 64.7505 62.2939 64.9864 61.4997C65.2223 60.7056 64.7697 59.8706 63.9756 59.6347L63.1214 62.5105ZM71.6442 61.8083C70.8444 61.5922 70.021 62.0654 69.8049 62.8652C69.5889 63.6649 70.0621 64.4884 70.8619 64.7045L71.6442 61.8083ZM78.6171 66.7001C79.4218 66.8971 80.2338 66.4044 80.4308 65.5998C80.6277 64.7951 80.1351 63.9831 79.3304 63.7862L78.6171 66.7001ZM87.0934 65.5917C86.2844 65.4132 85.484 65.9244 85.3055 66.7333C85.127 67.5423 85.6381 68.3428 86.4471 68.5213L87.0934 65.5917ZM94.2869 70.1602C95.0997 70.3208 95.8887 69.7922 96.0494 68.9795C96.21 68.1668 95.6814 67.3778 94.8687 67.2171L94.2869 70.1602ZM102.703 68.679C101.887 68.5357 101.11 69.0809 100.966 69.8968C100.823 70.7127 101.368 71.4904 102.184 71.6337L102.703 68.679ZM110.088 72.9388C110.906 73.0654 111.673 72.5044 111.799 71.6857C111.926 70.867 111.365 70.1007 110.546 69.974L110.088 72.9388ZM118.433 71.1139C117.612 71.0034 116.857 71.5795 116.747 72.4006C116.636 73.2216 117.212 73.9767 118.033 74.0871L118.433 71.1139ZM125.984 75.0784C126.807 75.1731 127.55 74.5827 127.645 73.7597C127.74 72.9367 127.149 72.1928 126.326 72.0981L125.984 75.0784ZM134.25 72.9346C133.426 72.8553 132.693 73.4594 132.613 74.2841C132.534 75.1087 133.138 75.8415 133.963 75.9208L134.25 72.9346ZM141.946 76.6159C142.772 76.6803 143.494 76.063 143.558 75.2371C143.623 74.4112 143.005 73.6894 142.179 73.625L141.946 76.6159ZM150.127 74.1743C149.3 74.1244 148.589 74.7543 148.539 75.5812C148.489 76.4082 149.119 77.1189 149.946 77.1688L150.127 74.1743ZM157.951 77.5822C158.779 77.6179 159.478 76.9758 159.514 76.1481C159.55 75.3205 158.908 74.6207 158.08 74.585L157.951 77.5822ZM166.039 74.8604C165.211 74.8387 164.522 75.4925 164.5 76.3206C164.479 77.1487 165.132 77.8377 165.96 77.8594L166.039 74.8604ZM173.977 78.0031C174.806 78.0111 175.484 77.346 175.492 76.5176C175.5 75.6893 174.835 75.0112 174.006 75.0032L173.977 78.0031ZM181.968 75.0155C181.139 75.021 180.472 75.6969 180.477 76.5253C180.483 77.3537 181.159 78.0209 181.987 78.0155L181.968 75.0155ZM190.008 77.8986C190.836 77.8799 191.492 77.1934 191.474 76.3652C191.455 75.537 190.768 74.8807 189.94 74.8994L190.008 77.8986ZM197.894 74.6569C197.067 74.6887 196.421 75.3855 196.453 76.2133C196.485 77.0412 197.182 77.6865 198.01 77.6547L197.894 74.6569ZM206.026 77.284C206.853 77.2392 207.487 76.5323 207.442 75.7051C207.398 74.8779 206.691 74.2436 205.864 74.2883L206.026 77.284ZM213.804 73.7966C212.977 73.8543 212.354 74.5709 212.412 75.3974C212.469 76.2238 213.186 76.847 214.013 76.7894L213.804 73.7966ZM222.016 76.1687C222.841 76.0982 223.453 75.3719 223.383 74.5465C223.312 73.7211 222.586 73.1091 221.761 73.1796L222.016 76.1687ZM229.681 72.4414C228.856 72.5247 228.256 73.2603 228.339 74.0846C228.422 74.9088 229.158 75.5095 229.982 75.4262L229.681 72.4414ZM237.963 74.5568C238.786 74.4607 239.375 73.7157 239.279 72.8929C239.183 72.0701 238.438 71.481 237.615 71.5771L237.963 74.5568ZM245.509 70.592C244.688 70.701 244.111 71.4551 244.22 72.2764C244.329 73.0976 245.083 73.6749 245.904 73.5659L245.509 70.592ZM253.852 72.4464C254.671 72.3243 255.236 71.5611 255.114 70.7417C254.992 69.9223 254.229 69.3571 253.41 69.4791L253.852 72.4464ZM261.273 68.2428C260.456 68.3781 259.903 69.1503 260.038 69.9676C260.173 70.7849 260.946 71.3378 261.763 71.2026L261.273 68.2428ZM269.663 69.8285C270.478 69.6798 271.018 68.8986 270.869 68.0836C270.72 67.2687 269.939 66.7285 269.124 66.8772L269.663 69.8285ZM276.953 65.3809C276.141 65.5433 275.614 66.3335 275.776 67.1459C275.938 67.9582 276.729 68.4851 277.541 68.3227L276.953 65.3809ZM285.374 66.6864C286.183 66.51 286.696 65.7108 286.52 64.9013C286.343 64.0919 285.544 63.5788 284.735 63.7553L285.374 66.6864ZM292.523 61.9843C291.717 62.1753 291.218 62.9836 291.409 63.7897C291.6 64.5958 292.409 65.0945 293.215 64.9035L292.523 61.9843ZM300.955 62.9938C301.757 62.7879 302.241 61.9704 302.035 61.168C301.829 60.3656 301.012 59.8821 300.209 60.088L300.955 62.9938ZM307.949 58.0204C307.151 58.2422 306.683 59.069 306.905 59.8672C307.127 60.6654 307.954 61.1327 308.752 60.9109L307.949 58.0204ZM316.431 58.6927C317.224 58.4545 317.674 57.6182 317.436 56.8248C317.198 56.0313 316.361 55.5812 315.568 55.8194L316.431 58.6927ZM323.179 53.4435C322.391 53.6992 321.96 54.5452 322.215 55.3332C322.471 56.1212 323.317 56.5527 324.105 56.297L323.179 53.4435ZM331.724 53.7256C332.505 53.4513 332.917 52.5952 332.642 51.8135C332.368 51.0318 331.512 50.6205 330.73 50.8949L331.724 53.7256ZM338.138 48.1898C337.364 48.484 336.974 49.3503 337.269 50.1247C337.563 50.8992 338.429 51.2885 339.204 50.9942L338.138 48.1898ZM346.732 48.0127C347.498 47.6966 347.862 46.8195 347.546 46.0538C347.23 45.2881 346.353 44.9236 345.587 45.2398L346.732 48.0127ZM352.886 42.0935C352.13 42.4336 351.794 43.3217 352.134 44.0771C352.474 44.8325 353.362 45.1691 354.117 44.829L352.886 42.0935ZM361.342 41.425C362.085 41.0585 362.39 40.1591 362.023 39.4161C361.657 38.6732 360.757 38.3681 360.014 38.7347L361.342 41.425ZM367.084 35.0686C366.357 35.4654 366.089 36.3765 366.486 37.1038C366.883 37.831 367.794 38.0989 368.521 37.7022L367.084 35.0686ZM375.533 33.6612C376.24 33.2299 376.464 32.3068 376.032 31.5996C375.601 30.8923 374.678 30.6686 373.971 31.0999L375.533 33.6612ZM380.6 26.798C379.919 27.2695 379.749 28.2039 380.221 28.8851C380.692 29.5662 381.627 29.7361 382.308 29.2646L380.6 26.798ZM388.791 24.4379C389.437 23.9189 389.54 22.9747 389.02 22.329C388.501 21.6834 387.557 21.5807 386.912 22.0998L388.791 24.4379ZM392.8 16.9245C392.205 17.5007 392.189 18.4503 392.766 19.0456C393.342 19.6409 394.291 19.6564 394.887 19.0803L392.8 16.9245ZM400.418 13.0647C400.938 12.4201 400.838 11.4757 400.193 10.9554C399.548 10.435 398.604 10.5358 398.084 11.1804L400.418 13.0647ZM402.448 4.79496C402.043 5.5178 402.301 6.43187 403.024 6.83659C403.746 7.2413 404.661 6.98342 405.065 6.26058L402.448 4.79496ZM0.714922 35.2781C1.85172 35.9764 2.99635 36.665 4.14862 37.3441L5.6718 34.7595C4.53513 34.0897 3.40615 33.4105 2.28508 32.7219L0.714922 35.2781ZM11.1523 41.3046C13.4994 42.5777 15.875 43.8138 18.2776 45.0135L19.6178 42.3295C17.2449 41.1447 14.8994 39.9242 12.5827 38.6675L11.1523 41.3046ZM25.5364 48.4907C27.9595 49.6037 30.4073 50.6818 32.8783 51.7256L34.0456 48.962C31.6025 47.93 29.1831 46.8644 26.7887 45.7645L25.5364 48.4907ZM40.3406 54.7469C42.824 55.71 45.3287 56.6403 47.8531 57.5381L48.8585 54.7116C46.3601 53.823 43.882 52.9026 41.4254 51.9498L40.3406 54.7469ZM55.4748 60.1321C58.0062 60.9558 60.5555 61.7484 63.1214 62.5105L63.9756 59.6347C61.434 58.8798 58.9094 58.0949 56.403 57.2794L55.4748 60.1321ZM70.8619 64.7045C73.4325 65.3989 76.0181 66.0639 78.6171 66.7001L79.3304 63.7862C76.7541 63.1555 74.1915 62.4964 71.6442 61.8083L70.8619 64.7045ZM86.4471 68.5213C89.0488 69.0952 91.6626 69.6414 94.2869 70.1602L94.8687 67.2171C92.2655 66.7025 89.6733 66.1609 87.0934 65.5917L86.4471 68.5213ZM102.184 71.6337C104.81 72.0951 107.445 72.5299 110.088 72.9388L110.546 69.974C107.923 69.5683 105.308 69.1367 102.703 68.679L102.184 71.6337ZM118.033 74.0871C120.677 74.4426 123.328 74.7729 125.984 75.0784L126.326 72.0981C123.689 71.7947 121.058 71.4668 118.433 71.1139L118.033 74.0871ZM133.963 75.9208C136.62 76.1765 139.282 76.4081 141.946 76.6159L142.179 73.625C139.533 73.4185 136.889 73.1886 134.25 72.9346L133.963 75.9208ZM149.946 77.1688C152.613 77.3297 155.282 77.4673 157.951 77.5822L158.08 74.585C155.428 74.4708 152.776 74.334 150.127 74.1743L149.946 77.1688ZM165.96 77.8594C168.634 77.9295 171.307 77.9772 173.977 78.0031L174.006 75.0032C171.352 74.9775 168.696 74.93 166.039 74.8604L165.96 77.8594ZM181.987 78.0155C184.664 77.998 187.338 77.9589 190.008 77.8986L189.94 74.8994C187.287 74.9593 184.629 74.9981 181.968 75.0155L181.987 78.0155ZM198.01 77.6547C200.688 77.5519 203.36 77.4282 206.026 77.284L205.864 74.2883C203.214 74.4317 200.557 74.5547 197.894 74.6569L198.01 77.6547ZM214.013 76.7894C216.689 76.6027 219.358 76.3957 222.016 76.1687L221.761 73.1796C219.118 73.4052 216.465 73.6111 213.804 73.7966L214.013 76.7894ZM229.982 75.4262C232.655 75.1562 235.315 74.8662 237.963 74.5568L237.615 71.5771C234.983 71.8847 232.337 72.1729 229.681 72.4414L229.982 75.4262ZM245.904 73.5659C248.569 73.2121 251.218 72.8388 253.852 72.4464L253.41 69.4791C250.792 69.8692 248.158 70.2403 245.509 70.592L245.904 73.5659ZM261.763 71.2026C264.415 70.7636 267.049 70.3054 269.663 69.8285L269.124 66.8772C266.527 67.3512 263.909 67.8065 261.273 68.2428L261.763 71.2026ZM277.541 68.3227C280.175 67.796 282.787 67.2504 285.374 66.6864L284.735 63.7553C282.165 64.3155 279.57 64.8576 276.953 65.3809L277.541 68.3227ZM293.215 64.9035C295.823 64.2855 298.404 63.6487 300.955 62.9938L300.209 60.088C297.676 60.7382 295.113 61.3705 292.523 61.9843L293.215 64.9035ZM308.752 60.9109C311.346 60.1903 313.906 59.4506 316.431 58.6927L315.568 55.8194C313.064 56.5712 310.523 57.3052 307.949 58.0204L308.752 60.9109ZM324.105 56.297C326.687 55.459 329.228 54.6016 331.724 53.7256L330.73 50.8949C328.257 51.7628 325.74 52.6126 323.179 53.4435L324.105 56.297ZM339.204 50.9942C341.767 50.0202 344.278 49.026 346.732 48.0127L345.587 45.2398C343.16 46.2419 340.676 47.2256 338.138 48.1898L339.204 50.9942ZM354.117 44.829C356.593 43.7143 359.002 42.5793 361.342 41.425L360.014 38.7347C357.708 39.8726 355.331 40.9927 352.886 42.0935L354.117 44.829ZM368.521 37.7022C370.95 36.377 373.289 35.0294 375.533 33.6612L373.971 31.0999C371.771 32.4416 369.474 33.7651 367.084 35.0686L368.521 37.7022ZM382.308 29.2646C384.597 27.6797 386.761 26.0701 388.791 24.4379L386.912 22.0998C384.942 23.6835 382.836 25.2505 380.6 26.798L382.308 29.2646ZM394.887 19.0803C396.928 17.1044 398.777 15.0981 400.418 13.0647L398.084 11.1804C396.527 13.1083 394.763 15.0246 392.8 16.9245L394.887 19.0803ZM405.065 6.26058C405.745 5.04595 406.351 3.82245 406.879 2.59088L404.121 1.40912C403.637 2.53835 403.079 3.66723 402.448 4.79496L405.065 6.26058Z" fill="#F7F6F5"/>
</svg>
