<svg width="537" height="220" viewBox="0 0 537 220" fill="none" xmlns="http://www.w3.org/2000/svg">
    <g filter="url(#filter0_i_505_7874)">
        <path d="M0.169449 176.201C-1.27743 193.436 12.1112 208.322 29.4033 208.703L505.902 219.204C524.668 219.618 539.2 202.891 536.169 184.367L510.171 25.4918C507.774 10.8389 495.018 0.144139 480.171 0.338998L41.643 6.09466C26.1997 6.29735 13.4338 18.192 12.1418 33.5825L0.169449 176.201Z" fill="#C20025"/>
        <path d="M0.169449 176.201C-1.27743 193.436 12.1112 208.322 29.4033 208.703L505.902 219.204C524.668 219.618 539.2 202.891 536.169 184.367L510.171 25.4918C507.774 10.8389 495.018 0.144139 480.171 0.338998L41.643 6.09466C26.1997 6.29735 13.4338 18.192 12.1418 33.5825L0.169449 176.201Z" fill="url(#paint0_linear_505_7874)" fill-opacity="0.3"/>
    </g>
    <defs>
        <filter id="filter0_i_505_7874" x="0.0625" y="0.336426" width="539.508" height="221.875" filterUnits="userSpaceOnUse" color-interpolation-filters="sRGB">
            <feFlood flood-opacity="0" result="BackgroundImageFix"/>
            <feBlend mode="normal" in="SourceGraphic" in2="BackgroundImageFix" result="shape"/>
            <feColorMatrix in="SourceAlpha" type="matrix" values="0 0 0 0 0 0 0 0 0 0 0 0 0 0 0 0 0 0 127 0" result="hardAlpha"/>
            <feOffset dx="3" dy="3"/>
            <feGaussianBlur stdDeviation="5"/>
            <feComposite in2="hardAlpha" operator="arithmetic" k2="-1" k3="1"/>
            <feColorMatrix type="matrix" values="0 0 0 0 0 0 0 0 0 0 0 0 0 0 0 0 0 0 0.1 0"/>
            <feBlend mode="normal" in2="shape" result="effect1_innerShadow_505_7874"/>
        </filter>
        <linearGradient id="paint0_linear_505_7874" x1="534.942" y1="220" x2="-0.842182" y2="74.7118" gradientUnits="userSpaceOnUse">
            <stop stop-color="#FF0030"/>
            <stop offset="0.870111" stop-color="#FF0030" stop-opacity="0"/>
        </linearGradient>
    </defs>
</svg>
