<svg width="164" height="104" viewBox="0 0 164 104" fill="none" xmlns="http://www.w3.org/2000/svg">
    <rect y="-0.000488281" width="164" height="104" rx="15" fill="white"/>
    <path d="M110.182 57.1815C112.129 57.1815 113.682 56.8662 115.195 56.1768V53.3246C115.195 53.2685 115.135 53.2338 115.086 53.2598C113.517 54.0854 112.084 54.4428 110.181 54.4428C107.881 54.4428 106.701 53.3393 106.701 51.2118C106.701 49.0843 107.881 47.9809 110.181 47.9809C112.084 47.9809 113.517 48.3382 115.086 49.1638C115.135 49.1899 115.195 49.1551 115.195 49.099V46.2468C113.681 45.5575 112.128 45.2422 110.182 45.2422C106.014 45.2422 103.615 47.4091 103.615 51.2112C103.615 55.0132 106.014 57.1801 110.182 57.1801V57.1815Z" fill="#FF5500"/>
    <path d="M102.215 51.4087C102.215 47.1337 99.6003 45.2627 95.845 45.2627C91.7557 45.2627 89.2783 47.5084 89.2783 51.1729C89.2783 55.6843 92.0703 57.1813 96.1203 57.1813C98.5777 57.1813 100.524 56.7872 101.862 56.2555V53.5215C101.862 53.4654 101.804 53.4299 101.754 53.4553C100.785 53.9383 98.5817 54.5221 96.1597 54.5221C94.0303 54.5221 92.6916 53.8307 92.391 52.1381H102.051C102.112 52.1381 102.164 52.094 102.173 52.0339C102.202 51.8275 102.216 51.6111 102.216 51.4093L102.215 51.4087ZM95.845 47.8237C97.7503 47.8237 98.801 48.68 99.1896 49.9318H92.449C92.7796 48.5792 93.8077 47.8237 95.845 47.8237Z" fill="#FF5500"/>
    <path d="M82.2952 45.2427C80.2412 45.2427 78.8412 46.0462 77.9692 47.2386C77.9472 47.2686 77.9012 47.2546 77.8999 47.2172L77.8512 45.558H74.9219V60.8251H77.9299V55.2402C77.9299 55.2028 77.9765 55.1874 77.9992 55.2175C78.8725 56.3897 80.2645 57.1806 82.2952 57.1806C85.7752 57.1806 87.9379 54.6791 87.9379 51.2116C87.9379 47.7442 85.7752 45.2427 82.2952 45.2427ZM81.3905 54.4426C79.3652 54.4426 77.9299 53.1621 77.9299 51.2116C77.9299 49.2612 79.3652 47.9807 81.3905 47.9807C83.5732 47.9807 84.7725 49.2218 84.7725 51.2116C84.7725 53.2015 83.5732 54.4426 81.3905 54.4426Z" fill="#FF5500"/>
    <path d="M65.3449 56.8855H68.3529V48.2968H73.3862V45.5581H60.3115V48.2968H65.3449V56.8855Z" fill="#0A1E78"/>
    <path d="M49.4157 51.8351V45.5582H46.3877V57.0666C46.3877 57.2289 46.5717 57.3224 46.7024 57.2269L55.7857 50.596V56.8856H58.8137V45.3765C58.8137 45.2141 58.6297 45.1206 58.499 45.2162L49.4157 51.8351Z" fill="#0A1E78"/>
    <path d="M29.9625 57.0217C29.1219 57.0217 28.5059 56.9829 28.5059 56.9829V54.2609H28.9945C29.5639 54.2609 29.9905 54.1247 30.2752 53.8528C30.5599 53.581 30.7699 53.1368 30.9059 52.5209C31.0419 51.9057 31.1485 50.9819 31.2259 49.7502C31.2772 48.8818 31.3292 47.4884 31.3812 45.57C31.3939 44.9742 31.4132 44.222 31.4392 43.3149H43.5732V56.8861H40.2359V45.9207H34.5612C34.5479 46.1024 34.5159 46.8218 34.4645 48.0789C34.4385 48.9606 34.4125 49.5177 34.3872 49.7508C34.2705 51.6305 34.0892 53.0693 33.8439 54.0672C33.5979 55.0659 33.1772 55.8073 32.5825 56.2936C31.9872 56.7799 31.1139 57.023 29.9632 57.023L29.9625 57.0217Z" fill="#0A1E78"/>
    <path d="M121.974 45.548C121.889 45.548 121.865 45.6008 121.925 45.6616C122.257 45.9942 122.463 46.4538 122.463 46.9635C122.463 47.4731 122.258 47.93 121.928 48.2627C121.864 48.3274 121.884 48.3782 122.004 48.3782H129.11C129.513 48.0402 129.771 47.5319 129.771 46.9628C129.771 46.3937 129.513 45.8854 129.11 45.5474H121.974L121.974 45.548Z" fill="#0A1E78"/>
    <path d="M121.974 49.8014C121.889 49.8014 121.865 49.8542 121.925 49.915C122.257 50.2477 122.463 50.7072 122.463 51.2169C122.463 51.7265 122.258 52.1834 121.928 52.5161C121.864 52.5809 121.884 52.6316 122.004 52.6316H126.341C126.744 52.2936 127.002 51.7853 127.002 51.2162C127.002 50.6471 126.744 50.1388 126.34 49.8008H121.974L121.974 49.8014Z" fill="#0A1E78"/>
    <path d="M121.974 54.0554C121.883 54.0554 121.863 54.1068 121.927 54.1709C122.258 54.5036 122.462 54.9618 122.462 55.4708C122.462 55.9798 122.257 56.4373 121.927 56.77C121.863 56.8348 121.884 56.8855 122.004 56.8855H123.571C123.974 56.5475 124.232 56.0392 124.232 55.4701C124.232 54.901 123.974 54.3927 123.57 54.0547H121.974V54.0554Z" fill="#0A1E78"/>
    <path d="M134.832 45.5479C134.534 45.5479 133.843 45.5479 132.925 45.5479C133.328 45.8858 133.585 46.3928 133.586 46.9633C133.586 47.5337 133.328 48.0407 132.925 48.3787C133.843 48.3787 134.534 48.3787 134.832 48.3787C135.235 48.0414 135.493 47.5337 135.493 46.9633C135.493 46.3928 135.235 45.8858 134.832 45.5479Z" fill="#FF5500"/>
    <path d="M132.924 45.5479C132.626 45.5479 131.935 45.5479 131.017 45.5479C131.42 45.8858 131.677 46.3928 131.678 46.9633C131.678 47.5337 131.42 48.0407 131.017 48.3787C131.935 48.3787 132.626 48.3787 132.924 48.3787C133.327 48.0414 133.585 47.5337 133.585 46.9633C133.585 46.3928 133.327 45.8858 132.924 45.5479Z" fill="#6262D9"/>
    <path d="M134.832 49.8018C134.534 49.8018 131.073 49.8018 130.155 49.8018C130.559 50.1398 130.816 50.6467 130.817 51.2172C130.817 51.7876 130.559 52.2946 130.155 52.6326C131.073 52.6326 134.534 52.6326 134.832 52.6326C135.235 52.2953 135.493 51.7876 135.493 51.2172C135.493 50.6467 135.235 50.1398 134.832 49.8018Z" fill="#FF5500"/>
    <path d="M130.155 49.8018C129.857 49.8018 129.166 49.8018 128.248 49.8018C128.651 50.1398 128.909 50.6467 128.909 51.2172C128.909 51.7876 128.651 52.2946 128.248 52.6326C129.166 52.6326 129.857 52.6326 130.155 52.6326C130.559 52.2953 130.817 51.7876 130.817 51.2172C130.817 50.6467 130.559 50.1398 130.155 49.8018Z" fill="#6262D9"/>
    <path d="M131.017 45.5483C130.719 45.5483 130.027 45.5483 129.109 45.5483C129.513 45.8863 129.77 46.3933 129.771 46.9638C129.771 47.5342 129.513 48.0412 129.109 48.3792C130.027 48.3792 130.719 48.3792 131.017 48.3792C131.42 48.0419 131.678 47.5342 131.678 46.9638C131.678 46.3933 131.42 45.8863 131.017 45.5483Z" fill="#3D3DC7"/>
    <path d="M128.247 49.8018C127.949 49.8018 127.258 49.8018 126.34 49.8018C126.743 50.1398 127.001 50.6467 127.001 51.2172C127.001 51.7876 126.743 52.2946 126.34 52.6326C127.258 52.6326 127.949 52.6326 128.247 52.6326C128.651 52.2953 128.909 51.7876 128.909 51.2172C128.909 50.6467 128.651 50.1398 128.247 49.8018Z" fill="#3D3DC7"/>
    <path d="M134.832 54.0552C134.534 54.0552 128.304 54.0552 127.386 54.0552C127.789 54.3932 128.046 54.9002 128.047 55.4706C128.047 56.041 127.789 56.548 127.386 56.886C128.304 56.886 134.534 56.886 134.832 56.886C135.236 56.5487 135.494 56.041 135.494 55.4706C135.494 54.9002 135.236 54.3932 134.832 54.0552Z" fill="#FF5500"/>
    <path d="M127.386 54.0552C127.088 54.0552 126.397 54.0552 125.479 54.0552C125.882 54.3932 126.139 54.9002 126.14 55.4706C126.14 56.041 125.882 56.548 125.479 56.886C126.397 56.886 127.088 56.886 127.386 56.886C127.789 56.5487 128.047 56.041 128.047 55.4706C128.047 54.9002 127.789 54.3932 127.386 54.0552Z" fill="#6262D9"/>
    <path d="M125.478 54.0552C125.18 54.0552 124.488 54.0552 123.57 54.0552C123.974 54.3932 124.231 54.9002 124.232 55.4706C124.232 56.041 123.974 56.548 123.57 56.886C124.488 56.886 125.18 56.886 125.478 56.886C125.881 56.5487 126.139 56.041 126.139 55.4706C126.139 54.9002 125.881 54.3932 125.478 54.0552Z" fill="#3D3DC7"/>
</svg>
