<svg width="164" height="104" viewBox="0 0 164 104" fill="none" xmlns="http://www.w3.org/2000/svg">
    <rect y="-0.000488281" width="164" height="104" rx="15" fill="white"/>
    <g clip-path="url(#clip0_1850_41618)">
        <path d="M52.9698 47.8147C52.8874 47.7308 52.8391 47.654 52.7708 47.5474C52.7353 47.4934 52.6969 47.4351 52.6542 47.3725C52.7723 47.2361 52.8718 47.0783 52.9471 46.9049L53.2485 46.2183L52.5065 46.1117C52.3814 46.0933 52.1795 46.0406 51.9435 45.9782C51.4887 45.8588 50.9045 45.7052 50.2677 45.6384C50.4851 45.5431 50.67 45.3711 50.7992 45.138L50.9215 44.9177C50.9215 44.9177 50.8888 44.6093 50.7694 44.5126C50.8149 44.4174 50.8504 44.3122 50.8747 44.197L50.9755 43.7052L50.5007 43.5432C50.4269 43.5176 50.353 43.4991 50.2804 43.4877C50.2534 43.3982 50.2136 43.3029 50.1596 43.202L49.8781 42.686L49.3707 42.9831C49.2442 43.057 49.1376 43.1423 49.0509 43.2376C48.9755 43.2234 48.8945 43.2162 48.8092 43.2162C48.8092 43.2162 48.5192 43.1835 48.1994 43.3001L47.79 42.8751L47.3053 42.3577C46.8519 41.873 46.2378 41.7294 45.6123 41.9682C45.3735 41.7294 45.0011 41.5318 44.4226 41.5318C44.2264 41.5318 44.0544 41.556 43.9535 41.5688C43.9535 41.5688 43.1574 41.7137 42.7097 42.1388L42.1667 41.8801C41.8028 42.4529 41.1802 42.6349 41.1802 42.6349C41.1376 42.4671 41.065 42.3108 40.9613 42.1672L40.9968 41.9654C40.9968 41.9597 41.119 41.276 41.4915 40.696L42.1397 39.6867L41.2214 39.7905C41.2242 39.6996 41.22 39.5915 41.2072 39.4636L41.1247 38.6789L40.4055 39.0045C40.3259 39.04 40.259 39.0755 40.1965 39.1082L40.0544 38.8055L39.7246 38.976C39.6919 38.895 39.6493 38.8026 39.591 38.696L39.2115 37.9995L38.6727 38.5809C38.6172 38.6406 38.5703 38.696 38.5305 38.7486L38.2036 38.4231L37.8739 38.75C37.8326 38.6974 37.7871 38.642 37.7317 38.5823L37.1873 37.9995L36.8063 38.6989C36.748 38.8055 36.7068 38.8964 36.6741 38.9775L36.3458 38.8069L36.2036 39.1097C36.141 39.077 36.0742 39.0414 35.9946 39.0045L35.2725 38.6804L35.1929 39.4679C35.1801 39.5944 35.1759 39.701 35.1787 39.7919L34.259 39.6882L34.9086 40.6974C35.2825 41.276 35.4019 41.9597 35.4019 41.9654L35.436 42.1672C35.3323 42.3122 35.2583 42.4686 35.2171 42.6363C35.2171 42.6363 34.6286 42.3847 34.2348 41.8801L33.6805 42.1444C33.048 41.718 32.6556 41.5517 31.9733 41.5318C31.3947 41.5162 31.0223 41.7294 30.7835 41.9682C30.1567 41.7308 29.544 41.8744 29.092 42.3591C29.092 42.3591 28.7949 42.6818 28.6072 42.8765C28.4196 43.0726 28.1424 43.2347 28.1424 43.2347C28.1424 43.2347 27.7487 43.1466 27.3436 43.239C27.2569 43.1437 27.1488 43.0584 27.0209 42.9831L26.512 42.686L26.2319 43.2049C26.178 43.3044 26.1396 43.3982 26.114 43.4877C26.0415 43.4991 25.9676 43.5176 25.8937 43.5432L25.4217 43.708L25.5198 44.197C25.544 44.315 25.5781 44.4202 25.625 44.5154C25.598 44.568 25.5739 44.6235 25.5539 44.6817L25.4743 44.9191L25.5951 45.1395C25.7231 45.3711 25.9064 45.5446 26.1254 45.6398C25.4871 45.7066 24.9043 45.8602 24.4481 45.9795C24.2135 46.0406 24.0116 46.0947 23.8866 46.1131L23.1417 46.2212L23.3108 46.6049L23.4459 46.9106C23.5226 47.0812 23.6236 47.239 23.7401 47.3754C23.696 47.4379 23.5084 47.7322 23.4246 47.8161L23.0479 48.1984L23.4089 48.5964C23.4544 48.6448 23.8595 49.0698 24.5148 49.0712C24.6939 49.0712 24.8716 49.0399 25.0479 48.9774C25.2227 49.2503 25.4302 49.5275 25.6193 49.6639C25.271 50.0733 24.8744 50.4287 24.3102 50.6973L23.8382 50.922L24.0415 51.4607C24.1737 51.7862 24.431 52.143 24.9285 52.2794C24.8219 52.5978 24.7707 52.8992 24.7252 53.1678C24.6186 53.806 24.5731 54.0704 24.0116 54.268L23.507 54.4443L23.652 54.9589C23.7686 55.3781 23.9434 55.6554 24.1324 55.8387L23.797 56.2083C23.797 56.2083 24.593 56.8053 25.3734 56.8778C25.3847 56.8793 26.05 56.9219 26.3485 56.5409C26.4679 56.973 26.657 57.3711 26.829 57.7321C27.1815 58.4741 27.3692 58.9133 27.1332 59.3141L26.6001 60.2182L27.6478 60.1742C28.1055 60.1556 28.5305 60.1272 28.8986 60.0362C28.8986 60.0562 28.8973 60.0746 28.8958 60.0931L28.8105 60.8692L29.7288 60.676C29.8255 60.6475 29.9164 60.6091 29.9989 60.565C30.5674 61.2303 31.534 61.7491 32.8362 61.7491H32.9115L31.4146 62.3632L32.5049 62.9304C33.2227 63.3042 34.0203 63.6169 34.93 63.8827L34.8034 64.3192L35.3507 64.4797C35.6663 64.5721 36.8077 64.8749 38.1979 64.8749C39.5881 64.8749 40.7281 64.5721 41.0451 64.4797L41.591 64.3192L41.4644 63.8841C42.3756 63.6183 43.1731 63.3056 43.8909 62.9318L44.9812 62.3646L43.4829 61.7505H43.5583C44.8604 61.7505 45.8255 61.2317 46.3941 60.5664C46.4766 60.6105 46.5676 60.6489 46.6642 60.6774L47.5824 60.8707L47.4986 60.096C47.4971 60.0775 47.4958 60.0576 47.4958 60.0377C47.8625 60.1287 48.289 60.1556 48.7452 60.1756L49.7928 60.2196L49.2627 59.317C49.0252 58.9162 49.2143 58.477 49.5655 57.735C49.7374 57.3739 49.9265 56.9758 50.0459 56.5438C50.2477 56.6973 50.4652 56.7897 50.6813 56.838C50.6813 56.838 50.849 56.8878 51.0096 56.892C51.473 56.9062 51.7048 56.774 52.0231 56.5736L52.6017 56.2097L52.2634 55.8402C52.4524 55.6582 52.6273 55.381 52.7438 54.9631L52.8902 54.4471L52.3842 54.2709C51.8213 54.0732 51.7772 53.8089 51.6707 53.1706C51.6252 52.902 51.5754 52.5993 51.4674 52.2822C51.9649 52.1444 52.2207 51.7875 52.353 51.4635L52.5548 50.9234L52.0829 50.6987C51.5185 50.4301 51.1219 50.0747 50.7723 49.6653C50.9627 49.5289 51.1703 49.2517 51.3465 48.9788C51.5213 49.0414 51.6991 49.0712 51.8796 49.0726C52.5349 49.0726 52.9414 48.6476 52.9855 48.5992L53.3465 48.2012L52.9698 47.8147Z" fill="white"/>
        <path fill-rule="evenodd" clip-rule="evenodd" d="M33.5782 54.8195V50.484C33.5782 50.0804 33.4616 49.6766 33.3223 49.3057H36.687C36.9954 49.7292 37.5554 50.0135 38.198 50.0135C38.8376 50.0135 39.3976 49.7292 39.7075 49.3057H43.0722C42.93 49.678 42.8149 50.0804 42.8149 50.484V54.8195H33.5782ZM38.1965 60.744C37.726 60.2764 37.3905 60.2252 36.1226 60.2252C34.6073 60.2252 33.5782 59.3368 33.5782 57.9168V55.0739H42.8135V57.9168C42.8135 59.3368 41.7857 60.2252 40.2676 60.2252C39.0011 60.2238 38.6656 60.2764 38.1965 60.744Z" fill="#FFDD2D"/>
        <path d="M34.1142 61.2803V62.146L33.3623 62.4487C33.9976 62.7373 34.7866 63.0244 35.7134 63.2362L36.1398 61.8474C35.2302 61.6612 34.5961 61.4665 34.1142 61.2803Z" fill="white"/>
        <path d="M38.1968 62.4526C37.3083 62.4526 36.5606 62.3602 36.2621 62.292L35.8115 63.749C36.5194 63.9224 37.3481 64.0503 38.1968 64.0503C39.0425 64.0503 39.8712 63.9238 40.582 63.749L40.13 62.292C39.8314 62.3616 39.0866 62.4526 38.1968 62.4526Z" fill="white"/>
        <path d="M42.2795 61.2803C41.7962 61.4665 41.1637 61.6598 40.2539 61.8489L40.6818 63.2376C41.6101 63.0258 42.3961 62.7387 43.0315 62.4502L42.281 62.1474V61.2803H42.2795Z" fill="white"/>
        <path d="M32.5397 47.3144C33.7167 46.679 36.5937 45.2803 34.6434 43.7721C34.3777 43.5674 34.0849 43.3826 33.8389 43.1538C33.5348 43.3883 33.9527 43.9711 34.0578 44.1843C34.0578 44.1843 33.4082 44.2497 33.2533 44.2497C32.2497 44.2454 31.1978 43.6513 31.7309 42.5127C31.3315 42.5952 31.2831 42.9789 31.1609 43.3073C30.905 43.1339 30.4601 42.7615 30.1175 42.8141C30.3961 43.7052 31.5689 44.5084 32.4785 44.6903C31.5589 45.1907 29.8531 45.5631 28.9562 44.4856C28.3265 45.7039 29.2035 46.2127 30.0635 46.8509C26.7899 48.3449 27.2732 50.0208 25.1253 51.3399C25.4039 51.4706 26.6463 51.2077 26.7572 51.1921C26.2909 51.7962 26.0734 52.0521 25.937 52.3463C25.8062 52.6221 25.7479 52.9334 25.6186 53.6043C25.5176 54.1345 25.3328 54.6633 24.6875 55.0144C24.9406 55.472 25.502 55.1138 25.7366 55.0528C25.7052 55.1011 25.6256 55.6526 25.4153 55.9184C26.5183 55.8473 26.008 53.5218 27.1111 54.0819C27.4224 54.2383 27.5163 54.605 27.3726 54.9049C26.6477 56.4003 28.2952 57.718 28.2056 59.0285C28.6108 59.0257 29.0301 59.0144 29.2945 58.4671C29.4324 58.74 29.6456 59.1238 29.765 59.4934L30.0948 58.9319C30.298 59.8615 31.1652 60.7201 32.3365 60.7969C31.7778 59.9127 32.4473 58.7059 31.0898 57.4223C31.2589 57.2858 31.6499 57.0229 31.7892 56.8438C30.1232 57.04 28.3847 55.7222 29.1737 55.0968C29.6896 54.6889 29.9157 55.536 30.7117 55.3939L30.4004 55.1252C30.5098 55.0172 30.6349 54.8765 30.7643 54.7699C30.426 54.7287 30.0564 54.5126 30.0564 54.5126L30.2582 54.1785C28.3066 54.1757 28.2568 52.6832 29.0499 52.6235C29.4224 52.5965 29.9043 53.283 31.1054 53.1394C30.9519 52.9547 30.8908 52.6747 30.8183 52.4686C31.1083 52.4416 31.4495 52.4444 31.7238 52.3108C31.1367 52.2355 30.9889 52.0378 30.4999 51.6683L31.0671 51.4608C30.244 51.05 30.2938 50.335 30.2682 49.5901C30.6989 49.8374 31.205 50.2213 31.7451 50.0436C31.873 50.0009 31.9555 49.9412 31.9583 49.8076C31.1879 49.4992 30.6933 48.3122 32.5397 47.3144ZM31.1339 47.4309C30.1033 48.5326 30.5496 49.1921 30.7572 49.3953C30.3733 49.3129 29.8006 48.8239 29.9313 48.3506C29.8091 48.497 29.684 48.6562 29.5561 48.8197C29.3002 49.1608 29.0713 49.4949 28.8681 49.819C28.5553 50.7486 29.1282 51.7081 30.1033 52.1331C29.0201 51.9739 28.534 51.0102 28.5369 50.3961C28.0194 51.3741 27.7721 52.2667 27.7948 53.0158C27.8048 53.2944 27.8289 53.5545 27.8659 53.8004C28.1147 54.2724 28.5141 54.4458 29.2262 54.5325C28.5795 54.5737 28.2369 54.5439 27.9555 54.2482C28.3961 56.143 30.4572 57.7833 31.296 59.1877C30.4558 58.0961 28.7174 56.47 28.109 55.2944C28.0621 55.7194 28.1758 56.8082 28.7046 57.4777C27.9256 56.7116 27.8645 55.5517 27.9157 54.8722C27.7181 54.3832 27.593 53.8374 27.5759 53.2163C27.5603 52.6448 27.6001 52.1488 27.6868 51.7038C27.1949 52.4032 26.4842 52.6732 26.1345 53.7379C26.2028 52.3647 27.2277 52.3435 27.9953 50.6761C28.2923 49.9469 28.7244 49.3172 29.2021 48.6036C28.5951 48.8027 28.1403 48.9448 27.438 49.7138C27.937 48.534 30.8197 47.2078 32.1403 45.9242C31.7437 46.0081 30.1246 46.0492 29.4523 45.6001C30.6705 45.9298 33.3812 45.5532 34.4047 44.8538C33.6982 45.8701 32.1602 45.9284 30.2881 47.9498C30.5269 47.7593 30.8453 47.5674 31.1339 47.4309Z" fill="white"/>
        <path d="M50.7749 53.6041C50.6456 52.9332 50.5887 52.6219 50.4579 52.3462C50.3229 52.0519 50.1039 51.7961 49.6363 51.1919C49.7472 51.2076 50.9924 51.4706 51.2696 51.3398C49.1217 50.0207 49.605 48.3448 46.33 46.8508C47.1899 46.2126 48.067 45.7037 47.4372 44.4841C46.5404 45.563 44.8346 45.1906 43.9149 44.6888C44.826 44.5068 45.9973 43.7052 46.2759 42.8125C45.9319 42.7599 45.487 43.1323 45.2312 43.3043C45.1089 42.9759 45.0619 42.5922 44.6625 42.5083C45.1956 43.6483 44.1423 44.2424 43.1373 44.2467C42.9838 44.2467 42.3356 44.1813 42.3356 44.1813C42.4394 43.9681 42.8573 43.3854 42.5517 43.1508C42.3058 43.3811 42.0158 43.5644 41.7486 43.7691C39.7969 45.2773 42.6768 46.6774 43.8537 47.3113C45.6974 48.3092 45.207 49.4962 44.4351 49.8003C44.438 49.9339 44.5204 49.9937 44.6498 50.0363C45.1871 50.2154 45.696 49.8317 46.1238 49.5829C46.0997 50.3277 46.1508 51.0441 45.3278 51.4535L45.8936 51.661C45.4046 52.0306 45.2581 52.2282 44.6711 52.3035C44.944 52.4372 45.288 52.4343 45.5766 52.4613C45.5026 52.6674 45.4387 52.9474 45.288 53.1322C46.4906 53.2743 46.9739 52.5892 47.3435 52.6162C48.1338 52.676 48.0869 54.1684 46.1338 54.1713L46.3356 54.5053C46.3356 54.5053 45.966 54.7214 45.6263 54.7626C45.7557 54.8678 45.8822 55.01 45.9916 55.118L45.6803 55.3867C46.4749 55.5288 46.7024 54.6816 47.2184 55.0896C48.0073 55.715 46.2702 57.0326 44.6029 56.8365C44.7436 57.0156 45.1345 57.28 45.3036 57.4165C43.9447 58.6986 44.6128 59.9069 44.057 60.7924C45.2255 60.7142 46.0926 59.8557 46.2987 58.9261L46.6285 59.4875C46.7464 59.1179 46.9625 58.7342 47.0975 58.4612C47.3605 59.0085 47.7827 59.0199 48.1893 59.0227C48.0968 57.7122 49.7429 56.3945 49.0208 54.8991C48.8759 54.6006 48.9696 54.2339 49.281 54.0761C50.3868 53.516 49.8737 55.8416 50.9782 55.9126C50.7664 55.6467 50.6882 55.0953 50.6583 55.047C50.8914 55.1081 51.4516 55.4662 51.7045 55.0071C51.0635 54.6631 50.8787 54.1343 50.7749 53.6041ZM48.7095 51.7022C48.7962 52.1486 48.8402 52.6433 48.8204 53.2147C48.8019 53.8358 48.6782 54.3817 48.4806 54.8706C48.5304 55.5502 48.4707 56.71 47.6917 57.4762C48.2191 56.8053 48.3342 55.7179 48.2873 55.2928C47.6761 56.4684 45.9391 58.0945 45.0975 59.1862C45.9376 57.7818 47.9987 56.14 48.4408 54.2467C48.1565 54.5409 47.8168 54.5722 47.1686 54.531C47.8793 54.4442 48.2788 54.2708 48.5275 53.7989C48.5645 53.5544 48.5887 53.2929 48.5986 53.0143C48.6228 52.2651 48.374 51.3724 47.8566 50.3945C47.8609 51.0086 47.3747 51.9723 46.2902 52.1315C47.2625 51.7051 47.8367 50.7456 47.5254 49.8174C47.3235 49.4933 47.0962 49.1578 46.8374 48.8181C46.7095 48.6546 46.5844 48.4955 46.4608 48.3491C46.5915 48.8223 46.0187 49.3113 45.6348 49.3938C45.8438 49.1905 46.2888 48.5309 45.2596 47.4294C45.5481 47.5658 45.8666 47.7577 46.1068 47.9453C44.2347 45.924 42.6981 45.8672 41.9888 44.8495C43.0136 45.5488 45.7244 45.9269 46.9412 45.5956C46.2702 46.0448 44.6498 46.0036 44.2532 45.9197C45.5737 47.2033 48.4593 48.5296 48.9569 49.7094C48.2546 48.9404 47.7983 48.7982 47.1942 48.5992C47.6732 49.3142 48.1025 49.9425 48.3996 50.6717C49.1686 52.339 50.1949 52.359 50.2617 53.7335C49.9121 52.6717 49.2027 52.4016 48.7095 51.7022Z" fill="white"/>
        <path d="M39.7066 49.3042C39.3981 49.7278 38.8367 50.0121 38.1984 50.0121C38.0491 50.0121 37.9055 49.995 37.7691 49.9694C37.8075 50.1443 37.8971 50.3248 38.0832 50.4797C38.0079 50.9872 38.2268 51.462 38.7713 51.5857C38.8295 51.8444 38.9888 52.0391 39.2589 52.1314L38.8792 52.5693C38.7329 52.737 38.5424 52.791 38.3889 52.7712L36.6945 52.5792C36.7684 52.3916 36.5722 52.1741 36.0349 52.2665L36.7002 50.4044L36.295 49.5416L35.5261 50.1983L35.4692 52.1513L35.138 51.9908C34.7115 51.8059 34.585 52.5835 34.9916 52.5863L35.155 52.5878C35.1437 52.6673 35.1692 52.7555 35.2332 52.7839C35.1564 52.8152 35.1337 52.9587 35.229 53.01C35.1323 53.0568 35.1181 53.2047 35.1962 53.2687C35.1124 53.4122 35.0967 53.7235 35.3939 53.8017C35.6383 53.8657 35.7918 53.604 35.8416 53.452L38.4784 54.2679C38.8494 54.3745 39.1167 54.3148 39.4266 54.0434L40.1146 53.442C40.0278 53.8358 40.1685 54.1897 40.4685 54.3077C40.4685 54.3077 40.4216 54.6687 40.4401 54.8181L41.3626 54.8194H42.8153V50.484C42.8153 50.0803 42.9305 49.6766 43.0727 49.3042H41.3626H39.7066Z" fill="white"/>
        <path d="M35.7577 56.5992L35.8089 56.6632C35.8799 56.7513 35.9226 56.73 36.0036 56.6831L36.123 56.6191C36.1983 56.5622 36.6888 56.7499 36.7157 56.342C36.7698 56.6461 36.4073 57.2872 36.6262 57.6454L36.9204 58.1273L35.9595 58.1415C35.8544 58.1415 35.7989 58.2055 35.7705 58.2623L35.5188 58.784C35.4534 58.9219 35.4577 59.064 35.5402 59.1593L35.7108 59.3511C35.7108 59.3511 35.8501 59.2332 35.8955 59.0782L35.8202 59C35.7577 58.9403 35.7577 58.8835 35.7918 58.8095L35.9467 58.4883C36.0064 58.3618 36.0675 58.3348 36.204 58.3675L36.9816 58.5352C37.0384 58.5495 37.1308 58.5764 37.1862 58.4812C37.2815 58.312 37.4492 58.3007 37.6198 58.3277C38.0462 58.3917 39.0314 58.494 39.3824 58.0832C39.7946 58.6305 40.6006 58.6305 40.5481 58.9176L40.3775 59.8586H40.6333L40.7897 58.8963C40.8067 58.784 40.8764 58.6305 40.7556 58.5438C40.7058 58.5054 40.6831 58.4855 40.5707 58.2922C40.4244 58.0363 40.4315 57.6525 40.2907 57.3213C40.4244 57.1635 40.5693 57.1095 40.6958 57.1394C40.9801 57.209 41.0569 57.6994 41.4606 58.0988C41.4151 57.9211 41.3953 57.7264 41.3 57.5573C41.3 57.5573 41.58 57.7747 41.6525 58.0292C41.698 58.1884 41.7449 58.3049 41.8885 58.3789C41.9837 58.413 42.0974 58.3675 42.2112 58.231C42.2112 58.231 41.9453 57.853 41.7506 57.6056C41.4834 57.2658 41.1265 56.9247 40.6405 56.9645C40.4869 56.9773 40.3391 57.047 40.1984 57.1308C39.6454 56.821 39.2161 57.1493 39.0455 57.1493L38.0107 57.0881C37.8074 57.0754 37.6468 56.8394 37.6468 56.8394C37.6212 55.9639 36.9176 55.6155 36.6745 55.6155C36.6745 55.6155 36.6973 55.4577 36.6333 55.4023L36.4172 55.6738L35.8173 55.4549L36.2879 55.8402L35.7775 56.4329C35.725 56.4912 35.7321 56.5679 35.7577 56.5992Z" fill="white"/>
        <path d="M35.0791 57.8286C34.9341 57.9409 34.9412 58.0972 35.0279 58.2721L35.1146 58.4341L35.3406 58.2621L35.2895 58.1513C35.2525 58.0731 35.254 57.9935 35.3179 57.9437L35.642 57.6992C35.733 57.6324 35.7614 57.6253 35.8581 57.6395L36.5418 57.7831C36.5418 57.7831 36.438 57.6324 36.4039 57.4789L35.76 57.3936C35.669 57.3823 35.6136 57.4206 35.534 57.4817L35.0791 57.8286Z" fill="white"/>
        <path d="M39.4521 59.8587H39.7109L40.1259 58.8367C40.1401 58.8011 40.16 58.7855 40.1757 58.7557C39.9895 58.6817 39.88 58.6306 39.7251 58.541C39.8289 58.6803 39.9099 58.74 39.8672 58.8694L39.4521 59.8587Z" fill="white"/>
        <path d="M39.6721 46.035L40.1511 43.2817L38.3359 43.8987V46.7373L39.6721 46.035ZM38.6429 44.1772L39.8469 43.7338C39.8469 43.7338 39.6124 43.9242 39.3324 44.1161C39.0836 44.2881 38.6429 44.4715 38.6429 44.4715V44.1772ZM38.6429 44.8439L39.7446 44.4501C39.7446 44.4501 39.6124 44.5895 39.3338 44.7814C39.085 44.9519 38.6444 45.1353 38.6444 45.1353V44.8439H38.6429ZM38.6429 45.5518L39.6124 45.1793C39.6124 45.1793 39.6124 45.2973 39.3324 45.4878C39.0836 45.6598 38.6429 45.8432 38.6429 45.8432V45.5518Z" fill="white"/>
        <path d="M36.4423 48.4698L36.4821 48.5338H36.8559L36.8602 48.5992C36.8645 48.6618 36.8787 48.7258 36.9 48.7911C36.9583 48.9688 37.0734 49.155 37.2582 49.3057C37.4728 49.4791 37.7827 49.6042 38.1949 49.6042C39.0891 49.6042 39.4928 49.0257 39.5312 48.5992L39.534 48.5338H39.9092L39.949 48.4698C40.3016 47.9184 40.7323 47.3057 41.2326 47.2176L39.868 46.4258L38.1949 47.3356L36.5204 46.4258L35.1572 47.2176C35.6576 47.3043 36.0883 47.9184 36.4423 48.4698Z" fill="white"/>
        <path d="M38.0545 46.7373V43.8987L36.2422 43.2817L36.7183 46.035L38.0545 46.7373ZM37.7489 45.846C37.7489 45.846 37.3082 45.6613 37.0595 45.4907C36.7795 45.3002 36.7795 45.1808 36.7795 45.1808L37.7503 45.5532V45.846H37.7489ZM37.7489 44.1772V44.4715C37.7489 44.4715 37.3082 44.2881 37.0595 44.1161C36.7781 43.9242 36.5421 43.7338 36.5421 43.7338L37.7489 44.1772ZM37.7489 44.8439V45.1367C37.7489 45.1367 37.3082 44.9534 37.0595 44.7828C36.7781 44.5909 36.6473 44.4516 36.6473 44.4516L37.7489 44.8439Z" fill="white"/>
        <path d="M38.1969 42.0679C37.1606 42.0679 36.3831 42.4076 36.2139 42.8056L38.1969 43.5888L40.177 42.8056C40.0092 42.4076 39.2331 42.0679 38.1969 42.0679Z" fill="white"/>
        <path d="M38.1976 40.9304C38.961 40.9304 39.7257 41.1621 40.2403 41.4621C40.3242 41.1849 40.4137 40.9873 40.536 40.7613L40.0669 40.8338L39.6873 40.0236L38.9781 40.4003L38.1976 39.6284L37.4158 40.4003L36.7079 40.0236L36.3256 40.8338L35.8564 40.7613C35.9787 40.9873 36.0668 41.1849 36.1536 41.4621C36.6696 41.1621 37.4315 40.9304 38.1976 40.9304Z" fill="white"/>
        <path d="M51.1328 47.1708C51.3887 47.1382 51.5948 47.0529 51.8464 46.8652C51.3048 46.7217 50.1704 46.3109 49.2024 46.4957C48.8826 46.5383 48.705 46.6676 48.8186 46.7415C49.3389 47.087 49.9814 47.8872 50.4491 48.8212C50.8599 48.3108 50.6879 47.6413 50.6011 47.4495C51.4199 47.9427 51.6346 48.1829 52.0141 48.0891C51.8108 47.7778 51.5251 47.4978 51.1328 47.1708Z" fill="white"/>
        <path d="M25.9449 48.8196C26.4126 47.8858 27.0551 47.0855 27.5768 46.74C27.6933 46.6662 27.5128 46.5368 27.1958 46.4942C26.2264 46.3108 25.0892 46.7202 24.5476 46.8637C24.802 47.0514 25.0039 47.1367 25.2626 47.1694C24.8689 47.4977 24.5831 47.7764 24.3799 48.0876C24.7622 48.1814 24.9755 47.9412 25.7928 47.448C25.709 47.6413 25.5355 48.3093 25.9449 48.8196Z" fill="white"/>
        <path fill-rule="evenodd" clip-rule="evenodd" d="M31.6213 57.4876C31.998 57.1891 32.3106 57.0398 32.2951 56.3163C31.7293 56.6062 30.1245 56.5906 29.4535 55.6667C29.2644 55.4037 29.4663 55.2716 29.6496 55.4791C30.1088 55.9993 30.9588 55.7634 31.2687 55.6141C31.219 55.435 31.0811 55.2019 30.966 55.1024C31.0826 54.9887 31.4109 54.8181 31.4777 54.5253C31.3028 54.43 30.6219 54.3618 30.6219 54.3618C30.7315 54.2566 30.8678 54.1102 30.7855 53.7193C30.0903 53.9326 29.2303 53.6426 29.0356 53.3853C28.8437 53.1322 29.0399 52.8949 29.2019 53.0626C29.5488 53.4265 31.2573 53.843 31.8928 53.2104C31.6568 53.145 31.3967 52.9346 31.3497 52.8039C31.9383 52.7442 32.4073 52.3974 32.4457 51.9652C32.1202 51.9652 31.5061 51.9411 31.2957 51.7847C31.5772 51.681 31.7563 51.5786 31.8458 51.263C30.7698 51.1977 30.6845 50.3988 30.6788 50.2666C31.3796 50.6703 32.6134 50.4912 32.2936 49.4961C31.7108 49.4649 31.1238 48.5225 32.7258 47.6568C34.1828 46.8679 35.8388 46.0179 35.6924 44.6178C35.5971 43.7222 34.1231 43.111 33.9354 42.6576C33.3199 42.9504 33.1963 43.2901 33.4734 43.8601C33.4734 43.8601 32.1017 43.9966 31.9937 43.1522C31.9468 42.7741 32.1998 42.4202 32.4713 42.1487C32.3178 42.1487 31.2844 41.8715 30.973 42.713C30.3945 42.3179 29.8984 42.3321 29.509 42.7499C30.1315 43.1195 30.5168 44.3875 31.5459 44.7613C30.8138 45.1579 29.6298 44.9916 28.9389 43.772C28.285 44.757 27.9084 45.7321 29.3114 46.7741C26.7598 47.9354 26.7783 50.1557 24.5579 51.2132C24.7825 51.8174 25.2573 51.8174 25.8629 51.7236C24.9033 52.9702 25.7207 54.2751 24.2012 54.8081C24.3433 55.317 24.629 55.7235 25.1891 55.5743C25.0299 55.823 24.9247 55.8173 24.6774 56.0903C25.5075 56.6134 26.4926 56.2353 26.7158 54.5565C26.7556 54.2566 27.1678 54.4443 27.0256 54.7385C26.0789 56.6959 28.4727 58.1685 27.6255 59.6041C28.3717 59.5728 28.9418 59.5145 29.2517 59.263C29.4038 59.5643 29.4962 59.8628 29.4621 60.1571C29.8743 60.0732 30.0249 59.8301 30.0534 59.5487C30.3235 60.3376 31.2901 61.1805 32.8366 61.1805C32.0164 60.0093 32.7798 58.8223 31.6213 57.4876ZM30.0946 58.9303L29.7649 59.4918C29.6468 59.1222 29.4322 58.7385 29.2943 58.4656C29.0285 59.0128 28.6092 59.0242 28.2054 59.027C28.295 57.7164 26.6475 56.3988 27.3725 54.9034C27.5175 54.6049 27.4222 54.2381 27.1109 54.0804C26.0064 53.5203 26.5181 55.8458 25.4151 55.9169C25.6255 55.651 25.705 55.0995 25.7364 55.0512C25.5018 55.1123 24.9403 55.4705 24.6874 55.0128C25.3327 54.6617 25.5175 54.133 25.6184 53.6028C25.7463 52.9318 25.806 52.6205 25.9354 52.3447C26.0718 52.0505 26.2893 51.7947 26.7556 51.1905C26.6447 51.2062 25.4038 51.4692 25.1237 51.3384C27.2716 50.0193 26.7883 48.3433 30.0619 46.8494C29.2033 46.2112 28.3262 45.7023 28.9546 44.4842C29.8515 45.5616 31.5559 45.1892 32.477 44.6888C31.5673 44.5069 30.3945 43.7052 30.1173 42.8125C30.4599 42.7599 30.9048 43.1323 31.1593 43.3057C31.283 42.9759 31.3313 42.5936 31.7307 42.5111C31.1977 43.6497 32.2496 44.2439 33.2531 44.2482C33.4095 44.2482 34.0577 44.1828 34.0577 44.1828C33.9539 43.9696 33.5346 43.3867 33.8387 43.1522C34.0847 43.3825 34.3775 43.5659 34.6433 43.7706C36.595 45.2801 33.7165 46.6789 32.5395 47.3143C30.693 48.3121 31.1877 49.5004 31.9582 49.8032C31.9553 49.9368 31.8729 49.9965 31.7449 50.0392C31.2048 50.2183 30.6987 49.833 30.268 49.5857C30.2936 50.3306 30.2424 51.047 31.0669 51.4563L30.4997 51.6624C30.9873 52.0335 31.1365 52.2296 31.7236 52.3064C31.4493 52.44 31.1095 52.4371 30.8181 52.4642C30.8921 52.6702 30.9518 52.9503 31.1053 53.1351C29.9041 53.2773 29.4223 52.5921 29.0498 52.6191C28.2566 52.6788 28.3064 54.1714 30.2581 54.1742L30.0562 54.5082C30.0562 54.5082 30.4258 54.7243 30.7656 54.7655C30.6362 54.8707 30.5111 55.0128 30.4017 55.1208L30.7129 55.3895C29.9155 55.5316 29.6909 54.6844 29.1734 55.0924C28.3846 55.7178 30.123 57.0356 31.789 56.8394C31.6497 57.0185 31.2573 57.2829 31.0896 57.4193C32.4471 58.7015 31.7776 59.9097 32.3363 60.7953C31.165 60.7185 30.2979 59.8585 30.0946 58.9303Z" fill="black"/>
        <path fill-rule="evenodd" clip-rule="evenodd" d="M27.9523 54.2479C28.2352 54.5421 28.5763 54.5734 29.2231 54.5321C28.511 54.4454 28.1115 54.272 27.8628 53.8001C27.8272 53.5556 27.8031 53.294 27.7931 53.0154C27.7704 52.2663 28.0177 51.3736 28.5351 50.3957C28.5323 51.0083 29.017 51.972 30.1016 52.1327C29.1265 51.7063 28.5536 50.7467 28.8663 49.8186C29.0696 49.4945 29.2985 49.159 29.5543 48.8193C29.6822 48.6558 29.8073 48.4966 29.9296 48.3502C29.7988 48.8235 30.3717 49.3125 30.7555 49.3949C30.5479 49.1917 30.1016 48.5336 31.1322 47.432C30.845 47.5684 30.5266 47.7603 30.285 47.9479C32.1557 45.9266 33.695 45.8698 34.4016 44.8521C33.3781 45.5514 30.6674 45.9295 29.4492 45.5982C30.1215 46.0474 31.7405 46.0062 32.1371 45.9223C30.818 47.2059 27.9352 48.5322 27.4349 49.712C28.1371 48.9416 28.592 48.8008 29.2003 48.6032C28.7214 49.3182 28.2907 49.9465 27.9935 50.6757C27.2259 52.3416 26.1996 52.363 26.1328 53.7361C26.4826 52.6714 27.1933 52.4014 27.6851 51.702C27.5984 52.1483 27.5571 52.643 27.5728 53.2144C27.5898 53.8356 27.7149 54.3814 27.9125 54.8704C27.8628 55.5499 27.9225 56.7097 28.7014 57.476C28.1727 56.8064 28.0589 55.7176 28.1058 55.2926C28.7157 56.4681 30.4541 58.0943 31.2942 59.186C30.4541 57.783 28.3944 56.1426 27.9523 54.2479Z" fill="black"/>
        <path fill-rule="evenodd" clip-rule="evenodd" d="M47.1947 48.6033C47.7989 48.8023 48.2552 48.9431 48.9573 49.7135C48.4599 48.5337 45.5728 47.2074 44.2537 45.9239C44.6503 46.0063 46.2708 46.049 46.9417 45.5998C45.725 45.931 43.0142 45.5529 41.9893 44.8535C42.6972 45.8713 44.2353 45.9282 46.1073 47.9494C45.8671 47.7618 45.5487 47.5699 45.2601 47.4335C46.2893 48.5351 45.8444 49.1946 45.6354 49.3979C46.0192 49.3155 46.592 48.8265 46.4612 48.3531C46.5849 48.4996 46.71 48.6587 46.8379 48.8222C47.0952 49.1634 47.3227 49.4974 47.5259 49.8215C47.8387 50.7512 47.2644 51.7106 46.2921 52.1356C47.3767 51.9765 47.8628 51.0112 47.8572 50.3986C48.376 51.3766 48.6233 52.2693 48.6006 53.0183C48.5906 53.2969 48.5664 53.5571 48.5295 53.803C48.2793 54.2749 47.8799 54.4483 47.1691 54.535C47.8174 54.5748 48.1571 54.545 48.4413 54.2508C47.9993 56.1456 45.9395 57.7859 45.098 59.1903C45.9395 58.0986 47.6752 56.4725 48.2879 55.2969C48.3348 55.7219 48.2211 56.8107 47.6923 57.4803C48.4712 56.7142 48.5309 55.5542 48.4812 54.8748C48.6773 54.3858 48.801 53.84 48.8209 53.2188C48.8394 52.6473 48.7953 52.1513 48.71 51.7064C49.2032 52.4057 49.9126 52.6758 50.2637 53.7405C50.1969 52.3659 49.1706 52.3446 48.4015 50.6786C48.103 49.9451 47.6738 49.3169 47.1947 48.6033Z" fill="black"/>
        <path fill-rule="evenodd" clip-rule="evenodd" d="M50.5324 51.7207C51.1366 51.816 51.6114 51.816 51.8374 51.2119C49.617 50.1543 49.6355 47.9354 47.084 46.7727C48.4869 45.7322 48.1089 44.7556 47.4564 43.7706C46.767 44.9902 45.5787 45.1565 44.8494 44.7599C45.8757 44.386 46.2638 43.1181 46.8864 42.7485C46.4969 42.3306 45.9994 42.3164 45.4209 42.7115C45.1081 41.87 44.0762 42.1472 43.9212 42.1472C44.1913 42.4173 44.4472 42.7713 44.3988 43.1508C44.2923 43.9952 42.9205 43.8587 42.9205 43.8587C43.1977 43.2887 43.074 42.949 42.4585 42.6561C42.2709 43.1096 40.7983 43.7208 40.7016 44.6163C40.5538 46.0164 42.2126 46.8664 43.6682 47.6554C45.2701 48.521 44.6831 49.4649 44.1017 49.4948C43.7791 50.4898 45.0129 50.6689 45.7151 50.2652C45.7122 50.3974 45.6227 51.1962 44.5467 51.2616C44.6376 51.5772 44.8153 51.6795 45.0968 51.7833C44.8864 51.9411 44.2723 51.9638 43.9482 51.9638C43.9866 52.3959 44.4571 52.7442 45.0456 52.8025C44.9987 52.9333 44.7372 53.1437 44.5026 53.209C45.138 53.8415 46.8466 53.4251 47.1935 53.0612C47.3526 52.8935 47.5474 53.1308 47.3569 53.3838C47.1607 53.6425 46.3022 53.9325 45.6057 53.7178C45.526 54.1074 45.6597 54.2552 45.7691 54.3604C45.7691 54.3604 45.0883 54.4286 44.912 54.5239C44.9788 54.8167 45.3086 54.9858 45.4237 55.1009C45.3071 55.2004 45.1693 55.4335 45.1195 55.6127C45.4322 55.7633 46.2823 55.9979 46.7386 55.4776C46.9233 55.2715 47.1252 55.4023 46.9361 55.6653C46.2652 56.5892 44.6604 56.6034 44.0932 56.3148C44.0776 57.0384 44.3903 57.1877 44.767 57.4861C43.6071 58.8209 44.3733 60.0078 43.553 61.1762C45.0982 61.1762 46.0648 60.3333 46.3349 59.5444C46.3662 59.8244 46.5139 60.0689 46.9247 60.1528C46.8935 59.8585 46.9845 59.56 47.1351 59.2587C47.4479 59.5103 48.0179 59.5686 48.7641 59.5998C47.9184 58.1642 50.3122 56.6916 49.3626 54.7342C49.2219 54.44 49.6341 54.2523 49.6739 54.5523C49.8956 56.231 50.8822 56.6091 51.7137 56.086C51.4635 55.8131 51.3598 55.8188 51.2005 55.57C51.7606 55.7192 52.045 55.3127 52.1885 54.8038C50.6761 54.2722 51.4934 52.9673 50.5324 51.7207ZM50.6604 55.0526C50.6903 55.1009 50.7685 55.6525 50.9802 55.9183C49.8758 55.8472 50.3875 53.5217 49.283 54.0818C48.9717 54.2382 48.8793 54.6049 49.0229 54.9048C49.745 56.4002 48.0989 57.7179 48.1914 59.0284C47.7848 59.0256 47.3626 59.0142 47.0996 58.4669C46.9645 58.7399 46.7471 59.1237 46.6291 59.4932L46.2993 58.9318C46.0946 59.8614 45.2275 60.72 44.0591 60.7981C44.6149 59.914 43.9468 58.7057 45.3057 57.4222C45.1352 57.2857 44.7442 57.0214 44.6035 56.8422C46.2709 57.0384 48.0079 55.7208 47.2191 55.0953C46.7031 54.6873 46.4756 55.5345 45.681 55.3923L45.9923 55.1237C45.8828 55.0157 45.7563 54.8749 45.6269 54.7684C45.9667 54.7271 46.3363 54.511 46.3363 54.511L46.1344 54.177C48.0861 54.1742 48.133 52.6816 47.3441 52.6219C46.9731 52.5949 46.4898 53.2815 45.2887 53.138C45.4407 52.9531 45.5033 52.6731 45.5772 52.467C45.2872 52.44 44.9446 52.4428 44.6718 52.3092C45.2588 52.2339 45.4066 52.0363 45.8942 51.6667L45.3285 51.4592C46.1515 51.0484 46.0989 50.3334 46.1245 49.5886C45.6952 49.8359 45.1863 50.2197 44.6504 50.042C44.5225 49.9994 44.4386 49.9397 44.4358 49.806C45.2076 49.5018 45.6995 48.3149 43.8544 47.3171C42.6789 46.6817 39.7989 45.283 41.7492 43.7748C42.0164 43.5702 42.3064 43.3853 42.5509 43.1565C42.8565 43.391 42.4386 43.9738 42.3348 44.1871C42.3348 44.1871 42.9831 44.2524 43.1365 44.2524C44.1415 44.2482 45.1948 43.654 44.6618 42.514C45.0612 42.5964 45.1081 42.9817 45.2303 43.31C45.4862 43.1366 45.9298 42.7656 46.2752 42.8182C45.9951 43.7095 44.8252 44.5126 43.9141 44.6944C44.8338 45.1949 46.5395 45.5673 47.4365 44.4898C48.0648 45.708 47.1892 46.2169 46.3292 46.8551C49.6043 48.3476 49.1196 50.025 51.2688 51.3441C50.9916 51.4748 49.7464 51.2119 49.6355 51.1962C50.1046 51.8003 50.3235 52.0562 50.4571 52.3504C50.5879 52.6262 50.6448 52.9361 50.7742 53.6084C50.8765 54.1386 51.0627 54.6674 51.7051 55.0185C51.4536 55.472 50.8936 55.1137 50.6604 55.0526Z" fill="black"/>
        <path fill-rule="evenodd" clip-rule="evenodd" d="M35.0652 58.7214L35.5329 58.3249L35.4618 58.1827C35.4106 58.0804 35.4377 58.0747 35.4917 58.0349L35.7391 57.8515C35.7958 57.8046 35.8556 57.8103 35.9252 57.8273L36.6658 58.0008H35.884C35.7034 58.0121 35.6509 58.0818 35.5855 58.2154L35.5315 58.3249L35.3311 58.7371C35.2628 58.8792 35.2273 59.0683 35.4064 59.2814L35.5485 59.4506L35.2614 60.032H35.503L35.702 59.6283C35.7177 59.6141 36.0119 59.3454 36.0745 59.0683C35.9892 58.9986 35.9295 58.9502 35.9764 58.8536L36.0659 58.6603C36.0958 58.5963 36.1057 58.5708 36.191 58.5864L36.9672 58.7541C37.0638 58.7811 37.206 58.8238 37.3097 58.6674C37.4164 58.5054 37.4306 58.5224 37.6779 58.5466L38.0744 58.5892C38.6161 58.6404 39.1576 58.5054 39.368 58.3376C39.4419 58.5054 39.5884 58.6347 39.6566 58.7655C39.6821 58.8138 39.6395 58.8821 39.6068 58.9673L39.1619 60.0306H39.8484L40.2365 59.0612C40.2721 58.9688 40.3246 58.8948 40.3644 58.8579L40.1413 60.032H40.808L40.9842 58.8707C41.0226 58.612 40.9999 58.5296 40.8762 58.4229C40.599 58.1884 40.6047 57.6966 40.5152 57.398C40.5621 57.3711 40.6175 57.3568 40.6829 57.3654C40.8279 57.3782 40.9373 57.7492 41.1079 57.988C41.449 58.467 41.9139 58.9958 42.4469 58.2509C42.3957 58.1657 42.3403 58.0889 42.2749 58.0149L42.1257 57.8401C42.039 57.7435 41.6268 57.2715 41.4547 57.1024C41.0638 56.7086 40.464 56.7684 40.2252 56.9603C39.6835 56.6759 39.1122 56.9745 38.9771 56.9631L38.0446 56.9062C38.002 56.9034 37.9381 56.8892 37.8926 56.8167L38.066 56.7599C37.9039 56.0846 37.496 55.5203 36.7838 55.4223C36.7838 55.4223 36.7426 55.209 36.6331 55.1678L36.4199 55.418C36.3602 55.4265 36.2948 55.445 36.2408 55.4677L35.3311 55.1294L36.0134 55.8188C36.0134 55.8188 35.6594 56.3206 35.5585 56.4229C35.4917 56.5168 35.4974 56.5892 35.5727 56.6788L35.7049 56.8522C35.7732 56.9418 35.8485 56.9389 35.9579 56.8835L36.1072 56.8053C36.1726 56.7513 36.3914 56.8579 36.4853 56.7726C36.4255 56.9688 36.3957 57.1578 36.3815 57.3071L35.7689 57.2331C35.6352 57.2147 35.5741 57.2331 35.4931 57.2971L34.97 57.6994C34.7994 57.8302 34.7468 58.0562 34.8521 58.2765L35.0652 58.7214ZM40.1256 58.8365L39.7106 59.86H39.4519L39.867 58.8692C39.9096 58.7413 39.8286 58.6816 39.7248 58.5423C39.8784 58.629 39.9892 58.6859 40.1754 58.757C40.1598 58.7854 40.1399 58.801 40.1256 58.8365ZM36.1228 56.6205L36.0048 56.6831C35.9224 56.73 35.8811 56.7513 35.8101 56.6632L35.7589 56.5978C35.7334 56.5665 35.7248 56.4912 35.7774 56.4314L36.2863 55.8388L35.8172 55.4535L36.4142 55.6738L36.6331 55.4009C36.6971 55.455 36.6743 55.6127 36.6743 55.6127C36.916 55.6127 37.6196 55.9624 37.6466 56.838C37.6466 56.838 37.8058 57.0725 38.0091 57.0853L39.0453 57.1478C39.2173 57.1478 39.6466 56.821 40.1982 57.1294C40.3375 57.0455 40.4867 56.9787 40.6403 56.9617C41.1263 56.9261 41.4846 57.2644 41.7504 57.6056C41.9451 57.8529 42.2124 58.231 42.2124 58.231C42.0972 58.3675 41.9849 58.413 41.8897 58.3788C41.7462 58.3049 41.6992 58.1898 41.6537 58.0292C41.5813 57.7747 41.3012 57.5573 41.3012 57.5573C41.3965 57.7278 41.4163 57.9212 41.4618 58.0988C41.0567 57.698 40.98 57.209 40.6971 57.1408C40.572 57.1095 40.4256 57.1635 40.2905 57.3198C40.4327 57.651 40.4256 58.0349 40.572 58.2921C40.6829 58.484 40.707 58.5011 40.7568 58.5437C40.8762 58.629 40.8094 58.7839 40.7909 58.8963L40.6374 59.8586H40.3787L40.5493 58.9176C40.6019 58.6304 39.7959 58.6304 39.3836 58.0832C39.0326 58.494 38.0475 58.3916 37.621 58.3277C37.449 58.3021 37.2813 58.3135 37.1874 58.4826C37.1321 58.5778 37.0397 58.5494 36.9828 58.5353L36.2053 58.3675C36.0688 58.3362 36.0091 58.3632 35.9493 58.4883L35.7944 58.8096C35.7603 58.8849 35.7618 58.9404 35.8242 59.0015L35.8982 59.0796C35.8542 59.2331 35.7134 59.3511 35.7134 59.3511L35.5442 59.1606C35.4618 59.064 35.4576 58.9247 35.523 58.7882L35.7746 58.2623C35.8044 58.2041 35.8584 58.1415 35.9636 58.1415L36.9245 58.1272L36.6302 57.6482C36.4114 57.2886 36.7753 56.6475 36.7198 56.3447C36.69 56.7499 36.1996 56.5651 36.1228 56.6205ZM35.0794 57.8287L35.5343 57.4819C35.6153 57.4208 35.6693 57.381 35.7618 57.3923L36.4043 57.4776C36.4398 57.6312 36.5422 57.7818 36.5422 57.7818L35.8584 57.6383C35.7618 57.6269 35.7334 57.6312 35.6424 57.6966L35.3182 57.9411C35.2543 57.9908 35.2515 58.0704 35.2884 58.1486L35.341 58.2609L35.115 58.4314L35.0282 58.2694C34.9401 58.0974 34.9345 57.9396 35.0794 57.8287Z" fill="black"/>
        <path fill-rule="evenodd" clip-rule="evenodd" d="M37.0617 45.4891C37.3105 45.6612 37.7512 45.8445 37.7512 45.8445V45.5516L36.7803 45.1807C36.7803 45.1807 36.7803 45.3001 37.0617 45.4891Z" fill="black"/>
        <path fill-rule="evenodd" clip-rule="evenodd" d="M37.7491 45.1367V44.844L36.6475 44.4502C36.6475 44.4502 36.7783 44.5895 37.0597 44.7814C37.3084 44.952 37.7491 45.1367 37.7491 45.1367Z" fill="black"/>
        <path fill-rule="evenodd" clip-rule="evenodd" d="M37.7498 44.4716V44.1774L36.543 43.7339C36.543 43.7339 36.7789 43.9244 37.0604 44.1162C37.3092 44.2883 37.7498 44.4716 37.7498 44.4716Z" fill="black"/>
        <path fill-rule="evenodd" clip-rule="evenodd" d="M41.1396 48.47H42.3735C42.3223 48.2908 42.1304 48.1104 41.7707 48.1104C41.4297 48.1104 41.2249 48.3065 41.1396 48.47Z" fill="black"/>
        <path fill-rule="evenodd" clip-rule="evenodd" d="M39.8495 43.7334L38.6455 44.1769V44.4711C38.6455 44.4711 39.0861 44.2878 39.3349 44.1158C39.615 43.9239 39.8495 43.7334 39.8495 43.7334Z" fill="black"/>
        <path fill-rule="evenodd" clip-rule="evenodd" d="M39.615 45.1807L38.6455 45.5531V45.8459C38.6455 45.8459 39.0861 45.6612 39.3349 45.4905C39.615 45.3001 39.615 45.1807 39.615 45.1807Z" fill="black"/>
        <path fill-rule="evenodd" clip-rule="evenodd" d="M39.7451 44.4497L38.6436 44.8435V45.1362C38.6436 45.1362 39.0856 44.9529 39.3329 44.7823C39.6144 44.589 39.7451 44.4497 39.7451 44.4497Z" fill="black"/>
        <path fill-rule="evenodd" clip-rule="evenodd" d="M34.6212 48.1104C34.2616 48.1104 34.0697 48.2908 34.0186 48.47H35.2538C35.1657 48.3065 34.9638 48.1104 34.6212 48.1104Z" fill="black"/>
        <path fill-rule="evenodd" clip-rule="evenodd" d="M40.6476 42.9432C40.6476 42.2496 39.482 41.6284 38.1956 41.6284C36.9091 41.6284 35.7436 42.2496 35.7436 42.9432L35.7705 43.1138L36.2822 46.0605L33.8515 47.4777C33.5928 47.6298 33.2687 48.0477 33.2275 48.4685H33.671C33.7449 48.0477 34.0761 47.5814 34.6973 47.6099C35.2588 47.6397 35.5914 47.9809 35.9212 48.4685L36.0065 48.5964L36.1287 48.7883H32.5537C32.8167 49.3156 33.0655 49.8757 33.0655 50.4827V57.9154C33.0655 59.8273 34.5339 60.7385 36.1244 60.7385C37.3527 60.7385 37.5189 60.683 38.197 61.361C38.8722 60.683 39.0385 60.7385 40.2695 60.7385C41.8587 60.7385 43.3285 59.8273 43.3285 57.9154V50.4841C43.3285 49.8771 43.5772 49.317 43.8402 48.7897H40.2624L40.386 48.5978L40.4713 48.4698C40.7997 47.9823 41.1337 47.6411 41.6952 47.6113C42.3135 47.5829 42.6476 48.0491 42.7201 48.4698H43.1621C43.1224 48.0491 42.7968 47.6298 42.5396 47.4791L40.1088 46.0619L40.622 43.1152L40.6476 42.9432ZM36.241 43.2816L38.0548 43.8985V46.7371L36.7186 46.035L36.241 43.2816ZM36.6874 49.3043C36.9261 49.6312 37.3128 49.8728 37.7705 49.9666C37.8089 50.1386 37.9028 50.3277 38.0846 50.4798C38.0093 50.9873 38.2268 51.4606 38.7727 51.5857C38.8295 51.8444 38.9902 52.0391 39.2588 52.1315L38.8793 52.5693C38.7343 52.7371 38.5452 52.7911 38.3889 52.7712L36.6945 52.5793C36.7684 52.3916 36.5722 52.1741 36.0363 52.2665L36.703 50.4045L36.2964 49.5416L35.526 50.1984L35.4691 52.1514L35.1423 51.9908C34.7115 51.806 34.5864 52.5835 34.9958 52.5864L35.1578 52.5878C35.1479 52.6674 35.1721 52.7555 35.2346 52.7825C35.1578 52.8153 35.1351 52.9602 35.2317 53.0114C35.1337 53.0569 35.1209 53.2047 35.1991 53.2687C35.1138 53.4123 35.101 53.7235 35.398 53.8017C35.6412 53.8657 35.7932 53.6041 35.843 53.452L38.4784 54.268C38.8522 54.3745 39.1167 54.3149 39.4265 54.0434L40.1145 53.4421C40.0278 53.8358 40.17 54.1898 40.4699 54.3077C40.4699 54.3077 40.4273 54.6617 40.4401 54.8195H33.5786V50.4841C33.5786 50.0804 33.462 49.6767 33.3228 49.3043H36.6874ZM39.5218 50.9489C39.3768 51.2261 39.391 51.5445 39.5616 51.833L39.4479 51.9439C38.9532 51.8827 38.7585 51.145 38.7585 51.145C38.7485 51.2119 38.7428 51.2758 38.7443 51.3412C38.4556 51.2346 38.2738 50.9788 38.2879 50.6276C38.3974 50.6888 38.5197 50.7314 38.6504 50.7541L38.6846 50.5381C38.3391 50.4784 38.1373 50.2623 38.0605 50.0065C38.0434 50.005 38.0292 50.0008 38.0136 49.9994C38.0747 50.0036 38.1358 50.0093 38.1984 50.0093C38.4031 50.0093 38.5978 49.978 38.7798 49.924C38.9233 50.1287 39.1778 50.2751 39.4336 50.3036C39.3924 50.4741 39.4123 50.6859 39.5218 50.9489ZM40.2539 52.8991C40.2041 52.9659 40.1643 53.0427 40.1387 53.1265L39.8629 53.3796C39.9184 52.9759 39.6469 52.4996 39.3995 52.3049L39.6924 52.0178L39.7506 52.0775C39.6525 52.3348 39.8445 52.8394 40.2539 52.8991ZM38.9219 52.7726L39.1494 52.5494C39.3796 52.7513 39.6838 53.2019 39.5886 53.6312L39.3412 53.8586C39.2901 53.9083 39.2375 53.9439 39.1835 53.9766C39.3384 53.5941 39.1408 53.0058 38.9219 52.7726ZM38.4329 52.9617H38.4401C38.5225 52.9745 38.6106 52.9602 38.6902 52.9275C38.8636 53.1749 38.9987 53.7378 38.7911 54.0889C38.6732 54.0917 38.558 54.0704 38.4499 54.0392L38.3647 54.0135C38.5395 53.7421 38.5154 53.2616 38.4329 52.9617ZM37.8601 52.8906L38.1799 52.9304C38.2311 53.1962 38.197 53.6553 38.0278 53.9169L37.6554 53.8088C37.8188 53.5871 37.8956 53.1308 37.8601 52.8906ZM37.1934 52.8096L37.5815 52.8551C37.6198 53.0682 37.5474 53.5217 37.4009 53.7378L37.0058 53.6241C37.1635 53.4151 37.2204 53.0469 37.1934 52.8096ZM35.6227 52.7058C35.4422 52.7641 35.3625 52.6333 35.3697 52.5224C35.7236 52.3931 35.8814 52.4769 35.9852 52.5423C36.0804 52.602 36.16 52.7726 36.2879 52.8792C36.2666 53.0242 36.2226 53.2346 36.1699 53.3753C35.8075 53.2829 35.789 52.9631 35.924 52.7683C35.8487 52.6802 35.7691 52.6574 35.6227 52.7058ZM35.3697 53.4123C35.3697 53.4123 35.4777 53.4577 35.6141 53.4677C35.5985 53.543 35.5402 53.6141 35.4478 53.5941C35.3711 53.5771 35.337 53.4833 35.3697 53.4123ZM35.0129 52.3746C34.9233 52.3149 34.9631 52.1841 35.0627 52.1841C35.1721 52.187 35.317 52.3106 35.4606 52.3717C35.4606 52.3717 35.0839 52.4229 35.0129 52.3746ZM35.3811 53.128C35.4592 53.2033 35.6938 53.1749 35.6938 53.1749L35.7023 53.2218C35.5999 53.3582 35.3157 53.2971 35.3811 53.128ZM35.6966 52.9731C35.5288 53.0398 35.3569 52.9488 35.4094 52.8408C35.4876 52.9119 35.7051 52.8764 35.7051 52.8764L35.6966 52.9731ZM35.944 51.0214L35.6227 52.1912L35.7322 50.3036L36.2296 49.8786L36.4827 50.4343L35.843 52.268L36.0122 51.0342C36.0278 50.946 35.9581 50.9361 35.944 51.0214ZM35.9667 52.44C35.9667 52.44 36.3249 52.4229 36.4258 52.4613C36.4998 52.4926 36.45 52.6177 36.3533 52.6035C36.2524 52.5906 35.9667 52.44 35.9667 52.44ZM36.5282 52.7243L36.9176 52.7726C36.9475 52.9858 36.892 53.3469 36.7527 53.5487L36.376 53.4393C36.4755 53.2019 36.4998 52.9787 36.5282 52.7243ZM42.8154 57.9169C42.8154 58.8208 42.3974 59.5075 41.7024 59.8884L41.9511 59.3823H41.7094L41.3896 60.0305C41.0584 60.1556 40.6831 60.2253 40.2681 60.2253C39.0001 60.2253 38.6646 60.2764 38.1956 60.7441C37.725 60.2764 37.3896 60.2253 36.123 60.2253C35.7108 60.2253 35.3356 60.1585 35.0058 60.0334H35.0143L35.3341 59.3823H35.0939L34.8139 59.9524C34.747 59.9211 34.6816 59.8869 34.6191 59.85L34.8494 59.3823H34.6106L34.44 59.7306C33.897 59.3312 33.5771 58.7057 33.5771 57.9169V55.0739H42.8125V57.9169H42.8154ZM43.0726 49.3043C42.9291 49.6767 42.8139 50.0804 42.8139 50.4841V54.8195H42.3092C42.0804 54.5978 41.8871 53.8586 41.8871 53.8586C41.762 54.1244 41.9056 54.6631 42.0392 54.8195H41.3896C41.229 54.602 41.0897 53.8316 41.0897 53.8316C40.895 54.0533 41.0186 54.6518 41.1394 54.8195H40.7073C40.6803 54.5111 40.7684 54.1756 40.7684 54.1756C40.5424 54.1343 40.3022 54.0149 40.3036 53.7648C40.4173 53.8714 40.4642 53.87 40.622 53.8671L40.8054 53.7221C40.197 53.7421 40.1686 53.0739 40.6519 52.7612C40.17 52.7768 39.8103 52.4898 39.9852 51.978C39.6426 51.8003 39.5218 51.2204 39.7748 50.9659C39.5915 50.7669 39.5616 50.376 39.6782 50.1102C39.4351 50.1102 39.1622 50.0135 39.01 49.8472C38.9987 49.8529 38.9845 49.8572 38.9716 49.8615C39.2759 49.7378 39.5331 49.5445 39.7066 49.3057H43.0726V49.3043ZM41.2332 47.2176C40.7329 47.3043 40.3022 47.9169 39.9496 48.4698L39.9098 48.5338H39.5331L39.5318 48.5992C39.4933 49.0256 39.0882 49.6042 38.1956 49.6042C37.7833 49.6042 37.4721 49.4776 37.2588 49.3057C37.074 49.155 36.9574 48.9688 36.9006 48.7911C36.8793 48.7272 36.8665 48.6617 36.8608 48.5992L36.8579 48.5338H36.4841L36.4443 48.4698C36.0903 47.9183 35.6596 47.3057 35.1607 47.2176L36.5239 46.4258L38.1984 47.3356L39.87 46.4258L41.2332 47.2176ZM39.6725 46.035L38.3377 46.7371V43.8985L40.1515 43.2816L39.6725 46.035ZM38.197 43.5886L36.214 42.8054C36.3817 42.4073 37.1593 42.0676 38.197 42.0676C39.2332 42.0676 40.0094 42.4073 40.1771 42.8054L38.197 43.5886Z" fill="black"/>
        <path fill-rule="evenodd" clip-rule="evenodd" d="M42.6036 52.1057L42.6078 51.8881C41.9411 51.8725 41.7877 51.0864 41.7877 51.0864C41.5929 51.6649 42.1018 52.0971 42.6036 52.1057Z" fill="black"/>
        <path fill-rule="evenodd" clip-rule="evenodd" d="M41.7623 53.4379L41.6955 53.2318C41.1269 53.3768 40.8327 52.4756 40.8327 52.4756C40.6507 53.1309 41.2847 53.5943 41.7623 53.4379Z" fill="black"/>
        <path fill-rule="evenodd" clip-rule="evenodd" d="M42.1568 52.6022C41.4774 52.7102 41.1988 51.9199 41.1988 51.9199C41.1234 52.3506 41.402 52.787 41.8527 52.8324C41.7503 53.394 42.272 53.6824 42.724 53.482L42.6586 53.2859C42.2663 53.4181 41.8982 53.03 42.1568 52.6022Z" fill="black"/>
        <path fill-rule="evenodd" clip-rule="evenodd" d="M41.7505 50.3463L41.7562 50.1288C40.8592 49.9441 40.9346 49.3271 40.9346 49.3271C40.7413 49.9085 41.2501 50.3378 41.7505 50.3463Z" fill="black"/>
        <path fill-rule="evenodd" clip-rule="evenodd" d="M36.0673 59.3828L35.7461 60.0339H35.9877L36.3076 59.3828H36.0673Z" fill="black"/>
        <path fill-rule="evenodd" clip-rule="evenodd" d="M36.5522 59.3823L36.2324 60.0334H36.4755L36.7925 59.3823H36.5522Z" fill="black"/>
        <path fill-rule="evenodd" clip-rule="evenodd" d="M38.4937 59.3823L38.1738 60.0334H38.4141L38.7353 59.3823H38.4937Z" fill="black"/>
        <path fill-rule="evenodd" clip-rule="evenodd" d="M38.9799 59.3823L38.6572 60.0334H38.9003L39.2187 59.3823H38.9799Z" fill="black"/>
        <path fill-rule="evenodd" clip-rule="evenodd" d="M38.0087 59.3828L37.6875 60.0339H37.9291L38.2489 59.3828H38.0087Z" fill="black"/>
        <path fill-rule="evenodd" clip-rule="evenodd" d="M40.8447 60.0334H41.0863L41.4062 59.3823H41.1645L40.8447 60.0334Z" fill="black"/>
        <path fill-rule="evenodd" clip-rule="evenodd" d="M37.0386 59.3823L36.7188 60.0334H36.9604L37.2802 59.3823H37.0386Z" fill="black"/>
        <path fill-rule="evenodd" clip-rule="evenodd" d="M37.522 59.3823L37.2021 60.0334H37.4452L37.765 59.3823H37.522Z" fill="black"/>
        <path fill-rule="evenodd" clip-rule="evenodd" d="M36.4242 55.8828C36.3802 55.8828 36.3418 55.9254 36.3418 55.9809C36.3418 56.0349 36.3802 56.079 36.4242 56.079C36.4697 56.079 36.5095 56.0349 36.5095 55.9809C36.5082 55.9254 36.4697 55.8828 36.4242 55.8828Z" fill="black"/>
        <path fill-rule="evenodd" clip-rule="evenodd" d="M38.1975 41.1897C39.1925 41.1897 39.9899 41.5194 40.4291 41.8734C40.4291 41.8734 40.5614 41.083 41.0063 40.3894L40.2046 40.479L39.7852 39.5863L38.9793 40.0056L38.1975 39.2295L37.4157 40.0056L36.6068 39.5863L36.1875 40.479L35.3857 40.3894C35.8321 41.083 35.9629 41.8734 35.9629 41.8734C36.4035 41.5194 37.2024 41.1897 38.1975 41.1897ZM36.3253 40.8343L36.7078 40.0241L37.4157 40.4008L38.1975 39.6289L38.9793 40.4008L39.6872 40.0241L40.0653 40.8343L40.5358 40.7618C40.415 40.9878 40.324 41.1854 40.2401 41.4626C39.7256 41.1627 38.9608 40.931 38.1975 40.931C37.4313 40.931 36.668 41.1627 36.1533 41.4626C36.0681 41.1854 35.9785 40.9878 35.8563 40.7618L36.3253 40.8343Z" fill="black"/>
        <path fill-rule="evenodd" clip-rule="evenodd" d="M39.0152 39.5929C39.1317 39.6029 39.2355 39.5147 39.2455 39.3995C39.2568 39.283 39.0862 38.9731 39.0862 38.9731C39.0862 38.9731 38.8318 39.2475 38.8232 39.3641C38.8119 39.4778 38.9 39.5815 39.0152 39.5929Z" fill="black"/>
        <path fill-rule="evenodd" clip-rule="evenodd" d="M40.329 40.0689C40.4328 40.1243 40.5593 40.0831 40.6147 39.9793C40.6716 39.877 40.6346 39.5259 40.6346 39.5259C40.6346 39.5259 40.2963 39.678 40.2409 39.7817C40.1869 39.8841 40.2267 40.012 40.329 40.0689Z" fill="black"/>
        <path fill-rule="evenodd" clip-rule="evenodd" d="M37.3773 39.5929C37.4952 39.5815 37.5819 39.4792 37.572 39.3641C37.5607 39.2475 37.3091 38.9731 37.3091 38.9731C37.3091 38.9731 37.1398 39.2844 37.1498 39.3995C37.1584 39.5147 37.2621 39.6029 37.3773 39.5929Z" fill="black"/>
        <path fill-rule="evenodd" clip-rule="evenodd" d="M36.0656 40.0689C36.1693 40.012 36.2078 39.8841 36.1537 39.7817C36.0997 39.678 35.76 39.5259 35.76 39.5259C35.76 39.5259 35.7245 39.877 35.7813 39.9793C35.8339 40.0831 35.9618 40.1243 36.0656 40.0689Z" fill="black"/>
        <path fill-rule="evenodd" clip-rule="evenodd" d="M51.8218 47.2903C52.1018 47.1908 52.3178 46.9236 52.4259 46.6763C51.7138 46.5739 49.8217 45.7793 48.2666 46.4261C48.8495 45.8732 49.3726 45.8021 49.4223 45.0061C49.6639 45.1795 50.0719 45.2776 50.3022 44.864C50.1416 44.3906 49.7364 44.7744 49.6796 44.6436C49.6 44.4616 50.1899 44.699 50.3164 44.0836C49.8573 43.9257 49.7208 44.301 49.6384 44.2143C49.5631 44.1318 49.9298 43.9741 49.6597 43.478C49.182 43.758 49.4308 44.0722 49.3299 44.1077C49.2077 44.1561 49.3043 43.7708 48.7755 43.7893C48.7229 44.3565 49.2716 44.3749 49.182 44.4645C49.0726 44.574 48.9305 44.139 48.5311 44.3593C48.5381 44.817 48.9091 45.0686 49.2916 44.9605C49.229 45.8305 48.4301 45.6685 47.8359 46.6492C49.0954 47.2946 49.6654 48.4204 50.4401 49.1993C50.696 49.0174 51.1337 48.21 51.1337 48.21C51.9724 48.8596 52.5623 48.2128 52.5623 48.2128C52.2738 47.9172 52.2624 47.6926 51.8218 47.2903ZM50.5993 47.4481C50.686 47.64 50.858 48.3095 50.4472 48.8198C49.9796 47.8859 49.337 47.0857 48.8167 46.7402C48.703 46.6663 48.8793 46.537 49.2006 46.4944C50.1686 46.311 51.3043 46.7203 51.8445 46.8639C51.5928 47.0515 51.3883 47.1368 51.1309 47.1681C51.5232 47.4979 51.8104 47.7764 52.0122 48.0864C51.6327 48.1816 51.4181 47.9414 50.5993 47.4481Z" fill="black"/>
        <path fill-rule="evenodd" clip-rule="evenodd" d="M42.5122 61.9666V60.9033C41.6906 61.28 40.6458 61.5856 39.3011 61.7065L39.24 62.086C39.3537 62.1016 39.4987 62.1158 39.692 62.1286C39.1945 62.1969 38.5506 62.2295 38.198 62.2295C37.8441 62.2295 37.2016 62.1969 36.7027 62.1286C36.8945 62.1158 37.0396 62.1016 37.1533 62.086L37.0922 61.7065C35.7474 61.5856 34.7012 61.28 33.881 60.9033V61.9666L32.7666 62.4243C33.5925 62.8535 34.5421 63.2032 35.6394 63.4861L35.5086 63.931C36.1369 64.1159 37.1419 64.3034 38.1952 64.3034C39.2486 64.3034 40.2521 64.1144 40.8818 63.931L40.7525 63.4861C41.8484 63.2032 42.8008 62.8535 43.6266 62.4243L42.5122 61.9666ZM33.3622 62.4484L34.1142 62.1457V61.28C34.5975 61.4662 35.2314 61.6595 36.1412 61.8486L35.7148 63.2373C34.7865 63.0241 33.9977 62.737 33.3622 62.4484ZM38.1966 64.049C37.348 64.049 36.5193 63.9225 35.8114 63.7477L36.262 62.2906C36.5605 62.3603 37.3082 62.4513 38.1966 62.4513C39.0865 62.4513 39.8299 62.3589 40.1298 62.2906L40.5819 63.7477C39.8711 63.9225 39.0438 64.049 38.1966 64.049ZM40.6799 63.2373L40.2535 61.8486C41.1632 61.661 41.7972 61.4662 42.2806 61.28V62.1457L43.0311 62.4484C42.3957 62.737 41.6096 63.0241 40.6799 63.2373Z" fill="black"/>
        <path fill-rule="evenodd" clip-rule="evenodd" d="M25.2606 48.21C25.2606 48.21 25.6984 49.0174 25.9529 49.1993C26.729 48.4218 27.3004 47.296 28.5584 46.6492C27.9628 45.6685 27.1639 45.8334 27.1042 44.9605C27.4866 45.0686 27.8562 44.8156 27.8647 44.3593C27.4638 44.139 27.3218 44.5768 27.2137 44.4645C27.1241 44.3721 27.6714 44.3565 27.6203 43.7893C27.0915 43.7723 27.1881 44.1561 27.0644 44.1077C26.9649 44.0722 27.2137 43.7566 26.7347 43.478C26.466 43.9755 26.8342 44.1318 26.7574 44.2143C26.6764 44.301 26.537 43.9271 26.0794 44.0836C26.203 44.699 26.7958 44.4616 26.7162 44.6436C26.6593 44.7744 26.2556 44.3906 26.0964 44.864C26.3239 45.279 26.7333 45.1809 26.9735 45.0075C27.0246 45.8049 27.5463 45.8717 28.1306 46.4261C26.574 45.7793 24.6821 46.5739 23.967 46.6777C24.0765 46.9236 24.2926 47.1908 24.5726 47.2875C24.1319 47.694 24.1206 47.9186 23.832 48.2128C23.832 48.2128 24.4205 48.8596 25.2606 48.21ZM24.3793 48.0878C24.5825 47.7779 24.8683 47.4979 25.2634 47.1695C25.0047 47.1368 24.8015 47.0515 24.5484 46.8639C25.09 46.7203 26.2272 46.3095 27.1967 46.4944C27.515 46.537 27.6942 46.6663 27.5776 46.7402C27.0574 47.0857 26.4134 47.8859 25.9457 48.8198C25.5364 48.3095 25.7098 47.6414 25.7937 47.4496C24.9763 47.9414 24.7631 48.1816 24.3793 48.0878Z" fill="black"/>
        <path fill-rule="evenodd" clip-rule="evenodd" d="M37.5156 47.6167V48.0844C37.6762 47.8896 37.989 47.928 37.989 47.928V48.6032C37.989 48.6032 37.9776 48.9358 37.8611 49.078H38.198H38.5348C38.4169 48.9358 38.4069 48.6032 38.4069 48.6032V47.9294C38.4069 47.9294 38.7182 47.891 38.8789 48.0858V47.6181H38.198H37.5156V47.6167Z" fill="black"/>
        <path d="M64.8117 49.3324V43.7821H68.0911V41.7624H59.1445V43.7821H62.4238V49.3324H64.8117ZM71.3549 46.1677V41.7624H69.0467V49.3324H71.0843L75.0641 44.9272V49.3324H77.3724V41.7624H75.3348L71.3549 46.1677ZM85.138 46.5175V49.3324H87.4462V41.7624H85.138V44.5295H81.4287V41.7624H79.1205V49.3324H81.4287V46.5175H85.138ZM93.8745 49.3324C94.3999 49.3324 94.8775 49.2847 95.3232 49.1574C96.5171 48.8234 97.2972 47.8533 97.2972 46.5334C97.2972 45.277 96.6286 44.4024 95.562 44.0047C95.0526 43.814 94.4477 43.798 93.8745 43.798H91.5027V41.7624H89.1944V49.3324H93.8745ZM93.4766 45.5793C93.795 45.5793 94.0974 45.5793 94.368 45.6746C94.7501 45.8019 94.973 46.1199 94.973 46.5016C94.973 46.8992 94.7501 47.2331 94.384 47.3922C94.1292 47.5035 93.8745 47.5035 93.4766 47.5035H91.5027V45.5793H93.4766ZM101.436 46.4697L104.19 49.3324H107.262L103.426 45.3883L107.119 41.7624H104.222L101.436 44.6092H100.799V41.7624H98.4908V49.3324H100.799V46.4697H101.436ZM112.012 41.5557C108.908 41.5557 107.045 43.305 107.045 45.5633C107.045 47.8215 108.908 49.5709 112.012 49.5709C115.1 49.5709 116.963 47.8215 116.963 45.5633C116.963 43.305 115.1 41.5557 112.012 41.5557ZM112.012 47.7262C110.468 47.7262 109.481 46.8037 109.481 45.5633C109.481 44.3228 110.468 43.4163 112.012 43.4163C113.54 43.4163 114.543 44.3228 114.543 45.5633C114.543 46.8037 113.54 47.7262 112.012 47.7262ZM124.65 41.333H122.342V42.0964C119.445 42.1601 117.709 43.3846 117.709 45.5474C117.709 47.7102 119.445 48.8394 122.342 48.903V49.6663H124.65V48.903C127.563 48.8394 129.298 47.7102 129.298 45.5474C129.298 43.3846 127.563 42.1601 124.65 42.0964V41.333ZM122.342 47.2809C120.75 47.2172 120.049 46.5651 120.049 45.5474C120.049 44.5295 120.75 43.798 122.342 43.7344V47.2809ZM124.65 43.7344C126.258 43.798 126.942 44.5295 126.942 45.5474C126.942 46.5651 126.258 47.2172 124.65 47.2809V43.7344ZM136.978 41.333H134.67V42.0964C131.772 42.1601 130.037 43.3846 130.037 45.5474C130.037 47.7102 131.772 48.8394 134.67 48.903V49.6663H136.978V48.903C139.891 48.8394 141.626 47.7102 141.626 45.5474C141.626 43.3846 139.891 42.1601 136.978 42.0964V41.333ZM134.67 47.2809C133.078 47.2172 132.377 46.5651 132.377 45.5474C132.377 44.5295 133.078 43.798 134.67 43.7344V47.2809ZM136.978 43.7344C138.586 43.798 139.27 44.5295 139.27 45.5474C139.27 46.5651 138.586 47.2172 136.978 47.2809V43.7344Z" fill="black"/>
        <path d="M60.7657 60.6987L60.8447 60.7183L60.9633 60.4302C61.0424 60.2381 61.1577 59.9744 61.3092 59.6392C61.4608 59.3006 61.6123 58.9881 61.7639 58.7017L63.7208 55.02H64.8129V61.4995H63.9333V57.8716C63.9333 57.009 63.9827 56.3254 64.0815 55.8208L63.9827 55.8013C63.8838 56.1105 63.7801 56.3905 63.6713 56.6411C63.5626 56.8918 63.4061 57.2108 63.2019 57.5981L61.1264 61.4995H60.0244V55.02H60.904V58.7505C60.904 59.5285 60.8579 60.1779 60.7657 60.6987Z" fill="black"/>
        <path d="M67.1354 61.4995H66.2756V56.4995H67.1354V58.5796H69.2603V56.4995H70.1202V61.4995H69.2603V59.3071H67.1354V61.4995Z" fill="black"/>
        <path d="M71.4742 61.4995V56.4995H73.6633C74.0883 56.4995 74.4408 56.6021 74.7209 56.8071C75.0009 57.009 75.1409 57.3198 75.1409 57.7397C75.1409 57.9871 75.0519 58.2199 74.874 58.438C74.6961 58.6561 74.4375 58.8026 74.0982 58.8774V58.9507C74.3156 58.9637 74.5067 59.0093 74.6714 59.0874C74.8395 59.1623 74.9696 59.2567 75.0618 59.3706C75.1541 59.4845 75.2216 59.6034 75.2644 59.7271C75.3106 59.8475 75.3336 59.9712 75.3336 60.0981C75.3336 60.4074 75.2496 60.6759 75.0816 60.9038C74.9169 61.1284 74.6764 61.2896 74.3601 61.3872C74.1295 61.4621 73.8231 61.4995 73.441 61.4995H71.4742ZM72.3143 60.8306H73.5102C73.8099 60.8306 74.0455 60.7671 74.2168 60.6401C74.3914 60.5099 74.4787 60.313 74.4787 60.0493C74.4787 59.7922 74.3865 59.6034 74.202 59.4829C74.0208 59.3592 73.8001 59.2974 73.5398 59.2974H72.3143V60.8306ZM72.3143 58.6284H73.357C73.6205 58.6284 73.8429 58.5617 74.0241 58.4282C74.2086 58.2948 74.3008 58.106 74.3008 57.8618C74.3008 57.6242 74.2234 57.45 74.0686 57.3394C73.917 57.2254 73.721 57.1685 73.4805 57.1685H72.3143V58.6284Z" fill="black"/>
        <path d="M80.1418 59.8394C80.1715 60.3797 80.0117 60.8078 79.6625 61.1235C79.3133 61.4393 78.8422 61.5972 78.2492 61.5972C77.8934 61.5972 77.5788 61.5321 77.3053 61.4019C77.0319 61.2684 76.8112 61.0828 76.6432 60.8452C76.4784 60.6076 76.3532 60.3341 76.2676 60.0249C76.1852 59.7157 76.144 59.3739 76.144 58.9995C76.144 58.6349 76.1885 58.298 76.2775 57.9888C76.3664 57.6763 76.4949 57.4012 76.6629 57.1636C76.8342 56.9259 77.0566 56.7404 77.33 56.6069C77.6068 56.4702 77.9197 56.4019 78.269 56.4019C78.6808 56.4019 79.0316 56.4995 79.3215 56.6948C79.6114 56.8869 79.8223 57.1392 79.9541 57.4517C80.0858 57.7609 80.1517 58.1141 80.1517 58.5112C80.1517 58.7358 80.1385 58.9279 80.1122 59.0874H77.0237C77.0335 59.7026 77.1538 60.1632 77.3844 60.4692C77.6183 60.7752 77.923 60.9282 78.2986 60.9282C78.5984 60.9282 78.8521 60.8387 79.0596 60.6597C79.2672 60.4806 79.3578 60.2072 79.3314 59.8394H80.1418ZM78.2294 57.0806C77.8769 57.0806 77.5969 57.2043 77.3893 57.4517C77.1818 57.6991 77.0632 58.0425 77.0335 58.4819H79.3018V58.4185C79.3018 57.9823 79.2079 57.6502 79.0201 57.4224C78.8323 57.1945 78.5687 57.0806 78.2294 57.0806Z" fill="black"/>
        <path d="M84.9846 59.5806C85.0209 60.1991 84.8809 60.6906 84.5646 61.0552C84.2483 61.4165 83.7772 61.5972 83.1513 61.5972C82.779 61.5972 82.4545 61.5353 82.1778 61.4116C81.9044 61.2847 81.6836 61.104 81.5156 60.8696C81.3509 60.6353 81.2274 60.3634 81.145 60.0542C81.0659 59.7417 81.0264 59.3901 81.0264 58.9995C81.0264 58.6479 81.0659 58.3208 81.145 58.0181C81.2274 57.7121 81.3509 57.437 81.5156 57.1929C81.6803 56.9487 81.9027 56.7567 82.1827 56.6167C82.4628 56.4735 82.7856 56.4019 83.1513 56.4019C83.7377 56.4019 84.2022 56.5793 84.5448 56.9341C84.8908 57.2856 85.0341 57.7642 84.9748 58.3696H84.1248C84.1775 57.9595 84.1083 57.6437 83.9172 57.4224C83.7295 57.201 83.4741 57.0903 83.1513 57.0903C82.7593 57.0903 82.4529 57.258 82.2322 57.5933C82.0147 57.9285 81.906 58.3973 81.906 58.9995C81.906 59.6278 82.018 60.1063 82.242 60.4351C82.4661 60.7638 82.7757 60.9282 83.1711 60.9282C83.8695 60.9282 84.194 60.479 84.1446 59.5806H84.9846Z" fill="black"/>
        <path d="M87.7569 61.4995H86.8971V57.2319H85.3849V56.4995H89.2641V57.2319H87.7569V61.4995Z" fill="black"/>
        <path d="M91.0382 61.4995H90.0449V56.4995H90.885V58.5308C90.885 59.5822 90.824 60.3179 90.7021 60.7378L90.8059 60.7671C90.8421 60.6857 90.9014 60.5425 90.9838 60.3374C91.0695 60.1323 91.1683 59.9045 91.2803 59.6538C91.3956 59.4032 91.5307 59.1281 91.6855 58.8286L92.911 56.4995H93.9043V61.4995H93.0642V59.4683C93.0642 58.4038 93.1235 57.6681 93.2421 57.2612L93.1433 57.2319C93.1071 57.3133 93.0461 57.4565 92.9605 57.6616C92.8781 57.8667 92.7793 58.0946 92.664 58.3452C92.5519 58.5959 92.4185 58.8709 92.2637 59.1704L91.0382 61.4995Z" fill="black"/>
        <path d="M95.2534 56.4995H96.0935V60.7671H98.1887V56.4995H99.0288V60.7671H99.6168V62.7397H98.8756V61.4995H95.2534V56.4995Z" fill="black"/>
        <path d="M101.485 61.4995H100.492V56.4995H101.332V58.5308C101.332 59.5822 101.271 60.3179 101.149 60.7378L101.253 60.7671C101.289 60.6857 101.348 60.5425 101.43 60.3374C101.516 60.1323 101.615 59.9045 101.727 59.6538C101.842 59.4032 101.977 59.1281 102.132 58.8286L103.358 56.4995H104.351V61.4995H103.511V59.4683C103.511 58.4038 103.57 57.6681 103.689 57.2612L103.59 57.2319C103.554 57.3133 103.493 57.4565 103.407 57.6616C103.325 57.8667 103.226 58.0946 103.111 58.3452C102.999 58.5959 102.865 58.8709 102.71 59.1704L101.485 61.4995Z" fill="black"/>
        <path d="M106.693 61.4995H105.7V56.4995H106.54V58.5308C106.54 59.5822 106.479 60.3179 106.357 60.7378L106.461 60.7671C106.497 60.6857 106.557 60.5425 106.639 60.3374C106.725 60.1323 106.823 59.9045 106.935 59.6538C107.051 59.4032 107.186 59.1281 107.341 58.8286L108.566 56.4995H109.559V61.4995H108.719V59.4683C108.719 58.4038 108.779 57.6681 108.897 57.2612L108.798 57.2319C108.762 57.3133 108.701 57.4565 108.616 57.6616C108.533 57.8667 108.434 58.0946 108.319 58.3452C108.207 58.5959 108.074 58.8709 107.919 59.1704L106.693 61.4995Z" fill="black"/>
    </g>
    <defs>
        <clipPath id="clip0_1850_41618">
            <rect width="126" height="27" fill="white" transform="translate(19 37.9995)"/>
        </clipPath>
    </defs>
</svg>
