<svg width="164" height="104" viewBox="0 0 164 104" fill="none" xmlns="http://www.w3.org/2000/svg">
    <rect y="-0.000488281" width="164" height="104" rx="15" fill="white"/>
    <g clip-path="url(#clip0_2188_29460)">
        <mask id="mask0_2188_29460" style="mask-type:luminance" maskUnits="userSpaceOnUse" x="61" y="39" width="7" height="19">
            <path d="M62.343 39.2734C62.1405 39.2965 61.953 39.3889 61.8134 39.5342C61.6738 39.6795 61.5911 39.8684 61.5801 40.0676V57.1411C61.5911 57.3402 61.6738 57.5291 61.8134 57.6744C61.953 57.8197 62.1405 57.9121 62.343 57.9352H66.9082C67.1099 57.9112 67.2965 57.8185 67.4353 57.6733C67.5741 57.528 67.6561 57.3396 67.667 57.1411V40.0676C67.6561 39.869 67.5741 39.6806 67.4353 39.5354C67.2965 39.3902 67.1099 39.2974 66.9082 39.2734H62.343Z" fill="white"/>
        </mask>
        <g mask="url(#mask0_2188_29460)">
            <path d="M61.8834 37.9833L57.4502 57.0146L67.3691 59.2268L71.8024 40.1955L61.8834 37.9833Z" fill="url(#paint0_linear_2188_29460)"/>
        </g>
        <mask id="mask1_2188_29460" style="mask-type:luminance" maskUnits="userSpaceOnUse" x="40" y="39" width="20" height="19">
            <path d="M53.465 39.2735C53.3078 39.2753 53.1531 39.312 53.0126 39.3807C52.872 39.4495 52.7492 39.5486 52.6534 39.6706L49.0012 45.9957H46.5664V40.0676C46.5482 39.863 46.4568 39.6713 46.3084 39.526C46.1599 39.3808 45.964 39.2914 45.7549 39.2735H41.2911C41.0832 39.2852 40.8866 39.37 40.7375 39.5123C40.5884 39.6545 40.4967 39.8447 40.4795 40.0478V57.1411C40.4978 57.3458 40.5892 57.5375 40.7376 57.6827C40.886 57.828 41.082 57.9174 41.2911 57.9353H45.7549C45.9642 57.9181 46.1607 57.829 46.3092 57.6836C46.4578 57.5382 46.5489 57.346 46.5664 57.1411V51.1495H49.407L53.0592 57.5382C53.1535 57.6617 53.276 57.7619 53.4169 57.8309C53.5578 57.8998 53.7132 57.9356 53.8708 57.9353H59.1462C59.2397 57.9338 59.3311 57.9073 59.4104 57.8585C59.4896 57.8098 59.5536 57.7407 59.5955 57.6588C59.6374 57.5769 59.6554 57.4853 59.6478 57.394C59.6401 57.3027 59.6069 57.2153 59.552 57.1411L54.2766 48.3741L59.552 40.0676C59.6101 39.9943 59.6459 39.9064 59.6552 39.814C59.6645 39.7217 59.6469 39.6286 59.6045 39.5456C59.5621 39.4626 59.4965 39.393 59.4154 39.3449C59.3343 39.2967 59.241 39.272 59.1462 39.2735H53.465Z" fill="white"/>
        </mask>
        <g mask="url(#mask1_2188_29460)">
            <path d="M41.4358 35.1751L36.3496 57.0093L58.8463 62.0265L63.9324 40.1924L41.4358 35.1751Z" fill="url(#paint1_linear_2188_29460)"/>
        </g>
        <mask id="mask2_2188_29460" style="mask-type:luminance" maskUnits="userSpaceOnUse" x="103" y="39" width="21" height="19">
            <path d="M118.393 39.2734C118.184 39.2913 117.988 39.3807 117.839 39.526C117.691 39.6712 117.6 39.863 117.581 40.0676V48.8028L109.871 39.2734H104.596C104.387 39.2913 104.191 39.3807 104.042 39.526C103.894 39.6712 103.802 39.863 103.784 40.0676V57.1411C103.802 57.3457 103.894 57.5374 104.042 57.6827C104.191 57.8279 104.387 57.9173 104.596 57.9352H109.06C109.269 57.9181 109.465 57.8289 109.614 57.6835C109.763 57.5382 109.854 57.346 109.871 57.1411V48.374L117.581 57.9352H122.857C123.07 57.9084 123.267 57.8103 123.415 57.6577C123.563 57.505 123.652 57.3071 123.668 57.0974V40.0477C123.65 39.8449 123.558 39.6552 123.409 39.5131C123.26 39.371 123.064 39.286 122.857 39.2734H118.393Z" fill="white"/>
        </mask>
        <g mask="url(#mask2_2188_29460)">
            <path d="M104.77 35.0566L99.6562 57.0107L122.691 62.148L127.805 40.1938L104.77 35.0566Z" fill="url(#paint2_linear_2188_29460)"/>
        </g>
        <mask id="mask3_2188_29460" style="mask-type:luminance" maskUnits="userSpaceOnUse" x="70" y="39" width="32" height="19">
            <path d="M85.8187 44.4276C89.5277 44.4276 93.2367 44.3442 94.8396 44.0306C94.9978 43.9988 95.2454 44.0306 95.2454 44.4276V52.3688C95.2454 52.7659 94.9897 52.7659 94.8396 52.7659C93.5816 52.615 90.952 52.6189 88.0627 52.6189H85.8187C82.0813 52.6189 78.137 52.5594 76.5787 52.7817C76.4245 52.7817 76.1729 52.7817 76.1729 52.3847V44.4435C76.1729 44.0464 76.4245 44.0187 76.5787 44.0464C78.3236 44.376 81.8541 44.4435 85.283 44.4435H85.8187M70.8975 39.2817C70.6823 39.2817 70.4759 39.3654 70.3236 39.5143C70.1714 39.6633 70.0859 39.8652 70.0859 40.0759V57.1494C70.0859 57.36 70.1714 57.562 70.3236 57.7109C70.4759 57.8598 70.6823 57.9435 70.8975 57.9435H100.521C100.736 57.9435 100.942 57.8598 101.095 57.7109C101.247 57.562 101.332 57.36 101.332 57.1494V40.0759C101.332 39.8652 101.247 39.6633 101.095 39.5143C100.942 39.3654 100.736 39.2817 100.521 39.2817H70.8975Z" fill="white"/>
        </mask>
        <g mask="url(#mask3_2188_29460)">
            <path d="M71.6272 32.6491L65.9521 57.0112L99.7881 64.5574L105.463 40.1953L71.6272 32.6491Z" fill="url(#paint3_linear_2188_29460)"/>
        </g>
        <mask id="mask4_2188_29460" style="mask-type:luminance" maskUnits="userSpaceOnUse" x="40" y="60" width="84" height="6">
            <path d="M68.1832 64.0462H70.0661V63.2521H68.1832V64.0462ZM48.3722 61.9497V63.2759H46.469V61.9497H45.5032V65.4558H46.469V64.0422H48.3722V65.4558H49.3339V61.9497H48.3722ZM50.4661 61.9497V63.403C50.4661 64.2646 50.3931 64.6219 49.9304 64.6219H49.8087V65.4558H50.0887C51.1316 65.4558 51.371 64.9158 51.371 63.403V62.7161H52.8481V65.4558H53.7977V61.9497H50.4661ZM56.3664 62.5691L56.9832 63.9866H55.7658L56.3664 62.5691ZM55.7536 61.9497L54.2035 65.4558H55.1125L55.4493 64.6616H57.2835L57.6284 65.4558H58.6267L57.0846 61.9497H55.7536ZM61.9136 61.9497L59.9902 64.2963V61.9497H59.0162V65.4558H60.0551L61.9786 63.1091V65.4558H62.9444V61.9497H61.9136ZM66.5641 61.9497V63.2759H64.6568V61.9497H63.6829V65.4558H64.6487V64.0422H66.5559V65.4558H67.5217V61.9497H66.5641ZM73.4301 61.9497L72.1275 63.2759H71.7217V61.9497H70.7316V65.4558H71.6974V64.0422H72.1032L73.4464 65.4558H74.6638L72.927 63.6174L74.5501 61.9458L73.4301 61.9497ZM77.8939 61.9497L75.9664 64.2963V61.9497H75.0046V65.4558H76.0435L77.971 63.1091V65.4558H78.9571V61.9497H77.8939ZM82.5403 61.9497V63.2759H80.6371V61.9497H79.6713V65.4558H80.6371V64.0422H82.5403V65.4558H83.5102V61.9497H82.5403ZM88.8626 61.9497V62.7161H90.3194V65.4558H91.2852V62.7161H92.7542V61.9497H88.8626ZM93.1965 61.9497V65.4558H96.4754V64.7291H94.1623V64.0144H95.9113V63.3156H94.1623V62.6763H96.4591V61.9497H93.1965ZM98.8777 62.5691L99.4945 63.9866H98.2568L98.8777 62.5691ZM98.2649 61.9497L96.7107 65.4558H97.6238L97.9606 64.6616H99.7948L100.136 65.4558H101.138L99.5959 61.9497H98.2649ZM100.659 61.9497V62.7161H102.108V65.4558H103.074V62.7161H104.522V61.9497H100.659ZM105.934 62.6803H107.274C107.59 62.6803 107.728 62.855 107.728 63.0774V63.2203C107.728 63.4625 107.59 63.6174 107.274 63.6174H105.934V62.6803ZM104.969 61.9497V65.4558H105.934V64.3559H107.412C108.296 64.3559 108.702 63.9152 108.702 63.1647C108.702 62.4143 108.296 61.9736 107.412 61.9736L104.969 61.9497ZM113.584 61.9497L112.691 64.5663L111.827 61.9497H110.305V65.4558H111.19V62.7478L112.123 65.4558H113.178L114.111 62.7359V65.4558H115.073V61.9497H113.584ZM115.519 61.9497V62.7161H116.964V65.4558H117.934V62.7161H119.387V61.9497H115.519ZM41.429 63.8794V63.5102C41.429 62.8391 41.8551 62.6088 42.687 62.6088C43.5188 62.6088 43.9368 62.8391 43.9368 63.5102V63.8794C43.9368 64.5902 43.531 64.7927 42.687 64.7927C41.8429 64.7927 41.429 64.5862 41.429 63.8794ZM40.4551 63.6809C40.4551 65.0786 41.2667 65.5272 42.687 65.5272C44.1073 65.5272 44.9188 65.0786 44.9188 63.6809C44.9188 62.2833 44.1073 61.8783 42.687 61.8783C41.2667 61.8783 40.4551 62.319 40.4551 63.6809ZM85.0928 63.8794V63.5102C85.0928 62.8391 85.5188 62.6088 86.3467 62.6088C87.1745 62.6088 87.6006 62.8391 87.6006 63.5102V63.8794C87.6006 64.5902 87.1948 64.7927 86.3467 64.7927C85.4986 64.7927 85.0928 64.5862 85.0928 63.8794ZM84.1148 63.6809C84.1148 65.0786 84.9264 65.5272 86.3467 65.5272C87.767 65.5272 88.5826 65.0786 88.5826 63.6809C88.5826 62.2833 87.771 61.8783 86.3467 61.8783C84.9223 61.8783 84.1148 62.319 84.1148 63.6809ZM119.586 63.7087C119.586 65.0825 120.361 65.5272 121.671 65.5272C122.864 65.5272 123.579 65.1818 123.7 64.2765H122.726C122.621 64.6736 122.26 64.7927 121.683 64.7927C121.014 64.7927 120.572 64.618 120.572 63.9072V63.5102C120.572 62.7796 121.03 62.6168 121.679 62.6168C122.329 62.6168 122.637 62.724 122.722 63.1727H123.696C123.599 62.2197 122.885 61.8862 121.667 61.8862C120.357 61.8862 119.581 62.3547 119.581 63.7166M61.3983 60.8936C61.3983 61.1715 61.2522 61.2906 60.9641 61.2906C60.6759 61.2906 60.5583 61.1913 60.5583 60.8936H59.767C59.767 61.4852 60.1728 61.779 60.9641 61.779C61.7554 61.779 62.153 61.4852 62.1815 60.8936H61.3983Z" fill="white"/>
        </mask>
        <g mask="url(#mask4_2188_29460)">
            <path d="M119.205 42.5522L39.3828 61.1445L44.9132 83.8762L124.735 65.2839L119.205 42.5522Z" fill="url(#paint4_linear_2188_29460)"/>
        </g>
    </g>
    <defs>
        <linearGradient id="paint0_linear_2188_29460" x1="61.6985" y1="61.8371" x2="71.2789" y2="18.8798" gradientUnits="userSpaceOnUse">
            <stop stop-color="#3973B9"/>
            <stop offset="0.03" stop-color="#3973B9"/>
            <stop offset="0.08" stop-color="#355DA8"/>
            <stop offset="0.16" stop-color="#334093"/>
            <stop offset="0.21" stop-color="#303189"/>
            <stop offset="0.24" stop-color="#2E2B86"/>
            <stop offset="0.47" stop-color="#C40D71"/>
            <stop offset="0.5" stop-color="#C81163"/>
            <stop offset="0.53" stop-color="#CB1353"/>
            <stop offset="0.57" stop-color="#CE1445"/>
            <stop offset="0.61" stop-color="#D01437"/>
            <stop offset="0.65" stop-color="#D2132C"/>
            <stop offset="0.7" stop-color="#D31323"/>
            <stop offset="0.76" stop-color="#D4131D"/>
            <stop offset="0.84" stop-color="#D41319"/>
            <stop offset="1" stop-color="#D51317"/>
        </linearGradient>
        <linearGradient id="paint1_linear_2188_29460" x1="47.8819" y1="58.7566" x2="57.4623" y2="15.7993" gradientUnits="userSpaceOnUse">
            <stop stop-color="#3973B9"/>
            <stop offset="0.03" stop-color="#3973B9"/>
            <stop offset="0.08" stop-color="#355DA8"/>
            <stop offset="0.16" stop-color="#334093"/>
            <stop offset="0.21" stop-color="#303189"/>
            <stop offset="0.24" stop-color="#2E2B86"/>
            <stop offset="0.47" stop-color="#C40D71"/>
            <stop offset="0.5" stop-color="#C81163"/>
            <stop offset="0.53" stop-color="#CB1353"/>
            <stop offset="0.57" stop-color="#CE1445"/>
            <stop offset="0.61" stop-color="#D01437"/>
            <stop offset="0.65" stop-color="#D2132C"/>
            <stop offset="0.7" stop-color="#D31323"/>
            <stop offset="0.76" stop-color="#D4131D"/>
            <stop offset="0.84" stop-color="#D41319"/>
            <stop offset="1" stop-color="#D51317"/>
        </linearGradient>
        <linearGradient id="paint2_linear_2188_29460" x1="108.371" y1="72.2487" x2="117.951" y2="29.2914" gradientUnits="userSpaceOnUse">
            <stop stop-color="#3973B9"/>
            <stop offset="0.03" stop-color="#3973B9"/>
            <stop offset="0.08" stop-color="#355DA8"/>
            <stop offset="0.16" stop-color="#334093"/>
            <stop offset="0.21" stop-color="#303189"/>
            <stop offset="0.24" stop-color="#2E2B86"/>
            <stop offset="0.47" stop-color="#C40D71"/>
            <stop offset="0.5" stop-color="#C81163"/>
            <stop offset="0.53" stop-color="#CB1353"/>
            <stop offset="0.57" stop-color="#CE1445"/>
            <stop offset="0.61" stop-color="#D01437"/>
            <stop offset="0.65" stop-color="#D2132C"/>
            <stop offset="0.7" stop-color="#D31323"/>
            <stop offset="0.76" stop-color="#D4131D"/>
            <stop offset="0.84" stop-color="#D41319"/>
            <stop offset="1" stop-color="#D51317"/>
        </linearGradient>
        <linearGradient id="paint3_linear_2188_29460" x1="81.7317" y1="66.3438" x2="91.3121" y2="23.3865" gradientUnits="userSpaceOnUse">
            <stop stop-color="#3973B9"/>
            <stop offset="0.03" stop-color="#3973B9"/>
            <stop offset="0.08" stop-color="#355DA8"/>
            <stop offset="0.16" stop-color="#334093"/>
            <stop offset="0.21" stop-color="#303189"/>
            <stop offset="0.24" stop-color="#2E2B86"/>
            <stop offset="0.46" stop-color="#C40D71"/>
            <stop offset="0.5" stop-color="#C81163"/>
            <stop offset="0.53" stop-color="#CB1353"/>
            <stop offset="0.57" stop-color="#CE1445"/>
            <stop offset="0.61" stop-color="#D01437"/>
            <stop offset="0.65" stop-color="#D2132C"/>
            <stop offset="0.7" stop-color="#D31323"/>
            <stop offset="0.76" stop-color="#D4131D"/>
            <stop offset="0.84" stop-color="#D41319"/>
            <stop offset="1" stop-color="#D51317"/>
        </linearGradient>
        <linearGradient id="paint4_linear_2188_29460" x1="24.7268" y1="76.5584" x2="203.055" y2="33.1732" gradientUnits="userSpaceOnUse">
            <stop stop-color="#3973B9"/>
            <stop offset="0.03" stop-color="#3973B9"/>
            <stop offset="0.06" stop-color="#3970B7"/>
            <stop offset="0.07" stop-color="#3768B1"/>
            <stop offset="0.08" stop-color="#355DA8"/>
            <stop offset="0.16" stop-color="#334093"/>
            <stop offset="0.21" stop-color="#303189"/>
            <stop offset="0.24" stop-color="#2E2B86"/>
            <stop offset="0.47" stop-color="#C40D71"/>
            <stop offset="0.5" stop-color="#C81163"/>
            <stop offset="0.53" stop-color="#CB1353"/>
            <stop offset="0.57" stop-color="#CE1445"/>
            <stop offset="0.61" stop-color="#D01437"/>
            <stop offset="0.65" stop-color="#D2132C"/>
            <stop offset="0.7" stop-color="#D31323"/>
            <stop offset="0.76" stop-color="#D4131D"/>
            <stop offset="0.84" stop-color="#D41319"/>
            <stop offset="1" stop-color="#D41319"/>
        </linearGradient>
        <clipPath id="clip0_2188_29460">
            <rect width="84" height="27" fill="white" transform="translate(40 38.9995)"/>
        </clipPath>
    </defs>
</svg>
