<svg width="164" height="104" viewBox="0 0 164 104" fill="none" xmlns="http://www.w3.org/2000/svg">
    <rect y="-0.000488281" width="164" height="104" rx="15" fill="white"/>
    <g clip-path="url(#clip0_2188_29454)">
        <path d="M77.3025 59.4468H80.7559V52.2609C80.7559 48.4649 78.3483 46.4496 75.4514 46.4496C73.5342 46.4496 72.0857 47.2862 71.0424 48.4443H70.5736C69.7862 47.4143 68.4232 46.4496 66.4002 46.4496C64.5647 46.4496 63.0982 47.2644 62.3313 48.2086H61.8625V46.8147H58.6459V59.4468H62.0777V52.8412C62.0777 50.5878 62.7388 49.8165 65.0383 49.8165C67.3377 49.8165 67.976 50.5878 67.976 52.8412V59.4456H71.4306V52.8412C71.4306 50.5878 72.0689 49.8165 74.3696 49.8165C76.6714 49.8165 77.3085 50.5878 77.3085 52.8412L77.3037 59.4456L77.3025 59.4468ZM44.8888 57.6382C44.2721 57.1885 43.9945 56.5236 43.9945 55.5166C43.9945 54.2508 44.3791 52.6913 45.0174 52.0203C45.4645 51.5694 46.1028 51.3554 46.9767 51.3554C48.2124 51.3554 49.7245 51.6818 50.3628 52.3419C50.7895 52.7711 50.9818 53.3707 50.9818 54.2073C50.9818 55.409 50.6404 57.1027 49.894 57.8099C49.4685 58.1968 48.8939 58.3672 48.0849 58.3672C46.9791 58.3672 45.5895 58.1085 44.8888 57.6382ZM50.3219 60.2979L50.1717 61.456L53.3859 61.855L54.9088 49.3389L51.6958 48.9412L51.5456 50.155H51.1741C50.6933 49.2978 49.4048 48.1385 46.9767 48.1385C43.5906 48.1385 41.0988 50.6482 40.6504 54.0779C40.6089 54.4128 40.5876 54.7499 40.5867 55.0874C40.5867 58.3672 42.8021 61.0704 46.2519 61.456C46.4442 61.4742 46.6353 61.4802 46.8276 61.4778C48.2761 61.4778 49.3627 60.8564 49.9168 60.2991H50.3207L50.3219 60.2979ZM123.032 56.5937C120.455 56.5937 119.603 55.7366 119.603 53.1422C119.603 50.5467 120.456 49.6641 123.032 49.6641C125.609 49.6641 126.462 50.543 126.462 53.1422C126.462 55.7402 125.609 56.5937 123.032 56.5937ZM106.504 56.5937C103.926 56.5937 103.075 55.7366 103.075 53.1422C103.075 50.5467 103.926 49.6641 106.503 49.6641C109.08 49.6641 109.934 50.543 109.934 53.1422C109.934 55.7402 109.08 56.5937 106.503 56.5937H106.504ZM90.4009 56.5937C87.825 56.5937 86.9728 55.7366 86.9728 53.1422C86.9728 50.5467 87.825 49.6641 90.4009 49.6641C92.9769 49.6641 93.8315 50.543 93.8315 53.1422C93.8315 55.7402 92.9781 56.5937 90.4009 56.5937ZM35.8039 42.5532L33.71 59.4214L37.1285 59.8409L39.1888 42.9715L35.8039 42.5532ZM126.611 58.2246V59.4456H129.826V46.8159H126.611V48.0393H126.142C125.63 47.3527 124.332 46.452 122.58 46.452C118.746 46.452 116.128 49.3861 116.128 53.1434C116.128 56.8996 118.747 59.8131 122.58 59.8131C124.328 59.8131 125.626 58.9125 126.142 58.2258L126.611 58.2246ZM90.4009 46.4508C86.141 46.4508 83.5013 49.3849 83.5013 53.1422C83.5013 56.8984 86.141 59.8119 90.4009 59.8119C94.6609 59.8119 97.3089 56.8948 97.3089 53.1422C97.3089 49.3885 94.6669 46.4508 90.4009 46.4508ZM110.125 58.2246V59.4456H113.34V42.6983H109.934V48.0381H109.465C108.954 47.3515 107.803 46.4508 106.057 46.4508C102.223 46.4508 99.6024 49.3849 99.6024 53.1422C99.6024 56.8984 102.223 59.8119 106.057 59.8119C107.803 59.8119 109.166 58.9112 109.656 58.2246H110.125Z" fill="black"/>
    </g>
    <defs>
        <clipPath id="clip0_2188_29454">
            <rect width="96.1618" height="19.3429" fill="white" transform="translate(33.71 42.5532)"/>
        </clipPath>
    </defs>
</svg>
