<svg width="406" height="190" viewBox="0 0 406 190" fill="none" xmlns="http://www.w3.org/2000/svg">
    <rect width="406" height="190" rx="30" fill="white"/>
    <path d="M134.612 85.629C134.416 85.4272 134.302 85.2423 134.14 84.9857C134.055 84.8556 133.964 84.7153 133.863 84.5647C134.143 84.2363 134.379 83.8565 134.558 83.4389L135.273 81.7861L133.512 81.5294C133.215 81.4849 132.736 81.3583 132.176 81.2078C131.097 80.9204 129.711 80.5506 128.2 80.3898C128.715 80.1606 129.154 79.7465 129.461 79.1853L129.751 78.655C129.751 78.655 129.673 77.9124 129.39 77.6797C129.498 77.4504 129.582 77.1971 129.64 76.9199L129.879 75.7359L128.753 75.3459C128.577 75.2843 128.402 75.2397 128.23 75.2124C128.166 74.9968 128.071 74.7675 127.943 74.5245L127.275 73.2823L126.071 73.9975C125.771 74.1755 125.518 74.3809 125.312 74.6101C125.133 74.5759 124.941 74.5587 124.739 74.5587C124.739 74.5587 124.05 74.48 123.292 74.7606L122.32 73.7374L121.17 72.4919C120.094 71.325 118.637 70.9794 117.152 71.5543C116.586 70.9794 115.702 70.5037 114.329 70.5037C113.863 70.5037 113.455 70.5618 113.216 70.5927C113.216 70.5927 111.327 70.9417 110.264 71.9648L108.976 71.3421C108.112 72.7211 106.635 73.1592 106.635 73.1592C106.534 72.7553 106.361 72.3789 106.115 72.0333L106.2 71.5474C106.2 71.5337 106.49 69.8878 107.373 68.4916L108.912 66.0619L106.733 66.3117C106.739 66.0927 106.729 65.8326 106.699 65.5246L106.503 63.6356L104.796 64.4194C104.607 64.5048 104.449 64.5904 104.3 64.6691L103.963 63.9403L103.181 64.3508C103.103 64.1558 103.002 63.9334 102.864 63.6768L101.963 62L100.684 63.3996C100.553 63.5434 100.442 63.6768 100.347 63.8034L99.5713 63.0197L98.7888 63.8068C98.6909 63.6802 98.5829 63.5467 98.4514 63.403L97.1595 62L96.2554 63.6837C96.1172 63.9403 96.0194 64.1593 95.9418 64.3543L95.1626 63.9437L94.8252 64.6726C94.6768 64.5939 94.5182 64.5083 94.3293 64.4194L92.6158 63.6391L92.4269 65.535C92.3965 65.8395 92.3865 66.0961 92.3932 66.3151L90.2107 66.0653L91.7522 68.4949C92.6394 69.8878 92.9227 71.5337 92.9227 71.5474L93.0037 72.0333C92.7575 72.3824 92.5821 72.7588 92.4842 73.1625C92.4842 73.1625 91.0877 72.5569 90.1534 71.3421L88.8379 71.9785C87.3368 70.952 86.4057 70.5516 84.7866 70.5037C83.4138 70.466 82.53 70.9794 81.9633 71.5543C80.4758 70.9827 79.0219 71.3284 77.9492 72.4954C77.9492 72.4954 77.2442 73.2721 76.799 73.7409C76.3537 74.2131 75.696 74.6033 75.696 74.6033C75.696 74.6033 74.7615 74.3911 73.8003 74.6135C73.5946 74.3842 73.3381 74.1789 73.0346 73.9975L71.8268 73.2823L71.1623 74.5314C71.0342 74.7709 70.9431 74.9968 70.8824 75.2124C70.7105 75.2397 70.5351 75.2843 70.3597 75.3459L69.2396 75.7427L69.4725 76.9199C69.5297 77.204 69.6107 77.4573 69.722 77.6864C69.658 77.8131 69.6007 77.9466 69.5535 78.0868L69.3645 78.6584L69.6512 79.1888C69.9548 79.7465 70.3899 80.1641 70.9095 80.3933C69.3949 80.5541 68.0119 80.9238 66.9291 81.2112C66.3725 81.3583 65.8935 81.4884 65.5967 81.5328L63.8291 81.7929L64.2305 82.7168L64.551 83.4526C64.7331 83.8633 64.9726 84.2432 65.2493 84.5716C65.1446 84.7221 64.6994 85.4305 64.5004 85.6324L63.6064 86.5529L64.4633 87.511C64.5713 87.6274 65.5326 88.6507 67.0876 88.654C67.5126 88.654 67.9342 88.5788 68.3526 88.4282C68.7674 89.0853 69.2599 89.7526 69.7084 90.081C68.8821 91.0665 67.941 91.9221 66.6019 92.5688L65.482 93.1096L65.9643 94.4064C66.278 95.1901 66.8886 96.049 68.0692 96.3774C67.8162 97.1441 67.6948 97.8696 67.5869 98.5163C67.3339 100.053 67.2259 100.689 65.8935 101.165L64.696 101.589L65.0401 102.828C65.3167 103.837 65.7316 104.505 66.1801 104.946L65.3842 105.836C65.3842 105.836 67.2732 107.273 69.125 107.448C69.1519 107.451 70.7306 107.554 71.4389 106.637C71.7223 107.677 72.171 108.635 72.5791 109.504C73.4157 111.291 73.861 112.348 73.301 113.313L72.036 115.489L74.5221 115.383C75.6083 115.339 76.6168 115.27 77.4905 115.051C77.4905 115.099 77.4872 115.144 77.4837 115.188L77.2813 117.057L79.4604 116.591C79.6898 116.523 79.9057 116.431 80.1014 116.324C81.4505 117.926 83.7443 119.175 86.8342 119.175H87.0129L83.4609 120.653L86.0481 122.019C87.7516 122.919 89.6441 123.672 91.8029 124.311L91.5026 125.362L92.8014 125.749C93.5503 125.971 96.2588 126.7 99.5578 126.7C102.857 126.7 105.562 125.971 106.314 125.749L107.61 125.362L107.309 124.315C109.472 123.675 111.364 122.922 113.067 122.022L115.655 120.657L112.099 119.178H112.278C115.368 119.178 117.658 117.929 119.008 116.328C119.203 116.434 119.419 116.526 119.648 116.595L121.827 117.06L121.628 115.195C121.625 115.151 121.622 115.103 121.622 115.055C122.492 115.274 123.504 115.339 124.587 115.387L127.073 115.493L125.815 113.32C125.251 112.355 125.7 111.298 126.533 109.511C126.941 108.642 127.39 107.684 127.673 106.644C128.152 107.013 128.668 107.236 129.181 107.352C129.181 107.352 129.579 107.472 129.96 107.482C131.06 107.516 131.61 107.198 132.365 106.715L133.738 105.839L132.935 104.95C133.384 104.512 133.799 103.844 134.076 102.838L134.423 101.596L133.222 101.172C131.886 100.696 131.782 100.06 131.529 98.523C131.421 97.8764 131.303 97.1476 131.046 96.3843C132.227 96.0525 132.834 95.1934 133.148 94.4133L133.627 93.113L132.507 92.5722C131.168 91.9256 130.227 91.07 129.397 90.0844C129.849 89.756 130.341 89.0885 130.76 88.4316C131.174 88.5823 131.596 88.654 132.025 88.6575C133.58 88.6575 134.544 87.6343 134.649 87.5178L135.506 86.5597L134.612 85.629Z" fill="white"/>
    <path fill-rule="evenodd" clip-rule="evenodd" d="M88.5955 102.493V92.0555C88.5955 91.0838 88.3189 90.1117 87.9883 89.2188H95.9727C96.7046 90.2384 98.0336 90.9227 99.5584 90.9227C101.076 90.9227 102.405 90.2384 103.141 89.2188H111.125C110.788 90.1152 110.514 91.0838 110.514 92.0555V102.493H88.5955ZM99.5549 116.756C98.4385 115.63 97.6423 115.506 94.6336 115.506C91.0377 115.506 88.5955 113.368 88.5955 109.949V103.105H110.511V109.949C110.511 113.368 108.072 115.506 104.47 115.506C101.464 115.503 100.668 115.63 99.5549 116.756Z" fill="#FFDD2D"/>
    <path d="M89.8673 118.046V120.13L88.083 120.859C89.5907 121.553 91.4629 122.245 93.6621 122.755L94.6741 119.411C92.5154 118.963 91.0108 118.494 89.8673 118.046Z" fill="white"/>
    <path d="M99.5557 120.869C97.4474 120.869 95.6732 120.647 94.9648 120.482L93.8955 123.99C95.5754 124.407 97.5418 124.715 99.5557 124.715C101.563 124.715 103.529 124.411 105.216 123.99L104.143 120.482C103.435 120.65 101.667 120.869 99.5557 120.869Z" fill="white"/>
    <path d="M109.243 118.046C108.097 118.494 106.595 118.96 104.437 119.415L105.452 122.758C107.655 122.248 109.52 121.557 111.028 120.862L109.247 120.133V118.046H109.243Z" fill="white"/>
    <path d="M86.1296 84.4243C88.9225 82.8947 95.7498 79.5275 91.1217 75.8966C90.491 75.4039 89.7962 74.959 89.2125 74.4081C88.4908 74.9727 89.4825 76.3757 89.7321 76.8891C89.7321 76.8891 88.1905 77.0464 87.8228 77.0464C85.4414 77.0362 82.9452 75.6058 84.2102 72.8647C83.2623 73.0633 83.1476 73.9872 82.8576 74.7776C82.2503 74.3602 81.1945 73.4637 80.3817 73.5903C81.0427 75.7357 83.8257 77.6693 85.9844 78.1072C83.802 79.3118 79.7541 80.2083 77.6258 77.6144C76.1314 80.5472 78.2127 81.7722 80.2534 83.3087C72.485 86.9053 73.632 90.9398 68.5351 94.1155C69.1961 94.4302 72.1443 93.7973 72.4074 93.7595C71.301 95.2139 70.7849 95.8299 70.4611 96.5383C70.1507 97.2021 70.0124 97.9516 69.7056 99.5668C69.466 100.843 69.0275 102.116 67.4961 102.961C68.0966 104.063 69.429 103.201 69.9855 103.054C69.9112 103.17 69.7223 104.498 69.2232 105.138C71.8407 104.967 70.6298 99.3682 73.2474 100.717C73.9861 101.093 74.2088 101.976 73.8679 102.698C72.1476 106.298 76.0572 109.47 75.8446 112.625C76.8061 112.618 77.8012 112.591 78.4285 111.273C78.7558 111.93 79.2617 112.854 79.5451 113.744L80.3276 112.392C80.81 114.63 82.8677 116.697 85.6472 116.882C84.3216 114.754 85.9103 111.848 82.689 108.758C83.0902 108.43 84.0179 107.797 84.3485 107.366C80.3952 107.838 76.2697 104.665 78.1418 103.16C79.3663 102.178 79.9026 104.217 81.7916 103.875L81.0529 103.228C81.3126 102.968 81.6094 102.629 81.9164 102.373C81.1136 102.274 80.2365 101.753 80.2365 101.753L80.7155 100.949C76.0842 100.942 75.9661 97.3493 77.8482 97.2056C78.7321 97.1406 79.8756 98.7934 82.7259 98.4476C82.3616 98.0029 82.2167 97.3287 82.0445 96.8326C82.7327 96.7676 83.5424 96.7744 84.1933 96.4527C82.8002 96.2714 82.4493 95.7956 81.289 94.9061L82.6349 94.4064C80.6819 93.4174 80.7999 91.6961 80.7392 89.9029C81.7612 90.4983 82.9621 91.4224 84.2438 90.9946C84.5474 90.8918 84.7431 90.7483 84.7499 90.4266C82.9216 89.6841 81.7479 86.8266 86.1296 84.4243ZM82.7935 84.7049C80.3479 87.357 81.407 88.9448 81.8996 89.4341C80.9887 89.2357 79.6295 88.0584 79.9396 86.919C79.6498 87.2714 79.3529 87.6546 79.0493 88.0482C78.442 88.8696 77.899 89.6737 77.4166 90.454C76.6745 92.6918 78.0338 95.0018 80.3479 96.0249C77.7775 95.6417 76.6239 93.3216 76.6307 91.8433C75.4028 94.1977 74.8158 96.3466 74.8698 98.1501C74.8934 98.8208 74.9508 99.4469 75.0385 100.039C75.6289 101.175 76.5768 101.593 78.2666 101.801C76.7319 101.901 75.9189 101.829 75.2511 101.117C76.2967 105.678 81.1878 109.627 83.1781 113.008C81.1843 110.38 77.0591 106.466 75.6154 103.636C75.504 104.659 75.7738 107.28 77.0286 108.892C75.1801 107.047 75.0352 104.255 75.1566 102.619C74.6877 101.442 74.3909 100.128 74.3504 98.6326C74.3132 97.2569 74.4076 96.0627 74.6135 94.9915C73.4463 96.6752 71.7598 97.3253 70.9299 99.8884C71.0918 96.5826 73.524 96.5314 75.3456 92.5174C76.0504 90.762 77.0758 89.2459 78.2094 87.5281C76.769 88.0072 75.6896 88.3493 74.0231 90.2006C75.2071 87.3604 82.0479 84.1678 85.1817 81.0775C84.2405 81.2795 80.3985 81.3787 78.803 80.2974C81.6938 81.0912 88.1265 80.1844 90.5551 78.5008C88.8787 80.9475 85.2289 81.0879 80.7865 85.9541C81.3531 85.4954 82.1087 85.0334 82.7935 84.7049Z" fill="white"/>
    <path d="M129.402 99.5664C129.096 97.9513 128.961 97.2018 128.65 96.538C128.33 95.8296 127.81 95.2137 126.701 93.7592C126.964 93.797 129.919 94.4301 130.576 94.1153C125.479 90.9396 126.626 86.905 118.855 83.3085C120.895 81.772 122.977 80.5469 121.482 77.6109C119.354 80.2082 115.306 79.3116 113.123 78.1037C115.286 77.6655 118.065 75.7356 118.726 73.5865C117.91 73.4599 116.854 74.3564 116.247 74.7705C115.957 73.98 115.846 73.0561 114.898 72.8542C116.163 75.5986 113.663 77.029 111.278 77.0393C110.914 77.0393 109.376 76.8819 109.376 76.8819C109.622 76.3686 110.614 74.9657 109.889 74.401C109.305 74.9553 108.617 75.3968 107.983 75.8896C103.351 79.5203 110.185 82.891 112.978 84.4171C117.353 86.8194 116.19 89.6769 114.358 90.4091C114.365 90.7307 114.561 90.8746 114.867 90.9772C116.142 91.4084 117.35 90.4845 118.365 89.8856C118.308 91.6788 118.429 93.4034 116.477 94.389L117.819 94.8886C116.659 95.7783 116.311 96.254 114.918 96.4354C115.566 96.757 116.382 96.7502 117.067 96.8152C116.891 97.3114 116.74 97.9855 116.382 98.4304C119.236 98.7725 120.383 97.1232 121.26 97.1881C123.135 97.3319 123.024 100.925 118.389 100.932L118.868 101.736C118.868 101.736 117.991 102.256 117.185 102.355C117.492 102.609 117.792 102.951 118.052 103.211L117.313 103.858C119.199 104.2 119.738 102.16 120.963 103.143C122.835 104.648 118.713 107.82 114.756 107.348C115.09 107.779 116.018 108.416 116.419 108.744C113.194 111.831 114.78 114.74 113.461 116.872C116.234 116.683 118.291 114.616 118.78 112.378L119.563 113.73C119.843 112.84 120.356 111.917 120.676 111.259C121.3 112.577 122.302 112.604 123.267 112.611C123.047 109.456 126.954 106.284 125.24 102.684C124.896 101.965 125.118 101.082 125.857 100.703C128.482 99.3542 127.264 104.953 129.885 105.124C129.382 104.484 129.197 103.156 129.126 103.04C129.679 103.187 131.008 104.049 131.608 102.944C130.087 102.116 129.649 100.843 129.402 99.5664ZM124.501 94.9878C124.707 96.0624 124.811 97.2532 124.764 98.6289C124.72 100.124 124.427 101.438 123.958 102.615C124.076 104.251 123.935 107.044 122.086 108.888C123.337 107.273 123.611 104.655 123.499 103.632C122.049 106.462 117.927 110.377 115.93 113.005C117.924 109.624 122.815 105.671 123.864 101.113C123.189 101.822 122.383 101.897 120.845 101.798C122.531 101.589 123.479 101.171 124.069 100.035C124.157 99.4468 124.215 98.8171 124.238 98.1464C124.295 96.3429 123.705 94.1939 122.477 91.8395C122.487 93.3178 121.334 95.6379 118.76 96.0213C121.067 94.9947 122.43 92.6848 121.691 90.4503C121.212 89.67 120.673 88.8624 120.059 88.0445C119.755 87.651 119.458 87.2678 119.165 86.9153C119.475 88.0547 118.116 89.2319 117.205 89.4304C117.701 88.9411 118.757 87.3532 116.314 84.7012C116.999 85.0298 117.755 85.4917 118.325 85.9434C113.882 81.0773 110.236 80.9405 108.553 78.4904C110.985 80.174 117.418 81.0842 120.305 80.2867C118.713 81.3681 114.867 81.2689 113.926 81.067C117.06 84.1571 123.908 87.35 125.088 90.1903C123.422 88.3388 122.339 87.9967 120.905 87.5176C122.042 89.2387 123.061 90.7514 123.766 92.5068C125.591 96.5208 128.026 96.5689 128.185 99.8779C127.355 97.3216 125.672 96.6715 124.501 94.9878Z" fill="white"/>
    <path d="M103.137 89.2151C102.405 90.2348 101.073 90.9192 99.5583 90.9192C99.2041 90.9192 98.8634 90.8782 98.5396 90.8166C98.6308 91.2375 98.8433 91.6722 99.2851 92.045C99.1063 93.2666 99.6258 94.4097 100.918 94.7075C101.056 95.3303 101.434 95.7991 102.075 96.0214L101.174 97.0755C100.827 97.4793 100.375 97.6093 100.01 97.5615L95.9896 97.0994C96.1649 96.6477 95.6994 96.1241 94.4243 96.3466L96.003 91.8637L95.0415 89.7866L93.2168 91.3675L93.0818 96.0693L92.2959 95.6828C91.2839 95.2378 90.9837 97.1096 91.9485 97.1165L92.3364 97.12C92.3094 97.3115 92.3701 97.5237 92.5219 97.5922C92.3397 97.6674 92.2857 98.013 92.5118 98.1363C92.2824 98.2492 92.2487 98.6051 92.4342 98.7592C92.2352 99.1046 92.198 99.8541 92.9031 100.042C93.4832 100.196 93.8475 99.5666 93.9657 99.2005L100.223 101.165C101.103 101.421 101.737 101.278 102.473 100.624L104.106 99.1765C103.9 100.125 104.233 100.976 104.945 101.261C104.945 101.261 104.834 102.13 104.878 102.489L107.067 102.493H110.514V92.0554C110.514 91.0836 110.788 90.1117 111.125 89.2151H107.067H103.137Z" fill="white"/>
    <path d="M93.7668 106.777L93.8883 106.931C94.0569 107.144 94.1581 107.092 94.3503 106.979L94.6337 106.825C94.8125 106.688 95.9763 107.14 96.0403 106.158C96.1685 106.89 95.3084 108.434 95.8278 109.296L96.5261 110.456L94.2458 110.49C93.9962 110.49 93.8647 110.644 93.7972 110.781L93.2001 112.037C93.0448 112.369 93.055 112.711 93.2507 112.94L93.6555 113.402C93.6555 113.402 93.9862 113.118 94.0939 112.745L93.9151 112.557C93.7668 112.413 93.7668 112.276 93.8477 112.099L94.2153 111.325C94.3571 111.021 94.5021 110.956 94.826 111.034L96.6711 111.438C96.806 111.472 97.0254 111.537 97.1568 111.308C97.3828 110.901 97.7809 110.874 98.1857 110.939C99.1975 111.092 101.535 111.339 102.368 110.35C103.347 111.667 105.259 111.667 105.134 112.359L104.73 114.624H105.337L105.708 112.307C105.748 112.037 105.914 111.667 105.627 111.459C105.509 111.366 105.455 111.318 105.188 110.853C104.841 110.237 104.858 109.313 104.524 108.516C104.841 108.136 105.185 108.006 105.485 108.078C106.16 108.245 106.342 109.426 107.3 110.387C107.192 109.96 107.145 109.491 106.919 109.084C106.919 109.084 107.583 109.607 107.755 110.22C107.863 110.603 107.975 110.884 108.315 111.062C108.541 111.144 108.811 111.034 109.081 110.706C109.081 110.706 108.45 109.796 107.988 109.2C107.354 108.382 106.507 107.561 105.354 107.657C104.989 107.688 104.638 107.855 104.305 108.057C102.992 107.311 101.974 108.102 101.569 108.102L99.1133 107.954C98.6309 107.924 98.2497 107.356 98.2497 107.356C98.189 105.248 96.5193 104.409 95.9425 104.409C95.9425 104.409 95.9966 104.029 95.8446 103.896L95.332 104.55L93.9084 104.023L95.025 104.95L93.8139 106.377C93.6893 106.517 93.7061 106.702 93.7668 106.777Z" fill="white"/>
    <path d="M92.1574 109.737C91.8134 110.007 91.8302 110.384 92.0361 110.805L92.2418 111.195L92.7781 110.781L92.6567 110.514C92.569 110.325 92.5725 110.134 92.7242 110.014L93.4933 109.425C93.7092 109.265 93.7767 109.248 94.0061 109.282L95.6284 109.627C95.6284 109.627 95.3822 109.265 95.3013 108.895L93.7732 108.69C93.5573 108.662 93.4259 108.755 93.237 108.902L92.1574 109.737Z" fill="white"/>
    <path d="M102.534 114.624H103.148L104.133 112.163C104.167 112.078 104.214 112.04 104.251 111.968C103.809 111.79 103.549 111.667 103.182 111.451C103.428 111.787 103.62 111.931 103.519 112.242L102.534 114.624Z" fill="white"/>
    <path d="M103.056 81.3446L104.193 74.7163L99.8857 76.2015V83.0352L103.056 81.3446ZM100.614 76.8721L103.471 75.8046C103.471 75.8046 102.915 76.263 102.25 76.7249C101.66 77.139 100.614 77.5805 100.614 77.5805V76.8721ZM100.614 78.4771L103.228 77.5291C103.228 77.5291 102.915 77.8646 102.254 78.3265C101.663 78.7371 100.618 79.1785 100.618 79.1785V78.4771H100.614ZM100.614 80.1812L102.915 79.2846C102.915 79.2846 102.915 79.5687 102.25 80.0273C101.66 80.4414 100.614 80.8827 100.614 80.8827V80.1812Z" fill="white"/>
    <path d="M95.3922 87.206L95.4866 87.3601H96.3738L96.3839 87.5175C96.3941 87.6682 96.4279 87.8221 96.4783 87.9794C96.6168 88.4072 96.8899 88.8556 97.3284 89.2182C97.8378 89.6358 98.5731 89.937 99.5513 89.937C101.673 89.937 102.631 88.5442 102.722 87.5175L102.729 87.3601H103.619L103.714 87.206C104.55 85.8784 105.573 84.4035 106.76 84.1914L103.522 82.2852L99.5513 84.4753L95.5776 82.2852L92.3428 84.1914C93.5303 84.4001 94.5523 85.8784 95.3922 87.206Z" fill="white"/>
    <path d="M99.2177 83.0352V76.2015L94.917 74.7163L96.0469 81.3446L99.2177 83.0352ZM98.4925 80.8896C98.4925 80.8896 97.4467 80.4449 96.8565 80.0341C96.1921 79.5755 96.1921 79.2881 96.1921 79.2881L98.4958 80.1847V80.8896H98.4925ZM98.4925 76.8721V77.5805C98.4925 77.5805 97.4467 77.139 96.8565 76.7249C96.1886 76.263 95.6286 75.8046 95.6286 75.8046L98.4925 76.8721ZM98.4925 78.4771V79.182C98.4925 79.182 97.4467 78.7406 96.8565 78.3299C96.1886 77.868 95.8784 77.5326 95.8784 77.5326L98.4925 78.4771Z" fill="white"/>
    <path d="M99.5544 71.7944C97.0953 71.7944 95.2502 72.6123 94.8486 73.5705L99.5544 75.456L104.253 73.5705C103.855 72.6123 102.013 71.7944 99.5544 71.7944Z" fill="white"/>
    <path d="M99.5567 69.0561C101.368 69.0561 103.183 69.6139 104.404 70.336C104.603 69.6687 104.815 69.193 105.106 68.649L103.993 68.8235L103.092 66.8729L101.409 67.7798L99.5567 65.9216L97.7014 67.7798L96.0216 66.8729L95.1143 68.8235L94.001 68.649C94.2911 69.193 94.5003 69.6687 94.7061 70.336C95.9306 69.6139 97.7386 69.0561 99.5567 69.0561Z" fill="white"/>
    <path d="M130.251 84.0787C130.858 84.0001 131.347 83.7947 131.944 83.3429C130.659 82.9974 127.967 82.0085 125.67 82.4533C124.911 82.5559 124.49 82.8673 124.76 83.0453C125.994 83.8768 127.519 85.8033 128.629 88.0518C129.603 86.8232 129.195 85.2114 128.989 84.7495C130.932 85.9368 131.442 86.5152 132.342 86.2893C131.86 85.5399 131.182 84.8658 130.251 84.0787Z" fill="white"/>
    <path d="M70.4825 88.048C71.5922 85.7998 73.1168 83.8732 74.3548 83.0416C74.6314 82.8637 74.203 82.5522 73.4508 82.4496C71.1503 82.0082 68.4518 82.9937 67.1666 83.3393C67.7703 83.7912 68.2493 83.9964 68.8634 84.0751C67.929 84.8656 67.2509 85.5364 66.7686 86.2857C67.6759 86.5115 68.1819 85.9333 70.1215 84.7458C69.9225 85.2112 69.5109 86.8195 70.4825 88.048Z" fill="white"/>
    <path fill-rule="evenodd" clip-rule="evenodd" d="M83.9508 108.916C84.8447 108.197 85.5867 107.838 85.5497 106.096C84.2071 106.794 80.3989 106.756 78.8067 104.532C78.358 103.899 78.837 103.581 79.2721 104.08C80.3617 105.333 82.3788 104.765 83.1142 104.405C82.9962 103.974 82.669 103.413 82.3958 103.174C82.6724 102.9 83.4516 102.489 83.61 101.784C83.1951 101.555 81.5794 101.391 81.5794 101.391C81.8393 101.137 82.1629 100.785 81.9674 99.844C80.3178 100.357 78.2771 99.6592 77.815 99.0398C77.3595 98.4306 77.8252 97.8592 78.2096 98.2629C79.0327 99.139 83.0872 100.142 84.5951 98.6189C84.0352 98.4615 83.4178 97.955 83.3064 97.6401C84.7031 97.4965 85.8161 96.6615 85.9073 95.6212C85.1347 95.6212 83.6775 95.563 83.1782 95.1865C83.8461 94.9368 84.2712 94.6904 84.4837 93.9307C81.9303 93.7734 81.7279 91.8501 81.7143 91.5319C83.3773 92.5037 86.3052 92.0725 85.5463 89.6771C84.1633 89.6019 82.7702 87.3331 86.5718 85.249C90.0293 83.3499 93.959 81.3034 93.6115 77.9329C93.3855 75.7769 89.8876 74.3054 89.4423 73.2139C87.9817 73.9187 87.6882 74.7367 88.346 76.1088C88.346 76.1088 85.0908 76.4374 84.8345 74.4047C84.7232 73.4945 85.3236 72.6423 85.9679 71.9888C85.6036 71.9888 83.1513 71.3215 82.4125 73.3473C81.0397 72.396 79.8625 72.4302 78.9382 73.4362C80.4156 74.326 81.3298 77.3784 83.7719 78.2783C82.0347 79.2331 79.2249 78.8328 77.5855 75.8966C76.0339 78.2681 75.1401 80.6156 78.4694 83.124C72.4144 85.9197 72.4584 91.265 67.1894 93.8108C67.7224 95.2652 68.849 95.2652 70.2861 95.0395C68.009 98.0405 69.9487 101.182 66.3428 102.465C66.6801 103.69 67.3581 104.669 68.6872 104.31C68.3093 104.908 68.0598 104.895 67.4728 105.552C69.4427 106.811 71.7804 105.901 72.3099 101.859C72.4044 101.137 73.3826 101.589 73.0453 102.298C70.7987 107.01 76.4793 110.555 74.4688 114.011C76.2396 113.936 77.5923 113.795 78.3277 113.19C78.6887 113.915 78.9079 114.634 78.827 115.342C79.8051 115.14 80.1627 114.555 80.2301 113.878C80.8712 115.777 83.1648 117.806 86.8349 117.806C84.8885 114.986 86.7 112.129 83.9508 108.916ZM80.3279 112.389L79.5455 113.741C79.2653 112.851 78.7561 111.927 78.4289 111.27C77.7982 112.588 76.803 112.615 75.845 112.622C76.0575 109.467 72.148 106.294 73.8683 102.694C74.2124 101.976 73.9864 101.093 73.2476 100.713C70.6267 99.3649 71.841 104.963 69.2235 105.134C69.7227 104.494 69.9115 103.167 69.9858 103.05C69.4291 103.198 68.0967 104.06 67.4965 102.958C69.0279 102.113 69.4664 100.84 69.7059 99.5634C70.0094 97.9481 70.1511 97.1987 70.4581 96.5348C70.7818 95.8266 71.2979 95.2106 72.4044 93.7562C72.1413 93.7938 69.1965 94.427 68.532 94.1121C73.629 90.9365 72.482 86.9018 80.2504 83.3053C78.2129 81.7689 76.1316 80.5437 77.6228 77.6112C79.7511 80.205 83.7956 79.3084 85.9815 78.1039C83.8227 77.6659 81.0397 75.7358 80.3819 73.5869C81.1948 73.4603 82.2506 74.3568 82.8545 74.7742C83.148 73.9803 83.2627 73.0599 84.2106 72.8613C82.9456 75.6023 85.4418 77.0328 87.8232 77.0432C88.1942 77.0432 89.7324 76.8856 89.7324 76.8856C89.486 76.3724 88.491 74.9693 89.2129 74.4047C89.7964 74.9591 90.4914 75.4005 91.1221 75.8933C95.7535 79.5274 88.9228 82.8947 86.1298 84.4245C81.748 86.8266 82.922 89.6874 84.7502 90.4164C84.7435 90.7379 84.5478 90.8816 84.2442 90.9844C82.9625 91.4156 81.7615 90.4881 80.7395 89.8927C80.8002 91.6859 80.6788 93.4106 82.6352 94.3961L81.2892 94.8922C82.4463 95.7855 82.8005 96.2576 84.1936 96.4424C83.5426 96.7641 82.7364 96.7572 82.0449 96.8224C82.2204 97.3184 82.362 97.9927 82.7263 98.4374C79.876 98.7798 78.7325 97.1302 77.8486 97.1954C75.9665 97.339 76.0845 100.932 80.7159 100.939L80.2369 101.743C80.2369 101.743 81.1138 102.263 81.9202 102.362C81.6131 102.616 81.3163 102.958 81.0566 103.218L81.7953 103.865C79.903 104.207 79.37 102.167 78.1421 103.15C76.2701 104.655 80.3954 107.828 84.3487 107.355C84.0183 107.786 83.0872 108.423 82.6892 108.751C85.9106 111.838 84.3218 114.747 85.6475 116.879C82.8681 116.694 80.8103 114.624 80.3279 112.389Z" fill="black"/>
    <path fill-rule="evenodd" clip-rule="evenodd" d="M75.2454 101.117C75.9167 101.825 76.7262 101.9 78.2609 101.801C76.5711 101.592 75.6233 101.175 75.033 100.039C74.9486 99.4504 74.8913 98.8205 74.8676 98.1499C74.8137 96.3464 75.4006 94.1975 76.6285 91.8431C76.6217 93.3179 77.772 95.638 80.3457 96.0247C78.0318 94.9983 76.6723 92.6883 77.4143 90.4537C77.8968 89.6735 78.4399 88.8658 79.047 88.0481C79.3505 87.6546 79.6474 87.2712 79.9375 86.9188C79.6271 88.0583 80.9866 89.2355 81.8973 89.4339C81.4048 88.9446 80.3457 87.3603 82.7913 84.7083C82.1098 85.0367 81.3542 85.4986 80.7809 85.9503C85.22 81.0843 88.873 80.9474 90.5496 78.4973C88.1208 80.181 81.6883 81.0911 78.7975 80.2937C80.3928 81.3751 84.235 81.2758 85.1761 81.0739C82.0459 84.164 75.2049 87.3569 74.0177 90.1972C75.6839 88.3424 76.7633 88.0037 78.207 87.5279C77.0704 89.2492 76.0484 90.7617 75.3432 92.5173C73.5217 96.5277 71.0863 96.5792 70.9277 99.8849C71.7577 97.3217 73.4442 96.6716 74.6113 94.9879C74.4056 96.0625 74.3077 97.2533 74.3448 98.629C74.3853 100.124 74.6822 101.438 75.151 102.616C75.033 104.251 75.1746 107.044 77.0231 108.888C75.7683 107.276 75.4983 104.655 75.6098 103.632C77.0569 106.462 81.1823 110.377 83.1759 113.005C81.1823 109.627 76.2945 105.678 75.2454 101.117Z" fill="black"/>
    <path fill-rule="evenodd" clip-rule="evenodd" d="M120.907 87.5277C122.341 88.0068 123.424 88.3457 125.09 90.2004C123.91 87.3601 117.059 84.1674 113.928 81.0774C114.869 81.2758 118.715 81.3785 120.307 80.2971C117.42 81.0944 110.987 80.1842 108.555 78.5005C110.235 80.9507 113.885 81.0876 118.327 85.9536C117.757 85.5019 117.001 85.04 116.316 84.7115C118.759 87.3636 117.703 88.9514 117.207 89.4407C118.118 89.2423 119.477 88.0651 119.167 86.9254C119.46 87.278 119.757 87.6612 120.061 88.0548C120.671 88.8761 121.211 89.6802 121.693 90.4604C122.435 92.6985 121.073 95.0083 118.765 96.0315C121.339 95.6483 122.493 93.3246 122.479 91.8498C123.71 94.2041 124.297 96.3532 124.243 98.1565C124.22 98.8272 124.162 99.4535 124.075 100.046C123.481 101.182 122.533 101.599 120.847 101.808C122.385 101.904 123.191 101.832 123.866 101.123C122.817 105.685 117.929 109.634 115.932 113.015C117.929 110.387 122.048 106.472 123.501 103.642C123.613 104.665 123.343 107.286 122.088 108.898C123.936 107.054 124.078 104.261 123.96 102.626C124.426 101.449 124.719 100.135 124.766 98.639C124.81 97.2633 124.705 96.0691 124.503 94.9981C125.674 96.6816 127.357 97.332 128.19 99.895C128.031 96.5858 125.596 96.5345 123.771 92.5239C123.063 90.7581 122.044 89.2456 120.907 87.5277Z" fill="black"/>
    <path fill-rule="evenodd" clip-rule="evenodd" d="M128.828 95.0331C130.262 95.2625 131.389 95.2625 131.925 93.8081C126.656 91.2621 126.7 85.9203 120.645 83.1212C123.974 80.6162 123.077 78.2653 121.529 75.8939C119.893 78.8299 117.073 79.2303 115.342 78.2756C117.778 77.3755 118.699 74.3232 120.176 73.4335C119.252 72.4273 118.071 72.3931 116.698 73.3444C115.956 71.3186 113.507 71.9859 113.14 71.9859C113.78 72.636 114.388 73.4882 114.273 74.4019C114.02 76.4346 110.765 76.106 110.765 76.106C111.423 74.7338 111.129 73.9159 109.669 73.2109C109.223 74.3027 105.729 75.7741 105.499 77.9299C105.149 81.3006 109.085 83.3469 112.539 85.2463C116.341 87.3302 114.948 89.6025 113.568 89.6743C112.802 92.0698 115.73 92.5009 117.396 91.529C117.39 91.8473 117.177 93.7704 114.624 93.9279C114.84 94.6876 115.261 94.9338 115.929 95.1838C115.43 95.5636 113.973 95.6183 113.204 95.6183C113.295 96.6586 114.411 97.497 115.808 97.6374C115.696 97.9522 115.076 98.4587 114.519 98.616C116.027 100.139 120.082 99.1362 120.905 98.2602C121.282 97.8564 121.745 98.4278 121.293 99.037C120.827 99.6597 118.79 100.358 117.137 99.841C116.948 100.779 117.265 101.135 117.525 101.388C117.525 101.388 115.909 101.552 115.491 101.781C115.649 102.486 116.432 102.893 116.705 103.171C116.428 103.41 116.101 103.971 115.983 104.403C116.725 104.765 118.742 105.33 119.825 104.078C120.264 103.581 120.743 103.896 120.294 104.529C118.702 106.754 114.894 106.788 113.548 106.093C113.511 107.835 114.253 108.194 115.147 108.913C112.394 112.126 114.212 114.984 112.266 117.796C115.933 117.796 118.226 115.767 118.867 113.868C118.941 114.542 119.292 115.131 120.267 115.333C120.193 114.624 120.409 113.906 120.766 113.18C121.508 113.786 122.861 113.926 124.632 114.001C122.625 110.545 128.305 107 126.052 102.288C125.718 101.579 126.696 101.128 126.791 101.85C127.317 105.891 129.658 106.801 131.631 105.542C131.038 104.885 130.791 104.899 130.414 104.3C131.743 104.659 132.417 103.681 132.758 102.455C129.169 101.176 131.109 98.0343 128.828 95.0331ZM129.132 103.054C129.203 103.171 129.388 104.498 129.891 105.138C127.27 104.967 128.484 99.3689 125.863 100.717C125.124 101.094 124.905 101.977 125.246 102.698C126.959 106.298 123.053 109.471 123.273 112.626C122.308 112.619 121.306 112.592 120.682 111.274C120.361 111.931 119.845 112.855 119.566 113.745L118.783 112.393C118.297 114.631 116.239 116.698 113.467 116.886C114.786 114.758 113.2 111.849 116.425 108.759C116.02 108.43 115.093 107.794 114.759 107.363C118.715 107.835 122.837 104.663 120.965 103.157C119.741 102.175 119.201 104.215 117.316 103.872L118.054 103.226C117.795 102.965 117.494 102.627 117.187 102.37C117.994 102.271 118.871 101.751 118.871 101.751L118.392 100.946C123.023 100.94 123.134 97.3464 121.262 97.2027C120.382 97.1377 119.235 98.7905 116.385 98.445C116.745 98 116.894 97.3259 117.069 96.8297C116.381 96.7647 115.568 96.7716 114.921 96.4499C116.314 96.2685 116.665 95.7929 117.822 94.9032L116.479 94.4035C118.432 93.4146 118.307 91.6933 118.368 89.9003C117.349 90.4957 116.142 91.4195 114.87 90.9919C114.566 90.8891 114.367 90.7454 114.361 90.4237C116.192 89.6914 117.36 86.8341 112.981 84.4318C110.191 82.9022 103.357 79.5348 107.985 75.9041C108.62 75.4114 109.308 74.9665 109.888 74.4156C110.613 74.9802 109.621 76.3832 109.375 76.8966C109.375 76.8966 110.913 77.0538 111.277 77.0538C113.662 77.0436 116.162 75.6133 114.897 72.8687C115.845 73.0673 115.956 73.9947 116.246 74.7851C116.853 74.3676 117.906 73.4745 118.726 73.6011C118.061 75.7468 115.285 77.6802 113.123 78.118C115.305 79.3227 119.353 80.2193 121.481 77.6254C122.972 80.5581 120.895 81.7832 118.854 83.3196C126.626 86.9128 125.475 90.9508 130.575 94.1264C129.918 94.4411 126.963 93.8081 126.7 93.7704C127.813 95.2248 128.332 95.8407 128.649 96.5491C128.96 97.2129 129.095 97.9591 129.402 99.5776C129.645 100.854 130.086 102.127 131.611 102.972C131.014 104.064 129.685 103.201 129.132 103.054Z" fill="black"/>
    <path fill-rule="evenodd" clip-rule="evenodd" d="M92.1246 111.886L93.2345 110.932L93.0657 110.589C92.9444 110.343 93.0085 110.329 93.1367 110.234L93.7237 109.792C93.8585 109.679 94.0002 109.693 94.1655 109.734L95.9228 110.151H94.0676C93.6392 110.179 93.5146 110.346 93.3593 110.668L93.2312 110.932L92.7556 111.924C92.5936 112.266 92.5092 112.721 92.9343 113.234L93.2716 113.642L92.5902 115.041H93.1636L93.6359 114.069C93.673 114.035 94.3713 113.388 94.5196 112.721C94.3172 112.554 94.1756 112.437 94.287 112.204L94.4994 111.739C94.5704 111.585 94.5938 111.524 94.7962 111.561L96.638 111.965C96.8675 112.03 97.2047 112.133 97.4509 111.756C97.704 111.366 97.7377 111.407 98.3245 111.465L99.2656 111.568C100.551 111.691 101.836 111.366 102.335 110.962C102.511 111.366 102.858 111.678 103.02 111.992C103.081 112.109 102.98 112.273 102.902 112.478L101.846 115.038H103.475L104.396 112.704C104.481 112.482 104.605 112.304 104.7 112.215L104.17 115.041H105.752L106.171 112.246C106.262 111.623 106.208 111.424 105.914 111.168C105.256 110.603 105.27 109.419 105.058 108.7C105.169 108.635 105.3 108.601 105.456 108.622C105.8 108.652 106.059 109.546 106.464 110.121C107.274 111.274 108.377 112.547 109.642 110.753C109.52 110.548 109.389 110.363 109.233 110.185L108.879 109.765C108.674 109.532 107.695 108.396 107.287 107.989C106.359 107.041 104.936 107.184 104.369 107.646C103.084 106.962 101.728 107.681 101.408 107.653L99.1949 107.516C99.0937 107.509 98.942 107.475 98.834 107.301L99.2455 107.164C98.8611 105.538 97.8929 104.18 96.203 103.944C96.203 103.944 96.1051 103.43 95.8453 103.331L95.3394 103.933C95.1976 103.954 95.0425 103.998 94.9143 104.053L92.7556 103.239L94.3747 104.899C94.3747 104.899 93.5347 106.106 93.2952 106.353C93.1367 106.579 93.1502 106.753 93.329 106.969L93.6427 107.386C93.8047 107.602 93.9834 107.595 94.243 107.462L94.5973 107.273C94.7525 107.143 95.2718 107.4 95.4945 107.195C95.3528 107.667 95.282 108.122 95.2484 108.481L93.7945 108.303C93.4773 108.259 93.3324 108.303 93.14 108.457L91.8988 109.426C91.4939 109.741 91.3691 110.285 91.6189 110.815L92.1246 111.886ZM104.133 112.163L103.148 114.627H102.534L103.519 112.242C103.621 111.934 103.428 111.79 103.182 111.455C103.546 111.664 103.809 111.801 104.251 111.972C104.214 112.04 104.167 112.078 104.133 112.163ZM94.6344 106.828L94.3544 106.979C94.1588 107.092 94.0609 107.143 93.8922 106.931L93.7709 106.774C93.7102 106.699 93.6899 106.517 93.8147 106.373L95.0222 104.946L93.9092 104.019L95.3259 104.549L95.8453 103.892C95.9971 104.023 95.9431 104.402 95.9431 104.402C96.5165 104.402 98.1864 105.244 98.2504 107.352C98.2504 107.352 98.6282 107.917 99.1105 107.948L101.57 108.098C101.978 108.098 102.996 107.311 104.305 108.054C104.636 107.852 104.99 107.691 105.354 107.65C106.508 107.564 107.358 108.379 107.989 109.2C108.451 109.795 109.085 110.706 109.085 110.706C108.812 111.034 108.545 111.144 108.319 111.061C107.979 110.884 107.867 110.606 107.759 110.22C107.587 109.607 106.923 109.084 106.923 109.084C107.149 109.494 107.196 109.96 107.304 110.387C106.343 109.422 106.16 108.245 105.489 108.081C105.192 108.006 104.845 108.136 104.524 108.512C104.862 109.309 104.845 110.234 105.192 110.853C105.456 111.315 105.513 111.356 105.631 111.458C105.914 111.664 105.756 112.037 105.712 112.307L105.348 114.624H104.734L105.138 112.358C105.263 111.667 103.351 111.667 102.372 110.35C101.539 111.339 99.2016 111.092 98.1897 110.938C97.7815 110.877 97.3834 110.904 97.1608 111.311C97.0293 111.541 96.8101 111.472 96.6752 111.438L94.83 111.034C94.5061 110.959 94.3645 111.024 94.2228 111.325L93.8551 112.099C93.7742 112.28 93.7776 112.413 93.9259 112.56L94.1014 112.749C93.9969 113.118 93.6629 113.402 93.6629 113.402L93.2614 112.944C93.0657 112.711 93.0558 112.376 93.2109 112.047L93.808 110.781C93.8787 110.641 94.007 110.49 94.2565 110.49L96.5368 110.456L95.8385 109.303C95.3191 108.437 96.1827 106.894 96.051 106.165C95.9803 107.14 94.8165 106.695 94.6344 106.828ZM92.1584 109.737L93.2379 108.902C93.4302 108.755 93.5583 108.659 93.7776 108.687L95.3023 108.892C95.3865 109.262 95.6295 109.624 95.6295 109.624L94.007 109.279C93.7776 109.251 93.7102 109.262 93.4943 109.419L92.7251 110.008C92.5735 110.127 92.5667 110.319 92.6544 110.507L92.7791 110.777L92.2428 111.188L92.0369 110.798C91.8278 110.384 91.8145 110.004 92.1584 109.737Z" fill="black"/>
    <path fill-rule="evenodd" clip-rule="evenodd" d="M96.8603 80.031C97.4506 80.4451 98.4964 80.8864 98.4964 80.8864V80.1814L96.1924 79.2883C96.1924 79.2883 96.1924 79.5759 96.8603 80.031Z" fill="black"/>
    <path fill-rule="evenodd" clip-rule="evenodd" d="M98.494 79.1816V78.4768L95.8799 77.5288C95.8799 77.5288 96.1903 77.8642 96.8582 78.3261C97.4484 78.7369 98.494 79.1816 98.494 79.1816Z" fill="black"/>
    <path fill-rule="evenodd" clip-rule="evenodd" d="M98.4948 77.5804V76.8721L95.6309 75.8044C95.6309 75.8044 96.1908 76.263 96.8588 76.7249C97.4491 77.139 98.4948 77.5804 98.4948 77.5804Z" fill="black"/>
    <path fill-rule="evenodd" clip-rule="evenodd" d="M106.538 87.2066H109.466C109.345 86.7753 108.889 86.3408 108.036 86.3408C107.226 86.3408 106.741 86.8131 106.538 87.2066Z" fill="black"/>
    <path fill-rule="evenodd" clip-rule="evenodd" d="M103.476 75.8044L100.619 76.8721V77.5804C100.619 77.5804 101.665 77.139 102.255 76.7249C102.92 76.263 103.476 75.8044 103.476 75.8044Z" fill="black"/>
    <path fill-rule="evenodd" clip-rule="evenodd" d="M102.92 79.2883L100.619 80.1849V80.8898C100.619 80.8898 101.665 80.4451 102.255 80.0343C102.92 79.5759 102.92 79.2883 102.92 79.2883Z" fill="black"/>
    <path fill-rule="evenodd" clip-rule="evenodd" d="M103.229 77.5288L100.615 78.4768V79.1816C100.615 79.1816 101.664 78.7402 102.251 78.3296C102.919 77.8642 103.229 77.5288 103.229 77.5288Z" fill="black"/>
    <path fill-rule="evenodd" clip-rule="evenodd" d="M91.0698 86.3406C90.2164 86.3406 89.7611 86.7751 89.6396 87.2064H92.571C92.3618 86.8128 91.8828 86.3406 91.0698 86.3406Z" fill="black"/>
    <path fill-rule="evenodd" clip-rule="evenodd" d="M105.371 73.9019C105.371 72.232 102.605 70.7366 99.5522 70.7366C96.4995 70.7366 93.7336 72.232 93.7336 73.9019L93.7976 74.3126L95.0118 81.4064L89.2438 84.8181C88.6299 85.1844 87.8608 86.1903 87.763 87.2033H88.8154C88.9908 86.1903 89.7767 85.0679 91.2509 85.1364C92.5833 85.2082 93.3725 86.0295 94.1551 87.2033L94.3576 87.5113L94.6477 87.9732H86.1641C86.7881 89.2428 87.3784 90.5911 87.3784 92.0523V109.946C87.3784 114.549 90.863 116.742 94.6375 116.742C97.552 116.742 97.9465 116.609 99.5557 118.241C101.158 116.609 101.553 116.742 104.474 116.742C108.245 116.742 111.733 114.549 111.733 109.946V92.0558C111.733 90.5946 112.323 89.2462 112.947 87.9766H104.457L104.75 87.5147L104.953 87.2067C105.732 86.033 106.525 85.2117 107.857 85.1398C109.324 85.0714 110.117 86.1938 110.289 87.2067H111.338C111.244 86.1938 110.471 85.1844 109.861 84.8216L104.093 81.4098L105.31 74.316L105.371 73.9019ZM94.9141 74.7163L99.2183 76.2015V83.0352L96.0474 81.3449L94.9141 74.7163ZM95.9733 89.2155C96.5399 90.0025 97.4576 90.5842 98.5436 90.81C98.6347 91.2241 98.8574 91.6792 99.289 92.0455C99.1103 93.2671 99.6264 94.4067 100.922 94.7078C101.057 95.3305 101.438 95.7994 102.075 96.0218L101.175 97.0758C100.831 97.4796 100.382 97.6096 100.011 97.5618L95.9902 97.0997C96.1656 96.648 95.7 96.1244 94.4283 96.3469L96.0104 91.8642L95.0456 89.7869L93.2174 91.368L93.0824 96.0698L92.3067 95.6831C91.2846 95.2382 90.9877 97.1099 91.9591 97.1168L92.3437 97.1203C92.3201 97.3119 92.3775 97.524 92.5258 97.589C92.3437 97.6679 92.2898 98.0168 92.5191 98.1401C92.2865 98.2496 92.256 98.6054 92.4416 98.7594C92.2392 99.1051 92.2088 99.8544 92.9137 100.043C93.4906 100.197 93.8515 99.567 93.9695 99.2009L100.223 101.165C101.111 101.422 101.738 101.278 102.473 100.624L104.106 99.177C103.9 100.125 104.238 100.977 104.949 101.261C104.949 101.261 104.848 102.113 104.878 102.493H88.5961V92.0558C88.5961 91.0839 88.3195 90.112 87.989 89.2155H95.9733ZM102.699 93.1747C102.355 93.8421 102.389 94.6085 102.794 95.3032L102.524 95.5701C101.35 95.4229 100.888 93.6469 100.888 93.6469C100.864 93.8079 100.851 93.9618 100.854 94.1192C100.169 93.8625 99.7378 93.2467 99.7715 92.4013C100.031 92.5485 100.321 92.6513 100.632 92.7059L100.713 92.1857C99.893 92.042 99.4139 91.5219 99.2318 90.9059C99.1913 90.9024 99.1576 90.8922 99.1204 90.8889C99.2656 90.8991 99.4105 90.9128 99.559 90.9128C100.045 90.9128 100.507 90.8374 100.939 90.7074C101.279 91.2002 101.883 91.5527 102.49 91.6212C102.392 92.0318 102.44 92.5417 102.699 93.1747ZM104.437 97.8696C104.319 98.0305 104.224 98.2154 104.163 98.4172L103.509 99.0264C103.641 98.0546 102.996 96.9081 102.409 96.4393L103.104 95.7481L103.242 95.8918C103.01 96.5111 103.465 97.726 104.437 97.8696ZM101.276 97.5653L101.816 97.0279C102.362 97.5138 103.084 98.5986 102.858 99.6322L102.271 100.18C102.15 100.299 102.025 100.385 101.897 100.464C102.264 99.543 101.795 98.1264 101.276 97.5653ZM100.116 98.0203H100.132C100.328 98.0511 100.537 98.0168 100.726 97.9381C101.138 98.5336 101.458 99.8887 100.966 100.734C100.686 100.741 100.412 100.69 100.156 100.614L99.9536 100.552C100.369 99.899 100.311 98.7424 100.116 98.0203ZM98.7562 97.8492L99.5152 97.945C99.6366 98.5849 99.5557 99.6902 99.1542 100.32L98.2704 100.06C98.6583 99.526 98.8405 98.4276 98.7562 97.8492ZM97.1742 97.6542L98.095 97.7637C98.186 98.2769 98.0141 99.3685 97.6666 99.8887L96.7288 99.615C97.1032 99.1119 97.2382 98.2256 97.1742 97.6542ZM93.4468 97.4042C93.0184 97.5446 92.8295 97.2297 92.8464 96.9629C93.6863 96.6515 94.0607 96.8534 94.3069 97.0108C94.5329 97.1545 94.7219 97.5653 95.0254 97.8218C94.9749 98.1708 94.8704 98.6773 94.7454 99.0162C93.8853 98.7936 93.8414 98.0237 94.1619 97.5549C93.9831 97.3427 93.7943 97.2879 93.4468 97.4042ZM92.8464 99.1051C92.8464 99.1051 93.1026 99.2146 93.4265 99.2386C93.3894 99.4199 93.2511 99.591 93.0319 99.543C92.8497 99.502 92.7688 99.2761 92.8464 99.1051ZM91.9997 96.6069C91.7872 96.4633 91.8816 96.1485 92.1178 96.1485C92.3775 96.1553 92.7215 96.453 93.0622 96.6001C93.0622 96.6001 92.1683 96.7234 91.9997 96.6069ZM92.8735 98.4207C93.0589 98.6021 93.6154 98.5336 93.6154 98.5336L93.6357 98.6465C93.3928 98.9749 92.7182 98.8279 92.8735 98.4207ZM93.6222 98.0477C93.2241 98.2085 92.816 97.9894 92.9408 97.7294C93.1263 97.9005 93.6425 97.815 93.6425 97.815L93.6222 98.0477ZM94.2092 93.3493L93.4468 96.1655L93.7066 91.6212L94.8871 90.5981L95.4876 91.936L93.9695 96.3504L94.3711 93.3801C94.4082 93.1678 94.2428 93.1439 94.2092 93.3493ZM94.2631 96.7645C94.2631 96.7645 95.1131 96.7234 95.3527 96.8156C95.5281 96.891 95.4099 97.1921 95.1805 97.158C94.9411 97.1271 94.2631 96.7645 94.2631 96.7645ZM95.5955 97.4488L96.5197 97.5653C96.5907 98.0784 96.459 98.9477 96.1283 99.4336L95.2345 99.1701C95.4706 98.5986 95.5281 98.0614 95.5955 97.4488ZM110.515 109.95C110.515 112.126 109.523 113.779 107.874 114.696L108.464 113.477H107.891L107.132 115.038C106.346 115.339 105.455 115.507 104.47 115.507C101.461 115.507 100.665 115.63 99.5522 116.756C98.4356 115.63 97.6397 115.507 94.6342 115.507C93.6558 115.507 92.7655 115.346 91.9828 115.045H92.0031L92.762 113.477H92.192L91.5275 114.85C91.3688 114.774 91.2137 114.692 91.0653 114.603L91.6118 113.477H91.0451L90.6403 114.316C89.3516 113.354 88.5927 111.849 88.5927 109.95V103.105H110.508V109.95H110.515ZM111.126 89.2155C110.785 90.112 110.512 91.0839 110.512 92.0558V102.493H109.314C108.771 101.959 108.312 100.18 108.312 100.18C108.016 100.82 108.356 102.116 108.673 102.493H107.132C106.751 101.969 106.42 100.115 106.42 100.115C105.958 100.648 106.251 102.089 106.538 102.493H105.513C105.449 101.75 105.658 100.943 105.658 100.943C105.121 100.843 104.551 100.556 104.555 99.9537C104.824 100.21 104.936 100.207 105.31 100.2L105.745 99.851C104.302 99.899 104.234 98.2906 105.381 97.5377C104.238 97.5753 103.384 96.8843 103.799 95.6522C102.986 95.2244 102.699 93.8284 103.3 93.2158C102.865 92.7367 102.794 91.7956 103.07 91.1558C102.494 91.1558 101.846 90.923 101.485 90.5226C101.458 90.5363 101.424 90.5466 101.394 90.5568C102.116 90.2592 102.726 89.7938 103.138 89.2189H111.126V89.2155ZM106.761 84.1919C105.573 84.4008 104.551 85.8755 103.715 87.2067L103.62 87.3606H102.726L102.723 87.5182C102.632 88.5446 101.671 89.9375 99.5522 89.9375C98.5741 89.9375 97.8354 89.6329 97.3293 89.2189C96.8908 88.8561 96.6141 88.4079 96.4793 87.9801C96.4286 87.8262 96.3983 87.6686 96.3848 87.5182L96.378 87.3606H95.4909L95.3964 87.2067C94.5565 85.879 93.5345 84.404 92.3504 84.1919L95.5853 82.2858L99.559 84.476L103.526 82.2858L106.761 84.1919ZM103.057 81.3449L99.8895 83.0352V76.2015L104.194 74.7163L103.057 81.3449ZM99.5557 75.4555L94.8501 73.57C95.248 72.6118 97.0931 71.7939 99.5557 71.7939C102.015 71.7939 103.856 72.6118 104.254 73.57L99.5557 75.4555Z" fill="black"/>
    <path fill-rule="evenodd" clip-rule="evenodd" d="M110.013 95.9598L110.023 95.4361C108.441 95.3985 108.077 93.5061 108.077 93.5061C107.614 94.8988 108.822 95.9391 110.013 95.9598Z" fill="black"/>
    <path fill-rule="evenodd" clip-rule="evenodd" d="M108.016 99.1659L107.858 98.6699C106.508 99.0189 105.81 96.8494 105.81 96.8494C105.378 98.4269 106.883 99.5426 108.016 99.1659Z" fill="black"/>
    <path fill-rule="evenodd" clip-rule="evenodd" d="M108.953 97.1539C107.341 97.414 106.679 95.5115 106.679 95.5115C106.501 96.5483 107.162 97.5988 108.231 97.7082C107.988 99.0602 109.226 99.7546 110.299 99.2721L110.144 98.8C109.213 99.1182 108.339 98.1839 108.953 97.1539Z" fill="black"/>
    <path fill-rule="evenodd" clip-rule="evenodd" d="M107.988 91.7236L108.002 91.2C105.873 90.7552 106.052 89.27 106.052 89.27C105.593 90.6696 106.801 91.7032 107.988 91.7236Z" fill="black"/>
    <path fill-rule="evenodd" clip-rule="evenodd" d="M94.5015 113.478L93.7393 115.045H94.3126L95.0717 113.478H94.5015Z" fill="black"/>
    <path fill-rule="evenodd" clip-rule="evenodd" d="M95.6525 113.477L94.8936 115.044H95.4703L96.2225 113.477H95.6525Z" fill="black"/>
    <path fill-rule="evenodd" clip-rule="evenodd" d="M100.26 113.478L99.501 115.045H100.071L100.833 113.478H100.26Z" fill="black"/>
    <path fill-rule="evenodd" clip-rule="evenodd" d="M101.413 113.477L100.647 115.044H101.224L101.98 113.477H101.413Z" fill="black"/>
    <path fill-rule="evenodd" clip-rule="evenodd" d="M99.1098 113.478L98.3477 115.045H98.9209L99.6798 113.478H99.1098Z" fill="black"/>
    <path fill-rule="evenodd" clip-rule="evenodd" d="M105.84 115.044H106.413L107.172 113.477H106.599L105.84 115.044Z" fill="black"/>
    <path fill-rule="evenodd" clip-rule="evenodd" d="M96.8058 113.478L96.0469 115.045H96.6202L97.3792 113.478H96.8058Z" fill="black"/>
    <path fill-rule="evenodd" clip-rule="evenodd" d="M97.9543 113.477L97.1953 115.044H97.7721L98.531 113.477H97.9543Z" fill="black"/>
    <path fill-rule="evenodd" clip-rule="evenodd" d="M95.349 105.052C95.2445 105.052 95.1533 105.155 95.1533 105.289C95.1533 105.419 95.2445 105.525 95.349 105.525C95.4569 105.525 95.5514 105.419 95.5514 105.289C95.5481 105.155 95.4569 105.052 95.349 105.052Z" fill="black"/>
    <path fill-rule="evenodd" clip-rule="evenodd" d="M99.5561 69.6794C101.917 69.6794 103.81 70.4732 104.852 71.3254C104.852 71.3254 105.166 69.4227 106.221 67.7529L104.319 67.9684L103.324 65.8193L101.411 66.8288L99.5561 64.9604L97.7008 66.8288L95.7814 65.8193L94.7864 67.9684L92.8838 67.7529C93.943 69.4227 94.2533 71.3254 94.2533 71.3254C95.299 70.4732 97.1947 69.6794 99.5561 69.6794ZM95.1135 68.8239L96.021 66.8733L97.7008 67.7802L99.5561 65.9221L101.411 67.7802L103.091 66.8733L103.988 68.8239L105.105 68.6494C104.818 69.1935 104.602 69.6691 104.403 70.3364C103.182 69.6144 101.367 69.0567 99.5561 69.0567C97.7379 69.0567 95.9266 69.6144 94.7053 70.3364C94.503 69.6691 94.2905 69.1935 94.0004 68.6494L95.1135 68.8239Z" fill="black"/>
    <path fill-rule="evenodd" clip-rule="evenodd" d="M101.499 65.8355C101.775 65.8595 102.022 65.6473 102.045 65.37C102.072 65.0894 101.667 64.3435 101.667 64.3435C101.667 64.3435 101.064 65.004 101.043 65.2846C101.016 65.5584 101.225 65.8081 101.499 65.8355Z" fill="black"/>
    <path fill-rule="evenodd" clip-rule="evenodd" d="M104.614 66.9821C104.86 67.1154 105.16 67.0163 105.292 66.7664C105.427 66.52 105.339 65.6748 105.339 65.6748C105.339 65.6748 104.536 66.041 104.405 66.2907C104.277 66.5372 104.371 66.8451 104.614 66.9821Z" fill="black"/>
    <path fill-rule="evenodd" clip-rule="evenodd" d="M97.61 65.8355C97.89 65.8081 98.0957 65.5617 98.0721 65.2846C98.0452 65.004 97.4482 64.3435 97.4482 64.3435C97.4482 64.3435 97.0466 65.0929 97.0703 65.37C97.0906 65.6473 97.3368 65.8595 97.61 65.8355Z" fill="black"/>
    <path fill-rule="evenodd" clip-rule="evenodd" d="M94.4972 66.9821C94.7435 66.8451 94.8347 66.5372 94.7064 66.2907C94.5782 66.041 93.7721 65.6748 93.7721 65.6748C93.7721 65.6748 93.6878 66.52 93.8227 66.7664C93.9475 67.0163 94.2511 67.1154 94.4972 66.9821Z" fill="black"/>
    <path fill-rule="evenodd" clip-rule="evenodd" d="M131.887 84.3667C132.552 84.1271 133.064 83.4838 133.321 82.8884C131.631 82.6421 127.141 80.7291 123.451 82.2861C124.834 80.955 126.075 80.7839 126.193 78.8676C126.767 79.2851 127.735 79.5212 128.281 78.5255C127.9 77.3858 126.939 78.3098 126.804 77.9949C126.615 77.5569 128.015 78.1284 128.315 76.6468C127.225 76.2668 126.902 77.1702 126.706 76.9615C126.527 76.763 127.397 76.3831 126.757 75.189C125.623 75.863 126.213 76.6194 125.974 76.7048C125.684 76.8213 125.913 75.8938 124.658 75.9384C124.534 77.3037 125.836 77.3482 125.623 77.5638C125.363 77.8273 125.026 76.7802 124.078 77.3106C124.095 78.4125 124.975 79.018 125.883 78.758C125.734 80.8524 123.839 80.4622 122.429 82.8234C125.417 84.377 126.77 87.0872 128.608 88.9625C129.216 88.5245 130.254 86.5808 130.254 86.5808C132.245 88.1447 133.644 86.5875 133.644 86.5875C132.96 85.8759 132.933 85.3351 131.887 84.3667ZM128.986 84.7465C129.192 85.2086 129.6 86.8203 128.625 88.0489C127.516 85.8005 125.991 83.874 124.756 83.0425C124.486 82.8645 124.905 82.5531 125.667 82.4505C127.964 82.009 130.659 82.9945 131.941 83.3402C131.344 83.7918 130.858 83.9972 130.248 84.0724C131.179 84.8664 131.86 85.537 132.339 86.2831C131.439 86.5123 130.929 85.934 128.986 84.7465Z" fill="black"/>
    <path fill-rule="evenodd" clip-rule="evenodd" d="M109.797 119.699V117.139C107.847 118.046 105.367 118.782 102.176 119.073L102.031 119.986C102.301 120.024 102.645 120.058 103.104 120.089C101.923 120.253 100.395 120.332 99.5588 120.332C98.7189 120.332 97.1943 120.253 96.0102 120.089C96.4656 120.058 96.8097 120.024 97.0796 119.986L96.9346 119.073C93.7435 118.782 91.2608 118.046 89.3145 117.139V119.699L86.6699 120.801C88.6299 121.834 90.8831 122.676 93.4871 123.357L93.1768 124.428C94.6678 124.873 97.0525 125.325 99.5521 125.325C102.052 125.325 104.433 124.87 105.927 124.428L105.621 123.357C108.221 122.676 110.481 121.834 112.441 120.801L109.797 119.699ZM88.0833 120.859L89.8678 120.13V118.046C91.0147 118.494 92.519 118.96 94.6778 119.415L93.666 122.758C91.4632 122.245 89.5912 121.554 88.0833 120.859ZM99.5555 124.712C97.5416 124.712 95.5752 124.407 93.8953 123.987L94.9646 120.479C95.673 120.647 97.4472 120.866 99.5555 120.866C101.667 120.866 103.431 120.643 104.143 120.479L105.216 123.987C103.529 124.407 101.566 124.712 99.5555 124.712ZM105.448 122.758L104.436 119.415C106.595 118.963 108.1 118.494 109.247 118.046V120.13L111.028 120.859C109.52 121.554 107.654 122.245 105.448 122.758Z" fill="black"/>
    <path fill-rule="evenodd" clip-rule="evenodd" d="M68.8558 86.5808C68.8558 86.5808 69.8947 88.5245 70.4986 88.9625C72.3404 87.0907 73.6963 84.3804 76.6816 82.8234C75.2682 80.4622 73.3725 80.8593 73.2308 78.758C74.1382 79.018 75.0153 78.409 75.0354 77.3106C74.0842 76.7802 73.747 77.8342 73.4907 77.5638C73.2781 77.3415 74.5767 77.3037 74.4553 75.9384C73.2006 75.8973 73.4299 76.8213 73.1363 76.7048C72.9002 76.6194 73.4907 75.8597 72.3539 75.189C71.7163 76.3866 72.59 76.763 72.4078 76.9615C72.2155 77.1702 71.8848 76.2702 70.7988 76.6468C71.0922 78.1284 72.4988 77.5569 72.3099 77.9949C72.1749 78.3098 71.217 77.3858 70.8392 78.5255C71.379 79.5245 72.3505 79.2885 72.9205 78.871C73.0419 80.7906 74.2798 80.9515 75.6663 82.2861C71.9727 80.7291 67.483 82.6421 65.7861 82.8919C66.0461 83.4838 66.5587 84.1272 67.2232 84.3598C66.1775 85.3386 66.1506 85.8792 65.4658 86.5875C65.4658 86.5875 66.8622 88.1447 68.8558 86.5808ZM66.7645 86.2865C67.2468 85.5405 67.9248 84.8664 68.8626 84.0759C68.2487 83.9972 67.7664 83.7918 67.1659 83.3402C68.451 82.9945 71.1496 82.0055 73.4501 82.4505C74.2056 82.5531 74.6307 82.8645 74.3541 83.0425C73.1196 83.874 71.5915 85.8005 70.4817 88.0489C69.5102 86.8203 69.9217 85.212 70.1208 84.75C68.1811 85.934 67.6753 86.5123 66.7645 86.2865Z" fill="black"/>
    <path fill-rule="evenodd" clip-rule="evenodd" d="M97.9395 85.1528V86.2788C98.3206 85.8099 99.0628 85.9023 99.0628 85.9023V87.5278C99.0628 87.5278 99.0358 88.3285 98.7592 88.6707H99.5587H100.358C100.078 88.3285 100.054 87.5278 100.054 87.5278V85.9057C100.054 85.9057 100.793 85.8133 101.174 86.282V85.1563H99.5587H97.9395V85.1528Z" fill="black"/>
    <path d="M162.712 89.2824V75.9207H170.494V71.0584H149.264V75.9207H157.045V89.2824H162.712ZM178.239 81.6637V71.0584H172.762V89.2824H177.597L187.041 78.6773V89.2824H192.519V71.0584H187.683L178.239 81.6637ZM210.947 82.5059V89.2824H216.424V71.0584H210.947V77.72H202.144V71.0584H196.667V89.2824H202.144V82.5059H210.947ZM231.679 89.2824C232.925 89.2824 234.058 89.1675 235.116 88.8612C237.949 88.0571 239.8 85.7217 239.8 82.5441C239.8 79.5196 238.214 77.4139 235.683 76.4566C234.474 75.9973 233.039 75.9589 231.679 75.9589H226.05V71.0584H220.572V89.2824H231.679ZM230.734 80.2471C231.49 80.2471 232.207 80.2471 232.85 80.4766C233.756 80.783 234.285 81.5486 234.285 82.4675C234.285 83.4248 233.756 84.2286 232.887 84.6116C232.283 84.8795 231.679 84.8795 230.734 84.8795H226.05V80.2471H230.734ZM249.622 82.3908L256.157 89.2824H263.448L254.344 79.7875L263.108 71.0584H256.233L249.622 77.9117H248.111V71.0584H242.633V89.2824H248.111V82.3908H249.622ZM274.719 70.5607C267.353 70.5607 262.933 74.7721 262.933 80.2087C262.933 85.6451 267.353 89.8567 274.719 89.8567C282.047 89.8567 286.467 85.6451 286.467 80.2087C286.467 74.7721 282.047 70.5607 274.719 70.5607ZM274.719 85.4156C271.055 85.4156 268.712 83.1948 268.712 80.2087C268.712 77.2224 271.055 75.04 274.719 75.04C278.345 75.04 280.725 77.2224 280.725 80.2087C280.725 83.1948 278.345 85.4156 274.719 85.4156ZM304.709 70.0247H299.232V71.8624C292.357 72.0157 288.239 74.9636 288.239 80.1705C288.239 85.3772 292.357 88.0956 299.232 88.2486V90.0864H304.709V88.2486C311.622 88.0956 315.74 85.3772 315.74 80.1705C315.74 74.9636 311.622 72.0157 304.709 71.8624V70.0247ZM299.232 84.3436C295.454 84.1904 293.792 82.6205 293.792 80.1705C293.792 77.72 295.454 75.9589 299.232 75.8058V84.3436ZM304.709 75.8058C308.525 75.9589 310.149 77.72 310.149 80.1705C310.149 82.6205 308.525 84.1904 304.709 84.3436V75.8058ZM333.964 70.0247H328.486V71.8624C321.611 72.0157 317.494 74.9636 317.494 80.1705C317.494 85.3772 321.611 88.0956 328.486 88.2486V90.0864H333.964V88.2486C340.876 88.0956 344.995 85.3772 344.995 80.1705C344.995 74.9636 340.876 72.0157 333.964 71.8624V70.0247ZM328.486 84.3436C324.709 84.1904 323.046 82.6205 323.046 80.1705C323.046 77.72 324.709 75.9589 328.486 75.8058V84.3436ZM333.964 75.8058C337.78 75.9589 339.404 77.72 339.404 80.1705C339.404 82.6205 337.78 84.1904 333.964 84.3436V75.8058Z" fill="black"/>
    <path d="M161.248 106.925C161.248 107.246 161.213 107.564 161.142 107.877C161.072 108.191 160.955 108.524 160.79 108.876C160.626 109.221 160.372 109.535 160.028 109.817C159.692 110.091 159.282 110.299 158.797 110.44V110.651C159.743 110.855 160.462 111.306 160.955 112.003C161.455 112.701 161.705 113.496 161.705 114.389C161.705 115.322 161.494 116.113 161.072 116.764C160.658 117.414 160.083 117.881 159.348 118.163C158.887 118.327 158.437 118.437 158 118.492C157.57 118.547 156.956 118.574 156.158 118.574H151.351V102.975H156.323C156.643 102.975 156.929 102.983 157.179 102.999C157.437 103.007 157.745 103.042 158.105 103.105C158.465 103.167 158.777 103.25 159.043 103.351C159.317 103.453 159.598 103.602 159.888 103.798C160.177 103.994 160.415 104.229 160.603 104.503C160.79 104.77 160.943 105.111 161.06 105.526C161.185 105.941 161.248 106.408 161.248 106.925ZM156.44 116.693C158.473 116.693 159.489 115.835 159.489 114.119C159.489 113.014 159.098 112.277 158.316 111.909C157.925 111.729 157.292 111.639 156.416 111.639H153.461V116.693H156.44ZM156.135 104.856H153.461V109.84H156.323C157.23 109.84 157.91 109.601 158.363 109.123C158.817 108.637 159.043 107.999 159.043 107.207C159.043 106.776 158.965 106.404 158.809 106.09C158.66 105.777 158.484 105.546 158.281 105.397C158.078 105.24 157.824 105.119 157.519 105.032C157.214 104.946 156.968 104.895 156.78 104.88C156.592 104.864 156.377 104.856 156.135 104.856Z" fill="black"/>
    <path d="M166.63 101.964V118.574H164.637V101.964H166.63Z" fill="black"/>
    <path d="M169.75 110.099C169.601 108.962 169.914 108.046 170.688 107.348C171.47 106.651 172.584 106.302 174.03 106.302C175.476 106.302 176.508 106.666 177.126 107.395C177.751 108.124 178.064 109.201 178.064 110.628V118.574H176.023V118.386C176.023 118.292 176.043 118.131 176.082 117.904C176.121 117.669 176.176 117.371 176.246 117.011C176.317 116.65 176.367 116.376 176.399 116.188H176.188C175.617 117.935 174.448 118.809 172.681 118.809C172.087 118.809 171.556 118.715 171.086 118.527C170.625 118.331 170.258 118.069 169.984 117.739C169.711 117.41 169.503 117.05 169.363 116.658C169.222 116.258 169.152 115.839 169.152 115.4C169.152 114.969 169.198 114.573 169.292 114.213C169.394 113.845 169.523 113.527 169.679 113.261C169.836 112.987 170.039 112.74 170.289 112.52C170.547 112.293 170.801 112.105 171.051 111.956C171.301 111.807 171.606 111.674 171.966 111.556C172.326 111.439 172.654 111.349 172.951 111.286C173.248 111.215 173.6 111.157 174.006 111.11C174.413 111.063 174.757 111.027 175.038 111.004C175.328 110.98 175.672 110.961 176.07 110.945V110.487C176.07 108.755 175.316 107.889 173.807 107.889C173.033 107.889 172.458 108.089 172.083 108.488C171.708 108.888 171.579 109.425 171.696 110.099H169.75ZM173.42 117.269C174.045 117.269 174.561 117.081 174.968 116.705C175.382 116.329 175.668 115.867 175.824 115.318C175.988 114.762 176.07 114.131 176.07 113.425V112.215C174.272 112.277 172.998 112.559 172.247 113.061C171.497 113.555 171.122 114.229 171.122 115.083C171.122 115.733 171.333 116.262 171.755 116.67C172.185 117.069 172.74 117.269 173.42 117.269Z" fill="black"/>
    <path d="M189.732 113.954C189.818 115.443 189.485 116.627 188.735 117.504C187.984 118.374 186.867 118.809 185.381 118.809C184.498 118.809 183.728 118.66 183.071 118.362C182.422 118.057 181.898 117.622 181.5 117.058C181.109 116.493 180.816 115.839 180.62 115.095C180.433 114.342 180.339 113.496 180.339 112.556C180.339 111.709 180.433 110.922 180.62 110.193C180.816 109.456 181.109 108.794 181.5 108.206C181.891 107.618 182.418 107.156 183.083 106.819C183.747 106.474 184.513 106.302 185.381 106.302C186.773 106.302 187.875 106.729 188.688 107.583C189.509 108.43 189.849 109.582 189.708 111.039H187.691C187.816 110.052 187.652 109.292 187.199 108.759C186.753 108.226 186.147 107.959 185.381 107.959C184.451 107.959 183.724 108.363 183.2 109.17C182.684 109.977 182.426 111.106 182.426 112.556C182.426 114.068 182.692 115.22 183.223 116.011C183.755 116.803 184.49 117.199 185.428 117.199C187.085 117.199 187.855 116.117 187.738 113.954H189.732Z" fill="black"/>
    <path d="M194.329 118.574H192.288V101.964H194.329V111.709H195.513C196.021 111.709 196.412 111.607 196.686 111.404C196.967 111.192 197.205 110.831 197.401 110.322C197.432 110.236 197.526 109.981 197.682 109.558C197.847 109.135 197.968 108.829 198.046 108.641C198.124 108.445 198.23 108.187 198.363 107.865C198.503 107.544 198.628 107.278 198.738 107.066C198.855 106.854 198.964 106.678 199.066 106.537H201.318C200.989 106.866 200.708 107.262 200.473 107.724C200.247 108.179 200.016 108.716 199.781 109.335C199.555 109.954 199.363 110.424 199.207 110.745C198.964 111.223 198.687 111.584 198.374 111.827C198.069 112.062 197.659 112.234 197.143 112.344V112.556C197.745 112.657 198.202 112.842 198.515 113.108C198.828 113.367 199.09 113.77 199.301 114.319C200.035 116.254 200.759 117.673 201.47 118.574H199.066C198.62 118.002 198.101 116.807 197.506 114.989C197.303 114.393 197.061 113.954 196.779 113.672C196.498 113.39 196.076 113.249 195.513 113.249H194.329V118.574Z" fill="black"/>
</svg>
