<svg width="164" height="104" viewBox="0 0 164 104" fill="none" xmlns="http://www.w3.org/2000/svg">
    <rect y="-0.000488281" width="164" height="104" rx="15" fill="white"/>
    <path d="M42.8251 49.1765H46.3386V41.0019H51.1637V38.0272H38V41.0019H42.8251V49.1765Z" fill="black"/>
    <path d="M56.0832 49.1765V38.0272H52.5698V49.1765H56.0832Z" fill="black"/>
    <path d="M61.793 38.0272H58.6543V49.1765H61.8866V43.0162L67.9063 49.1765H70.9045V38.0272H67.6721V44.1405L61.793 38.0272Z" fill="black"/>
    <path d="M76.8729 44.9603H77.8099L81.862 49.1765H86.3827L80.7377 43.3676L86.1718 38.0272H81.9089L77.8099 42.2199H76.8729V38.0272H73.4766V49.1765H76.8729V44.9603Z" fill="black"/>
    <path d="M93.3711 37.7227C88.8036 37.7227 86.0632 40.2992 86.0632 43.6252C86.0632 46.9513 88.8036 49.5278 93.3711 49.5278C97.9152 49.5278 100.656 46.9513 100.656 43.6252C100.656 40.2992 97.9152 37.7227 93.3711 37.7227ZM93.3711 46.8108C91.0991 46.8108 89.6469 45.4522 89.6469 43.6252C89.6469 41.7982 91.0991 40.4631 93.3711 40.4631C95.6197 40.4631 97.0954 41.7982 97.0954 43.6252C97.0954 45.4522 95.6197 46.8108 93.3711 46.8108Z" fill="black"/>
    <path d="M113.442 40.8613V38.0272H102.269V49.1765H105.666V45.218H113.161V42.8757H105.666V40.8613H113.442Z" fill="black"/>
    <path d="M126 40.8613V38.0272H114.827V49.1765H118.224V45.218H125.719V42.8757H118.224V40.8613H126Z" fill="black"/>
    <rect x="64.582" y="52.8115" width="34.8365" height="12.6258" rx="6.31288" fill="black"/>
    <path d="M69.5166 55.5698V62.6492H71.6731V60.7455H73.9487C74.4841 60.7455 75.0046 60.7306 75.5103 60.567C76.4919 60.2547 77.2207 59.3772 77.2207 58.1874C77.2207 56.9976 76.5068 56.135 75.5401 55.7929C75.0046 55.5996 74.499 55.5698 73.9487 55.5698H69.5166ZM71.6731 57.2802H73.6363C74.0528 57.2802 74.2907 57.3248 74.4841 57.3992C74.8262 57.533 74.9898 57.8453 74.9898 58.1725C74.9898 58.5295 74.7964 58.8716 74.4246 58.9905C74.2461 59.05 74.0379 59.0798 73.6363 59.0798H71.6731V57.2802Z" fill="white"/>
    <path d="M84.3579 60.344C85.1759 59.9573 85.8006 59.1988 85.8006 58.1577C85.8006 56.953 85.1313 56.135 84.1646 55.7929C83.6292 55.5996 83.1235 55.5698 82.5732 55.5698H78.1114V62.6492H80.2679V60.7455H82.2163L83.5697 62.6492H85.9939L84.3579 60.344ZM82.246 57.2802C82.6476 57.2802 82.8855 57.3248 83.064 57.3992C83.4061 57.533 83.5697 57.8007 83.5697 58.1725C83.5697 58.5741 83.3615 58.8716 83.0045 58.9905C82.8261 59.05 82.6327 59.0798 82.246 59.0798H80.2679V57.2802H82.246Z" fill="white"/>
    <path d="M91.2119 55.3765C88.3118 55.3765 86.5717 57.0125 86.5717 59.1244C86.5717 61.2363 88.3118 62.8723 91.2119 62.8723C94.0972 62.8723 95.8374 61.2363 95.8374 59.1244C95.8374 57.0125 94.0972 55.3765 91.2119 55.3765ZM91.2119 61.1471C89.7693 61.1471 88.8472 60.2845 88.8472 59.1244C88.8472 57.9643 89.7693 57.1166 91.2119 57.1166C92.6397 57.1166 93.5767 57.9643 93.5767 59.1244C93.5767 60.2845 92.6397 61.1471 91.2119 61.1471Z" fill="white"/>
</svg>
