<svg width="297" height="190" viewBox="0 0 297 190" fill="none" xmlns="http://www.w3.org/2000/svg">
    <rect width="297" height="190" rx="30" fill="white"/>
    <path d="M145.016 85.4941C149.256 85.4941 151.181 87.6894 151.181 91.37C151.181 95.0507 149.256 97.2971 145.016 97.2971H137.23V103.674H133.542V85.4941H145.016ZM147.467 91.0261C147.467 89.4748 146.596 88.3662 144.514 88.3662H137.23V94.425H144.5C146.582 94.425 147.452 93.3713 147.452 91.7908L147.467 91.0261Z" fill="black"/>
    <path d="M165.416 85.4941C169.473 85.4941 171.657 87.5247 171.657 91.1322C171.657 94.0043 170.34 95.8483 167.863 96.5324L172.316 103.674H168.207L163.967 96.8508H157.696V103.674H154.008V85.4941H165.416ZM167.944 90.8432C167.944 89.2882 167.102 88.2601 164.914 88.2601H157.696V94.0555H164.914C167.073 94.0555 167.944 93.0311 167.944 91.4944V90.8432Z" fill="black"/>
    <path d="M190.837 85.4941V88.3626H178.928V92.9981H188.097V95.7641H178.928V100.802H190.943V103.674H175.24V85.4941H190.837Z" fill="black"/>
    <path d="M197.475 88.5784V103.674H194.102V85.4941H199.846L205.403 100.381L211.016 85.4941H216.573V103.674H212.915V88.4979L207.17 103.674H203.19L197.475 88.5784Z" fill="black"/>
    <path d="M224.369 85.4941V103.674H220.681V85.4941H224.369Z" fill="black"/>
    <path d="M228.239 85.4941H231.927V96.1922C231.927 100.012 233.877 101.142 237.54 101.142C241.202 101.142 243.152 100.012 243.152 96.1922V85.4941H246.628V96.2946C246.628 101.567 243.599 103.978 237.54 103.978C231.349 103.978 228.239 101.556 228.239 96.2946V85.4941Z" fill="black"/>
    <path d="M253.898 88.5784V103.674H250.528V85.4941H256.269L261.83 100.381L267.439 85.4941H273V103.674H269.341V88.4979L263.597 103.674H259.617L253.898 88.5784Z" fill="black"/>
    <path d="M27.3733 88.5784V103.674H24V85.4941H29.7442L35.3054 100.381L40.9142 85.4941H46.4754V103.674H42.8167V88.4979L37.0835 103.674H33.0919L27.3733 88.5784Z" fill="black"/>
    <path d="M48.9482 88.4979V85.4941H67.4942V88.4979H60.0634V103.674H56.3754V88.4979H48.9482Z" fill="black"/>
    <path d="M78.2697 85.1794C84.0651 85.1794 87.3323 86.9173 87.8591 91.3992H84.1419C83.6699 88.7906 81.7454 88.0552 78.2697 88.0552C74.3951 88.0552 71.8925 89.3467 71.8925 93.6384V95.4677C71.8925 99.6826 74.3439 101.106 78.2697 101.106C81.6137 101.106 83.5638 100.473 84.1675 97.9703H87.8847C87.2262 102.266 84.0102 103.978 78.2697 103.978C71.8413 103.989 68.1826 101.534 68.1826 94.6116C68.1826 87.6893 71.8413 85.1794 78.2697 85.1794Z" fill="black"/>
    <path d="M104.89 89.409V84.2063C104.89 82.8255 105.439 81.5013 106.415 80.5249C107.391 79.5485 108.716 79 110.097 79H120.502C121.883 79 123.207 79.5485 124.183 80.5249C125.16 81.5013 125.708 82.8255 125.708 84.2063V94.6153C125.708 95.2991 125.574 95.9761 125.312 96.6077C125.05 97.2394 124.667 97.8133 124.183 98.2968C123.7 98.7802 123.126 99.1637 122.494 99.4254C121.863 99.687 121.186 99.8217 120.502 99.8217H115.299V105.024C115.299 106.405 114.751 107.729 113.774 108.706C112.798 109.682 111.474 110.231 110.093 110.231C109.409 110.231 108.733 110.096 108.101 109.834C107.47 109.573 106.896 109.189 106.413 108.706C105.93 108.222 105.546 107.648 105.285 107.016C105.024 106.385 104.89 105.708 104.89 105.024V99.8217H99.6839C99.0002 99.8217 98.3232 99.687 97.6915 99.4254C97.0598 99.1637 96.4859 98.7802 96.0024 98.2968C95.519 97.8133 95.1355 97.2394 94.8739 96.6077C94.6122 95.9761 94.4775 95.2991 94.4775 94.6153C94.4775 93.2345 95.0261 91.9103 96.0024 90.9339C96.9788 89.9575 98.3031 89.409 99.6839 89.409H104.89Z" fill="url(#paint0_linear_2188_28915)"/>
    <defs>
        <linearGradient id="paint0_linear_2188_28915" x1="92.8184" y1="74.1871" x2="134.314" y2="87.1289" gradientUnits="userSpaceOnUse">
            <stop offset="0.0520833" stop-color="#98DDFF"/>
            <stop offset="0.543321" stop-color="#9480FF"/>
            <stop offset="1" stop-color="#BBA6FF"/>
            <stop offset="1" stop-color="#B199FF"/>
        </linearGradient>
    </defs>
</svg>
