<svg width="297" height="190" viewBox="0 0 297 190" fill="none" xmlns="http://www.w3.org/2000/svg">
    <rect width="297" height="190" rx="30" fill="white"/>
    <g clip-path="url(#clip0_2188_28880)">
        <path d="M140.692 108.441H147.084V95.0675C147.084 88.0025 142.628 84.2517 137.265 84.2517C133.716 84.2517 131.035 85.8088 129.104 87.9643H128.236C126.779 86.0473 124.256 84.2517 120.511 84.2517C117.114 84.2517 114.399 85.7682 112.979 87.5255H112.112V84.9313H106.158V108.441H112.51V96.1475C112.51 91.9535 113.734 90.518 117.99 90.518C122.247 90.518 123.428 91.9535 123.428 96.1475V108.439H129.823V96.1475C129.823 91.9535 131.004 90.518 135.263 90.518C139.524 90.518 140.703 91.9535 140.703 96.1475L140.694 108.439L140.692 108.441ZM80.6925 105.075C79.5511 104.238 79.0371 103.001 79.0371 101.127C79.0371 98.771 79.7491 95.8685 80.9306 94.6197C81.7583 93.7805 82.9398 93.3822 84.5573 93.3822C86.8446 93.3822 89.6437 93.9897 90.8252 95.2183C91.615 96.017 91.971 97.133 91.971 98.69C91.971 100.927 91.3391 104.079 89.9574 105.395C89.1698 106.115 88.1062 106.432 86.6088 106.432C84.5618 106.432 81.9897 105.951 80.6925 105.075ZM90.7495 110.026L90.4714 112.181L96.421 112.924L99.2401 89.6292L93.2927 88.889L93.0146 91.148H92.327C91.437 89.5528 89.0518 87.395 84.5573 87.395C78.2895 87.395 73.6771 92.066 72.8472 98.4492C72.7703 99.0725 72.7309 99.6999 72.7292 100.328C72.7292 106.432 76.8299 111.463 83.2157 112.181C83.5717 112.215 83.9254 112.226 84.2814 112.222C86.9626 112.222 88.974 111.065 89.9997 110.028H90.7473L90.7495 110.026ZM225.34 103.132C220.569 103.132 218.992 101.536 218.992 96.7078C218.992 91.877 220.572 90.2345 225.34 90.2345C230.11 90.2345 231.688 91.8702 231.688 96.7078C231.688 101.543 230.11 103.132 225.34 103.132ZM194.746 103.132C189.973 103.132 188.398 101.536 188.398 96.7078C188.398 91.877 189.973 90.2345 194.744 90.2345C199.514 90.2345 201.094 91.8702 201.094 96.7078C201.094 101.543 199.514 103.132 194.744 103.132H194.746ZM164.938 103.132C160.17 103.132 158.592 101.536 158.592 96.7078C158.592 91.877 160.17 90.2345 164.938 90.2345C169.706 90.2345 171.288 91.8702 171.288 96.7078C171.288 101.543 169.708 103.132 164.938 103.132ZM63.876 77L60 108.394L66.3279 109.175L70.1416 77.7785L63.876 77ZM231.964 106.167V108.439H237.915V84.9335H231.964V87.2105H231.096C230.148 85.9325 227.745 84.2562 224.503 84.2562C217.405 84.2562 212.559 89.717 212.559 96.71C212.559 103.701 217.408 109.123 224.503 109.123C227.738 109.123 230.141 107.447 231.096 106.169L231.964 106.167ZM164.938 84.254C157.052 84.254 152.166 89.7147 152.166 96.7078C152.166 103.698 157.052 109.121 164.938 109.121C172.823 109.121 177.725 103.692 177.725 96.7078C177.725 89.7215 172.834 84.254 164.938 84.254ZM201.448 106.167V108.439H207.4V77.27H201.094V87.2083H200.226C199.281 85.9303 197.149 84.254 193.918 84.254C186.821 84.254 181.97 89.7147 181.97 96.7078C181.97 103.698 186.821 109.121 193.918 109.121C197.149 109.121 199.672 107.445 200.58 106.167H201.448Z" fill="black"/>
    </g>
    <defs>
        <clipPath id="clip0_2188_28880">
            <rect width="178" height="36" fill="white" transform="translate(60 77)"/>
        </clipPath>
    </defs>
</svg>
