<svg width="164" height="104" viewBox="0 0 164 104" fill="none" xmlns="http://www.w3.org/2000/svg">
    <rect y="-0.000488281" width="164" height="104" rx="15" fill="white"/>
    <path d="M80.1248 47.4946C82.4068 47.4946 83.4425 48.676 83.4425 50.6567C83.4425 52.6375 82.4068 53.8464 80.1248 53.8464H75.9349V57.2783H73.9502V47.4946H80.1248ZM81.444 50.4717C81.444 49.6368 80.9754 49.0402 79.855 49.0402H75.9349V52.3008H79.8472C80.9675 52.3008 81.4361 51.7338 81.4361 50.8832L81.444 50.4717Z" fill="black"/>
    <path d="M91.103 47.4946C93.2866 47.4946 94.462 48.5874 94.462 50.5288C94.462 52.0744 93.7532 53.0667 92.4202 53.4349L94.8164 57.2783H92.6053L90.3233 53.6062H86.9486V57.2783H84.9639V47.4946H91.103ZM92.4636 50.3732C92.4636 49.5364 92.0107 48.9831 90.8333 48.9831H86.9486V52.1019H90.8333C91.995 52.1019 92.4636 51.5506 92.4636 50.7237V50.3732Z" fill="black"/>
    <path d="M104.783 47.4946V49.0383H98.3743V51.5329H103.309V53.0214H98.3743V55.7327H104.84V57.2783H96.3896V47.4946H104.783Z" fill="black"/>
    <path d="M108.355 49.1544V57.2783H106.54V47.4946H109.631L112.622 55.5062L115.642 47.4946H118.633V57.2783H116.664V49.1111L113.573 57.2783H111.431L108.355 49.1544Z" fill="black"/>
    <path d="M122.829 47.4946V57.2783H120.845V47.4946H122.829Z" fill="black"/>
    <path d="M124.912 47.4946H126.897V53.2518C126.897 55.3074 127.946 55.9158 129.917 55.9158C131.888 55.9158 132.938 55.3074 132.938 53.2518V47.4946H134.808V53.3069C134.808 56.1442 133.178 57.4417 129.917 57.4417C126.586 57.4417 124.912 56.1383 124.912 53.3069V47.4946Z" fill="black"/>
    <path d="M138.721 49.1544V57.2783H136.907V47.4946H139.996L142.989 55.5062L146.008 47.4946H149V57.2783H147.032V49.1111L143.94 57.2783H141.798L138.721 49.1544Z" fill="black"/>
    <path d="M16.8154 49.1544V57.2783H15V47.4946H18.0912L21.084 55.5062L24.1024 47.4946H27.0952V57.2783H25.1263V49.1111L22.0409 57.2783H19.8928L16.8154 49.1544Z" fill="black"/>
    <path d="M28.4258 49.1111V47.4946H38.4063V49.1111H34.4074V57.2783H32.4227V49.1111H28.4258Z" fill="black"/>
    <path d="M44.2057 47.3247C47.3245 47.3247 49.0828 48.26 49.3663 50.6719H47.3659C47.1119 49.2681 46.0762 48.8723 44.2057 48.8723C42.1206 48.8723 40.7738 49.5673 40.7738 51.8769V52.8614C40.7738 55.1296 42.093 55.8955 44.2057 55.8955C46.0053 55.8955 47.0548 55.5549 47.3796 54.2081H49.3801C49.0257 56.5197 47.295 57.4411 44.2057 57.4411C40.7463 57.447 38.7773 56.1259 38.7773 52.4006C38.7773 48.6754 40.7463 47.3247 44.2057 47.3247Z" fill="black"/>
    <path d="M58.5313 49.6011V46.8013C58.5313 46.0582 58.8265 45.3456 59.352 44.8201C59.8774 44.2947 60.5901 43.9995 61.3331 43.9995H66.9328C67.6759 43.9995 68.3885 44.2947 68.914 44.8201C69.4394 45.3456 69.7346 46.0582 69.7346 46.8013V52.4029C69.7346 52.7709 69.6621 53.1352 69.5213 53.4751C69.3805 53.8151 69.1742 54.1239 68.914 54.3841C68.6538 54.6443 68.3449 54.8507 68.005 54.9915C67.6651 55.1323 67.3007 55.2047 66.9328 55.2047H64.133V58.0046C64.133 58.7477 63.8378 59.4603 63.3123 59.9858C62.7869 60.5112 62.0743 60.8064 61.3312 60.8064C60.9633 60.8064 60.5991 60.7339 60.2593 60.5931C59.9194 60.4522 59.6107 60.2458 59.3507 59.9856C59.0907 59.7254 58.8845 59.4166 58.7439 59.0766C58.6033 58.7367 58.5311 58.3724 58.5313 58.0046V55.2047H55.7295C55.3616 55.2047 54.9973 55.1323 54.6573 54.9915C54.3174 54.8507 54.0085 54.6443 53.7484 54.3841C53.4882 54.1239 53.2818 53.8151 53.141 53.4751C53.0002 53.1352 52.9277 52.7709 52.9277 52.4029C52.9277 51.6599 53.2229 50.9472 53.7484 50.4218C54.2738 49.8963 54.9865 49.6011 55.7295 49.6011H58.5313Z" fill="url(#paint0_linear_1850_41559)"/>
    <defs>
        <linearGradient id="paint0_linear_1850_41559" x1="52.0349" y1="41.4094" x2="74.366" y2="48.3741" gradientUnits="userSpaceOnUse">
            <stop offset="0.0520833" stop-color="#98DDFF"/>
            <stop offset="0.543321" stop-color="#9480FF"/>
            <stop offset="1" stop-color="#BBA6FF"/>
            <stop offset="1" stop-color="#B199FF"/>
        </linearGradient>
    </defs>
</svg>
