<svg width="406" height="190" viewBox="0 0 406 190" fill="none" xmlns="http://www.w3.org/2000/svg">
    <rect width="406" height="190" rx="30" fill="white"/>
    <path d="M134.049 85.629C133.853 85.4272 133.737 85.2423 133.575 84.9857C133.49 84.8556 133.398 84.7153 133.296 84.5647C133.578 84.2363 133.816 83.8565 133.995 83.4389L134.714 81.7861L132.944 81.5294C132.645 81.4849 132.164 81.3583 131.601 81.2078C130.516 80.9204 129.122 80.5506 127.602 80.3898C128.121 80.1606 128.562 79.7465 128.871 79.1853L129.162 78.655C129.162 78.655 129.084 77.9124 128.799 77.6797C128.908 77.4504 128.993 77.1971 129.051 76.9199L129.291 75.7359L128.158 75.3459C127.982 75.2843 127.806 75.2397 127.633 75.2124C127.568 74.9968 127.473 74.7675 127.344 74.5245L126.673 73.2823L125.462 73.9975C125.16 74.1755 124.906 74.3809 124.699 74.6101C124.519 74.5759 124.326 74.5587 124.123 74.5587C124.123 74.5587 123.431 74.48 122.668 74.7606L121.691 73.7374L120.534 72.4919C119.452 71.325 117.987 70.9794 116.495 71.5543C115.925 70.9794 115.037 70.5037 113.656 70.5037C113.188 70.5037 112.778 70.5618 112.537 70.5927C112.537 70.5927 110.638 70.9417 109.57 71.9648L108.274 71.3421C107.406 72.7211 105.92 73.1592 105.92 73.1592C105.819 72.7553 105.646 72.3789 105.398 72.0333L105.483 71.5474C105.483 71.5337 105.774 69.8878 106.663 68.4916L108.21 66.0619L106.019 66.3117C106.025 66.0927 106.015 65.8326 105.985 65.5246L105.788 63.6356L104.072 64.4194C103.882 64.5048 103.723 64.5904 103.573 64.6691L103.234 63.9403L102.448 64.3508C102.369 64.1558 102.268 63.9334 102.129 63.6768L101.223 62L99.9378 63.3996C99.8054 63.5434 99.6935 63.6768 99.5985 63.8034L98.8185 63.0197L98.0318 63.8068C97.9333 63.6802 97.8248 63.5467 97.6925 63.403L96.3936 62L95.4846 63.6837C95.3456 63.9403 95.2473 64.1593 95.1693 64.3543L94.3858 63.9437L94.0466 64.6726C93.8974 64.5939 93.738 64.5083 93.5481 64.4194L91.8252 63.6391L91.6353 65.535C91.6048 65.8395 91.5946 66.0961 91.6014 66.3151L89.4071 66.0653L90.9569 68.4949C91.8489 69.8878 92.1338 71.5337 92.1338 71.5474L92.2152 72.0333C91.9677 72.3824 91.7914 72.7588 91.6929 73.1625C91.6929 73.1625 90.2888 72.5569 89.3494 71.3421L88.0268 71.9785C86.5176 70.952 85.5814 70.5516 83.9535 70.5037C82.5732 70.466 81.6846 70.9794 81.1148 71.5543C79.6192 70.9827 78.1574 71.3284 77.0789 72.4954C77.0789 72.4954 76.3701 73.2721 75.9224 73.7409C75.4748 74.2131 74.8135 74.6033 74.8135 74.6033C74.8135 74.6033 73.8739 74.3911 72.9075 74.6135C72.7006 74.3842 72.4427 74.1789 72.1376 73.9975L70.9233 73.2823L70.2552 74.5314C70.1264 74.7709 70.0347 74.9968 69.9737 75.2124C69.8008 75.2397 69.6245 75.2843 69.4481 75.3459L68.322 75.7427L68.5561 76.9199C68.6137 77.204 68.6951 77.4573 68.807 77.6864C68.7426 77.8131 68.6851 77.9466 68.6375 78.0868L68.4476 78.6584L68.7358 79.1888C69.0411 79.7465 69.4785 80.1641 70.0009 80.3933C68.4781 80.5541 67.0876 80.9238 65.999 81.2112C65.4393 81.3583 64.9577 81.4884 64.6593 81.5328L62.8821 81.7929L63.2857 82.7168L63.6079 83.4526C63.791 83.8633 64.0318 84.2432 64.3099 84.5716C64.2047 84.7221 63.7571 85.4305 63.557 85.6324L62.6582 86.5529L63.5197 87.511C63.6283 87.6274 64.5948 88.6507 66.1583 88.654C66.5855 88.654 67.0095 88.5788 67.4301 88.4282C67.8472 89.0853 68.3424 89.7526 68.7934 90.081C67.9625 91.0665 67.0163 91.9221 65.67 92.5688L64.544 93.1096L65.0289 94.4064C65.3443 95.1901 65.9582 96.049 67.1452 96.3774C66.8908 97.1441 66.7688 97.8696 66.6603 98.5163C66.4059 100.053 66.2973 100.689 64.9577 101.165L63.7537 101.589L64.0996 102.828C64.3777 103.837 64.7949 104.505 65.2459 104.946L64.4457 105.836C64.4457 105.836 66.3449 107.273 68.2068 107.448C68.2338 107.451 69.8211 107.554 70.5333 106.637C70.8182 107.677 71.2693 108.635 71.6797 109.504C72.5208 111.291 72.9685 112.348 72.4054 113.313L71.1336 115.489L73.6332 115.383C74.7253 115.339 75.7393 115.27 76.6177 115.051C76.6177 115.099 76.6144 115.144 76.6109 115.188L76.4074 117.057L78.5983 116.591C78.829 116.523 79.0461 116.431 79.2428 116.324C80.5992 117.926 82.9055 119.175 86.0122 119.175H86.1919L82.6206 120.653L85.2219 122.019C86.9346 122.919 88.8374 123.672 91.0079 124.311L90.706 125.362L92.0118 125.749C92.7647 125.971 95.488 126.7 98.8049 126.7C102.122 126.7 104.842 125.971 105.598 125.749L106.9 125.362L106.598 124.315C108.773 123.675 110.675 122.922 112.388 122.022L114.989 120.657L111.415 119.178H111.594C114.701 119.178 117.004 117.929 118.36 116.328C118.557 116.434 118.774 116.526 119.005 116.595L121.196 117.06L120.996 115.195C120.992 115.151 120.989 115.103 120.989 115.055C121.864 115.274 122.881 115.339 123.97 115.387L126.469 115.493L125.204 113.32C124.638 112.355 125.089 111.298 125.927 109.511C126.337 108.642 126.788 107.684 127.073 106.644C127.555 107.013 128.074 107.236 128.589 107.352C128.589 107.352 128.989 107.472 129.373 107.482C130.478 107.516 131.031 107.198 131.791 106.715L133.171 105.839L132.364 104.95C132.815 104.512 133.232 103.844 133.51 102.838L133.859 101.596L132.652 101.172C131.309 100.696 131.204 100.06 130.95 98.523C130.841 97.8764 130.722 97.1476 130.465 96.3843C131.652 96.0525 132.262 95.1934 132.578 94.4133L133.059 93.113L131.933 92.5722C130.587 91.9256 129.64 91.07 128.806 90.0844C129.261 89.756 129.756 89.0885 130.176 88.4316C130.593 88.5823 131.018 88.654 131.448 88.6575C133.012 88.6575 133.982 87.6343 134.087 87.5178L134.948 86.5597L134.049 85.629Z" fill="white"/>
    <path fill-rule="evenodd" clip-rule="evenodd" d="M87.7834 102.493V92.0555C87.7834 91.0838 87.5053 90.1117 87.1729 89.2188H95.2007C95.9366 90.2384 97.2728 90.9227 98.8058 90.9227C100.332 90.9227 101.668 90.2384 102.408 89.2188H110.435C110.096 90.1152 109.821 91.0838 109.821 92.0555V102.493H87.7834ZM98.8024 116.756C97.6798 115.63 96.8793 115.506 93.8542 115.506C90.2388 115.506 87.7834 113.368 87.7834 109.949V103.105H109.818V109.949C109.818 113.368 107.366 115.506 103.744 115.506C100.722 115.503 99.9215 115.63 98.8024 116.756Z" fill="#FFDD2D"/>
    <path d="M89.0625 118.046V120.13L87.2686 120.859C88.7844 121.553 90.6669 122.245 92.878 122.755L93.8955 119.411C91.7251 118.963 90.2123 118.494 89.0625 118.046Z" fill="white"/>
    <path d="M98.8023 120.869C96.6825 120.869 94.8987 120.647 94.1865 120.482L93.1113 123.99C94.8004 124.407 96.7775 124.715 98.8023 124.715C100.82 124.715 102.797 124.411 104.493 123.99L103.415 120.482C102.702 120.65 100.925 120.869 98.8023 120.869Z" fill="white"/>
    <path d="M108.543 118.046C107.39 118.494 105.881 118.96 103.71 119.415L104.731 122.758C106.946 122.248 108.821 121.557 110.337 120.862L108.546 120.133V118.046H108.543Z" fill="white"/>
    <path d="M85.3041 84.4243C88.1122 82.8947 94.9766 79.5275 90.3233 75.8966C89.6892 75.4039 88.9906 74.959 88.4038 74.4081C87.6781 74.9727 88.6752 76.3757 88.9261 76.8891C88.9261 76.8891 87.3762 77.0464 87.0066 77.0464C84.6121 77.0362 82.1024 75.6058 83.3742 72.8647C82.4212 73.0633 82.3059 73.9872 82.0143 74.7776C81.4038 74.3602 80.3422 73.4637 79.5249 73.5903C80.1896 75.7357 82.9877 77.6693 85.1581 78.1072C82.9639 79.3118 78.894 80.2083 76.7541 77.6144C75.2516 80.5472 77.3442 81.7722 79.396 83.3087C71.5854 86.9053 72.7386 90.9398 67.614 94.1155C68.2786 94.4302 71.2428 93.7973 71.5074 93.7595C70.3949 95.2139 69.876 95.8299 69.5505 96.5383C69.2384 97.2021 69.0993 97.9516 68.7909 99.5668C68.5499 100.843 68.1091 102.116 66.5693 102.961C67.1731 104.063 68.5128 103.201 69.0723 103.054C68.9976 103.17 68.8077 104.498 68.3058 105.138C70.9376 104.967 69.72 99.3682 72.3519 100.717C73.0946 101.093 73.3185 101.976 72.9758 102.698C71.2462 106.298 75.177 109.47 74.9632 112.625C75.9299 112.618 76.9305 112.591 77.5611 111.273C77.8903 111.93 78.3989 112.854 78.6838 113.744L79.4706 112.392C79.9556 114.63 82.0245 116.697 84.8191 116.882C83.4863 114.754 85.0836 111.848 81.8448 108.758C82.2482 108.43 83.181 107.797 83.5133 107.366C79.5385 107.838 75.3906 104.665 77.2729 103.16C78.504 102.178 79.0433 104.217 80.9425 103.875L80.1998 103.228C80.4609 102.968 80.7594 102.629 81.068 102.373C80.2608 102.274 79.379 101.753 79.379 101.753L79.8606 100.949C75.2041 100.942 75.0853 97.3493 76.9777 97.2056C77.8664 97.1406 79.0161 98.7934 81.8819 98.4476C81.5157 98.0029 81.3699 97.3287 81.1968 96.8326C81.8887 96.7676 82.7028 96.7744 83.3573 96.4527C81.9567 96.2714 81.6038 95.7956 80.4372 94.9061L81.7904 94.4064C79.8268 93.4174 79.9454 91.6961 79.8844 89.9029C80.912 90.4983 82.1194 91.4224 83.4081 90.9946C83.7133 90.8918 83.9101 90.7483 83.9169 90.4266C82.0787 89.6841 80.8986 86.8266 85.3041 84.4243ZM81.9499 84.7049C79.491 87.357 80.5559 88.9448 81.0511 89.4341C80.1352 89.2357 78.7687 88.0584 79.0805 86.919C78.789 87.2714 78.4906 87.6546 78.1853 88.0482C77.5747 88.8696 77.0288 89.6737 76.5438 90.454C75.7977 92.6918 77.1644 95.0018 79.491 96.0249C76.9066 95.6417 75.7468 93.3216 75.7536 91.8433C74.519 94.1977 73.9288 96.3466 73.9832 98.1501C74.0069 98.8208 74.0645 99.4469 74.1527 100.039C74.7464 101.175 75.6994 101.593 77.3984 101.801C75.8553 101.901 75.0379 101.829 74.3665 101.117C75.4178 105.678 80.3354 109.627 82.3365 113.008C80.332 110.38 76.1843 106.466 74.7328 103.636C74.6208 104.659 74.8921 107.28 76.1537 108.892C74.2951 107.047 74.1494 104.255 74.2715 102.619C73.8 101.442 73.5017 100.128 73.4609 98.6326C73.4235 97.2569 73.5184 96.0627 73.7254 94.9915C72.5519 96.6752 70.8562 97.3253 70.0218 99.8884C70.1846 96.5826 72.63 96.5314 74.4615 92.5174C75.1702 90.762 76.2011 89.2459 77.3408 87.5281C75.8926 88.0072 74.8074 88.3493 73.1318 90.2006C74.3223 87.3604 81.2002 84.1678 84.3511 81.0775C83.4047 81.2795 79.5419 81.3787 77.9377 80.2974C80.8442 81.0912 87.3118 80.1844 89.7537 78.5008C88.0681 80.9475 84.3985 81.0879 79.932 85.9541C80.5017 85.4954 81.2614 85.0334 81.9499 84.7049Z" fill="white"/>
    <path d="M128.811 99.5664C128.503 97.9513 128.367 97.2018 128.055 96.538C127.733 95.8296 127.211 95.2137 126.095 93.7592C126.36 93.797 129.331 94.4301 129.992 94.1153C124.867 90.9396 126.02 86.905 118.206 83.3085C120.258 81.772 122.351 80.5469 120.848 77.6109C118.708 80.2082 114.638 79.3116 112.444 78.1037C114.618 77.6655 117.413 75.7356 118.077 73.5865C117.257 73.4599 116.195 74.3564 115.585 74.7705C115.293 73.98 115.181 73.0561 114.228 72.8542C115.5 75.5986 112.987 77.029 110.589 77.0393C110.223 77.0393 108.676 76.8819 108.676 76.8819C108.924 76.3686 109.921 74.9657 109.192 74.401C108.605 74.9553 107.913 75.3968 107.276 75.8896C102.619 79.5203 109.49 82.891 112.298 84.4171C116.697 86.8194 115.527 89.6769 113.685 90.4091C113.692 90.7307 113.889 90.8746 114.198 90.9772C115.479 91.4084 116.694 90.4845 117.715 89.8856C117.657 91.6788 117.779 93.4034 115.815 94.389L117.165 94.8886C115.999 95.7783 115.649 96.254 114.248 96.4354C114.9 96.757 115.72 96.7502 116.409 96.8152C116.232 97.3114 116.08 97.9855 115.72 98.4304C118.59 98.7725 119.743 97.1232 120.624 97.1881C122.51 97.3319 122.398 100.925 117.738 100.932L118.22 101.736C118.22 101.736 117.338 102.256 116.527 102.355C116.836 102.609 117.138 102.951 117.399 103.211L116.656 103.858C118.552 104.2 119.095 102.16 120.326 103.143C122.208 104.648 118.064 107.82 114.086 107.348C114.421 107.779 115.354 108.416 115.758 108.744C112.515 111.831 114.109 114.74 112.783 116.872C115.571 116.683 117.64 114.616 118.132 112.378L118.919 113.73C119.2 112.84 119.716 111.917 120.038 111.259C120.665 112.577 121.672 112.604 122.642 112.611C122.422 109.456 126.349 106.284 124.626 102.684C124.281 101.965 124.504 101.082 125.247 100.703C127.886 99.3542 126.661 104.953 129.297 105.124C128.791 104.484 128.605 103.156 128.533 103.04C129.09 103.187 130.426 104.049 131.03 102.944C129.5 102.116 129.059 100.843 128.811 99.5664ZM123.884 94.9878C124.091 96.0624 124.196 97.2532 124.148 98.6289C124.104 100.124 123.809 101.438 123.338 102.615C123.456 104.251 123.314 107.044 121.455 108.888C122.714 107.273 122.988 104.655 122.876 103.632C121.418 106.462 117.274 110.377 115.266 113.005C117.27 109.624 122.188 105.671 123.243 101.113C122.564 101.822 121.754 101.897 120.207 101.798C121.903 101.589 122.856 101.171 123.449 100.035C123.538 99.4468 123.595 98.8171 123.619 98.1464C123.677 96.3429 123.083 94.1939 121.849 91.8395C121.859 93.3178 120.699 95.6379 118.111 96.0213C120.431 94.9947 121.801 92.6848 121.059 90.4503C120.577 89.67 120.034 88.8624 119.417 88.0445C119.112 87.651 118.813 87.2678 118.518 86.9153C118.83 88.0547 117.464 89.2319 116.548 89.4304C117.046 88.9411 118.108 87.3532 115.652 84.7012C116.341 85.0298 117.101 85.4917 117.674 85.9434C113.207 81.0773 109.541 80.9405 107.849 78.4904C110.294 80.174 116.762 81.0842 119.665 80.2867C118.064 81.3681 114.198 81.2689 113.251 81.067C116.402 84.1571 123.287 87.35 124.474 90.1903C122.798 88.3388 121.71 87.9967 120.268 87.5176C121.411 89.2387 122.435 90.7514 123.144 92.5068C124.979 96.5208 127.428 96.5689 127.587 99.8779C126.753 97.3216 125.06 96.6715 123.884 94.9878Z" fill="white"/>
    <path d="M102.404 89.2151C101.667 90.2348 100.328 90.9192 98.805 90.9192C98.4489 90.9192 98.1063 90.8782 97.7808 90.8166C97.8724 91.2375 98.0861 91.6722 98.5303 92.045C98.3506 93.2666 98.8728 94.4097 100.172 94.7075C100.311 95.3303 100.691 95.7991 101.335 96.0214L100.429 97.0755C100.08 97.4793 99.6258 97.6093 99.2595 97.5615L95.2169 97.0994C95.3932 96.6477 94.9251 96.1241 93.6431 96.3466L95.2304 91.8637L94.2637 89.7866L92.4291 91.3675L92.2933 96.0693L91.5031 95.6828C90.4856 95.2378 90.1838 97.1096 91.1539 97.1165L91.5439 97.12C91.5167 97.3115 91.5777 97.5237 91.7303 97.5922C91.5472 97.6674 91.4929 98.013 91.7202 98.1363C91.4895 98.2492 91.4557 98.6051 91.6422 98.7592C91.4421 99.1046 91.4047 99.8541 92.1137 100.042C92.6969 100.196 93.0632 99.5666 93.182 99.2005L99.4731 101.165C100.358 101.421 100.996 101.278 101.735 100.624L103.377 99.1765C103.17 100.125 103.506 100.976 104.221 101.261C104.221 101.261 104.109 102.13 104.153 102.489L106.354 102.493H109.821V92.0554C109.821 91.0836 110.095 90.1117 110.435 89.2151H106.354H102.404Z" fill="white"/>
    <path d="M92.9824 106.777L93.1045 106.931C93.274 107.144 93.3758 107.092 93.5691 106.979L93.854 106.825C94.0338 106.688 95.2039 107.14 95.2682 106.158C95.3972 106.89 94.5323 108.434 95.0546 109.296L95.7566 110.456L93.464 110.49C93.213 110.49 93.0808 110.644 93.013 110.781L92.4126 112.037C92.2564 112.369 92.2667 112.711 92.4634 112.94L92.8705 113.402C92.8705 113.402 93.2029 113.118 93.3112 112.745L93.1315 112.557C92.9824 112.413 92.9824 112.276 93.0637 112.099L93.4333 111.325C93.5759 111.021 93.7217 110.956 94.0474 111.034L95.9025 111.438C96.0381 111.472 96.2587 111.537 96.3908 111.308C96.618 110.901 97.0183 110.874 97.4253 110.939C98.4426 111.092 100.793 111.339 101.631 110.35C102.614 111.667 104.537 111.667 104.412 112.359L104.005 114.624H104.615L104.988 112.307C105.029 112.037 105.195 111.667 104.907 111.459C104.788 111.366 104.734 111.318 104.466 110.853C104.117 110.237 104.134 109.313 103.798 108.516C104.117 108.136 104.463 108.006 104.764 108.078C105.443 108.245 105.626 109.426 106.589 110.387C106.481 109.96 106.433 109.491 106.206 109.084C106.206 109.084 106.874 109.607 107.047 110.22C107.155 110.603 107.267 110.884 107.61 111.062C107.837 111.144 108.108 111.034 108.38 110.706C108.38 110.706 107.746 109.796 107.281 109.2C106.643 108.382 105.792 107.561 104.632 107.657C104.266 107.688 103.913 107.855 103.578 108.057C102.258 107.311 101.234 108.102 100.827 108.102L98.3579 107.954C97.873 107.924 97.4896 107.356 97.4896 107.356C97.4286 105.248 95.7499 104.409 95.1699 104.409C95.1699 104.409 95.2243 104.029 95.0715 103.896L94.556 104.55L93.1247 104.023L94.2474 104.95L93.0298 106.377C92.9044 106.517 92.9214 106.702 92.9824 106.777Z" fill="white"/>
    <path d="M91.365 109.737C91.019 110.007 91.036 110.384 91.2429 110.805L91.4498 111.195L91.989 110.781L91.867 110.514C91.7788 110.325 91.7822 110.134 91.9348 110.014L92.7081 109.425C92.9252 109.265 92.993 109.248 93.2237 109.282L94.8548 109.627C94.8548 109.627 94.6073 109.265 94.5259 108.895L92.9895 108.69C92.7724 108.662 92.6403 108.755 92.4503 108.902L91.365 109.737Z" fill="white"/>
    <path d="M101.797 114.624H102.414L103.404 112.163C103.438 112.078 103.486 112.04 103.523 111.968C103.079 111.79 102.818 111.667 102.448 111.451C102.696 111.787 102.889 111.931 102.787 112.242L101.797 114.624Z" fill="white"/>
    <path d="M102.323 81.3447L103.466 74.7163L99.1348 76.2015V83.0352L102.323 81.3447ZM99.8672 76.8721L102.74 75.8046C102.74 75.8046 102.18 76.263 101.512 76.7249C100.919 77.139 99.8672 77.5805 99.8672 77.5805V76.8721ZM99.8672 78.4771L102.496 77.5291C102.496 77.5291 102.18 77.8646 101.515 78.3265C100.922 78.7371 99.8707 79.1785 99.8707 79.1785V78.4771H99.8672ZM99.8672 80.1812L102.18 79.2846C102.18 79.2846 102.18 79.5687 101.512 80.0273C100.919 80.4414 99.8672 80.8827 99.8672 80.8827V80.1812Z" fill="white"/>
    <path d="M94.6168 87.206L94.7117 87.3601H95.6037L95.6138 87.5175C95.6241 87.6682 95.6581 87.8221 95.7088 87.9794C95.848 88.4072 96.1226 88.8556 96.5635 89.2182C97.0756 89.6358 97.815 89.937 98.7985 89.937C100.932 89.937 101.895 88.5442 101.987 87.5175L101.993 87.3601H102.889L102.984 87.206C103.825 85.8784 104.852 84.4035 106.046 84.1914L102.79 82.2852L98.7985 84.4753L94.8032 82.2852L91.5508 84.1914C92.7447 84.4001 93.7723 85.8784 94.6168 87.206Z" fill="white"/>
    <path d="M98.4628 83.0352V76.2015L94.1387 74.7163L95.2747 81.3447L98.4628 83.0352ZM97.7336 80.8896C97.7336 80.8896 96.6821 80.4449 96.0888 80.0341C95.4207 79.5756 95.4207 79.2881 95.4207 79.2881L97.7369 80.1847V80.8896H97.7336ZM97.7336 76.8721V77.5805C97.7336 77.5805 96.6821 77.139 96.0888 76.7249C95.4172 76.263 94.8542 75.8046 94.8542 75.8046L97.7336 76.8721ZM97.7336 78.4771V79.182C97.7336 79.182 96.6821 78.7406 96.0888 78.3299C95.4172 77.868 95.1053 77.5326 95.1053 77.5326L97.7336 78.4771Z" fill="white"/>
    <path d="M98.8016 71.7944C96.3291 71.7944 94.474 72.6123 94.0703 73.5705L98.8016 75.456L103.526 73.5705C103.126 72.6123 101.274 71.7944 98.8016 71.7944Z" fill="white"/>
    <path d="M98.8036 69.0561C100.625 69.0561 102.45 69.6139 103.677 70.336C103.877 69.6687 104.091 69.193 104.383 68.649L103.264 68.8235L102.358 66.8729L100.666 67.7798L98.8036 65.9216L96.9383 67.7798L95.2494 66.8729L94.3371 68.8235L93.2178 68.649C93.5095 69.193 93.7198 69.6687 93.9268 70.336C95.1579 69.6139 96.9757 69.0561 98.8036 69.0561Z" fill="white"/>
    <path d="M129.665 84.0787C130.276 84.0001 130.767 83.7947 131.368 83.3429C130.076 82.9974 127.369 82.0085 125.059 82.4533C124.296 82.5559 123.873 82.8673 124.144 83.0453C125.385 83.8768 126.918 85.8033 128.034 88.0518C129.014 86.8232 128.604 85.2114 128.397 84.7495C130.35 85.9368 130.862 86.5152 131.768 86.2893C131.283 85.5399 130.601 84.8658 129.665 84.0787Z" fill="white"/>
    <path d="M69.571 88.048C70.6868 85.7998 72.2197 83.8732 73.4644 83.0416C73.7425 82.8637 73.3117 82.5522 72.5555 82.4496C70.2424 82.0082 67.5293 82.9937 66.2372 83.3393C66.8441 83.7912 67.3258 83.9964 67.9431 84.0751C67.0037 84.8656 66.3219 85.5364 65.8369 86.2857C66.7492 86.5115 67.258 85.9333 69.208 84.7458C69.008 85.2112 68.5942 86.8195 69.571 88.048Z" fill="white"/>
    <path fill-rule="evenodd" clip-rule="evenodd" d="M83.1129 108.916C84.0117 108.197 84.7577 107.838 84.7205 106.096C83.3706 106.794 79.5417 106.756 77.9408 104.532C77.4897 103.899 77.9713 103.581 78.4087 104.08C79.5043 105.333 81.5324 104.765 82.2718 104.405C82.1531 103.974 81.8241 103.413 81.5494 103.174C81.8276 102.9 82.611 102.489 82.7703 101.784C82.3531 101.555 80.7286 101.391 80.7286 101.391C80.9899 101.137 81.3153 100.785 81.1187 99.844C79.4602 100.357 77.4083 99.6592 76.9437 99.0398C76.4858 98.4306 76.954 97.8592 77.3405 98.2629C78.1681 99.139 82.2446 100.142 83.7607 98.6189C83.1977 98.4615 82.577 97.955 82.465 97.6401C83.8693 97.4965 84.9884 96.6615 85.08 95.6212C84.3032 95.6212 82.8381 95.563 82.3361 95.1865C83.0076 94.9368 83.4351 94.6904 83.6487 93.9307C81.0814 93.7734 80.8779 91.8501 80.8643 91.5319C82.5363 92.5037 85.4801 92.0725 84.7171 89.6771C83.3265 89.6019 81.9259 87.3331 85.7481 85.249C89.2245 83.3499 93.1755 81.3035 92.8261 77.9329C92.5989 75.7769 89.0819 74.3054 88.6343 73.2139C87.1657 73.9187 86.8707 74.7367 87.532 76.1088C87.532 76.1088 84.2591 76.4374 84.0014 74.4047C83.8895 73.4945 84.4932 72.6423 85.141 71.9888C84.7747 71.9888 82.309 71.3215 81.5662 73.3473C80.1859 72.396 79.0024 72.4302 78.0731 73.4362C79.5585 74.326 80.4776 77.3784 82.9331 78.2783C81.1864 79.2331 78.3613 78.8328 76.7131 75.8966C75.153 78.2681 74.2543 80.6156 77.6017 83.124C71.5138 85.9197 71.5581 91.265 66.2604 93.8109C66.7963 95.2652 67.9291 95.2652 69.374 95.0395C67.0845 98.0405 69.0347 101.182 65.4092 102.465C65.7483 103.69 66.43 104.669 67.7663 104.31C67.3864 104.908 67.1355 104.895 66.5453 105.552C68.5259 106.811 70.8764 105.901 71.4088 101.859C71.5037 101.137 72.4872 101.589 72.1481 102.298C69.8893 107.01 75.6008 110.555 73.5794 114.011C75.3598 113.936 76.7198 113.795 77.4592 113.19C77.8222 113.915 78.0426 114.634 77.9612 115.342C78.9447 115.14 79.3042 114.555 79.372 113.878C80.0165 115.777 82.3226 117.806 86.0126 117.806C84.0557 114.986 85.877 112.129 83.1129 108.916ZM79.4703 112.389L78.6837 113.741C78.4019 112.851 77.8899 111.927 77.561 111.27C76.9268 112.588 75.9263 112.615 74.963 112.622C75.1767 109.467 71.246 106.294 72.9756 102.694C73.3215 101.976 73.0943 101.093 72.3515 100.713C69.7164 99.3649 70.9372 104.963 68.3056 105.134C68.8075 104.494 68.9973 103.167 69.072 103.05C68.5123 103.198 67.1727 104.06 66.5692 102.958C68.1089 102.113 68.5498 100.84 68.7906 99.5634C69.0957 97.9481 69.2382 97.1987 69.5468 96.5348C69.8724 95.8266 70.3913 95.2106 71.5037 93.7562C71.2392 93.7938 68.2784 94.427 67.6103 94.1121C72.735 90.9365 71.5818 86.9018 79.3924 83.3053C77.3439 81.7689 75.2513 80.5437 76.7505 77.6112C78.8904 80.205 82.9569 79.3084 85.1546 78.1039C82.9841 77.6659 80.1859 75.7358 79.5246 73.5869C80.3419 73.4603 81.4035 74.3568 82.0107 74.7742C82.3057 73.9803 82.4211 73.0599 83.3741 72.8613C82.1022 75.6023 84.612 77.0328 87.0064 77.0432C87.3793 77.0432 88.926 76.8856 88.926 76.8856C88.6782 76.3724 87.6778 74.9693 88.4036 74.4047C88.9903 74.9591 89.689 75.4005 90.3232 75.8933C94.9798 79.5274 88.1119 82.8947 85.3038 84.4245C80.8981 86.8266 82.0785 89.6874 83.9167 90.4164C83.9099 90.7379 83.7132 90.8816 83.4079 90.9844C82.1192 91.4156 80.9117 90.4881 79.8841 89.8927C79.9451 91.6859 79.8231 93.4106 81.7901 94.3961L80.4369 94.8922C81.6002 95.7855 81.9563 96.2576 83.357 96.4424C82.7025 96.7641 81.8919 96.7572 81.1966 96.8224C81.3731 97.3184 81.5155 97.9927 81.8818 98.4374C79.016 98.7798 77.8662 97.1302 76.9776 97.1954C75.0852 97.339 75.2038 100.932 79.8604 100.939L79.3788 101.743C79.3788 101.743 80.2605 102.263 81.0713 102.362C80.7625 102.616 80.464 102.958 80.203 103.218L80.9457 103.865C79.0431 104.207 78.5072 102.167 77.2726 103.15C75.3904 104.655 79.5382 107.828 83.513 107.355C83.1808 107.786 82.2446 108.423 81.8445 108.751C85.0833 111.838 83.4859 114.747 84.8188 116.879C82.0243 116.694 79.9554 114.624 79.4703 112.389Z" fill="black"/>
    <path fill-rule="evenodd" clip-rule="evenodd" d="M74.3607 101.117C75.0356 101.825 75.8495 101.9 77.3926 101.801C75.6936 101.592 74.7406 101.175 74.1471 100.039C74.0622 99.4504 74.0047 98.8205 73.9808 98.1499C73.9266 96.3464 74.5167 94.1975 75.7513 91.8431C75.7445 93.3179 76.901 95.638 79.4887 96.0247C77.1622 94.9983 75.7953 92.6883 76.5414 90.4537C77.0264 89.6735 77.5725 88.8658 78.183 88.0481C78.4881 87.6546 78.7866 87.2712 79.0783 86.9188C78.7662 88.0583 80.1331 89.2355 81.0488 89.4339C80.5535 88.9446 79.4887 87.3603 81.9476 84.7083C81.2624 85.0367 80.5027 85.4986 79.9262 85.9503C84.3895 81.0843 88.0623 80.9474 89.748 78.4973C87.3061 80.181 80.8386 81.0911 77.932 80.2937C79.5361 81.3751 83.3991 81.2758 84.3453 81.0739C81.1981 84.164 74.32 87.3569 73.1263 90.1972C74.8016 88.3424 75.8868 88.0037 77.3384 87.5279C76.1956 89.2492 75.168 90.7617 74.459 92.5173C72.6276 96.5277 70.179 96.5792 70.0195 99.8849C70.854 97.3217 72.5497 96.6716 73.7231 94.9879C73.5163 96.0625 73.4178 97.2533 73.4551 98.629C73.4959 100.124 73.7944 101.438 74.2657 102.616C74.1471 104.251 74.2895 107.044 76.148 108.888C74.8864 107.276 74.615 104.655 74.727 103.632C76.182 106.462 80.3298 110.377 82.3342 113.005C80.3298 109.627 75.4155 105.678 74.3607 101.117Z" fill="black"/>
    <path fill-rule="evenodd" clip-rule="evenodd" d="M120.27 87.5277C121.712 88.0068 122.801 88.3457 124.476 90.2004C123.289 87.3601 116.401 84.1674 113.253 81.0774C114.2 81.2758 118.066 81.3785 119.667 80.2971C116.764 81.0944 110.296 80.1842 107.851 78.5005C109.54 80.9507 113.209 81.0876 117.676 85.9536C117.103 85.5019 116.343 85.04 115.655 84.7115C118.11 87.3636 117.049 88.9514 116.55 89.4407C117.466 89.2423 118.832 88.0651 118.52 86.9254C118.815 87.278 119.114 87.6612 119.419 88.0548C120.033 88.8761 120.576 89.6802 121.061 90.4604C121.807 92.6985 120.437 95.0083 118.117 96.0315C120.705 95.6483 121.864 93.3246 121.851 91.8498C123.089 94.2041 123.679 96.3532 123.625 98.1565C123.601 98.8272 123.543 99.4535 123.455 100.046C122.858 101.182 121.905 101.599 120.209 101.808C121.756 101.904 122.566 101.832 123.245 101.123C122.19 105.685 117.276 109.634 115.268 113.015C117.276 110.387 121.417 106.472 122.879 103.642C122.99 104.665 122.719 107.286 121.458 108.898C123.316 107.054 123.458 104.261 123.34 102.626C123.808 101.449 124.103 100.135 124.15 98.639C124.194 97.2633 124.089 96.0691 123.886 94.9981C125.063 96.6816 126.755 97.332 127.593 99.895C127.433 96.5858 124.985 96.5345 123.15 92.5239C122.438 90.7581 121.413 89.2456 120.27 87.5277Z" fill="black"/>
    <path fill-rule="evenodd" clip-rule="evenodd" d="M128.234 95.0331C129.676 95.2625 130.809 95.2625 131.348 93.8081C126.05 91.2621 126.094 85.9203 120.007 83.1212C123.354 80.6162 122.452 78.2653 120.895 75.8939C119.25 78.8299 116.415 79.2303 114.675 78.2756C117.124 77.3755 118.05 74.3232 119.535 73.4335C118.606 72.4273 117.419 72.3931 116.039 73.3444C115.292 71.3186 112.83 71.9859 112.46 71.9859C113.105 72.636 113.715 73.4882 113.6 74.4019C113.346 76.4346 110.073 76.106 110.073 76.106C110.734 74.7338 110.439 73.9159 108.971 73.2109C108.523 74.3027 105.01 75.7741 104.779 77.9299C104.426 81.3006 108.384 83.3469 111.857 85.2463C115.679 87.3302 114.278 89.6025 112.891 89.6743C112.121 92.0698 115.065 92.5009 116.741 91.529C116.734 91.8473 116.52 93.7704 113.953 93.9279C114.17 94.6876 114.594 94.9338 115.265 95.1838C114.763 95.5636 113.298 95.6183 112.525 95.6183C112.616 96.6586 113.739 97.497 115.143 97.6374C115.031 97.9522 114.407 98.4587 113.848 98.616C115.364 100.139 119.44 99.1362 120.268 98.2602C120.648 97.8564 121.112 98.4278 120.658 99.037C120.19 99.6597 118.141 100.358 116.479 99.841C116.29 100.779 116.608 101.135 116.869 101.388C116.869 101.388 115.245 101.552 114.824 101.781C114.984 102.486 115.771 102.893 116.045 103.171C115.767 103.41 115.438 103.971 115.32 104.403C116.066 104.765 118.094 105.33 119.183 104.078C119.623 103.581 120.105 103.896 119.654 104.529C118.053 106.754 114.224 106.788 112.871 106.093C112.834 107.835 113.58 108.194 114.479 108.913C111.711 112.126 113.539 114.984 111.582 117.796C115.269 117.796 117.575 115.767 118.219 113.868C118.294 114.542 118.647 115.131 119.627 115.333C119.552 114.624 119.769 113.906 120.129 113.18C120.875 113.786 122.235 113.926 124.015 114.001C121.997 110.545 127.709 107 125.443 102.288C125.107 101.579 126.091 101.128 126.186 101.85C126.715 105.891 129.069 106.801 131.053 105.542C130.456 104.885 130.208 104.899 129.828 104.3C131.165 104.659 131.843 103.681 132.186 102.455C128.577 101.176 130.527 98.0343 128.234 95.0331ZM128.54 103.054C128.611 103.171 128.797 104.498 129.303 105.138C126.668 104.967 127.888 99.3689 125.253 100.717C124.511 101.094 124.29 101.977 124.633 102.698C126.356 106.298 122.428 109.471 122.649 112.626C121.679 112.619 120.671 112.592 120.044 111.274C119.722 111.931 119.203 112.855 118.921 113.745L118.135 112.393C117.646 114.631 115.577 116.698 112.789 116.886C114.116 114.758 112.521 111.849 115.764 108.759C115.357 108.43 114.424 107.794 114.089 107.363C118.067 107.835 122.211 104.663 120.329 103.157C119.098 102.175 118.555 104.215 116.659 103.872L117.402 103.226C117.141 102.965 116.839 102.627 116.53 102.37C117.341 102.271 118.223 101.751 118.223 101.751L117.741 100.946C122.398 100.94 122.51 97.3464 120.627 97.2027C119.742 97.1377 118.589 98.7905 115.723 98.445C116.086 98 116.235 97.3259 116.412 96.8297C115.72 96.7647 114.902 96.7716 114.251 96.4499C115.652 96.2685 116.005 95.7929 117.168 94.9032L115.818 94.4035C117.782 93.4146 117.656 91.6933 117.717 89.9003C116.693 90.4957 115.479 91.4195 114.2 90.9919C113.895 90.8891 113.695 90.7454 113.688 90.4237C115.53 89.6914 116.703 86.8341 112.301 84.4318C109.496 82.9022 102.625 79.5348 107.278 75.9041C107.916 75.4114 108.608 74.9665 109.191 74.4156C109.92 74.9802 108.923 76.3832 108.676 76.8966C108.676 76.8966 110.222 77.0538 110.588 77.0538C112.986 77.0436 115.499 75.6133 114.227 72.8687C115.181 73.0673 115.292 73.9947 115.584 74.7851C116.195 74.3676 117.253 73.4745 118.077 73.6011C117.409 75.7468 114.617 77.6802 112.444 78.118C114.638 79.3227 118.708 80.2193 120.848 77.6254C122.347 80.5581 120.258 81.7832 118.206 83.3196C126.02 86.9128 124.863 90.9508 129.991 94.1264C129.33 94.4411 126.359 93.8081 126.094 93.7704C127.214 95.2248 127.736 95.8407 128.055 96.5491C128.367 97.2129 128.502 97.9591 128.811 99.5776C129.055 100.854 129.499 102.127 131.032 102.972C130.432 104.064 129.096 103.201 128.54 103.054Z" fill="black"/>
    <path fill-rule="evenodd" clip-rule="evenodd" d="M91.3312 111.886L92.4471 110.932L92.2774 110.589C92.1554 110.343 92.2199 110.329 92.3488 110.234L92.939 109.792C93.0744 109.679 93.217 109.693 93.3832 109.734L95.15 110.151H93.2848C92.854 110.179 92.7287 110.346 92.5726 110.668L92.4438 110.932L91.9656 111.924C91.8027 112.266 91.7179 112.721 92.1453 113.234L92.4844 113.642L91.7993 115.041H92.3758L92.8507 114.069C92.888 114.035 93.59 113.388 93.7392 112.721C93.5357 112.554 93.3933 112.437 93.5053 112.204L93.7188 111.739C93.7902 111.585 93.8138 111.524 94.0173 111.561L95.8691 111.965C96.0998 112.03 96.4389 112.133 96.6864 111.756C96.9409 111.366 96.9748 111.407 97.5648 111.465L98.511 111.568C99.8033 111.691 101.095 111.366 101.597 110.962C101.774 111.366 102.123 111.678 102.286 111.992C102.347 112.109 102.245 112.273 102.167 112.478L101.106 115.038H102.744L103.67 112.704C103.754 112.482 103.88 112.304 103.975 112.215L103.442 115.041H105.033L105.453 112.246C105.545 111.623 105.491 111.424 105.196 111.168C104.534 110.603 104.548 109.419 104.334 108.7C104.446 108.635 104.579 108.601 104.735 108.622C105.081 108.652 105.342 109.546 105.749 110.121C106.562 111.274 107.672 112.547 108.943 110.753C108.821 110.548 108.689 110.363 108.533 110.185L108.177 109.765C107.97 109.532 106.987 108.396 106.576 107.989C105.643 107.041 104.212 107.184 103.642 107.646C102.35 106.962 100.987 107.681 100.665 107.653L98.4399 107.516C98.3381 107.509 98.1856 107.475 98.0771 107.301L98.4908 107.164C98.1042 105.538 97.1309 104.18 95.4317 103.944C95.4317 103.944 95.3333 103.43 95.0721 103.331L94.5634 103.933C94.4209 103.954 94.2649 103.998 94.136 104.053L91.9656 103.239L93.5935 104.899C93.5935 104.899 92.7489 106.106 92.5081 106.353C92.3488 106.579 92.3624 106.753 92.5421 106.969L92.8575 107.386C93.0204 107.602 93.2 107.595 93.4611 107.462L93.8173 107.273C93.9734 107.143 94.4955 107.4 94.7194 107.195C94.5769 107.667 94.5057 108.122 94.4719 108.481L93.0101 108.303C92.6913 108.259 92.5455 108.303 92.3521 108.457L91.1041 109.426C90.6971 109.741 90.5716 110.285 90.8227 110.815L91.3312 111.886ZM103.405 112.163L102.415 114.627H101.797L102.788 112.242C102.89 111.934 102.696 111.79 102.449 111.455C102.815 111.664 103.08 111.801 103.524 111.972C103.486 112.04 103.439 112.078 103.405 112.163ZM93.8546 106.828L93.5731 106.979C93.3764 107.092 93.278 107.143 93.1084 106.931L92.9864 106.774C92.9254 106.699 92.905 106.517 93.0305 106.373L94.2446 104.946L93.1255 104.019L94.5498 104.549L95.0721 103.892C95.2247 104.023 95.1704 104.402 95.1704 104.402C95.747 104.402 97.4259 105.244 97.4902 107.352C97.4902 107.352 97.8701 107.917 98.355 107.948L100.828 108.098C101.238 108.098 102.262 107.311 103.578 108.054C103.91 107.852 104.266 107.691 104.633 107.65C105.793 107.564 106.647 108.379 107.282 109.2C107.746 109.795 108.384 110.706 108.384 110.706C108.109 111.034 107.841 111.144 107.614 111.061C107.271 110.884 107.159 110.606 107.051 110.22C106.878 109.607 106.21 109.084 106.21 109.084C106.437 109.494 106.485 109.96 106.593 110.387C105.626 109.422 105.443 108.245 104.768 108.081C104.47 108.006 104.121 108.136 103.798 108.512C104.138 109.309 104.121 110.234 104.47 110.853C104.735 111.315 104.792 111.356 104.911 111.458C105.196 111.664 105.036 112.037 104.992 112.307L104.626 114.624H104.009L104.416 112.358C104.541 111.667 102.618 111.667 101.635 110.35C100.797 111.339 98.4467 111.092 97.4292 110.938C97.0188 110.877 96.6186 110.904 96.3947 111.311C96.2626 111.541 96.0421 111.472 95.9065 111.438L94.0513 111.034C93.7256 110.959 93.5832 111.024 93.4407 111.325L93.0711 112.099C92.9897 112.28 92.9932 112.413 93.1422 112.56L93.3187 112.749C93.2136 113.118 92.8779 113.402 92.8779 113.402L92.4741 112.944C92.2774 112.711 92.2674 112.376 92.4234 112.047L93.0237 110.781C93.0948 110.641 93.2238 110.49 93.4747 110.49L95.7674 110.456L95.0653 109.303C94.543 108.437 95.4113 106.894 95.2789 106.165C95.2078 107.14 94.0377 106.695 93.8546 106.828ZM91.3652 109.737L92.4506 108.902C92.6438 108.755 92.7726 108.659 92.9932 108.687L94.5261 108.892C94.6108 109.262 94.8551 109.624 94.8551 109.624L93.2238 109.279C92.9932 109.251 92.9254 109.262 92.7083 109.419L91.935 110.008C91.7825 110.127 91.7757 110.319 91.8639 110.507L91.9892 110.777L91.45 111.188L91.243 110.798C91.0327 110.384 91.0194 110.004 91.3652 109.737Z" fill="black"/>
    <path fill-rule="evenodd" clip-rule="evenodd" d="M96.0934 80.031C96.6869 80.4451 97.7384 80.8864 97.7384 80.8864V80.1814L95.4219 79.2883C95.4219 79.2883 95.4219 79.5759 96.0934 80.031Z" fill="black"/>
    <path fill-rule="evenodd" clip-rule="evenodd" d="M97.7348 79.1816V78.4768L95.1064 77.5288C95.1064 77.5288 95.4185 77.8642 96.0901 78.3261C96.6835 78.7369 97.7348 79.1816 97.7348 79.1816Z" fill="black"/>
    <path fill-rule="evenodd" clip-rule="evenodd" d="M97.736 77.5804V76.8721L94.8564 75.8044C94.8564 75.8044 95.4195 76.263 96.091 76.7249C96.6845 77.139 97.736 77.5804 97.736 77.5804Z" fill="black"/>
    <path fill-rule="evenodd" clip-rule="evenodd" d="M105.823 87.2066H108.767C108.645 86.7753 108.187 86.3408 107.329 86.3408C106.515 86.3408 106.027 86.8131 105.823 87.2066Z" fill="black"/>
    <path fill-rule="evenodd" clip-rule="evenodd" d="M102.745 75.8044L99.8721 76.8721V77.5804C99.8721 77.5804 100.923 77.139 101.517 76.7249C102.185 76.263 102.745 75.8044 102.745 75.8044Z" fill="black"/>
    <path fill-rule="evenodd" clip-rule="evenodd" d="M102.185 79.2883L99.8721 80.1849V80.8898C99.8721 80.8898 100.923 80.4451 101.517 80.0343C102.185 79.5759 102.185 79.2883 102.185 79.2883Z" fill="black"/>
    <path fill-rule="evenodd" clip-rule="evenodd" d="M102.496 77.5288L99.8682 78.4768V79.1816C99.8682 79.1816 100.923 78.7402 101.513 78.3296C102.185 77.8642 102.496 77.5288 102.496 77.5288Z" fill="black"/>
    <path fill-rule="evenodd" clip-rule="evenodd" d="M90.27 86.3406C89.412 86.3406 88.9542 86.7751 88.832 87.2064H91.7793C91.569 86.8128 91.0874 86.3406 90.27 86.3406Z" fill="black"/>
    <path fill-rule="evenodd" clip-rule="evenodd" d="M104.65 73.9019C104.65 72.232 101.869 70.7366 98.7998 70.7366C95.7305 70.7366 92.9495 72.232 92.9495 73.9019L93.0139 74.3126L94.2347 81.4064L88.4353 84.8181C87.8181 85.1844 87.0448 86.1903 86.9465 87.2033H88.0046C88.1809 86.1903 88.9712 85.0679 90.4534 85.1364C91.793 85.2082 92.5865 86.0295 93.3734 87.2033L93.5769 87.5113L93.8686 87.9732H85.3389C85.9663 89.2428 86.5599 90.5911 86.5599 92.0523V109.946C86.5599 114.549 90.0634 116.742 93.8583 116.742C96.7887 116.742 97.1854 116.609 98.8033 118.241C100.414 116.609 100.811 116.742 103.748 116.742C107.54 116.742 111.047 114.549 111.047 109.946V92.0558C111.047 90.5946 111.64 89.2462 112.267 87.9766H103.731L104.026 87.5147L104.23 87.2067C105.013 86.033 105.81 85.2117 107.15 85.1398C108.625 85.0714 109.422 86.1938 109.595 87.2067H110.65C110.555 86.1938 109.778 85.1844 109.164 84.8216L103.365 81.4098L104.589 74.316L104.65 73.9019ZM94.1364 74.7163L98.464 76.2015V83.0352L95.2759 81.3449L94.1364 74.7163ZM95.2015 89.2155C95.7711 90.0025 96.6937 90.5842 97.7857 90.81C97.8773 91.2241 98.1012 91.6792 98.5352 92.0455C98.3555 93.2671 98.8744 94.4067 100.177 94.7078C100.312 95.3305 100.696 95.7994 101.337 96.0218L100.431 97.0758C100.085 97.4796 99.6341 97.6096 99.2611 97.5618L95.2184 97.0997C95.3947 96.648 94.9267 96.1244 93.648 96.3469L95.2387 91.8642L94.2687 89.7869L92.4305 91.368L92.2948 96.0698L91.5149 95.6831C90.4872 95.2382 90.1887 97.1099 91.1654 97.1168L91.5521 97.1203C91.5284 97.3119 91.586 97.524 91.7352 97.589C91.5521 97.6679 91.4979 98.0168 91.7284 98.1401C91.4945 98.2496 91.4639 98.6054 91.6505 98.7594C91.447 99.1051 91.4165 99.8544 92.1252 100.043C92.7053 100.197 93.0681 99.567 93.1868 99.2009L99.4747 101.165C100.367 101.422 100.998 101.278 101.737 100.624L103.378 99.177C103.171 100.125 103.511 100.977 104.226 101.261C104.226 101.261 104.124 102.113 104.155 102.493H87.7842V92.0558C87.7842 91.0839 87.5061 90.112 87.1737 89.2155H95.2015ZM101.964 93.1747C101.618 93.8421 101.652 94.6085 102.059 95.3032L101.788 95.5701C100.608 95.4229 100.143 93.6469 100.143 93.6469C100.119 93.8079 100.106 93.9618 100.109 94.1192C99.4204 93.8625 98.9864 93.2467 99.0202 92.4013C99.2814 92.5485 99.5731 92.6513 99.8851 92.7059L99.9666 92.1857C99.1424 92.042 98.6608 91.5219 98.4776 90.9059C98.4369 90.9024 98.403 90.8922 98.3656 90.8889C98.5116 90.8991 98.6573 90.9128 98.8066 90.9128C99.295 90.9128 99.7596 90.8374 100.194 90.7074C100.536 91.2002 101.143 91.5527 101.754 91.6212C101.655 92.0318 101.703 92.5417 101.964 93.1747ZM103.711 97.8696C103.592 98.0305 103.497 98.2154 103.436 98.4172L102.778 99.0264C102.91 98.0546 102.263 96.9081 101.672 96.4393L102.371 95.7481L102.51 95.8918C102.276 96.5111 102.734 97.726 103.711 97.8696ZM100.533 97.5653L101.076 97.0279C101.625 97.5138 102.351 98.5986 102.124 99.6322L101.533 100.18C101.411 100.299 101.286 100.385 101.157 100.464C101.527 99.543 101.055 98.1264 100.533 97.5653ZM99.3661 98.0203H99.3832C99.5799 98.0511 99.7901 98.0168 99.98 97.9381C100.394 98.5336 100.716 99.8887 100.221 100.734C99.9394 100.741 99.6646 100.69 99.4068 100.614L99.2034 100.552C99.6205 99.899 99.5629 98.7424 99.3661 98.0203ZM97.9994 97.8492L98.7625 97.945C98.8847 98.5849 98.8033 99.6902 98.3996 100.32L97.511 100.06C97.901 99.526 98.0842 98.4276 97.9994 97.8492ZM96.4089 97.6542L97.3347 97.7637C97.4262 98.2769 97.2533 99.3685 96.9039 99.8887L95.9611 99.615C96.3375 99.1119 96.4732 98.2256 96.4089 97.6542ZM92.6612 97.4042C92.2304 97.5446 92.0405 97.2297 92.0575 96.9629C92.902 96.6515 93.2784 96.8534 93.526 97.0108C93.7532 97.1545 93.9432 97.5653 94.2483 97.8218C94.1976 98.1708 94.0925 98.6773 93.9669 99.0162C93.1021 98.7936 93.058 98.0237 93.3802 97.5549C93.2003 97.3427 93.0105 97.2879 92.6612 97.4042ZM92.0575 99.1051C92.0575 99.1051 92.3151 99.2146 92.6408 99.2386C92.6035 99.4199 92.4645 99.591 92.244 99.543C92.0609 99.502 91.9795 99.2761 92.0575 99.1051ZM91.2062 96.6069C90.9925 96.4633 91.0875 96.1485 91.325 96.1485C91.586 96.1553 91.9319 96.453 92.2745 96.6001C92.2745 96.6001 91.3757 96.7234 91.2062 96.6069ZM92.0847 98.4207C92.2712 98.6021 92.8307 98.5336 92.8307 98.5336L92.8511 98.6465C92.6068 98.9749 91.9286 98.8279 92.0847 98.4207ZM92.8375 98.0477C92.4373 98.2085 92.0269 97.9894 92.1524 97.7294C92.339 97.9005 92.8579 97.815 92.8579 97.815L92.8375 98.0477ZM93.4277 93.3493L92.6612 96.1655L92.9224 91.6212L94.1093 90.5981L94.713 91.936L93.1868 96.3504L93.5905 93.3801C93.6278 93.1678 93.4615 93.1439 93.4277 93.3493ZM93.4819 96.7645C93.4819 96.7645 94.3365 96.7234 94.5774 96.8156C94.7538 96.891 94.635 97.1921 94.4043 97.158C94.1636 97.1271 93.4819 96.7645 93.4819 96.7645ZM94.8216 97.4488L95.7507 97.5653C95.8221 98.0784 95.6897 98.9477 95.3573 99.4336L94.4586 99.1701C94.696 98.5986 94.7538 98.0614 94.8216 97.4488ZM109.822 109.95C109.822 112.126 108.825 113.779 107.167 114.696L107.76 113.477H107.184L106.42 115.038C105.63 115.339 104.735 115.507 103.745 115.507C100.719 115.507 99.919 115.63 98.7998 116.756C97.6771 115.63 96.8769 115.507 93.855 115.507C92.8714 115.507 91.9762 115.346 91.1893 115.045H91.2096L91.9727 113.477H91.3996L90.7315 114.85C90.5719 114.774 90.4159 114.692 90.2668 114.603L90.8162 113.477H90.2464L89.8395 114.316C88.5438 113.354 87.7807 111.849 87.7807 109.95V103.105H109.815V109.95H109.822ZM110.436 89.2155C110.094 90.112 109.819 91.0839 109.819 92.0558V102.493H108.615C108.069 101.959 107.608 100.18 107.608 100.18C107.309 100.82 107.652 102.116 107.97 102.493H106.42C106.037 101.969 105.705 100.115 105.705 100.115C105.24 100.648 105.535 102.089 105.824 102.493H104.793C104.728 101.75 104.938 100.943 104.938 100.943C104.399 100.843 103.826 100.556 103.829 99.9537C104.101 100.21 104.213 100.207 104.589 100.2L105.027 99.851C103.575 99.899 103.507 98.2906 104.66 97.5377C103.511 97.5753 102.653 96.8843 103.07 95.6522C102.252 95.2244 101.964 93.8284 102.568 93.2158C102.13 92.7367 102.059 91.7956 102.337 91.1558C101.757 91.1558 101.106 90.923 100.743 90.5226C100.716 90.5363 100.682 90.5466 100.651 90.5568C101.377 90.2592 101.991 89.7938 102.405 89.2189H110.436V89.2155ZM106.047 84.1919C104.854 84.4008 103.826 85.8755 102.985 87.2067L102.89 87.3606H101.991L101.988 87.5182C101.896 88.5446 100.93 89.9375 98.7998 89.9375C97.8163 89.9375 97.0736 89.6329 96.5648 89.2189C96.1239 88.8561 95.8457 88.4079 95.7101 87.9801C95.6592 87.8262 95.6287 87.6686 95.6151 87.5182L95.6084 87.3606H94.7164L94.6214 87.2067C93.7769 85.879 92.7494 84.404 91.5589 84.1919L94.8113 82.2858L98.8066 84.476L102.795 82.2858L106.047 84.1919ZM102.324 81.3449L99.1389 83.0352V76.2015L103.467 74.7163L102.324 81.3449ZM98.8033 75.4555L94.0721 73.57C94.4722 72.6118 96.3273 71.7939 98.8033 71.7939C101.276 71.7939 103.127 72.6118 103.528 73.57L98.8033 75.4555Z" fill="black"/>
    <path fill-rule="evenodd" clip-rule="evenodd" d="M109.317 95.9598L109.327 95.4361C107.736 95.3985 107.37 93.5061 107.37 93.5061C106.905 94.8988 108.12 95.9391 109.317 95.9598Z" fill="black"/>
    <path fill-rule="evenodd" clip-rule="evenodd" d="M107.309 99.1659L107.149 98.6699C105.793 99.0189 105.091 96.8494 105.091 96.8494C104.657 98.4269 106.169 99.5426 107.309 99.1659Z" fill="black"/>
    <path fill-rule="evenodd" clip-rule="evenodd" d="M108.252 97.1539C106.63 97.414 105.966 95.5115 105.966 95.5115C105.786 96.5483 106.451 97.5988 107.526 97.7082C107.282 99.0602 108.526 99.7546 109.605 99.2721L109.449 98.8C108.513 99.1182 107.634 98.1839 108.252 97.1539Z" fill="black"/>
    <path fill-rule="evenodd" clip-rule="evenodd" d="M107.281 91.7236L107.295 91.2C105.155 90.7552 105.335 89.27 105.335 89.27C104.873 90.6696 106.087 91.7032 107.281 91.7236Z" fill="black"/>
    <path fill-rule="evenodd" clip-rule="evenodd" d="M93.7215 113.478L92.9551 115.045H93.5315L94.2947 113.478H93.7215Z" fill="black"/>
    <path fill-rule="evenodd" clip-rule="evenodd" d="M94.8783 113.477L94.1152 115.044H94.6952L95.4514 113.477H94.8783Z" fill="black"/>
    <path fill-rule="evenodd" clip-rule="evenodd" d="M99.5112 113.478L98.748 115.045H99.3213L100.088 113.478H99.5112Z" fill="black"/>
    <path fill-rule="evenodd" clip-rule="evenodd" d="M100.67 113.477L99.9004 115.044H100.48L101.24 113.477H100.67Z" fill="black"/>
    <path fill-rule="evenodd" clip-rule="evenodd" d="M98.3542 113.478L97.5879 115.045H98.1642L98.9273 113.478H98.3542Z" fill="black"/>
    <path fill-rule="evenodd" clip-rule="evenodd" d="M105.121 115.044H105.698L106.461 113.477H105.884L105.121 115.044Z" fill="black"/>
    <path fill-rule="evenodd" clip-rule="evenodd" d="M96.0385 113.478L95.2754 115.045H95.8519L96.6149 113.478H96.0385Z" fill="black"/>
    <path fill-rule="evenodd" clip-rule="evenodd" d="M97.1927 113.477L96.4297 115.044H97.0096L97.7727 113.477H97.1927Z" fill="black"/>
    <path fill-rule="evenodd" clip-rule="evenodd" d="M94.5727 105.052C94.4676 105.052 94.376 105.155 94.376 105.289C94.376 105.419 94.4676 105.525 94.5727 105.525C94.6813 105.525 94.7762 105.419 94.7762 105.289C94.7729 105.155 94.6813 105.052 94.5727 105.052Z" fill="black"/>
    <path fill-rule="evenodd" clip-rule="evenodd" d="M98.8033 69.6794C101.177 69.6794 103.08 70.4732 104.128 71.3254C104.128 71.3254 104.443 69.4227 105.505 67.7529L103.592 67.9684L102.591 65.8193L100.669 66.8288L98.8033 64.9604L96.9379 66.8288L95.0081 65.8193L94.0077 67.9684L92.0947 67.7529C93.1597 69.4227 93.4717 71.3254 93.4717 71.3254C94.5231 70.4732 96.4291 69.6794 98.8033 69.6794ZM94.3365 68.8239L95.249 66.8733L96.9379 67.7802L98.8033 65.9221L100.669 67.7802L102.358 66.8733L103.26 68.8239L104.382 68.6494C104.094 69.1935 103.877 69.6691 103.677 70.3364C102.449 69.6144 100.624 69.0567 98.8033 69.0567C96.9752 69.0567 95.154 69.6144 93.9261 70.3364C93.7228 69.6691 93.5091 69.1935 93.2174 68.6494L94.3365 68.8239Z" fill="black"/>
    <path fill-rule="evenodd" clip-rule="evenodd" d="M100.756 65.8355C101.034 65.8595 101.282 65.6473 101.306 65.37C101.333 65.0894 100.926 64.3435 100.926 64.3435C100.926 64.3435 100.319 65.004 100.298 65.2846C100.271 65.5584 100.481 65.8081 100.756 65.8355Z" fill="black"/>
    <path fill-rule="evenodd" clip-rule="evenodd" d="M103.889 66.9821C104.136 67.1154 104.438 67.0163 104.571 66.7664C104.706 66.52 104.618 65.6748 104.618 65.6748C104.618 65.6748 103.811 66.041 103.679 66.2907C103.55 66.5372 103.645 66.8451 103.889 66.9821Z" fill="black"/>
    <path fill-rule="evenodd" clip-rule="evenodd" d="M96.8464 65.8355C97.1278 65.8081 97.3347 65.5617 97.311 65.2846C97.2839 65.004 96.6836 64.3435 96.6836 64.3435C96.6836 64.3435 96.2799 65.0929 96.3038 65.37C96.3241 65.6473 96.5716 65.8595 96.8464 65.8355Z" fill="black"/>
    <path fill-rule="evenodd" clip-rule="evenodd" d="M93.7162 66.9821C93.9638 66.8451 94.0554 66.5372 93.9265 66.2907C93.7976 66.041 92.9871 65.6748 92.9871 65.6748C92.9871 65.6748 92.9024 66.52 93.038 66.7664C93.1634 67.0163 93.4687 67.1154 93.7162 66.9821Z" fill="black"/>
    <path fill-rule="evenodd" clip-rule="evenodd" d="M131.31 84.3667C131.978 84.1271 132.493 83.4838 132.751 82.8884C131.052 82.6421 126.538 80.7291 122.827 82.2861C124.218 80.955 125.466 80.7839 125.585 78.8676C126.161 79.2851 127.135 79.5212 127.684 78.5255C127.301 77.3858 126.334 78.3098 126.199 77.9949C126.009 77.5569 127.416 78.1284 127.718 76.6468C126.623 76.2668 126.297 77.1702 126.1 76.9615C125.921 76.763 126.795 76.3831 126.151 75.189C125.011 75.863 125.605 76.6194 125.364 76.7048C125.073 76.8213 125.303 75.8938 124.042 75.9384C123.916 77.3037 125.225 77.3482 125.011 77.5638C124.75 77.8273 124.411 76.7802 123.458 77.3106C123.475 78.4125 124.36 79.018 125.273 78.758C125.124 80.8524 123.218 80.4622 121.8 82.8234C124.805 84.377 126.165 87.0872 128.013 88.9625C128.624 88.5245 129.668 86.5808 129.668 86.5808C131.669 88.1447 133.077 86.5875 133.077 86.5875C132.388 85.8759 132.361 85.3351 131.31 84.3667ZM128.393 84.7465C128.6 85.2086 129.01 86.8203 128.03 88.0489C126.914 85.8005 125.381 83.874 124.14 83.0425C123.869 82.8645 124.289 82.5531 125.056 82.4505C127.365 82.009 130.075 82.9945 131.364 83.3402C130.763 83.7918 130.275 83.9972 129.661 84.0724C130.597 84.8664 131.283 85.537 131.764 86.2831C130.859 86.5123 130.346 85.934 128.393 84.7465Z" fill="black"/>
    <path fill-rule="evenodd" clip-rule="evenodd" d="M109.1 119.699V117.139C107.14 118.046 104.647 118.782 101.439 119.073L101.293 119.986C101.564 120.024 101.91 120.058 102.371 120.089C101.184 120.253 99.6477 120.332 98.8066 120.332C97.9621 120.332 96.4292 120.253 95.2387 120.089C95.6965 120.058 96.0426 120.024 96.3139 119.986L96.1682 119.073C92.9597 118.782 90.4635 118.046 88.5066 117.139V119.699L85.8477 120.801C87.8183 121.834 90.0837 122.676 92.7019 123.357L92.3899 124.428C93.889 124.873 96.2867 125.325 98.7998 125.325C101.313 125.325 103.707 124.87 105.21 124.428L104.901 123.357C107.516 122.676 109.788 121.834 111.759 120.801L109.1 119.699ZM87.2687 120.859L89.063 120.13V118.046C90.216 118.494 91.7286 118.96 93.8991 119.415L92.8817 122.758C90.667 122.245 88.7848 121.554 87.2687 120.859ZM98.8033 124.712C96.7785 124.712 94.8013 124.407 93.1123 123.987L94.1874 120.479C94.8996 120.647 96.6835 120.866 98.8033 120.866C100.926 120.866 102.7 120.643 103.416 120.479L104.494 123.987C102.798 124.407 100.825 124.712 98.8033 124.712ZM104.728 122.758L103.711 119.415C105.881 118.963 107.394 118.494 108.547 118.046V120.13L110.338 120.859C108.822 121.554 106.946 122.245 104.728 122.758Z" fill="black"/>
    <path fill-rule="evenodd" clip-rule="evenodd" d="M67.9367 86.5808C67.9367 86.5808 68.9812 88.5245 69.5885 88.9625C71.4403 87.0907 72.8035 84.3804 75.805 82.8234C74.384 80.4622 72.478 80.8593 72.3355 78.758C73.2478 79.018 74.1297 78.409 74.15 77.3106C73.1935 76.7802 72.8545 77.8342 72.5968 77.5638C72.383 77.3415 73.6887 77.3037 73.5667 75.9384C72.3051 75.8973 72.5357 76.8213 72.2405 76.7048C72.0031 76.6194 72.5968 75.8597 71.4539 75.189C70.8128 76.3866 71.6912 76.763 71.5081 76.9615C71.3147 77.1702 70.9822 76.2702 69.8903 76.6468C70.1853 78.1284 71.5996 77.5569 71.4096 77.9949C71.2739 78.3098 70.3108 77.3858 69.9309 78.5255C70.4737 79.5245 71.4504 79.2885 72.0235 78.871C72.1455 80.7906 73.3902 80.9515 74.7842 82.2861C71.0705 80.7291 66.5565 82.6421 64.8504 82.8919C65.1117 83.4838 65.6272 84.1272 66.2953 84.3598C65.2438 85.3386 65.2168 85.8792 64.5283 86.5875C64.5283 86.5875 65.9323 88.1447 67.9367 86.5808ZM65.834 86.2865C66.319 85.5405 67.0007 84.8664 67.9435 84.0759C67.3263 83.9972 66.8414 83.7918 66.2376 83.3402C67.5297 82.9945 70.243 82.0055 72.556 82.4505C73.3156 82.5531 73.7431 82.8645 73.4649 83.0425C72.2237 83.874 70.6873 85.8005 69.5714 88.0489C68.5947 86.8203 69.0084 85.212 69.2086 84.75C67.2584 85.934 66.7499 86.5123 65.834 86.2865Z" fill="black"/>
    <path fill-rule="evenodd" clip-rule="evenodd" d="M97.1777 85.1528V86.2788C97.5609 85.8099 98.3072 85.9023 98.3072 85.9023V87.5278C98.3072 87.5278 98.28 88.3285 98.0019 88.6707H98.8058H99.6095C99.328 88.3285 99.3042 87.5278 99.3042 87.5278V85.9057C99.3042 85.9057 100.047 85.8133 100.43 86.282V85.1563H98.8058H97.1777V85.1528Z" fill="black"/>
    <path d="M162.303 89.2824V75.9207H170.127V71.0584H148.781V75.9207H156.605V89.2824H162.303ZM177.914 81.6637V71.0584H172.407V89.2824H177.269L186.764 78.6773V89.2824H192.271V71.0584H187.41L177.914 81.6637ZM210.799 82.5059V89.2824H216.307V71.0584H210.799V77.72H201.949V71.0584H196.442V89.2824H201.949V82.5059H210.799ZM231.644 89.2824C232.897 89.2824 234.037 89.1675 235.1 88.8612C237.949 88.0571 239.81 85.7217 239.81 82.5441C239.81 79.5196 238.215 77.4139 235.67 76.4566C234.455 75.9973 233.012 75.9589 231.644 75.9589H225.985V71.0584H220.478V89.2824H231.644ZM230.695 80.2471C231.454 80.2471 232.176 80.2471 232.821 80.4766C233.733 80.783 234.265 81.5486 234.265 82.4675C234.265 83.4248 233.733 84.2286 232.86 84.6116C232.252 84.8795 231.644 84.8795 230.695 84.8795H225.985V80.2471H230.695ZM249.685 82.3908L256.256 89.2824H263.586L254.433 79.7875L263.244 71.0584H256.331L249.685 77.9117H248.165V71.0584H242.658V89.2824H248.165V82.3908H249.685ZM274.918 70.5607C267.512 70.5607 263.068 74.7721 263.068 80.2087C263.068 85.6451 267.512 89.8567 274.918 89.8567C282.287 89.8567 286.731 85.6451 286.731 80.2087C286.731 74.7721 282.287 70.5607 274.918 70.5607ZM274.918 85.4156C271.234 85.4156 268.879 83.1948 268.879 80.2087C268.879 77.2224 271.234 75.04 274.918 75.04C278.564 75.04 280.957 77.2224 280.957 80.2087C280.957 83.1948 278.564 85.4156 274.918 85.4156ZM305.072 70.0247H299.565V71.8624C292.652 72.0157 288.512 74.9636 288.512 80.1705C288.512 85.3772 292.652 88.0956 299.565 88.2486V90.0864H305.072V88.2486C312.022 88.0956 316.162 85.3772 316.162 80.1705C316.162 74.9636 312.022 72.0157 305.072 71.8624V70.0247ZM299.565 84.3436C295.766 84.1904 294.095 82.6205 294.095 80.1705C294.095 77.72 295.766 75.9589 299.565 75.8058V84.3436ZM305.072 75.8058C308.908 75.9589 310.541 77.72 310.541 80.1705C310.541 82.6205 308.908 84.1904 305.072 84.3436V75.8058ZM334.485 70.0247H328.978V71.8624C322.065 72.0157 317.925 74.9636 317.925 80.1705C317.925 85.3772 322.065 88.0956 328.978 88.2486V90.0864H334.485V88.2486C341.435 88.0956 345.576 85.3772 345.576 80.1705C345.576 74.9636 341.435 72.0157 334.485 71.8624V70.0247ZM328.978 84.3436C325.18 84.1904 323.508 82.6205 323.508 80.1705C323.508 77.72 325.18 75.9589 328.978 75.8058V84.3436ZM334.485 75.8058C338.322 75.9589 339.955 77.72 339.955 80.1705C339.955 82.6205 338.322 84.1904 334.485 84.3436V75.8058Z" fill="black"/>
    <path d="M152.648 116.646L152.837 116.693L153.12 116C153.309 115.537 153.584 114.903 153.945 114.095C154.307 113.28 154.669 112.528 155.03 111.839L159.699 102.975H162.305V118.574H160.206V109.84C160.206 107.764 160.324 106.118 160.56 104.903L160.324 104.856C160.088 105.601 159.841 106.275 159.581 106.878C159.322 107.481 158.948 108.249 158.461 109.182L153.509 118.574H150.88V102.975H152.979V111.956C152.979 113.829 152.869 115.392 152.648 116.646Z" fill="black"/>
    <path d="M167.846 118.574H165.795V106.537H167.846V111.545H172.916V106.537H174.968V118.574H172.916V113.296H167.846V118.574Z" fill="black"/>
    <path d="M178.198 118.574V106.537H183.421C184.435 106.537 185.276 106.784 185.944 107.278C186.612 107.764 186.946 108.512 186.946 109.523C186.946 110.118 186.734 110.679 186.31 111.204C185.885 111.729 185.268 112.081 184.459 112.262V112.438C184.978 112.469 185.433 112.579 185.826 112.767C186.227 112.947 186.538 113.175 186.758 113.449C186.978 113.723 187.139 114.009 187.241 114.307C187.351 114.597 187.406 114.895 187.406 115.2C187.406 115.945 187.206 116.591 186.805 117.14C186.412 117.681 185.838 118.069 185.084 118.304C184.533 118.484 183.802 118.574 182.891 118.574H178.198ZM180.202 116.964H183.056C183.771 116.964 184.333 116.811 184.742 116.505C185.158 116.192 185.367 115.718 185.367 115.083C185.367 114.464 185.146 114.009 184.706 113.719C184.274 113.422 183.747 113.273 183.126 113.273H180.202V116.964ZM180.202 111.662H182.69C183.319 111.662 183.85 111.502 184.282 111.18C184.722 110.859 184.942 110.404 184.942 109.817C184.942 109.245 184.757 108.825 184.388 108.559C184.026 108.285 183.559 108.148 182.985 108.148H180.202V111.662Z" fill="black"/>
    <path d="M198.878 114.577C198.949 115.878 198.568 116.909 197.735 117.669C196.901 118.429 195.777 118.809 194.363 118.809C193.514 118.809 192.763 118.652 192.111 118.339C191.458 118.018 190.932 117.571 190.531 116.999C190.138 116.427 189.839 115.769 189.635 115.024C189.438 114.28 189.34 113.457 189.34 112.556C189.34 111.678 189.446 110.867 189.658 110.122C189.87 109.37 190.177 108.708 190.578 108.136C190.987 107.564 191.517 107.117 192.17 106.796C192.83 106.467 193.577 106.302 194.41 106.302C195.392 106.302 196.229 106.537 196.921 107.007C197.613 107.47 198.116 108.077 198.43 108.829C198.745 109.574 198.902 110.424 198.902 111.38C198.902 111.921 198.87 112.383 198.808 112.767H191.439C191.462 114.248 191.749 115.357 192.299 116.094C192.857 116.83 193.584 117.199 194.481 117.199C195.196 117.199 195.801 116.983 196.296 116.552C196.791 116.121 197.008 115.463 196.945 114.577H198.878ZM194.315 107.936C193.474 107.936 192.806 108.234 192.311 108.829C191.816 109.425 191.533 110.252 191.462 111.31H196.874V111.157C196.874 110.107 196.65 109.307 196.202 108.759C195.754 108.21 195.125 107.936 194.315 107.936Z" fill="black"/>
    <path d="M210.433 113.954C210.519 115.443 210.185 116.627 209.431 117.504C208.676 118.374 207.552 118.809 206.059 118.809C205.17 118.809 204.396 118.66 203.736 118.363C203.084 118.057 202.557 117.622 202.156 117.058C201.763 116.493 201.468 115.839 201.272 115.095C201.083 114.342 200.989 113.496 200.989 112.556C200.989 111.709 201.083 110.922 201.272 110.193C201.468 109.456 201.763 108.794 202.156 108.206C202.549 107.619 203.08 107.156 203.748 106.819C204.416 106.474 205.186 106.302 206.059 106.302C207.458 106.302 208.566 106.729 209.383 107.583C210.209 108.43 210.551 109.582 210.409 111.039H208.381C208.507 110.052 208.342 109.292 207.886 108.759C207.438 108.226 206.829 107.959 206.059 107.959C205.123 107.959 204.392 108.363 203.866 109.17C203.347 109.977 203.087 111.106 203.087 112.556C203.087 114.068 203.355 115.22 203.889 116.012C204.424 116.803 205.163 117.199 206.106 117.199C207.772 117.199 208.546 116.117 208.428 113.954H210.433Z" fill="black"/>
    <path d="M217.047 118.574H214.996V108.3H211.388V106.537H220.643V108.3H217.047V118.574Z" fill="black"/>
    <path d="M224.876 118.574H222.506V106.537H224.51V111.427C224.51 113.958 224.365 115.729 224.074 116.74L224.322 116.811C224.408 116.615 224.55 116.27 224.746 115.776C224.951 115.283 225.186 114.734 225.454 114.131C225.729 113.527 226.051 112.865 226.42 112.144L229.344 106.537H231.714V118.574H229.71V113.684C229.71 111.122 229.851 109.35 230.134 108.371L229.899 108.3C229.812 108.496 229.667 108.841 229.462 109.335C229.266 109.828 229.03 110.377 228.755 110.98C228.488 111.584 228.169 112.246 227.8 112.967L224.876 118.574Z" fill="black"/>
    <path d="M234.933 106.537H236.937V116.811H241.937V106.537H243.941V116.811H245.344V121.56H243.575V118.574H234.933V106.537Z" fill="black"/>
    <path d="M249.801 118.574H247.431V106.537H249.435V111.427C249.435 113.958 249.29 115.729 248.999 116.74L249.247 116.811C249.333 116.615 249.475 116.27 249.671 115.776C249.875 115.283 250.111 114.734 250.378 114.131C250.654 113.527 250.976 112.865 251.345 112.144L254.269 106.537H256.639V118.574H254.635V113.684C254.635 111.122 254.776 109.35 255.059 108.371L254.823 108.3C254.737 108.496 254.592 108.841 254.387 109.335C254.191 109.828 253.955 110.377 253.68 110.98C253.412 111.584 253.094 112.246 252.725 112.967L249.801 118.574Z" fill="black"/>
    <path d="M262.228 118.574H259.858V106.537H261.862V111.427C261.862 113.958 261.717 115.729 261.426 116.74L261.674 116.811C261.76 116.615 261.902 116.27 262.098 115.776C262.302 115.283 262.538 114.734 262.805 114.131C263.081 113.527 263.403 112.865 263.772 112.144L266.696 106.537H269.066V118.574H267.062V113.684C267.062 111.122 267.203 109.35 267.486 108.371L267.25 108.3C267.164 108.496 267.019 108.841 266.814 109.335C266.618 109.828 266.382 110.377 266.107 110.98C265.839 111.584 265.521 112.246 265.152 112.967L262.228 118.574Z" fill="black"/>
</svg>
