<svg width="297" height="190" viewBox="0 0 297 190" fill="none" xmlns="http://www.w3.org/2000/svg">
    <rect width="297" height="190" rx="30" fill="white"/>
    <g clip-path="url(#clip0_2188_28881)">
        <mask id="mask0_2188_28881" style="mask-type:luminance" maskUnits="userSpaceOnUse" x="111" y="70" width="12" height="36">
            <path d="M112.696 70.5076C112.327 70.5504 111.986 70.7214 111.732 70.9905C111.477 71.2596 111.327 71.6094 111.307 71.9782V103.596C111.327 103.965 111.477 104.314 111.732 104.583C111.986 104.853 112.327 105.024 112.696 105.066H121.011C121.379 105.022 121.719 104.85 121.972 104.581C122.224 104.312 122.374 103.963 122.394 103.596V71.9782C122.374 71.6105 122.224 71.2616 121.972 70.9927C121.719 70.7237 121.379 70.552 121.011 70.5076H112.696Z" fill="white"/>
        </mask>
        <g mask="url(#mask0_2188_28881)">
            <path d="M111.858 68.1191L103.783 103.362L121.85 107.459L129.925 72.2157L111.858 68.1191Z" fill="url(#paint0_linear_2188_28881)"/>
        </g>
        <mask id="mask1_2188_28881" style="mask-type:luminance" maskUnits="userSpaceOnUse" x="72" y="70" width="36" height="36">
            <path d="M96.5242 70.5074C96.238 70.5108 95.9562 70.5787 95.7001 70.706C95.4441 70.8334 95.2204 71.0169 95.046 71.2427L88.3938 82.956H83.959V71.978C83.9257 71.5991 83.7593 71.244 83.4889 70.9751C83.2186 70.7062 82.8616 70.5406 82.4808 70.5074H74.3503C73.9716 70.5292 73.6136 70.6862 73.342 70.9496C73.0704 71.2131 72.9035 71.5652 72.8721 71.9413V103.596C72.9054 103.975 73.0718 104.33 73.3422 104.599C73.6125 104.868 73.9695 105.033 74.3503 105.066H82.4808C82.8622 105.035 83.2199 104.869 83.4905 104.6C83.7612 104.331 83.9272 103.975 83.959 103.596V92.5001H89.1329L95.7851 104.331C95.9568 104.56 96.1799 104.745 96.4366 104.873C96.6933 105.001 96.9764 105.067 97.2634 105.066H106.872C107.043 105.064 107.209 105.014 107.353 104.924C107.498 104.834 107.614 104.706 107.691 104.554C107.767 104.403 107.8 104.233 107.786 104.064C107.772 103.895 107.711 103.733 107.611 103.596L98.0025 87.3604L107.611 71.978C107.717 71.8423 107.782 71.6795 107.799 71.5084C107.816 71.3374 107.784 71.1651 107.707 71.0113C107.63 70.8576 107.51 70.7287 107.363 70.6396C107.215 70.5504 107.045 70.5046 106.872 70.5074H96.5242Z" fill="white"/>
        </mask>
        <g mask="url(#mask1_2188_28881)">
            <path d="M74.6137 62.9182L65.3496 103.352L106.326 112.643L115.59 72.2094L74.6137 62.9182Z" fill="url(#paint1_linear_2188_28881)"/>
        </g>
        <mask id="mask2_2188_28881" style="mask-type:luminance" maskUnits="userSpaceOnUse" x="188" y="70" width="37" height="36">
            <path d="M214.785 70.5076C214.405 70.5407 214.048 70.7063 213.777 70.9752C213.507 71.2442 213.34 71.5993 213.307 71.9782V88.1546L199.264 70.5076H189.655C189.274 70.5407 188.917 70.7063 188.647 70.9752C188.377 71.2442 188.21 71.5993 188.177 71.9782V103.596C188.21 103.975 188.377 104.33 188.647 104.599C188.917 104.868 189.274 105.033 189.655 105.066H197.785C198.167 105.035 198.525 104.87 198.795 104.6C199.066 104.331 199.232 103.975 199.264 103.596V87.3605L213.307 105.066H222.916C223.304 105.017 223.663 104.835 223.933 104.552C224.202 104.27 224.365 103.903 224.394 103.515V71.9414C224.361 71.5659 224.194 71.2146 223.923 70.9515C223.651 70.6883 223.294 70.5308 222.916 70.5076H214.785Z" fill="white"/>
        </mask>
        <g mask="url(#mask2_2188_28881)">
            <path d="M189.972 62.6984L180.657 103.354L222.613 112.868L231.928 72.2118L189.972 62.6984Z" fill="url(#paint2_linear_2188_28881)"/>
        </g>
        <mask id="mask3_2188_28881" style="mask-type:luminance" maskUnits="userSpaceOnUse" x="126" y="70" width="58" height="36">
            <path d="M155.455 80.0516C162.211 80.0516 168.966 79.8972 171.886 79.3163C172.174 79.2575 172.625 79.3163 172.625 80.0516V94.7575C172.625 95.4928 172.159 95.4928 171.886 95.4928C169.594 95.2134 164.805 95.2207 159.542 95.2207H155.455C148.648 95.2207 141.463 95.1105 138.625 95.5222C138.344 95.5222 137.886 95.5222 137.886 94.7869V80.081C137.886 79.3457 138.344 79.2943 138.625 79.3457C141.803 79.956 148.234 80.081 154.479 80.081H155.455M128.277 70.5222C127.885 70.5222 127.509 70.6772 127.232 70.9529C126.955 71.2287 126.799 71.6028 126.799 71.9928V103.61C126.799 104 126.955 104.375 127.232 104.65C127.509 104.926 127.885 105.081 128.277 105.081H182.234C182.626 105.081 183.002 104.926 183.279 104.65C183.556 104.375 183.712 104 183.712 103.61V71.9928C183.712 71.6028 183.556 71.2287 183.279 70.9529C183.002 70.6772 182.626 70.5222 182.234 70.5222H128.277Z" fill="white"/>
        </mask>
        <g mask="url(#mask3_2188_28881)">
            <path d="M129.605 58.239L119.269 103.354L180.898 117.328L191.235 72.2133L129.605 58.239Z" fill="url(#paint3_linear_2188_28881)"/>
        </g>
        <mask id="mask4_2188_28881" style="mask-type:luminance" maskUnits="userSpaceOnUse" x="72" y="110" width="153" height="10">
            <path d="M123.333 116.382H126.762V114.912H123.333V116.382ZM87.2486 112.5V114.956H83.782V112.5H82.0229V118.993H83.782V116.375H87.2486V118.993H89.0003V112.5H87.2486ZM91.0625 112.5V115.191C91.0625 116.787 90.9294 117.449 90.0868 117.449H89.8651V118.993H90.3751C92.2746 118.993 92.7107 117.993 92.7107 115.191V113.919H95.4012V118.993H97.1307V112.5H91.0625ZM101.809 113.647L102.933 116.272H100.716L101.809 113.647ZM100.693 112.5L97.8699 118.993H99.5255L100.139 117.522H103.48L104.108 118.993H105.926L103.118 112.5H100.693ZM111.913 112.5L108.41 116.846V112.5H106.636V118.993H108.528L112.032 114.647V118.993H113.791V112.5H111.913ZM120.384 112.5V114.956H116.91V112.5H115.136V118.993H116.895V116.375H120.369V118.993H122.128V112.5H120.384ZM132.89 112.5L130.517 114.956H129.778V112.5H127.975V118.993H129.734V116.375H130.473L132.919 118.993H135.137L131.973 115.588L134.93 112.493L132.89 112.5ZM141.02 112.5L137.509 116.846V112.5H135.758V118.993H137.65L141.161 114.647V118.993H142.957V112.5H141.02ZM149.483 112.5V114.956H146.017V112.5H144.258V118.993H146.017V116.375H149.483V118.993H151.25V112.5H149.483ZM160.999 112.5V113.919H163.652V118.993H165.412V113.919H168.087V112.5H160.999ZM168.893 112.5V118.993H174.865V117.647H170.652V116.324H173.838V115.029H170.652V113.846H174.836V112.5H168.893ZM179.241 113.647L180.364 116.272H178.11L179.241 113.647ZM178.125 112.5L175.294 118.993H176.957L177.57 117.522H180.911L181.532 118.993H183.358L180.549 112.5H178.125ZM182.486 112.5V113.919H185.124V118.993H186.883V113.919H189.522V112.5H182.486ZM192.094 113.853H194.533C195.11 113.853 195.361 114.177 195.361 114.588V114.853C195.361 115.302 195.11 115.588 194.533 115.588H192.094V113.853ZM190.335 112.5V118.993H192.094V116.956H194.785C196.396 116.956 197.135 116.14 197.135 114.75C197.135 113.36 196.396 112.544 194.785 112.544L190.335 112.5ZM206.027 112.5L204.401 117.346L202.826 112.5H200.055V118.993H201.666V113.978L203.366 118.993H205.288L206.988 113.956V118.993H208.739V112.5H206.027ZM209.552 112.5V113.919H212.184V118.993H213.95V113.919H216.596V112.5H209.552ZM74.602 116.074V115.39C74.602 114.147 75.3781 113.721 76.8933 113.721C78.4086 113.721 79.1699 114.147 79.1699 115.39V116.074C79.1699 117.39 78.4307 117.765 76.8933 117.765C75.356 117.765 74.602 117.382 74.602 116.074ZM72.8281 115.706C72.8281 118.294 74.3064 119.125 76.8933 119.125C79.4803 119.125 80.9586 118.294 80.9586 115.706C80.9586 113.118 79.4803 112.368 76.8933 112.368C74.3064 112.368 72.8281 113.184 72.8281 115.706ZM154.132 116.074V115.39C154.132 114.147 154.909 113.721 156.416 113.721C157.924 113.721 158.7 114.147 158.7 115.39V116.074C158.7 117.39 157.961 117.765 156.416 117.765C154.872 117.765 154.132 117.382 154.132 116.074ZM152.351 115.706C152.351 118.294 153.829 119.125 156.416 119.125C159.003 119.125 160.489 118.294 160.489 115.706C160.489 113.118 159.011 112.368 156.416 112.368C153.822 112.368 152.351 113.184 152.351 115.706ZM216.959 115.757C216.959 118.302 218.37 119.125 220.758 119.125C222.931 119.125 224.232 118.485 224.453 116.809H222.679C222.487 117.544 221.829 117.765 220.78 117.765C219.56 117.765 218.755 117.441 218.755 116.125V115.39C218.755 114.037 219.59 113.735 220.772 113.735C221.955 113.735 222.517 113.934 222.672 114.765H224.446C224.269 113 222.968 112.382 220.75 112.382C218.363 112.382 216.951 113.25 216.951 115.772M110.975 110.544C110.975 111.059 110.709 111.279 110.184 111.279C109.659 111.279 109.445 111.096 109.445 110.544H108.003C108.003 111.64 108.742 112.184 110.184 112.184C111.625 112.184 112.349 111.64 112.401 110.544H110.975Z" fill="white"/>
        </mask>
        <g mask="url(#mask4_2188_28881)">
            <path d="M216.265 76.5791L70.875 111.009L80.9481 153.105L226.338 118.675L216.265 76.5791Z" fill="url(#paint4_linear_2188_28881)"/>
        </g>
    </g>
    <defs>
        <linearGradient id="paint0_linear_2188_28881" x1="111.521" y1="112.293" x2="129.53" y2="32.8689" gradientUnits="userSpaceOnUse">
            <stop stop-color="#3973B9"/>
            <stop offset="0.03" stop-color="#3973B9"/>
            <stop offset="0.08" stop-color="#355DA8"/>
            <stop offset="0.16" stop-color="#334093"/>
            <stop offset="0.21" stop-color="#303189"/>
            <stop offset="0.24" stop-color="#2E2B86"/>
            <stop offset="0.47" stop-color="#C40D71"/>
            <stop offset="0.5" stop-color="#C81163"/>
            <stop offset="0.53" stop-color="#CB1353"/>
            <stop offset="0.57" stop-color="#CE1445"/>
            <stop offset="0.61" stop-color="#D01437"/>
            <stop offset="0.65" stop-color="#D2132C"/>
            <stop offset="0.7" stop-color="#D31323"/>
            <stop offset="0.76" stop-color="#D4131D"/>
            <stop offset="0.84" stop-color="#D41319"/>
            <stop offset="1" stop-color="#D51317"/>
        </linearGradient>
        <linearGradient id="paint1_linear_2188_28881" x1="86.3549" y1="106.588" x2="104.364" y2="27.1638" gradientUnits="userSpaceOnUse">
            <stop stop-color="#3973B9"/>
            <stop offset="0.03" stop-color="#3973B9"/>
            <stop offset="0.08" stop-color="#355DA8"/>
            <stop offset="0.16" stop-color="#334093"/>
            <stop offset="0.21" stop-color="#303189"/>
            <stop offset="0.24" stop-color="#2E2B86"/>
            <stop offset="0.47" stop-color="#C40D71"/>
            <stop offset="0.5" stop-color="#C81163"/>
            <stop offset="0.53" stop-color="#CB1353"/>
            <stop offset="0.57" stop-color="#CE1445"/>
            <stop offset="0.61" stop-color="#D01437"/>
            <stop offset="0.65" stop-color="#D2132C"/>
            <stop offset="0.7" stop-color="#D31323"/>
            <stop offset="0.76" stop-color="#D4131D"/>
            <stop offset="0.84" stop-color="#D41319"/>
            <stop offset="1" stop-color="#D51317"/>
        </linearGradient>
        <linearGradient id="paint2_linear_2188_28881" x1="196.53" y1="131.573" x2="214.539" y2="52.1489" gradientUnits="userSpaceOnUse">
            <stop stop-color="#3973B9"/>
            <stop offset="0.03" stop-color="#3973B9"/>
            <stop offset="0.08" stop-color="#355DA8"/>
            <stop offset="0.16" stop-color="#334093"/>
            <stop offset="0.21" stop-color="#303189"/>
            <stop offset="0.24" stop-color="#2E2B86"/>
            <stop offset="0.47" stop-color="#C40D71"/>
            <stop offset="0.5" stop-color="#C81163"/>
            <stop offset="0.53" stop-color="#CB1353"/>
            <stop offset="0.57" stop-color="#CE1445"/>
            <stop offset="0.61" stop-color="#D01437"/>
            <stop offset="0.65" stop-color="#D2132C"/>
            <stop offset="0.7" stop-color="#D31323"/>
            <stop offset="0.76" stop-color="#D4131D"/>
            <stop offset="0.84" stop-color="#D41319"/>
            <stop offset="1" stop-color="#D51317"/>
        </linearGradient>
        <linearGradient id="paint3_linear_2188_28881" x1="148.01" y1="120.637" x2="166.019" y2="41.2128" gradientUnits="userSpaceOnUse">
            <stop stop-color="#3973B9"/>
            <stop offset="0.03" stop-color="#3973B9"/>
            <stop offset="0.08" stop-color="#355DA8"/>
            <stop offset="0.16" stop-color="#334093"/>
            <stop offset="0.21" stop-color="#303189"/>
            <stop offset="0.24" stop-color="#2E2B86"/>
            <stop offset="0.46" stop-color="#C40D71"/>
            <stop offset="0.5" stop-color="#C81163"/>
            <stop offset="0.53" stop-color="#CB1353"/>
            <stop offset="0.57" stop-color="#CE1445"/>
            <stop offset="0.61" stop-color="#D01437"/>
            <stop offset="0.65" stop-color="#D2132C"/>
            <stop offset="0.7" stop-color="#D31323"/>
            <stop offset="0.76" stop-color="#D4131D"/>
            <stop offset="0.84" stop-color="#D41319"/>
            <stop offset="1" stop-color="#D51317"/>
        </linearGradient>
        <linearGradient id="paint4_linear_2188_28881" x1="44.1801" y1="139.554" x2="369.585" y2="61.687" gradientUnits="userSpaceOnUse">
            <stop stop-color="#3973B9"/>
            <stop offset="0.03" stop-color="#3973B9"/>
            <stop offset="0.06" stop-color="#3970B7"/>
            <stop offset="0.07" stop-color="#3768B1"/>
            <stop offset="0.08" stop-color="#355DA8"/>
            <stop offset="0.16" stop-color="#334093"/>
            <stop offset="0.21" stop-color="#303189"/>
            <stop offset="0.24" stop-color="#2E2B86"/>
            <stop offset="0.47" stop-color="#C40D71"/>
            <stop offset="0.5" stop-color="#C81163"/>
            <stop offset="0.53" stop-color="#CB1353"/>
            <stop offset="0.57" stop-color="#CE1445"/>
            <stop offset="0.61" stop-color="#D01437"/>
            <stop offset="0.65" stop-color="#D2132C"/>
            <stop offset="0.7" stop-color="#D31323"/>
            <stop offset="0.76" stop-color="#D4131D"/>
            <stop offset="0.84" stop-color="#D41319"/>
            <stop offset="1" stop-color="#D41319"/>
        </linearGradient>
        <clipPath id="clip0_2188_28881">
            <rect width="153" height="50" fill="white" transform="translate(72 70)"/>
        </clipPath>
    </defs>
</svg>
