<svg width="406" height="190" viewBox="0 0 406 190" fill="none" xmlns="http://www.w3.org/2000/svg">
    <rect width="406" height="190" rx="30" fill="white"/>
    <path d="M109.515 89.0569H117.899V69.5493H129.413V62.4505H98V69.5493H109.515V89.0569Z" fill="black"/>
    <path d="M141.153 89.0569V62.4505H132.769V89.0569H141.153Z" fill="black"/>
    <path d="M154.779 62.4505H147.289V89.0569H155.002V74.3563L169.367 89.0569H176.522V62.4505H168.808V77.0393L154.779 62.4505Z" fill="black"/>
    <path d="M190.765 78.9956H193.001L202.671 89.0569H213.459L199.988 75.1947L212.956 62.4505H202.783L193.001 72.4558H190.765V62.4505H182.66V89.0569H190.765V78.9956Z" fill="black"/>
    <path d="M230.136 61.7239C219.236 61.7239 212.696 67.8724 212.696 75.8096C212.696 83.7468 219.236 89.8953 230.136 89.8953C240.979 89.8953 247.519 83.7468 247.519 75.8096C247.519 67.8724 240.979 61.7239 230.136 61.7239ZM230.136 83.4114C224.714 83.4114 221.248 80.1694 221.248 75.8096C221.248 71.4497 224.714 68.2637 230.136 68.2637C235.502 68.2637 239.023 71.4497 239.023 75.8096C239.023 80.1694 235.502 83.4114 230.136 83.4114Z" fill="black"/>
    <path d="M278.033 69.2139V62.4505H251.37V89.0569H259.475V79.6105H277.362V74.0209H259.475V69.2139H278.033Z" fill="black"/>
    <path d="M308 69.2139V62.4505H281.338V89.0569H289.443V79.6105H307.329V74.0209H289.443V69.2139H308Z" fill="black"/>
    <rect x="161.434" y="97.7322" width="83.1325" height="30.1297" rx="15.0648" fill="black"/>
    <path d="M173.209 104.314V121.208H178.355V116.666H183.786C185.063 116.666 186.305 116.63 187.512 116.24C189.855 115.494 191.594 113.4 191.594 110.561C191.594 107.722 189.89 105.663 187.583 104.847C186.305 104.385 185.099 104.314 183.786 104.314H173.209ZM178.355 108.396H183.04C184.034 108.396 184.602 108.502 185.063 108.68C185.88 108.999 186.27 109.745 186.27 110.525C186.27 111.377 185.809 112.194 184.921 112.478C184.495 112.619 183.998 112.69 183.04 112.69H178.355V108.396Z" fill="white"/>
    <path d="M208.626 115.707C210.578 114.784 212.069 112.974 212.069 110.49C212.069 107.615 210.471 105.663 208.164 104.847C206.887 104.385 205.68 104.314 204.367 104.314H193.719V121.208H198.866V116.666H203.515L206.745 121.208H212.53L208.626 115.707ZM203.586 108.396C204.544 108.396 205.112 108.502 205.538 108.68C206.354 108.999 206.745 109.638 206.745 110.525C206.745 111.484 206.248 112.194 205.396 112.478C204.97 112.619 204.509 112.69 203.586 112.69H198.866V108.396H203.586Z" fill="white"/>
    <path d="M224.982 103.853C218.061 103.853 213.909 107.757 213.909 112.797C213.909 117.837 218.061 121.741 224.982 121.741C231.867 121.741 236.02 117.837 236.02 112.797C236.02 107.757 231.867 103.853 224.982 103.853ZM224.982 117.624C221.539 117.624 219.339 115.565 219.339 112.797C219.339 110.029 221.539 108.006 224.982 108.006C228.389 108.006 230.625 110.029 230.625 112.797C230.625 115.565 228.389 117.624 224.982 117.624Z" fill="white"/>
</svg>
