<svg width="297" height="190" viewBox="0 0 297 190" fill="none" xmlns="http://www.w3.org/2000/svg">
    <rect width="297" height="190" rx="30" fill="white"/>
    <path d="M209.198 104.212C212.665 104.212 215.432 103.651 218.128 102.426V97.3553C218.128 97.2556 218.021 97.1938 217.933 97.2401C215.138 98.7079 212.586 99.3432 209.197 99.3432C205.099 99.3432 202.998 97.3815 202.998 93.5993C202.998 89.8171 205.1 87.8553 209.197 87.8553C212.586 87.8553 215.138 88.4906 217.933 89.9584C218.021 90.0047 218.128 89.9429 218.128 89.8432V84.7726C215.431 83.5471 212.664 82.9866 209.198 82.9866C201.774 82.9866 197.501 86.8388 197.501 93.5981C197.501 100.357 201.774 104.21 209.198 104.21V104.212Z" fill="#FF5500"/>
    <path d="M195.008 93.9494C195.008 86.3494 190.351 83.0232 183.662 83.0232C176.378 83.0232 171.965 87.0156 171.965 93.5302C171.965 101.551 176.938 104.212 184.152 104.212C188.529 104.212 191.997 103.511 194.379 102.566V97.7054C194.379 97.6057 194.276 97.5428 194.187 97.5879C192.461 98.4464 188.536 99.4843 184.222 99.4843C180.429 99.4843 178.045 98.2553 177.509 95.2461H194.716C194.824 95.2461 194.918 95.1678 194.933 95.0609C194.985 94.6939 195.011 94.3092 195.011 93.9506L195.008 93.9494ZM183.662 87.5761C187.056 87.5761 188.927 89.0984 189.619 91.3238H177.613C178.202 88.9191 180.033 87.5761 183.662 87.5761Z" fill="#FF5500"/>
    <path d="M159.526 82.9878C155.868 82.9878 153.374 84.4164 151.821 86.536C151.781 86.5895 151.7 86.5645 151.697 86.498L151.61 83.5483H146.393V110.69H151.751V100.761C151.751 100.695 151.834 100.667 151.874 100.721C153.43 102.805 155.909 104.211 159.526 104.211C165.725 104.211 169.577 99.7636 169.577 93.5993C169.577 87.435 165.725 82.9878 159.526 82.9878ZM157.915 99.3432C154.307 99.3432 151.751 97.0668 151.751 93.5993C151.751 90.1318 154.307 87.8554 157.915 87.8554C161.803 87.8554 163.939 90.0617 163.939 93.5993C163.939 97.1369 161.803 99.3432 157.915 99.3432Z" fill="#FF5500"/>
    <path d="M129.333 103.686H134.691V88.4168H143.656V83.5481H120.367V88.4168H129.333V103.686Z" fill="#0A1E78"/>
    <path d="M100.96 94.7071V83.5481H95.5664V104.008C95.5664 104.296 95.8942 104.462 96.1269 104.293L112.307 92.5042V103.686H117.7V83.2251C117.7 82.9366 117.372 82.7703 117.14 82.9401L100.96 94.7071Z" fill="#0A1E78"/>
    <path d="M66.3086 103.928C64.8111 103.928 63.7139 103.859 63.7139 103.859V99.0201H64.5843C65.5984 99.0201 66.3584 98.7779 66.8655 98.2945C67.3726 97.8112 67.7466 97.0215 67.9889 95.9267C68.2311 94.833 68.4211 93.1907 68.5589 91.0009C68.6503 89.4572 68.7429 86.98 68.8356 83.5695C68.8581 82.5103 68.8926 81.1732 68.9389 79.5605H90.5526V103.687H84.6079V84.193H74.4999C74.4762 84.516 74.4192 85.7949 74.3277 88.0298C74.2814 89.5973 74.2351 90.5877 74.19 91.0021C73.9822 94.3437 73.6592 96.9016 73.2222 98.6757C72.784 100.451 72.0347 101.769 70.9754 102.634C69.915 103.498 68.3594 103.93 66.3097 103.93L66.3086 103.928Z" fill="#0A1E78"/>
    <path d="M230.204 83.5302C230.052 83.5302 230.009 83.6241 230.116 83.7321C230.707 84.3235 231.074 85.1405 231.074 86.0466C231.074 86.9526 230.708 87.7649 230.121 88.3562C230.007 88.4714 230.043 88.5617 230.257 88.5617H242.915C243.632 87.9608 244.092 87.0571 244.092 86.0454C244.092 85.0336 243.632 84.1299 242.914 83.5291H230.203L230.204 83.5302Z" fill="#0A1E78"/>
    <path d="M230.204 91.0923C230.052 91.0923 230.009 91.1861 230.116 91.2941C230.707 91.8855 231.074 92.7025 231.074 93.6086C231.074 94.5146 230.708 95.3269 230.121 95.9183C230.007 96.0334 230.043 96.1237 230.257 96.1237H237.982C238.699 95.5228 239.159 94.6191 239.159 93.6074C239.159 92.5956 238.699 91.6919 237.981 91.0911H230.203L230.204 91.0923Z" fill="#0A1E78"/>
    <path d="M230.203 98.6543C230.042 98.6543 230.006 98.7457 230.12 98.8597C230.709 99.4511 231.074 100.266 231.074 101.171C231.074 102.075 230.708 102.889 230.12 103.48C230.006 103.595 230.043 103.686 230.257 103.686H233.049C233.766 103.085 234.225 102.181 234.225 101.169C234.225 100.158 233.766 99.254 233.047 98.6531H230.203V98.6543Z" fill="#0A1E78"/>
    <path d="M253.107 83.5303C252.577 83.5303 251.345 83.5303 249.71 83.5303C250.428 84.1311 250.887 85.0325 250.888 86.0466C250.888 87.0607 250.428 87.962 249.71 88.5629C251.345 88.5629 252.577 88.5629 253.107 88.5629C253.826 87.9632 254.285 87.0607 254.285 86.0466C254.285 85.0325 253.826 84.1311 253.107 83.5303Z" fill="#FF5500"/>
    <path d="M249.709 83.5303C249.178 83.5303 247.947 83.5303 246.312 83.5303C247.03 84.1311 247.488 85.0325 247.49 86.0466C247.49 87.0607 247.03 87.962 246.312 88.5629C247.947 88.5629 249.178 88.5629 249.709 88.5629C250.427 87.9632 250.887 87.0607 250.887 86.0466C250.887 85.0325 250.427 84.1311 249.709 83.5303Z" fill="#6262D9"/>
    <path d="M253.108 91.0923C252.577 91.0923 246.413 91.0923 244.777 91.0923C245.496 91.6932 245.954 92.5945 245.955 93.6086C245.955 94.6227 245.496 95.524 244.777 96.1249C246.413 96.1249 252.577 96.1249 253.108 96.1249C253.826 95.5252 254.286 94.6227 254.286 93.6086C254.286 92.5945 253.826 91.6932 253.108 91.0923Z" fill="#FF5500"/>
    <path d="M244.776 91.0923C244.246 91.0923 243.014 91.0923 241.379 91.0923C242.097 91.6932 242.556 92.5945 242.557 93.6086C242.557 94.6227 242.097 95.524 241.379 96.1249C243.014 96.1249 244.246 96.1249 244.776 96.1249C245.495 95.5252 245.954 94.6227 245.954 93.6086C245.954 92.5945 245.495 91.6932 244.776 91.0923Z" fill="#6262D9"/>
    <path d="M246.311 83.5303C245.781 83.5303 244.549 83.5303 242.914 83.5303C243.632 84.1311 244.091 85.0325 244.092 86.0466C244.092 87.0607 243.632 87.962 242.914 88.5629C244.549 88.5629 245.781 88.5629 246.311 88.5629C247.03 87.9632 247.49 87.0607 247.49 86.0466C247.49 85.0325 247.03 84.1311 246.311 83.5303Z" fill="#3D3DC7"/>
    <path d="M241.378 91.0923C240.847 91.0923 239.616 91.0923 237.98 91.0923C238.699 91.6932 239.157 92.5945 239.158 93.6086C239.158 94.6227 238.699 95.524 237.98 96.1249C239.616 96.1249 240.847 96.1249 241.378 96.1249C242.096 95.5252 242.556 94.6227 242.556 93.6086C242.556 92.5945 242.096 91.6932 241.378 91.0923Z" fill="#3D3DC7"/>
    <path d="M253.108 98.6543C252.577 98.6543 241.48 98.6543 239.844 98.6543C240.562 99.2552 241.021 100.156 241.022 101.171C241.022 102.185 240.562 103.086 239.844 103.687C241.479 103.687 252.577 103.687 253.108 103.687C253.827 103.087 254.286 102.185 254.286 101.171C254.286 100.156 253.827 99.2552 253.108 98.6543Z" fill="#FF5500"/>
    <path d="M239.844 98.6543C239.313 98.6543 238.081 98.6543 236.446 98.6543C237.165 99.2552 237.623 100.156 237.624 101.171C237.624 102.185 237.165 103.086 236.446 103.687C238.081 103.687 239.313 103.687 239.844 103.687C240.562 103.087 241.022 102.185 241.022 101.171C241.022 100.156 240.562 99.2552 239.844 98.6543Z" fill="#6262D9"/>
    <path d="M236.445 98.6543C235.914 98.6543 234.683 98.6543 233.048 98.6543C233.766 99.2552 234.225 100.156 234.226 101.171C234.226 102.185 233.766 103.086 233.048 103.687C234.683 103.687 235.914 103.687 236.445 103.687C237.164 103.087 237.623 102.185 237.623 101.171C237.623 100.156 237.164 99.2552 236.445 98.6543Z" fill="#3D3DC7"/>
</svg>
