<svg width="164" height="104" viewBox="0 0 164 104" fill="none" xmlns="http://www.w3.org/2000/svg">
    <rect width="164" height="104" rx="15" fill="white"/>
    <path d="M52.9698 47.8151C52.8874 47.7313 52.8391 47.6545 52.7708 47.5479C52.7353 47.4939 52.6969 47.4356 52.6542 47.373C52.7723 47.2366 52.8718 47.0788 52.9471 46.9054L53.2485 46.2188L52.5065 46.1122C52.3814 46.0937 52.1795 46.0411 51.9435 45.9786C51.4887 45.8592 50.9045 45.7056 50.2677 45.6389C50.4851 45.5436 50.67 45.3716 50.7992 45.1385L50.9215 44.9182C50.9215 44.9182 50.8888 44.6097 50.7694 44.5131C50.8149 44.4179 50.8504 44.3126 50.8747 44.1975L50.9755 43.7057L50.5007 43.5437C50.4269 43.5181 50.353 43.4996 50.2804 43.4882C50.2534 43.3987 50.2136 43.3034 50.1596 43.2025L49.8781 42.6865L49.3707 42.9836C49.2442 43.0575 49.1376 43.1428 49.0509 43.238C48.9755 43.2238 48.8945 43.2167 48.8092 43.2167C48.8092 43.2167 48.5192 43.184 48.1994 43.3006L47.79 42.8756L47.3053 42.3582C46.8519 41.8735 46.2378 41.7299 45.6123 41.9687C45.3735 41.7299 45.0011 41.5323 44.4226 41.5323C44.2264 41.5323 44.0544 41.5564 43.9535 41.5693C43.9535 41.5693 43.1574 41.7142 42.7097 42.1392L42.1667 41.8806C41.8028 42.4534 41.1802 42.6354 41.1802 42.6354C41.1376 42.4676 41.065 42.3112 40.9613 42.1677L40.9968 41.9659C40.9968 41.9602 41.119 41.2765 41.4915 40.6965L42.1397 39.6872L41.2214 39.791C41.2242 39.7001 41.22 39.592 41.2072 39.4641L41.1247 38.6794L40.4055 39.005C40.3259 39.0405 40.259 39.076 40.1965 39.1087L40.0544 38.806L39.7246 38.9765C39.6919 38.8955 39.6493 38.8031 39.591 38.6965L39.2115 38L38.6727 38.5814C38.6172 38.6411 38.5703 38.6965 38.5305 38.7491L38.2036 38.4236L37.8739 38.7505C37.8326 38.6979 37.7871 38.6425 37.7317 38.5828L37.1873 38L36.8063 38.6994C36.748 38.806 36.7068 38.8969 36.6741 38.9779L36.3458 38.8074L36.2036 39.1102C36.141 39.0775 36.0742 39.0419 35.9946 39.005L35.2725 38.6809L35.1929 39.4684C35.1801 39.5949 35.1759 39.7014 35.1787 39.7924L34.259 39.6887L34.9086 40.6979C35.2825 41.2765 35.4019 41.9602 35.4019 41.9659L35.436 42.1677C35.3323 42.3127 35.2583 42.469 35.2171 42.6367C35.2171 42.6367 34.6286 42.3852 34.2348 41.8806L33.6805 42.1449C33.048 41.7185 32.6556 41.5522 31.9733 41.5323C31.3947 41.5167 31.0223 41.7299 30.7835 41.9687C30.1567 41.7313 29.544 41.8749 29.092 42.3596C29.092 42.3596 28.7949 42.6823 28.6072 42.877C28.4196 43.0731 28.1424 43.2352 28.1424 43.2352C28.1424 43.2352 27.7487 43.1471 27.3436 43.2394C27.2569 43.1442 27.1488 43.0589 27.0209 42.9836L26.512 42.6865L26.2319 43.2053C26.178 43.3049 26.1396 43.3987 26.114 43.4882C26.0415 43.4996 25.9676 43.5181 25.8937 43.5437L25.4217 43.7085L25.5198 44.1975C25.544 44.3155 25.5781 44.4207 25.625 44.5159C25.598 44.5685 25.5739 44.624 25.5539 44.6822L25.4743 44.9196L25.5951 45.14C25.7231 45.3716 25.9064 45.5451 26.1254 45.6403C25.4871 45.7071 24.9043 45.8606 24.4481 45.98C24.2135 46.0411 24.0116 46.0952 23.8866 46.1136L23.1417 46.2217L23.3108 46.6054L23.4459 46.9111C23.5226 47.0817 23.6236 47.2395 23.7401 47.3759C23.696 47.4384 23.5084 47.7327 23.4246 47.8165L23.0479 48.1989L23.4089 48.5969C23.4544 48.6452 23.8595 49.0703 24.5148 49.0717C24.6939 49.0717 24.8716 49.0404 25.0479 48.9779C25.2227 49.2508 25.4302 49.528 25.6193 49.6644C25.271 50.0738 24.8744 50.4292 24.3102 50.6978L23.8382 50.9225L24.0415 51.4611C24.1737 51.7866 24.431 52.1434 24.9285 52.2799C24.8219 52.5983 24.7707 52.8997 24.7252 53.1683C24.6186 53.8065 24.5731 54.0709 24.0116 54.2685L23.507 54.4448L23.652 54.9593C23.7686 55.3786 23.9434 55.6559 24.1324 55.8392L23.797 56.2088C23.797 56.2088 24.593 56.8058 25.3734 56.8783C25.3847 56.8798 26.05 56.9224 26.3485 56.5414C26.4679 56.9735 26.657 57.3716 26.829 57.7326C27.1815 58.4746 27.3692 58.9138 27.1332 59.3146L26.6001 60.2187L27.6478 60.1746C28.1055 60.1561 28.5305 60.1277 28.8986 60.0367C28.8986 60.0567 28.8973 60.0751 28.8958 60.0936L28.8105 60.8697L29.7288 60.6764C29.8255 60.648 29.9164 60.6096 29.9989 60.5655C30.5674 61.2308 31.534 61.7496 32.8362 61.7496H32.9115L31.4146 62.3636L32.5049 62.9308C33.2227 63.3047 34.0203 63.6174 34.93 63.8832L34.8034 64.3197L35.3507 64.4802C35.6663 64.5726 36.8077 64.8754 38.1979 64.8754C39.5881 64.8754 40.7281 64.5726 41.0451 64.4802L41.591 64.3197L41.4644 63.8846C42.3756 63.6188 43.1731 63.3061 43.8909 62.9323L44.9812 62.3651L43.4829 61.751H43.5583C44.8604 61.751 45.8255 61.2322 46.3941 60.5669C46.4766 60.611 46.5676 60.6494 46.6642 60.6778L47.5824 60.8712L47.4986 60.0965C47.4971 60.0779 47.4958 60.0581 47.4958 60.0382C47.8625 60.1292 48.289 60.1561 48.7452 60.1761L49.7928 60.2201L49.2627 59.3175C49.0252 58.9167 49.2143 58.4775 49.5655 57.7355C49.7374 57.3744 49.9265 56.9763 50.0459 56.5443C50.2477 56.6978 50.4652 56.7901 50.6813 56.8385C50.6813 56.8385 50.849 56.8883 51.0096 56.8925C51.473 56.9067 51.7048 56.7745 52.0231 56.5741L52.6017 56.2102L52.2634 55.8407C52.4524 55.6587 52.6273 55.3815 52.7438 54.9636L52.8902 54.4476L52.3842 54.2714C51.8213 54.0737 51.7772 53.8094 51.6707 53.1711C51.6252 52.9025 51.5754 52.5998 51.4674 52.2827C51.9649 52.1449 52.2207 51.788 52.353 51.464L52.5548 50.9238L52.0829 50.6992C51.5185 50.4306 51.1219 50.0752 50.7723 49.6658C50.9627 49.5294 51.1703 49.2522 51.3465 48.9793C51.5213 49.0419 51.6991 49.0717 51.8796 49.0731C52.5349 49.0731 52.9414 48.6481 52.9855 48.5997L53.3465 48.2017L52.9698 47.8151Z" fill="white"/>
    <path fill-rule="evenodd" clip-rule="evenodd" d="M33.5782 54.8199V50.4845C33.5782 50.0808 33.4616 49.6771 33.3223 49.3062H36.687C36.9954 49.7297 37.5554 50.0139 38.198 50.0139C38.8376 50.0139 39.3976 49.7297 39.7075 49.3062H43.0722C42.93 49.6785 42.8149 50.0808 42.8149 50.4845V54.8199H33.5782ZM38.1965 60.7445C37.726 60.2769 37.3905 60.2257 36.1226 60.2257C34.6073 60.2257 33.5782 59.3373 33.5782 57.9173V55.0744H42.8135V57.9173C42.8135 59.3373 41.7857 60.2257 40.2676 60.2257C39.0011 60.2243 38.6656 60.2769 38.1965 60.7445Z" fill="#FFDD2D"/>
    <path d="M34.1142 61.2803V62.146L33.3623 62.4487C33.9976 62.7373 34.7866 63.0244 35.7134 63.2362L36.1398 61.8474C35.2302 61.6612 34.5961 61.4665 34.1142 61.2803Z" fill="white"/>
    <path d="M38.1968 62.4536C37.3083 62.4536 36.5606 62.3612 36.2621 62.293L35.8115 63.75C36.5194 63.9234 37.3481 64.0513 38.1968 64.0513C39.0425 64.0513 39.8712 63.9248 40.582 63.75L40.13 62.293C39.8314 62.3626 39.0866 62.4536 38.1968 62.4536Z" fill="white"/>
    <path d="M42.2795 61.2803C41.7962 61.4665 41.1637 61.6598 40.2539 61.8489L40.6818 63.2376C41.6101 63.0258 42.3961 62.7387 43.0315 62.4502L42.281 62.1474V61.2803H42.2795Z" fill="white"/>
    <path d="M32.5397 47.3148C33.7167 46.6795 36.5937 45.2808 34.6434 43.7726C34.3777 43.5679 34.0849 43.3831 33.8389 43.1543C33.5348 43.3888 33.9527 43.9716 34.0578 44.1848C34.0578 44.1848 33.4082 44.2502 33.2533 44.2502C32.2497 44.2459 31.1978 43.6518 31.7309 42.5132C31.3315 42.5956 31.2831 42.9794 31.1609 43.3078C30.905 43.1344 30.4601 42.762 30.1175 42.8146C30.3961 43.7057 31.5689 44.5089 32.4785 44.6908C31.5589 45.1912 29.8531 45.5636 28.9562 44.4861C28.3265 45.7044 29.2035 46.2132 30.0635 46.8514C26.7899 48.3454 27.2732 50.0213 25.1253 51.3404C25.4039 51.4711 26.6463 51.2082 26.7572 51.1926C26.2909 51.7967 26.0734 52.0526 25.937 52.3468C25.8062 52.6225 25.7479 52.9339 25.6186 53.6048C25.5176 54.135 25.3328 54.6637 24.6875 55.0149C24.9406 55.4725 25.502 55.1143 25.7366 55.0532C25.7052 55.1016 25.6256 55.6531 25.4153 55.9189C26.5183 55.8478 26.008 53.5223 27.1111 54.0824C27.4224 54.2388 27.5163 54.6055 27.3726 54.9054C26.6477 56.4008 28.2952 57.7184 28.2056 59.029C28.6108 59.0262 29.0301 59.0149 29.2945 58.4676C29.4324 58.7405 29.6456 59.1243 29.765 59.4938L30.0948 58.9324C30.298 59.862 31.1652 60.7206 32.3365 60.7974C31.7778 59.9132 32.4473 58.7064 31.0898 57.4228C31.2589 57.2863 31.6499 57.0234 31.7892 56.8443C30.1232 57.0404 28.3847 55.7227 29.1737 55.0973C29.6896 54.6894 29.9157 55.5365 30.7117 55.3944L30.4004 55.1257C30.5098 55.0176 30.6349 54.877 30.7643 54.7704C30.426 54.7292 30.0564 54.5131 30.0564 54.5131L30.2582 54.179C28.3066 54.1762 28.2568 52.6837 29.0499 52.624C29.4224 52.597 29.9043 53.2835 31.1054 53.1399C30.9519 52.9552 30.8908 52.6752 30.8183 52.4691C31.1083 52.442 31.4495 52.4449 31.7238 52.3113C31.1367 52.2359 30.9889 52.0383 30.4999 51.6688L31.0671 51.4613C30.244 51.0504 30.2938 50.3355 30.2682 49.5906C30.6989 49.8379 31.205 50.2217 31.7451 50.044C31.873 50.0014 31.9555 49.9417 31.9583 49.8081C31.1879 49.4997 30.6933 48.3127 32.5397 47.3148ZM31.1339 47.4314C30.1033 48.533 30.5496 49.1926 30.7572 49.3958C30.3733 49.3134 29.8006 48.8244 29.9313 48.3511C29.8091 48.4975 29.684 48.6567 29.5561 48.8202C29.3002 49.1613 29.0713 49.4954 28.8681 49.8195C28.5553 50.7491 29.1282 51.7086 30.1033 52.1336C29.0201 51.9744 28.534 51.0107 28.5369 50.3966C28.0194 51.3746 27.7721 52.2672 27.7948 53.0163C27.8048 53.2949 27.8289 53.555 27.8659 53.8009C28.1147 54.2729 28.5141 54.4463 29.2262 54.533C28.5795 54.5742 28.2369 54.5443 27.9555 54.2487C28.3961 56.1435 30.4572 57.7838 31.296 59.1882C30.4558 58.0966 28.7174 56.4705 28.109 55.2949C28.0621 55.7199 28.1758 56.8087 28.7046 57.4782C27.9256 56.7121 27.8645 55.5521 27.9157 54.8727C27.7181 54.3837 27.593 53.8379 27.5759 53.2167C27.5603 52.6453 27.6001 52.1492 27.6868 51.7043C27.1949 52.4037 26.4842 52.6737 26.1345 53.7384C26.2028 52.3652 27.2277 52.344 27.9953 50.6766C28.2923 49.9474 28.7244 49.3177 29.2021 48.6041C28.5951 48.8031 28.1403 48.9452 27.438 49.7142C27.937 48.5344 30.8197 47.2083 32.1403 45.9246C31.7437 46.0086 30.1246 46.0497 29.4523 45.6006C30.6705 45.9303 33.3812 45.5537 34.4047 44.8543C33.6982 45.8706 32.1602 45.9289 30.2881 47.9503C30.5269 47.7597 30.8453 47.5679 31.1339 47.4314Z" fill="white"/>
    <path d="M50.7749 53.6046C50.6456 52.9337 50.5887 52.6224 50.4579 52.3466C50.3229 52.0524 50.1039 51.7966 49.6363 51.1924C49.7472 51.2081 50.9924 51.4711 51.2696 51.3403C49.1217 50.0212 49.605 48.3452 46.33 46.8513C47.1899 46.2131 48.067 45.7042 47.4372 44.4846C46.5404 45.5635 44.8346 45.1911 43.9149 44.6893C44.826 44.5073 45.9973 43.7057 46.2759 42.813C45.9319 42.7604 45.487 43.1328 45.2312 43.3048C45.1089 42.9764 45.0619 42.5926 44.6625 42.5088C45.1956 43.6488 44.1423 44.2429 43.1373 44.2472C42.9838 44.2472 42.3356 44.1818 42.3356 44.1818C42.4394 43.9686 42.8573 43.3858 42.5517 43.1513C42.3058 43.3816 42.0158 43.5649 41.7486 43.7696C39.7969 45.2778 42.6768 46.6779 43.8537 47.3118C45.6974 48.3097 45.207 49.4967 44.4351 49.8008C44.438 49.9344 44.5204 49.9942 44.6498 50.0368C45.1871 50.2159 45.696 49.8321 46.1238 49.5834C46.0997 50.3282 46.1508 51.0446 45.3278 51.454L45.8936 51.6615C45.4046 52.0311 45.2581 52.2287 44.6711 52.304C44.944 52.4376 45.288 52.4348 45.5766 52.4618C45.5026 52.6679 45.4387 52.9479 45.288 53.1327C46.4906 53.2748 46.9739 52.5897 47.3435 52.6167C48.1338 52.6764 48.0869 54.1689 46.1338 54.1718L46.3356 54.5058C46.3356 54.5058 45.966 54.7219 45.6263 54.7631C45.7557 54.8683 45.8822 55.0105 45.9916 55.1185L45.6803 55.3872C46.4749 55.5293 46.7024 54.6821 47.2184 55.0901C48.0073 55.7155 46.2702 57.0331 44.6029 56.837C44.7436 57.0161 45.1345 57.2805 45.3036 57.417C43.9447 58.6991 44.6128 59.9073 44.057 60.7929C45.2255 60.7147 46.0926 59.8562 46.2987 58.9265L46.6285 59.488C46.7464 59.1184 46.9625 58.7347 47.0975 58.4617C47.3605 59.009 47.7827 59.0204 48.1893 59.0232C48.0968 57.7126 49.7429 56.395 49.0208 54.8996C48.8759 54.6011 48.9696 54.2344 49.281 54.0766C50.3868 53.5165 49.8737 55.8421 50.9782 55.9131C50.7664 55.6472 50.6882 55.0958 50.6583 55.0474C50.8914 55.1086 51.4516 55.4667 51.7045 55.0076C51.0635 54.6636 50.8787 54.1348 50.7749 53.6046ZM48.7095 51.7027C48.7962 52.1491 48.8402 52.6437 48.8204 53.2152C48.8019 53.8363 48.6782 54.3822 48.4806 54.8711C48.5304 55.5506 48.4707 56.7105 47.6917 57.4767C48.2191 56.8058 48.3342 55.7184 48.2873 55.2933C47.6761 56.4688 45.9391 58.095 45.0975 59.1867C45.9376 57.7823 47.9987 56.1405 48.4408 54.2471C48.1565 54.5413 47.8168 54.5727 47.1686 54.5315C47.8793 54.4447 48.2788 54.2713 48.5275 53.7994C48.5645 53.5549 48.5887 53.2933 48.5986 53.0148C48.6228 52.2656 48.374 51.3729 47.8566 50.395C47.8609 51.0091 47.3747 51.9728 46.2902 52.132C47.2625 51.7056 47.8367 50.7461 47.5254 49.8179C47.3235 49.4938 47.0962 49.1583 46.8374 48.8186C46.7095 48.6551 46.5844 48.4959 46.4608 48.3495C46.5915 48.8228 46.0187 49.3118 45.6348 49.3943C45.8438 49.191 46.2888 48.5314 45.2596 47.4298C45.5481 47.5663 45.8666 47.7582 46.1068 47.9458C44.2347 45.9245 42.6981 45.8677 41.9888 44.8499C43.0136 45.5493 45.7244 45.9274 46.9412 45.5961C46.2702 46.0453 44.6498 46.0041 44.2532 45.9202C45.5737 47.2038 48.4593 48.5301 48.9569 49.7099C48.2546 48.9408 47.7983 48.7987 47.1942 48.5997C47.6732 49.3147 48.1025 49.943 48.3996 50.6722C49.1686 52.3395 50.1949 52.3595 50.2617 53.734C49.9121 52.6721 49.2027 52.4021 48.7095 51.7027Z" fill="white"/>
    <path d="M39.7066 49.3047C39.3981 49.7283 38.8367 50.0125 38.1984 50.0125C38.0491 50.0125 37.9055 49.9955 37.7691 49.9699C37.8075 50.1448 37.8971 50.3253 38.0832 50.4802C38.0079 50.9876 38.2268 51.4624 38.7713 51.5861C38.8295 51.8449 38.9888 52.0396 39.2589 52.1319L38.8792 52.5698C38.7329 52.7375 38.5424 52.7915 38.3889 52.7716L36.6945 52.5797C36.7684 52.3921 36.5722 52.1746 36.0349 52.267L36.7002 50.4049L36.295 49.5421L35.5261 50.1988L35.4692 52.1518L35.138 51.9913C34.7115 51.8064 34.585 52.584 34.9916 52.5868L35.155 52.5882C35.1437 52.6678 35.1692 52.756 35.2332 52.7844C35.1564 52.8157 35.1337 52.9592 35.229 53.0104C35.1323 53.0573 35.1181 53.2052 35.1962 53.2692C35.1124 53.4127 35.0967 53.724 35.3939 53.8022C35.6383 53.8661 35.7918 53.6045 35.8416 53.4525L38.4784 54.2684C38.8494 54.375 39.1167 54.3153 39.4266 54.0438L40.1146 53.4425C40.0278 53.8363 40.1685 54.1902 40.4685 54.3082C40.4685 54.3082 40.4216 54.6692 40.4401 54.8185L41.3626 54.8199H42.8153V50.4845C42.8153 50.0808 42.9305 49.6771 43.0727 49.3047H41.3626H39.7066Z" fill="white"/>
    <path d="M35.7577 56.6001L35.8089 56.6641C35.8799 56.7523 35.9226 56.7309 36.0036 56.6841L36.123 56.6201C36.1983 56.5632 36.6888 56.7509 36.7157 56.3429C36.7698 56.6471 36.4073 57.2881 36.6262 57.6464L36.9204 58.1283L35.9595 58.1425C35.8544 58.1425 35.7989 58.2064 35.7705 58.2633L35.5188 58.785C35.4534 58.9228 35.4577 59.065 35.5402 59.1602L35.7108 59.3521C35.7108 59.3521 35.8501 59.2342 35.8955 59.0792L35.8202 59.001C35.7577 58.9413 35.7577 58.8844 35.7918 58.8105L35.9467 58.4893C36.0064 58.3628 36.0675 58.3358 36.204 58.3685L36.9816 58.5362C37.0384 58.5505 37.1308 58.5774 37.1862 58.4822C37.2815 58.313 37.4492 58.3017 37.6198 58.3287C38.0462 58.3926 39.0314 58.495 39.3824 58.0842C39.7946 58.6315 40.6006 58.6315 40.5481 58.9185L40.3775 59.8596H40.6333L40.7897 58.8973C40.8067 58.785 40.8764 58.6315 40.7556 58.5448C40.7058 58.5064 40.6831 58.4865 40.5707 58.2931C40.4244 58.0373 40.4315 57.6535 40.2907 57.3223C40.4244 57.1645 40.5693 57.1105 40.6958 57.1403C40.9801 57.21 41.0569 57.7004 41.4606 58.0998C41.4151 57.9221 41.3953 57.7274 41.3 57.5582C41.3 57.5582 41.58 57.7757 41.6525 58.0301C41.698 58.1894 41.7449 58.3059 41.8885 58.3799C41.9837 58.4139 42.0974 58.3685 42.2112 58.232C42.2112 58.232 41.9453 57.8539 41.7506 57.6066C41.4834 57.2668 41.1265 56.9257 40.6405 56.9655C40.4869 56.9783 40.3391 57.0479 40.1984 57.1318C39.6454 56.8219 39.2161 57.1503 39.0455 57.1503L38.0107 57.0891C37.8074 57.0764 37.6468 56.8404 37.6468 56.8404C37.6212 55.9648 36.9176 55.6165 36.6745 55.6165C36.6745 55.6165 36.6973 55.4587 36.6333 55.4033L36.4172 55.6748L35.8173 55.4559L36.2879 55.8411L35.7775 56.4339C35.725 56.4922 35.7321 56.5689 35.7577 56.6001Z" fill="white"/>
    <path d="M35.0791 57.8296C34.9341 57.9418 34.9412 58.0982 35.0279 58.2731L35.1146 58.4351L35.3406 58.2631L35.2895 58.1522C35.2525 58.0741 35.254 57.9944 35.3179 57.9447L35.642 57.7002C35.733 57.6334 35.7614 57.6263 35.8581 57.6405L36.5418 57.7841C36.5418 57.7841 36.438 57.6334 36.4039 57.4799L35.76 57.3946C35.669 57.3832 35.6136 57.4216 35.534 57.4827L35.0791 57.8296Z" fill="white"/>
    <path d="M39.4521 59.8587H39.7109L40.1259 58.8367C40.1401 58.8011 40.16 58.7855 40.1757 58.7557C39.9895 58.6817 39.88 58.6306 39.7251 58.541C39.8289 58.6803 39.9099 58.74 39.8672 58.8694L39.4521 59.8587Z" fill="white"/>
    <path d="M39.6721 46.0355L40.1511 43.2822L38.3359 43.8991V46.7378L39.6721 46.0355ZM38.6429 44.1777L39.8469 43.7343C39.8469 43.7343 39.6124 43.9247 39.3324 44.1166C39.0836 44.2886 38.6429 44.472 38.6429 44.472V44.1777ZM38.6429 44.8444L39.7446 44.4506C39.7446 44.4506 39.6124 44.59 39.3338 44.7819C39.085 44.9524 38.6444 45.1358 38.6444 45.1358V44.8444H38.6429ZM38.6429 45.5523L39.6124 45.1798C39.6124 45.1798 39.6124 45.2978 39.3324 45.4883C39.0836 45.6603 38.6429 45.8437 38.6429 45.8437V45.5523Z" fill="white"/>
    <path d="M36.4423 48.4703L36.4821 48.5343H36.8559L36.8602 48.5997C36.8645 48.6623 36.8787 48.7262 36.9 48.7916C36.9583 48.9693 37.0734 49.1555 37.2582 49.3062C37.4728 49.4796 37.7827 49.6047 38.1949 49.6047C39.0891 49.6047 39.4928 49.0262 39.5312 48.5997L39.534 48.5343H39.9092L39.949 48.4703C40.3016 47.9189 40.7323 47.3062 41.2326 47.2181L39.868 46.4263L38.1949 47.336L36.5204 46.4263L35.1572 47.2181C35.6576 47.3048 36.0883 47.9189 36.4423 48.4703Z" fill="white"/>
    <path d="M38.0545 46.7378V43.8991L36.2422 43.2822L36.7183 46.0355L38.0545 46.7378ZM37.7489 45.8465C37.7489 45.8465 37.3082 45.6618 37.0595 45.4912C36.7795 45.3007 36.7795 45.1813 36.7795 45.1813L37.7503 45.5537V45.8465H37.7489ZM37.7489 44.1777V44.472C37.7489 44.472 37.3082 44.2886 37.0595 44.1166C36.7781 43.9247 36.5421 43.7343 36.5421 43.7343L37.7489 44.1777ZM37.7489 44.8444V45.1372C37.7489 45.1372 37.3082 44.9539 37.0595 44.7833C36.7781 44.5914 36.6473 44.4521 36.6473 44.4521L37.7489 44.8444Z" fill="white"/>
    <path d="M38.1969 42.0684C37.1606 42.0684 36.3831 42.4081 36.2139 42.8061L38.1969 43.5893L40.177 42.8061C40.0092 42.4081 39.2331 42.0684 38.1969 42.0684Z" fill="white"/>
    <path d="M38.1976 40.9309C38.961 40.9309 39.7257 41.1626 40.2403 41.4626C40.3242 41.1854 40.4137 40.9878 40.536 40.7618L40.0669 40.8343L39.6873 40.0241L38.9781 40.4008L38.1976 39.6289L37.4158 40.4008L36.7079 40.0241L36.3256 40.8343L35.8564 40.7618C35.9787 40.9878 36.0668 41.1854 36.1536 41.4626C36.6696 41.1626 37.4315 40.9309 38.1976 40.9309Z" fill="white"/>
    <path d="M51.1328 47.1713C51.3887 47.1387 51.5948 47.0534 51.8464 46.8657C51.3048 46.7222 50.1704 46.3114 49.2024 46.4961C48.8826 46.5388 48.705 46.6681 48.8186 46.742C49.3389 47.0875 49.9814 47.8877 50.4491 48.8217C50.8599 48.3113 50.6879 47.6418 50.6011 47.4499C51.4199 47.9432 51.6346 48.1834 52.0141 48.0896C51.8108 47.7783 51.5251 47.4983 51.1328 47.1713Z" fill="white"/>
    <path d="M25.9449 48.8201C26.4126 47.8863 27.0551 47.086 27.5768 46.7405C27.6933 46.6667 27.5128 46.5373 27.1958 46.4946C26.2264 46.3113 25.0892 46.7207 24.5476 46.8642C24.802 47.0519 25.0039 47.1372 25.2626 47.1699C24.8689 47.4982 24.5831 47.7768 24.3799 48.0881C24.7622 48.1819 24.9755 47.9417 25.7928 47.4484C25.709 47.6418 25.5355 48.3098 25.9449 48.8201Z" fill="white"/>
    <path fill-rule="evenodd" clip-rule="evenodd" d="M31.6213 57.4881C31.998 57.1896 32.3106 57.0403 32.2951 56.3168C31.7293 56.6067 30.1245 56.5911 29.4535 55.6672C29.2644 55.4042 29.4663 55.272 29.6496 55.4795C30.1088 55.9998 30.9588 55.7639 31.2687 55.6146C31.219 55.4355 31.0811 55.2024 30.966 55.1029C31.0826 54.9892 31.4109 54.8186 31.4777 54.5257C31.3028 54.4305 30.6219 54.3623 30.6219 54.3623C30.7315 54.2571 30.8678 54.1107 30.7855 53.7198C30.0903 53.9331 29.2303 53.643 29.0356 53.3858C28.8437 53.1327 29.0399 52.8954 29.2019 53.0631C29.5488 53.427 31.2573 53.8434 31.8928 53.2109C31.6568 53.1455 31.3967 52.9351 31.3497 52.8044C31.9383 52.7447 32.4073 52.3978 32.4457 51.9657C32.1202 51.9657 31.5061 51.9416 31.2957 51.7852C31.5772 51.6815 31.7563 51.5791 31.8458 51.2635C30.7698 51.1982 30.6845 50.3993 30.6788 50.2671C31.3796 50.6708 32.6134 50.4917 32.2936 49.4966C31.7108 49.4654 31.1238 48.523 32.7258 47.6573C34.1828 46.8684 35.8388 46.0184 35.6924 44.6183C35.5971 43.7227 34.1231 43.1115 33.9354 42.6581C33.3199 42.9509 33.1963 43.2906 33.4734 43.8606C33.4734 43.8606 32.1017 43.9971 31.9937 43.1527C31.9468 42.7746 32.1998 42.4206 32.4713 42.1492C32.3178 42.1492 31.2844 41.872 30.973 42.7135C30.3945 42.3183 29.8984 42.3326 29.509 42.7504C30.1315 43.12 30.5168 44.388 31.5459 44.7618C30.8138 45.1584 29.6298 44.9921 28.9389 43.7724C28.285 44.7575 27.9084 45.7326 29.3114 46.7746C26.7598 47.9359 26.7783 50.1562 24.5579 51.2137C24.7825 51.8179 25.2573 51.8179 25.8629 51.7241C24.9033 52.9707 25.7207 54.2756 24.2012 54.8086C24.3433 55.3175 24.629 55.724 25.1891 55.5748C25.0299 55.8235 24.9247 55.8178 24.6774 56.0908C25.5075 56.6139 26.4926 56.2358 26.7158 54.557C26.7556 54.2571 27.1678 54.4447 27.0256 54.739C26.0789 56.6963 28.4727 58.169 27.6255 59.6046C28.3717 59.5733 28.9418 59.515 29.2517 59.2635C29.4038 59.5648 29.4962 59.8633 29.4621 60.1575C29.8743 60.0737 30.0249 59.8306 30.0534 59.5492C30.3235 60.3381 31.2901 61.181 32.8366 61.181C32.0164 60.0098 32.7798 58.8228 31.6213 57.4881ZM30.0946 58.9308L29.7649 59.4923C29.6468 59.1227 29.4322 58.7389 29.2943 58.4661C29.0285 59.0133 28.6092 59.0247 28.2054 59.0275C28.295 57.7169 26.6475 56.3992 27.3725 54.9039C27.5175 54.6054 27.4222 54.2386 27.1109 54.0809C26.0064 53.5208 26.5181 55.8463 25.4151 55.9174C25.6255 55.6515 25.705 55.1 25.7364 55.0517C25.5018 55.1128 24.9403 55.471 24.6874 55.0133C25.3327 54.6622 25.5175 54.1335 25.6184 53.6033C25.7463 52.9323 25.806 52.621 25.9354 52.3452C26.0718 52.051 26.2893 51.7952 26.7556 51.191C26.6447 51.2066 25.4038 51.4697 25.1237 51.3389C27.2716 50.0198 26.7883 48.3438 30.0619 46.8499C29.2033 46.2117 28.3262 45.7028 28.9546 44.4846C29.8515 45.5621 31.5559 45.1897 32.477 44.6893C31.5673 44.5074 30.3945 43.7057 30.1173 42.813C30.4599 42.7604 30.9048 43.1328 31.1593 43.3062C31.283 42.9764 31.3313 42.5941 31.7307 42.5116C31.1977 43.6502 32.2496 44.2444 33.2531 44.2487C33.4095 44.2487 34.0577 44.1832 34.0577 44.1832C33.9539 43.9701 33.5346 43.3872 33.8387 43.1527C34.0847 43.383 34.3775 43.5664 34.6433 43.771C36.595 45.2806 33.7165 46.6793 32.5395 47.3148C30.693 48.3126 31.1877 49.5009 31.9582 49.8037C31.9553 49.9373 31.8729 49.997 31.7449 50.0397C31.2048 50.2188 30.6987 49.8335 30.268 49.5862C30.2936 50.3311 30.2424 51.0475 31.0669 51.4568L30.4997 51.6629C30.9873 52.034 31.1365 52.2301 31.7236 52.3068C31.4493 52.4405 31.1095 52.4376 30.8181 52.4647C30.8921 52.6707 30.9518 52.9508 31.1053 53.1355C29.9041 53.2778 29.4223 52.5926 29.0498 52.6196C28.2566 52.6793 28.3064 54.1719 30.2581 54.1747L30.0562 54.5087C30.0562 54.5087 30.4258 54.7248 30.7656 54.7659C30.6362 54.8712 30.5111 55.0133 30.4017 55.1213L30.7129 55.39C29.9155 55.5321 29.6909 54.6849 29.1734 55.0929C28.3846 55.7183 30.123 57.0361 31.789 56.8398C31.6497 57.019 31.2573 57.2834 31.0896 57.4198C32.4471 58.702 31.7776 59.9102 32.3363 60.7958C31.165 60.719 30.2979 59.859 30.0946 58.9308Z" fill="black"/>
    <path fill-rule="evenodd" clip-rule="evenodd" d="M27.9523 54.2483C28.2352 54.5425 28.5763 54.5738 29.2231 54.5326C28.511 54.4459 28.1115 54.2724 27.8628 53.8006C27.8272 53.5561 27.8031 53.2945 27.7931 53.0159C27.7704 52.2668 28.0177 51.3741 28.5351 50.3962C28.5323 51.0088 29.017 51.9725 30.1016 52.1331C29.1265 51.7068 28.5536 50.7472 28.8663 49.8191C29.0696 49.495 29.2985 49.1595 29.5543 48.8198C29.6822 48.6563 29.8073 48.4971 29.9296 48.3507C29.7988 48.824 30.3717 49.313 30.7555 49.3954C30.5479 49.1922 30.1016 48.5341 31.1322 47.4325C30.845 47.5689 30.5266 47.7608 30.285 47.9484C32.1557 45.9271 33.695 45.8703 34.4016 44.8525C33.3781 45.5519 30.6674 45.93 29.4492 45.5987C30.1215 46.0479 31.7405 46.0067 32.1371 45.9228C30.818 47.2064 27.9352 48.5327 27.4349 49.7125C28.1371 48.942 28.592 48.8013 29.2003 48.6037C28.7214 49.3187 28.2907 49.947 27.9935 50.6762C27.2259 52.3421 26.1996 52.3635 26.1328 53.7366C26.4826 52.6719 27.1933 52.4019 27.6851 51.7025C27.5984 52.1488 27.5571 52.6435 27.5728 53.2149C27.5898 53.8361 27.7149 54.3819 27.9125 54.8709C27.8628 55.5504 27.9225 56.7102 28.7014 57.4764C28.1727 56.8069 28.0589 55.7181 28.1058 55.2931C28.7157 56.4686 30.4541 58.0947 31.2942 59.1865C30.4541 57.7835 28.3944 56.1431 27.9523 54.2483Z" fill="black"/>
    <path fill-rule="evenodd" clip-rule="evenodd" d="M47.1947 48.6038C47.7989 48.8028 48.2552 48.9436 48.9573 49.714C48.4599 48.5341 45.5728 47.2079 44.2537 45.9244C44.6503 46.0068 46.2708 46.0495 46.9417 45.6003C45.725 45.9315 43.0142 45.5534 41.9893 44.854C42.6972 45.8718 44.2353 45.9286 46.1073 47.9499C45.8671 47.7623 45.5487 47.5704 45.2601 47.434C46.2893 48.5356 45.8444 49.1951 45.6354 49.3984C46.0192 49.316 46.592 48.827 46.4612 48.3536C46.5849 48.5001 46.71 48.6592 46.8379 48.8227C47.0952 49.1639 47.3227 49.4979 47.5259 49.822C47.8387 50.7517 47.2644 51.7111 46.2921 52.1361C47.3767 51.9769 47.8628 51.0117 47.8572 50.3991C48.376 51.377 48.6233 52.2697 48.6006 53.0188C48.5906 53.2974 48.5664 53.5576 48.5295 53.8035C48.2793 54.2754 47.8799 54.4488 47.1691 54.5355C47.8174 54.5753 48.1571 54.5455 48.4413 54.2513C47.9993 56.1461 45.9395 57.7864 45.098 59.1908C45.9395 58.0991 47.6752 56.473 48.2879 55.2974C48.3348 55.7224 48.2211 56.8112 47.6923 57.4808C48.4712 56.7146 48.5309 55.5547 48.4811 54.8752C48.6773 54.3863 48.801 53.8404 48.8209 53.2192C48.8394 52.6478 48.7953 52.1517 48.71 51.7068C49.2032 52.4062 49.9126 52.6763 50.2637 53.741C50.1969 52.3664 49.1706 52.3451 48.4015 50.6791C48.103 49.9456 47.6738 49.3174 47.1947 48.6038Z" fill="black"/>
    <path fill-rule="evenodd" clip-rule="evenodd" d="M50.5324 51.7212C51.1366 51.8165 51.6114 51.8165 51.8374 51.2123C49.617 50.1548 49.6355 47.9359 47.084 46.7732C48.4869 45.7326 48.1089 44.7561 47.4564 43.7711C46.767 44.9906 45.5787 45.157 44.8494 44.7604C45.8757 44.3865 46.2638 43.1186 46.8864 42.749C46.4969 42.3311 45.9994 42.3169 45.4209 42.712C45.1081 41.8705 44.0762 42.1477 43.9212 42.1477C44.1913 42.4178 44.4472 42.7718 44.3988 43.1513C44.2923 43.9957 42.9205 43.8591 42.9205 43.8591C43.1977 43.2892 43.074 42.9494 42.4585 42.6566C42.2709 43.1101 40.7983 43.7213 40.7016 44.6168C40.5538 46.0169 42.2126 46.8669 43.6682 47.6559C45.2701 48.5215 44.6831 49.4654 44.1017 49.4952C43.7791 50.4903 45.0129 50.6694 45.7151 50.2656C45.7122 50.3979 45.6227 51.1967 44.5467 51.2621C44.6376 51.5777 44.8153 51.68 45.0968 51.7838C44.8864 51.9416 44.2723 51.9643 43.9482 51.9643C43.9866 52.3964 44.4571 52.7447 45.0456 52.803C44.9987 52.9337 44.7372 53.1441 44.5026 53.2095C45.138 53.842 46.8466 53.4256 47.1935 53.0617C47.3526 52.894 47.5474 53.1313 47.3569 53.3843C47.1607 53.643 46.3022 53.933 45.6057 53.7183C45.526 54.1079 45.6597 54.2557 45.7691 54.3609C45.7691 54.3609 45.0883 54.4291 44.912 54.5244C44.9788 54.8172 45.3086 54.9863 45.4237 55.1014C45.3071 55.2009 45.1693 55.434 45.1195 55.6132C45.4322 55.7638 46.2823 55.9984 46.7386 55.4781C46.9233 55.272 47.1252 55.4028 46.9361 55.6658C46.2652 56.5897 44.6604 56.6039 44.0932 56.3153C44.0776 57.0389 44.3903 57.1882 44.767 57.4866C43.6071 58.8214 44.3733 60.0083 43.553 61.1767C45.0982 61.1767 46.0648 60.3338 46.3349 59.5449C46.3662 59.8249 46.5139 60.0694 46.9247 60.1533C46.8935 59.859 46.9845 59.5605 47.1351 59.2592C47.4479 59.5108 48.0179 59.569 48.7641 59.6003C47.9184 58.1647 50.3122 56.6921 49.3626 54.7347C49.2219 54.4404 49.6341 54.2528 49.6739 54.5528C49.8956 56.2315 50.8822 56.6096 51.7137 56.0865C51.4635 55.8136 51.3598 55.8193 51.2005 55.5705C51.7606 55.7197 52.045 55.3132 52.1885 54.8043C50.6761 54.2727 51.4934 52.9678 50.5324 51.7212ZM50.6604 55.0531C50.6903 55.1014 50.7685 55.653 50.9802 55.9188C49.8758 55.8477 50.3875 53.5222 49.283 54.0823C48.9717 54.2386 48.8793 54.6054 49.0229 54.9053C49.745 56.4006 48.0989 57.7184 48.1914 59.0289C47.7848 59.0261 47.3626 59.0147 47.0996 58.4674C46.9645 58.7404 46.7471 59.1241 46.6291 59.4937L46.2993 58.9323C46.0946 59.8619 45.2275 60.7205 44.0591 60.7986C44.6149 59.9145 43.9468 58.7062 45.3057 57.4227C45.1352 57.2862 44.7442 57.0218 44.6035 56.8427C46.2709 57.0389 48.0079 55.7212 47.2191 55.0957C46.7031 54.6878 46.4756 55.535 45.681 55.3928L45.9923 55.1242C45.8828 55.0162 45.7563 54.8754 45.6269 54.7688C45.9667 54.7276 46.3363 54.5115 46.3363 54.5115L46.1344 54.1775C48.0861 54.1746 48.133 52.6821 47.3441 52.6224C46.9731 52.5954 46.4898 53.282 45.2887 53.1385C45.4407 52.9536 45.5033 52.6736 45.5772 52.4675C45.2872 52.4405 44.9446 52.4433 44.6718 52.3097C45.2588 52.2344 45.4066 52.0368 45.8942 51.6672L45.3285 51.4597C46.1515 51.0489 46.0989 50.3339 46.1245 49.5891C45.6952 49.8364 45.1863 50.2202 44.6504 50.0425C44.5225 49.9998 44.4386 49.9401 44.4358 49.8065C45.2076 49.5023 45.6995 48.3154 43.8544 47.3176C42.6789 46.6822 39.7989 45.2834 41.7492 43.7753C42.0164 43.5706 42.3064 43.3858 42.5509 43.157C42.8565 43.3915 42.4386 43.9743 42.3348 44.1875C42.3348 44.1875 42.9831 44.2529 43.1365 44.2529C44.1415 44.2486 45.1948 43.6545 44.6618 42.5145C45.0612 42.5969 45.1081 42.9822 45.2303 43.3105C45.4862 43.137 45.9298 42.7661 46.2752 42.8187C45.9951 43.71 44.8252 44.513 43.9141 44.6949C44.8338 45.1953 46.5395 45.5678 47.4365 44.4903C48.0648 45.7085 47.1892 46.2174 46.3292 46.8556C49.6043 48.3481 49.1196 50.0255 51.2688 51.3446C50.9916 51.4753 49.7464 51.2123 49.6355 51.1967C50.1046 51.8008 50.3235 52.0567 50.4571 52.3509C50.5879 52.6267 50.6448 52.9366 50.7742 53.6089C50.8765 54.1391 51.0627 54.6679 51.7051 55.019C51.4536 55.4725 50.8936 55.1142 50.6604 55.0531Z" fill="black"/>
    <path fill-rule="evenodd" clip-rule="evenodd" d="M35.0652 58.7219L35.5329 58.3253L35.4618 58.1832C35.4106 58.0809 35.4377 58.0752 35.4917 58.0354L35.7391 57.852C35.7958 57.8051 35.8556 57.8108 35.9252 57.8278L36.6658 58.0012H35.884C35.7034 58.0126 35.6509 58.0823 35.5855 58.2159L35.5315 58.3253L35.3311 58.7375C35.2628 58.8797 35.2273 59.0687 35.4064 59.2819L35.5485 59.4511L35.2614 60.0325H35.503L35.702 59.6288C35.7177 59.6146 36.0119 59.3459 36.0745 59.0687C35.9892 58.9991 35.9295 58.9507 35.9764 58.8541L36.0659 58.6608C36.0958 58.5968 36.1057 58.5713 36.191 58.5869L36.9672 58.7546C37.0638 58.7816 37.206 58.8243 37.3097 58.6679C37.4164 58.5058 37.4306 58.5229 37.6779 58.5471L38.0744 58.5897C38.6161 58.6409 39.1576 58.5058 39.368 58.3381C39.4419 58.5058 39.5884 58.6352 39.6566 58.766C39.6821 58.8143 39.6395 58.8826 39.6068 58.9678L39.1619 60.0311H39.8484L40.2365 59.0617C40.2721 58.9693 40.3246 58.8953 40.3644 58.8584L40.1413 60.0325H40.808L40.9842 58.8712C41.0226 58.6125 40.9999 58.5301 40.8762 58.4234C40.599 58.1889 40.6047 57.6971 40.5152 57.3985C40.5621 57.3716 40.6175 57.3573 40.6829 57.3659C40.8279 57.3786 40.9373 57.7497 41.1079 57.9885C41.449 58.4675 41.9139 58.9963 42.4469 58.2514C42.3957 58.1662 42.3403 58.0893 42.2749 58.0154L42.1257 57.8406C42.039 57.744 41.6268 57.272 41.4547 57.1029C41.0638 56.7091 40.464 56.7689 40.2252 56.9607C39.6835 56.6764 39.1122 56.975 38.9771 56.9636L38.0446 56.9067C38.002 56.9038 37.9381 56.8897 37.8926 56.8172L38.066 56.7603C37.9039 56.0851 37.496 55.5208 36.7838 55.4227C36.7838 55.4227 36.7426 55.2095 36.6331 55.1683L36.4199 55.4184C36.3602 55.427 36.2948 55.4455 36.2408 55.4682L35.3311 55.1299L36.0134 55.8193C36.0134 55.8193 35.6594 56.3211 35.5585 56.4234C35.4917 56.5172 35.4974 56.5897 35.5727 56.6793L35.7049 56.8527C35.7732 56.9423 35.8485 56.9394 35.9579 56.884L36.1072 56.8058C36.1726 56.7517 36.3914 56.8584 36.4853 56.7731C36.4255 56.9693 36.3957 57.1583 36.3815 57.3076L35.7689 57.2336C35.6352 57.2152 35.5741 57.2336 35.4931 57.2976L34.97 57.6999C34.7994 57.8307 34.7468 58.0566 34.8521 58.277L35.0652 58.7219ZM40.1256 58.837L39.7106 59.8605H39.4519L39.867 58.8697C39.9096 58.7418 39.8286 58.6821 39.7248 58.5428C39.8784 58.6295 39.9892 58.6864 40.1754 58.7575C40.1598 58.7859 40.1399 58.8015 40.1256 58.837ZM36.1228 56.621L36.0048 56.6836C35.9224 56.7305 35.8811 56.7517 35.8101 56.6636L35.7589 56.5983C35.7334 56.567 35.7248 56.4917 35.7774 56.4319L36.2863 55.8392L35.8172 55.454L36.4142 55.6743L36.6331 55.4014C36.6971 55.4554 36.6743 55.6132 36.6743 55.6132C36.916 55.6132 37.6196 55.9629 37.6466 56.8385C37.6466 56.8385 37.8058 57.073 38.0091 57.0858L39.0453 57.1483C39.2173 57.1483 39.6466 56.8215 40.1982 57.1299C40.3375 57.046 40.4867 56.9792 40.6403 56.9621C41.1263 56.9266 41.4846 57.2649 41.7504 57.6061C41.9451 57.8534 42.2124 58.2315 42.2124 58.2315C42.0972 58.368 41.9849 58.4134 41.8897 58.3793C41.7462 58.3054 41.6992 58.1903 41.6537 58.0297C41.5813 57.7752 41.3012 57.5577 41.3012 57.5577C41.3965 57.7283 41.4163 57.9217 41.4618 58.0993C41.0567 57.6985 40.98 57.2095 40.6971 57.1413C40.572 57.1099 40.4256 57.164 40.2905 57.3203C40.4327 57.6515 40.4256 58.0354 40.572 58.2926C40.6829 58.4845 40.707 58.5015 40.7568 58.5442C40.8762 58.6295 40.8094 58.7844 40.7909 58.8968L40.6374 59.8591H40.3787L40.5493 58.918C40.6019 58.6309 39.7959 58.6309 39.3836 58.0837C39.0326 58.4945 38.0475 58.3921 37.621 58.3282C37.449 58.3026 37.2813 58.314 37.1874 58.4831C37.1321 58.5783 37.0397 58.5499 36.9828 58.5357L36.2053 58.368C36.0688 58.3367 36.0091 58.3637 35.9493 58.4888L35.7944 58.8101C35.7603 58.8854 35.7618 58.9409 35.8242 59.002L35.8982 59.0801C35.8542 59.2336 35.7134 59.3516 35.7134 59.3516L35.5442 59.1611C35.4618 59.0644 35.4576 58.9252 35.523 58.7887L35.7746 58.2627C35.8044 58.2046 35.8584 58.142 35.9636 58.142L36.9245 58.1277L36.6302 57.6487C36.4114 57.2891 36.7753 56.648 36.7198 56.3452C36.69 56.7504 36.1996 56.5656 36.1228 56.621ZM35.0794 57.8292L35.5343 57.4824C35.6153 57.4213 35.6693 57.3815 35.7618 57.3928L36.4043 57.4781C36.4398 57.6317 36.5422 57.7823 36.5422 57.7823L35.8584 57.6388C35.7618 57.6274 35.7334 57.6317 35.6424 57.6971L35.3182 57.9415C35.2543 57.9913 35.2515 58.0709 35.2884 58.1491L35.341 58.2614L35.115 58.4319L35.0282 58.2699C34.9401 58.0979 34.9345 57.9401 35.0794 57.8292Z" fill="black"/>
    <path fill-rule="evenodd" clip-rule="evenodd" d="M37.0617 45.4896C37.3105 45.6616 37.7512 45.845 37.7512 45.845V45.5521L36.7803 45.1812C36.7803 45.1812 36.7803 45.3006 37.0617 45.4896Z" fill="black"/>
    <path fill-rule="evenodd" clip-rule="evenodd" d="M37.7491 45.1372V44.8445L36.6475 44.4507C36.6475 44.4507 36.7783 44.59 37.0597 44.7819C37.3084 44.9525 37.7491 45.1372 37.7491 45.1372Z" fill="black"/>
    <path fill-rule="evenodd" clip-rule="evenodd" d="M37.7498 44.4721V44.1779L36.543 43.7344C36.543 43.7344 36.7789 43.9249 37.0604 44.1167C37.3092 44.2887 37.7498 44.4721 37.7498 44.4721Z" fill="black"/>
    <path fill-rule="evenodd" clip-rule="evenodd" d="M41.1396 48.4705H42.3735C42.3223 48.2913 42.1304 48.1108 41.7707 48.1108C41.4297 48.1108 41.2249 48.307 41.1396 48.4705Z" fill="black"/>
    <path fill-rule="evenodd" clip-rule="evenodd" d="M39.8495 43.7344L38.6455 44.1779V44.4721C38.6455 44.4721 39.0861 44.2887 39.3349 44.1167C39.615 43.9249 39.8495 43.7344 39.8495 43.7344Z" fill="black"/>
    <path fill-rule="evenodd" clip-rule="evenodd" d="M39.615 45.1812L38.6455 45.5536V45.8464C38.6455 45.8464 39.0861 45.6616 39.3349 45.491C39.615 45.3006 39.615 45.1812 39.615 45.1812Z" fill="black"/>
    <path fill-rule="evenodd" clip-rule="evenodd" d="M39.7451 44.4507L38.6436 44.8445V45.1372C38.6436 45.1372 39.0856 44.9539 39.3329 44.7833C39.6144 44.59 39.7451 44.4507 39.7451 44.4507Z" fill="black"/>
    <path fill-rule="evenodd" clip-rule="evenodd" d="M34.6212 48.1108C34.2616 48.1108 34.0697 48.2913 34.0186 48.4705H35.2538C35.1657 48.307 34.9638 48.1108 34.6212 48.1108Z" fill="black"/>
    <path fill-rule="evenodd" clip-rule="evenodd" d="M40.6476 42.9437C40.6476 42.2501 39.482 41.6289 38.1956 41.6289C36.9091 41.6289 35.7436 42.2501 35.7436 42.9437L35.7705 43.1143L36.2822 46.061L33.8515 47.4782C33.5928 47.6303 33.2687 48.0481 33.2275 48.4689H33.671C33.7449 48.0481 34.0761 47.5819 34.6973 47.6104C35.2588 47.6402 35.5914 47.9814 35.9212 48.4689L36.0065 48.5969L36.1287 48.7888H32.5537C32.8167 49.3161 33.0655 49.8762 33.0655 50.4831V57.9159C33.0655 59.8278 34.5339 60.7389 36.1244 60.7389C37.3527 60.7389 37.5189 60.6835 38.197 61.3615C38.8722 60.6835 39.0385 60.7389 40.2695 60.7389C41.8587 60.7389 43.3285 59.8278 43.3285 57.9159V50.4846C43.3285 49.8776 43.5772 49.3175 43.8402 48.7901H40.2624L40.386 48.5983L40.4713 48.4703C40.7997 47.9828 41.1337 47.6416 41.6952 47.6118C42.3135 47.5834 42.6476 48.0496 42.7201 48.4703H43.1621C43.1224 48.0496 42.7968 47.6303 42.5396 47.4796L40.1088 46.0624L40.622 43.1157L40.6476 42.9437ZM36.241 43.282L38.0548 43.8989V46.7376L36.7186 46.0355L36.241 43.282ZM36.6874 49.3048C36.9261 49.6317 37.3128 49.8733 37.7705 49.9671C37.8089 50.1391 37.9028 50.3282 38.0846 50.4803C38.0093 50.9877 38.2268 51.4611 38.7727 51.5862C38.8295 51.8448 38.9902 52.0396 39.2588 52.132L38.8793 52.5698C38.7343 52.7375 38.5452 52.7915 38.3889 52.7717L36.6945 52.5798C36.7684 52.3921 36.5722 52.1746 36.0363 52.267L36.703 50.405L36.2964 49.5421L35.526 50.1989L35.4691 52.1519L35.1423 51.9913C34.7115 51.8065 34.5864 52.584 34.9958 52.5868L35.1578 52.5883C35.1479 52.6679 35.1721 52.756 35.2346 52.783C35.1578 52.8158 35.1351 52.9607 35.2317 53.0119C35.1337 53.0574 35.1209 53.2052 35.1991 53.2691C35.1138 53.4128 35.101 53.724 35.3981 53.8022C35.6412 53.8662 35.7932 53.6046 35.843 53.4525L38.4784 54.2685C38.8522 54.375 39.1167 54.3154 39.4265 54.0439L40.1145 53.4426C40.0278 53.8363 40.17 54.1903 40.4699 54.3082C40.4699 54.3082 40.4273 54.6622 40.4401 54.82H33.5786V50.4846C33.5786 50.0809 33.462 49.6772 33.3228 49.3048H36.6874ZM39.5218 50.9494C39.3768 51.2266 39.391 51.545 39.5616 51.8335L39.4479 51.9444C38.9532 51.8832 38.7585 51.1455 38.7585 51.1455C38.7485 51.2124 38.7428 51.2763 38.7443 51.3417C38.4556 51.2351 38.2738 50.9793 38.2879 50.6281C38.3974 50.6892 38.5197 50.7319 38.6504 50.7546L38.6846 50.5385C38.3391 50.4788 38.1373 50.2628 38.0605 50.0069C38.0434 50.0055 38.0292 50.0013 38.0136 49.9999C38.0747 50.0041 38.1358 50.0098 38.1984 50.0098C38.4031 50.0098 38.5978 49.9785 38.7798 49.9245C38.9233 50.1292 39.1778 50.2756 39.4336 50.304C39.3924 50.4746 39.4123 50.6864 39.5218 50.9494ZM40.2539 52.8996C40.2041 52.9664 40.1643 53.0432 40.1387 53.127L39.8629 53.3801C39.9184 52.9764 39.6469 52.5001 39.3995 52.3054L39.6924 52.0183L39.7506 52.078C39.6525 52.3353 39.8445 52.8399 40.2539 52.8996ZM38.9219 52.7731L39.1494 52.5499C39.3796 52.7518 39.6838 53.2024 39.5886 53.6317L39.3412 53.8591C39.2901 53.9088 39.2375 53.9444 39.1835 53.977C39.3384 53.5946 39.1408 53.0062 38.9219 52.7731ZM38.4329 52.9622H38.4401C38.5225 52.9749 38.6106 52.9607 38.6902 52.928C38.8636 53.1753 38.9987 53.7383 38.7912 54.0894C38.6732 54.0922 38.558 54.0709 38.4499 54.0396L38.3647 54.014C38.5395 53.7425 38.5154 53.2621 38.4329 52.9622ZM37.8601 52.8911L38.1799 52.9309C38.2311 53.1967 38.197 53.6558 38.0278 53.9174L37.6554 53.8093C37.8188 53.5876 37.8956 53.1313 37.8601 52.8911ZM37.1934 52.8101L37.5815 52.8555C37.6198 53.0687 37.5474 53.5222 37.4009 53.7383L37.0058 53.6245C37.1635 53.4156 37.2204 53.0474 37.1934 52.8101ZM35.6227 52.7062C35.4422 52.7645 35.3625 52.6338 35.3697 52.5229C35.7236 52.3936 35.8814 52.4774 35.9852 52.5428C36.0804 52.6025 36.16 52.7731 36.2879 52.8797C36.2666 53.0247 36.2226 53.235 36.1699 53.3758C35.8075 53.2834 35.789 52.9636 35.924 52.7688C35.8487 52.6807 35.7691 52.6579 35.6227 52.7062ZM35.3697 53.4128C35.3697 53.4128 35.4777 53.4582 35.6141 53.4682C35.5985 53.5435 35.5402 53.6146 35.4478 53.5946C35.3711 53.5776 35.337 53.4838 35.3697 53.4128ZM35.0129 52.375C34.9233 52.3154 34.9631 52.1846 35.0627 52.1846C35.1721 52.1875 35.317 52.3111 35.4606 52.3722C35.4606 52.3722 35.0839 52.4234 35.0129 52.375ZM35.3811 53.1285C35.4592 53.2038 35.6938 53.1754 35.6938 53.1754L35.7023 53.2223C35.5999 53.3587 35.3157 53.2976 35.3811 53.1285ZM35.6966 52.9735C35.5288 53.0403 35.3569 52.9493 35.4094 52.8413C35.4876 52.9124 35.7051 52.8769 35.7051 52.8769L35.6966 52.9735ZM35.944 51.0219L35.6227 52.1917L35.7322 50.304L36.2296 49.8791L36.4827 50.4348L35.843 52.2685L36.0122 51.0347C36.0278 50.9465 35.9581 50.9366 35.944 51.0219ZM35.9667 52.4405C35.9667 52.4405 36.3249 52.4234 36.4258 52.4618C36.4998 52.4931 36.45 52.6181 36.3533 52.604C36.2524 52.5911 35.9667 52.4405 35.9667 52.4405ZM36.5282 52.7248L36.9176 52.7731C36.9475 52.9863 36.892 53.3474 36.7527 53.5492L36.376 53.4398C36.4755 53.2024 36.4998 52.9792 36.5282 52.7248ZM42.8154 57.9174C42.8154 58.8213 42.3974 59.508 41.7024 59.8889L41.9511 59.3828H41.7094L41.3896 60.031C41.0584 60.1561 40.6831 60.2258 40.2681 60.2258C39.0001 60.2258 38.6647 60.2769 38.1956 60.7446C37.725 60.2769 37.3896 60.2258 36.123 60.2258C35.7108 60.2258 35.3356 60.159 35.0058 60.0339H35.0143L35.3341 59.3828H35.0939L34.8139 59.9529C34.747 59.9216 34.6816 59.8874 34.6191 59.8505L34.8494 59.3828H34.6106L34.44 59.7311C33.897 59.3317 33.5771 58.7062 33.5771 57.9174V55.0744H42.8125V57.9174H42.8154ZM43.0726 49.3048C42.9291 49.6772 42.8139 50.0809 42.8139 50.4846V54.82H42.3092C42.0804 54.5983 41.8871 53.8591 41.8871 53.8591C41.762 54.1249 41.9056 54.6636 42.0392 54.82H41.3896C41.229 54.6025 41.0897 53.8321 41.0897 53.8321C40.895 54.0538 41.0186 54.6523 41.1394 54.82H40.7073C40.6803 54.5115 40.7684 54.1761 40.7684 54.1761C40.5424 54.1348 40.3022 54.0154 40.3036 53.7653C40.4173 53.8719 40.4642 53.8705 40.622 53.8676L40.8054 53.7226C40.197 53.7425 40.1686 53.0744 40.6519 52.7617C40.17 52.7773 39.8103 52.4903 39.9852 51.9785C39.6426 51.8008 39.5218 51.2209 39.7748 50.9664C39.5915 50.7674 39.5616 50.3765 39.6782 50.1107C39.4351 50.1107 39.1622 50.014 39.01 49.8477C38.9987 49.8534 38.9845 49.8577 38.9716 49.8619C39.2759 49.7383 39.5331 49.545 39.7066 49.3062H43.0726V49.3048ZM41.2332 47.2181C40.7329 47.3048 40.3022 47.9174 39.9496 48.4703L39.9098 48.5343H39.5331L39.5318 48.5997C39.4933 49.0261 39.0883 49.6047 38.1956 49.6047C37.7833 49.6047 37.4721 49.4781 37.2588 49.3062C37.074 49.1555 36.9574 48.9693 36.9006 48.7916C36.8793 48.7277 36.8665 48.6622 36.8608 48.5997L36.8579 48.5343H36.4841L36.4443 48.4703C36.0903 47.9188 35.6596 47.3061 35.1607 47.2181L36.5239 46.4263L38.1984 47.3361L39.87 46.4263L41.2332 47.2181ZM39.6725 46.0355L38.3377 46.7376V43.8989L40.1515 43.282L39.6725 46.0355ZM38.197 43.5891L36.214 42.8059C36.3817 42.4078 37.1593 42.0681 38.197 42.0681C39.2332 42.0681 40.0094 42.4078 40.1771 42.8059L38.197 43.5891Z" fill="black"/>
    <path fill-rule="evenodd" clip-rule="evenodd" d="M42.6036 52.1061L42.6078 51.8886C41.9411 51.873 41.7877 51.0869 41.7877 51.0869C41.5929 51.6654 42.1018 52.0976 42.6036 52.1061Z" fill="black"/>
    <path fill-rule="evenodd" clip-rule="evenodd" d="M41.7623 53.4379L41.6955 53.2318C41.1269 53.3768 40.8327 52.4756 40.8327 52.4756C40.6507 53.1309 41.2847 53.5943 41.7623 53.4379Z" fill="black"/>
    <path fill-rule="evenodd" clip-rule="evenodd" d="M42.1568 52.6022C41.4774 52.7102 41.1988 51.9199 41.1988 51.9199C41.1234 52.3506 41.402 52.787 41.8527 52.8324C41.7503 53.394 42.272 53.6824 42.724 53.482L42.6586 53.2859C42.2663 53.4181 41.8982 53.03 42.1568 52.6022Z" fill="black"/>
    <path fill-rule="evenodd" clip-rule="evenodd" d="M41.7505 50.3468L41.7562 50.1293C40.8592 49.9445 40.9346 49.3276 40.9346 49.3276C40.7413 49.909 41.2501 50.3383 41.7505 50.3468Z" fill="black"/>
    <path fill-rule="evenodd" clip-rule="evenodd" d="M36.0673 59.3828L35.7461 60.0339H35.9877L36.3076 59.3828H36.0673Z" fill="black"/>
    <path fill-rule="evenodd" clip-rule="evenodd" d="M36.5522 59.3828L36.2324 60.0339H36.4755L36.7925 59.3828H36.5522Z" fill="black"/>
    <path fill-rule="evenodd" clip-rule="evenodd" d="M38.4937 59.3828L38.1738 60.0339H38.4141L38.7353 59.3828H38.4937Z" fill="black"/>
    <path fill-rule="evenodd" clip-rule="evenodd" d="M38.9799 59.3828L38.6572 60.0339H38.9003L39.2187 59.3828H38.9799Z" fill="black"/>
    <path fill-rule="evenodd" clip-rule="evenodd" d="M38.0087 59.3828L37.6875 60.0339H37.9291L38.2489 59.3828H38.0087Z" fill="black"/>
    <path fill-rule="evenodd" clip-rule="evenodd" d="M40.8447 60.0339H41.0863L41.4062 59.3828H41.1645L40.8447 60.0339Z" fill="black"/>
    <path fill-rule="evenodd" clip-rule="evenodd" d="M37.0386 59.3828L36.7188 60.0339H36.9604L37.2802 59.3828H37.0386Z" fill="black"/>
    <path fill-rule="evenodd" clip-rule="evenodd" d="M37.522 59.3828L37.2021 60.0339H37.4452L37.765 59.3828H37.522Z" fill="black"/>
    <path fill-rule="evenodd" clip-rule="evenodd" d="M36.4242 55.8828C36.3802 55.8828 36.3418 55.9254 36.3418 55.9809C36.3418 56.0349 36.3802 56.079 36.4242 56.079C36.4697 56.079 36.5095 56.0349 36.5095 55.9809C36.5082 55.9254 36.4697 55.8828 36.4242 55.8828Z" fill="black"/>
    <path fill-rule="evenodd" clip-rule="evenodd" d="M38.1975 41.1897C39.1925 41.1897 39.9899 41.5194 40.4291 41.8734C40.4291 41.8734 40.5614 41.083 41.0063 40.3894L40.2046 40.479L39.7852 39.5863L38.9793 40.0056L38.1975 39.2295L37.4157 40.0056L36.6068 39.5863L36.1875 40.479L35.3857 40.3894C35.8321 41.083 35.9629 41.8734 35.9629 41.8734C36.4035 41.5194 37.2024 41.1897 38.1975 41.1897ZM36.3253 40.8343L36.7078 40.0241L37.4157 40.4008L38.1975 39.6289L38.9793 40.4008L39.6872 40.0241L40.0653 40.8343L40.5358 40.7618C40.415 40.9878 40.324 41.1854 40.2401 41.4626C39.7256 41.1627 38.9608 40.931 38.1975 40.931C37.4313 40.931 36.668 41.1627 36.1533 41.4626C36.0681 41.1854 35.9785 40.9878 35.8563 40.7618L36.3253 40.8343Z" fill="black"/>
    <path fill-rule="evenodd" clip-rule="evenodd" d="M39.0152 39.5934C39.1317 39.6034 39.2355 39.5152 39.2455 39.4C39.2568 39.2835 39.0862 38.9736 39.0862 38.9736C39.0862 38.9736 38.8318 39.248 38.8232 39.3645C38.8119 39.4783 38.9 39.582 39.0152 39.5934Z" fill="black"/>
    <path fill-rule="evenodd" clip-rule="evenodd" d="M40.329 40.0694C40.4328 40.1248 40.5593 40.0836 40.6147 39.9798C40.6716 39.8774 40.6346 39.5264 40.6346 39.5264C40.6346 39.5264 40.2963 39.6785 40.2409 39.7822C40.1869 39.8846 40.2267 40.0125 40.329 40.0694Z" fill="black"/>
    <path fill-rule="evenodd" clip-rule="evenodd" d="M37.3773 39.5934C37.4952 39.582 37.5819 39.4797 37.572 39.3645C37.5607 39.248 37.3091 38.9736 37.3091 38.9736C37.3091 38.9736 37.1398 39.2849 37.1498 39.4C37.1584 39.5152 37.2621 39.6034 37.3773 39.5934Z" fill="black"/>
    <path fill-rule="evenodd" clip-rule="evenodd" d="M36.0656 40.0694C36.1693 40.0125 36.2078 39.8846 36.1537 39.7822C36.0997 39.6785 35.76 39.5264 35.76 39.5264C35.76 39.5264 35.7245 39.8774 35.7813 39.9798C35.8339 40.0836 35.9618 40.1248 36.0656 40.0694Z" fill="black"/>
    <path fill-rule="evenodd" clip-rule="evenodd" d="M51.8218 47.2908C52.1018 47.1913 52.3178 46.9241 52.4259 46.6767C51.7138 46.5744 49.8217 45.7798 48.2666 46.4266C48.8495 45.8736 49.3726 45.8026 49.4223 45.0066C49.6639 45.18 50.0719 45.2781 50.3022 44.8645C50.1416 44.391 49.7364 44.7749 49.6796 44.6441C49.6 44.4621 50.1899 44.6995 50.3164 44.0841C49.8573 43.9262 49.7208 44.3015 49.6384 44.2148C49.5631 44.1323 49.9298 43.9745 49.6597 43.4785C49.182 43.7585 49.4308 44.0727 49.3299 44.1082C49.2077 44.1565 49.3043 43.7713 48.7755 43.7898C48.7229 44.357 49.2716 44.3754 49.182 44.465C49.0726 44.5744 48.9305 44.1395 48.5311 44.3598C48.5381 44.8175 48.9091 45.069 49.2916 44.961C49.229 45.831 48.4301 45.6689 47.8359 46.6497C49.0954 47.2951 49.6654 48.4208 50.4401 49.1998C50.696 49.0179 51.1337 48.2105 51.1337 48.2105C51.9724 48.8601 52.5623 48.2133 52.5623 48.2133C52.2738 47.9177 52.2624 47.6931 51.8218 47.2908ZM50.5993 47.4486C50.686 47.6405 50.858 48.31 50.4472 48.8203C49.9796 47.8864 49.337 47.0862 48.8167 46.7407C48.703 46.6668 48.8793 46.5375 49.2006 46.4949C50.1686 46.3115 51.3043 46.7208 51.8445 46.8644C51.5928 47.052 51.3883 47.1373 51.1309 47.1686C51.5232 47.4984 51.8104 47.7769 52.0122 48.0869C51.6327 48.182 51.4181 47.9419 50.5993 47.4486Z" fill="black"/>
    <path fill-rule="evenodd" clip-rule="evenodd" d="M42.5122 61.9676V60.9043C41.6906 61.281 40.6458 61.5865 39.3011 61.7074L39.24 62.087C39.3537 62.1026 39.4987 62.1168 39.692 62.1296C39.1945 62.1979 38.5506 62.2305 38.198 62.2305C37.8441 62.2305 37.2016 62.1979 36.7027 62.1296C36.8945 62.1168 37.0396 62.1026 37.1533 62.087L37.0922 61.7074C35.7474 61.5865 34.7012 61.281 33.881 60.9043V61.9676L32.7666 62.4252C33.5925 62.8545 34.5421 63.2042 35.6394 63.4871L35.5086 63.932C36.1369 64.1168 37.1419 64.3044 38.1952 64.3044C39.2486 64.3044 40.2521 64.1154 40.8818 63.932L40.7525 63.4871C41.8484 63.2042 42.8008 62.8545 43.6266 62.4252L42.5122 61.9676ZM33.3622 62.4494L34.1142 62.1467V61.281C34.5975 61.4671 35.2314 61.6605 36.1412 61.8496L35.7148 63.2383C34.7865 63.0251 33.9977 62.738 33.3622 62.4494ZM38.1966 64.0499C37.348 64.0499 36.5193 63.9235 35.8114 63.7487L36.262 62.2916C36.5605 62.3613 37.3082 62.4522 38.1966 62.4522C39.0865 62.4522 39.8299 62.3599 40.1298 62.2916L40.5819 63.7487C39.8711 63.9235 39.0438 64.0499 38.1966 64.0499ZM40.6799 63.2383L40.2535 61.8496C41.1632 61.662 41.7972 61.4671 42.2806 61.281V62.1467L43.0311 62.4494C42.3957 62.738 41.6096 63.0251 40.6799 63.2383Z" fill="black"/>
    <path fill-rule="evenodd" clip-rule="evenodd" d="M25.2606 48.2105C25.2606 48.2105 25.6984 49.0179 25.9529 49.1998C26.729 48.4223 27.3004 47.2965 28.5584 46.6497C27.9628 45.6689 27.1639 45.8339 27.1042 44.961C27.4866 45.069 27.8562 44.8161 27.8647 44.3598C27.4638 44.1395 27.3218 44.5773 27.2137 44.465C27.1241 44.3726 27.6714 44.357 27.6203 43.7898C27.0915 43.7727 27.1881 44.1565 27.0644 44.1082C26.9649 44.0727 27.2137 43.7571 26.7347 43.4785C26.466 43.976 26.8342 44.1323 26.7574 44.2148C26.6764 44.3015 26.537 43.9276 26.0794 44.0841C26.203 44.6995 26.7958 44.4621 26.7162 44.6441C26.6593 44.7749 26.2556 44.391 26.0964 44.8645C26.3239 45.2794 26.7333 45.1814 26.9735 45.008C27.0246 45.8054 27.5463 45.8722 28.1306 46.4266C26.574 45.7798 24.6821 46.5744 23.967 46.6782C24.0765 46.9241 24.2926 47.1913 24.5726 47.288C24.1319 47.6945 24.1206 47.9191 23.832 48.2133C23.832 48.2133 24.4205 48.8601 25.2606 48.2105ZM24.3793 48.0883C24.5825 47.7784 24.8683 47.4984 25.2634 47.17C25.0047 47.1373 24.8015 47.052 24.5484 46.8644C25.09 46.7208 26.2272 46.31 27.1967 46.4949C27.515 46.5375 27.6942 46.6668 27.5776 46.7407C27.0574 47.0862 26.4134 47.8864 25.9457 48.8203C25.5364 48.31 25.7098 47.6419 25.7937 47.45C24.9763 47.9419 24.7631 48.1821 24.3793 48.0883Z" fill="black"/>
    <path fill-rule="evenodd" clip-rule="evenodd" d="M37.5156 47.6172V48.0849C37.6762 47.8901 37.989 47.9285 37.989 47.9285V48.6037C37.989 48.6037 37.9776 48.9363 37.8611 49.0785H38.198H38.5348C38.4169 48.9363 38.4069 48.6037 38.4069 48.6037V47.9299C38.4069 47.9299 38.7182 47.8915 38.8789 48.0862V47.6186H38.198H37.5156V47.6172Z" fill="black"/>
    <path d="M64.8117 49.3329V43.7826H68.0911V41.7629H59.1445V43.7826H62.4238V49.3329H64.8117ZM71.3549 46.1682V41.7629H69.0467V49.3329H71.0843L75.0641 44.9277V49.3329H77.3724V41.7629H75.3348L71.3549 46.1682ZM85.138 46.518V49.3329H87.4462V41.7629H85.138V44.53H81.4287V41.7629H79.1205V49.3329H81.4287V46.518H85.138ZM93.8745 49.3329C94.3999 49.3329 94.8775 49.2851 95.3232 49.1579C96.5171 48.8239 97.2972 47.8538 97.2972 46.5339C97.2972 45.2775 96.6286 44.4029 95.562 44.0052C95.0526 43.8145 94.4477 43.7985 93.8745 43.7985H91.5027V41.7629H89.1944V49.3329H93.8745ZM93.4766 45.5798C93.795 45.5798 94.0974 45.5798 94.368 45.6751C94.7501 45.8023 94.973 46.1204 94.973 46.502C94.973 46.8997 94.7501 47.2336 94.384 47.3927C94.1292 47.504 93.8745 47.504 93.4766 47.504H91.5027V45.5798H93.4766ZM101.436 46.4702L104.19 49.3329H107.262L103.426 45.3888L107.119 41.7629H104.222L101.436 44.6097H100.799V41.7629H98.4908V49.3329H100.799V46.4702H101.436ZM112.012 41.5562C108.908 41.5562 107.045 43.3055 107.045 45.5638C107.045 47.822 108.908 49.5714 112.012 49.5714C115.1 49.5714 116.963 47.822 116.963 45.5638C116.963 43.3055 115.1 41.5562 112.012 41.5562ZM112.012 47.7267C110.468 47.7267 109.481 46.8042 109.481 45.5638C109.481 44.3233 110.468 43.4168 112.012 43.4168C113.54 43.4168 114.543 44.3233 114.543 45.5638C114.543 46.8042 113.54 47.7267 112.012 47.7267ZM124.65 41.3335H122.342V42.0969C119.445 42.1605 117.709 43.3851 117.709 45.5479C117.709 47.7107 119.445 48.8399 122.342 48.9035V49.6668H124.65V48.9035C127.563 48.8399 129.298 47.7107 129.298 45.5479C129.298 43.3851 127.563 42.1605 124.65 42.0969V41.3335ZM122.342 47.2814C120.75 47.2177 120.049 46.5656 120.049 45.5479C120.049 44.53 120.75 43.7985 122.342 43.7349V47.2814ZM124.65 43.7349C126.258 43.7985 126.942 44.53 126.942 45.5479C126.942 46.5656 126.258 47.2177 124.65 47.2814V43.7349ZM136.978 41.3335H134.67V42.0969C131.772 42.1605 130.037 43.3851 130.037 45.5479C130.037 47.7107 131.772 48.8399 134.67 48.9035V49.6668H136.978V48.9035C139.891 48.8399 141.626 47.7107 141.626 45.5479C141.626 43.3851 139.891 42.1605 136.978 42.0969V41.3335ZM134.67 47.2814C133.078 47.2177 132.377 46.5656 132.377 45.5479C132.377 44.53 133.078 43.7985 134.67 43.7349V47.2814ZM136.978 43.7349C138.586 43.7985 139.27 44.53 139.27 45.5479C139.27 46.5656 138.586 47.2177 136.978 47.2814V43.7349Z" fill="black"/>
    <path d="M64.1952 56.6611C64.1952 56.7946 64.1803 56.9264 64.1507 57.0566C64.121 57.1868 64.0716 57.3252 64.0024 57.4717C63.9333 57.6149 63.8262 57.7451 63.6812 57.8623C63.5396 57.9762 63.3666 58.0625 63.1624 58.1211V58.209C63.561 58.2936 63.8641 58.4808 64.0716 58.7705C64.2825 59.0602 64.3879 59.3906 64.3879 59.7617C64.3879 60.1491 64.2989 60.4779 64.121 60.748C63.9464 61.0182 63.7043 61.2119 63.3946 61.3291C63.2002 61.3975 63.0108 61.443 62.8263 61.4658C62.6451 61.4886 62.3865 61.5 62.0505 61.5H60.0244V55.0205H62.1197C62.2547 55.0205 62.375 55.0238 62.4804 55.0303C62.5891 55.0335 62.7193 55.0482 62.8708 55.0742C63.0223 55.1003 63.1541 55.1344 63.2661 55.1768C63.3814 55.2191 63.5 55.2809 63.6219 55.3623C63.7438 55.4437 63.8443 55.5413 63.9234 55.6553C64.0024 55.766 64.0667 55.9076 64.1161 56.0801C64.1688 56.2526 64.1952 56.4463 64.1952 56.6611ZM62.1691 60.7188C63.0256 60.7188 63.4539 60.3623 63.4539 59.6494C63.4539 59.1904 63.2892 58.8844 62.9597 58.7314C62.795 58.6566 62.5282 58.6191 62.1592 58.6191H60.9139V60.7188H62.1691ZM62.0406 55.8018H60.9139V57.8721H62.1197C62.5018 57.8721 62.7884 57.7728 62.9795 57.5742C63.1706 57.3724 63.2661 57.1071 63.2661 56.7783C63.2661 56.5993 63.2332 56.4447 63.1673 56.3145C63.1047 56.1842 63.0306 56.0882 62.9449 56.0264C62.8593 55.9613 62.7522 55.9108 62.6237 55.875C62.4952 55.8392 62.3915 55.818 62.3124 55.8115C62.2333 55.805 62.1427 55.8018 62.0406 55.8018Z" fill="black"/>
    <path d="M66.4634 54.6006V61.5H65.6233V54.6006H66.4634Z" fill="black"/>
    <path d="M67.7779 57.9795C67.7153 57.5075 67.847 57.1266 68.1732 56.8369C68.5026 56.5472 68.9721 56.4023 69.5815 56.4023C70.191 56.4023 70.6259 56.5537 70.8861 56.8564C71.1497 57.1592 71.2815 57.6068 71.2815 58.1992V61.5H70.4216V61.4219C70.4216 61.3828 70.4299 61.3161 70.4463 61.2217C70.4628 61.124 70.4859 61.0003 70.5155 60.8506C70.5452 60.7008 70.5666 60.5869 70.5798 60.5088H70.4908C70.2503 61.2347 69.7578 61.5977 69.0133 61.5977C68.7629 61.5977 68.5389 61.5586 68.3412 61.4805C68.1468 61.3991 67.992 61.29 67.8767 61.1533C67.7614 61.0166 67.6741 60.8669 67.6148 60.7041C67.5555 60.5381 67.5258 60.3639 67.5258 60.1816C67.5258 60.0026 67.5456 59.8382 67.5851 59.6885C67.628 59.5355 67.6823 59.4036 67.7482 59.293C67.8141 59.179 67.8997 59.0765 68.0052 58.9854C68.1139 58.891 68.221 58.8128 68.3264 58.751C68.4318 58.6891 68.5603 58.6338 68.7118 58.585C68.8634 58.5361 69.0017 58.4987 69.1269 58.4727C69.2521 58.4434 69.4004 58.4189 69.5717 58.3994C69.743 58.3799 69.8879 58.3652 70.0065 58.3555C70.1284 58.3457 70.2734 58.3376 70.4414 58.3311V58.1406C70.4414 57.4212 70.1235 57.0615 69.4877 57.0615C69.1615 57.0615 68.9194 57.1445 68.7612 57.3105C68.6031 57.4766 68.5487 57.6995 68.5982 57.9795H67.7779ZM69.3246 60.958C69.5881 60.958 69.8056 60.8799 69.9769 60.7236C70.1515 60.5674 70.2717 60.3753 70.3376 60.1475C70.4068 59.9163 70.4414 59.6543 70.4414 59.3613V58.8584C69.6837 58.8844 69.1467 59.0016 68.8304 59.21C68.5142 59.415 68.356 59.695 68.356 60.0498C68.356 60.32 68.445 60.5397 68.6229 60.709C68.8041 60.875 69.038 60.958 69.3246 60.958Z" fill="black"/>
    <path d="M76.1984 59.5811C76.2346 60.1995 76.0946 60.6911 75.7784 61.0557C75.4621 61.417 74.991 61.5977 74.3651 61.5977C73.9928 61.5977 73.6683 61.5358 73.3916 61.4121C73.1181 61.2852 72.8974 61.1045 72.7294 60.8701C72.5647 60.6357 72.4411 60.3639 72.3588 60.0547C72.2797 59.7422 72.2402 59.3906 72.2402 59C72.2402 58.6484 72.2797 58.3213 72.3588 58.0186C72.4411 57.7126 72.5647 57.4375 72.7294 57.1934C72.8941 56.9492 73.1165 56.7572 73.3965 56.6172C73.6765 56.474 73.9994 56.4023 74.3651 56.4023C74.9515 56.4023 75.416 56.5798 75.7586 56.9346C76.1045 57.2861 76.2478 57.7646 76.1885 58.3701H75.3386C75.3913 57.96 75.3221 57.6442 75.131 57.4229C74.9432 57.2015 74.6879 57.0908 74.3651 57.0908C73.973 57.0908 73.6666 57.2585 73.4459 57.5938C73.2285 57.929 73.1198 58.3978 73.1198 59C73.1198 59.6283 73.2318 60.1068 73.4558 60.4355C73.6798 60.7643 73.9895 60.9287 74.3848 60.9287C75.0832 60.9287 75.4077 60.4795 75.3583 59.5811H76.1984Z" fill="black"/>
    <path d="M78.1355 61.5H77.2757V54.6006H78.1355V58.6484H78.6346C78.8488 58.6484 79.0135 58.6061 79.1288 58.5215C79.2474 58.4336 79.3479 58.2839 79.4302 58.0723C79.4434 58.0365 79.483 57.9307 79.5488 57.7549C79.618 57.5791 79.6691 57.4521 79.702 57.374C79.735 57.2926 79.7795 57.1852 79.8355 57.0518C79.8948 56.9183 79.9475 56.8076 79.9936 56.7197C80.043 56.6318 80.0891 56.5586 80.132 56.5H81.0807C80.9424 56.6367 80.8238 56.8011 80.725 56.9932C80.6294 57.182 80.5322 57.4049 80.4334 57.6621C80.3379 57.9193 80.2571 58.1146 80.1913 58.248C80.0891 58.4466 79.9722 58.5964 79.8404 58.6973C79.7119 58.7949 79.539 58.8665 79.3215 58.9121V59C79.5752 59.0423 79.7679 59.1188 79.8997 59.2295C80.0315 59.3369 80.1418 59.5046 80.2308 59.7324C80.5405 60.5365 80.8452 61.1257 81.145 61.5H80.132C79.9442 61.2624 79.7251 60.766 79.4747 60.0107C79.3891 59.7633 79.2869 59.5811 79.1683 59.4639C79.0497 59.3467 78.8718 59.2881 78.6346 59.2881H78.1355V61.5Z" fill="black"/>
</svg>
