<svg width="104" height="46" viewBox="0 0 104 46" fill="none" xmlns="http://www.w3.org/2000/svg">
    <path d="M1.69407 41.4685C0.883057 41.2995 0.362572 40.5051 0.531532 39.6941C0.700493 38.8831 1.49492 38.3626 2.30593 38.5315L1.69407 41.4685ZM97.5847 0.55864C98.3807 0.329272 99.212 0.788651 99.4414 1.58469L103.179 14.5569C103.408 15.353 102.949 16.1842 102.153 16.4136C101.357 16.643 100.526 16.1836 100.296 15.3876L96.9739 3.85667L85.4431 7.17913C84.647 7.40849 83.8158 6.94911 83.5864 6.15307C83.357 5.35703 83.8164 4.52577 84.6124 4.2964L97.5847 0.55864ZM97.2903 6.26807C96.8692 6.9815 95.9495 7.2185 95.2361 6.79742C94.5226 6.37634 94.2856 5.45663 94.7067 4.7432L97.2903 6.26807ZM90.4335 11.4784C90.9012 10.7947 91.8347 10.6196 92.5184 11.0874C93.2022 11.5551 93.3772 12.4886 92.9095 13.1723L90.4335 11.4784ZM88.0135 19.7497C87.4909 20.3925 86.5462 20.4899 85.9034 19.9673C85.2606 19.4448 85.1631 18.5 85.6857 17.8572L88.0135 19.7497ZM80.3996 23.7485C80.9841 23.1614 81.9338 23.1593 82.5209 23.7438C83.108 24.3283 83.1101 25.278 82.5256 25.8651L80.3996 23.7485ZM76.3805 31.3608C75.7307 31.8745 74.7873 31.7642 74.2736 31.1143C73.7598 30.4645 73.8701 29.5211 74.52 29.0074L76.3805 31.3608ZM68.0438 33.4719C68.7559 33.0486 69.6763 33.2826 70.0997 33.9947C70.5231 34.7067 70.289 35.6272 69.577 36.0506L68.0438 33.4719ZM62.1949 39.7787C61.4315 40.1005 60.5518 39.7426 60.2299 38.9793C59.9081 38.2159 60.266 37.3362 61.0294 37.0143L62.1949 39.7787ZM53.5888 39.5826C54.3877 39.3635 55.213 39.8336 55.4321 40.6325C55.6512 41.4314 55.1811 42.2567 54.3822 42.4758L53.5888 39.5826ZM46.3232 44.1765C45.5042 44.3012 44.7392 43.7384 44.6145 42.9194C44.4897 42.1004 45.0526 41.3354 45.8716 41.2107L46.3232 44.1765ZM37.983 42.0046C38.8102 41.961 39.5162 42.5963 39.5598 43.4236C39.6034 44.2508 38.9682 44.9568 38.1409 45.0004L37.983 42.0046ZM29.9552 45.091C29.1271 45.068 28.4744 44.3781 28.4974 43.55C28.5204 42.7219 29.2103 42.0692 30.0384 42.0922L29.9552 45.091ZM22.0836 41.6029C22.9084 41.6796 23.515 42.4105 23.4383 43.2354C23.3616 44.0602 22.6307 44.6667 21.8058 44.59L22.0836 41.6029ZM13.714 43.6159C12.8943 43.4961 12.3268 42.7345 12.4466 41.9148C12.5663 41.0951 13.3279 40.5276 14.1476 40.6474L13.714 43.6159ZM6.24471 39.3157C7.05864 39.47 7.59339 40.2549 7.43911 41.0688C7.28482 41.8827 6.49993 42.4175 5.686 42.2632L6.24471 39.3157ZM99.3129 2.72553C98.6452 3.93366 97.9712 5.11444 97.2903 6.26807L94.7067 4.7432C95.3727 3.6149 96.0327 2.45876 96.6871 1.27447L99.3129 2.72553ZM92.9095 13.1723C91.3192 15.4969 89.6891 17.6886 88.0135 19.7497L85.6857 17.8572C87.3054 15.8649 88.8864 13.7398 90.4335 11.4784L92.9095 13.1723ZM82.5256 25.8651C80.5433 27.8562 78.4975 29.6872 76.3805 31.3608L74.52 29.0074C76.5393 27.411 78.4968 25.6597 80.3996 23.7485L82.5256 25.8651ZM69.577 36.0506C67.202 37.4627 64.7439 38.704 62.1949 39.7787L61.0294 37.0143C63.4519 35.9929 65.7872 34.8137 68.0438 33.4719L69.577 36.0506ZM54.3822 42.4758C51.7841 43.1883 49.0999 43.7537 46.3232 44.1765L45.8716 41.2107C48.5391 40.8045 51.1089 40.2628 53.5888 39.5826L54.3822 42.4758ZM38.1409 45.0004C35.4928 45.14 32.7658 45.1691 29.9552 45.091L30.0384 42.0922C32.7747 42.1682 35.421 42.1397 37.983 42.0046L38.1409 45.0004ZM21.8058 44.59C19.1792 44.3458 16.483 44.0203 13.714 43.6159L14.1476 40.6474C16.8689 41.0449 19.513 41.3639 22.0836 41.6029L21.8058 44.59ZM5.686 42.2632C4.37111 42.014 3.04057 41.749 1.69407 41.4685L2.30593 38.5315C3.63541 38.8085 4.94823 39.0699 6.24471 39.3157L5.686 42.2632Z" fill="#F5A623" fill-opacity="0.6"/>
</svg>
