<svg width="171" height="58" viewBox="0 0 171 58" fill="none" xmlns="http://www.w3.org/2000/svg">
    <path d="M0.333389 2.44288C-0.187347 1.79858 -0.0871735 0.854126 0.557129 0.333389C1.20143 -0.187348 2.14587 -0.0871792 2.66661 0.557122L0.333389 2.44288ZM170.216 42.682C170.944 43.0775 171.214 43.9883 170.818 44.7162L164.372 56.5781C163.977 57.306 163.066 57.5754 162.338 57.1799C161.61 56.7844 161.341 55.8737 161.736 55.1458L167.466 44.6018L156.922 38.8725C156.194 38.4769 155.925 37.5662 156.32 36.8383C156.716 36.1104 157.626 35.841 158.354 36.2365L170.216 42.682ZM166.175 46.5172C165.377 46.7401 164.55 46.274 164.327 45.4761C164.104 44.6782 164.57 43.8507 165.368 43.6278L166.175 46.5172ZM157.973 45.5696C158.777 45.372 159.59 45.8641 159.787 46.6686C159.985 47.4731 159.493 48.2855 158.688 48.4831L157.973 45.5696ZM151.138 50.205C150.328 50.3755 149.532 49.8566 149.362 49.0459C149.191 48.2352 149.71 47.4398 150.521 47.2693L151.138 50.205ZM143.017 48.7102C143.834 48.5686 144.61 49.1155 144.752 49.9317C144.893 50.7479 144.346 51.5244 143.53 51.666L143.017 48.7102ZM135.871 52.8481C135.05 52.9589 134.294 52.3831 134.183 51.5621C134.073 50.7411 134.648 49.9858 135.469 49.8751L135.871 52.8481ZM127.886 50.746C128.711 50.6681 129.443 51.2735 129.521 52.0982C129.599 52.923 128.993 53.6548 128.169 53.7327L127.886 50.746ZM120.436 54.301C119.609 54.3441 118.903 53.7084 118.86 52.8811C118.817 52.0538 119.452 51.3482 120.28 51.305L120.436 54.301ZM112.664 51.5345C113.492 51.5281 114.169 52.1944 114.175 53.0228C114.182 53.8512 113.515 54.528 112.687 54.5344L112.664 51.5345ZM104.93 54.4149C104.102 54.3827 103.457 53.6855 103.489 52.8577C103.522 52.0299 104.219 51.385 105.047 51.4172L104.93 54.4149ZM97.4295 50.9351C98.2548 51.0078 98.8648 51.7357 98.7921 52.561C98.7194 53.3862 97.9915 53.9962 97.1663 53.9235L97.4295 50.9351ZM89.4429 53.0455C88.6224 52.9308 88.0502 52.1728 88.1649 51.3523C88.2796 50.5319 89.0376 49.9597 89.8581 50.0744L89.4429 53.0455ZM82.3548 48.8241C83.1681 48.9819 83.6994 49.7691 83.5416 50.5824C83.3838 51.3956 82.5965 51.927 81.7833 51.7691L82.3548 48.8241ZM74.1918 50.0809C73.3884 49.879 72.9008 49.064 73.1027 48.2606C73.3046 47.4571 74.1196 46.9695 74.923 47.1714L74.1918 50.0809ZM67.5927 45.1104C68.3836 45.3569 68.8249 46.1979 68.5784 46.9888C68.3318 47.7797 67.4909 48.221 66.7 47.9745L67.5927 45.1104ZM59.3518 45.4532C58.5762 45.1621 58.1834 44.2974 58.4744 43.5218C58.7655 42.7462 59.6302 42.3534 60.4058 42.6445L59.3518 45.4532ZM53.3548 39.7641C54.1123 40.0994 54.4546 40.9853 54.1193 41.7428C53.784 42.5004 52.8981 42.8427 52.1406 42.5074L53.3548 39.7641ZM45.125 39.1563C44.3881 38.7777 44.0976 37.8735 44.4761 37.1366C44.8547 36.3997 45.7589 36.1092 46.4958 36.4878L45.125 39.1563ZM39.8282 32.8148C40.542 33.2353 40.7797 34.1548 40.3591 34.8686C39.9386 35.5823 39.0191 35.82 38.3053 35.3995L39.8282 32.8148ZM31.7236 31.2623C31.0352 30.8015 30.8506 29.8698 31.3114 29.1814C31.7722 28.4929 32.7039 28.3084 33.3923 28.7692L31.7236 31.2623ZM27.1872 24.3549C27.8484 24.8541 27.9797 25.7947 27.4805 26.4559C26.9813 27.117 26.0407 27.2483 25.3796 26.7492L27.1872 24.3549ZM19.3091 21.8929C18.6768 21.3576 18.5983 20.4111 19.1337 19.7789C19.669 19.1467 20.6155 19.0681 21.2477 19.6035L19.3091 21.8929ZM15.5748 14.5246C16.1767 15.0939 16.203 16.0433 15.6337 16.6451C15.0644 17.2469 14.115 17.2733 13.5132 16.704L15.5748 14.5246ZM8.01007 11.2082C7.43988 10.6072 7.46483 9.65777 8.06581 9.08758C8.66678 8.51738 9.6162 8.54234 10.1864 9.14332L8.01007 11.2082ZM5.09668 3.48439C5.63416 4.1148 5.55882 5.06155 4.92842 5.59903C4.29802 6.13651 3.35127 6.06119 2.81378 5.43078L5.09668 3.48439ZM169.926 45.4384C168.669 45.8102 167.419 46.1698 166.175 46.5172L165.368 43.6278C166.597 43.2845 167.832 42.9292 169.074 42.5616L169.926 45.4384ZM158.688 48.4831C156.143 49.1082 153.626 49.6817 151.138 50.205L150.521 47.2693C152.976 46.7529 155.46 46.1869 157.973 45.5696L158.688 48.4831ZM143.53 51.666C140.945 52.1145 138.392 52.508 135.871 52.8481L135.469 49.8751C137.953 49.54 140.469 49.1523 143.017 48.7102L143.53 51.666ZM128.169 53.7327C125.555 53.9797 122.978 54.1684 120.436 54.301L120.28 51.305C122.779 51.1747 125.314 50.9891 127.886 50.746L128.169 53.7327ZM112.687 54.5344C110.061 54.5547 107.476 54.514 104.93 54.4149L105.047 51.4172C107.545 51.5145 110.084 51.5544 112.664 51.5345L112.687 54.5344ZM97.1663 53.9235C94.5472 53.6928 91.9728 53.3991 89.4429 53.0455L89.8581 50.0744C92.3373 50.4209 94.861 50.7088 97.4295 50.9351L97.1663 53.9235ZM81.7833 51.7691C79.2036 51.2685 76.6732 50.7046 74.1918 50.0809L74.923 47.1714C77.3515 47.7817 79.8286 48.3339 82.3548 48.8241L81.7833 51.7691ZM66.7 47.9745C64.1969 47.1942 61.7477 46.3524 59.3518 45.4532L60.4058 42.6445C62.7488 43.5238 65.1442 44.3472 67.5927 45.1104L66.7 47.9745ZM52.1406 42.5074C49.744 41.4466 47.4057 40.3279 45.125 39.1563L46.4958 36.4878C48.7256 37.6332 51.0117 38.727 53.3548 39.7641L52.1406 42.5074ZM38.3053 35.3995C36.0496 34.0704 33.8559 32.6894 31.7236 31.2623L33.3923 28.7692C35.4776 30.1649 37.6227 31.5153 39.8282 32.8148L38.3053 35.3995ZM25.3796 26.7492C23.2905 25.172 21.2673 23.5511 19.3091 21.8929L21.2477 19.6035C23.164 21.2261 25.1436 22.812 27.1872 24.3549L25.3796 26.7492ZM13.5132 16.704C11.6094 14.903 9.77527 13.0687 8.01007 11.2082L10.1864 9.14332C11.9151 10.9654 13.711 12.7615 15.5748 14.5246L13.5132 16.704ZM2.81378 5.43078C1.96866 4.43955 1.14191 3.44325 0.333389 2.44288L2.66661 0.557122C3.45877 1.53725 4.26875 2.51334 5.09668 3.48439L2.81378 5.43078Z" fill="#F5A623" fill-opacity="0.6"/>
</svg>
