<svg width="73" height="70" viewBox="0 0 73 70" fill="none" xmlns="http://www.w3.org/2000/svg">
    <path d="M73 1.5C73 0.671573 72.3284 0 71.5 0C70.6716 0 70 0.671573 70 1.5H73ZM0.888193 57.4931C0.332087 58.1071 0.379047 59.0557 0.993081 59.6118L10.9993 68.6741C11.6134 69.2302 12.562 69.1832 13.1181 68.5692C13.6742 67.9552 13.6272 67.0066 13.0132 66.4505L4.11873 58.3951L12.1741 49.5007C12.7302 48.8866 12.6832 47.938 12.0692 47.3819C11.4552 46.8258 10.5066 46.8728 9.95047 47.4868L0.888193 57.4931ZM6.29758 59.7262C7.12339 59.6604 7.7395 58.9376 7.6737 58.1118C7.60791 57.286 6.88512 56.6699 6.05931 56.7357L6.29758 59.7262ZM14.2692 55.8105C13.4497 55.9315 12.8835 56.694 13.0045 57.5136C13.1255 58.3331 13.888 58.8994 14.7076 58.7783L14.2692 55.8105ZM23.035 57.2222C23.8426 57.0375 24.3475 56.2331 24.1628 55.4255C23.9781 54.6179 23.1737 54.113 22.3661 54.2977L23.035 57.2222ZM30.2783 52.1134C29.491 52.3711 29.0616 53.2182 29.3193 54.0056C29.5771 54.7929 30.4242 55.2222 31.2116 54.9645L30.2783 52.1134ZM39.1667 51.8912C39.9219 51.5506 40.2579 50.6623 39.9173 49.9071C39.5767 49.152 38.6884 48.8159 37.9333 49.1565L39.1667 51.8912ZM45.1534 45.3571C44.4463 45.7887 44.2231 46.7119 44.6548 47.4189C45.0864 48.126 46.0096 48.3493 46.7166 47.9176L45.1534 45.3571ZM53.7019 42.9543C54.3408 42.4269 54.4312 41.4815 53.9038 40.8426C53.3764 40.2038 52.4309 40.1134 51.7921 40.6408L53.7019 42.9543ZM57.632 35.0075C57.0833 35.6281 57.1416 36.5761 57.7622 37.1248C58.3829 37.6735 59.3308 37.6153 59.8795 36.9946L57.632 35.0075ZM65.0234 30.1076C65.4622 29.4049 65.2482 28.4796 64.5455 28.0409C63.8428 27.6021 62.9175 27.8161 62.4787 28.5188L65.0234 30.1076ZM66.1757 21.3159C65.8603 22.0819 66.2256 22.9586 66.9916 23.274C67.7577 23.5894 68.6344 23.2241 68.9498 22.4581L66.1757 21.3159ZM71.56 14.2715C71.7472 13.4645 71.2447 12.6585 70.4377 12.4714C69.6307 12.2842 68.8247 12.7867 68.6376 13.5937L71.56 14.2715ZM69.8509 5.56494C69.79 6.39112 70.4103 7.11031 71.2364 7.17129C72.0626 7.23227 72.7818 6.61196 72.8428 5.78578L69.8509 5.56494ZM2.07417 59.9982C3.50641 59.9273 4.91413 59.8364 6.29758 59.7262L6.05931 56.7357C4.7064 56.8435 3.32867 56.9324 1.92583 57.0018L2.07417 59.9982ZM14.7076 58.7783C17.6031 58.3507 20.3779 57.8299 23.035 57.2222L22.3661 54.2977C19.7884 54.8873 17.0906 55.3938 14.2692 55.8105L14.7076 58.7783ZM31.2116 54.9645C34.0176 54.046 36.6678 53.0183 39.1667 51.8912L37.9333 49.1565C35.5361 50.2377 32.9863 51.227 30.2783 52.1134L31.2116 54.9645ZM46.7166 47.9176C49.2407 46.3766 51.5668 44.7169 53.7019 42.9543L51.7921 40.6408C49.7691 42.3108 47.5592 43.8883 45.1534 45.3571L46.7166 47.9176ZM59.8795 36.9946C61.8229 34.7966 63.534 32.4932 65.0234 30.1076L62.4787 28.5188C61.0767 30.7643 59.4649 32.9344 57.632 35.0075L59.8795 36.9946ZM68.9498 22.4581C70.0516 19.7823 70.917 17.0441 71.56 14.2715L68.6376 13.5937C68.0302 16.2126 67.2137 18.7951 66.1757 21.3159L68.9498 22.4581ZM72.8428 5.78578C72.9482 4.35767 73 2.92788 73 1.5H70C70 2.85536 69.9508 4.21148 69.8509 5.56494L72.8428 5.78578Z" fill="#F5A623" fill-opacity="0.6"/>
</svg>
