
<svg width="41" height="122" viewBox="0 0 41 122" fill="none" xmlns="http://www.w3.org/2000/svg">
    <path d="M14.8268 0.565385C15.3429 -0.0825785 16.2867 -0.189415 16.9346 0.326759C17.5826 0.842933 17.6894 1.78665 17.1732 2.43462L14.8268 0.565385ZM40.4431 116.091C40.6691 116.888 40.2062 117.717 39.4092 117.943L26.4214 121.626C25.6244 121.852 24.7951 121.389 24.569 120.592C24.343 119.795 24.8059 118.966 25.6029 118.74L37.1477 115.466L33.8738 103.921C33.6478 103.124 34.1106 102.295 34.9076 102.069C35.7046 101.843 36.534 102.306 36.76 103.103L40.4431 116.091ZM34.6633 115.655C33.9652 115.209 33.7606 114.282 34.2065 113.584C34.6524 112.885 35.5799 112.681 36.2781 113.127L34.6633 115.655ZM29.7797 108.405C30.4194 108.931 30.5111 109.877 29.9847 110.516C29.4582 111.156 28.5129 111.248 27.8733 110.721L29.7797 108.405ZM21.7276 105.01C21.1556 104.41 21.1777 103.461 21.777 102.889C22.3762 102.317 23.3257 102.339 23.8977 102.938L21.7276 105.01ZM18.7019 96.8103C19.2 97.4723 19.0672 98.4127 18.4053 98.9108C17.7433 99.4089 16.8029 99.2761 16.3048 98.6141L18.7019 96.8103ZM11.6534 91.6453C11.2325 90.9317 11.4698 90.0121 12.1833 89.5912C12.8969 89.1703 13.8165 89.4076 14.2374 90.1212L11.6534 91.6453ZM10.5253 82.9763C10.8679 83.7305 10.5342 84.6197 9.77999 84.9624C9.02575 85.305 8.13654 84.9713 7.7939 84.2171L10.5253 82.9763ZM4.72651 76.4365C4.46159 75.6515 4.88313 74.8005 5.66805 74.5355C6.45297 74.2706 7.30404 74.6921 7.56897 75.4771L4.72651 76.4365ZM5.36155 67.7162C5.54995 68.5229 5.04871 69.3297 4.24199 69.5181C3.43527 69.7065 2.62856 69.2052 2.44016 68.3985L5.36155 67.7162ZM0.92091 60.1859C0.807877 59.3653 1.38154 58.6083 2.20222 58.4953C3.0229 58.3823 3.77982 58.9559 3.89285 59.7766L0.92091 60.1859ZM3.15518 51.733C3.19344 52.5606 2.55361 53.2625 1.72607 53.3007C0.898521 53.339 0.196648 52.6992 0.158382 51.8716L3.15518 51.733ZM0.150497 43.5222C0.187347 42.6946 0.888126 42.0536 1.71574 42.0904C2.54334 42.1273 3.18438 42.828 3.14753 43.6556L0.150497 43.5222ZM3.87881 35.6147C3.76526 36.4353 3.00798 37.0085 2.18737 36.895C1.36676 36.7814 0.793575 36.0241 0.907124 35.2035L3.87881 35.6147ZM2.45303 26.9871C2.64634 26.1815 3.45608 25.6852 4.26163 25.8785C5.06719 26.0718 5.56352 26.8815 5.3702 27.6871L2.45303 26.9871ZM7.65643 19.9646C7.37869 20.7451 6.52084 21.1527 5.74035 20.875C4.95987 20.5972 4.55231 19.7394 4.83004 18.9589L7.65643 19.9646ZM8.09746 11.232C8.46572 10.49 9.36582 10.1869 10.1079 10.5552C10.85 10.9235 11.153 11.8236 10.7847 12.5656L8.09746 11.232ZM14.8093 5.64861C14.3439 6.3339 13.411 6.5121 12.7257 6.04662C12.0404 5.58115 11.8622 4.64827 12.3277 3.96298L14.8093 5.64861ZM38.269 117.81C37.0356 117.121 35.8338 116.403 34.6633 115.655L36.2781 113.127C37.3986 113.842 38.5495 114.531 39.731 115.19L38.269 117.81ZM27.8733 110.721C25.6895 108.924 23.6418 107.015 21.7276 105.01L23.8977 102.938C25.7304 104.858 27.6902 106.685 29.7797 108.405L27.8733 110.721ZM16.3048 98.6141C14.6172 96.3715 13.0678 94.0433 11.6534 91.6453L14.2374 90.1212C15.5964 92.4252 17.0837 94.6598 18.7019 96.8103L16.3048 98.6141ZM7.7939 84.2171C6.63828 81.6732 5.61685 79.0743 4.72651 76.4365L7.56897 75.4771C8.42793 78.022 9.41253 80.5268 10.5253 82.9763L7.7939 84.2171ZM2.44016 68.3985C1.80515 65.6795 1.29975 62.9365 0.92091 60.1859L3.89285 59.7766C4.25929 62.4371 4.74796 65.0889 5.36155 67.7162L2.44016 68.3985ZM0.158382 51.8716C0.0290642 49.0747 0.0274429 46.286 0.150497 43.5222L3.14753 43.6556C3.02851 46.3288 3.03005 49.0268 3.15518 51.733L0.158382 51.8716ZM0.907124 35.2035C1.29308 32.4142 1.80941 29.6691 2.45303 26.9871L5.3702 27.6871C4.74998 30.2717 4.25164 32.9204 3.87881 35.6147L0.907124 35.2035ZM4.83004 18.9589C5.78142 16.2853 6.87163 13.7022 8.09746 11.232L10.7847 12.5656C9.61416 14.9244 8.56984 17.3978 7.65643 19.9646L4.83004 18.9589ZM12.3277 3.96298C13.1235 2.79128 13.9567 1.65758 14.8268 0.565385L17.1732 2.43462C16.352 3.46556 15.5638 4.53788 14.8093 5.64861L12.3277 3.96298Z" fill="#F5A623" fill-opacity="0.6"/>
</svg>
