<svg width="21" height="42" viewBox="0 0 21 42" fill="none" xmlns="http://www.w3.org/2000/svg">
    <path d="M18.4502 0.604387C19.221 0.300749 20.092 0.679438 20.3956 1.45021C20.6993 2.22099 20.3206 3.09197 19.5498 3.39561L18.4502 0.604387ZM16.4952 40.1196C16.4292 40.9454 15.7062 41.5613 14.8804 41.4952L1.42338 40.4187C0.597588 40.3526 -0.0182915 39.6296 0.0477715 38.8038C0.113834 37.978 0.836823 37.3622 1.66261 37.4282L13.6244 38.3852L14.5813 26.4234C14.6474 25.5976 15.3704 24.9817 16.1962 25.0478C17.022 25.1138 17.6378 25.8368 17.5718 26.6626L16.4952 40.1196ZM16.3285 4.94969C15.6135 5.36815 14.6947 5.12778 14.2762 4.4128C13.8578 3.69783 14.0981 2.77901 14.8131 2.36055L16.3285 4.94969ZM8.69485 7.74798C9.18909 7.08314 10.1287 6.94483 10.7936 7.43907C11.4584 7.93331 11.5967 8.87294 11.1025 9.53778L8.69485 7.74798ZM8.32494 15.8435C8.16158 16.6556 7.37077 17.1816 6.55861 17.0182C5.74645 16.8549 5.22049 16.0641 5.38385 15.2519L8.32494 15.8435ZM5.27127 23.3447C5.14467 22.526 5.70573 21.7597 6.52443 21.6331C7.34312 21.5065 8.10944 22.0675 8.23604 22.8862L5.27127 23.3447ZM10.2885 29.7905C10.62 30.5498 10.2731 31.434 9.51387 31.7654C8.75462 32.0968 7.87047 31.7499 7.53906 30.9907L10.2885 29.7905ZM11.4394 37.8609C10.9614 37.1843 11.1224 36.2483 11.7991 35.7703C12.4757 35.2923 13.4117 35.4533 13.8897 36.1299L11.4394 37.8609ZM19.5498 3.39561C18.3763 3.85791 17.3041 4.37867 16.3285 4.94969L14.8131 2.36055C15.9296 1.70711 17.1416 1.11991 18.4502 0.604387L19.5498 3.39561ZM11.1025 9.53778C9.69934 11.4252 8.78553 13.5537 8.32494 15.8435L5.38385 15.2519C5.92651 12.554 7.01241 10.0112 8.69485 7.74798L11.1025 9.53778ZM8.23604 22.8862C8.58575 25.1478 9.27666 27.4724 10.2885 29.7905L7.53906 30.9907C6.43443 28.46 5.66437 25.8868 5.27127 23.3447L8.23604 22.8862ZM13.8897 36.1299C14.5845 37.1136 15.3361 38.0814 16.1419 39.0273L13.8581 40.9727C12.9945 39.9589 12.1873 38.9196 11.4394 37.8609L13.8897 36.1299Z" fill="#F5A623" fill-opacity="0.6"/>
</svg>
