<svg width="36" height="99" viewBox="0 0 36 99" fill="none" xmlns="http://www.w3.org/2000/svg">
    <path d="M23.9306 98.1913C24.5885 98.6947 25.53 98.5694 26.0334 97.9115C26.5368 97.2535 26.4115 96.3121 25.7535 95.8087L23.9306 98.1913ZM35.3319 8.68992C35.713 7.95432 35.4255 7.04911 34.6899 6.66808L22.7026 0.4588C21.967 0.0777679 21.0618 0.365201 20.6808 1.1008C20.2998 1.8364 20.5872 2.74161 21.3228 3.12264L31.9782 8.642L26.4588 19.2974C26.0778 20.033 26.3652 20.9382 27.1008 21.3192C27.8364 21.7002 28.7416 21.4128 29.1226 20.6772L35.3319 8.68992ZM29.7156 7.96371C28.9496 8.27927 28.5845 9.15603 28.9001 9.922C29.2156 10.688 30.0924 11.0531 30.8584 10.7375L29.7156 7.96371ZM24.0807 14.2398C24.7807 13.7967 24.9889 12.8701 24.5457 12.1701C24.1026 11.4702 23.1759 11.262 22.476 11.7051L24.0807 14.2398ZM16.0043 16.6577C15.3938 17.2176 15.3528 18.1665 15.9127 18.777C16.4726 19.3876 17.4215 19.4286 18.032 18.8686L16.0043 16.6577ZM12.8933 24.4964C13.396 23.8379 13.2697 22.8966 12.6112 22.3939C11.9528 21.8912 11.0114 22.0175 10.5088 22.676L12.8933 24.4964ZM6.14401 29.5509C5.76127 30.2857 6.0466 31.1915 6.78131 31.5743C7.51603 31.957 8.4219 31.6717 8.80464 30.937L6.14401 29.5509ZM5.8521 37.9821C6.10834 37.1943 5.67743 36.348 4.88963 36.0917C4.10183 35.8355 3.25546 36.2664 2.99922 37.0542L5.8521 37.9821ZM1.11541 44.9598C0.988196 45.7784 1.54868 46.5451 2.36728 46.6723C3.18588 46.7996 3.95261 46.2391 4.07983 45.4205L1.11541 44.9598ZM3.5001 53.0548C3.49846 52.2264 2.82557 51.5562 1.99714 51.5578C1.16872 51.5594 0.498468 52.2323 0.500102 53.0608L3.5001 53.0548ZM1.1378 61.1508C1.26562 61.9693 2.03277 62.5292 2.85128 62.4014C3.66978 62.2736 4.2297 61.5064 4.10188 60.6879L1.1378 61.1508ZM5.85085 68.1481C5.60194 67.3579 4.75962 66.9192 3.96947 67.1681C3.17932 67.417 2.74056 68.2593 2.98947 69.0495L5.85085 68.1481ZM5.99076 76.585C6.35278 77.3302 7.25031 77.6408 7.99545 77.2787C8.74059 76.9167 9.05117 76.0192 8.68916 75.2741L5.99076 76.585ZM12.5316 81.9239C12.0675 81.2377 11.1349 81.0576 10.4487 81.5218C9.76252 81.9859 9.5825 82.9184 10.0466 83.6046L12.5316 81.9239ZM15.0276 89.9806C15.5803 90.5977 16.5286 90.6499 17.1457 90.0972C17.7628 89.5444 17.815 88.5961 17.2623 87.979L15.0276 89.9806ZM22.7589 93.3727C22.1323 92.8307 21.185 92.8993 20.6431 93.5259C20.1011 94.1525 20.1697 95.0997 20.7963 95.6417L22.7589 93.3727ZM33.546 6.57034C32.2345 6.98681 30.9574 7.45214 29.7156 7.96371L30.8584 10.7375C32.0227 10.2579 33.2214 9.82103 34.454 9.42966L33.546 6.57034ZM22.476 11.7051C20.1459 13.1803 17.9862 14.84 16.0043 16.6577L18.032 18.8686C19.8841 17.1701 21.9023 15.619 24.0807 14.2398L22.476 11.7051ZM10.5088 22.676C8.85623 24.8407 7.39895 27.142 6.14401 29.5509L8.80464 30.937C9.98158 28.6777 11.3469 26.5221 12.8933 24.4964L10.5088 22.676ZM2.99922 37.0542C2.16436 39.6209 1.53415 42.2653 1.11541 44.9598L4.07983 45.4205C4.47418 42.8829 5.06733 40.3949 5.8521 37.9821L2.99922 37.0542ZM0.500102 53.0608C0.505392 55.7437 0.715839 58.4487 1.1378 61.1508L4.10188 60.6879C3.70354 58.1371 3.50508 55.5849 3.5001 53.0548L0.500102 53.0608ZM2.98947 69.0495C3.7909 71.5935 4.78954 74.1126 5.99076 76.585L8.68916 75.2741C7.55239 72.9343 6.60817 70.5521 5.85085 68.1481L2.98947 69.0495ZM10.0466 83.6046C11.5276 85.7942 13.1866 87.9252 15.0276 89.9806L17.2623 87.979C15.5114 86.0242 13.9361 84.0003 12.5316 81.9239L10.0466 83.6046ZM20.7963 95.6417C21.802 96.5115 22.8466 97.3619 23.9306 98.1913L25.7535 95.8087C24.7169 95.0155 23.7188 94.203 22.7589 93.3727L20.7963 95.6417Z" fill="#F5A623" fill-opacity="0.6"/>
</svg>
