<svg width="26" height="105" viewBox="0 0 26 105" fill="none" xmlns="http://www.w3.org/2000/svg">
    <path d="M23.0035 0.378886C23.6226 -0.171491 24.5707 -0.11572 25.1211 0.503454C25.6715 1.12263 25.6157 2.07074 24.9965 2.62111L23.0035 0.378886ZM25.4987 102.468C25.5163 103.296 24.8592 103.982 24.0309 104L10.534 104.287C9.70575 104.304 9.02004 103.647 9.00242 102.819C8.9848 101.991 9.64193 101.305 10.4702 101.288L22.4675 101.032L22.2122 89.035C22.1946 88.2067 22.8517 87.521 23.6799 87.5034C24.5082 87.4858 25.1939 88.1429 25.2115 88.9711L25.4987 102.468ZM22.1541 5.34352C21.5769 5.93773 20.6273 5.95149 20.033 5.37426C19.4388 4.79702 19.4251 3.84737 20.0023 3.25316L22.1541 5.34352ZM14.6279 9.58134C15.1227 8.9169 16.0624 8.77934 16.7269 9.27412C17.3913 9.76889 17.5289 10.7086 17.0341 11.3731L14.6279 9.58134ZM12.6893 18.0002C12.2762 18.7182 11.3591 18.9655 10.6411 18.5523C9.923 18.1392 9.67578 17.2222 10.0889 16.5041L12.6893 18.0002ZM6.37395 23.8958C6.70409 23.136 7.58766 22.7877 8.34746 23.1178C9.10727 23.448 9.45558 24.3315 9.12544 25.0914L6.37395 23.8958ZM6.37024 32.5348C6.12616 33.3264 5.28654 33.7703 4.49488 33.5263C3.70322 33.2822 3.25932 32.4426 3.5034 31.6509L6.37024 32.5348ZM1.51241 39.6822C1.666 38.8682 2.45044 38.3328 3.26451 38.4863C4.07857 38.6399 4.61399 39.4244 4.4604 40.2384L1.51241 39.6822ZM3.4423 48.0993C3.38402 48.9257 2.66685 49.5484 1.84048 49.4901C1.01411 49.4318 0.391451 48.7146 0.449739 47.8882L3.4423 48.0993ZM0.361847 56.171C0.320555 55.3436 0.957817 54.6394 1.78522 54.5981C2.61261 54.5568 3.31683 55.194 3.35812 56.0214L0.361847 56.171ZM4.23981 63.8919C4.38302 64.7079 3.83764 65.4854 3.02168 65.6286C2.20573 65.7718 1.42818 65.2265 1.28498 64.4105L4.23981 63.8919ZM3.22571 72.4667C2.9816 71.675 3.42546 70.8354 4.21711 70.5913C5.00875 70.3472 5.8484 70.791 6.09251 71.5827L3.22571 72.4667ZM8.89041 78.9843C9.23065 79.7396 8.89414 80.6277 8.13881 80.968C7.38347 81.3082 6.49534 80.9717 6.1551 80.2164L8.89041 78.9843ZM10.0044 87.5466C9.57641 86.8373 9.80449 85.9153 10.5138 85.4874C11.2231 85.0594 12.1451 85.2875 12.573 85.9968L10.0044 87.5466ZM17.0516 92.5457C17.5564 93.2025 17.4332 94.1442 16.7764 94.6491C16.1195 95.1539 15.1778 95.0307 14.673 94.3739L17.0516 92.5457ZM20.0458 100.653C19.4759 100.052 19.5013 99.1022 20.1025 98.5323C20.7037 97.9624 21.6531 97.9878 22.223 98.589L20.0458 100.653ZM24.9965 2.62111C24.0322 3.47835 23.0835 4.38684 22.1541 5.34352L20.0023 3.25316C20.9811 2.24554 21.9827 1.28626 23.0035 0.378886L24.9965 2.62111ZM17.0341 11.3731C15.4887 13.4485 14.0331 15.6642 12.6893 18.0002L10.0889 16.5041C11.4906 14.0677 13.0107 11.7531 14.6279 9.58134L17.0341 11.3731ZM9.12544 25.0914C8.0831 27.4903 7.1588 29.9771 6.37024 32.5348L3.5034 31.6509C4.32506 28.9858 5.28802 26.395 6.37395 23.8958L9.12544 25.0914ZM4.4604 40.2384C3.97442 42.8142 3.62992 45.4395 3.4423 48.0993L0.449739 47.8882C0.645733 45.1096 1.00549 42.3691 1.51241 39.6822L4.4604 40.2384ZM3.35812 56.0214C3.48834 58.6307 3.77765 61.2586 4.23981 63.8919L1.28498 64.4105C0.800903 61.6523 0.498102 58.9011 0.361847 56.171L3.35812 56.0214ZM6.09251 71.5827C6.85606 74.0588 7.78476 76.5296 8.89041 78.9843L6.1551 80.2164C4.99809 77.6477 4.02558 75.0606 3.22571 72.4667L6.09251 71.5827ZM12.573 85.9968C13.9047 88.2038 15.3944 90.3896 17.0516 92.5457L14.673 94.3739C12.9481 92.1297 11.3948 89.8511 10.0044 87.5466L12.573 85.9968ZM22.223 98.589C23.1242 99.5396 24.0618 100.483 25.0369 101.417L22.9612 103.583C21.9518 102.616 20.9803 101.639 20.0458 100.653L22.223 98.589Z" fill="#F5A623" fill-opacity="0.6"/>
</svg>
