<svg width="308" height="127" viewBox="0 0 308 127" fill="none" xmlns="http://www.w3.org/2000/svg">
    <path d="M0.143158 2.1395C-0.210022 1.39013 0.111145 0.496336 0.860504 0.14315C1.60986 -0.210035 2.50366 0.111134 2.85684 0.860501L0.143158 2.1395ZM306.825 89.5356C307.634 89.7151 308.144 90.5162 307.964 91.325L305.04 104.504C304.86 105.313 304.059 105.823 303.251 105.644C302.442 105.464 301.932 104.663 302.111 103.854L304.711 92.1394L292.996 89.5398C292.187 89.3604 291.677 88.5593 291.856 87.7505C292.036 86.9418 292.837 86.4316 293.646 86.6111L306.825 89.5356ZM303.943 94.3655C303.236 94.7981 302.313 94.5761 301.88 93.8696C301.448 93.1631 301.67 92.2397 302.376 91.807L303.943 94.3655ZM295.673 95.7513C296.394 95.3438 297.309 95.5982 297.717 96.3195C298.124 97.0408 297.87 97.9558 297.149 98.3633L295.673 95.7513ZM290.192 102.132C289.456 102.513 288.551 102.227 288.169 101.491C287.788 100.756 288.075 99.8505 288.81 99.469L290.192 102.132ZM281.831 102.933C282.58 102.578 283.474 102.897 283.829 103.646C284.184 104.394 283.865 105.289 283.116 105.644L281.831 102.933ZM275.929 108.895C275.168 109.222 274.285 108.871 273.957 108.11C273.63 107.35 273.981 106.467 274.742 106.139L275.929 108.895ZM267.525 109.094C268.297 108.794 269.166 109.177 269.466 109.949C269.766 110.722 269.383 111.591 268.611 111.891L267.525 109.094ZM261.194 114.616C260.412 114.888 259.557 114.473 259.286 113.69C259.014 112.908 259.428 112.053 260.211 111.782L261.194 114.616ZM252.811 114.198C253.603 113.955 254.442 114.401 254.685 115.193C254.928 115.985 254.482 116.824 253.69 117.066L252.811 114.198ZM246.094 119.241C245.293 119.455 244.471 118.979 244.258 118.178C244.045 117.378 244.521 116.556 245.321 116.343L246.094 119.241ZM237.755 118.21C238.563 118.026 239.367 118.532 239.55 119.34C239.734 120.148 239.228 120.952 238.42 121.135L237.755 118.21ZM230.687 122.743C229.873 122.896 229.089 122.361 228.935 121.547C228.782 120.733 229.317 119.948 230.131 119.795L230.687 122.743ZM222.455 121.095C223.274 120.972 224.038 121.536 224.161 122.356C224.285 123.175 223.72 123.939 222.901 124.062L222.455 121.095ZM215.063 125.092C214.24 125.184 213.497 124.592 213.405 123.769C213.312 122.945 213.905 122.203 214.728 122.11L215.063 125.092ZM206.973 122.836C207.799 122.774 208.519 123.394 208.58 124.22C208.642 125.046 208.022 125.766 207.196 125.827L206.973 122.836ZM199.31 126.268C198.482 126.299 197.786 125.653 197.756 124.825C197.725 123.997 198.371 123.301 199.199 123.27L199.31 126.268ZM191.41 123.413C192.239 123.414 192.91 124.086 192.91 124.914C192.909 125.743 192.237 126.414 191.409 126.413L191.41 123.413ZM183.508 126.262C182.68 126.23 182.035 125.533 182.066 124.706C182.098 123.878 182.794 123.232 183.622 123.264L183.508 126.262ZM175.847 122.821C176.673 122.884 177.292 123.604 177.229 124.43C177.166 125.256 176.446 125.875 175.62 125.812L175.847 122.821ZM167.755 125.066C166.932 124.972 166.34 124.229 166.434 123.406C166.528 122.583 167.271 121.991 168.094 122.085L167.755 125.066ZM160.373 121.057C161.192 121.182 161.755 121.947 161.63 122.766C161.505 123.585 160.74 124.147 159.921 124.022L160.373 121.057ZM152.134 122.683C151.32 122.527 150.787 121.741 150.943 120.928C151.098 120.114 151.884 119.581 152.698 119.737L152.134 122.683ZM145.078 118.127C145.885 118.313 146.388 119.119 146.202 119.926C146.015 120.733 145.21 121.236 144.402 121.05L145.078 118.127ZM136.738 119.123C135.939 118.906 135.467 118.082 135.684 117.282C135.901 116.483 136.725 116.011 137.525 116.228L136.738 119.123ZM130.051 114.044C130.841 114.291 131.282 115.133 131.034 115.923C130.787 116.714 129.945 117.154 129.154 116.907L130.051 114.044ZM121.66 114.403C120.879 114.125 120.471 113.267 120.749 112.487C121.026 111.706 121.884 111.298 122.664 111.576L121.66 114.403ZM115.375 108.827C116.145 109.134 116.52 110.007 116.212 110.776C115.905 111.545 115.033 111.92 114.263 111.613L115.375 108.827ZM106.983 108.545C106.226 108.209 105.885 107.322 106.221 106.565C106.557 105.808 107.444 105.467 108.201 105.803L106.983 108.545ZM101.147 102.508C101.891 102.873 102.198 103.771 101.833 104.515C101.468 105.259 100.569 105.566 99.8254 105.201L101.147 102.508ZM92.7973 101.584C92.0681 101.19 91.7957 100.281 92.1888 99.5514C92.582 98.8222 93.4918 98.5497 94.221 98.9428L92.7973 101.584ZM87.4362 95.1159C88.1498 95.5366 88.3873 96.4562 87.9666 97.1698C87.5459 97.8835 86.6263 98.1209 85.9126 97.7002L87.4362 95.1159ZM79.1873 93.5606C78.4902 93.113 78.288 92.185 78.7356 91.4879C79.1832 90.7909 80.1112 90.5886 80.8083 91.0362L79.1873 93.5606ZM74.3364 86.7041C75.016 87.178 75.1827 88.113 74.7089 88.7925C74.235 89.472 73.3 89.6388 72.6205 89.1649L74.3364 86.7041ZM66.2192 84.5178C65.5582 84.0184 65.4271 83.0778 65.9265 82.4168C66.4258 81.7557 67.3665 81.6247 68.0275 82.124L66.2192 84.5178ZM61.9094 77.3179C62.5511 77.8419 62.6465 78.7868 62.1225 79.4285C61.5985 80.0702 60.6536 80.1656 60.0119 79.6416L61.9094 77.3179ZM53.9892 74.5314C53.3677 73.9837 53.3079 73.0358 53.8557 72.4143C54.4035 71.7928 55.3513 71.7331 55.9728 72.2808L53.9892 74.5314ZM50.2215 67.0167C50.822 67.5874 50.8462 68.5368 50.2755 69.1374C49.7049 69.7379 48.7554 69.7621 48.1549 69.1914L50.2215 67.0167ZM42.5331 63.6461C41.9543 63.0535 41.9654 62.1038 42.558 61.5249C43.1506 60.946 44.1003 60.9572 44.6792 61.5498L42.5331 63.6461ZM39.3443 55.8826C39.9009 56.4961 39.8548 57.4448 39.2412 58.0014C38.6277 58.558 37.679 58.5119 37.1224 57.8983L39.3443 55.8826ZM31.917 51.9446C31.3832 51.3111 31.4641 50.3648 32.0976 49.831C32.7311 49.2972 33.6775 49.3781 34.2112 50.0116L31.917 51.9446ZM29.3015 43.9653C29.812 44.6177 29.697 45.5605 29.0445 46.071C28.3921 46.5815 27.4493 46.4664 26.9388 45.814L29.3015 43.9653ZM22.1892 39.5147C21.7023 38.8444 21.851 37.9064 22.5212 37.4195C23.1915 36.9326 24.1295 37.0813 24.6164 37.7516L22.1892 39.5147ZM20.143 31.3577C20.6058 32.0447 20.4241 32.9769 19.737 33.4398C19.05 33.9026 18.1178 33.7209 17.6549 33.0338L20.143 31.3577ZM13.3605 26.4126C12.9218 25.7099 13.1359 24.7846 13.8387 24.3459C14.5414 23.9072 15.4667 24.1213 15.9054 24.8241L13.3605 26.4126ZM11.8973 18.1505C12.3117 18.8679 12.066 19.7853 11.3486 20.1996C10.6313 20.6139 9.71384 20.3683 9.29953 19.6509L11.8973 18.1505ZM5.45715 12.7298C5.06732 11.9988 5.34387 11.0902 6.07483 10.7004C6.80582 10.3106 7.71442 10.5871 8.10425 11.3181L5.45715 12.7298ZM4.55899 4.39645C4.92447 5.13991 4.61804 6.03886 3.87457 6.40433C3.1311 6.76979 2.23215 6.46336 1.8667 5.7199L4.55899 4.39645ZM307.306 92.2652C306.189 92.9766 305.068 93.6767 303.943 94.3655L302.376 91.807C303.486 91.1274 304.592 90.4367 305.694 89.7348L307.306 92.2652ZM297.149 98.3633C294.844 99.6655 292.524 100.922 290.192 102.132L288.81 99.469C291.111 98.2751 293.399 97.036 295.673 95.7513L297.149 98.3633ZM283.116 105.644C280.732 106.774 278.336 107.858 275.929 108.895L274.742 106.139C277.116 105.117 279.48 104.048 281.831 102.933L283.116 105.644ZM268.611 111.891C266.149 112.847 263.676 113.755 261.194 114.616L260.211 111.782C262.658 110.933 265.097 110.037 267.525 109.094L268.611 111.891ZM253.69 117.066C251.165 117.84 248.633 118.565 246.094 119.241L245.321 116.343C247.825 115.675 250.322 114.96 252.811 114.198L253.69 117.066ZM238.42 121.135C235.848 121.72 233.269 122.256 230.687 122.743L230.131 119.795C232.677 119.315 235.219 118.786 237.755 118.21L238.42 121.135ZM222.901 124.062C220.291 124.455 217.678 124.798 215.063 125.092L214.728 122.11C217.306 121.821 219.882 121.482 222.455 121.095L222.901 124.062ZM207.196 125.827C204.567 126.024 201.938 126.171 199.31 126.268L199.199 123.27C201.789 123.174 204.381 123.029 206.973 122.836L207.196 125.827ZM191.409 126.413C188.772 126.412 186.138 126.362 183.508 126.262L183.622 123.264C186.215 123.362 188.811 123.412 191.41 123.413L191.409 126.413ZM175.62 125.812C172.992 125.613 170.37 125.364 167.755 125.066L168.094 122.085C170.672 122.379 173.257 122.624 175.847 122.821L175.62 125.812ZM159.921 124.022C157.317 123.625 154.72 123.179 152.134 122.683L152.698 119.737C155.248 120.225 157.806 120.665 160.373 121.057L159.921 124.022ZM144.402 121.05C141.836 120.456 139.281 119.814 136.738 119.123L137.525 116.228C140.031 116.909 142.549 117.542 145.078 118.127L144.402 121.05ZM129.154 116.907C126.642 116.12 124.143 115.285 121.66 114.403L122.664 111.576C125.112 112.446 127.575 113.269 130.051 114.044L129.154 116.907ZM114.263 111.613C111.82 110.638 109.393 109.615 106.983 108.545L108.201 105.803C110.576 106.858 112.967 107.866 115.375 108.827L114.263 111.613ZM99.8254 105.201C97.4636 104.042 95.1204 102.836 92.7973 101.584L94.221 98.9428C96.5103 100.177 98.8195 101.365 101.147 102.508L99.8254 105.201ZM85.9126 97.7002C83.6494 96.366 81.4071 94.9861 79.1873 93.5606L80.8083 91.0362C82.996 92.441 85.2057 93.801 87.4362 95.1159L85.9126 97.7002ZM72.6205 89.1649C70.463 87.6605 68.3288 86.1114 66.2192 84.5178L68.0275 82.124C70.1067 83.6946 72.2101 85.2214 74.3364 86.7041L72.6205 89.1649ZM60.0119 79.6416C57.9787 77.9814 55.9707 76.2779 53.9892 74.5314L55.9728 72.2808C57.9261 74.0024 59.9053 75.6815 61.9094 77.3179L60.0119 79.6416ZM48.1549 69.1914C46.2536 67.3846 44.3793 65.5361 42.5331 63.6461L44.6792 61.5498C46.4994 63.4132 48.3472 65.2355 50.2215 67.0167L48.1549 69.1914ZM37.1224 57.8983C35.3584 55.9539 33.6229 53.9693 31.917 51.9446L34.2112 50.0116C35.8935 52.0083 37.6049 53.9653 39.3443 55.8826L37.1224 57.8983ZM26.9388 45.814C25.3257 43.7525 23.7422 41.6526 22.1892 39.5147L24.6164 37.7516C26.1484 39.8606 27.7104 41.9319 29.3015 43.9653L26.9388 45.814ZM17.6549 33.0338C16.1927 30.8632 14.7608 28.6561 13.3605 26.4126L15.9054 24.8241C17.2874 27.0381 18.7002 29.216 20.143 31.3577L17.6549 33.0338ZM9.29953 19.6509C7.98718 17.3787 6.70609 15.0716 5.45715 12.7298L8.10425 11.3181C9.33728 13.6302 10.602 15.9077 11.8973 18.1505L9.29953 19.6509ZM1.8667 5.7199C1.28415 4.5348 0.709595 3.34133 0.143158 2.1395L2.85684 0.860501C3.41629 2.04748 3.9837 3.22613 4.55899 4.39645L1.8667 5.7199Z" fill="#F5A623" fill-opacity="0.6"/>
</svg>
