<svg width="70" height="191" viewBox="0 0 70 191" fill="none" xmlns="http://www.w3.org/2000/svg">
    <path d="M48.6 190.2C49.2627 190.697 50.2029 190.563 50.7 189.9C51.1971 189.237 51.0627 188.297 50.4 187.8L48.6 190.2ZM69.828 8.69751C70.2132 7.9641 69.9309 7.05727 69.1975 6.67204L57.2459 0.394424C56.5125 0.00918579 55.6056 0.291458 55.2204 1.02486C54.8352 1.75827 55.1174 2.66512 55.8509 3.05034L66.4745 8.63045L60.8944 19.2541C60.5092 19.9875 60.7915 20.8944 61.5249 21.2796C62.2583 21.6648 63.1651 21.3826 63.5503 20.6491L69.828 8.69751ZM64.1432 7.87192C63.3628 8.14983 62.9554 9.00777 63.2333 9.78819C63.5112 10.5686 64.3692 10.976 65.1496 10.6981L64.1432 7.87192ZM57.7753 13.67C58.5301 13.3288 58.8654 12.4402 58.5242 11.6853C58.1829 10.9304 57.2943 10.5951 56.5394 10.9364L57.7753 13.67ZM49.2172 14.6272C48.494 15.0312 48.2353 15.9451 48.6394 16.6683C49.0435 17.3915 49.9573 17.6502 50.6805 17.2461L49.2172 14.6272ZM43.9224 21.4156C44.6078 20.9503 44.7864 20.0175 44.3211 19.332C43.8559 18.6466 42.9231 18.4681 42.2376 18.9333L43.9224 21.4156ZM35.6495 23.8409C35.0076 24.3645 34.9118 25.3094 35.4355 25.9514C35.9591 26.5933 36.904 26.6891 37.546 26.1654L35.6495 23.8409ZM31.6156 31.4567C32.2088 30.8784 32.2208 29.9288 31.6425 29.3356C31.0641 28.7424 30.1145 28.7304 29.5213 29.3087L31.6156 31.4567ZM23.9018 35.294C23.3619 35.9224 23.4336 36.8694 24.062 37.4093C24.6904 37.9491 25.6374 37.8774 26.1773 37.249L23.9018 35.294ZM21.2689 43.4968C21.7517 42.8236 21.5974 41.8865 20.9242 41.4037C20.251 40.9209 19.3139 41.0752 18.8311 41.7484L21.2689 43.4968ZM14.342 48.6195C13.9193 49.332 14.1542 50.2522 14.8667 50.6749C15.5792 51.0976 16.4994 50.8627 16.9221 50.1502L14.342 48.6195ZM13.1627 57.1554C13.5229 56.4094 13.2102 55.5126 12.4641 55.1524C11.7181 54.7921 10.8214 55.1049 10.4611 55.8509L13.1627 57.1554ZM7.20907 63.3834C6.91299 64.1571 7.3002 65.0243 8.07391 65.3204C8.84762 65.6165 9.71486 65.2293 10.0109 64.4556L7.20907 63.3834ZM7.48027 71.9963C7.71104 71.2007 7.25312 70.3686 6.45749 70.1378C5.66185 69.9071 4.82978 70.365 4.59901 71.1606L7.48027 71.9963ZM2.63962 79.1268C2.47485 79.9386 2.99943 80.7304 3.8113 80.8951C4.62318 81.0599 5.41491 80.5353 5.57968 79.7234L2.63962 79.1268ZM4.31487 87.5788C4.41339 86.7562 3.82646 86.0096 3.00391 85.911C2.18137 85.8125 1.43468 86.3994 1.33616 87.222L4.31487 87.5788ZM0.688446 95.3929C0.656036 96.2207 1.30082 96.9181 2.12862 96.9505C2.95641 96.9829 3.65374 96.3381 3.68615 95.5103L0.688446 95.3929ZM3.69068 103.469C3.65744 102.642 2.95946 101.997 2.1317 102.031C1.30394 102.064 0.659859 102.762 0.6931 103.59L3.69068 103.469ZM1.34377 111.761C1.44184 112.584 2.18819 113.171 3.01079 113.073C3.8334 112.975 4.42075 112.229 4.32268 111.406L1.34377 111.761ZM5.5729 119.273C5.41122 118.461 4.62149 117.933 3.809 118.095C2.9965 118.256 2.4689 119.046 2.63058 119.858L5.5729 119.273ZM4.53887 127.83C4.76252 128.628 5.59046 129.093 6.38813 128.87C7.18579 128.646 7.65113 127.818 7.42748 127.02L4.53887 127.83ZM9.86641 134.597C9.5829 133.819 8.72205 133.418 7.94365 133.701C7.16524 133.985 6.76405 134.846 7.04756 135.624L9.86641 134.597ZM10.136 143.206C10.4769 143.961 11.3653 144.297 12.1204 143.956C12.8754 143.615 13.2111 142.727 12.8702 141.972L10.136 143.206ZM16.4137 149.106C16.0183 148.378 15.1076 148.109 14.3796 148.504C13.6517 148.899 13.3821 149.81 13.7776 150.538L16.4137 149.106ZM17.9419 157.585C18.3887 158.282 19.3164 158.485 20.0141 158.039C20.7117 157.592 20.915 156.664 20.4683 155.967L17.9419 157.585ZM25.0017 162.525C24.5072 161.86 23.5675 161.722 22.9029 162.217C22.2383 162.711 22.1005 163.651 22.5951 164.316L25.0017 162.525ZM27.7004 170.707C28.239 171.336 29.1859 171.41 29.8153 170.871C30.4447 170.332 30.5182 169.386 29.9796 168.756L27.7004 170.707ZM35.3655 174.643C34.7866 174.05 33.8369 174.039 33.2443 174.618C32.6517 175.197 32.6406 176.147 33.2195 176.739L35.3655 174.643ZM39.1133 182.4C39.7286 182.955 40.6771 182.906 41.2318 182.291C41.7866 181.675 41.7376 180.727 41.1224 180.172L39.1133 182.4ZM47.2137 185.336C46.566 184.82 45.6222 184.926 45.1058 185.574C44.5893 186.222 44.6958 187.165 45.3435 187.682L47.2137 185.336ZM68.0542 6.56778C66.7332 6.97896 65.4295 7.41388 64.1432 7.87192L65.1496 10.6981C66.3977 10.2536 67.6632 9.83145 68.9458 9.43222L68.0542 6.56778ZM56.5394 10.9364C54.0211 12.0749 51.5798 13.3071 49.2172 14.6272L50.6805 17.2461C52.9688 15.9675 55.3342 14.7736 57.7753 13.67L56.5394 10.9364ZM42.2376 18.9333C39.9542 20.4831 37.7575 22.1211 35.6495 23.8409L37.546 26.1654C39.586 24.5012 41.712 22.9158 43.9224 21.4156L42.2376 18.9333ZM29.5213 29.3087C27.553 31.2279 25.6792 33.2253 23.9018 35.294L26.1773 37.249C27.8975 35.2469 29.7109 33.3139 31.6156 31.4567L29.5213 29.3087ZM18.8311 41.7484C17.2338 43.9756 15.7368 46.2684 14.342 48.6195L16.9221 50.1502C18.273 47.8731 19.7225 45.653 21.2689 43.4968L18.8311 41.7484ZM10.4611 55.8509C9.2723 58.3129 8.18766 60.8261 7.20907 63.3834L10.0109 64.4556C10.9596 61.9766 12.0108 59.5409 13.1627 57.1554L10.4611 55.8509ZM4.59901 71.1606C3.83873 73.7819 3.18499 76.4396 2.63962 79.1268L5.57968 79.7234C6.1088 77.1164 6.74294 74.5384 7.48027 71.9963L4.59901 71.1606ZM1.33616 87.222C1.01227 89.9259 0.795776 92.6518 0.688446 95.3929L3.68615 95.5103C3.79035 92.8491 4.00052 90.2031 4.31487 87.5788L1.33616 87.222ZM0.6931 103.59C0.802238 106.307 1.01857 109.033 1.34377 111.761L4.32268 111.406C4.00677 108.756 3.79668 106.109 3.69068 103.469L0.6931 103.59ZM2.63058 119.858C3.16058 122.522 3.79616 125.181 4.53887 127.83L7.42748 127.02C6.70556 124.445 6.08789 121.861 5.5729 119.273L2.63058 119.858ZM7.04756 135.624C7.97432 138.169 9.00332 140.698 10.136 143.206L12.8702 141.972C11.7683 139.532 10.7676 137.072 9.86641 134.597L7.04756 135.624ZM13.7776 150.538C15.0677 152.913 16.4554 155.263 17.9419 157.585L20.4683 155.967C19.0204 153.706 17.6694 151.417 16.4137 149.106L13.7776 150.538ZM22.5951 164.316C24.2048 166.479 25.9062 168.61 27.7004 170.707L29.9796 168.756C28.2295 166.711 26.5707 164.633 25.0017 162.525L22.5951 164.316ZM33.2195 176.739C35.099 178.663 37.0634 180.552 39.1133 182.4L41.1224 180.172C39.1191 178.366 37.2005 176.521 35.3655 174.643L33.2195 176.739ZM45.3435 187.682C46.409 188.531 47.4945 189.371 48.6 190.2L50.4 187.8C49.318 186.989 48.256 186.167 47.2137 185.336L45.3435 187.682Z" fill="#F5A623" fill-opacity="0.6"/>
</svg>
