<svg width="164" height="78" viewBox="0 0 164 78" fill="none" xmlns="http://www.w3.org/2000/svg">
    <path d="M1.53873 67.4273C0.750443 67.1726 0.317932 66.327 0.572678 65.5387C0.827438 64.7504 1.67299 64.3179 2.46127 64.5727L1.53873 67.4273ZM158.06 0.0658648C158.852 -0.176925 159.691 0.26834 159.934 1.06039L163.891 13.9676C164.133 14.7597 163.688 15.5986 162.896 15.8414C162.104 16.0841 161.265 15.6389 161.022 14.8468L157.505 3.37374L146.032 6.89062C145.24 7.13341 144.401 6.68814 144.159 5.89609C143.916 5.10404 144.361 4.26514 145.153 4.02235L158.06 0.0658648ZM157.931 5.72233C157.534 6.44944 156.623 6.71707 155.895 6.32009C155.168 5.92311 154.901 5.01185 155.298 4.28473L157.931 5.72233ZM151.44 11.1406C151.856 10.4242 152.774 10.1806 153.49 10.5966C154.207 11.0125 154.45 11.9305 154.034 12.6469L151.44 11.1406ZM149.944 19.4562C149.506 20.1596 148.581 20.375 147.878 19.9373C147.175 19.4996 146.959 18.5746 147.397 17.8713L149.944 19.4562ZM143.122 24.4823C143.584 23.795 144.516 23.6128 145.204 24.0754C145.891 24.5379 146.073 25.47 145.61 26.1573L143.122 24.4823ZM141.023 32.6845C140.532 33.352 139.593 33.4953 138.926 33.0046C138.258 32.5139 138.115 31.575 138.606 30.9076L141.023 32.6845ZM133.823 37.1027C134.345 36.4597 135.29 36.3617 135.933 36.884C136.576 37.4062 136.674 38.3509 136.152 38.994L133.823 37.1027ZM130.939 45.0672C130.381 45.6801 129.433 45.7252 128.82 45.1679C128.207 44.6106 128.162 43.6619 128.719 43.049L130.939 45.0672ZM123.286 48.6622C123.881 48.0861 124.831 48.1016 125.407 48.6969C125.983 49.2922 125.967 50.2418 125.372 50.818L123.286 48.6622ZM119.416 56.1863C118.781 56.7179 117.835 56.6338 117.303 55.9985C116.772 55.3631 116.856 54.4171 117.491 53.8855L119.416 56.1863ZM111.325 58.6435C112.001 58.1645 112.938 58.3243 113.417 59.0002C113.896 59.6762 113.736 60.6124 113.06 61.0913L111.325 58.6435ZM106.307 65.4523C105.592 65.8706 104.673 65.6301 104.254 64.9151C103.836 64.2001 104.077 63.2813 104.792 62.8629L106.307 65.4523ZM97.9126 66.4783C98.6628 66.127 99.5558 66.4504 99.9071 67.2007C100.258 67.951 99.9349 68.844 99.1847 69.1952L97.9126 66.4783ZM91.7488 72.2643C90.9692 72.5444 90.11 72.1396 89.8299 71.36C89.5497 70.5804 89.9545 69.7212 90.7341 69.4411L91.7488 72.2643ZM83.3 71.7339C84.1018 71.5259 84.9206 72.0072 85.1286 72.8091C85.3367 73.611 84.8554 74.4297 84.0535 74.6378L83.3 71.7339ZM76.2043 76.3133C75.3875 76.4516 74.6132 75.9016 74.475 75.0847C74.3367 74.2679 74.8867 73.4937 75.7035 73.3554L76.2043 76.3133ZM67.9647 74.3451C68.79 74.2724 69.5179 74.8824 69.5907 75.7076C69.6635 76.5328 69.0535 77.2608 68.2283 77.3335L67.9647 74.3451ZM60.2345 77.7449C59.4062 77.7583 58.7238 77.0977 58.7104 76.2694C58.697 75.441 59.3577 74.7587 60.186 74.7453L60.2345 77.7449ZM52.3747 74.6166C53.2022 74.6562 53.8409 75.3591 53.8013 76.1865C53.7617 77.014 53.0588 77.6527 52.2313 77.6131L52.3747 74.6166ZM44.2419 76.9991C43.418 76.9128 42.8201 76.1749 42.9064 75.351C42.9927 74.5271 43.7306 73.9291 44.5546 74.0155L44.2419 76.9991ZM36.7906 73.0027C37.6092 73.1298 38.1698 73.8964 38.0428 74.715C37.9158 75.5336 37.1492 76.0943 36.3306 75.9673L36.7906 73.0027ZM28.4897 74.5719C27.6773 74.4095 27.1505 73.6193 27.3129 72.8069C27.4754 71.9946 28.2656 71.4677 29.0779 71.6302L28.4897 74.5719ZM21.4129 69.9413C22.2184 70.1347 22.7147 70.9444 22.5214 71.75C22.328 72.5555 21.5183 73.0518 20.7127 72.8585L21.4129 69.9413ZM13.0054 70.8682C12.2068 70.6479 11.7381 69.822 11.9584 69.0234C12.1787 68.2248 13.0047 67.756 13.8033 67.9763L13.0054 70.8682ZM6.2529 65.7697C7.0446 66.0136 7.48865 66.8532 7.24472 67.6449C7.00079 68.4366 6.16125 68.8806 5.36955 68.6367L6.2529 65.7697ZM159.825 2.20324C159.196 3.38902 158.564 4.56208 157.931 5.72233L155.298 4.28473C155.925 3.13514 156.551 1.97246 157.175 0.796764L159.825 2.20324ZM154.034 12.6469C152.683 14.9741 151.32 17.2442 149.944 19.4562L147.397 17.8713C148.756 15.6867 150.103 13.443 151.44 11.1406L154.034 12.6469ZM145.61 26.1573C144.101 28.401 142.572 30.5771 141.023 32.6845L138.606 30.9076C140.129 28.8356 141.633 26.6936 143.122 24.4823L145.61 26.1573ZM136.152 38.994C134.443 41.0988 132.706 43.1236 130.939 45.0672L128.719 43.049C130.447 41.1489 132.147 39.1666 133.823 37.1027L136.152 38.994ZM125.372 50.818C123.426 52.7012 121.442 54.4912 119.416 56.1863L117.491 53.8855C119.459 52.2388 121.389 50.4974 123.286 48.6622L125.372 50.818ZM113.06 61.0913C110.859 62.6505 108.61 64.1048 106.307 65.4523L104.792 62.8629C107.017 61.5606 109.194 60.1537 111.325 58.6435L113.06 61.0913ZM99.1847 69.1952C96.7642 70.3285 94.2869 71.3521 91.7488 72.2643L90.7341 69.4411C93.1845 68.5604 95.5759 67.5723 97.9126 66.4783L99.1847 69.1952ZM84.0535 74.6378C81.497 75.3011 78.8818 75.8601 76.2043 76.3133L75.7035 73.3554C78.2978 72.9163 80.8286 72.3752 83.3 71.7339L84.0535 74.6378ZM68.2283 77.3335C65.6211 77.5635 62.9575 77.7009 60.2345 77.7449L60.186 74.7453C62.8397 74.7024 65.4315 74.5685 67.9647 74.3451L68.2283 77.3335ZM52.2313 77.6131C49.6214 77.4883 46.959 77.2838 44.2419 76.9991L44.5546 74.0155C47.2177 74.2945 49.8236 74.4945 52.3747 74.6166L52.2313 77.6131ZM36.3306 75.9673C33.7646 75.5691 31.1515 75.1042 28.4897 74.5719L29.0779 71.6302C31.699 72.1543 34.2693 72.6115 36.7906 73.0027L36.3306 75.9673ZM20.7127 72.8585C18.1865 72.2522 15.6179 71.5889 13.0054 70.8682L13.8033 67.9763C16.3846 68.6884 18.9207 69.3432 21.4129 69.9413L20.7127 72.8585ZM5.36955 68.6367C4.10262 68.2463 2.82573 67.8432 1.53873 67.4273L2.46127 64.5727C3.73549 64.9845 4.99931 65.3835 6.2529 65.7697L5.36955 68.6367Z" fill="#F5A623" fill-opacity="0.6"/>
</svg>
