<svg width="93" height="127" viewBox="0 0 93 127" fill="none" xmlns="http://www.w3.org/2000/svg">
    <path d="M90.4591 1.65245C90.2669 0.846635 89.4578 0.349209 88.652 0.541423C87.8461 0.733637 87.3487 1.5427 87.5409 2.34852L90.4591 1.65245ZM0.838202 115.552C0.314193 116.193 0.409555 117.138 1.0512 117.662L11.5074 126.201C12.149 126.726 13.094 126.63 13.618 125.989C14.142 125.347 14.0466 124.402 13.405 123.878L4.1106 116.287L11.701 106.993C12.225 106.351 12.1297 105.407 11.488 104.883C10.8464 104.358 9.90143 104.454 9.37742 105.096L0.838202 115.552ZM6.2293 117.49C7.04904 117.37 7.61657 116.608 7.49693 115.789C7.37728 114.969 6.61575 114.401 5.79601 114.521L6.2293 117.49ZM13.605 113.03C12.7988 113.221 12.2996 114.029 12.49 114.835C12.6805 115.641 13.4884 116.14 14.2947 115.95L13.605 113.03ZM22.1943 113.725C22.9815 113.467 23.4106 112.62 23.1527 111.833C22.8948 111.046 22.0475 110.616 21.2602 110.874L22.1943 113.725ZM28.7137 108.086C27.9503 108.408 27.5923 109.288 27.9141 110.051C28.2359 110.814 29.1156 111.172 29.879 110.851L28.7137 108.086ZM37.3019 107.364C38.037 106.982 38.3234 106.076 37.9416 105.341C37.5597 104.606 36.6542 104.32 35.919 104.702L37.3019 107.364ZM42.8364 100.756C42.1334 101.194 41.9188 102.119 42.3571 102.822C42.7953 103.525 43.7205 103.74 44.4235 103.301L42.8364 100.756ZM51.2069 98.6996C51.8741 98.2085 52.0168 97.2696 51.5257 96.6024C51.0346 95.9352 50.0957 95.7925 49.4285 96.2836L51.2069 98.6996ZM55.6593 91.3193C55.0315 91.8599 54.9608 92.807 55.5014 93.4347C56.0419 94.0625 56.989 94.1332 57.6168 93.5927L55.6593 91.3193ZM63.6196 88.0118C64.2044 87.425 64.2027 86.4753 63.6159 85.8905C63.0291 85.3057 62.0794 85.3074 61.4946 85.8942L63.6196 88.0118ZM66.8975 80.0406C66.3594 80.6705 66.4338 81.6173 67.0637 82.1554C67.6936 82.6935 68.6405 82.619 69.1785 81.9892L66.8975 80.0406ZM74.2576 75.5535C74.745 74.8836 74.5972 73.9455 73.9273 73.458C73.2575 72.9706 72.3193 73.1185 71.8319 73.7883L74.2576 75.5535ZM76.2576 67.1698C75.825 67.8763 76.0471 68.7998 76.7536 69.2323C77.4601 69.6649 78.3835 69.4429 78.8161 68.7364L76.2576 67.1698ZM82.8108 61.5716C83.1841 60.8321 82.8871 59.9299 82.1476 59.5567C81.408 59.1834 80.5059 59.4803 80.1326 60.2199L82.8108 61.5716ZM83.4141 52.974C83.1049 53.7426 83.4772 54.6163 84.2457 54.9255C85.0143 55.2348 85.888 54.8625 86.1972 54.0939L83.4141 52.974ZM88.9269 46.3488C89.1675 45.5561 88.7198 44.7185 87.9271 44.4779C87.1343 44.2374 86.2967 44.6851 86.0562 45.4778L88.9269 46.3488ZM88.0155 37.7798C87.8482 38.5911 88.3704 39.3845 89.1817 39.5518C89.9931 39.719 90.7864 39.1969 90.9537 38.3856L88.0155 37.7798ZM92.2342 30.2657C92.3243 29.4422 91.7298 28.7015 90.9063 28.6114C90.0828 28.5212 89.3421 29.1158 89.252 29.9393L92.2342 30.2657ZM89.7339 22.0174C89.7238 22.8458 90.3872 23.5255 91.2156 23.5355C92.0439 23.5456 92.7236 22.8822 92.7337 22.0538L89.7339 22.0174ZM92.4296 13.8358C92.3582 13.0104 91.6313 12.3992 90.806 12.4706C89.9806 12.542 89.3694 13.2689 89.4408 14.0943L92.4296 13.8358ZM88.3679 6.23556C88.5203 7.04984 89.304 7.5864 90.1183 7.43399C90.9325 7.28158 91.4691 6.49792 91.3167 5.68363L88.3679 6.23556ZM2.15061 117.993C3.51611 117.855 4.87592 117.687 6.2293 117.49L5.79601 114.521C4.4862 114.712 3.17042 114.875 1.84939 115.008L2.15061 117.993ZM14.2947 115.95C16.9622 115.32 19.5975 114.576 22.1943 113.725L21.2602 110.874C18.7426 111.699 16.1889 112.42 13.605 113.03L14.2947 115.95ZM29.879 110.851C32.4 109.788 34.8764 108.624 37.3019 107.364L35.919 104.702C33.5637 105.925 31.16 107.055 28.7137 108.086L29.879 110.851ZM44.4235 103.301C46.7437 101.855 49.0069 100.319 51.2069 98.6996L49.4285 96.2836C47.2901 97.8576 45.0907 99.3503 42.8364 100.756L44.4235 103.301ZM57.6168 93.5927C59.6893 91.8081 61.6923 89.9458 63.6196 88.0118L61.4946 85.8942C59.6211 87.7741 57.674 89.5845 55.6593 91.3193L57.6168 93.5927ZM69.1785 81.9892C70.9562 79.9081 72.6514 77.7608 74.2576 75.5535L71.8319 73.7883C70.2718 75.9322 68.625 78.0183 66.8975 80.0406L69.1785 81.9892ZM78.8161 68.7364C80.2462 66.4006 81.58 64.0103 82.8108 61.5716L80.1326 60.2199C78.9392 62.5843 77.6455 64.903 76.2576 67.1698L78.8161 68.7364ZM86.1972 54.0939C87.2199 51.5526 88.132 48.9687 88.9269 46.3488L86.0562 45.4778C85.2873 48.012 84.4045 50.5128 83.4141 52.974L86.1972 54.0939ZM90.9537 38.3856C91.5062 35.7061 91.9352 32.9973 92.2342 30.2657L89.252 29.9393C88.9635 32.5755 88.5493 35.1911 88.0155 37.7798L90.9537 38.3856ZM92.7337 22.0538C92.7668 19.3279 92.6675 16.5865 92.4296 13.8358L89.4408 14.0943C89.6701 16.7458 89.7658 19.3888 89.7339 22.0174L92.7337 22.0538ZM91.3167 5.68363C91.0653 4.34029 90.7796 2.99632 90.4591 1.65245L87.5409 2.34852C87.8501 3.64452 88.1255 4.94043 88.3679 6.23556L91.3167 5.68363Z" fill="#F5A623" fill-opacity="0.6"/>
</svg>
