<svg width="361" height="139" viewBox="0 0 361 139" fill="none" xmlns="http://www.w3.org/2000/svg">
    <path d="M5.84274 63.2673C6.0281 48.0976 17.5091 35.4538 32.5907 33.8104L312.395 3.32035C329.116 1.49821 344.068 13.7779 345.531 30.5347L352.097 105.752C353.648 123.514 339.458 138.7 321.632 138.355L34.7822 132.814C18.2999 132.495 5.16253 118.937 5.36394 102.453L5.84274 63.2673Z" fill="white" stroke="#F5A623" stroke-linecap="round" stroke-dasharray="5 5"/>
    <path d="M356.515 57.1174C358.051 40.66 345.31 26.3514 328.786 25.9757L37.9021 19.3621C19.5082 18.9439 5.54385 35.8047 9.3811 53.7988L21.0312 108.43C23.8832 121.803 35.8317 131.267 49.5031 130.979L324.794 125.197C339.275 124.892 351.225 113.774 352.572 99.352L356.515 57.1174Z" stroke="#F5A623" stroke-width="3"/>
</svg>
