<svg width="254" height="155" viewBox="0 0 254 155" fill="none" xmlns="http://www.w3.org/2000/svg">
    <path d="M238.516 39.0573C237.069 18.8273 226.907 3.55283 214.786 3.38783L39.475 1.00136C26.1303 0.819698 15.2388 18.9026 15.1821 41.3345L15.0002 113.315C14.9385 137.746 27.6607 156.709 42.0832 153.682L219.885 128.744C233.049 125.982 242.409 105.854 240.825 83.7141L238.516 39.0573Z" fill="white" stroke="#F5A623" stroke-linecap="round" stroke-dasharray="5 5"/>
    <path d="M31.0827 17.0705L217.266 9.91325C235.307 9.2197 249.439 25.2631 246.474 43.0726L233.878 118.732C231.524 132.868 219.04 143.059 204.718 142.532L35.6707 136.32C21.1455 135.787 9.34918 124.408 8.29265 109.911L3.75287 47.6211C2.58087 31.5402 14.971 17.6899 31.0827 17.0705Z" stroke="#F5A623" stroke-width="3"/>
</svg>
