<svg width="194" height="92" viewBox="0 0 194 92" fill="none" xmlns="http://www.w3.org/2000/svg">
    <path d="M2.65726 38.9082C1.21433 25.6723 11.1895 13.9428 24.4854 13.2413L160.802 6.04899C174.731 5.31406 186.152 16.9551 185.151 30.8676L182.485 67.9007C181.539 81.0467 169.839 90.7613 156.743 89.2745L24.7106 74.2852C13.9381 73.0623 5.45125 64.5375 4.2763 53.7597L2.65726 38.9082Z" fill="white" stroke="#F5A623" stroke-width="0.772878" stroke-linecap="round" stroke-dasharray="3.86 3.86"/>
    <path d="M169.193 1.29107C181.75 0.907445 192.084 11.0865 191.89 23.6475L191.564 44.8215C191.392 55.9811 182.9 65.2484 171.798 66.3928L37.1982 80.2674C25.541 81.469 14.9838 73.3328 13.1762 61.7541L8.37101 30.9745C6.32738 17.8842 16.219 5.96476 29.4617 5.56016L169.193 1.29107Z" stroke="#F5A623" stroke-width="2.31863"/>
</svg>
