<svg width="304" height="115" viewBox="0 0 304 115" fill="none" xmlns="http://www.w3.org/2000/svg">
    <path d="M300.705 44.6764C302.492 27.4944 289.436 12.3571 272.178 11.6021L40.8456 1.48081C22.8549 0.693686 8.2294 15.8224 9.62439 33.7761L13.6575 85.6824C14.9229 101.968 28.9851 114.248 45.2928 113.309L269.59 100.387C284.276 99.541 296.182 88.1712 297.704 73.5397L300.705 44.6764Z" fill="white" stroke="#F5A623" stroke-linecap="round" stroke-dasharray="5 5"/>
    <path d="M4.45582 43.7108C2.92515 27.4752 15.3045 13.268 31.5969 12.5624L253.213 2.96463C270.307 2.22436 284.195 16.6057 282.86 33.6627L279.108 81.5788C277.927 96.6629 265.165 108.195 250.038 107.847L35.3199 102.9C20.8709 102.567 8.95865 91.4718 7.60208 77.0828L4.45582 43.7108Z" stroke="#F5A623" stroke-width="3"/>
</svg>
