<svg width="392" height="138" viewBox="0 0 392 138" fill="none" xmlns="http://www.w3.org/2000/svg">
    <path d="M369.153 34.8287C366.912 16.8465 351.175 3.26919 332.403 3.12251L60.9037 1.00121C40.2371 0.839732 23.3699 16.9134 23.2821 36.8529L23.0003 100.836C22.9047 122.552 42.6074 139.408 64.9431 136.717L340.3 114.55C360.687 112.095 375.182 94.2036 372.729 74.5237L369.153 34.8287Z" fill="white" stroke="#F5A623" stroke-linecap="round" stroke-dasharray="5 5"/>
    <path d="M5.65392 47.5254C3.53764 30.7554 16.3983 15.8393 33.2971 15.4641L351.239 8.40533C370.461 7.97857 384.582 26.3179 379.256 44.7925L361.493 106.411C357.914 118.83 346.425 127.285 333.504 127.011L39.4226 120.77C25.2952 120.47 13.5207 109.864 11.7515 95.8443L5.65392 47.5254Z" stroke="#F5A623" stroke-width="3"/>
</svg>
