<svg width="236" height="128" viewBox="0 0 236 128" fill="none" xmlns="http://www.w3.org/2000/svg">
    <path d="M3.59489 53.2502C3.6923 42.03 11.9127 32.5365 23.0036 30.8355L199.309 3.79609C212.602 1.75731 224.778 11.5699 225.611 24.993L230.451 103.035C231.283 116.448 220.43 127.685 206.996 127.32L25.45 122.384C12.9846 122.045 3.08671 111.786 3.19497 99.3161L3.59489 53.2502Z" fill="white" stroke="#F5A623" stroke-width="0.76259" stroke-linecap="round" stroke-dasharray="3.81 3.81"/>
    <path d="M212.285 23.8909L27.4546 18.017C13.8723 17.5853 3.22952 29.584 5.27899 43.0177L14.2494 101.816C15.9054 112.67 25.3972 120.585 36.3725 120.262L209.036 115.193C220.227 114.864 229.338 106.088 230.084 94.9165L233.28 47.0621C234.1 34.7887 224.579 24.2816 212.285 23.8909Z" stroke="#F5A623" stroke-width="2.28777"/>
</svg>
