<svg width="165" height="110" viewBox="0 0 165 110" fill="none" xmlns="http://www.w3.org/2000/svg">
    <path d="M158.492 33.7061C158.399 15.759 142.674 1.90832 124.859 4.08173L40.6746 14.352C27.7833 15.9247 17.3676 25.6136 14.8683 38.3578L8.4524 71.0733C4.62269 90.6013 20.5198 108.378 40.3527 106.746L131.136 99.2728C146.757 97.9869 158.756 84.8926 158.675 69.219L158.492 33.7061Z" fill="white" stroke="#F5A623" stroke-linecap="round" stroke-dasharray="5 5"/>
    <path d="M11.9562 36.6237C13.8237 22.6851 25.5793 12.1924 39.6397 11.9141L132.206 10.0818C147.727 9.77463 160.64 21.9462 161.248 37.4585L162.174 61.0297C162.779 76.455 150.993 89.5583 135.59 90.5844L38.3173 97.0649C20.3453 98.2622 5.78329 82.6955 8.1752 64.8432L11.9562 36.6237Z" stroke="#F5A623" stroke-width="3"/>
</svg>
