<svg width="250" height="94" viewBox="0 0 250 94" fill="none" xmlns="http://www.w3.org/2000/svg">
    <path d="M246.472 43.1773C248.259 25.9872 235.19 10.8457 217.923 10.1021L39.4863 2.41725C21.5034 1.64277 6.89125 16.768 8.28561 34.7135L10.6164 64.7111C11.881 80.9857 25.9256 93.2624 42.2231 92.3391L217.039 82.4356C231.737 81.6029 243.659 70.2289 245.181 55.5866L246.472 43.1773Z" fill="white" stroke="#F5A623" stroke-linecap="round" stroke-dasharray="5 5"/>
    <path d="M4.45789 42.32C2.92648 26.0765 15.3181 11.8653 31.6189 11.1707L202.25 3.90061C219.336 3.17264 233.212 17.5505 231.877 34.5995L229.767 61.5456C228.586 76.6254 215.831 88.156 200.709 87.8136L33.6855 84.0321C19.2321 83.7049 7.31338 72.6078 5.95641 58.2145L4.45789 42.32Z" stroke="#F5A623" stroke-width="3"/>
</svg>
