<svg width="186" height="137" viewBox="0 0 186 137" fill="none" xmlns="http://www.w3.org/2000/svg">
    <path d="M178.661 35.1125C178.575 17.0203 162.615 3.11943 144.683 5.51871L43.1994 19.0965C30.2713 20.8262 19.9422 30.7111 17.6462 43.5507L7.85464 98.3063C4.37096 117.788 20.3733 135.245 40.0835 133.466L151.632 123.396C167.147 121.995 179.008 108.953 178.935 93.376L178.661 35.1125Z" fill="white" stroke="#F5A623" stroke-linecap="round" stroke-dasharray="5 5"/>
    <path d="M13.278 41.4808C15.025 27.4407 26.8075 16.8078 40.9526 16.5064L152.481 14.1293C168.049 13.7975 181.002 26.023 181.569 41.5847L183.083 83.1111C183.642 98.4509 171.952 111.478 156.641 112.576L37.6658 121.111C19.7501 122.396 5.12675 106.989 7.34463 89.165L13.278 41.4808Z" stroke="#F5A623" stroke-width="3"/>
</svg>
