<svg width="250" height="119" viewBox="0 0 250 119" fill="none" xmlns="http://www.w3.org/2000/svg">
    <path d="M3.43716 50.3064C1.57021 33.1808 14.4767 18.0045 31.6798 17.0968L208.056 7.79092C226.078 6.84002 240.854 21.902 239.559 39.9029L236.11 87.8187C234.886 104.828 219.748 117.397 202.804 115.474L31.9712 96.0795C18.033 94.4971 7.05221 83.4672 5.53198 69.5221L3.43716 50.3064Z" fill="white" stroke="#F5A623" stroke-linecap="round" stroke-dasharray="5 5"/>
    <path d="M218.913 1.63469C235.16 1.13833 248.531 14.3087 248.28 30.5609L247.858 57.9572C247.635 72.3963 236.648 84.3868 222.283 85.8675L48.1291 103.819C33.0462 105.374 19.3867 94.847 17.0479 79.8657L10.8306 40.0411C8.18641 23.1039 20.9848 7.68181 38.1191 7.15832L218.913 1.63469Z" stroke="#F5A623" stroke-width="3"/>
</svg>
