<svg width="255" height="180" viewBox="0 0 255 180" fill="none" xmlns="http://www.w3.org/2000/svg">
    <path d="M238.516 64.0573C237.069 43.8273 226.907 28.5528 214.786 28.3878L39.475 26.0014C26.1303 25.8197 15.2388 43.9026 15.1821 66.3345L15.0002 138.315C14.9385 162.746 27.6607 181.709 42.0832 178.682L219.885 153.744C233.049 150.982 242.409 130.854 240.825 108.714L238.516 64.0573Z" fill="white" stroke="#F5A623" stroke-linecap="round" stroke-dasharray="5 5"/>
    <path d="M3.75287 72.6212C2.58087 56.5402 14.971 42.6899 31.0827 42.0705L217.266 34.9132C235.307 34.2197 249.439 50.2631 246.474 68.0726L233.878 143.732C231.524 157.868 219.04 168.059 204.718 167.532L35.6707 161.32C21.1455 160.787 9.34918 149.408 8.29265 134.911L3.75287 72.6212Z" stroke="#F5A623" stroke-width="3"/>
    <path d="M142.097 67.3282H144.293V57.4642H147.065V67.3282H149.279V55.4482H142.097V67.3282ZM154.306 67.5442C156.898 67.5442 158.14 65.5282 158.14 61.3342C158.14 57.1762 156.916 55.2322 154.306 55.2322C151.732 55.2322 150.526 57.1942 150.526 61.3522C150.526 65.5642 151.732 67.5442 154.306 67.5442ZM154.306 65.5102C153.19 65.5102 152.758 64.3762 152.758 61.3522C152.758 58.3642 153.19 57.2662 154.306 57.2662C155.458 57.2662 155.908 58.4002 155.908 61.3882C155.908 64.3582 155.458 65.5102 154.306 65.5102ZM160.168 55.4482L160.096 59.9482C160.006 64.6102 159.826 65.4562 158.944 65.4562H158.656V67.3462C158.872 67.3822 159.106 67.4182 159.376 67.4182C161.77 67.4182 162.094 65.8342 162.202 59.9662L162.256 57.4642H164.506V67.3282H166.72V55.4482H160.168ZM173.166 55.4482L171.6 61.2082L169.872 55.4482H167.514L170.556 64.5202C170.286 65.2222 169.926 65.4922 169.314 65.4922C169.08 65.4922 168.9 65.4742 168.666 65.4562V67.3462C169.062 67.4542 169.404 67.4902 169.782 67.4902C171.312 67.4902 172.086 66.7342 172.716 64.6642L175.452 55.4482H173.166ZM180.895 55.4482V60.9022C180.463 61.0822 180.031 61.1722 179.581 61.1722C178.609 61.1722 178.123 60.6142 178.123 59.4982V55.4482H175.927V59.6602C175.927 61.9102 177.151 63.2062 179.221 63.2062C179.779 63.2062 180.337 63.1162 180.895 62.9362V67.3282H183.091V55.4482H180.895ZM189.836 67.3282H192.086L188.576 55.4482H187.424L183.896 67.3282H186.146L186.524 65.6722H189.44L189.836 67.3282ZM187.982 59.6422L189.026 63.8902H186.938L187.982 59.6422ZM196.588 54.1882C198.1 54.1882 198.982 53.2882 198.982 51.7402V50.9482H197.326V51.7402C197.326 52.2982 197.038 52.6042 196.588 52.6042C196.102 52.6042 195.814 52.2802 195.814 51.7402V50.9482H194.158V51.7402C194.158 53.2882 195.058 54.1882 196.588 54.1882ZM199.036 55.4482L195.112 61.8922V55.4482H192.88V67.3282H194.05L197.992 60.7762V67.3282H200.188V55.4482H199.036ZM29.2803 85.3282H31.4943V75.4462H34.6983V73.4482H29.2803V85.3282ZM39.5963 85.3282H41.8463L38.3363 73.4482H37.1843L33.6562 85.3282H35.9062L36.2843 83.6722H39.2003L39.5963 85.3282ZM37.7423 77.6422L38.7863 81.8902H36.6983L37.7423 77.6422ZM42.6397 85.3282H44.8537V81.0622H45.8257C48.2737 81.0622 49.6957 79.6762 49.6957 77.2462C49.6957 74.8342 48.2917 73.4482 45.8257 73.4482H42.6397V85.3282ZM44.8537 79.0822V75.4282H45.8437C46.9237 75.4282 47.4637 76.0222 47.4637 77.2642C47.4637 78.4702 46.9237 79.0822 45.8437 79.0822H44.8537ZM54.9595 85.3282H57.2095L53.6995 73.4482H52.5475L49.0195 85.3282H51.2695L51.6475 83.6722H54.5635L54.9595 85.3282ZM53.1055 77.6422L54.1495 81.8902H52.0615L53.1055 77.6422ZM58.0029 85.3282H60.2169V80.0722H63.1149V85.3282H65.3109V73.4482H63.1149V78.0562H60.2169V73.4482H58.0029V85.3282ZM68.733 85.3282H70.947V75.4642H73.377V73.4482H66.303V75.4642H68.733V85.3282ZM80.5242 73.4482L76.6002 79.8922V73.4482H74.3682V85.3282H75.5382L79.4802 78.7762V85.3282H81.6762V73.4482H80.5242ZM83.2803 85.3282H85.4943V81.0622H86.4663C88.9143 81.0622 90.3363 79.6762 90.3363 77.2462C90.3363 74.8342 88.9323 73.4482 86.4663 73.4482H83.2803V85.3282ZM85.4943 79.0822V75.4282H86.4843C87.5643 75.4282 88.1043 76.0222 88.1043 77.2642C88.1043 78.4702 87.5643 79.0822 86.4843 79.0822H85.4943ZM94.8921 85.5442C97.4841 85.5442 98.7261 83.5282 98.7261 79.3342C98.7261 75.1762 97.5021 73.2322 94.8921 73.2322C92.3181 73.2322 91.1121 75.1942 91.1121 79.3522C91.1121 83.5642 92.3181 85.5442 94.8921 85.5442ZM94.8921 83.5102C93.7761 83.5102 93.3441 82.3762 93.3441 79.3522C93.3441 76.3642 93.7761 75.2662 94.8921 75.2662C96.0441 75.2662 96.4941 76.4002 96.4941 79.3882C96.4941 82.3582 96.0441 83.5102 94.8921 83.5102ZM105.38 79.0822C106.082 78.5602 106.46 77.7322 106.46 76.6702C106.46 74.6542 105.128 73.4482 102.914 73.4482H99.9619V85.3282H103.49C105.56 85.3282 107 83.9422 107 81.9442C107 80.6482 106.388 79.6402 105.38 79.0822ZM102.86 75.3022C103.85 75.3022 104.336 75.8242 104.336 76.7962C104.336 77.7502 103.868 78.2722 102.86 78.2722H102.068V75.3022H102.86ZM103.22 83.4742H102.068V80.0902H103.238C104.318 80.0902 104.876 80.7022 104.876 81.8002C104.876 82.8802 104.318 83.4742 103.22 83.4742ZM113.126 85.3282H115.376L111.866 73.4482H110.714L107.186 85.3282H109.436L109.814 83.6722H112.73L113.126 85.3282ZM111.272 77.6422L112.316 81.8902H110.228L111.272 77.6422ZM116.169 85.3282H118.383V80.0722H121.281V85.3282H123.477V73.4482H121.281V78.0562H118.383V73.4482H116.169V85.3282ZM125.081 85.3282H127.295V80.0722H130.193V85.3282H132.389V73.4482H130.193V78.0562H127.295V73.4482H125.081V85.3282ZM133.993 85.3282H137.179C139.681 85.3282 141.103 83.9242 141.103 81.4762C141.103 79.0102 139.663 77.6062 137.179 77.6062H136.207V73.4482H133.993V85.3282ZM141.967 85.3282H144.181V73.4482H141.967V85.3282ZM136.207 83.3482V79.6042H137.197C138.313 79.6042 138.853 80.2162 138.853 81.4582C138.853 82.7362 138.313 83.3482 137.197 83.3482H136.207ZM145.771 85.3282H151.639V83.3302H147.985V80.0182H150.613V78.1102H147.985V75.4282H151.477V73.4482H145.771V85.3282ZM156.563 85.3282H158.759V75.4642H161.531V85.3282H163.745V73.4482H156.563V85.3282ZM165.335 85.3282H167.549V81.0622H168.521C170.969 81.0622 172.391 79.6762 172.391 77.2462C172.391 74.8342 170.987 73.4482 168.521 73.4482H165.335V85.3282ZM167.549 79.0822V75.4282H168.539C169.619 75.4282 170.159 76.0222 170.159 77.2642C170.159 78.4702 169.619 79.0822 168.539 79.0822H167.549ZM179.665 73.4482L175.741 79.8922V73.4482H173.509V85.3282H174.679L178.621 78.7762V85.3282H180.817V73.4482H179.665ZM187.389 79.1902C188.325 78.7582 188.775 77.8942 188.775 76.5982C188.775 74.4562 187.587 73.2322 185.463 73.2322C183.573 73.2322 182.493 74.1862 182.061 76.1662L183.969 76.7782C184.203 75.7342 184.653 75.2662 185.427 75.2662C186.219 75.2662 186.651 75.8062 186.651 76.8142C186.651 77.7862 186.165 78.3262 185.265 78.3262H184.167V80.1442H185.265C186.201 80.1442 186.741 80.7742 186.741 81.8542C186.741 82.9522 186.273 83.5102 185.391 83.5102C184.599 83.5102 184.131 83.0242 183.897 81.9622L181.971 82.5562C182.367 84.5542 183.501 85.5262 185.445 85.5262C187.641 85.5262 188.865 84.2842 188.865 82.0342C188.865 80.5942 188.361 79.6582 187.389 79.1902ZM190.015 85.3282H193.201C195.703 85.3282 197.125 83.9242 197.125 81.4762C197.125 79.0102 195.685 77.6062 193.201 77.6062H192.229V73.4482H190.015V85.3282ZM197.989 85.3282H200.203V73.4482H197.989V85.3282ZM192.229 83.3482V79.6042H193.219C194.335 79.6042 194.875 80.2162 194.875 81.4582C194.875 82.7362 194.335 83.3482 193.219 83.3482H192.229Z" fill="black"/>
    <path d="M42.2013 92.4482L37.6833 100.818V92.4482H36.3513V104.328H37.0893L41.6253 95.8682V104.328H42.9213V92.4482H42.2013ZM53.3934 92.4482L51.4134 99.6302L49.2354 92.4482H47.8674L50.7834 101.574L50.6574 101.988C50.3874 102.924 50.0634 103.23 49.3794 103.23C49.2174 103.23 49.0554 103.212 48.8394 103.176V104.346C49.1094 104.418 49.3974 104.436 49.6314 104.436C50.8374 104.436 51.4854 103.806 51.9714 102.15L54.7614 92.4482H53.3934ZM60.8817 92.4482V98.2622C60.2877 98.5322 59.6397 98.6762 58.9377 98.6762C57.6597 98.6762 57.0297 97.9202 57.0297 96.4442V92.4482H55.7337V96.5162C55.7337 98.6582 56.8497 99.8642 58.8117 99.8642C59.4957 99.8642 60.1977 99.7202 60.8817 99.4862V104.328H62.1777V92.4482H60.8817ZM69.5771 104.328H70.9091L67.5431 92.4482H66.8231L63.4751 104.328H64.8071L65.4551 101.898H68.9111L69.5771 104.328ZM67.1831 95.3462L68.5871 100.71H65.7791L67.1831 95.3462ZM74.989 104.526C76.573 104.526 77.509 103.644 77.923 101.772L76.717 101.466C76.393 102.726 75.853 103.338 74.989 103.338C73.567 103.338 72.919 101.772 72.919 98.3702C72.919 95.0042 73.567 93.4382 74.989 93.4382C75.853 93.4382 76.393 94.0322 76.717 95.3102L77.923 95.0042C77.509 93.1322 76.573 92.2502 74.989 92.2502C72.667 92.2502 71.587 94.1942 71.587 98.3702C71.587 102.546 72.685 104.526 74.989 104.526ZM81.3437 104.328H82.6577V93.6362H85.3037V92.4482H78.6797V93.6362H81.3437V104.328ZM90.9105 97.9382C91.7925 97.4522 92.2785 96.6062 92.2785 95.4362C92.2785 93.5642 91.0545 92.4482 88.9845 92.4482H86.5545V104.328H89.3625C91.4685 104.328 92.8185 103.014 92.8185 100.962C92.8185 99.4862 92.1165 98.4062 90.9105 97.9382ZM88.9305 93.6362C90.2985 93.6362 90.9645 94.2842 90.9645 95.4902C90.9645 96.6962 90.3345 97.3982 88.9485 97.3982H87.8685V93.6362H88.9305ZM89.2005 103.14H87.8685V98.6042H89.2185C90.6945 98.6042 91.5045 99.4502 91.5045 100.89C91.5045 102.294 90.6945 103.14 89.2005 103.14ZM98.9559 92.4482L96.9759 99.6302L94.7979 92.4482H93.4299L96.3459 101.574L96.2199 101.988C95.9499 102.924 95.6259 103.23 94.9419 103.23C94.7799 103.23 94.6179 103.212 94.4019 103.176V104.346C94.6719 104.418 94.9599 104.436 95.1939 104.436C96.3999 104.436 97.0479 103.806 97.5339 102.15L100.324 92.4482H98.9559ZM104.896 91.1522C106.21 91.1522 106.984 90.2702 106.984 88.7762V87.9482H105.94V88.7762C105.94 89.6402 105.544 90.1442 104.896 90.1442C104.212 90.1442 103.816 89.6222 103.816 88.7762V87.9482H102.772V88.7762C102.772 90.2702 103.546 91.1522 104.896 91.1522ZM107.416 92.4482L102.898 100.818V92.4482H101.566V104.328H102.304L106.84 95.8682V104.328H108.136V92.4482H107.416ZM118.086 97.9382C118.968 97.4522 119.454 96.6062 119.454 95.4362C119.454 93.5642 118.23 92.4482 116.16 92.4482H113.73V104.328H116.538C118.644 104.328 119.994 103.014 119.994 100.962C119.994 99.4862 119.292 98.4062 118.086 97.9382ZM116.106 93.6362C117.474 93.6362 118.14 94.2842 118.14 95.4902C118.14 96.6962 117.51 97.3982 116.124 97.3982H115.044V93.6362H116.106ZM116.376 103.14H115.044V98.6042H116.394C117.87 98.6042 118.68 99.4502 118.68 100.89C118.68 102.294 117.87 103.14 116.376 103.14ZM125.051 104.328H126.365V99.3422H127.661C129.893 99.3422 131.153 98.0822 131.153 95.8682C131.153 93.6902 129.893 92.4482 127.661 92.4482H125.051V104.328ZM126.365 98.1362V93.6362H127.661C129.083 93.6362 129.821 94.4102 129.821 95.8862C129.821 97.3802 129.101 98.1362 127.661 98.1362H126.365ZM135.67 104.526C138.046 104.526 139.144 102.582 139.144 98.3522C139.144 94.1582 138.046 92.2502 135.67 92.2502C133.294 92.2502 132.214 94.1582 132.214 98.3702C132.214 102.6 133.294 104.526 135.67 104.526ZM135.67 103.338C134.176 103.338 133.546 101.88 133.546 98.3702C133.546 94.9142 134.194 93.4382 135.67 93.4382C137.164 93.4382 137.83 94.9322 137.83 98.3702C137.83 101.88 137.182 103.338 135.67 103.338ZM144.607 98.0282C145.507 97.6142 145.993 96.7322 145.993 95.4722C145.993 93.4562 144.877 92.2502 143.005 92.2502C141.403 92.2502 140.449 93.0782 139.963 94.8422L141.169 95.2202C141.457 94.0142 142.033 93.4382 142.987 93.4382C144.049 93.4382 144.679 94.2122 144.679 95.5442C144.679 96.7682 144.031 97.4702 142.951 97.4702H141.673V98.6762H142.951C144.193 98.6762 144.877 99.5042 144.877 100.998C144.877 102.528 144.211 103.338 143.005 103.338C141.997 103.338 141.439 102.744 141.133 101.448L139.927 101.772C140.323 103.59 141.349 104.508 143.023 104.508C145.039 104.508 146.191 103.266 146.191 101.07C146.191 99.5402 145.615 98.4782 144.607 98.0282ZM147.674 104.328H150.284C152.624 104.328 153.902 103.05 153.902 100.782C153.902 98.4782 152.606 97.2002 150.284 97.2002H148.988V92.4482H147.674V104.328ZM154.982 104.328H156.278V92.4482H154.982V104.328ZM148.988 103.14V98.4062H150.284C151.832 98.4062 152.57 99.1802 152.57 100.764C152.57 102.348 151.814 103.14 150.284 103.14H148.988ZM158.273 104.328H159.587V93.6362H163.079V92.4482H158.273V104.328ZM164.338 104.328H165.652V99.3422H166.948C169.18 99.3422 170.44 98.0822 170.44 95.8682C170.44 93.6902 169.18 92.4482 166.948 92.4482H164.338V104.328ZM165.652 98.1362V93.6362H166.948C168.37 93.6362 169.108 94.4102 169.108 95.8862C169.108 97.3802 168.388 98.1362 166.948 98.1362H165.652ZM171.861 104.328H174.471C176.811 104.328 178.089 103.05 178.089 100.782C178.089 98.4782 176.793 97.2002 174.471 97.2002H173.175V92.4482H171.861V104.328ZM179.169 104.328H180.465V92.4482H179.169V104.328ZM173.175 103.14V98.4062H174.471C176.019 98.4062 176.757 99.1802 176.757 100.764C176.757 102.348 176.001 103.14 174.471 103.14H173.175ZM182.461 104.328H193.135V92.4482H191.821V103.14H188.455V92.4482H187.141V103.14H183.775V92.4482H182.461V104.328ZM195.135 104.328H200.499V103.158H196.449V98.5502H199.473V97.3622H196.449V93.6182H200.373V92.4482H195.135V104.328ZM46.6725 126.866H47.9685V123.14H47.0145V112.448H45.7185V123.14H41.8665V112.448H40.5525V124.328H46.6725V126.866ZM49.324 124.328H54.688V123.158H50.638V118.55H53.662V117.362H50.638V113.618H54.562V112.448H49.324V124.328ZM56.1795 124.328H57.4935V118.55H61.4535V124.328H62.7495V112.448H61.4535V117.362H57.4935V112.448H56.1795V124.328ZM64.74 124.328H66.054V118.55H70.014V124.328H71.31V112.448H70.014V117.362H66.054V112.448H64.74V124.328ZM73.3005 124.328H75.9105C78.2505 124.328 79.5285 123.05 79.5285 120.782C79.5285 118.478 78.2325 117.2 75.9105 117.2H74.6145V112.448H73.3005V124.328ZM80.6085 124.328H81.9045V112.448H80.6085V124.328ZM74.6145 123.14V118.406H75.9105C77.4585 118.406 78.1965 119.18 78.1965 120.764C78.1965 122.348 77.4405 123.14 75.9105 123.14H74.6145ZM90.2182 112.448H88.8142L86.7802 117.128L84.7462 112.448H83.3242L85.9522 118.406L83.3242 124.328H84.7642L86.7622 119.666L88.7782 124.328H90.2182L87.6082 118.406L90.2182 112.448ZM95.2029 124.328H96.4989V113.636H100.369V124.328H101.665V112.448H95.2029V124.328ZM103.658 124.328H104.972V119.342H106.268C108.5 119.342 109.76 118.082 109.76 115.868C109.76 113.69 108.5 112.448 106.268 112.448H103.658V124.328ZM104.972 118.136V113.636H106.268C107.69 113.636 108.428 114.41 108.428 115.886C108.428 117.38 107.708 118.136 106.268 118.136H104.972ZM117.031 112.448L112.513 120.818V112.448H111.181V124.328H111.919L116.455 115.868V124.328H117.751V112.448H117.031ZM123.918 118.028C124.818 117.614 125.304 116.732 125.304 115.472C125.304 113.456 124.188 112.25 122.316 112.25C120.714 112.25 119.76 113.078 119.274 114.842L120.48 115.22C120.768 114.014 121.344 113.438 122.298 113.438C123.36 113.438 123.99 114.212 123.99 115.544C123.99 116.768 123.342 117.47 122.262 117.47H120.984V118.676H122.262C123.504 118.676 124.188 119.504 124.188 120.998C124.188 122.528 123.522 123.338 122.316 123.338C121.308 123.338 120.75 122.744 120.444 121.448L119.238 121.772C119.634 123.59 120.66 124.508 122.334 124.508C124.35 124.508 125.502 123.266 125.502 121.07C125.502 119.54 124.926 118.478 123.918 118.028ZM130.08 124.526C132.456 124.526 133.554 122.582 133.554 118.352C133.554 114.158 132.456 112.25 130.08 112.25C127.704 112.25 126.624 114.158 126.624 118.37C126.624 122.6 127.704 124.526 130.08 124.526ZM130.08 123.338C128.586 123.338 127.956 121.88 127.956 118.37C127.956 114.914 128.604 113.438 130.08 113.438C131.574 113.438 132.24 114.932 132.24 118.37C132.24 121.88 131.592 123.338 130.08 123.338ZM139.532 117.938C140.414 117.452 140.9 116.606 140.9 115.436C140.9 113.564 139.676 112.448 137.606 112.448H135.176V124.328H137.984C140.09 124.328 141.44 123.014 141.44 120.962C141.44 119.486 140.738 118.406 139.532 117.938ZM137.552 113.636C138.92 113.636 139.586 114.284 139.586 115.49C139.586 116.696 138.956 117.398 137.57 117.398H136.49V113.636H137.552ZM137.822 123.14H136.49V118.604H137.84C139.316 118.604 140.126 119.45 140.126 120.89C140.126 122.294 139.316 123.14 137.822 123.14ZM146.496 124.328H147.81V112.448H146.496V124.328ZM149.43 117.938L152.85 112.448H151.356L147.918 117.938L151.482 124.328H152.976L149.43 117.938ZM159.735 124.328H161.067L157.701 112.448H156.981L153.633 124.328H154.965L155.613 121.898H159.069L159.735 124.328ZM157.341 115.346L158.745 120.71H155.937L157.341 115.346ZM161.848 112.448L165.16 117.956L161.74 124.328H163.234L166.6 117.938L163.342 112.448H161.848ZM166.708 124.328H168.004V112.448H166.708V124.328ZM169.552 117.902L172.864 112.448H171.37L168.13 117.938L171.496 124.328H172.99L169.552 117.902ZM181.053 123.14V112.448H175.257L175.167 117.164C175.095 120.764 174.771 122.456 174.159 123.14H173.583V126.866H174.879V124.328H180.765V126.866H182.079V123.14H181.053ZM176.409 117.182L176.517 113.636H179.739V123.14H175.545C176.085 122.114 176.319 120.368 176.409 117.182ZM188.112 112.448L186.132 119.63L183.954 112.448H182.586L185.502 121.574L185.376 121.988C185.106 122.924 184.782 123.23 184.098 123.23C183.936 123.23 183.774 123.212 183.558 123.176V124.346C183.828 124.418 184.116 124.436 184.35 124.436C185.556 124.436 186.204 123.806 186.69 122.15L189.48 112.448H188.112ZM196.968 112.25C194.862 112.25 193.836 113.834 193.674 117.362H192.036V112.448H190.722V124.328H192.036V118.55H193.656C193.692 122.69 194.7 124.526 196.968 124.526C199.326 124.526 200.352 122.618 200.352 118.352C200.352 114.122 199.344 112.25 196.968 112.25ZM196.968 123.338C195.528 123.338 194.97 121.934 194.97 118.37C194.97 114.86 195.546 113.438 196.968 113.438C198.444 113.438 199.038 114.878 199.038 118.37C199.038 121.952 198.462 123.338 196.968 123.338ZM150.803 144.328H152.117V138.55H156.077V144.328H157.373V132.448H156.077V137.362H152.117V132.448H150.803V144.328ZM159.363 144.328H164.727V143.158H160.677V138.55H163.701V137.362H160.677V133.618H164.601V132.448H159.363V144.328ZM172.897 143.14V132.448H167.101L167.011 137.164C166.939 140.764 166.615 142.456 166.003 143.14H165.427V146.866H166.723V144.328H172.609V146.866H173.923V143.14H172.897ZM168.253 137.182L168.361 133.636H171.583V143.14H167.389C167.929 142.114 168.163 140.368 168.253 137.182ZM175.271 144.328H180.635V143.158H176.585V138.55H179.609V137.362H176.585V133.618H180.509V132.448H175.271V144.328ZM183.027 132.448L182.919 137.164C182.811 142.096 182.559 143.212 181.623 143.212C181.515 143.212 181.425 143.194 181.317 143.176V144.328C181.479 144.364 181.659 144.382 181.857 144.382C183.621 144.382 184.053 143.05 184.197 137.164L184.287 133.636H187.437V144.328H188.733V132.448H183.027ZM196.968 132.25C194.862 132.25 193.836 133.834 193.674 137.362H192.036V132.448H190.722V144.328H192.036V138.55H193.656C193.692 142.69 194.7 144.526 196.968 144.526C199.326 144.526 200.352 142.618 200.352 138.352C200.352 134.122 199.344 132.25 196.968 132.25ZM196.968 143.338C195.528 143.338 194.97 141.934 194.97 138.37C194.97 134.86 195.546 133.438 196.968 133.438C198.444 133.438 199.038 134.878 199.038 138.37C199.038 141.952 198.462 143.338 196.968 143.338Z" fill="black"/>
    <g filter="url(#filter0_d_715_13905)">
        <path d="M252.429 44.3282H247.629V24.0282H235.829V44.3282H225.529L236.629 0.328244H224.929L212.529 48.8282V54.8282H235.829V66.3282H247.629V54.8282H252.429V44.3282Z" fill="#E4002B"/>
    </g>
    <defs>
        <filter id="filter0_d_715_13905" x="212.529" y="0.328247" width="41.8994" height="68" filterUnits="userSpaceOnUse" color-interpolation-filters="sRGB">
            <feFlood flood-opacity="0" result="BackgroundImageFix"/>
            <feColorMatrix in="SourceAlpha" type="matrix" values="0 0 0 0 0 0 0 0 0 0 0 0 0 0 0 0 0 0 127 0" result="hardAlpha"/>
            <feOffset dx="2" dy="2"/>
            <feComposite in2="hardAlpha" operator="out"/>
            <feColorMatrix type="matrix" values="0 0 0 0 0.960784 0 0 0 0 0.65098 0 0 0 0 0.137255 0 0 0 1 0"/>
            <feBlend mode="normal" in2="BackgroundImageFix" result="effect1_dropShadow_715_13905"/>
            <feBlend mode="normal" in="SourceGraphic" in2="effect1_dropShadow_715_13905" result="shape"/>
        </filter>
    </defs>
</svg>
