<svg width="250" height="98" viewBox="0 0 250 98" fill="none" xmlns="http://www.w3.org/2000/svg">
    <path d="M246.472 47.1768C248.259 29.9867 235.19 14.8452 217.923 14.1016L39.4863 6.41677C21.5034 5.64229 6.89125 20.7675 8.28561 38.713L10.6164 68.7106C11.881 84.9852 25.9256 97.2619 42.2231 96.3386L217.039 86.4351C231.737 85.6024 243.659 74.2284 245.181 59.5861L246.472 47.1768Z" fill="white" stroke="#F5A623" stroke-linecap="round" stroke-dasharray="5 5"/>
    <path d="M4.45789 46.3195C2.92648 30.076 15.3181 15.8648 31.6189 15.1702L202.25 7.90012C219.336 7.17215 233.212 21.55 231.877 38.599L229.767 65.5452C228.586 80.6249 215.831 92.1555 200.709 91.8131L33.6855 88.0317C19.2321 87.7044 7.31338 76.6073 5.95641 62.214L4.45789 46.3195Z" stroke="#F5A623" stroke-width="3"/>
    <path d="M62.176 42.2159C59.656 42.2159 58.45 40.1999 58.45 36.0599C58.45 31.9019 59.656 29.9039 62.176 29.9039C64.048 29.9039 65.11 30.9119 65.524 33.1799L63.562 33.6839C63.328 32.4779 62.914 31.9379 62.194 31.9379C61.132 31.9379 60.682 33.1439 60.682 36.0599C60.682 38.9759 61.132 40.1819 62.194 40.1819C62.914 40.1819 63.328 39.6419 63.562 38.4359L65.524 38.9399C65.11 41.2079 64.048 42.2159 62.176 42.2159ZM74.3526 41.9999H71.9046L68.8986 35.9519V41.9999H66.6846V30.1199H68.8986V35.4659L71.7426 30.1199H74.1906L71.2206 35.6999L74.3526 41.9999ZM80.4107 41.9999L80.0147 40.3439H77.0987L76.7207 41.9999H74.4707L77.9987 30.1199H79.1507L82.6607 41.9999H80.4107ZM78.5567 34.3139L77.5127 38.5619H79.6007L78.5567 34.3139ZM87.3071 30.1199H89.5031V41.9999H87.3071V37.6079C86.7491 37.7879 86.1911 37.8779 85.6331 37.8779C83.5631 37.8779 82.3391 36.5819 82.3391 34.3319V30.1199H84.5351V34.1699C84.5351 35.2859 85.0211 35.8439 85.9931 35.8439C86.4431 35.8439 86.8751 35.7539 87.3071 35.5739V30.1199ZM96.2486 41.9999L95.8526 40.3439H92.9366L92.5586 41.9999H90.3086L93.8366 30.1199H94.9886L98.4986 41.9999H96.2486ZM94.3946 34.3139L93.3506 38.5619H95.4386L94.3946 34.3139ZM103 28.8599C101.47 28.8599 100.57 27.9599 100.57 26.4119V25.6199H102.226V26.4119C102.226 26.9519 102.514 27.2759 103 27.2759C103.45 27.2759 103.738 26.9699 103.738 26.4119V25.6199H105.394V26.4119C105.394 27.9599 104.512 28.8599 103 28.8599ZM105.448 30.1199H106.6V41.9999H104.404V35.4479L100.462 41.9999H99.292V30.1199H101.524V36.5639L105.448 30.1199ZM111.808 41.9999V30.1199H118.99V41.9999H116.776V32.1359H114.004V41.9999H111.808ZM120.579 41.9999V30.1199H123.765C126.231 30.1199 127.635 31.5059 127.635 33.9179C127.635 36.3479 126.213 37.7339 123.765 37.7339H122.793V41.9999H120.579ZM122.793 35.7539H123.783C124.863 35.7539 125.403 35.1419 125.403 33.9359C125.403 32.6939 124.863 32.0999 123.783 32.0999H122.793V35.7539ZM134.909 30.1199H136.061V41.9999H133.865V35.4479L129.923 41.9999H128.753V30.1199H130.985V36.5639L134.909 30.1199ZM138.457 30.1199H145.009V41.9999H142.795V32.1359H140.545L140.491 34.6379C140.383 40.5059 140.059 42.0899 137.665 42.0899C137.395 42.0899 137.161 42.0539 136.945 42.0179V40.1279H137.233C138.115 40.1279 138.295 39.2819 138.385 34.6199L138.457 30.1199ZM150.033 42.2159C147.459 42.2159 146.253 40.2359 146.253 36.0239C146.253 31.8659 147.459 29.9039 150.033 29.9039C152.643 29.9039 153.867 31.8479 153.867 36.0059C153.867 40.1999 152.625 42.2159 150.033 42.2159ZM150.033 40.1819C151.185 40.1819 151.635 39.0299 151.635 36.0599C151.635 33.0719 151.185 31.9379 150.033 31.9379C148.917 31.9379 148.485 33.0359 148.485 36.0239C148.485 39.0479 148.917 40.1819 150.033 40.1819ZM166.671 41.9999H164.223L161.415 35.9699V41.9999H159.201V35.9699L156.375 41.9999H153.945L156.933 35.7179L154.089 30.1199H156.537L159.201 35.4479V30.1199H161.415V35.4479L164.079 30.1199H166.509L163.683 35.6819L166.671 41.9999ZM167.601 41.9999V30.1199H173.307V32.0999H169.815V34.7819H172.443V36.6899H169.815V40.0019H173.469V41.9999H167.601ZM174.79 41.9999V30.1199H177.004V34.7279H179.902V30.1199H182.098V41.9999H179.902V36.7439H177.004V41.9999H174.79ZM189.858 30.1199H191.01V41.9999H188.814V35.4479L184.872 41.9999H183.702V30.1199H185.934V36.5639L189.858 30.1199ZM192.614 41.9999V30.1199H198.32V32.0999H194.828V34.7819H197.456V36.6899H194.828V40.0019H198.482V41.9999H192.614Z" fill="black"/>
    <path d="M64.84 53.1199H65.56V64.9999H64.264V56.5399L59.728 64.9999H58.99V53.1199H60.322V61.4899L64.84 53.1199ZM76.5361 64.9999L75.8701 62.5699H72.4141L71.7661 64.9999H70.4341L73.7821 53.1199H74.5021L77.8681 64.9999H76.5361ZM74.1421 56.0179L72.7381 61.3819H75.5461L74.1421 56.0179ZM83.473 58.6099C84.679 59.0779 85.381 60.1579 85.381 61.6339C85.381 63.6859 84.031 64.9999 81.925 64.9999H79.117V53.1199H81.547C83.617 53.1199 84.841 54.2359 84.841 56.1079C84.841 57.2779 84.355 58.1239 83.473 58.6099ZM81.493 54.3079H80.431V58.0699H81.511C82.897 58.0699 83.527 57.3679 83.527 56.1619C83.527 54.9559 82.861 54.3079 81.493 54.3079ZM81.763 63.8119C83.257 63.8119 84.067 62.9659 84.067 61.5619C84.067 60.1219 83.257 59.2759 81.781 59.2759H80.431V63.8119H81.763ZM88.4433 64.9999V54.3079H85.7793V53.1199H92.4033V54.3079H89.7573V64.9999H88.4433ZM96.4864 65.1979C94.1104 65.1979 93.0304 63.2719 93.0304 59.0419C93.0304 54.8299 94.1104 52.9219 96.4864 52.9219C98.8624 52.9219 99.9604 54.8299 99.9604 59.0239C99.9604 63.2539 98.8624 65.1979 96.4864 65.1979ZM96.4864 64.0099C97.9984 64.0099 98.6464 62.5519 98.6464 59.0419C98.6464 55.6039 97.9804 54.1099 96.4864 54.1099C95.0104 54.1099 94.3624 55.5859 94.3624 59.0419C94.3624 62.5519 94.9924 64.0099 96.4864 64.0099ZM101.582 64.9999V53.1199H104.192C106.424 53.1199 107.684 54.3619 107.684 56.5399C107.684 58.7539 106.424 60.0139 104.192 60.0139H102.896V64.9999H101.582ZM102.896 58.8079H104.192C105.632 58.8079 106.352 58.0519 106.352 56.5579C106.352 55.0819 105.614 54.3079 104.192 54.3079H102.896V58.8079ZM114.955 53.1199H115.675V64.9999H114.379V56.5399L109.843 64.9999H109.105V53.1199H110.437V61.4899L114.955 53.1199ZM121.842 58.6999C122.85 59.1499 123.426 60.2119 123.426 61.7419C123.426 63.9379 122.274 65.1799 120.258 65.1799C118.584 65.1799 117.558 64.2619 117.162 62.4439L118.368 62.1199C118.674 63.4159 119.232 64.0099 120.24 64.0099C121.446 64.0099 122.112 63.1999 122.112 61.6699C122.112 60.1759 121.428 59.3479 120.186 59.3479H118.908V58.1419H120.186C121.266 58.1419 121.914 57.4399 121.914 56.2159C121.914 54.8839 121.284 54.1099 120.222 54.1099C119.268 54.1099 118.692 54.6859 118.404 55.8919L117.198 55.5139C117.684 53.7499 118.638 52.9219 120.24 52.9219C122.112 52.9219 123.228 54.1279 123.228 56.1439C123.228 57.4039 122.742 58.2859 121.842 58.6999ZM129.663 53.1199H131.031L128.241 62.8219C127.755 64.4779 127.107 65.1079 125.901 65.1079C125.667 65.1079 125.379 65.0899 125.109 65.0179V63.8479C125.325 63.8839 125.487 63.9019 125.649 63.9019C126.333 63.9019 126.657 63.5959 126.927 62.6599L127.053 62.2459L124.137 53.1199H125.505L127.683 60.3019L129.663 53.1199ZM135.603 51.8239C134.253 51.8239 133.479 50.9419 133.479 49.4479V48.6199H134.523V49.4479C134.523 50.2939 134.919 50.8159 135.603 50.8159C136.251 50.8159 136.647 50.3119 136.647 49.4479V48.6199H137.691V49.4479C137.691 50.9419 136.917 51.8239 135.603 51.8239ZM138.123 53.1199H138.843V64.9999H137.547V56.5399L133.011 64.9999H132.273V53.1199H133.605V61.4899L138.123 53.1199ZM143.876 65.1979C141.572 65.1979 140.474 63.2179 140.474 59.0419C140.474 54.8659 141.554 52.9219 143.876 52.9219C145.46 52.9219 146.396 53.8039 146.81 55.6759L145.604 55.9819C145.28 54.7039 144.74 54.1099 143.876 54.1099C142.454 54.1099 141.806 55.6759 141.806 59.0419C141.806 62.4439 142.454 64.0099 143.876 64.0099C144.74 64.0099 145.28 63.3979 145.604 62.1379L146.81 62.4439C146.396 64.3159 145.46 65.1979 143.876 65.1979ZM151.243 53.1199H153.853V64.9999H152.557V60.3019H151.315H151.081L149.029 64.9999H147.643L149.803 60.0679C148.489 59.5819 147.769 58.4299 147.769 56.7019C147.769 54.4339 149.047 53.1199 151.243 53.1199ZM152.557 59.0959V54.3079H151.261C149.839 54.3079 149.083 55.1359 149.083 56.7019C149.083 58.2859 149.839 59.0959 151.261 59.0959H152.557ZM163.823 58.6099C165.029 59.0779 165.731 60.1579 165.731 61.6339C165.731 63.6859 164.381 64.9999 162.275 64.9999H159.467V53.1199H161.897C163.967 53.1199 165.191 54.2359 165.191 56.1079C165.191 57.2779 164.705 58.1239 163.823 58.6099ZM161.843 54.3079H160.781V58.0699H161.861C163.247 58.0699 163.877 57.3679 163.877 56.1619C163.877 54.9559 163.211 54.3079 161.843 54.3079ZM162.113 63.8119C163.607 63.8119 164.417 62.9659 164.417 61.5619C164.417 60.1219 163.607 59.2759 162.131 59.2759H160.781V63.8119H162.113ZM170.787 64.9999V53.1199H177.249V64.9999H175.953V54.3079H172.083V64.9999H170.787ZM179.242 64.9999V53.1199H181.852C184.084 53.1199 185.344 54.3619 185.344 56.5399C185.344 58.7539 184.084 60.0139 181.852 60.0139H180.556V64.9999H179.242ZM180.556 58.8079H181.852C183.292 58.8079 184.012 58.0519 184.012 56.5579C184.012 55.0819 183.274 54.3079 181.852 54.3079H180.556V58.8079ZM189.861 65.1979C187.485 65.1979 186.405 63.2719 186.405 59.0419C186.405 54.8299 187.485 52.9219 189.861 52.9219C192.237 52.9219 193.335 54.8299 193.335 59.0239C193.335 63.2539 192.237 65.1979 189.861 65.1979ZM189.861 64.0099C191.373 64.0099 192.021 62.5519 192.021 59.0419C192.021 55.6039 191.355 54.1099 189.861 54.1099C188.385 54.1099 187.737 55.5859 187.737 59.0419C187.737 62.5519 188.367 64.0099 189.861 64.0099ZM201.815 53.1199H202.517V64.9999H201.221V57.0259L198.971 61.5259H198.503L196.271 57.0439V64.9999H194.957V53.1199H195.695L198.737 59.2399L201.815 53.1199ZM207.615 65.1979C205.239 65.1979 204.159 63.2719 204.159 59.0419C204.159 54.8299 205.239 52.9219 207.615 52.9219C209.991 52.9219 211.089 54.8299 211.089 59.0239C211.089 63.2539 209.991 65.1979 207.615 65.1979ZM207.615 64.0099C209.127 64.0099 209.775 62.5519 209.775 59.0419C209.775 55.6039 209.109 54.1099 207.615 54.1099C206.139 54.1099 205.491 55.5859 205.491 59.0419C205.491 62.5519 206.121 64.0099 207.615 64.0099Z" fill="black"/>
    <g filter="url(#filter0_d_694_12504)">
        <path d="M30.7469 -2.6226e-06L14.6469 7.8L18.0469 18.2L25.2469 14.7V66H37.0469V-2.6226e-06H30.7469Z" fill="#E4002B"/>
    </g>
    <defs>
        <filter id="filter0_d_694_12504" x="14.6465" y="0" width="24.4004" height="68" filterUnits="userSpaceOnUse" color-interpolation-filters="sRGB">
            <feFlood flood-opacity="0" result="BackgroundImageFix"/>
            <feColorMatrix in="SourceAlpha" type="matrix" values="0 0 0 0 0 0 0 0 0 0 0 0 0 0 0 0 0 0 127 0" result="hardAlpha"/>
            <feOffset dx="2" dy="2"/>
            <feComposite in2="hardAlpha" operator="out"/>
            <feColorMatrix type="matrix" values="0 0 0 0 0.960784 0 0 0 0 0.65098 0 0 0 0 0.137255 0 0 0 1 0"/>
            <feBlend mode="normal" in2="BackgroundImageFix" result="effect1_dropShadow_694_12504"/>
            <feBlend mode="normal" in="SourceGraphic" in2="effect1_dropShadow_694_12504" result="shape"/>
        </filter>
    </defs>
</svg>
