<svg width="334" height="128" viewBox="0 0 334 128" fill="none" xmlns="http://www.w3.org/2000/svg">
    <path d="M11.8142 54.0215C11.9531 42.4671 20.6861 32.8302 32.171 31.5578L293.702 2.58223C306.48 1.16653 317.916 10.5546 319.015 23.3636L325.825 102.67C326.987 116.207 316.166 127.768 302.582 127.501L33.6996 122.219C21.135 121.973 11.1218 111.637 11.2728 99.0712L11.8142 54.0215Z" fill="white" stroke="#F5A623" stroke-width="0.76259" stroke-linecap="round" stroke-dasharray="3.81 3.81"/>
    <path d="M330.601 47.8122C331.762 35.2697 322.051 24.3703 309.458 24.0814L35.8565 17.806C21.8437 17.4846 11.1953 30.3157 14.0942 44.0291L26.6068 103.221C28.7668 113.439 37.8895 120.676 48.3312 120.455L305.027 115.015C316.076 114.781 325.19 106.293 326.208 95.2889L330.601 47.8122Z" stroke="#F5A623" stroke-width="2.28777"/>
    <path d="M60.23 47.2155C57.656 47.2155 56.45 45.2355 56.45 41.0235C56.45 36.8655 57.656 34.9035 60.23 34.9035C62.84 34.9035 64.064 36.8475 64.064 41.0055C64.064 45.1995 62.822 47.2155 60.23 47.2155ZM60.23 45.1815C61.382 45.1815 61.832 44.0295 61.832 41.0595C61.832 38.0715 61.382 36.9375 60.23 36.9375C59.114 36.9375 58.682 38.0355 58.682 41.0235C58.682 44.0475 59.114 45.1815 60.23 45.1815ZM74.5518 41.0775C74.5518 43.9215 73.2018 45.6315 70.8618 45.8115V47.3595H68.6478V45.8115C66.2898 45.6315 64.9578 43.9215 64.9578 41.0775C64.9578 38.0895 66.2898 36.3075 68.6478 36.1275V34.7595H70.8618V36.1275C73.2198 36.3075 74.5518 38.0895 74.5518 41.0775ZM67.0098 41.0415C67.0098 42.9135 67.5498 43.7775 68.7558 43.8675V38.0715C67.5318 38.1615 67.0098 39.0615 67.0098 41.0415ZM70.7538 43.8675C71.9598 43.7775 72.4998 42.9135 72.4998 41.0415C72.4998 39.0615 71.9778 38.1615 70.7538 38.0715V43.8675ZM79.232 47.2155C76.658 47.2155 75.452 45.2355 75.452 41.0235C75.452 36.8655 76.658 34.9035 79.232 34.9035C81.842 34.9035 83.066 36.8475 83.066 41.0055C83.066 45.1995 81.824 47.2155 79.232 47.2155ZM79.232 45.1815C80.384 45.1815 80.834 44.0295 80.834 41.0595C80.834 38.0715 80.384 36.9375 79.232 36.9375C78.116 36.9375 77.684 38.0355 77.684 41.0235C77.684 44.0475 78.116 45.1815 79.232 45.1815ZM84.3018 46.9995V35.1195H87.4878C89.9538 35.1195 91.3578 36.5055 91.3578 38.9175C91.3578 41.3475 89.9358 42.7335 87.4878 42.7335H86.5158V46.9995H84.3018ZM86.5158 40.7535H87.5058C88.5858 40.7535 89.1258 40.1415 89.1258 38.9355C89.1258 37.6935 88.5858 37.0995 87.5058 37.0995H86.5158V40.7535ZM99.7116 35.1195H100.864V46.9995H98.6676V41.1855L97.0656 44.2095H96.2916L94.6896 41.2215V46.9995H92.4756V35.1195H93.6456L96.6876 40.8975L99.7116 35.1195ZM103.252 35.1195H109.804V46.9995H107.59V37.1355H105.34L105.286 39.6375C105.178 45.5055 104.854 47.0895 102.46 47.0895C102.19 47.0895 101.956 47.0535 101.74 47.0175V45.1275H102.028C102.91 45.1275 103.09 44.2815 103.18 39.6195L103.252 35.1195ZM115.044 35.1195H118.23V46.9995H116.016V42.9675H115.026L113.334 46.9995H111.03L112.974 42.4815C111.84 41.8335 111.174 40.6095 111.174 39.0435C111.174 36.5775 112.596 35.1195 115.044 35.1195ZM116.016 40.9695V37.0995H115.044C113.964 37.0995 113.406 37.7475 113.406 39.0435C113.406 40.3215 113.964 40.9695 115.044 40.9695H116.016ZM123.518 33.8595C121.988 33.8595 121.088 32.9595 121.088 31.4115V30.6195H122.744V31.4115C122.744 31.9515 123.032 32.2755 123.518 32.2755C123.968 32.2755 124.256 31.9695 124.256 31.4115V30.6195H125.912V31.4115C125.912 32.9595 125.03 33.8595 123.518 33.8595ZM125.966 35.1195H127.118V46.9995H124.922V40.4475L120.98 46.9995H119.81V35.1195H122.042V41.5635L125.966 35.1195ZM137.293 40.8615C138.265 41.3295 138.769 42.2655 138.769 43.7055C138.769 45.9555 137.545 47.1975 135.349 47.1975C133.405 47.1975 132.271 46.2255 131.875 44.2275L133.801 43.6335C134.035 44.6955 134.503 45.1815 135.295 45.1815C136.177 45.1815 136.645 44.6235 136.645 43.5255C136.645 42.4455 136.105 41.8155 135.169 41.8155H134.071V39.9975H135.169C136.069 39.9975 136.555 39.4575 136.555 38.4855C136.555 37.4775 136.123 36.9375 135.331 36.9375C134.557 36.9375 134.107 37.4055 133.873 38.4495L131.965 37.8375C132.397 35.8575 133.477 34.9035 135.367 34.9035C137.491 34.9035 138.679 36.1275 138.679 38.2695C138.679 39.5655 138.229 40.4295 137.293 40.8615ZM144.944 46.9995L144.548 45.3435H141.632L141.254 46.9995H139.004L142.532 35.1195H143.684L147.194 46.9995H144.944ZM143.09 39.3135L142.046 43.5615H144.134L143.09 39.3135ZM155.655 46.9995H153.207L150.201 40.9515V46.9995H147.987V35.1195H150.201V40.4655L153.045 35.1195H155.493L152.523 40.6995L155.655 46.9995ZM161.713 46.9995L161.317 45.3435H158.401L158.023 46.9995H155.773L159.301 35.1195H160.453L163.963 46.9995H161.713ZM159.859 39.3135L158.815 43.5615H160.903L159.859 39.3135ZM169.602 40.8615C170.574 41.3295 171.078 42.2655 171.078 43.7055C171.078 45.9555 169.854 47.1975 167.658 47.1975C165.714 47.1975 164.58 46.2255 164.184 44.2275L166.11 43.6335C166.344 44.6955 166.812 45.1815 167.604 45.1815C168.486 45.1815 168.954 44.6235 168.954 43.5255C168.954 42.4455 168.414 41.8155 167.478 41.8155H166.38V39.9975H167.478C168.378 39.9975 168.864 39.4575 168.864 38.4855C168.864 37.4775 168.432 36.9375 167.64 36.9375C166.866 36.9375 166.416 37.4055 166.182 38.4495L164.274 37.8375C164.706 35.8575 165.786 34.9035 167.676 34.9035C169.8 34.9035 170.988 36.1275 170.988 38.2695C170.988 39.5655 170.538 40.4295 169.602 40.8615ZM179.269 47.2155C176.695 47.2155 175.489 45.2355 175.489 41.0235C175.489 36.8655 176.695 34.9035 179.269 34.9035C181.879 34.9035 183.103 36.8475 183.103 41.0055C183.103 45.1995 181.861 47.2155 179.269 47.2155ZM179.269 45.1815C180.421 45.1815 180.871 44.0295 180.871 41.0595C180.871 38.0715 180.421 36.9375 179.269 36.9375C178.153 36.9375 177.721 38.0355 177.721 41.0235C177.721 44.0475 178.153 45.1815 179.269 45.1815ZM185.981 46.9995V37.1355H183.551V35.1195H190.625V37.1355H188.195V46.9995H185.981ZM201.193 43.0395V44.9295H200.329V46.9995H198.205V44.9295H194.011V43.8495L196.243 35.1195H198.349L196.351 43.0395H198.205V39.3855H200.329V43.0395H201.193ZM205.368 47.2155C203.01 47.2155 201.966 45.3255 201.966 41.0595C201.966 36.7935 203.01 34.9035 205.368 34.9035C207.708 34.9035 208.752 36.7935 208.752 41.0595C208.752 45.3255 207.708 47.2155 205.368 47.2155ZM205.368 45.2175C206.286 45.2175 206.592 44.2275 206.592 41.0775C206.592 37.9095 206.286 36.9015 205.368 36.9015C204.432 36.9015 204.126 37.9095 204.126 41.0775C204.126 44.2275 204.432 45.2175 205.368 45.2175ZM213.454 47.2155C211.096 47.2155 210.052 45.3255 210.052 41.0595C210.052 36.7935 211.096 34.9035 213.454 34.9035C215.794 34.9035 216.838 36.7935 216.838 41.0595C216.838 45.3255 215.794 47.2155 213.454 47.2155ZM213.454 45.2175C214.372 45.2175 214.678 44.2275 214.678 41.0775C214.678 37.9095 214.372 36.9015 213.454 36.9015C212.518 36.9015 212.212 37.9095 212.212 41.0775C212.212 44.2275 212.518 45.2175 213.454 45.2175ZM218.588 46.9995V45.0015H217.562V43.2735H218.588V41.9775H217.562V40.1775H218.588V35.1195H221.432C223.574 35.1195 224.78 36.3435 224.78 38.5215C224.78 40.7535 223.556 41.9775 221.432 41.9775H220.694V43.2735H223.772V45.0015H220.694V46.9995H218.588ZM220.694 40.1775H221.27C222.206 40.1775 222.62 39.6735 222.62 38.5395C222.62 37.4235 222.206 36.9195 221.27 36.9195H220.694V40.1775ZM225.801 50.2035L225.873 44.9835H228.267L227.529 50.2035H225.801ZM60.176 65.2155C57.656 65.2155 56.45 63.1995 56.45 59.0595C56.45 54.9015 57.656 52.9035 60.176 52.9035C62.048 52.9035 63.11 53.9115 63.524 56.1795L61.562 56.6835C61.328 55.4775 60.914 54.9375 60.194 54.9375C59.132 54.9375 58.682 56.1435 58.682 59.0595C58.682 61.9755 59.132 63.1815 60.194 63.1815C60.914 63.1815 61.328 62.6415 61.562 61.4355L63.524 61.9395C63.11 64.2075 62.048 65.2155 60.176 65.2155ZM72.3526 64.9995H69.9046L66.8986 58.9515V64.9995H64.6846V53.1195H66.8986V58.4655L69.7426 53.1195H72.1906L69.2206 58.6995L72.3526 64.9995ZM78.4107 64.9995L78.0147 63.3435H75.0987L74.7207 64.9995H72.4707L75.9987 53.1195H77.1507L80.6607 64.9995H78.4107ZM76.5567 57.3135L75.5127 61.5615H77.6007L76.5567 57.3135ZM81.4541 64.9995V53.1195H83.6681V57.7275H86.5661V53.1195H88.7621V64.9995H86.5661V59.7435H83.6681V64.9995H81.4541ZM96.5222 53.1195H97.6742V64.9995H95.4782V58.4475L91.5362 64.9995H90.3662V53.1195H92.5982V59.5635L96.5222 53.1195ZM99.2783 64.9995V53.1195H102.464C104.93 53.1195 106.334 54.5055 106.334 56.9175C106.334 59.3475 104.912 60.7335 102.464 60.7335H101.492V64.9995H99.2783ZM101.492 58.7535H102.482C103.562 58.7535 104.102 58.1415 104.102 56.9355C104.102 55.6935 103.562 55.0995 102.482 55.0995H101.492V58.7535ZM112.066 53.1195H114.352L111.616 62.3355C110.986 64.4055 110.212 65.1615 108.682 65.1615C108.304 65.1615 107.962 65.1255 107.566 65.0175V63.1275C107.8 63.1455 107.98 63.1635 108.214 63.1635C108.826 63.1635 109.186 62.8935 109.456 62.1915L106.414 53.1195H108.772L110.5 58.8795L112.066 53.1195ZM118.243 53.1195H121.429V64.9995H119.215V60.9675H118.225L116.533 64.9995H114.229L116.173 60.4815C115.039 59.8335 114.373 58.6095 114.373 57.0435C114.373 54.5775 115.795 53.1195 118.243 53.1195ZM119.215 58.9695V55.0995H118.243C117.163 55.0995 116.605 55.7475 116.605 57.0435C116.605 58.3215 117.163 58.9695 118.243 58.9695H119.215ZM134.514 66.5835H134.838V68.3115C134.604 68.3835 134.352 68.4195 134.082 68.4195C132.498 68.4195 131.634 67.6815 130.518 65.1975C130.356 65.2155 130.212 65.2155 130.05 65.2155C127.476 65.2155 126.27 63.2355 126.27 59.0235C126.27 54.8655 127.476 52.9035 130.05 52.9035C132.66 52.9035 133.884 54.8475 133.884 59.0055C133.884 61.7055 133.362 63.5055 132.3 64.4415C133.146 66.2415 133.56 66.5835 134.514 66.5835ZM128.502 59.0235C128.502 62.0475 128.934 63.1815 130.05 63.1815C131.202 63.1815 131.652 62.0295 131.652 59.0595C131.652 56.0715 131.202 54.9375 130.05 54.9375C128.934 54.9375 128.502 56.0355 128.502 59.0235ZM142.734 64.9995H140.412L138.576 60.7335H138.306H137.334V64.9995H135.12V53.1195H138.306C140.772 53.1195 142.176 54.5055 142.176 56.9175C142.176 58.4475 141.618 59.5455 140.592 60.1755L142.734 64.9995ZM137.334 55.0995V58.7535H138.324C139.404 58.7535 139.944 58.1415 139.944 56.9355C139.944 55.6935 139.404 55.0995 138.324 55.0995H137.334ZM143.129 60.2115V58.3035H146.405V60.2115H143.129ZM155.374 64.9995H152.926L149.92 58.9515V64.9995H147.706V53.1195H149.92V58.4655L152.764 53.1195H155.212L152.242 58.6995L155.374 64.9995ZM159.089 65.2155C156.515 65.2155 155.309 63.2355 155.309 59.0235C155.309 54.8655 156.515 52.9035 159.089 52.9035C161.699 52.9035 162.923 54.8475 162.923 59.0055C162.923 63.1995 161.681 65.2155 159.089 65.2155ZM159.089 63.1815C160.241 63.1815 160.691 62.0295 160.691 59.0595C160.691 56.0715 160.241 54.9375 159.089 54.9375C157.973 54.9375 157.541 56.0355 157.541 59.0235C157.541 62.0475 157.973 63.1815 159.089 63.1815ZM171.473 62.9835H172.535V67.5375H170.321V64.9995H165.551V67.5375H163.355V62.9835H164.021C164.507 62.3355 164.705 60.6795 164.741 57.6195L164.813 53.1195H171.473V62.9835ZM166.829 57.6375C166.793 60.2115 166.595 61.8675 166.127 62.9835H169.277V55.1355H166.883L166.829 57.6375ZM177.202 64.9995V53.1195H179.416V57.7275H182.314V53.1195H184.51V64.9995H182.314V59.7435H179.416V64.9995H177.202ZM191.262 64.9995L190.866 63.3435H187.95L187.572 64.9995H185.322L188.85 53.1195H190.002L193.512 64.9995H191.262ZM189.408 57.3135L188.364 61.5615H190.452L189.408 57.3135ZM204.944 64.9995H202.496L199.49 58.9515V64.9995H197.276V53.1195H199.49V58.4655L202.334 53.1195H204.782L201.812 58.6995L204.944 64.9995ZM212.011 53.1195H213.163V64.9995H210.967V58.4475L207.025 64.9995H205.855V53.1195H208.087V59.5635L212.011 53.1195ZM218.205 65.2155C215.631 65.2155 214.425 63.2355 214.425 59.0235C214.425 54.8655 215.631 52.9035 218.205 52.9035C220.815 52.9035 222.039 54.8475 222.039 59.0055C222.039 63.1995 220.797 65.2155 218.205 65.2155ZM218.205 63.1815C219.357 63.1815 219.807 62.0295 219.807 59.0595C219.807 56.0715 219.357 54.9375 218.205 54.9375C217.089 54.9375 216.657 56.0355 216.657 59.0235C216.657 62.0475 217.089 63.1815 218.205 63.1815ZM226.658 65.2155C224.138 65.2155 222.932 63.1995 222.932 59.0595C222.932 54.9015 224.138 52.9035 226.658 52.9035C228.53 52.9035 229.592 53.9115 230.006 56.1795L228.044 56.6835C227.81 55.4775 227.396 54.9375 226.676 54.9375C225.614 54.9375 225.164 56.1435 225.164 59.0595C225.164 61.9755 225.614 63.1815 226.676 63.1815C227.396 63.1815 227.81 62.6415 228.044 61.4355L230.006 61.9395C229.592 64.2075 228.53 65.2155 226.658 65.2155ZM238.835 64.9995H236.387L233.381 58.9515V64.9995H231.167V53.1195H233.381V58.4655L236.225 53.1195H238.673L235.703 58.6995L238.835 64.9995ZM239.745 64.9995V53.1195H245.451V55.0995H241.959V57.7815H244.587V59.6895H241.959V63.0015H245.613V64.9995H239.745Z" fill="black"/>
    <path d="M62.84 76.1195H63.56V87.9995H62.264V79.5395L57.728 87.9995H56.99V76.1195H58.322V84.4895L62.84 76.1195ZM66.4505 76.1195H72.1565V87.9995H70.8605V77.3075H67.7105L67.6205 80.8355C67.4765 86.7215 67.0445 88.0535 65.2805 88.0535C65.0825 88.0535 64.9025 88.0355 64.7405 87.9995V86.8475C64.8485 86.8655 64.9385 86.8835 65.0465 86.8835C65.9825 86.8835 66.2345 85.7675 66.3425 80.8355L66.4505 76.1195ZM79.9963 76.1195H80.7163V87.9995H79.4203V79.5395L74.8843 87.9995H74.1463V76.1195H75.4783V84.4895L79.9963 76.1195ZM90.4863 81.6995C91.4943 82.1495 92.0703 83.2115 92.0703 84.7415C92.0703 86.9375 90.9183 88.1795 88.9023 88.1795C87.2283 88.1795 86.2023 87.2615 85.8063 85.4435L87.0123 85.1195C87.3183 86.4155 87.8763 87.0095 88.8843 87.0095C90.0903 87.0095 90.7563 86.1995 90.7563 84.6695C90.7563 83.1755 90.0723 82.3475 88.8303 82.3475H87.5523V81.1415H88.8303C89.9103 81.1415 90.5583 80.4395 90.5583 79.2155C90.5583 77.8835 89.9283 77.1095 88.8663 77.1095C87.9123 77.1095 87.3363 77.6855 87.0483 78.8915L85.8423 78.5135C86.3283 76.7495 87.2823 75.9215 88.8843 75.9215C90.7563 75.9215 91.8723 77.1275 91.8723 79.1435C91.8723 80.4035 91.3863 81.2855 90.4863 81.6995ZM98.8115 87.9995L98.1455 85.5695H94.6895L94.0415 87.9995H92.7095L96.0575 76.1195H96.7775L100.143 87.9995H98.8115ZM96.4175 79.0175L95.0135 84.3815H97.8215L96.4175 79.0175ZM101.392 87.9995V76.1195H102.706V87.9995H101.392ZM104.326 81.6095L107.872 87.9995H106.378L102.814 81.6095L106.252 76.1195H107.746L104.326 81.6095ZM114.632 87.9995L113.966 85.5695H110.51L109.862 87.9995H108.53L111.878 76.1195H112.598L115.964 87.9995H114.632ZM112.238 79.0175L110.834 84.3815H113.642L112.238 79.0175ZM121.266 81.6995C122.274 82.1495 122.85 83.2115 122.85 84.7415C122.85 86.9375 121.698 88.1795 119.682 88.1795C118.008 88.1795 116.982 87.2615 116.586 85.4435L117.792 85.1195C118.098 86.4155 118.656 87.0095 119.664 87.0095C120.87 87.0095 121.536 86.1995 121.536 84.6695C121.536 83.1755 120.852 82.3475 119.61 82.3475H118.332V81.1415H119.61C120.69 81.1415 121.338 80.4395 121.338 79.2155C121.338 77.8835 120.708 77.1095 119.646 77.1095C118.692 77.1095 118.116 77.6855 117.828 78.8915L116.622 78.5135C117.108 76.7495 118.062 75.9215 119.664 75.9215C121.536 75.9215 122.652 77.1275 122.652 79.1435C122.652 80.4035 122.166 81.2855 121.266 81.6995ZM124.332 87.9995V76.1195H125.646V80.8715H126.942C129.264 80.8715 130.56 82.1495 130.56 84.4535C130.56 86.7215 129.282 87.9995 126.942 87.9995H124.332ZM131.64 87.9995V76.1195H132.936V87.9995H131.64ZM125.646 86.8115H126.942C128.472 86.8115 129.228 86.0195 129.228 84.4355C129.228 82.8515 128.49 82.0775 126.942 82.0775H125.646V86.8115ZM139.287 81.6095C140.493 82.0775 141.195 83.1575 141.195 84.6335C141.195 86.6855 139.845 87.9995 137.739 87.9995H134.931V76.1195H137.361C139.431 76.1195 140.655 77.2355 140.655 79.1075C140.655 80.2775 140.169 81.1235 139.287 81.6095ZM137.307 77.3075H136.245V81.0695H137.325C138.711 81.0695 139.341 80.3675 139.341 79.1615C139.341 77.9555 138.675 77.3075 137.307 77.3075ZM137.577 86.8115C139.071 86.8115 139.881 85.9655 139.881 84.5615C139.881 83.1215 139.071 82.2755 137.595 82.2755H136.245V86.8115H137.577ZM147.907 87.9995L147.241 85.5695H143.785L143.137 87.9995H141.805L145.153 76.1195H145.873L149.239 87.9995H147.907ZM145.513 79.0175L144.109 84.3815H146.917L145.513 79.0175ZM153.818 74.8235C152.468 74.8235 151.694 73.9415 151.694 72.4475V71.6195H152.738V72.4475C152.738 73.2935 153.134 73.8155 153.818 73.8155C154.466 73.8155 154.862 73.3115 154.862 72.4475V71.6195H155.906V72.4475C155.906 73.9415 155.132 74.8235 153.818 74.8235ZM156.338 76.1195H157.058V87.9995H155.762V79.5395L151.226 87.9995H150.488V76.1195H151.82V84.4895L156.338 76.1195ZM167.008 81.6095C168.214 82.0775 168.916 83.1575 168.916 84.6335C168.916 86.6855 167.566 87.9995 165.46 87.9995H162.652V76.1195H165.082C167.152 76.1195 168.376 77.2355 168.376 79.1075C168.376 80.2775 167.89 81.1235 167.008 81.6095ZM165.028 77.3075H163.966V81.0695H165.046C166.432 81.0695 167.062 80.3675 167.062 79.1615C167.062 77.9555 166.396 77.3075 165.028 77.3075ZM165.298 86.8115C166.792 86.8115 167.602 85.9655 167.602 84.5615C167.602 83.1215 166.792 82.2755 165.316 82.2755H163.966V86.8115H165.298ZM173.972 87.9995V76.1195H180.434V87.9995H179.138V77.3075H175.268V87.9995H173.972ZM182.428 87.9995V76.1195H185.038C187.27 76.1195 188.53 77.3615 188.53 79.5395C188.53 81.7535 187.27 83.0135 185.038 83.0135H183.742V87.9995H182.428ZM183.742 81.8075H185.038C186.478 81.8075 187.198 81.0515 187.198 79.5575C187.198 78.0815 186.46 77.3075 185.038 77.3075H183.742V81.8075ZM195.801 76.1195H196.521V87.9995H195.225V79.5395L190.689 87.9995H189.951V76.1195H191.283V84.4895L195.801 76.1195ZM199.411 76.1195H205.117V87.9995H203.821V77.3075H200.671L200.581 80.8355C200.437 86.7215 200.005 88.0535 198.241 88.0535C198.043 88.0535 197.863 88.0355 197.701 87.9995V86.8475C197.809 86.8655 197.899 86.8835 198.007 86.8835C198.943 86.8835 199.195 85.7675 199.303 80.8355L199.411 76.1195ZM210.203 88.1975C207.827 88.1975 206.747 86.2715 206.747 82.0415C206.747 77.8295 207.827 75.9215 210.203 75.9215C212.579 75.9215 213.677 77.8295 213.677 82.0235C213.677 86.2535 212.579 88.1975 210.203 88.1975ZM210.203 87.0095C211.715 87.0095 212.363 85.5515 212.363 82.0415C212.363 78.6035 211.697 77.1095 210.203 77.1095C208.727 77.1095 208.079 78.5855 208.079 82.0415C208.079 85.5515 208.709 87.0095 210.203 87.0095ZM214.321 76.1195H215.815L219.073 81.6095L215.707 87.9995H214.213L217.633 81.6275L214.321 76.1195ZM219.181 87.9995V76.1195H220.477V87.9995H219.181ZM222.025 81.5735L225.463 87.9995H223.969L220.603 81.6095L223.843 76.1195H225.337L222.025 81.5735ZM226.847 87.9995V76.1195H232.085V77.2895H228.161V81.0335H231.185V82.2215H228.161V86.8295H232.211V87.9995H226.847ZM233.703 87.9995V76.1195H235.017V81.0335H238.977V76.1195H240.273V87.9995H238.977V82.2215H235.017V87.9995H233.703ZM248.113 76.1195H248.833V87.9995H247.537V79.5395L243.001 87.9995H242.263V76.1195H243.595V84.4895L248.113 76.1195ZM256.674 76.1195H257.394V87.9995H256.098V79.5395L251.562 87.9995H250.824V76.1195H252.156V84.4895L256.674 76.1195ZM262.988 87.9995V76.1195H264.302V87.9995H262.988ZM265.922 81.6095L269.468 87.9995H267.974L264.41 81.6095L267.848 76.1195H269.342L265.922 81.6095ZM270.845 87.9995V76.1195H275.957V77.2895H272.159V81.4835H275.273V82.6895H272.159V87.9995H270.845ZM280.356 88.1975C278.052 88.1975 276.954 86.2175 276.954 82.0415C276.954 77.8655 278.034 75.9215 280.356 75.9215C281.94 75.9215 282.876 76.8035 283.29 78.6755L282.084 78.9815C281.76 77.7035 281.22 77.1095 280.356 77.1095C278.934 77.1095 278.286 78.6755 278.286 82.0415C278.286 85.4435 278.934 87.0095 280.356 87.0095C281.22 87.0095 281.76 86.3975 282.084 85.1375L283.29 85.4435C282.876 87.3155 281.94 88.1975 280.356 88.1975ZM63.668 104.812H64.694V108.538H63.38V106H57.494V108.538H56.198V104.812H56.774C57.386 104.128 57.71 102.436 57.782 98.8355L57.872 94.1195H63.668V104.812ZM59.024 98.8535C58.934 102.04 58.7 103.786 58.16 104.812H62.354V95.3075H59.132L59.024 98.8535ZM68.9454 106.198C66.5694 106.198 65.4894 104.272 65.4894 100.042C65.4894 95.8295 66.5694 93.9215 68.9454 93.9215C71.3214 93.9215 72.4194 95.8295 72.4194 100.024C72.4194 104.254 71.3214 106.198 68.9454 106.198ZM68.9454 105.01C70.4574 105.01 71.1054 103.552 71.1054 100.042C71.1054 96.6035 70.4394 95.1095 68.9454 95.1095C67.4694 95.1095 66.8214 96.5855 66.8214 100.042C66.8214 103.552 67.4514 105.01 68.9454 105.01ZM77.0828 106.198C74.7788 106.198 73.6808 104.218 73.6808 100.042C73.6808 95.8655 74.7608 93.9215 77.0828 93.9215C78.6668 93.9215 79.6028 94.8035 80.0168 96.6755L78.8108 96.9815C78.4868 95.7035 77.9468 95.1095 77.0828 95.1095C75.6608 95.1095 75.0128 96.6755 75.0128 100.042C75.0128 103.444 75.6608 105.01 77.0828 105.01C77.9468 105.01 78.4868 104.398 78.8108 103.138L80.0168 103.444C79.6028 105.316 78.6668 106.198 77.0828 106.198ZM83.4375 106V95.3075H80.7735V94.1195H87.3975V95.3075H84.7515V106H83.4375ZM93.081 106L92.415 103.57H88.959L88.311 106H86.979L90.327 94.1195H91.047L94.413 106H93.081ZM90.687 97.0175L89.283 102.382H92.091L90.687 97.0175ZM100.018 99.6095C101.224 100.078 101.926 101.158 101.926 102.634C101.926 104.686 100.576 106 98.4699 106H95.6619V94.1195H98.0919C100.162 94.1195 101.386 95.2355 101.386 97.1075C101.386 98.2775 100.9 99.1235 100.018 99.6095ZM98.0379 95.3075H96.9759V99.0695H98.0559C99.4419 99.0695 100.072 98.3675 100.072 97.1615C100.072 95.9555 99.4059 95.3075 98.0379 95.3075ZM98.3079 104.812C99.8019 104.812 100.612 103.966 100.612 102.562C100.612 101.122 99.8019 100.276 98.3259 100.276H96.9759V104.812H98.3079ZM103.379 106V94.1195H104.693V106H103.379ZM106.313 99.6095L109.859 106H108.365L104.801 99.6095L108.239 94.1195H109.733L106.313 99.6095ZM116.114 94.1195H117.482L114.692 103.822C114.206 105.478 113.558 106.108 112.352 106.108C112.118 106.108 111.83 106.09 111.56 106.018V104.848C111.776 104.884 111.938 104.902 112.1 104.902C112.784 104.902 113.108 104.596 113.378 103.66L113.504 103.246L110.588 94.1195H111.956L114.134 101.302L116.114 94.1195ZM127.545 94.1195H128.265V106H126.969V97.5395L122.433 106H121.695V94.1195H123.027V102.49L127.545 94.1195ZM131.156 94.1195H136.862V106H135.566V95.3075H132.416L132.326 98.8355C132.182 104.722 131.75 106.054 129.986 106.054C129.788 106.054 129.608 106.036 129.446 106V104.848C129.554 104.866 129.644 104.884 129.752 104.884C130.688 104.884 130.94 103.768 131.048 98.8355L131.156 94.1195ZM144.701 94.1195H145.421V106H144.125V97.5395L139.589 106H138.851V94.1195H140.183V102.49L144.701 94.1195ZM154.057 106.198C151.753 106.198 150.655 104.218 150.655 100.042C150.655 95.8655 151.735 93.9215 154.057 93.9215C155.641 93.9215 156.577 94.8035 156.991 96.6755L155.785 96.9815C155.461 95.7035 154.921 95.1095 154.057 95.1095C152.635 95.1095 151.987 96.6755 151.987 100.042C151.987 103.444 152.635 105.01 154.057 105.01C154.921 105.01 155.461 104.398 155.785 103.138L156.991 103.444C156.577 105.316 155.641 106.198 154.057 106.198ZM163.868 106L163.202 103.57H159.746L159.098 106H157.766L161.114 94.1195H161.834L165.2 106H163.868ZM161.474 97.0175L160.07 102.382H162.878L161.474 97.0175ZM173.307 94.1195H174.009V106H172.713V98.0255L170.463 102.526H169.995L167.763 98.0435V106H166.449V94.1195H167.187L170.229 100.24L173.307 94.1195ZM179.107 106.198C176.731 106.198 175.651 104.272 175.651 100.042C175.651 95.8295 176.731 93.9215 179.107 93.9215C181.483 93.9215 182.581 95.8295 182.581 100.024C182.581 104.254 181.483 106.198 179.107 106.198ZM179.107 105.01C180.619 105.01 181.267 103.552 181.267 100.042C181.267 96.6035 180.601 95.1095 179.107 95.1095C177.631 95.1095 176.983 96.5855 176.983 100.042C176.983 103.552 177.613 105.01 179.107 105.01ZM188.559 99.6095C189.765 100.078 190.467 101.158 190.467 102.634C190.467 104.686 189.117 106 187.011 106H184.203V94.1195H186.633C188.703 94.1195 189.927 95.2355 189.927 97.1075C189.927 98.2775 189.441 99.1235 188.559 99.6095ZM186.579 95.3075H185.517V99.0695H186.597C187.983 99.0695 188.613 98.3675 188.613 97.1615C188.613 95.9555 187.947 95.3075 186.579 95.3075ZM186.849 104.812C188.343 104.812 189.153 103.966 189.153 102.562C189.153 101.122 188.343 100.276 186.867 100.276H185.517V104.812H186.849ZM191.92 106V94.1195H193.234V98.8715H194.53C196.852 98.8715 198.148 100.15 198.148 102.454C198.148 104.722 196.87 106 194.53 106H191.92ZM199.228 106V94.1195H200.524V106H199.228ZM193.234 104.812H194.53C196.06 104.812 196.816 104.02 196.816 102.436C196.816 100.852 196.078 100.078 194.53 100.078H193.234V104.812ZM206.875 99.6095C208.081 100.078 208.783 101.158 208.783 102.634C208.783 104.686 207.433 106 205.327 106H202.519V94.1195H204.949C207.019 94.1195 208.243 95.2355 208.243 97.1075C208.243 98.2775 207.757 99.1235 206.875 99.6095ZM204.895 95.3075H203.833V99.0695H204.913C206.299 99.0695 206.929 98.3675 206.929 97.1615C206.929 95.9555 206.263 95.3075 204.895 95.3075ZM205.165 104.812C206.659 104.812 207.469 103.966 207.469 102.562C207.469 101.122 206.659 100.276 205.183 100.276H203.833V104.812H205.165ZM213.332 106.198C210.956 106.198 209.876 104.272 209.876 100.042C209.876 95.8295 210.956 93.9215 213.332 93.9215C215.708 93.9215 216.806 95.8295 216.806 100.024C216.806 104.254 215.708 106.198 213.332 106.198ZM213.332 105.01C214.844 105.01 215.492 103.552 215.492 100.042C215.492 96.6035 214.826 95.1095 213.332 95.1095C211.856 95.1095 211.208 96.5855 211.208 100.042C211.208 103.552 211.838 105.01 213.332 105.01ZM222.27 99.6995C223.278 100.15 223.854 101.212 223.854 102.742C223.854 104.938 222.702 106.18 220.686 106.18C219.012 106.18 217.986 105.262 217.59 103.444L218.796 103.12C219.102 104.416 219.66 105.01 220.668 105.01C221.874 105.01 222.54 104.2 222.54 102.67C222.54 101.176 221.856 100.348 220.614 100.348H219.336V99.1415H220.614C221.694 99.1415 222.342 98.4395 222.342 97.2155C222.342 95.8835 221.712 95.1095 220.65 95.1095C219.696 95.1095 219.12 95.6855 218.832 96.8915L217.626 96.5135C218.112 94.7495 219.066 93.9215 220.668 93.9215C222.54 93.9215 223.656 95.1275 223.656 97.1435C223.656 98.4035 223.17 99.2855 222.27 99.6995Z" fill="black"/>
    <g filter="url(#filter0_d_2032_177239)">
        <path d="M19.2875 59.8995L25.8875 48.9995C33.9875 35.4995 36.6875 28.9995 36.6875 20.4995C36.6875 8.89951 29.6875 2.79951 20.0875 2.79951C9.4875 2.79951 3.2875 10.4995 3.2875 20.2995C3.2875 22.6995 3.3875 24.8995 3.7875 26.7995H15.1875C14.9875 24.1995 14.8875 22.7995 14.8875 21.0995C14.8875 15.8995 17.0875 13.6995 19.7875 13.6995C22.6875 13.6995 24.7875 15.7995 24.7875 21.5995C24.7875 29.1995 21.6875 34.5995 16.6875 42.6995L3.1875 64.8995V69.9995H37.5875V59.8995H19.2875Z" fill="#E4002B"/>
    </g>
    <defs>
        <filter id="filter0_d_2032_177239" x="3.1875" y="2.7995" width="36.4004" height="69.2" filterUnits="userSpaceOnUse" color-interpolation-filters="sRGB">
            <feFlood flood-opacity="0" result="BackgroundImageFix"/>
            <feColorMatrix in="SourceAlpha" type="matrix" values="0 0 0 0 0 0 0 0 0 0 0 0 0 0 0 0 0 0 127 0" result="hardAlpha"/>
            <feOffset dx="2" dy="2"/>
            <feComposite in2="hardAlpha" operator="out"/>
            <feColorMatrix type="matrix" values="0 0 0 0 0.960784 0 0 0 0 0.65098 0 0 0 0 0.137255 0 0 0 1 0"/>
            <feBlend mode="normal" in2="BackgroundImageFix" result="effect1_dropShadow_2032_177239"/>
            <feBlend mode="normal" in="SourceGraphic" in2="effect1_dropShadow_2032_177239" result="shape"/>
        </filter>
    </defs>
</svg>
