<svg width="304" height="145" viewBox="0 0 304 145" fill="none" xmlns="http://www.w3.org/2000/svg">
<path d="M300.705 74.6764C302.492 57.4944 289.436 42.3571 272.178 41.6021L40.8456 31.4808C22.8549 30.6937 8.2294 45.8224 9.62439 63.7761L13.6575 115.682C14.9229 131.968 28.9851 144.248 45.2928 143.309L269.59 130.387C284.276 129.541 296.182 118.171 297.704 103.54L300.705 74.6764Z" fill="white" stroke="#F5A623" stroke-linecap="round" stroke-dasharray="5 5"/>
<path d="M4.45582 73.7108C2.92515 57.4752 15.3045 43.268 31.5969 42.5624L253.213 32.9646C270.307 32.2244 284.195 46.6057 282.86 63.6627L279.108 111.579C277.927 126.663 265.165 138.195 250.038 137.847L35.3199 132.9C20.8709 132.567 8.95865 121.472 7.60208 107.083L4.45582 73.7108Z" stroke="#F5A623" stroke-width="3"/>
<path d="M66.104 76.263C63.024 76.263 61.55 73.799 61.55 68.739C61.55 63.657 63.024 61.215 66.104 61.215C68.392 61.215 69.69 62.447 70.196 65.219L67.798 65.835C67.512 64.361 67.006 63.701 66.126 63.701C64.828 63.701 64.278 65.175 64.278 68.739C64.278 72.303 64.828 73.777 66.126 73.777C67.006 73.777 67.512 73.117 67.798 71.643L70.196 72.259C69.69 75.031 68.392 76.263 66.104 76.263ZM80.9865 75.999H77.9945L74.3205 68.607V75.999H71.6145V61.479H74.3205V68.013L77.7965 61.479H80.7885L77.1585 68.299L80.9865 75.999ZM88.3909 75.999L87.9069 73.975H84.3429L83.8809 75.999H81.1309L85.4429 61.479H86.8509L91.1409 75.999H88.3909ZM86.1249 66.605L84.8489 71.797H87.4009L86.1249 66.605ZM96.8198 61.479H99.5038V75.999H96.8198V70.631C96.1378 70.851 95.4558 70.961 94.7738 70.961C92.2438 70.961 90.7478 69.377 90.7478 66.627V61.479H93.4318V66.429C93.4318 67.793 94.0258 68.475 95.2138 68.475C95.7638 68.475 96.2918 68.365 96.8198 68.145V61.479ZM107.748 75.999L107.264 73.975H103.7L103.238 75.999H100.488L104.8 61.479H106.208L110.498 75.999H107.748ZM105.482 66.605L104.206 71.797H106.758L105.482 66.605ZM116 59.939C114.13 59.939 113.03 58.839 113.03 56.947V55.979H115.054V56.947C115.054 57.607 115.406 58.003 116 58.003C116.55 58.003 116.902 57.629 116.902 56.947V55.979H118.926V56.947C118.926 58.839 117.848 59.939 116 59.939ZM118.992 61.479H120.4V75.999H117.716V67.991L112.898 75.999H111.468V61.479H114.196V69.355L118.992 61.479ZM126.765 75.999V61.479H135.543V75.999H132.837V63.943H129.449V75.999H126.765ZM137.486 75.999V61.479H141.38C144.394 61.479 146.11 63.173 146.11 66.121C146.11 69.091 144.372 70.785 141.38 70.785H140.192V75.999H137.486ZM140.192 68.365H141.402C142.722 68.365 143.382 67.617 143.382 66.143C143.382 64.625 142.722 63.899 141.402 63.899H140.192V68.365ZM155 61.479H156.408V75.999H153.724V67.991L148.906 75.999H147.476V61.479H150.204V69.355L155 61.479ZM159.336 61.479H167.344V75.999H164.638V63.943H161.888L161.822 67.001C161.69 74.173 161.294 76.109 158.368 76.109C158.038 76.109 157.752 76.065 157.488 76.021V73.711H157.84C158.918 73.711 159.138 72.677 159.248 66.979L159.336 61.479ZM173.484 76.263C170.338 76.263 168.864 73.843 168.864 68.695C168.864 63.613 170.338 61.215 173.484 61.215C176.674 61.215 178.17 63.591 178.17 68.673C178.17 73.799 176.652 76.263 173.484 76.263ZM173.484 73.777C174.892 73.777 175.442 72.369 175.442 68.739C175.442 65.087 174.892 63.701 173.484 63.701C172.12 63.701 171.592 65.043 171.592 68.695C171.592 72.391 172.12 73.777 173.484 73.777ZM193.82 75.999H190.828L187.396 68.629V75.999H184.69V68.629L181.236 75.999H178.266L181.918 68.321L178.442 61.479H181.434L184.69 67.991V61.479H187.396V67.991L190.652 61.479H193.622L190.168 68.277L193.82 75.999ZM194.956 75.999V61.479H201.93V63.899H197.662V67.177H200.874V69.509H197.662V73.557H202.128V75.999H194.956ZM203.743 75.999V61.479H206.449V67.111H209.991V61.479H212.675V75.999H209.991V69.575H206.449V75.999H203.743ZM222.16 61.479H223.568V75.999H220.884V67.991L216.066 75.999H214.636V61.479H217.364V69.355L222.16 61.479ZM225.529 75.999V61.479H232.503V63.899H228.235V67.177H231.447V69.509H228.235V73.557H232.701V75.999H225.529Z" fill="black"/>
<path d="M69.36 91.479H70.24V105.999H68.656V95.659L63.112 105.999H62.21V91.479H63.838V101.709L69.36 91.479ZM83.6552 105.999L82.8412 103.029H78.6172L77.8252 105.999H76.1972L80.2892 91.479H81.1692L85.2832 105.999H83.6552ZM80.7292 95.021L79.0132 101.577H82.4452L80.7292 95.021ZM92.1336 98.189C93.6076 98.761 94.4656 100.081 94.4656 101.885C94.4656 104.393 92.8156 105.999 90.2416 105.999H86.8096V91.479H89.7796C92.3096 91.479 93.8056 92.843 93.8056 95.131C93.8056 96.561 93.2116 97.595 92.1336 98.189ZM89.7136 92.931H88.4156V97.529H89.7356C91.4296 97.529 92.1996 96.671 92.1996 95.197C92.1996 93.723 91.3856 92.931 89.7136 92.931ZM90.0436 104.547C91.8696 104.547 92.8596 103.513 92.8596 101.797C92.8596 100.037 91.8696 99.003 90.0656 99.003H88.4156V104.547H90.0436ZM98.2085 105.999V92.931H94.9525V91.479H103.049V92.931H99.8145V105.999H98.2085ZM108.039 106.241C105.135 106.241 103.815 103.887 103.815 98.717C103.815 93.569 105.135 91.237 108.039 91.237C110.943 91.237 112.285 93.569 112.285 98.695C112.285 103.865 110.943 106.241 108.039 106.241ZM108.039 104.789C109.887 104.789 110.679 103.007 110.679 98.717C110.679 94.515 109.865 92.689 108.039 92.689C106.235 92.689 105.443 94.493 105.443 98.717C105.443 103.007 106.213 104.789 108.039 104.789ZM114.267 105.999V91.479H117.457C120.185 91.479 121.725 92.997 121.725 95.659C121.725 98.365 120.185 99.905 117.457 99.905H115.873V105.999H114.267ZM115.873 98.431H117.457C119.217 98.431 120.097 97.507 120.097 95.681C120.097 93.877 119.195 92.931 117.457 92.931H115.873V98.431ZM130.612 91.479H131.492V105.999H129.908V95.659L124.364 105.999H123.462V91.479H125.09V101.709L130.612 91.479ZM139.029 98.299C140.261 98.849 140.965 100.147 140.965 102.017C140.965 104.701 139.557 106.219 137.093 106.219C135.047 106.219 133.793 105.097 133.309 102.875L134.783 102.479C135.157 104.063 135.839 104.789 137.071 104.789C138.545 104.789 139.359 103.799 139.359 101.929C139.359 100.103 138.523 99.091 137.005 99.091H135.443V97.617H137.005C138.325 97.617 139.117 96.759 139.117 95.263C139.117 93.635 138.347 92.689 137.049 92.689C135.883 92.689 135.179 93.393 134.827 94.867L133.353 94.405C133.947 92.249 135.113 91.237 137.071 91.237C139.359 91.237 140.723 92.711 140.723 95.175C140.723 96.715 140.129 97.793 139.029 98.299ZM148.588 91.479H150.26L146.85 103.337C146.256 105.361 145.464 106.131 143.99 106.131C143.704 106.131 143.352 106.109 143.022 106.021V104.591C143.286 104.635 143.484 104.657 143.682 104.657C144.518 104.657 144.914 104.283 145.244 103.139L145.398 102.633L141.834 91.479H143.506L146.168 100.257L148.588 91.479ZM155.848 89.895C154.198 89.895 153.252 88.817 153.252 86.991V85.979H154.528V86.991C154.528 88.025 155.012 88.663 155.848 88.663C156.64 88.663 157.124 88.047 157.124 86.991V85.979H158.4V86.991C158.4 88.817 157.454 89.895 155.848 89.895ZM158.928 91.479H159.808V105.999H158.224V95.659L152.68 105.999H151.778V91.479H153.406V101.709L158.928 91.479ZM165.959 106.241C163.143 106.241 161.801 103.821 161.801 98.717C161.801 93.613 163.121 91.237 165.959 91.237C167.895 91.237 169.039 92.315 169.545 94.603L168.071 94.977C167.675 93.415 167.015 92.689 165.959 92.689C164.221 92.689 163.429 94.603 163.429 98.717C163.429 102.875 164.221 104.789 165.959 104.789C167.015 104.789 167.675 104.041 168.071 102.501L169.545 102.875C169.039 105.163 167.895 106.241 165.959 106.241ZM174.964 91.479H178.154V105.999H176.57V100.257H175.052H174.766L172.258 105.999H170.564L173.204 99.971C171.598 99.377 170.718 97.969 170.718 95.857C170.718 93.085 172.28 91.479 174.964 91.479ZM176.57 98.783V92.931H174.986C173.248 92.931 172.324 93.943 172.324 95.857C172.324 97.793 173.248 98.783 174.986 98.783H176.57ZM190.339 98.189C191.813 98.761 192.671 100.081 192.671 101.885C192.671 104.393 191.021 105.999 188.447 105.999H185.015V91.479H187.985C190.515 91.479 192.011 92.843 192.011 95.131C192.011 96.561 191.417 97.595 190.339 98.189ZM187.919 92.931H186.621V97.529H187.941C189.635 97.529 190.405 96.671 190.405 95.197C190.405 93.723 189.591 92.931 187.919 92.931ZM188.249 104.547C190.075 104.547 191.065 103.513 191.065 101.797C191.065 100.037 190.075 99.003 188.271 99.003H186.621V104.547H188.249ZM198.851 105.999V91.479H206.749V105.999H205.165V92.931H200.435V105.999H198.851ZM209.185 105.999V91.479H212.375C215.103 91.479 216.643 92.997 216.643 95.659C216.643 98.365 215.103 99.905 212.375 99.905H210.791V105.999H209.185ZM210.791 98.431H212.375C214.135 98.431 215.015 97.507 215.015 95.681C215.015 93.877 214.113 92.931 212.375 92.931H210.791V98.431ZM222.164 106.241C219.26 106.241 217.94 103.887 217.94 98.717C217.94 93.569 219.26 91.237 222.164 91.237C225.068 91.237 226.41 93.569 226.41 98.695C226.41 103.865 225.068 106.241 222.164 106.241ZM222.164 104.789C224.012 104.789 224.804 103.007 224.804 98.717C224.804 94.515 223.99 92.689 222.164 92.689C220.36 92.689 219.568 94.493 219.568 98.717C219.568 103.007 220.338 104.789 222.164 104.789ZM236.774 91.479H237.632V105.999H236.048V96.253L233.298 101.753H232.726L229.998 96.275V105.999H228.392V91.479H229.294L233.012 98.959L236.774 91.479ZM243.863 106.241C240.959 106.241 239.639 103.887 239.639 98.717C239.639 93.569 240.959 91.237 243.863 91.237C246.767 91.237 248.109 93.569 248.109 98.695C248.109 103.865 246.767 106.241 243.863 106.241ZM243.863 104.789C245.711 104.789 246.503 103.007 246.503 98.717C246.503 94.515 245.689 92.689 243.863 92.689C242.059 92.689 241.267 94.493 241.267 98.717C241.267 103.007 242.037 104.789 243.863 104.789Z" fill="black"/>
<g filter="url(#filter0_d_505_8207)">
<path d="M27.095 0.399019L1.335 12.879L6.775 29.519L18.295 23.919V105.999H37.175V0.399019H27.095Z" fill="#E4002B"/>
</g>
<defs>
<filter id="filter0_d_505_8207" x="1.33496" y="0.399414" width="37.8398" height="107.6" filterUnits="userSpaceOnUse" color-interpolation-filters="sRGB">
<feFlood flood-opacity="0" result="BackgroundImageFix"/>
<feColorMatrix in="SourceAlpha" type="matrix" values="0 0 0 0 0 0 0 0 0 0 0 0 0 0 0 0 0 0 127 0" result="hardAlpha"/>
<feOffset dx="2" dy="2"/>
<feComposite in2="hardAlpha" operator="out"/>
<feColorMatrix type="matrix" values="0 0 0 0 0.960784 0 0 0 0 0.65098 0 0 0 0 0.137255 0 0 0 1 0"/>
<feBlend mode="normal" in2="BackgroundImageFix" result="effect1_dropShadow_505_8207"/>
<feBlend mode="normal" in="SourceGraphic" in2="effect1_dropShadow_505_8207" result="shape"/>
</filter>
</defs>
</svg>
