<svg width="429" height="178" viewBox="0 0 429 178" fill="none" xmlns="http://www.w3.org/2000/svg">
    <path d="M13.9663 89.8553C14.1598 74.6427 25.71 61.9834 40.8413 60.3999L377.515 25.1654C394.152 23.4242 409 35.627 410.514 52.2867L418.912 144.668C420.529 162.458 406.338 177.711 388.478 177.379L42.7619 170.965C26.2644 170.659 13.1109 157.087 13.3208 140.588L13.9663 89.8553Z" fill="white" stroke="#F5A623" stroke-linecap="round" stroke-dasharray="5 5"/>
    <path d="M424.313 82.2484C425.921 65.7419 413.149 51.3544 396.569 50.993L45.1527 43.3332C26.6665 42.9303 12.6967 59.9653 16.7116 78.0148L31.9899 146.7C34.9366 159.947 46.8155 169.279 60.3838 169.006L391.228 162.343C405.676 162.052 417.619 150.994 419.02 136.611L424.313 82.2484Z" stroke="#F5A623" stroke-width="3"/>
    <path d="M84.17 80.264C81.024 80.264 79.55 77.844 79.55 72.696C79.55 67.614 81.024 65.216 84.17 65.216C87.36 65.216 88.856 67.592 88.856 72.674C88.856 77.8 87.338 80.264 84.17 80.264ZM84.17 77.778C85.578 77.778 86.128 76.37 86.128 72.74C86.128 69.088 85.578 67.702 84.17 67.702C82.806 67.702 82.278 69.044 82.278 72.696C82.278 76.392 82.806 77.778 84.17 77.778ZM101.674 72.762C101.674 76.238 100.024 78.328 97.1644 78.548V80.44H94.4584V78.548C91.5764 78.328 89.9484 76.238 89.9484 72.762C89.9484 69.11 91.5764 66.932 94.4584 66.712V65.04H97.1644V66.712C100.046 66.932 101.674 69.11 101.674 72.762ZM92.4564 72.718C92.4564 75.006 93.1164 76.062 94.5904 76.172V69.088C93.0944 69.198 92.4564 70.298 92.4564 72.718ZM97.0324 76.172C98.5064 76.062 99.1664 75.006 99.1664 72.718C99.1664 70.298 98.5284 69.198 97.0324 69.088V76.172ZM107.395 80.264C104.249 80.264 102.775 77.844 102.775 72.696C102.775 67.614 104.249 65.216 107.395 65.216C110.585 65.216 112.081 67.592 112.081 72.674C112.081 77.8 110.563 80.264 107.395 80.264ZM107.395 77.778C108.803 77.778 109.353 76.37 109.353 72.74C109.353 69.088 108.803 67.702 107.395 67.702C106.031 67.702 105.503 69.044 105.503 72.696C105.503 76.392 106.031 77.778 107.395 77.778ZM113.591 80V65.48H117.485C120.499 65.48 122.215 67.174 122.215 70.122C122.215 73.092 120.477 74.786 117.485 74.786H116.297V80H113.591ZM116.297 72.366H117.507C118.827 72.366 119.487 71.618 119.487 70.144C119.487 68.626 118.827 67.9 117.507 67.9H116.297V72.366ZM132.425 65.48H133.833V80H131.149V72.894L129.191 76.59H128.245L126.287 72.938V80H123.581V65.48H125.011L128.729 72.542L132.425 65.48ZM136.752 65.48H144.76V80H142.054V67.944H139.304L139.238 71.002C139.106 78.174 138.71 80.11 135.784 80.11C135.454 80.11 135.168 80.066 134.904 80.022V77.712H135.256C136.334 77.712 136.554 76.678 136.664 70.98L136.752 65.48ZM151.164 65.48H155.058V80H152.352V75.072H151.142L149.074 80H146.258L148.634 74.478C147.248 73.686 146.434 72.19 146.434 70.276C146.434 67.262 148.172 65.48 151.164 65.48ZM152.352 72.63V67.9H151.164C149.844 67.9 149.162 68.692 149.162 70.276C149.162 71.838 149.844 72.63 151.164 72.63H152.352ZM161.521 63.94C159.651 63.94 158.551 62.84 158.551 60.948V59.98H160.575V60.948C160.575 61.608 160.927 62.004 161.521 62.004C162.071 62.004 162.423 61.63 162.423 60.948V59.98H164.447V60.948C164.447 62.84 163.369 63.94 161.521 63.94ZM164.513 65.48H165.921V80H163.237V71.992L158.419 80H156.989V65.48H159.717V73.356L164.513 65.48ZM178.358 72.498C179.546 73.07 180.162 74.214 180.162 75.974C180.162 78.724 178.666 80.242 175.982 80.242C173.606 80.242 172.22 79.054 171.736 76.612L174.09 75.886C174.376 77.184 174.948 77.778 175.916 77.778C176.994 77.778 177.566 77.096 177.566 75.754C177.566 74.434 176.906 73.664 175.762 73.664H174.42V71.442H175.762C176.862 71.442 177.456 70.782 177.456 69.594C177.456 68.362 176.928 67.702 175.96 67.702C175.014 67.702 174.464 68.274 174.178 69.55L171.846 68.802C172.374 66.382 173.694 65.216 176.004 65.216C178.6 65.216 180.052 66.712 180.052 69.33C180.052 70.914 179.502 71.97 178.358 72.498ZM187.709 80L187.225 77.976H183.661L183.199 80H180.449L184.761 65.48H186.169L190.459 80H187.709ZM185.443 70.606L184.167 75.798H186.719L185.443 70.606ZM200.801 80H197.809L194.135 72.608V80H191.429V65.48H194.135V72.014L197.611 65.48H200.603L196.973 72.3L200.801 80ZM208.205 80L207.721 77.976H204.157L203.695 80H200.945L205.257 65.48H206.665L210.955 80H208.205ZM205.939 70.606L204.663 75.798H207.215L205.939 70.606ZM217.847 72.498C219.035 73.07 219.651 74.214 219.651 75.974C219.651 78.724 218.155 80.242 215.471 80.242C213.095 80.242 211.709 79.054 211.225 76.612L213.579 75.886C213.865 77.184 214.437 77.778 215.405 77.778C216.483 77.778 217.055 77.096 217.055 75.754C217.055 74.434 216.395 73.664 215.251 73.664H213.909V71.442H215.251C216.351 71.442 216.945 70.782 216.945 69.594C216.945 68.362 216.417 67.702 215.449 67.702C214.503 67.702 213.953 68.274 213.667 69.55L211.335 68.802C211.863 66.382 213.183 65.216 215.493 65.216C218.089 65.216 219.541 66.712 219.541 69.33C219.541 70.914 218.991 71.97 217.847 72.498ZM229.662 80.264C226.516 80.264 225.042 77.844 225.042 72.696C225.042 67.614 226.516 65.216 229.662 65.216C232.852 65.216 234.348 67.592 234.348 72.674C234.348 77.8 232.83 80.264 229.662 80.264ZM229.662 77.778C231.07 77.778 231.62 76.37 231.62 72.74C231.62 69.088 231.07 67.702 229.662 67.702C228.298 67.702 227.77 69.044 227.77 72.696C227.77 76.392 228.298 77.778 229.662 77.778ZM237.866 80V67.944H234.896V65.48H243.542V67.944H240.572V80H237.866ZM256.458 75.16V77.47H255.402V80H252.806V77.47H247.68V76.15L250.408 65.48H252.982L250.54 75.16H252.806V70.694H255.402V75.16H256.458ZM261.561 80.264C258.679 80.264 257.403 77.954 257.403 72.74C257.403 67.526 258.679 65.216 261.561 65.216C264.421 65.216 265.697 67.526 265.697 72.74C265.697 77.954 264.421 80.264 261.561 80.264ZM261.561 77.822C262.683 77.822 263.057 76.612 263.057 72.762C263.057 68.89 262.683 67.658 261.561 67.658C260.417 67.658 260.043 68.89 260.043 72.762C260.043 76.612 260.417 77.822 261.561 77.822ZM271.444 80.264C268.562 80.264 267.286 77.954 267.286 72.74C267.286 67.526 268.562 65.216 271.444 65.216C274.304 65.216 275.58 67.526 275.58 72.74C275.58 77.954 274.304 80.264 271.444 80.264ZM271.444 77.822C272.566 77.822 272.94 76.612 272.94 72.762C272.94 68.89 272.566 67.658 271.444 67.658C270.3 67.658 269.926 68.89 269.926 72.762C269.926 76.612 270.3 77.822 271.444 77.822ZM277.719 80V77.558H276.465V75.446H277.719V73.862H276.465V71.662H277.719V65.48H281.195C283.813 65.48 285.287 66.976 285.287 69.638C285.287 72.366 283.791 73.862 281.195 73.862H280.293V75.446H284.055V77.558H280.293V80H277.719ZM280.293 71.662H280.997C282.141 71.662 282.647 71.046 282.647 69.66C282.647 68.296 282.141 67.68 280.997 67.68H280.293V71.662ZM286.535 83.916L286.623 77.536H289.549L288.647 83.916H286.535ZM84.104 102.264C81.024 102.264 79.55 99.8 79.55 94.74C79.55 89.658 81.024 87.216 84.104 87.216C86.392 87.216 87.69 88.448 88.196 91.22L85.798 91.836C85.512 90.362 85.006 89.702 84.126 89.702C82.828 89.702 82.278 91.176 82.278 94.74C82.278 98.304 82.828 99.778 84.126 99.778C85.006 99.778 85.512 99.118 85.798 97.644L88.196 98.26C87.69 101.032 86.392 102.264 84.104 102.264ZM98.9865 102H95.9945L92.3205 94.608V102H89.6145V87.48H92.3205V94.014L95.7965 87.48H98.7885L95.1585 94.3L98.9865 102ZM106.391 102L105.907 99.976H102.343L101.881 102H99.1309L103.443 87.48H104.851L109.141 102H106.391ZM104.125 92.606L102.849 97.798H105.401L104.125 92.606ZM110.111 102V87.48H112.817V93.112H116.359V87.48H119.043V102H116.359V95.576H112.817V102H110.111ZM128.527 87.48H129.935V102H127.251V93.992L122.433 102H121.003V87.48H123.731V95.356L128.527 87.48ZM131.896 102V87.48H135.79C138.804 87.48 140.52 89.174 140.52 92.122C140.52 95.092 138.782 96.786 135.79 96.786H134.602V102H131.896ZM134.602 94.366H135.812C137.132 94.366 137.792 93.618 137.792 92.144C137.792 90.626 137.132 89.9 135.812 89.9H134.602V94.366ZM147.525 87.48H150.319L146.975 98.744C146.205 101.274 145.259 102.198 143.389 102.198C142.927 102.198 142.509 102.154 142.025 102.022V99.712C142.311 99.734 142.531 99.756 142.817 99.756C143.565 99.756 144.005 99.426 144.335 98.568L140.617 87.48H143.499L145.611 94.52L147.525 87.48ZM155.075 87.48H158.969V102H156.263V97.072H155.053L152.985 102H150.169L152.545 96.478C151.159 95.686 150.345 94.19 150.345 92.276C150.345 89.262 152.083 87.48 155.075 87.48ZM156.263 94.63V89.9H155.075C153.755 89.9 153.073 90.692 153.073 92.276C153.073 93.838 153.755 94.63 155.075 94.63H156.263ZM174.962 103.936H175.358V106.048C175.072 106.136 174.764 106.18 174.434 106.18C172.498 106.18 171.442 105.278 170.078 102.242C169.88 102.264 169.704 102.264 169.506 102.264C166.36 102.264 164.886 99.844 164.886 94.696C164.886 89.614 166.36 87.216 169.506 87.216C172.696 87.216 174.192 89.592 174.192 94.674C174.192 97.974 173.554 100.174 172.256 101.318C173.29 103.518 173.796 103.936 174.962 103.936ZM167.614 94.696C167.614 98.392 168.142 99.778 169.506 99.778C170.914 99.778 171.464 98.37 171.464 94.74C171.464 91.088 170.914 89.702 169.506 89.702C168.142 89.702 167.614 91.044 167.614 94.696ZM185.008 102H182.17L179.926 96.786H179.596H178.408V102H175.702V87.48H179.596C182.61 87.48 184.326 89.174 184.326 92.122C184.326 93.992 183.644 95.334 182.39 96.104L185.008 102ZM178.408 89.9V94.366H179.618C180.938 94.366 181.598 93.618 181.598 92.144C181.598 90.626 180.938 89.9 179.618 89.9H178.408ZM185.491 96.148V93.816H189.495V96.148H185.491ZM200.457 102H197.465L193.791 94.608V102H191.085V87.48H193.791V94.014L197.267 87.48H200.259L196.629 94.3L200.457 102ZM204.998 102.264C201.852 102.264 200.378 99.844 200.378 94.696C200.378 89.614 201.852 87.216 204.998 87.216C208.188 87.216 209.684 89.592 209.684 94.674C209.684 99.8 208.166 102.264 204.998 102.264ZM204.998 99.778C206.406 99.778 206.956 98.37 206.956 94.74C206.956 91.088 206.406 89.702 204.998 89.702C203.634 89.702 203.106 91.044 203.106 94.696C203.106 98.392 203.634 99.778 204.998 99.778ZM220.133 99.536H221.431V105.102H218.725V102H212.895V105.102H210.211V99.536H211.025C211.619 98.744 211.861 96.72 211.905 92.98L211.993 87.48H220.133V99.536ZM214.457 93.002C214.413 96.148 214.171 98.172 213.599 99.536H217.449V89.944H214.523L214.457 93.002ZM227.136 102V87.48H229.842V93.112H233.384V87.48H236.068V102H233.384V95.576H229.842V102H227.136ZM244.321 102L243.837 99.976H240.273L239.811 102H237.061L241.373 87.48H242.781L247.071 102H244.321ZM242.055 92.606L240.779 97.798H243.331L242.055 92.606ZM261.043 102H258.051L254.377 94.608V102H251.671V87.48H254.377V94.014L257.853 87.48H260.845L257.215 94.3L261.043 102ZM269.68 87.48H271.088V102H268.404V93.992L263.586 102H262.156V87.48H264.884V95.356L269.68 87.48ZM277.25 102.264C274.104 102.264 272.63 99.844 272.63 94.696C272.63 89.614 274.104 87.216 277.25 87.216C280.44 87.216 281.936 89.592 281.936 94.674C281.936 99.8 280.418 102.264 277.25 102.264ZM277.25 99.778C278.658 99.778 279.208 98.37 279.208 94.74C279.208 91.088 278.658 89.702 277.25 89.702C275.886 89.702 275.358 91.044 275.358 94.696C275.358 98.392 275.886 99.778 277.25 99.778ZM287.583 102.264C284.503 102.264 283.029 99.8 283.029 94.74C283.029 89.658 284.503 87.216 287.583 87.216C289.871 87.216 291.169 88.448 291.675 91.22L289.277 91.836C288.991 90.362 288.485 89.702 287.605 89.702C286.307 89.702 285.757 91.176 285.757 94.74C285.757 98.304 286.307 99.778 287.605 99.778C288.485 99.778 288.991 99.118 289.277 97.644L291.675 98.26C291.169 101.032 289.871 102.264 287.583 102.264ZM302.465 102H299.473L295.799 94.608V102H293.093V87.48H295.799V94.014L299.275 87.48H302.267L298.637 94.3L302.465 102ZM303.577 102V87.48H310.551V89.9H306.283V93.178H309.495V95.51H306.283V99.558H310.749V102H303.577Z" fill="black"/>
    <path d="M87.36 114.48H88.24V129H86.656V118.66L81.112 129H80.21V114.48H81.838V124.71L87.36 114.48ZM91.7729 114.48H98.7469V129H97.1629V115.932H93.3129L93.2029 120.244C93.0269 127.438 92.4989 129.066 90.3429 129.066C90.1009 129.066 89.8809 129.044 89.6829 129V127.592C89.8149 127.614 89.9249 127.636 90.0569 127.636C91.2009 127.636 91.5089 126.272 91.6409 120.244L91.7729 114.48ZM108.329 114.48H109.209V129H107.625V118.66L102.081 129H101.179V114.48H102.807V124.71L108.329 114.48ZM121.15 121.3C122.382 121.85 123.086 123.148 123.086 125.018C123.086 127.702 121.678 129.22 119.214 129.22C117.168 129.22 115.914 128.098 115.43 125.876L116.904 125.48C117.278 127.064 117.96 127.79 119.192 127.79C120.666 127.79 121.48 126.8 121.48 124.93C121.48 123.104 120.644 122.092 119.126 122.092H117.564V120.618H119.126C120.446 120.618 121.238 119.76 121.238 118.264C121.238 116.636 120.468 115.69 119.17 115.69C118.004 115.69 117.3 116.394 116.948 117.868L115.474 117.406C116.068 115.25 117.234 114.238 119.192 114.238C121.48 114.238 122.844 115.712 122.844 118.176C122.844 119.716 122.25 120.794 121.15 121.3ZM131.325 129L130.511 126.03H126.287L125.495 129H123.867L127.959 114.48H128.839L132.953 129H131.325ZM128.399 118.022L126.683 124.578H130.115L128.399 118.022ZM134.48 129V114.48H136.086V129H134.48ZM138.066 121.19L142.4 129H140.574L136.218 121.19L140.42 114.48H142.246L138.066 121.19ZM150.661 129L149.847 126.03H145.623L144.831 129H143.203L147.295 114.48H148.175L152.289 129H150.661ZM147.735 118.022L146.019 124.578H149.451L147.735 118.022ZM158.769 121.3C160.001 121.85 160.705 123.148 160.705 125.018C160.705 127.702 159.297 129.22 156.833 129.22C154.787 129.22 153.533 128.098 153.049 125.876L154.523 125.48C154.897 127.064 155.579 127.79 156.811 127.79C158.285 127.79 159.099 126.8 159.099 124.93C159.099 123.104 158.263 122.092 156.745 122.092H155.183V120.618H156.745C158.065 120.618 158.857 119.76 158.857 118.264C158.857 116.636 158.087 115.69 156.789 115.69C155.623 115.69 154.919 116.394 154.567 117.868L153.093 117.406C153.687 115.25 154.853 114.238 156.811 114.238C159.099 114.238 160.463 115.712 160.463 118.176C160.463 119.716 159.869 120.794 158.769 121.3ZM162.517 129V114.48H164.123V120.288H165.707C168.545 120.288 170.129 121.85 170.129 124.666C170.129 127.438 168.567 129 165.707 129H162.517ZM171.449 129V114.48H173.033V129H171.449ZM164.123 127.548H165.707C167.577 127.548 168.501 126.58 168.501 124.644C168.501 122.708 167.599 121.762 165.707 121.762H164.123V127.548ZM180.796 121.19C182.27 121.762 183.128 123.082 183.128 124.886C183.128 127.394 181.478 129 178.904 129H175.472V114.48H178.442C180.972 114.48 182.468 115.844 182.468 118.132C182.468 119.562 181.874 120.596 180.796 121.19ZM178.376 115.932H177.078V120.53H178.398C180.092 120.53 180.862 119.672 180.862 118.198C180.862 116.724 180.048 115.932 178.376 115.932ZM178.706 127.548C180.532 127.548 181.522 126.514 181.522 124.798C181.522 123.038 180.532 122.004 178.728 122.004H177.078V127.548H178.706ZM191.331 129L190.517 126.03H186.293L185.501 129H183.873L187.965 114.48H188.845L192.959 129H191.331ZM188.405 118.022L186.689 124.578H190.121L188.405 118.022ZM198.555 112.896C196.905 112.896 195.959 111.818 195.959 109.992V108.98H197.235V109.992C197.235 111.026 197.719 111.664 198.555 111.664C199.347 111.664 199.831 111.048 199.831 109.992V108.98H201.107V109.992C201.107 111.818 200.161 112.896 198.555 112.896ZM201.635 114.48H202.515V129H200.931V118.66L195.387 129H194.485V114.48H196.113V124.71L201.635 114.48ZM214.677 121.19C216.151 121.762 217.009 123.082 217.009 124.886C217.009 127.394 215.359 129 212.785 129H209.353V114.48H212.323C214.853 114.48 216.349 115.844 216.349 118.132C216.349 119.562 215.755 120.596 214.677 121.19ZM212.257 115.932H210.959V120.53H212.279C213.973 120.53 214.743 119.672 214.743 118.198C214.743 116.724 213.929 115.932 212.257 115.932ZM212.587 127.548C214.413 127.548 215.403 126.514 215.403 124.798C215.403 123.038 214.413 122.004 212.609 122.004H210.959V127.548H212.587ZM223.189 129V114.48H231.087V129H229.503V115.932H224.773V129H223.189ZM233.523 129V114.48H236.713C239.441 114.48 240.981 115.998 240.981 118.66C240.981 121.366 239.441 122.906 236.713 122.906H235.129V129H233.523ZM235.129 121.432H236.713C238.473 121.432 239.353 120.508 239.353 118.682C239.353 116.878 238.451 115.932 236.713 115.932H235.129V121.432ZM249.868 114.48H250.748V129H249.164V118.66L243.62 129H242.718V114.48H244.346V124.71L249.868 114.48ZM254.281 114.48H261.255V129H259.671V115.932H255.821L255.711 120.244C255.535 127.438 255.007 129.066 252.851 129.066C252.609 129.066 252.389 129.044 252.191 129V127.592C252.323 127.614 252.433 127.636 252.565 127.636C253.709 127.636 254.017 126.272 254.149 120.244L254.281 114.48ZM267.471 129.242C264.567 129.242 263.247 126.888 263.247 121.718C263.247 116.57 264.567 114.238 267.471 114.238C270.375 114.238 271.717 116.57 271.717 121.696C271.717 126.866 270.375 129.242 267.471 129.242ZM267.471 127.79C269.319 127.79 270.111 126.008 270.111 121.718C270.111 117.516 269.297 115.69 267.471 115.69C265.667 115.69 264.875 117.494 264.875 121.718C264.875 126.008 265.645 127.79 267.471 127.79ZM272.503 114.48H274.329L278.311 121.19L274.197 129H272.371L276.551 121.212L272.503 114.48ZM278.443 129V114.48H280.027V129H278.443ZM281.919 121.146L286.121 129H284.295L280.181 121.19L284.141 114.48H285.967L281.919 121.146ZM287.814 129V114.48H294.216V115.91H289.42V120.486H293.116V121.938H289.42V127.57H294.37V129H287.814ZM296.192 129V114.48H297.798V120.486H302.638V114.48H304.222V129H302.638V121.938H297.798V129H296.192ZM313.805 114.48H314.685V129H313.101V118.66L307.557 129H306.655V114.48H308.283V124.71L313.805 114.48ZM324.268 114.48H325.148V129H323.564V118.66L318.02 129H317.118V114.48H318.746V124.71L324.268 114.48ZM80.21 153V138.48H81.816V153H80.21ZM83.796 145.19L88.13 153H86.304L81.948 145.19L86.15 138.48H87.976L83.796 145.19ZM89.8135 153V138.48H96.0615V139.91H91.4195V145.036H95.2255V146.51H91.4195V153H89.8135ZM101.438 153.242C98.6218 153.242 97.2798 150.822 97.2798 145.718C97.2798 140.614 98.5998 138.238 101.438 138.238C103.374 138.238 104.518 139.316 105.024 141.604L103.55 141.978C103.154 140.416 102.494 139.69 101.438 139.69C99.6998 139.69 98.9078 141.604 98.9078 145.718C98.9078 149.876 99.6998 151.79 101.438 151.79C102.494 151.79 103.154 151.042 103.55 149.502L105.024 149.876C104.518 152.164 103.374 153.242 101.438 153.242ZM119.417 151.548H120.671V156.102H119.065V153H111.871V156.102H110.287V151.548H110.991C111.739 150.712 112.135 148.644 112.223 144.244L112.333 138.48H119.417V151.548ZM113.741 144.266C113.631 148.16 113.345 150.294 112.685 151.548H117.811V139.932H113.873L113.741 144.266ZM125.867 153.242C122.963 153.242 121.643 150.888 121.643 145.718C121.643 140.57 122.963 138.238 125.867 138.238C128.771 138.238 130.113 140.57 130.113 145.696C130.113 150.866 128.771 153.242 125.867 153.242ZM125.867 151.79C127.715 151.79 128.507 150.008 128.507 145.718C128.507 141.516 127.693 139.69 125.867 139.69C124.063 139.69 123.271 141.494 123.271 145.718C123.271 150.008 124.041 151.79 125.867 151.79ZM135.813 153.242C132.997 153.242 131.655 150.822 131.655 145.718C131.655 140.614 132.975 138.238 135.813 138.238C137.749 138.238 138.893 139.316 139.399 141.604L137.925 141.978C137.529 140.416 136.869 139.69 135.813 139.69C134.075 139.69 133.283 141.604 133.283 145.718C133.283 149.876 134.075 151.79 135.813 151.79C136.869 151.79 137.529 151.042 137.925 149.502L139.399 149.876C138.893 152.164 137.749 153.242 135.813 153.242ZM143.58 153V139.932H140.324V138.48H148.42V139.932H145.186V153H143.58ZM155.366 153L154.552 150.03H150.328L149.536 153H147.908L152 138.48H152.88L156.994 153H155.366ZM152.44 142.022L150.724 148.578H154.156L152.44 142.022ZM163.845 145.19C165.319 145.762 166.177 147.082 166.177 148.886C166.177 151.394 164.527 153 161.953 153H158.521V138.48H161.491C164.021 138.48 165.517 139.844 165.517 142.132C165.517 143.562 164.923 144.596 163.845 145.19ZM161.425 139.932H160.127V144.53H161.447C163.141 144.53 163.911 143.672 163.911 142.198C163.911 140.724 163.097 139.932 161.425 139.932ZM161.755 151.548C163.581 151.548 164.571 150.514 164.571 148.798C164.571 147.038 163.581 146.004 161.777 146.004H160.127V151.548H161.755ZM167.952 153V138.48H169.558V153H167.952ZM171.538 145.19L175.872 153H174.046L169.69 145.19L173.892 138.48H175.718L171.538 145.19ZM183.518 138.48H185.19L181.78 150.338C181.186 152.362 180.394 153.132 178.92 153.132C178.634 153.132 178.282 153.11 177.952 153.022V151.592C178.216 151.636 178.414 151.658 178.612 151.658C179.448 151.658 179.844 151.284 180.174 150.14L180.328 149.634L176.764 138.48H178.436L181.098 147.258L183.518 138.48ZM197.489 138.48H198.369V153H196.785V142.66L191.241 153H190.339V138.48H191.967V148.71L197.489 138.48ZM201.902 138.48H208.876V153H207.292V139.932H203.442L203.332 144.244C203.156 151.438 202.628 153.066 200.472 153.066C200.23 153.066 200.01 153.044 199.812 153V151.592C199.944 151.614 200.054 151.636 200.186 151.636C201.33 151.636 201.638 150.272 201.77 144.244L201.902 138.48ZM218.458 138.48H219.338V153H217.754V142.66L212.21 153H211.308V138.48H212.936V148.71L218.458 138.48ZM229.893 153.242C227.077 153.242 225.735 150.822 225.735 145.718C225.735 140.614 227.055 138.238 229.893 138.238C231.829 138.238 232.973 139.316 233.479 141.604L232.005 141.978C231.609 140.416 230.949 139.69 229.893 139.69C228.155 139.69 227.363 141.604 227.363 145.718C227.363 149.876 228.155 151.79 229.893 151.79C230.949 151.79 231.609 151.042 232.005 149.502L233.479 149.876C232.973 152.164 231.829 153.242 229.893 153.242ZM241.884 153L241.07 150.03H236.846L236.054 153H234.426L238.518 138.48H239.398L243.512 153H241.884ZM238.958 142.022L237.242 148.578H240.674L238.958 142.022ZM253.42 138.48H254.278V153H252.694V143.254L249.944 148.754H249.372L246.644 143.276V153H245.038V138.48H245.94L249.658 145.96L253.42 138.48ZM260.51 153.242C257.606 153.242 256.286 150.888 256.286 145.718C256.286 140.57 257.606 138.238 260.51 138.238C263.414 138.238 264.756 140.57 264.756 145.696C264.756 150.866 263.414 153.242 260.51 153.242ZM260.51 151.79C262.358 151.79 263.15 150.008 263.15 145.718C263.15 141.516 262.336 139.69 260.51 139.69C258.706 139.69 257.914 141.494 257.914 145.718C257.914 150.008 258.684 151.79 260.51 151.79ZM272.061 145.19C273.535 145.762 274.393 147.082 274.393 148.886C274.393 151.394 272.743 153 270.169 153H266.737V138.48H269.707C272.237 138.48 273.733 139.844 273.733 142.132C273.733 143.562 273.139 144.596 272.061 145.19ZM269.641 139.932H268.343V144.53H269.663C271.357 144.53 272.127 143.672 272.127 142.198C272.127 140.724 271.313 139.932 269.641 139.932ZM269.971 151.548C271.797 151.548 272.787 150.514 272.787 148.798C272.787 147.038 271.797 146.004 269.993 146.004H268.343V151.548H269.971ZM276.169 153V138.48H277.775V144.288H279.359C282.197 144.288 283.781 145.85 283.781 148.666C283.781 151.438 282.219 153 279.359 153H276.169ZM285.101 153V138.48H286.685V153H285.101ZM277.775 151.548H279.359C281.229 151.548 282.153 150.58 282.153 148.644C282.153 146.708 281.251 145.762 279.359 145.762H277.775V151.548ZM294.448 145.19C295.922 145.762 296.78 147.082 296.78 148.886C296.78 151.394 295.13 153 292.556 153H289.124V138.48H292.094C294.624 138.48 296.12 139.844 296.12 142.132C296.12 143.562 295.526 144.596 294.448 145.19ZM292.028 139.932H290.73V144.53H292.05C293.744 144.53 294.514 143.672 294.514 142.198C294.514 140.724 293.7 139.932 292.028 139.932ZM292.358 151.548C294.184 151.548 295.174 150.514 295.174 148.798C295.174 147.038 294.184 146.004 292.38 146.004H290.73V151.548H292.358ZM302.34 153.242C299.436 153.242 298.116 150.888 298.116 145.718C298.116 140.57 299.436 138.238 302.34 138.238C305.244 138.238 306.586 140.57 306.586 145.696C306.586 150.866 305.244 153.242 302.34 153.242ZM302.34 151.79C304.188 151.79 304.98 150.008 304.98 145.718C304.98 141.516 304.166 139.69 302.34 139.69C300.536 139.69 299.744 141.494 299.744 145.718C299.744 150.008 300.514 151.79 302.34 151.79ZM313.263 145.3C314.495 145.85 315.199 147.148 315.199 149.018C315.199 151.702 313.791 153.22 311.327 153.22C309.281 153.22 308.027 152.098 307.543 149.876L309.017 149.48C309.391 151.064 310.073 151.79 311.305 151.79C312.779 151.79 313.593 150.8 313.593 148.93C313.593 147.104 312.757 146.092 311.239 146.092H309.677V144.618H311.239C312.559 144.618 313.351 143.76 313.351 142.264C313.351 140.636 312.581 139.69 311.283 139.69C310.117 139.69 309.413 140.394 309.061 141.868L307.587 141.406C308.181 139.25 309.347 138.238 311.305 138.238C313.593 138.238 314.957 139.712 314.957 142.176C314.957 143.716 314.363 144.794 313.263 145.3Z" fill="black"/>
    <g filter="url(#filter0_d_2706_23389)">
        <path d="M30.56 91.84L41.12 74.4C54.08 52.8 58.4 42.4 58.4 28.8C58.4 10.24 47.2 0.479992 31.84 0.479992C14.88 0.479992 4.96 12.8 4.96 28.48C4.96 32.32 5.12 35.84 5.76 38.88H24C23.68 34.72 23.52 32.48 23.52 29.76C23.52 21.44 27.04 17.92 31.36 17.92C36 17.92 39.36 21.28 39.36 30.56C39.36 42.72 34.4 51.36 26.4 64.32L4.8 99.84V108H59.84V91.84H30.56Z" fill="#E4002B"/>
    </g>
    <defs>
        <filter id="filter0_d_2706_23389" x="4.7998" y="0.480469" width="57.04" height="109.52" filterUnits="userSpaceOnUse" color-interpolation-filters="sRGB">
            <feFlood flood-opacity="0" result="BackgroundImageFix"/>
            <feColorMatrix in="SourceAlpha" type="matrix" values="0 0 0 0 0 0 0 0 0 0 0 0 0 0 0 0 0 0 127 0" result="hardAlpha"/>
            <feOffset dx="2" dy="2"/>
            <feComposite in2="hardAlpha" operator="out"/>
            <feColorMatrix type="matrix" values="0 0 0 0 0.960784 0 0 0 0 0.65098 0 0 0 0 0.137255 0 0 0 1 0"/>
            <feBlend mode="normal" in2="BackgroundImageFix" result="effect1_dropShadow_2706_23389"/>
            <feBlend mode="normal" in="SourceGraphic" in2="effect1_dropShadow_2706_23389" result="shape"/>
        </filter>
    </defs>
</svg>

