<svg width="273" height="218" viewBox="0 0 273 218" fill="none" xmlns="http://www.w3.org/2000/svg">
<path d="M262.393 32.6122C262.271 15.0582 247.169 1.35895 229.687 2.94315L51.2955 19.108C38.729 20.2467 28.2181 29.127 24.9969 41.327L10.5973 95.8641C5.37805 115.631 21.0275 134.714 41.434 133.467L234.634 121.654C250.542 120.682 262.913 107.44 262.802 91.5019L262.393 32.6122Z" fill="white" stroke="#F5A623" stroke-linecap="round" stroke-dasharray="5 5"/>
<path d="M17.2199 39.02C19.688 25.6562 31.2484 15.8941 44.8368 15.699L238.792 12.9138C254.091 12.6941 266.833 24.5934 267.66 39.8712L269.872 80.7573C270.726 96.5385 258.575 110.001 242.79 110.764L37.755 120.673C19.4002 121.561 5.01567 105.101 8.35305 87.0307L17.2199 39.02Z" stroke="#F5A623" stroke-width="3"/>
<path d="M71.1438 60.2744V45.7544H78.6238V48.1744H73.8498V51.6944H75.6318C78.1178 51.6944 79.7018 53.3224 79.7018 55.9404C79.7018 58.5364 78.0738 60.2744 75.6318 60.2744H71.1438ZM73.8498 57.9644H75.2798C76.3578 57.9644 77.0398 57.2164 77.0398 55.9404C77.0398 54.6864 76.3798 53.9164 75.2798 53.9164H73.8498V57.9644ZM85.2286 60.5384C82.0826 60.5384 80.6086 58.1184 80.6086 52.9704C80.6086 47.8884 82.0826 45.4904 85.2286 45.4904C88.4186 45.4904 89.9146 47.8664 89.9146 52.9484C89.9146 58.0744 88.3966 60.5384 85.2286 60.5384ZM85.2286 58.0524C86.6366 58.0524 87.1866 56.6444 87.1866 53.0144C87.1866 49.3624 86.6366 47.9764 85.2286 47.9764C83.8646 47.9764 83.3366 49.3184 83.3366 52.9704C83.3366 56.6664 83.8646 58.0524 85.2286 58.0524ZM92.393 45.7544H100.401V60.2744H97.695V48.2184H94.945L94.879 51.2764C94.747 58.4484 94.351 60.3844 91.425 60.3844C91.095 60.3844 90.809 60.3404 90.545 60.2964V57.9864H90.897C91.975 57.9864 92.195 56.9524 92.305 51.2544L92.393 45.7544ZM102.339 60.2744V45.7544H105.045V50.8364H106.233C109.269 50.8364 111.029 52.5524 111.029 55.5664C111.029 58.5584 109.291 60.2744 106.233 60.2744H102.339ZM105.045 57.8544H106.255C107.619 57.8544 108.279 57.1064 108.279 55.5444C108.279 54.0264 107.619 53.2784 106.255 53.2784H105.045V57.8544ZM112.394 60.2744V45.7544H115.1V57.8104H118.114V45.7544H120.82V57.8104H123.834V45.7544H126.54V60.2744H112.394ZM128.486 60.2744V45.7544H135.46V48.1744H131.192V51.4524H134.404V53.7844H131.192V57.8324H135.658V60.2744H128.486ZM147.749 52.7724C148.937 53.3444 149.553 54.4884 149.553 56.2484C149.553 58.9984 148.057 60.5164 145.373 60.5164C142.997 60.5164 141.611 59.3284 141.127 56.8864L143.481 56.1604C143.767 57.4584 144.339 58.0524 145.307 58.0524C146.385 58.0524 146.957 57.3704 146.957 56.0284C146.957 54.7084 146.297 53.9384 145.153 53.9384H143.811V51.7164H145.153C146.253 51.7164 146.847 51.0564 146.847 49.8684C146.847 48.6364 146.319 47.9764 145.351 47.9764C144.405 47.9764 143.855 48.5484 143.569 49.8244L141.237 49.0764C141.765 46.6564 143.085 45.4904 145.395 45.4904C147.991 45.4904 149.443 46.9864 149.443 49.6044C149.443 51.1884 148.893 52.2444 147.749 52.7724ZM157.1 60.2744L156.616 58.2504H153.052L152.59 60.2744H149.84L154.152 45.7544H155.56L159.85 60.2744H157.1ZM154.834 50.8804L153.558 56.0724H156.11L154.834 50.8804ZM170.192 60.2744H167.2L163.526 52.8824V60.2744H160.82V45.7544H163.526V52.2884L167.002 45.7544H169.994L166.364 52.5744L170.192 60.2744ZM177.596 60.2744L177.112 58.2504H173.548L173.086 60.2744H170.336L174.648 45.7544H176.056L180.346 60.2744H177.596ZM175.33 50.8804L174.054 56.0724H176.606L175.33 50.8804ZM187.237 52.7724C188.425 53.3444 189.041 54.4884 189.041 56.2484C189.041 58.9984 187.545 60.5164 184.861 60.5164C182.485 60.5164 181.099 59.3284 180.615 56.8864L182.969 56.1604C183.255 57.4584 183.827 58.0524 184.795 58.0524C185.873 58.0524 186.445 57.3704 186.445 56.0284C186.445 54.7084 185.785 53.9384 184.641 53.9384H183.299V51.7164H184.641C185.741 51.7164 186.335 51.0564 186.335 49.8684C186.335 48.6364 185.807 47.9764 184.839 47.9764C183.893 47.9764 183.343 48.5484 183.057 49.8244L180.725 49.0764C181.253 46.6564 182.573 45.4904 184.883 45.4904C187.479 45.4904 188.931 46.9864 188.931 49.6044C188.931 51.1884 188.381 52.2444 187.237 52.7724ZM194.649 60.5384C191.503 60.5384 190.029 58.1184 190.029 52.9704C190.029 47.8884 191.503 45.4904 194.649 45.4904C197.839 45.4904 199.335 47.8664 199.335 52.9484C199.335 58.0744 197.817 60.5384 194.649 60.5384ZM194.649 58.0524C196.057 58.0524 196.607 56.6444 196.607 53.0144C196.607 49.3624 196.057 47.9764 194.649 47.9764C193.285 47.9764 192.757 49.3184 192.757 52.9704C192.757 56.6664 193.285 58.0524 194.649 58.0524ZM207.467 52.6404C208.699 53.3224 209.447 54.5544 209.447 56.1384C209.447 58.5804 207.687 60.2744 205.157 60.2744H200.845V45.7544H204.453C207.159 45.7544 208.787 47.2284 208.787 49.6924C208.787 50.9904 208.325 52.0024 207.467 52.6404ZM204.387 48.0204H203.419V51.6504H204.387C205.619 51.6504 206.191 51.0124 206.191 49.8464C206.191 48.6584 205.597 48.0204 204.387 48.0204ZM204.827 58.0084C206.169 58.0084 206.851 57.2824 206.851 55.9624C206.851 54.6204 206.169 53.8724 204.849 53.8724H203.419V58.0084H204.827Z" fill="black"/>
<path d="M25.0977 90.2744V75.7544H31.6537V77.2064H26.7037V81.8924H28.6837C31.1037 81.8924 32.6437 83.4544 32.6437 86.0724C32.6437 88.6244 31.0597 90.2744 28.6837 90.2744H25.0977ZM26.7037 88.8224H28.4857C30.0257 88.8224 31.0377 87.7664 31.0377 86.0724C31.0377 84.4004 30.0477 83.3444 28.4857 83.3444H26.7037V88.8224ZM38.2059 90.5164C35.3019 90.5164 33.9819 88.1624 33.9819 82.9924C33.9819 77.8444 35.3019 75.5124 38.2059 75.5124C41.1099 75.5124 42.4519 77.8444 42.4519 82.9704C42.4519 88.1404 41.1099 90.5164 38.2059 90.5164ZM38.2059 89.0644C40.0539 89.0644 40.8459 87.2824 40.8459 82.9924C40.8459 78.7904 40.0319 76.9644 38.2059 76.9644C36.4019 76.9644 35.6099 78.7684 35.6099 82.9924C35.6099 87.2824 36.3799 89.0644 38.2059 89.0644ZM45.5336 75.7544H52.5076V90.2744H50.9236V77.2064H47.0736L46.9636 81.5184C46.7876 88.7124 46.2596 90.3404 44.1036 90.3404C43.8616 90.3404 43.6416 90.3184 43.4436 90.2744V88.8664C43.5756 88.8884 43.6856 88.9104 43.8176 88.9104C44.9616 88.9104 45.2696 87.5464 45.4016 81.5184L45.5336 75.7544ZM54.9395 90.2744V75.7544H56.5455V81.5624H58.1295C60.9675 81.5624 62.5515 83.1244 62.5515 85.9404C62.5515 88.7124 60.9895 90.2744 58.1295 90.2744H54.9395ZM56.5455 88.8224H58.1295C59.9995 88.8224 60.9235 87.8544 60.9235 85.9184C60.9235 83.9824 60.0215 83.0364 58.1295 83.0364H56.5455V88.8224ZM64.2852 90.2744V75.7544H65.8912V88.8224H70.0052V75.7544H71.6112V88.8224H75.7252V75.7544H77.3312V90.2744H64.2852ZM79.7754 90.2744V75.7544H86.1774V77.1844H81.3814V81.7604H85.0774V83.2124H81.3814V88.8444H86.3314V90.2744H79.7754ZM92.5586 90.2744V75.7544H98.4326V77.2064H94.1646V90.2744H92.5586ZM99.9707 90.2744V75.7544H106.373V77.1844H101.577V81.7604H105.273V83.2124H101.577V88.8444H106.527V90.2744H99.9707ZM108.35 90.2744V75.7544H111.54C114.268 75.7544 115.808 77.2724 115.808 79.9344C115.808 82.6404 114.268 84.1804 111.54 84.1804H109.956V90.2744H108.35ZM109.956 82.7064H111.54C113.3 82.7064 114.18 81.7824 114.18 79.9564C114.18 78.1524 113.278 77.2064 111.54 77.2064H109.956V82.7064ZM121.329 90.5164C118.425 90.5164 117.105 88.1624 117.105 82.9924C117.105 77.8444 118.425 75.5124 121.329 75.5124C124.233 75.5124 125.575 77.8444 125.575 82.9704C125.575 88.1404 124.233 90.5164 121.329 90.5164ZM121.329 89.0644C123.177 89.0644 123.969 87.2824 123.969 82.9924C123.969 78.7904 123.155 76.9644 121.329 76.9644C119.525 76.9644 118.733 78.7684 118.733 82.9924C118.733 87.2824 119.503 89.0644 121.329 89.0644ZM131.627 74.1704C129.977 74.1704 129.031 73.0924 129.031 71.2664V70.2544H130.307V71.2664C130.307 72.3004 130.791 72.9384 131.627 72.9384C132.419 72.9384 132.903 72.3224 132.903 71.2664V70.2544H134.179V71.2664C134.179 73.0924 133.233 74.1704 131.627 74.1704ZM134.707 75.7544H135.587V90.2744H134.003V79.9344L128.459 90.2744H127.557V75.7544H129.185V85.9844L134.707 75.7544ZM149.574 75.7544H150.454V90.2744H148.87V79.9344L143.326 90.2744H142.424V75.7544H144.052V85.9844L149.574 75.7544ZM164.771 93.3764V90.2744H157.291V75.7544H158.897V88.8224H163.605V75.7544H165.189V88.8224H166.355V93.3764H164.771ZM168.012 90.2744V75.7544H174.414V77.1844H169.618V81.7604H173.314V83.2124H169.618V88.8444H174.568V90.2744H168.012ZM176.391 90.2744V75.7544H177.997V81.7604H182.837V75.7544H184.421V90.2744H182.837V83.2124H177.997V90.2744H176.391ZM186.854 90.2744V75.7544H188.46V81.7604H193.3V75.7544H194.884V90.2744H193.3V83.2124H188.46V90.2744H186.854ZM197.316 90.2744V75.7544H203.718V77.1844H198.922V81.7604H202.618V83.2124H198.922V88.8444H203.872V90.2744H197.316ZM205.695 90.2744V75.7544H212.097V77.1844H207.301V81.7604H210.997V83.2124H207.301V88.8444H212.251V90.2744H205.695ZM218.479 90.2744V75.7544H226.377V90.2744H224.793V77.2064H220.063V90.2744H218.479ZM228.813 90.2744V75.7544H232.003C234.731 75.7544 236.271 77.2724 236.271 79.9344C236.271 82.6404 234.731 84.1804 232.003 84.1804H230.419V90.2744H228.813ZM230.419 82.7064H232.003C233.763 82.7064 234.643 81.7824 234.643 79.9564C234.643 78.1524 233.741 77.2064 232.003 77.2064H230.419V82.7064ZM245.158 75.7544H246.038V90.2744H244.454V79.9344L238.91 90.2744H238.008V75.7544H239.636V85.9844L245.158 75.7544ZM253.575 82.5744C254.807 83.1244 255.511 84.4224 255.511 86.2924C255.511 88.9764 254.103 90.4944 251.639 90.4944C249.593 90.4944 248.339 89.3724 247.855 87.1504L249.329 86.7544C249.703 88.3384 250.385 89.0644 251.617 89.0644C253.091 89.0644 253.905 88.0744 253.905 86.2044C253.905 84.3784 253.069 83.3664 251.551 83.3664H249.989V81.8924H251.551C252.871 81.8924 253.663 81.0344 253.663 79.5384C253.663 77.9104 252.893 76.9644 251.595 76.9644C250.429 76.9644 249.725 77.6684 249.373 79.1424L247.899 78.6804C248.493 76.5244 249.659 75.5124 251.617 75.5124C253.905 75.5124 255.269 76.9864 255.269 79.4504C255.269 80.9904 254.675 82.0684 253.575 82.5744Z" fill="black"/>
<g filter="url(#filter0_d_505_8240)">
<path d="M146.382 144.994L163.662 112.994V104.674H113.262V121.634H139.822L123.022 153.314V160.994H132.622C142.542 160.994 146.862 164.354 146.862 178.114C146.862 188.834 143.502 194.114 137.102 194.114C131.662 194.114 128.462 190.114 126.702 180.354L109.902 184.514C112.462 202.114 122.542 212.194 137.422 212.194C155.182 212.194 165.902 199.074 165.902 177.314C165.902 159.394 158.702 147.874 146.382 144.994Z" fill="#E4002B"/>
</g>
<defs>
<filter id="filter0_d_505_8240" x="109.902" y="104.675" width="58" height="109.52" filterUnits="userSpaceOnUse" color-interpolation-filters="sRGB">
<feFlood flood-opacity="0" result="BackgroundImageFix"/>
<feColorMatrix in="SourceAlpha" type="matrix" values="0 0 0 0 0 0 0 0 0 0 0 0 0 0 0 0 0 0 127 0" result="hardAlpha"/>
<feOffset dx="2" dy="2"/>
<feComposite in2="hardAlpha" operator="out"/>
<feColorMatrix type="matrix" values="0 0 0 0 0.960784 0 0 0 0 0.65098 0 0 0 0 0.137255 0 0 0 1 0"/>
<feBlend mode="normal" in2="BackgroundImageFix" result="effect1_dropShadow_505_8240"/>
<feBlend mode="normal" in="SourceGraphic" in2="effect1_dropShadow_505_8240" result="shape"/>
</filter>
</defs>
</svg>
