<svg width="403" height="165" viewBox="0 0 403 165" fill="none" xmlns="http://www.w3.org/2000/svg">
<path d="M369.153 61.8287C366.912 43.8465 351.175 30.2692 332.403 30.1225L60.9037 28.0012C40.2371 27.8397 23.3699 43.9134 23.2821 63.8529L23.0003 127.836C22.9047 149.552 42.6074 166.408 64.9431 163.717L340.3 141.55C360.687 139.095 375.182 121.204 372.729 101.524L369.153 61.8287Z" fill="white" stroke="#F5A623" stroke-linecap="round" stroke-dasharray="5 5"/>
<path d="M5.65392 74.5254C3.53764 57.7554 16.3983 42.8393 33.2971 42.4641L351.239 35.4053C370.461 34.9786 384.582 53.3179 379.256 71.7925L361.493 133.411C357.914 145.83 346.425 154.285 333.504 154.011L39.4226 147.77C25.2952 147.47 13.5207 136.864 11.7515 122.844L5.65392 74.5254Z" stroke="#F5A623" stroke-width="3"/>
<path d="M37.7541 76H40.4381V63.944H43.8261V76H46.5321V61.48H37.7541V76ZM52.6768 76.264C55.8448 76.264 57.3628 73.8 57.3628 68.674C57.3628 63.592 55.8668 61.216 52.6768 61.216C49.5308 61.216 48.0568 63.614 48.0568 68.696C48.0568 73.844 49.5308 76.264 52.6768 76.264ZM52.6768 73.778C51.3128 73.778 50.7848 72.392 50.7848 68.696C50.7848 65.044 51.3128 63.702 52.6768 63.702C54.0848 63.702 54.6348 65.088 54.6348 68.74C54.6348 72.37 54.0848 73.778 52.6768 73.778ZM59.8413 61.48L59.7533 66.98C59.6433 72.678 59.4233 73.712 58.3453 73.712H57.9933V76.022C58.2573 76.066 58.5433 76.11 58.8733 76.11C61.7993 76.11 62.1953 74.174 62.3273 67.002L62.3933 63.944H65.1433V76H67.8493V61.48H59.8413ZM75.7273 61.48L73.8133 68.52L71.7013 61.48H68.8193L72.5373 72.568C72.2073 73.426 71.7673 73.756 71.0193 73.756C70.7333 73.756 70.5133 73.734 70.2273 73.712V76.022C70.7113 76.154 71.1293 76.198 71.5913 76.198C73.4613 76.198 74.4073 75.274 75.1773 72.744L78.5213 61.48H75.7273ZM85.1743 61.48V68.146C84.6463 68.366 84.1183 68.476 83.5683 68.476C82.3803 68.476 81.7863 67.794 81.7863 66.43V61.48H79.1023V66.628C79.1023 69.378 80.5983 70.962 83.1283 70.962C83.8103 70.962 84.4923 70.852 85.1743 70.632V76H87.8583V61.48H85.1743ZM96.1028 76H98.8528L94.5628 61.48H93.1548L88.8428 76H91.5928L92.0548 73.976H95.6188L96.1028 76ZM93.8368 66.606L95.1128 71.798H92.5608L93.8368 66.606ZM104.354 59.94C106.202 59.94 107.28 58.84 107.28 56.948V55.98H105.256V56.948C105.256 57.63 104.904 58.004 104.354 58.004C103.76 58.004 103.408 57.608 103.408 56.948V55.98H101.384V56.948C101.384 58.84 102.484 59.94 104.354 59.94ZM107.346 61.48L102.55 69.356V61.48H99.8225V76H101.252L106.07 67.992V76H108.754V61.48H107.346ZM115.119 76H117.825V63.922H121.741V61.48H115.119V76ZM127.728 76H130.478L126.188 61.48H124.78L120.468 76H123.218L123.68 73.976H127.244L127.728 76ZM125.462 66.606L126.738 71.798H124.186L125.462 66.606ZM131.447 76H134.153V70.786H135.341C138.333 70.786 140.071 69.092 140.071 66.122C140.071 63.174 138.355 61.48 135.341 61.48H131.447V76ZM134.153 68.366V63.9H135.363C136.683 63.9 137.343 64.626 137.343 66.144C137.343 67.618 136.683 68.366 135.363 68.366H134.153ZM146.505 76H149.255L144.965 61.48H143.557L139.245 76H141.995L142.457 73.976H146.021L146.505 76ZM144.239 66.606L145.515 71.798H142.963L144.239 66.606ZM150.225 76H152.931V69.576H156.473V76H159.157V61.48H156.473V67.112H152.931V61.48H150.225V76ZM163.339 76H166.045V63.944H169.015V61.48H160.369V63.944H163.339V76ZM177.751 61.48L172.955 69.356V61.48H170.227V76H171.657L176.475 67.992V76H179.159V61.48H177.751ZM181.119 76H183.825V70.786H185.013C188.005 70.786 189.743 69.092 189.743 66.122C189.743 63.174 188.027 61.48 185.013 61.48H181.119V76ZM183.825 68.366V63.9H185.035C186.355 63.9 187.015 64.626 187.015 66.144C187.015 67.618 186.355 68.366 185.035 68.366H183.825ZM195.312 76.264C198.48 76.264 199.998 73.8 199.998 68.674C199.998 63.592 198.502 61.216 195.312 61.216C192.166 61.216 190.692 63.614 190.692 68.696C190.692 73.844 192.166 76.264 195.312 76.264ZM195.312 73.778C193.948 73.778 193.42 72.392 193.42 68.696C193.42 65.044 193.948 63.702 195.312 63.702C196.72 63.702 197.27 65.088 197.27 68.74C197.27 72.37 196.72 73.778 195.312 73.778ZM208.13 68.366C208.988 67.728 209.45 66.716 209.45 65.418C209.45 62.954 207.822 61.48 205.116 61.48H201.508V76H205.82C208.35 76 210.11 74.306 210.11 71.864C210.11 70.28 209.362 69.048 208.13 68.366ZM205.05 63.746C206.26 63.746 206.854 64.384 206.854 65.572C206.854 66.738 206.282 67.376 205.05 67.376H204.082V63.746H205.05ZM205.49 73.734H204.082V69.598H205.512C206.832 69.598 207.514 70.346 207.514 71.688C207.514 73.008 206.832 73.734 205.49 73.734ZM217.597 76H220.347L216.057 61.48H214.649L210.337 76H213.087L213.549 73.976H217.113L217.597 76ZM215.331 66.606L216.607 71.798H214.055L215.331 66.606ZM221.317 76H224.023V69.576H227.565V76H230.249V61.48H227.565V67.112H224.023V61.48H221.317V76ZM232.209 76H234.915V69.576H238.457V76H241.141V61.48H238.457V67.112H234.915V61.48H232.209V76ZM243.102 76H246.996C250.054 76 251.792 74.284 251.792 71.292C251.792 68.278 250.032 66.562 246.996 66.562H245.808V61.48H243.102V76ZM252.848 76H255.554V61.48H252.848V76ZM245.808 73.58V69.004H247.018C248.382 69.004 249.042 69.752 249.042 71.27C249.042 72.832 248.382 73.58 247.018 73.58H245.808ZM257.496 76H264.668V73.558H260.202V69.51H263.414V67.178H260.202V63.9H264.47V61.48H257.496V76ZM270.688 76H273.372V63.944H276.76V76H279.466V61.48H270.688V76ZM281.408 76H284.114V70.786H285.302C288.294 70.786 290.032 69.092 290.032 66.122C290.032 63.174 288.316 61.48 285.302 61.48H281.408V76ZM284.114 68.366V63.9H285.324C286.644 63.9 287.304 64.626 287.304 66.144C287.304 67.618 286.644 68.366 285.324 68.366H284.114ZM298.923 61.48L294.127 69.356V61.48H291.399V76H292.829L297.647 67.992V76H300.331V61.48H298.923ZM308.363 68.498C309.507 67.97 310.057 66.914 310.057 65.33C310.057 62.712 308.605 61.216 306.009 61.216C303.699 61.216 302.379 62.382 301.851 64.802L304.183 65.55C304.469 64.274 305.019 63.702 305.965 63.702C306.933 63.702 307.461 64.362 307.461 65.594C307.461 66.782 306.867 67.442 305.767 67.442H304.425V69.664H305.767C306.911 69.664 307.571 70.434 307.571 71.754C307.571 73.096 306.999 73.778 305.921 73.778C304.953 73.778 304.381 73.184 304.095 71.886L301.741 72.612C302.225 75.054 303.611 76.242 305.987 76.242C308.671 76.242 310.167 74.724 310.167 71.974C310.167 70.214 309.551 69.07 308.363 68.498ZM311.572 76H315.466C318.524 76 320.262 74.284 320.262 71.292C320.262 68.278 318.502 66.562 315.466 66.562H314.278V61.48H311.572V76ZM321.318 76H324.024V61.48H321.318V76ZM314.278 73.58V69.004H315.488C316.852 69.004 317.512 69.752 317.512 71.27C317.512 72.832 316.852 73.58 315.488 73.58H314.278Z" fill="black"/>
<path d="M64.1168 91.48H64.9968V106H63.4128V95.66L57.8688 106H56.9668V91.48H58.5948V101.71L64.1168 91.48ZM77.796 91.48H79.468L76.058 103.338C75.464 105.362 74.672 106.132 73.198 106.132C72.912 106.132 72.56 106.11 72.23 106.022V104.592C72.494 104.636 72.692 104.658 72.89 104.658C73.726 104.658 74.122 104.284 74.452 103.14L74.606 102.634L71.042 91.48H72.714L75.376 100.258L77.796 91.48ZM86.9484 91.48H88.5324V106H86.9484V100.082C86.1124 100.368 85.2544 100.544 84.4184 100.544C82.0204 100.544 80.6564 99.07 80.6564 96.452V91.48H82.2404V96.364C82.2404 98.168 83.0104 99.092 84.5724 99.092C85.4304 99.092 86.2224 98.916 86.9484 98.586V91.48ZM97.5761 106L96.7621 103.03H92.5381L91.7461 106H90.1181L94.2101 91.48H95.0901L99.2041 106H97.5761ZM94.6501 95.022L92.9341 101.578H96.3661L94.6501 95.022ZM104.191 106.242C101.375 106.242 100.033 103.822 100.033 98.718C100.033 93.614 101.353 91.238 104.191 91.238C106.127 91.238 107.271 92.316 107.777 94.604L106.303 94.978C105.907 93.416 105.247 92.69 104.191 92.69C102.453 92.69 101.661 94.604 101.661 98.718C101.661 102.876 102.453 104.79 104.191 104.79C105.247 104.79 105.907 104.042 106.303 102.502L107.777 102.876C107.271 105.164 106.127 106.242 104.191 106.242ZM111.958 106V92.932H108.702V91.48H116.798V92.932H113.564V106H111.958ZM123.65 98.19C125.124 98.762 125.982 100.082 125.982 101.886C125.982 104.394 124.332 106 121.758 106H118.326V91.48H121.296C123.826 91.48 125.322 92.844 125.322 95.132C125.322 96.562 124.728 97.596 123.65 98.19ZM121.23 92.932H119.932V97.53H121.252C122.946 97.53 123.716 96.672 123.716 95.198C123.716 93.724 122.902 92.932 121.23 92.932ZM121.56 104.548C123.386 104.548 124.376 103.514 124.376 101.798C124.376 100.038 123.386 99.004 121.582 99.004H119.932V104.548H121.56ZM133.484 91.48H135.156L131.746 103.338C131.152 105.362 130.36 106.132 128.886 106.132C128.6 106.132 128.248 106.11 127.918 106.022V104.592C128.182 104.636 128.38 104.658 128.578 104.658C129.414 104.658 129.81 104.284 130.14 103.14L130.294 102.634L126.73 91.48H128.402L131.064 100.258L133.484 91.48ZM140.744 89.896C139.094 89.896 138.148 88.818 138.148 86.992V85.98H139.424V86.992C139.424 88.026 139.908 88.664 140.744 88.664C141.536 88.664 142.02 88.048 142.02 86.992V85.98H143.296V86.992C143.296 88.818 142.35 89.896 140.744 89.896ZM143.824 91.48H144.704V106H143.12V95.66L137.576 106H136.674V91.48H138.302V101.71L143.824 91.48ZM156.865 98.19C158.339 98.762 159.197 100.082 159.197 101.886C159.197 104.394 157.547 106 154.973 106H151.541V91.48H154.511C157.041 91.48 158.537 92.844 158.537 95.132C158.537 96.562 157.943 97.596 156.865 98.19ZM154.445 92.932H153.147V97.53H154.467C156.161 97.53 156.931 96.672 156.931 95.198C156.931 93.724 156.117 92.932 154.445 92.932ZM154.775 104.548C156.601 104.548 157.591 103.514 157.591 101.798C157.591 100.038 156.601 99.004 154.797 99.004H153.147V104.548H154.775ZM165.377 106V91.48H168.567C171.295 91.48 172.835 92.998 172.835 95.66C172.835 98.366 171.295 99.906 168.567 99.906H166.983V106H165.377ZM166.983 98.432H168.567C170.327 98.432 171.207 97.508 171.207 95.682C171.207 93.878 170.305 92.932 168.567 92.932H166.983V98.432ZM178.356 106.242C175.452 106.242 174.132 103.888 174.132 98.718C174.132 93.57 175.452 91.238 178.356 91.238C181.26 91.238 182.602 93.57 182.602 98.696C182.602 103.866 181.26 106.242 178.356 106.242ZM178.356 104.79C180.204 104.79 180.996 103.008 180.996 98.718C180.996 94.516 180.182 92.69 178.356 92.69C176.552 92.69 175.76 94.494 175.76 98.718C175.76 103.008 176.53 104.79 178.356 104.79ZM189.28 98.3C190.512 98.85 191.216 100.148 191.216 102.018C191.216 104.702 189.808 106.22 187.344 106.22C185.298 106.22 184.044 105.098 183.56 102.876L185.034 102.48C185.408 104.064 186.09 104.79 187.322 104.79C188.796 104.79 189.61 103.8 189.61 101.93C189.61 100.104 188.774 99.092 187.256 99.092H185.694V97.618H187.256C188.576 97.618 189.368 96.76 189.368 95.264C189.368 93.636 188.598 92.69 187.3 92.69C186.134 92.69 185.43 93.394 185.078 94.868L183.604 94.406C184.198 92.25 185.364 91.238 187.322 91.238C189.61 91.238 190.974 92.712 190.974 95.176C190.974 96.716 190.38 97.794 189.28 98.3ZM193.027 106V91.48H194.633V97.288H196.217C199.055 97.288 200.639 98.85 200.639 101.666C200.639 104.438 199.077 106 196.217 106H193.027ZM201.959 106V91.48H203.543V106H201.959ZM194.633 104.548H196.217C198.087 104.548 199.011 103.58 199.011 101.644C199.011 99.708 198.109 98.762 196.217 98.762H194.633V104.548ZM205.982 106V91.48H211.856V92.932H207.588V106H205.982ZM213.395 106V91.48H216.585C219.313 91.48 220.853 92.998 220.853 95.66C220.853 98.366 219.313 99.906 216.585 99.906H215.001V106H213.395ZM215.001 98.432H216.585C218.345 98.432 219.225 97.508 219.225 95.682C219.225 93.878 218.323 92.932 216.585 92.932H215.001V98.432ZM222.59 106V91.48H224.196V97.288H225.78C228.618 97.288 230.202 98.85 230.202 101.666C230.202 104.438 228.64 106 225.78 106H222.59ZM231.522 106V91.48H233.106V106H231.522ZM224.196 104.548H225.78C227.65 104.548 228.574 103.58 228.574 101.644C228.574 99.708 227.672 98.762 225.78 98.762H224.196V104.548ZM235.545 106V91.48H237.151V104.548H241.265V91.48H242.871V104.548H246.985V91.48H248.591V106H235.545ZM251.035 106V91.48H257.437V92.91H252.641V97.486H256.337V98.938H252.641V104.57H257.591V106H251.035ZM271.298 109.102V106H263.818V91.48H265.424V104.548H270.132V91.48H271.716V104.548H272.882V109.102H271.298ZM274.539 106V91.48H280.941V92.91H276.145V97.486H279.841V98.938H276.145V104.57H281.095V106H274.539ZM282.918 106V91.48H284.524V97.486H289.364V91.48H290.948V106H289.364V98.938H284.524V106H282.918ZM293.381 106V91.48H294.987V97.486H299.827V91.48H301.411V106H299.827V98.938H294.987V106H293.381ZM303.844 106V91.48H305.45V97.288H307.034C309.872 97.288 311.456 98.85 311.456 101.666C311.456 104.438 309.894 106 307.034 106H303.844ZM312.776 106V91.48H314.36V106H312.776ZM305.45 104.548H307.034C308.904 104.548 309.828 103.58 309.828 101.644C309.828 99.708 308.926 98.762 307.034 98.762H305.45V104.548ZM324.521 91.48L321.331 98.762L324.521 106H322.761L320.297 100.302L317.855 106H316.095L319.307 98.762L316.095 91.48H317.833L320.319 97.2L322.805 91.48H324.521ZM128.725 130V115.48H136.623V130H135.039V116.932H130.309V130H128.725ZM139.059 130V115.48H142.249C144.977 115.48 146.517 116.998 146.517 119.66C146.517 122.366 144.977 123.906 142.249 123.906H140.665V130H139.059ZM140.665 122.432H142.249C144.009 122.432 144.889 121.508 144.889 119.682C144.889 117.878 143.987 116.932 142.249 116.932H140.665V122.432ZM155.404 115.48H156.284V130H154.7V119.66L149.156 130H148.254V115.48H149.882V125.71L155.404 115.48ZM163.821 122.3C165.053 122.85 165.757 124.148 165.757 126.018C165.757 128.702 164.349 130.22 161.885 130.22C159.839 130.22 158.585 129.098 158.101 126.876L159.575 126.48C159.949 128.064 160.631 128.79 161.863 128.79C163.337 128.79 164.151 127.8 164.151 125.93C164.151 124.104 163.315 123.092 161.797 123.092H160.235V121.618H161.797C163.117 121.618 163.909 120.76 163.909 119.264C163.909 117.636 163.139 116.69 161.841 116.69C160.675 116.69 159.971 117.394 159.619 118.868L158.145 118.406C158.739 116.25 159.905 115.238 161.863 115.238C164.151 115.238 165.515 116.712 165.515 119.176C165.515 120.716 164.921 121.794 163.821 122.3ZM171.352 130.242C168.448 130.242 167.128 127.888 167.128 122.718C167.128 117.57 168.448 115.238 171.352 115.238C174.256 115.238 175.598 117.57 175.598 122.696C175.598 127.866 174.256 130.242 171.352 130.242ZM171.352 128.79C173.2 128.79 173.992 127.008 173.992 122.718C173.992 118.516 173.178 116.69 171.352 116.69C169.548 116.69 168.756 118.494 168.756 122.718C168.756 127.008 169.526 128.79 171.352 128.79ZM182.904 122.19C184.378 122.762 185.236 124.082 185.236 125.886C185.236 128.394 183.586 130 181.012 130H177.58V115.48H180.55C183.08 115.48 184.576 116.844 184.576 119.132C184.576 120.562 183.982 121.596 182.904 122.19ZM180.484 116.932H179.186V121.53H180.506C182.2 121.53 182.97 120.672 182.97 119.198C182.97 117.724 182.156 116.932 180.484 116.932ZM180.814 128.548C182.64 128.548 183.63 127.514 183.63 125.798C183.63 124.038 182.64 123.004 180.836 123.004H179.186V128.548H180.814ZM191.416 130V115.48H193.022V130H191.416ZM195.002 122.19L199.336 130H197.51L193.154 122.19L197.356 115.48H199.182L195.002 122.19ZM207.598 130L206.784 127.03H202.56L201.768 130H200.14L204.232 115.48H205.112L209.226 130H207.598ZM204.672 119.022L202.956 125.578H206.388L204.672 119.022ZM210.18 115.48H212.006L215.988 122.19L211.874 130H210.048L214.228 122.212L210.18 115.48ZM216.12 130V115.48H217.704V130H216.12ZM219.596 122.146L223.798 130H221.972L217.858 122.19L221.818 115.48H223.644L219.596 122.146ZM233.652 128.548H234.906V133.102H233.3V130H226.106V133.102H224.522V128.548H225.226C225.974 127.712 226.37 125.644 226.458 121.244L226.568 115.48H233.652V128.548ZM227.976 121.266C227.866 125.16 227.58 127.294 226.92 128.548H232.046V116.932H228.108L227.976 121.266ZM242.28 115.48H243.952L240.542 127.338C239.948 129.362 239.156 130.132 237.682 130.132C237.396 130.132 237.044 130.11 236.714 130.022V128.592C236.978 128.636 237.176 128.658 237.374 128.658C238.21 128.658 238.606 128.284 238.936 127.14L239.09 126.634L235.526 115.48H237.198L239.86 124.258L242.28 115.48ZM253.105 115.238C256.009 115.238 257.241 117.526 257.241 122.696C257.241 127.91 255.987 130.242 253.105 130.242C250.333 130.242 249.101 127.998 249.057 122.938H247.077V130H245.471V115.48H247.077V121.486H249.079C249.277 117.174 250.531 115.238 253.105 115.238ZM253.105 128.79C254.931 128.79 255.635 127.096 255.635 122.718C255.635 118.45 254.909 116.69 253.105 116.69C251.367 116.69 250.663 118.428 250.663 122.718C250.663 127.074 251.345 128.79 253.105 128.79ZM263.647 130V115.48H265.253V121.486H270.093V115.48H271.677V130H270.093V122.938H265.253V130H263.647ZM274.109 130V115.48H280.511V116.91H275.715V121.486H279.411V122.938H275.715V128.57H280.665V130H274.109ZM290.65 128.548H291.904V133.102H290.298V130H283.104V133.102H281.52V128.548H282.224C282.972 127.712 283.368 125.644 283.456 121.244L283.566 115.48H290.65V128.548ZM284.974 121.266C284.864 125.16 284.578 127.294 283.918 128.548H289.044V116.932H285.106L284.974 121.266ZM293.553 130V115.48H299.955V116.91H295.159V121.486H298.855V122.938H295.159V128.57H300.109V130H293.553ZM303.032 115.48H310.006V130H308.422V116.932H304.572L304.462 121.244C304.286 128.438 303.758 130.066 301.602 130.066C301.36 130.066 301.14 130.044 300.942 130V128.592C301.074 128.614 301.184 128.636 301.316 128.636C302.46 128.636 302.768 127.272 302.9 121.244L303.032 115.48ZM320.072 115.238C322.976 115.238 324.208 117.526 324.208 122.696C324.208 127.91 322.954 130.242 320.072 130.242C317.3 130.242 316.068 127.998 316.024 122.938H314.044V130H312.438V115.48H314.044V121.486H316.046C316.244 117.174 317.498 115.238 320.072 115.238ZM320.072 128.79C321.898 128.79 322.602 127.096 322.602 122.718C322.602 118.45 321.876 116.69 320.072 116.69C318.334 116.69 317.63 118.428 317.63 122.718C317.63 127.074 318.312 128.79 320.072 128.79Z" fill="black"/>
<g filter="url(#filter0_d_505_8247)">
<path d="M400.822 70.8H393.142V38.32H374.262V70.8H357.782L375.542 0.399996H356.822L336.982 78V87.6H374.262V106H393.142V87.6H400.822V70.8Z" fill="#E4002B"/>
</g>
<defs>
<filter id="filter0_d_505_8247" x="336.981" y="0.400391" width="65.8398" height="107.6" filterUnits="userSpaceOnUse" color-interpolation-filters="sRGB">
<feFlood flood-opacity="0" result="BackgroundImageFix"/>
<feColorMatrix in="SourceAlpha" type="matrix" values="0 0 0 0 0 0 0 0 0 0 0 0 0 0 0 0 0 0 127 0" result="hardAlpha"/>
<feOffset dx="2" dy="2"/>
<feComposite in2="hardAlpha" operator="out"/>
<feColorMatrix type="matrix" values="0 0 0 0 0.960784 0 0 0 0 0.65098 0 0 0 0 0.137255 0 0 0 1 0"/>
<feBlend mode="normal" in2="BackgroundImageFix" result="effect1_dropShadow_505_8247"/>
<feBlend mode="normal" in="SourceGraphic" in2="effect1_dropShadow_505_8247" result="shape"/>
</filter>
</defs>
</svg>
