<svg width="277" height="154" viewBox="0 0 277 154" fill="none" xmlns="http://www.w3.org/2000/svg">
<path d="M3.43814 85.3064C1.57118 68.1808 14.4777 53.0045 31.6808 52.0968L208.057 42.7909C226.079 41.84 240.855 56.902 239.56 74.9029L236.111 122.819C234.887 139.828 219.749 152.397 202.804 150.474L31.9722 131.079C18.034 129.497 7.05319 118.467 5.53296 104.522L3.43814 85.3064Z" fill="white" stroke="#F5A623" stroke-linecap="round" stroke-dasharray="5 5"/>
<path d="M218.914 36.6347C235.161 36.1383 248.532 49.3087 248.281 65.5609L247.859 92.9572C247.636 107.396 236.649 119.387 222.284 120.868L48.1301 138.819C33.0472 140.374 19.3877 129.847 17.0488 114.866L10.8316 75.0411C8.18738 58.1039 20.9858 42.6818 38.1201 42.1583L218.914 36.6347Z" stroke="#F5A623" stroke-width="3"/>
<path d="M110.407 68.366C111.265 67.728 111.727 66.716 111.727 65.418C111.727 62.954 110.099 61.48 107.393 61.48H103.785V76H108.097C110.627 76 112.387 74.306 112.387 71.864C112.387 70.28 111.639 69.048 110.407 68.366ZM107.327 63.746C108.537 63.746 109.131 64.384 109.131 65.572C109.131 66.738 108.559 67.376 107.327 67.376H106.359V63.746H107.327ZM107.767 73.734H106.359V69.598H107.789C109.109 69.598 109.791 70.346 109.791 71.688C109.791 73.008 109.109 73.734 107.767 73.734ZM113.733 76H117.627C120.685 76 122.423 74.284 122.423 71.292C122.423 68.278 120.663 66.562 117.627 66.562H116.439V61.48H113.733V76ZM123.479 76H126.185V61.48H123.479V76ZM116.439 73.58V69.004H117.649C119.013 69.004 119.673 69.752 119.673 71.27C119.673 72.832 119.013 73.58 117.649 73.58H116.439ZM135.651 61.48L130.855 69.356V61.48H128.127V76H129.557L134.375 67.992V76H137.059V61.48H135.651ZM139.02 76H141.726V63.922H145.642V61.48H139.02V76ZM146.883 76H149.589V70.786H150.777C153.769 70.786 155.507 69.092 155.507 66.122C155.507 63.174 153.791 61.48 150.777 61.48H146.883V76ZM149.589 68.366V63.9H150.799C152.119 63.9 152.779 64.626 152.779 66.144C152.779 67.618 152.119 68.366 150.799 68.366H149.589ZM156.873 76H160.767C163.825 76 165.563 74.284 165.563 71.292C165.563 68.278 163.803 66.562 160.767 66.562H159.579V61.48H156.873V76ZM166.619 76H169.325V61.48H166.619V76ZM159.579 73.58V69.004H160.789C162.153 69.004 162.813 69.752 162.813 71.27C162.813 72.832 162.153 73.58 160.789 73.58H159.579ZM177.89 68.366C178.748 67.728 179.21 66.716 179.21 65.418C179.21 62.954 177.582 61.48 174.876 61.48H171.268V76H175.58C178.11 76 179.87 74.306 179.87 71.864C179.87 70.28 179.122 69.048 177.89 68.366ZM174.81 63.746C176.02 63.746 176.614 64.384 176.614 65.572C176.614 66.738 176.042 67.376 174.81 67.376H173.842V63.746H174.81ZM175.25 73.734H173.842V69.598H175.272C176.592 69.598 177.274 70.346 177.274 71.688C177.274 73.008 176.592 73.734 175.25 73.734ZM187.357 76H190.107L185.817 61.48H184.409L180.097 76H182.847L183.309 73.976H186.873L187.357 76ZM185.091 66.606L186.367 71.798H183.815L185.091 66.606ZM195.608 59.94C197.456 59.94 198.534 58.84 198.534 56.948V55.98H196.51V56.948C196.51 57.63 196.158 58.004 195.608 58.004C195.014 58.004 194.662 57.608 194.662 56.948V55.98H192.638V56.948C192.638 58.84 193.738 59.94 195.608 59.94ZM198.6 61.48L193.804 69.356V61.48H191.076V76H192.506L197.324 67.992V76H200.008V61.48H198.6Z" fill="black"/>
<path d="M41.6797 106V91.48H43.2857V106H41.6797ZM45.2657 98.19L49.5997 106H47.7737L43.4177 98.19L47.6197 91.48H49.4457L45.2657 98.19ZM56.6072 98.19C58.0812 98.762 58.9392 100.082 58.9392 101.886C58.9392 104.394 57.2892 106 54.7152 106H51.2832V91.48H54.2532C56.7832 91.48 58.2792 92.844 58.2792 95.132C58.2792 96.562 57.6852 97.596 56.6072 98.19ZM54.1872 92.932H52.8892V97.53H54.2092C55.9032 97.53 56.6732 96.672 56.6732 95.198C56.6732 93.724 55.8592 92.932 54.1872 92.932ZM54.5172 104.548C56.3432 104.548 57.3332 103.514 57.3332 101.798C57.3332 100.038 56.3432 99.004 54.5392 99.004H52.8892V104.548H54.5172ZM67.1425 106L66.3285 103.03H62.1045L61.3125 106H59.6845L63.7765 91.48H64.6565L68.7705 106H67.1425ZM64.2165 95.022L62.5005 101.578H65.9325L64.2165 95.022ZM70.2969 106V91.48H73.4869C76.2149 91.48 77.7549 92.998 77.7549 95.66C77.7549 98.366 76.2149 99.906 73.4869 99.906H71.9029V106H70.2969ZM71.9029 98.432H73.4869C75.2469 98.432 76.1269 97.508 76.1269 95.682C76.1269 93.878 75.2249 92.932 73.4869 92.932H71.9029V98.432ZM81.8462 106V92.932H78.5902V91.48H86.6862V92.932H83.4522V106H81.8462ZM95.3649 91.48H96.2449V106H94.6609V95.66L89.1169 106H88.2149V91.48H89.8429V101.71L95.3649 91.48ZM98.6778 106V91.48H101.868C104.596 91.48 106.136 92.998 106.136 95.66C106.136 98.366 104.596 99.906 101.868 99.906H100.284V106H98.6778ZM100.284 98.432H101.868C103.628 98.432 104.508 97.508 104.508 95.682C104.508 93.878 103.606 92.932 101.868 92.932H100.284V98.432ZM113.534 91.48H115.206L111.796 103.338C111.202 105.362 110.41 106.132 108.936 106.132C108.65 106.132 108.298 106.11 107.968 106.022V104.592C108.232 104.636 108.43 104.658 108.628 104.658C109.464 104.658 109.86 104.284 110.19 103.14L110.344 102.634L106.78 91.48H108.452L111.114 100.258L113.534 91.48ZM127.506 91.48H128.386V106H126.802V95.66L121.258 106H120.356V91.48H121.984V101.71L127.506 91.48ZM143.605 91.48H144.463V106H142.879V96.254L140.129 101.754H139.557L136.829 96.276V106H135.223V91.48H136.125L139.843 98.96L143.605 91.48ZM153.488 106L152.674 103.03H148.45L147.658 106H146.03L150.122 91.48H151.002L155.116 106H153.488ZM150.562 95.022L148.846 101.578H152.278L150.562 95.022ZM156.643 106V91.48H158.249V104.548H162.363V91.48H163.969V104.548H168.083V91.48H169.689V106H156.643ZM179.283 91.48H180.163V106H178.579V95.66L173.035 106H172.133V91.48H173.761V101.71L179.283 91.48ZM182.596 106V91.48H184.202V97.486H189.042V91.48H190.626V106H189.042V98.938H184.202V106H182.596ZM199.021 91.48H200.693L197.283 103.338C196.689 105.362 195.897 106.132 194.423 106.132C194.137 106.132 193.785 106.11 193.455 106.022V104.592C193.719 104.636 193.917 104.658 194.115 104.658C194.951 104.658 195.347 104.284 195.677 103.14L195.831 102.634L192.267 91.48H193.939L196.601 100.258L199.021 91.48Z" fill="black"/>
<g filter="url(#filter0_d_702_15085)">
<path d="M246.743 39.76C244.663 39.76 242.743 39.92 240.823 40.24V17.36H269.463V0.399996H223.063V56.72H239.703C250.103 56.72 254.103 60.24 254.103 73.84C254.103 84.56 250.903 89.84 244.343 89.84C238.903 89.84 235.543 85.84 233.943 76.08L217.303 80.24C219.703 97.84 229.783 107.92 244.663 107.92C262.423 107.92 273.143 94.8 273.143 73.04C273.143 51.6 263.863 39.76 246.743 39.76Z" fill="#E4002B"/>
</g>
<defs>
<filter id="filter0_d_702_15085" x="217.304" y="0.400391" width="57.8398" height="109.52" filterUnits="userSpaceOnUse" color-interpolation-filters="sRGB">
<feFlood flood-opacity="0" result="BackgroundImageFix"/>
<feColorMatrix in="SourceAlpha" type="matrix" values="0 0 0 0 0 0 0 0 0 0 0 0 0 0 0 0 0 0 127 0" result="hardAlpha"/>
<feOffset dx="2" dy="2"/>
<feComposite in2="hardAlpha" operator="out"/>
<feColorMatrix type="matrix" values="0 0 0 0 0.960784 0 0 0 0 0.65098 0 0 0 0 0.137255 0 0 0 1 0"/>
<feBlend mode="normal" in2="BackgroundImageFix" result="effect1_dropShadow_702_15085"/>
<feBlend mode="normal" in="SourceGraphic" in2="effect1_dropShadow_702_15085" result="shape"/>
</filter>
</defs>
</svg>
