<svg width="213" height="143" viewBox="0 0 213 143" fill="none" xmlns="http://www.w3.org/2000/svg">
    <path d="M204.522 22.1125C204.429 10.1711 194.212 0.823262 182.31 1.78981L37.7281 13.5306C29.256 14.2186 22.0819 20.0516 19.6797 28.205L8.22559 67.0814C4.21378 80.6979 14.8876 94.1843 29.0616 93.4077L185.423 84.8404C196.381 84.24 204.933 75.1359 204.848 64.1623L204.522 22.1125Z" fill="white" stroke="#F5A623" stroke-width="0.684982" stroke-linecap="round" stroke-dasharray="3.42 3.42"/>
    <path d="M13.4736 25.9533C15.3056 16.9524 23.1645 10.4462 32.3491 10.3265L189.187 8.28294C199.615 8.14707 208.308 16.2311 208.929 26.6413L210.732 56.8816C211.381 67.7641 202.991 77.0692 192.1 77.5468L26.2392 84.8208C13.5539 85.3771 3.72167 73.8664 6.25414 61.424L13.4736 25.9533Z" stroke="#F5A623" stroke-width="2.05494"/>
    <path d="M52.5604 42.853V30.973H58.6804V32.953H54.7744V35.833H56.2324C58.2664 35.833 59.5624 37.165 59.5624 39.307C59.5624 41.431 58.2304 42.853 56.2324 42.853H52.5604ZM54.7744 40.963H55.9444C56.8264 40.963 57.3844 40.351 57.3844 39.307C57.3844 38.281 56.8444 37.651 55.9444 37.651H54.7744V40.963ZM64.0843 43.069C61.5103 43.069 60.3043 41.089 60.3043 36.877C60.3043 32.719 61.5103 30.757 64.0843 30.757C66.6943 30.757 67.9183 32.701 67.9183 36.859C67.9183 41.053 66.6763 43.069 64.0843 43.069ZM64.0843 41.035C65.2363 41.035 65.6863 39.883 65.6863 36.913C65.6863 33.925 65.2363 32.791 64.0843 32.791C62.9683 32.791 62.5363 33.889 62.5363 36.877C62.5363 39.901 62.9683 41.035 64.0843 41.035ZM69.9461 30.973H76.4981V42.853H74.2841V32.989H72.0341L71.9801 35.491C71.8721 41.359 71.5481 42.943 69.1541 42.943C68.8841 42.943 68.6501 42.907 68.4341 42.871V40.981H68.7221C69.6041 40.981 69.7841 40.135 69.8741 35.473L69.9461 30.973ZM78.0838 42.853V30.973H80.2978V35.131H81.2698C83.7538 35.131 85.1938 36.535 85.1938 39.001C85.1938 41.449 83.7718 42.853 81.2698 42.853H78.0838ZM80.2978 40.873H81.2878C82.4038 40.873 82.9438 40.261 82.9438 38.983C82.9438 37.741 82.4038 37.129 81.2878 37.129H80.2978V40.873ZM86.3104 42.853V30.973H88.5244V40.837H90.9904V30.973H93.2044V40.837H95.6704V30.973H97.8844V42.853H86.3104ZM99.4764 42.853V30.973H105.182V32.953H101.69V35.635H104.318V37.543H101.69V40.855H105.344V42.853H99.4764ZM115.237 36.715C116.209 37.183 116.713 38.119 116.713 39.559C116.713 41.809 115.489 43.051 113.293 43.051C111.349 43.051 110.215 42.079 109.819 40.081L111.745 39.487C111.979 40.549 112.447 41.035 113.239 41.035C114.121 41.035 114.589 40.477 114.589 39.379C114.589 38.299 114.049 37.669 113.113 37.669H112.015V35.851H113.113C114.013 35.851 114.499 35.311 114.499 34.339C114.499 33.331 114.067 32.791 113.275 32.791C112.501 32.791 112.051 33.259 111.817 34.303L109.909 33.691C110.341 31.711 111.421 30.757 113.311 30.757C115.435 30.757 116.623 31.981 116.623 34.123C116.623 35.419 116.173 36.283 115.237 36.715ZM122.888 42.853L122.492 41.197H119.576L119.198 42.853H116.948L120.476 30.973H121.628L125.138 42.853H122.888ZM121.034 35.167L119.99 39.415H122.078L121.034 35.167ZM133.599 42.853H131.151L128.145 36.805V42.853H125.931V30.973H128.145V36.319L130.989 30.973H133.437L130.467 36.553L133.599 42.853ZM139.658 42.853L139.262 41.197H136.346L135.968 42.853H133.718L137.246 30.973H138.398L141.908 42.853H139.658ZM137.804 35.167L136.76 39.415H138.848L137.804 35.167ZM147.546 36.715C148.518 37.183 149.022 38.119 149.022 39.559C149.022 41.809 147.798 43.051 145.602 43.051C143.658 43.051 142.524 42.079 142.128 40.081L144.054 39.487C144.288 40.549 144.756 41.035 145.548 41.035C146.43 41.035 146.898 40.477 146.898 39.379C146.898 38.299 146.358 37.669 145.422 37.669H144.324V35.851H145.422C146.322 35.851 146.808 35.311 146.808 34.339C146.808 33.331 146.376 32.791 145.584 32.791C144.81 32.791 144.36 33.259 144.126 34.303L142.218 33.691C142.65 31.711 143.73 30.757 145.62 30.757C147.744 30.757 148.932 31.981 148.932 34.123C148.932 35.419 148.482 36.283 147.546 36.715ZM153.61 43.069C151.036 43.069 149.83 41.089 149.83 36.877C149.83 32.719 151.036 30.757 153.61 30.757C156.22 30.757 157.444 32.701 157.444 36.859C157.444 41.053 156.202 43.069 153.61 43.069ZM153.61 41.035C154.762 41.035 155.212 39.883 155.212 36.913C155.212 33.925 154.762 32.791 153.61 32.791C152.494 32.791 152.062 33.889 152.062 36.877C152.062 39.901 152.494 41.035 153.61 41.035ZM164.098 36.607C165.106 37.165 165.718 38.173 165.718 39.469C165.718 41.467 164.278 42.853 162.208 42.853H158.68V30.973H161.632C163.846 30.973 165.178 32.179 165.178 34.195C165.178 35.257 164.8 36.085 164.098 36.607ZM161.578 32.827H160.786V35.797H161.578C162.586 35.797 163.054 35.275 163.054 34.321C163.054 33.349 162.568 32.827 161.578 32.827ZM161.938 40.999C163.036 40.999 163.594 40.405 163.594 39.325C163.594 38.227 163.036 37.615 161.956 37.615H160.786V40.999H161.938Z" fill="black"/>
    <path d="M14.8865 65.853V53.973H20.2505V55.161H16.2005V58.995H17.8205C19.8005 58.995 21.0605 60.273 21.0605 62.415C21.0605 64.503 19.7645 65.853 17.8205 65.853H14.8865ZM16.2005 64.665H17.6585C18.9185 64.665 19.7465 63.801 19.7465 62.415C19.7465 61.047 18.9365 60.183 17.6585 60.183H16.2005V64.665ZM25.6114 66.051C23.2354 66.051 22.1554 64.125 22.1554 59.895C22.1554 55.683 23.2354 53.775 25.6114 53.775C27.9874 53.775 29.0854 55.683 29.0854 59.877C29.0854 64.107 27.9874 66.051 25.6114 66.051ZM25.6114 64.863C27.1234 64.863 27.7714 63.405 27.7714 59.895C27.7714 56.457 27.1054 54.963 25.6114 54.963C24.1354 54.963 23.4874 56.439 23.4874 59.895C23.4874 63.405 24.1174 64.863 25.6114 64.863ZM31.6068 53.973H37.3128V65.853H36.0168V55.161H32.8668L32.7768 58.689C32.6328 64.575 32.2008 65.907 30.4368 65.907C30.2388 65.907 30.0588 65.889 29.8968 65.853V64.701C30.0048 64.719 30.0948 64.737 30.2028 64.737C31.1388 64.737 31.3908 63.621 31.4988 58.689L31.6068 53.973ZM39.3025 65.853V53.973H40.6165V58.725H41.9125C44.2345 58.725 45.5305 60.003 45.5305 62.307C45.5305 64.575 44.2525 65.853 41.9125 65.853H39.3025ZM40.6165 64.665H41.9125C43.4425 64.665 44.1985 63.873 44.1985 62.289C44.1985 60.705 43.4605 59.931 41.9125 59.931H40.6165V64.665ZM46.949 65.853V53.973H48.263V64.665H51.629V53.973H52.943V64.665H56.309V53.973H57.623V65.853H46.949ZM59.6228 65.853V53.973H64.8608V55.143H60.9368V58.887H63.9608V60.075H60.9368V64.683H64.9868V65.853H59.6228ZM70.0818 65.853V53.973H74.8878V55.161H71.3958V65.853H70.0818ZM76.1463 65.853V53.973H81.3843V55.143H77.4603V58.887H80.4843V60.075H77.4603V64.683H81.5103V65.853H76.1463ZM83.0017 65.853V53.973H85.6117C87.8437 53.973 89.1037 55.215 89.1037 57.393C89.1037 59.607 87.8437 60.867 85.6117 60.867H84.3157V65.853H83.0017ZM84.3157 59.661H85.6117C87.0517 59.661 87.7717 58.905 87.7717 57.411C87.7717 55.935 87.0337 55.161 85.6117 55.161H84.3157V59.661ZM93.6212 66.051C91.2452 66.051 90.1652 64.125 90.1652 59.895C90.1652 55.683 91.2452 53.775 93.6212 53.775C95.9972 53.775 97.0952 55.683 97.0952 59.877C97.0952 64.107 95.9972 66.051 93.6212 66.051ZM93.6212 64.863C95.1332 64.863 95.7812 63.405 95.7812 59.895C95.7812 56.457 95.1152 54.963 93.6212 54.963C92.1452 54.963 91.4972 56.439 91.4972 59.895C91.4972 63.405 92.1272 64.863 93.6212 64.863ZM102.047 52.677C100.697 52.677 99.9226 51.795 99.9226 50.301V49.473H100.967V50.301C100.967 51.147 101.363 51.669 102.047 51.669C102.695 51.669 103.091 51.165 103.091 50.301V49.473H104.135V50.301C104.135 51.795 103.361 52.677 102.047 52.677ZM104.567 53.973H105.287V65.853H103.991V57.393L99.4546 65.853H98.7166V53.973H100.049V62.343L104.567 53.973ZM116.731 53.973H117.451V65.853H116.155V57.393L111.619 65.853H110.881V53.973H112.213V62.343L116.731 53.973ZM129.165 68.391V65.853H123.045V53.973H124.359V64.665H128.211V53.973H129.507V64.665H130.461V68.391H129.165ZM131.816 65.853V53.973H137.054V55.143H133.13V58.887H136.154V60.075H133.13V64.683H137.18V65.853H131.816ZM138.672 65.853V53.973H139.986V58.887H143.946V53.973H145.242V65.853H143.946V60.075H139.986V65.853H138.672ZM147.232 65.853V53.973H148.546V58.887H152.506V53.973H153.802V65.853H152.506V60.075H148.546V65.853H147.232ZM155.793 65.853V53.973H161.031V55.143H157.107V58.887H160.131V60.075H157.107V64.683H161.157V65.853H155.793ZM162.648 65.853V53.973H167.886V55.143H163.962V58.887H166.986V60.075H163.962V64.683H168.012V65.853H162.648ZM173.107 65.853V53.973H179.569V65.853H178.273V55.161H174.403V65.853H173.107ZM181.562 65.853V53.973H184.172C186.404 53.973 187.664 55.215 187.664 57.393C187.664 59.607 186.404 60.867 184.172 60.867H182.876V65.853H181.562ZM182.876 59.661H184.172C185.612 59.661 186.332 58.905 186.332 57.411C186.332 55.935 185.594 55.161 184.172 55.161H182.876V59.661ZM194.936 53.973H195.656V65.853H194.36V57.393L189.824 65.853H189.086V53.973H190.418V62.343L194.936 53.973ZM201.822 59.553C202.83 60.003 203.406 61.065 203.406 62.595C203.406 64.791 202.254 66.033 200.238 66.033C198.564 66.033 197.538 65.115 197.142 63.297L198.348 62.973C198.654 64.269 199.212 64.863 200.22 64.863C201.426 64.863 202.092 64.053 202.092 62.523C202.092 61.029 201.408 60.201 200.166 60.201H198.888V58.995H200.166C201.246 58.995 201.894 58.293 201.894 57.069C201.894 55.737 201.264 54.963 200.202 54.963C199.248 54.963 198.672 55.539 198.384 56.745L197.178 56.367C197.664 54.603 198.618 53.775 200.22 53.775C202.092 53.775 203.208 54.981 203.208 56.997C203.208 58.257 202.722 59.139 201.822 59.553Z" fill="black"/>
    <g filter="url(#filter0_d_2301_23160)">
        <path d="M112.964 98.0017C120.664 99.8017 125.164 107.002 125.164 118.202C125.164 131.802 118.464 140.002 107.364 140.002C98.0643 140.002 91.7643 133.702 90.1643 122.702L100.664 120.102C101.764 126.202 103.764 128.702 107.164 128.702C111.164 128.702 113.264 125.402 113.264 118.702C113.264 110.102 110.564 108.002 104.364 108.002H98.3643V103.202L108.864 83.4017H92.2643V72.8017H123.764V78.0017L112.964 98.0017Z" fill="#E4002B"/>
    </g>
    <defs>
        <filter id="filter0_d_2301_23160" x="90.1641" y="72.8017" width="36.37" height="68.57" filterUnits="userSpaceOnUse" color-interpolation-filters="sRGB">
            <feFlood flood-opacity="0" result="BackgroundImageFix"/>
            <feColorMatrix in="SourceAlpha" type="matrix" values="0 0 0 0 0 0 0 0 0 0 0 0 0 0 0 0 0 0 127 0" result="hardAlpha"/>
            <feOffset dx="1.36996" dy="1.36996"/>
            <feComposite in2="hardAlpha" operator="out"/>
            <feColorMatrix type="matrix" values="0 0 0 0 0.960784 0 0 0 0 0.65098 0 0 0 0 0.137255 0 0 0 1 0"/>
            <feBlend mode="normal" in2="BackgroundImageFix" result="effect1_dropShadow_2301_23160"/>
            <feBlend mode="normal" in="SourceGraphic" in2="effect1_dropShadow_2301_23160" result="shape"/>
        </filter>
    </defs>
</svg>
