<svg width="270" height="191" viewBox="0 0 270 191" fill="none" xmlns="http://www.w3.org/2000/svg">
    <path d="M4.69838 83.6806C4.80035 69.3243 15.0592 57.0525 29.1701 54.4072L223.167 18.0404C241.025 14.6929 257.736 27.8612 258.656 46.0063L264.346 158.126C265.236 175.664 250.939 190.213 233.388 189.63L33.2104 182.977C16.956 182.437 4.09207 169.044 4.20758 152.781L4.69838 83.6806Z" fill="white" stroke="#F5A623" stroke-linecap="round" stroke-dasharray="5 5"/>
    <path d="M266.861 74.645C267.718 58.7647 255.413 45.2551 239.522 44.6304L35.2152 36.5993C17.6537 35.909 3.65869 51.1233 5.81015 68.5662L16.6221 156.224C18.4323 170.899 31.1653 181.753 45.9422 181.216L235.509 174.332C250.244 173.796 262.138 162.11 262.933 147.387L266.861 74.645Z" stroke="#F5A623" stroke-width="3"/>
    <path d="M65.23 66.9299C62.656 66.9299 61.45 64.9499 61.45 60.7379C61.45 56.5799 62.656 54.6179 65.23 54.6179C67.84 54.6179 69.064 56.5619 69.064 60.7199C69.064 64.9139 67.822 66.9299 65.23 66.9299ZM65.23 64.8959C66.382 64.8959 66.832 63.7439 66.832 60.7739C66.832 57.7859 66.382 56.6519 65.23 56.6519C64.114 56.6519 63.682 57.7499 63.682 60.7379C63.682 63.7619 64.114 64.8959 65.23 64.8959ZM79.5518 60.7919C79.5518 63.6359 78.2018 65.3459 75.8618 65.5259V67.0739H73.6478V65.5259C71.2898 65.3459 69.9578 63.6359 69.9578 60.7919C69.9578 57.8039 71.2898 56.0219 73.6478 55.8419V54.4739H75.8618V55.8419C78.2198 56.0219 79.5518 57.8039 79.5518 60.7919ZM72.0098 60.7559C72.0098 62.6279 72.5498 63.4919 73.7558 63.5819V57.7859C72.5318 57.8759 72.0098 58.7759 72.0098 60.7559ZM75.7538 63.5819C76.9598 63.4919 77.4998 62.6279 77.4998 60.7559C77.4998 58.7759 76.9778 57.8759 75.7538 57.7859V63.5819ZM84.232 66.9299C81.658 66.9299 80.452 64.9499 80.452 60.7379C80.452 56.5799 81.658 54.6179 84.232 54.6179C86.842 54.6179 88.066 56.5619 88.066 60.7199C88.066 64.9139 86.824 66.9299 84.232 66.9299ZM84.232 64.8959C85.384 64.8959 85.834 63.7439 85.834 60.7739C85.834 57.7859 85.384 56.6519 84.232 56.6519C83.116 56.6519 82.684 57.7499 82.684 60.7379C82.684 63.7619 83.116 64.8959 84.232 64.8959ZM89.3018 66.7139V54.8339H92.4878C94.9538 54.8339 96.3578 56.2199 96.3578 58.6319C96.3578 61.0619 94.9358 62.4479 92.4878 62.4479H91.5158V66.7139H89.3018ZM91.5158 60.4679H92.5058C93.5858 60.4679 94.1258 59.8559 94.1258 58.6499C94.1258 57.4079 93.5858 56.8139 92.5058 56.8139H91.5158V60.4679ZM104.712 54.8339H105.864V66.7139H103.668V60.8999L102.066 63.9239H101.292L99.6896 60.9359V66.7139H97.4756V54.8339H98.6456L101.688 60.6119L104.712 54.8339ZM108.252 54.8339H114.804V66.7139H112.59V56.8499H110.34L110.286 59.3519C110.178 65.2199 109.854 66.8039 107.46 66.8039C107.19 66.8039 106.956 66.7679 106.74 66.7319V64.8419H107.028C107.91 64.8419 108.09 63.9959 108.18 59.3339L108.252 54.8339ZM120.044 54.8339H123.23V66.7139H121.016V62.6819H120.026L118.334 66.7139H116.03L117.974 62.1959C116.84 61.5479 116.174 60.3239 116.174 58.7579C116.174 56.2919 117.596 54.8339 120.044 54.8339ZM121.016 60.6839V56.8139H120.044C118.964 56.8139 118.406 57.4619 118.406 58.7579C118.406 60.0359 118.964 60.6839 120.044 60.6839H121.016ZM128.518 53.5739C126.988 53.5739 126.088 52.6739 126.088 51.1259V50.3339H127.744V51.1259C127.744 51.6659 128.032 51.9899 128.518 51.9899C128.968 51.9899 129.256 51.6839 129.256 51.1259V50.3339H130.912V51.1259C130.912 52.6739 130.03 53.5739 128.518 53.5739ZM130.966 54.8339H132.118V66.7139H129.922V60.1619L125.98 66.7139H124.81V54.8339H127.042V61.2779L130.966 54.8339ZM142.293 60.5759C143.265 61.0439 143.769 61.9799 143.769 63.4199C143.769 65.6699 142.545 66.9119 140.349 66.9119C138.405 66.9119 137.271 65.9399 136.875 63.9419L138.801 63.3479C139.035 64.4099 139.503 64.8959 140.295 64.8959C141.177 64.8959 141.645 64.3379 141.645 63.2399C141.645 62.1599 141.105 61.5299 140.169 61.5299H139.071V59.7119H140.169C141.069 59.7119 141.555 59.1719 141.555 58.1999C141.555 57.1919 141.123 56.6519 140.331 56.6519C139.557 56.6519 139.107 57.1199 138.873 58.1639L136.965 57.5519C137.397 55.5719 138.477 54.6179 140.367 54.6179C142.491 54.6179 143.679 55.8419 143.679 57.9839C143.679 59.2799 143.229 60.1439 142.293 60.5759ZM149.944 66.7139L149.548 65.0579H146.632L146.254 66.7139H144.004L147.532 54.8339H148.684L152.194 66.7139H149.944ZM148.09 59.0279L147.046 63.2759H149.134L148.09 59.0279ZM160.655 66.7139H158.207L155.201 60.6659V66.7139H152.987V54.8339H155.201V60.1799L158.045 54.8339H160.493L157.523 60.4139L160.655 66.7139ZM166.713 66.7139L166.317 65.0579H163.401L163.023 66.7139H160.773L164.301 54.8339H165.453L168.963 66.7139H166.713ZM164.859 59.0279L163.815 63.2759H165.903L164.859 59.0279ZM174.602 60.5759C175.574 61.0439 176.078 61.9799 176.078 63.4199C176.078 65.6699 174.854 66.9119 172.658 66.9119C170.714 66.9119 169.58 65.9399 169.184 63.9419L171.11 63.3479C171.344 64.4099 171.812 64.8959 172.604 64.8959C173.486 64.8959 173.954 64.3379 173.954 63.2399C173.954 62.1599 173.414 61.5299 172.478 61.5299H171.38V59.7119H172.478C173.378 59.7119 173.864 59.1719 173.864 58.1999C173.864 57.1919 173.432 56.6519 172.64 56.6519C171.866 56.6519 171.416 57.1199 171.182 58.1639L169.274 57.5519C169.706 55.5719 170.786 54.6179 172.676 54.6179C174.8 54.6179 175.988 55.8419 175.988 57.9839C175.988 59.2799 175.538 60.1439 174.602 60.5759ZM184.269 66.9299C181.695 66.9299 180.489 64.9499 180.489 60.7379C180.489 56.5799 181.695 54.6179 184.269 54.6179C186.879 54.6179 188.103 56.5619 188.103 60.7199C188.103 64.9139 186.861 66.9299 184.269 66.9299ZM184.269 64.8959C185.421 64.8959 185.871 63.7439 185.871 60.7739C185.871 57.7859 185.421 56.6519 184.269 56.6519C183.153 56.6519 182.721 57.7499 182.721 60.7379C182.721 63.7619 183.153 64.8959 184.269 64.8959ZM190.981 66.7139V56.8499H188.551V54.8339H195.625V56.8499H193.195V66.7139H190.981ZM206.193 62.7539V64.6439H205.329V66.7139H203.205V64.6439H199.011V63.5639L201.243 54.8339H203.349L201.351 62.7539H203.205V59.0999H205.329V62.7539H206.193ZM210.368 66.9299C208.01 66.9299 206.966 65.0399 206.966 60.7739C206.966 56.5079 208.01 54.6179 210.368 54.6179C212.708 54.6179 213.752 56.5079 213.752 60.7739C213.752 65.0399 212.708 66.9299 210.368 66.9299ZM210.368 64.9319C211.286 64.9319 211.592 63.9419 211.592 60.7919C211.592 57.6239 211.286 56.6159 210.368 56.6159C209.432 56.6159 209.126 57.6239 209.126 60.7919C209.126 63.9419 209.432 64.9319 210.368 64.9319ZM218.454 66.9299C216.096 66.9299 215.052 65.0399 215.052 60.7739C215.052 56.5079 216.096 54.6179 218.454 54.6179C220.794 54.6179 221.838 56.5079 221.838 60.7739C221.838 65.0399 220.794 66.9299 218.454 66.9299ZM218.454 64.9319C219.372 64.9319 219.678 63.9419 219.678 60.7919C219.678 57.6239 219.372 56.6159 218.454 56.6159C217.518 56.6159 217.212 57.6239 217.212 60.7919C217.212 63.9419 217.518 64.9319 218.454 64.9319ZM223.588 66.7139V64.7159H222.562V62.9879H223.588V61.6919H222.562V59.8919H223.588V54.8339H226.432C228.574 54.8339 229.78 56.0579 229.78 58.2359C229.78 60.4679 228.556 61.6919 226.432 61.6919H225.694V62.9879H228.772V64.7159H225.694V66.7139H223.588ZM225.694 59.8919H226.27C227.206 59.8919 227.62 59.3879 227.62 58.2539C227.62 57.1379 227.206 56.6339 226.27 56.6339H225.694V59.8919ZM230.801 69.9179L230.873 64.6979H233.267L232.529 69.9179H230.801ZM65.176 84.9299C62.656 84.9299 61.45 82.9139 61.45 78.7739C61.45 74.6159 62.656 72.6179 65.176 72.6179C67.048 72.6179 68.11 73.6259 68.524 75.8939L66.562 76.3979C66.328 75.1919 65.914 74.6519 65.194 74.6519C64.132 74.6519 63.682 75.8579 63.682 78.7739C63.682 81.6899 64.132 82.8959 65.194 82.8959C65.914 82.8959 66.328 82.3559 66.562 81.1499L68.524 81.6539C68.11 83.9219 67.048 84.9299 65.176 84.9299ZM77.3526 84.7139H74.9046L71.8986 78.6659V84.7139H69.6846V72.8339H71.8986V78.1799L74.7426 72.8339H77.1906L74.2206 78.4139L77.3526 84.7139ZM83.4107 84.7139L83.0147 83.0579H80.0987L79.7207 84.7139H77.4707L80.9987 72.8339H82.1507L85.6607 84.7139H83.4107ZM81.5567 77.0279L80.5127 81.2759H82.6007L81.5567 77.0279ZM86.4541 84.7139V72.8339H88.6681V77.4419H91.5661V72.8339H93.7621V84.7139H91.5661V79.4579H88.6681V84.7139H86.4541ZM101.522 72.8339H102.674V84.7139H100.478V78.1619L96.5362 84.7139H95.3662V72.8339H97.5982V79.2779L101.522 72.8339ZM104.278 84.7139V72.8339H107.464C109.93 72.8339 111.334 74.2199 111.334 76.6319C111.334 79.0619 109.912 80.4479 107.464 80.4479H106.492V84.7139H104.278ZM106.492 78.4679H107.482C108.562 78.4679 109.102 77.8559 109.102 76.6499C109.102 75.4079 108.562 74.8139 107.482 74.8139H106.492V78.4679ZM117.066 72.8339H119.352L116.616 82.0499C115.986 84.1199 115.212 84.8759 113.682 84.8759C113.304 84.8759 112.962 84.8399 112.566 84.7319V82.8419C112.8 82.8599 112.98 82.8779 113.214 82.8779C113.826 82.8779 114.186 82.6079 114.456 81.9059L111.414 72.8339H113.772L115.5 78.5939L117.066 72.8339ZM123.243 72.8339H126.429V84.7139H124.215V80.6819H123.225L121.533 84.7139H119.229L121.173 80.1959C120.039 79.5479 119.373 78.3239 119.373 76.7579C119.373 74.2919 120.795 72.8339 123.243 72.8339ZM124.215 78.6839V74.8139H123.243C122.163 74.8139 121.605 75.4619 121.605 76.7579C121.605 78.0359 122.163 78.6839 123.243 78.6839H124.215ZM139.514 86.2979H139.838V88.0259C139.604 88.0979 139.352 88.1339 139.082 88.1339C137.498 88.1339 136.634 87.3959 135.518 84.9119C135.356 84.9299 135.212 84.9299 135.05 84.9299C132.476 84.9299 131.27 82.9499 131.27 78.7379C131.27 74.5799 132.476 72.6179 135.05 72.6179C137.66 72.6179 138.884 74.5619 138.884 78.7199C138.884 81.4199 138.362 83.2199 137.3 84.1559C138.146 85.9559 138.56 86.2979 139.514 86.2979ZM133.502 78.7379C133.502 81.7619 133.934 82.8959 135.05 82.8959C136.202 82.8959 136.652 81.7439 136.652 78.7739C136.652 75.7859 136.202 74.6519 135.05 74.6519C133.934 74.6519 133.502 75.7499 133.502 78.7379ZM147.734 84.7139H145.412L143.576 80.4479H143.306H142.334V84.7139H140.12V72.8339H143.306C145.772 72.8339 147.176 74.2199 147.176 76.6319C147.176 78.1619 146.618 79.2599 145.592 79.8899L147.734 84.7139ZM142.334 74.8139V78.4679H143.324C144.404 78.4679 144.944 77.8559 144.944 76.6499C144.944 75.4079 144.404 74.8139 143.324 74.8139H142.334ZM148.129 79.9259V78.0179H151.405V79.9259H148.129ZM160.374 84.7139H157.926L154.92 78.6659V84.7139H152.706V72.8339H154.92V78.1799L157.764 72.8339H160.212L157.242 78.4139L160.374 84.7139ZM164.089 84.9299C161.515 84.9299 160.309 82.9499 160.309 78.7379C160.309 74.5799 161.515 72.6179 164.089 72.6179C166.699 72.6179 167.923 74.5619 167.923 78.7199C167.923 82.9139 166.681 84.9299 164.089 84.9299ZM164.089 82.8959C165.241 82.8959 165.691 81.7439 165.691 78.7739C165.691 75.7859 165.241 74.6519 164.089 74.6519C162.973 74.6519 162.541 75.7499 162.541 78.7379C162.541 81.7619 162.973 82.8959 164.089 82.8959ZM176.473 82.6979H177.535V87.2519H175.321V84.7139H170.551V87.2519H168.355V82.6979H169.021C169.507 82.0499 169.705 80.3939 169.741 77.3339L169.813 72.8339H176.473V82.6979ZM171.829 77.3519C171.793 79.9259 171.595 81.5819 171.127 82.6979H174.277V74.8499H171.883L171.829 77.3519ZM182.202 84.7139V72.8339H184.416V77.4419H187.314V72.8339H189.51V84.7139H187.314V79.4579H184.416V84.7139H182.202ZM196.262 84.7139L195.866 83.0579H192.95L192.572 84.7139H190.322L193.85 72.8339H195.002L198.512 84.7139H196.262ZM194.408 77.0279L193.364 81.2759H195.452L194.408 77.0279ZM209.944 84.7139H207.496L204.49 78.6659V84.7139H202.276V72.8339H204.49V78.1799L207.334 72.8339H209.782L206.812 78.4139L209.944 84.7139ZM217.011 72.8339H218.163V84.7139H215.967V78.1619L212.025 84.7139H210.855V72.8339H213.087V79.2779L217.011 72.8339ZM223.205 84.9299C220.631 84.9299 219.425 82.9499 219.425 78.7379C219.425 74.5799 220.631 72.6179 223.205 72.6179C225.815 72.6179 227.039 74.5619 227.039 78.7199C227.039 82.9139 225.797 84.9299 223.205 84.9299ZM223.205 82.8959C224.357 82.8959 224.807 81.7439 224.807 78.7739C224.807 75.7859 224.357 74.6519 223.205 74.6519C222.089 74.6519 221.657 75.7499 221.657 78.7379C221.657 81.7619 222.089 82.8959 223.205 82.8959ZM231.658 84.9299C229.138 84.9299 227.932 82.9139 227.932 78.7739C227.932 74.6159 229.138 72.6179 231.658 72.6179C233.53 72.6179 234.592 73.6259 235.006 75.8939L233.044 76.3979C232.81 75.1919 232.396 74.6519 231.676 74.6519C230.614 74.6519 230.164 75.8579 230.164 78.7739C230.164 81.6899 230.614 82.8959 231.676 82.8959C232.396 82.8959 232.81 82.3559 233.044 81.1499L235.006 81.6539C234.592 83.9219 233.53 84.9299 231.658 84.9299ZM243.835 84.7139H241.387L238.381 78.6659V84.7139H236.167V72.8339H238.381V78.1799L241.225 72.8339H243.673L240.703 78.4139L243.835 84.7139ZM244.745 84.7139V72.8339H250.451V74.8139H246.959V77.4959H249.587V79.4039H246.959V82.7159H250.613V84.7139H244.745Z" fill="black"/>
    <path d="M67.84 95.8339H68.56V107.714H67.264V99.2539L62.728 107.714H61.99V95.8339H63.322V104.204L67.84 95.8339ZM71.4505 95.8339H77.1565V107.714H75.8605V97.0219H72.7105L72.6205 100.55C72.4765 106.436 72.0445 107.768 70.2805 107.768C70.0825 107.768 69.9025 107.75 69.7405 107.714V106.562C69.8485 106.58 69.9385 106.598 70.0465 106.598C70.9825 106.598 71.2345 105.482 71.3425 100.55L71.4505 95.8339ZM84.9963 95.8339H85.7163V107.714H84.4203V99.2539L79.8843 107.714H79.1463V95.8339H80.4783V104.204L84.9963 95.8339ZM95.4863 101.414C96.4943 101.864 97.0703 102.926 97.0703 104.456C97.0703 106.652 95.9183 107.894 93.9023 107.894C92.2283 107.894 91.2023 106.976 90.8063 105.158L92.0123 104.834C92.3183 106.13 92.8763 106.724 93.8843 106.724C95.0903 106.724 95.7563 105.914 95.7563 104.384C95.7563 102.89 95.0723 102.062 93.8303 102.062H92.5523V100.856H93.8303C94.9103 100.856 95.5583 100.154 95.5583 98.9299C95.5583 97.5979 94.9283 96.8239 93.8663 96.8239C92.9123 96.8239 92.3363 97.3999 92.0483 98.6059L90.8423 98.2279C91.3283 96.4639 92.2823 95.6359 93.8843 95.6359C95.7563 95.6359 96.8723 96.8419 96.8723 98.8579C96.8723 100.118 96.3863 101 95.4863 101.414ZM103.811 107.714L103.145 105.284H99.6895L99.0415 107.714H97.7095L101.057 95.8339H101.777L105.143 107.714H103.811ZM101.417 98.7319L100.013 104.096H102.821L101.417 98.7319ZM106.392 107.714V95.8339H107.706V107.714H106.392ZM109.326 101.324L112.872 107.714H111.378L107.814 101.324L111.252 95.8339H112.746L109.326 101.324ZM119.632 107.714L118.966 105.284H115.51L114.862 107.714H113.53L116.878 95.8339H117.598L120.964 107.714H119.632ZM117.238 98.7319L115.834 104.096H118.642L117.238 98.7319ZM126.266 101.414C127.274 101.864 127.85 102.926 127.85 104.456C127.85 106.652 126.698 107.894 124.682 107.894C123.008 107.894 121.982 106.976 121.586 105.158L122.792 104.834C123.098 106.13 123.656 106.724 124.664 106.724C125.87 106.724 126.536 105.914 126.536 104.384C126.536 102.89 125.852 102.062 124.61 102.062H123.332V100.856H124.61C125.69 100.856 126.338 100.154 126.338 98.9299C126.338 97.5979 125.708 96.8239 124.646 96.8239C123.692 96.8239 123.116 97.3999 122.828 98.6059L121.622 98.2279C122.108 96.4639 123.062 95.6359 124.664 95.6359C126.536 95.6359 127.652 96.8419 127.652 98.8579C127.652 100.118 127.166 101 126.266 101.414ZM129.332 107.714V95.8339H130.646V100.586H131.942C134.264 100.586 135.56 101.864 135.56 104.168C135.56 106.436 134.282 107.714 131.942 107.714H129.332ZM136.64 107.714V95.8339H137.936V107.714H136.64ZM130.646 106.526H131.942C133.472 106.526 134.228 105.734 134.228 104.15C134.228 102.566 133.49 101.792 131.942 101.792H130.646V106.526ZM144.287 101.324C145.493 101.792 146.195 102.872 146.195 104.348C146.195 106.4 144.845 107.714 142.739 107.714H139.931V95.8339H142.361C144.431 95.8339 145.655 96.9499 145.655 98.8219C145.655 99.9919 145.169 100.838 144.287 101.324ZM142.307 97.0219H141.245V100.784H142.325C143.711 100.784 144.341 100.082 144.341 98.8759C144.341 97.6699 143.675 97.0219 142.307 97.0219ZM142.577 106.526C144.071 106.526 144.881 105.68 144.881 104.276C144.881 102.836 144.071 101.99 142.595 101.99H141.245V106.526H142.577ZM152.907 107.714L152.241 105.284H148.785L148.137 107.714H146.805L150.153 95.8339H150.873L154.239 107.714H152.907ZM150.513 98.7319L149.109 104.096H151.917L150.513 98.7319ZM158.818 94.5379C157.468 94.5379 156.694 93.6559 156.694 92.1619V91.3339H157.738V92.1619C157.738 93.0079 158.134 93.5299 158.818 93.5299C159.466 93.5299 159.862 93.0259 159.862 92.1619V91.3339H160.906V92.1619C160.906 93.6559 160.132 94.5379 158.818 94.5379ZM161.338 95.8339H162.058V107.714H160.762V99.2539L156.226 107.714H155.488V95.8339H156.82V104.204L161.338 95.8339ZM172.008 101.324C173.214 101.792 173.916 102.872 173.916 104.348C173.916 106.4 172.566 107.714 170.46 107.714H167.652V95.8339H170.082C172.152 95.8339 173.376 96.9499 173.376 98.8219C173.376 99.9919 172.89 100.838 172.008 101.324ZM170.028 97.0219H168.966V100.784H170.046C171.432 100.784 172.062 100.082 172.062 98.8759C172.062 97.6699 171.396 97.0219 170.028 97.0219ZM170.298 106.526C171.792 106.526 172.602 105.68 172.602 104.276C172.602 102.836 171.792 101.99 170.316 101.99H168.966V106.526H170.298ZM61.99 127.714V115.834H68.452V127.714H67.156V117.022H63.286V127.714H61.99ZM70.4451 127.714V115.834H73.0551C75.2871 115.834 76.5471 117.076 76.5471 119.254C76.5471 121.468 75.2871 122.728 73.0551 122.728H71.7591V127.714H70.4451ZM71.7591 121.522H73.0551C74.4951 121.522 75.2151 120.766 75.2151 119.272C75.2151 117.796 74.4771 117.022 73.0551 117.022H71.7591V121.522ZM83.8185 115.834H84.5385V127.714H83.2425V119.254L78.7065 127.714H77.9685V115.834H79.3005V124.204L83.8185 115.834ZM87.4291 115.834H93.1351V127.714H91.8391V117.022H88.6891L88.5991 120.55C88.4551 126.436 88.0231 127.768 86.2591 127.768C86.0611 127.768 85.8811 127.75 85.7191 127.714V126.562C85.8271 126.58 85.9171 126.598 86.0251 126.598C86.9611 126.598 87.2131 125.482 87.3211 120.55L87.4291 115.834ZM98.2208 127.912C95.8448 127.912 94.7648 125.986 94.7648 121.756C94.7648 117.544 95.8448 115.636 98.2208 115.636C100.597 115.636 101.695 117.544 101.695 121.738C101.695 125.968 100.597 127.912 98.2208 127.912ZM98.2208 126.724C99.7328 126.724 100.381 125.266 100.381 121.756C100.381 118.318 99.7148 116.824 98.2208 116.824C96.7448 116.824 96.0968 118.3 96.0968 121.756C96.0968 125.266 96.7268 126.724 98.2208 126.724ZM102.338 115.834H103.832L107.09 121.324L103.724 127.714H102.23L105.65 121.342L102.338 115.834ZM107.198 127.714V115.834H108.494V127.714H107.198ZM110.042 121.288L113.48 127.714H111.986L108.62 121.324L111.86 115.834H113.354L110.042 121.288ZM114.865 127.714V115.834H120.103V117.004H116.179V120.748H119.203V121.936H116.179V126.544H120.229V127.714H114.865ZM121.72 127.714V115.834H123.034V120.748H126.994V115.834H128.29V127.714H126.994V121.936H123.034V127.714H121.72ZM136.131 115.834H136.851V127.714H135.555V119.254L131.019 127.714H130.281V115.834H131.613V124.204L136.131 115.834ZM144.692 115.834H145.412V127.714H144.116V119.254L139.58 127.714H138.842V115.834H140.174V124.204L144.692 115.834ZM151.006 127.714V115.834H152.32V127.714H151.006ZM153.94 121.324L157.486 127.714H155.992L152.428 121.324L155.866 115.834H157.36L153.94 121.324ZM158.863 127.714V115.834H163.975V117.004H160.177V121.198H163.291V122.404H160.177V127.714H158.863ZM168.374 127.912C166.07 127.912 164.972 125.932 164.972 121.756C164.972 117.58 166.052 115.636 168.374 115.636C169.958 115.636 170.894 116.518 171.308 118.39L170.102 118.696C169.778 117.418 169.238 116.824 168.374 116.824C166.952 116.824 166.304 118.39 166.304 121.756C166.304 125.158 166.952 126.724 168.374 126.724C169.238 126.724 169.778 126.112 170.102 124.852L171.308 125.158C170.894 127.03 169.958 127.912 168.374 127.912ZM68.668 146.526H69.694V150.252H68.38V147.714H62.494V150.252H61.198V146.526H61.774C62.386 145.842 62.71 144.15 62.782 140.55L62.872 135.834H68.668V146.526ZM64.024 140.568C63.934 143.754 63.7 145.5 63.16 146.526H67.354V137.022H64.132L64.024 140.568ZM73.9454 147.912C71.5694 147.912 70.4894 145.986 70.4894 141.756C70.4894 137.544 71.5694 135.636 73.9454 135.636C76.3214 135.636 77.4194 137.544 77.4194 141.738C77.4194 145.968 76.3214 147.912 73.9454 147.912ZM73.9454 146.724C75.4574 146.724 76.1054 145.266 76.1054 141.756C76.1054 138.318 75.4394 136.824 73.9454 136.824C72.4694 136.824 71.8214 138.3 71.8214 141.756C71.8214 145.266 72.4514 146.724 73.9454 146.724ZM82.0828 147.912C79.7788 147.912 78.6808 145.932 78.6808 141.756C78.6808 137.58 79.7608 135.636 82.0828 135.636C83.6668 135.636 84.6028 136.518 85.0168 138.39L83.8108 138.696C83.4868 137.418 82.9468 136.824 82.0828 136.824C80.6608 136.824 80.0128 138.39 80.0128 141.756C80.0128 145.158 80.6608 146.724 82.0828 146.724C82.9468 146.724 83.4868 146.112 83.8108 144.852L85.0168 145.158C84.6028 147.03 83.6668 147.912 82.0828 147.912ZM88.4375 147.714V137.022H85.7735V135.834H92.3975V137.022H89.7515V147.714H88.4375ZM98.081 147.714L97.415 145.284H93.959L93.311 147.714H91.979L95.327 135.834H96.047L99.413 147.714H98.081ZM95.687 138.732L94.283 144.096H97.091L95.687 138.732ZM105.018 141.324C106.224 141.792 106.926 142.872 106.926 144.348C106.926 146.4 105.576 147.714 103.47 147.714H100.662V135.834H103.092C105.162 135.834 106.386 136.95 106.386 138.822C106.386 139.992 105.9 140.838 105.018 141.324ZM103.038 137.022H101.976V140.784H103.056C104.442 140.784 105.072 140.082 105.072 138.876C105.072 137.67 104.406 137.022 103.038 137.022ZM103.308 146.526C104.802 146.526 105.612 145.68 105.612 144.276C105.612 142.836 104.802 141.99 103.326 141.99H101.976V146.526H103.308ZM108.379 147.714V135.834H109.693V147.714H108.379ZM111.313 141.324L114.859 147.714H113.365L109.801 141.324L113.239 135.834H114.733L111.313 141.324ZM121.114 135.834H122.482L119.692 145.536C119.206 147.192 118.558 147.822 117.352 147.822C117.118 147.822 116.83 147.804 116.56 147.732V146.562C116.776 146.598 116.938 146.616 117.1 146.616C117.784 146.616 118.108 146.31 118.378 145.374L118.504 144.96L115.588 135.834H116.956L119.134 143.016L121.114 135.834ZM132.545 135.834H133.265V147.714H131.969V139.254L127.433 147.714H126.695V135.834H128.027V144.204L132.545 135.834ZM136.156 135.834H141.862V147.714H140.566V137.022H137.416L137.326 140.55C137.182 146.436 136.75 147.768 134.986 147.768C134.788 147.768 134.608 147.75 134.446 147.714V146.562C134.554 146.58 134.644 146.598 134.752 146.598C135.688 146.598 135.94 145.482 136.048 140.55L136.156 135.834ZM149.701 135.834H150.421V147.714H149.125V139.254L144.589 147.714H143.851V135.834H145.183V144.204L149.701 135.834ZM159.057 147.912C156.753 147.912 155.655 145.932 155.655 141.756C155.655 137.58 156.735 135.636 159.057 135.636C160.641 135.636 161.577 136.518 161.991 138.39L160.785 138.696C160.461 137.418 159.921 136.824 159.057 136.824C157.635 136.824 156.987 138.39 156.987 141.756C156.987 145.158 157.635 146.724 159.057 146.724C159.921 146.724 160.461 146.112 160.785 144.852L161.991 145.158C161.577 147.03 160.641 147.912 159.057 147.912ZM168.868 147.714L168.202 145.284H164.746L164.098 147.714H162.766L166.114 135.834H166.834L170.2 147.714H168.868ZM166.474 138.732L165.07 144.096H167.878L166.474 138.732ZM178.307 135.834H179.009V147.714H177.713V139.74L175.463 144.24H174.995L172.763 139.758V147.714H171.449V135.834H172.187L175.229 141.954L178.307 135.834ZM184.107 147.912C181.731 147.912 180.651 145.986 180.651 141.756C180.651 137.544 181.731 135.636 184.107 135.636C186.483 135.636 187.581 137.544 187.581 141.738C187.581 145.968 186.483 147.912 184.107 147.912ZM184.107 146.724C185.619 146.724 186.267 145.266 186.267 141.756C186.267 138.318 185.601 136.824 184.107 136.824C182.631 136.824 181.983 138.3 181.983 141.756C181.983 145.266 182.613 146.724 184.107 146.724ZM193.559 141.324C194.765 141.792 195.467 142.872 195.467 144.348C195.467 146.4 194.117 147.714 192.011 147.714H189.203V135.834H191.633C193.703 135.834 194.927 136.95 194.927 138.822C194.927 139.992 194.441 140.838 193.559 141.324ZM191.579 137.022H190.517V140.784H191.597C192.983 140.784 193.613 140.082 193.613 138.876C193.613 137.67 192.947 137.022 191.579 137.022ZM191.849 146.526C193.343 146.526 194.153 145.68 194.153 144.276C194.153 142.836 193.343 141.99 191.867 141.99H190.517V146.526H191.849ZM196.92 147.714V135.834H198.234V140.586H199.53C201.852 140.586 203.148 141.864 203.148 144.168C203.148 146.436 201.87 147.714 199.53 147.714H196.92ZM204.228 147.714V135.834H205.524V147.714H204.228ZM198.234 146.526H199.53C201.06 146.526 201.816 145.734 201.816 144.15C201.816 142.566 201.078 141.792 199.53 141.792H198.234V146.526ZM211.875 141.324C213.081 141.792 213.783 142.872 213.783 144.348C213.783 146.4 212.433 147.714 210.327 147.714H207.519V135.834H209.949C212.019 135.834 213.243 136.95 213.243 138.822C213.243 139.992 212.757 140.838 211.875 141.324ZM209.895 137.022H208.833V140.784H209.913C211.299 140.784 211.929 140.082 211.929 138.876C211.929 137.67 211.263 137.022 209.895 137.022ZM210.165 146.526C211.659 146.526 212.469 145.68 212.469 144.276C212.469 142.836 211.659 141.99 210.183 141.99H208.833V146.526H210.165ZM218.332 147.912C215.956 147.912 214.876 145.986 214.876 141.756C214.876 137.544 215.956 135.636 218.332 135.636C220.708 135.636 221.806 137.544 221.806 141.738C221.806 145.968 220.708 147.912 218.332 147.912ZM218.332 146.724C219.844 146.724 220.492 145.266 220.492 141.756C220.492 138.318 219.826 136.824 218.332 136.824C216.856 136.824 216.208 138.3 216.208 141.756C216.208 145.266 216.838 146.724 218.332 146.724ZM227.27 141.414C228.278 141.864 228.854 142.926 228.854 144.456C228.854 146.652 227.702 147.894 225.686 147.894C224.012 147.894 222.986 146.976 222.59 145.158L223.796 144.834C224.102 146.13 224.66 146.724 225.668 146.724C226.874 146.724 227.54 145.914 227.54 144.384C227.54 142.89 226.856 142.062 225.614 142.062H224.336V140.856H225.614C226.694 140.856 227.342 140.154 227.342 138.93C227.342 137.598 226.712 136.824 225.65 136.824C224.696 136.824 224.12 137.4 223.832 138.606L222.626 138.228C223.112 136.464 224.066 135.636 225.668 135.636C227.54 135.636 228.656 136.842 228.656 138.858C228.656 140.118 228.17 141 227.27 141.414Z" fill="black"/>
    <g filter="url(#filter0_d_2301_23241)">
        <path d="M28.3461 57.9H46.6461V68H12.2461V62.9L25.7461 40.7C30.7461 32.6 33.8461 27.2 33.8461 19.6C33.8461 13.8 31.7461 11.7 28.8461 11.7C26.1461 11.7 23.9461 13.9 23.9461 19.1C23.9461 20.8 24.0461 22.2 24.2461 24.8H12.8461C12.4461 22.9 12.3461 20.7 12.3461 18.3C12.3461 8.5 18.5461 0.799995 29.1461 0.799995C38.7461 0.799995 45.7461 6.9 45.7461 18.5C45.7461 27 43.0461 33.5 34.9461 47L28.3461 57.9Z" fill="#E4002B"/>
    </g>
    <defs>
        <filter id="filter0_d_2301_23241" x="12.2461" y="0.799988" width="36.4004" height="69.2" filterUnits="userSpaceOnUse" color-interpolation-filters="sRGB">
            <feFlood flood-opacity="0" result="BackgroundImageFix"/>
            <feColorMatrix in="SourceAlpha" type="matrix" values="0 0 0 0 0 0 0 0 0 0 0 0 0 0 0 0 0 0 127 0" result="hardAlpha"/>
            <feOffset dx="2" dy="2"/>
            <feComposite in2="hardAlpha" operator="out"/>
            <feColorMatrix type="matrix" values="0 0 0 0 0.960784 0 0 0 0 0.65098 0 0 0 0 0.137255 0 0 0 1 0"/>
            <feBlend mode="normal" in2="BackgroundImageFix" result="effect1_dropShadow_2301_23241"/>
            <feBlend mode="normal" in="SourceGraphic" in2="effect1_dropShadow_2301_23241" result="shape"/>
        </filter>
    </defs>
</svg>
