<svg width="250" height="98" viewBox="0 0 250 98" fill="none" xmlns="http://www.w3.org/2000/svg">
    <path d="M246.472 47.1773C248.259 29.9872 235.19 14.8457 217.923 14.1021L39.4863 6.41725C21.5034 5.64277 6.89125 20.768 8.28561 38.7135L10.6164 68.7111C11.881 84.9857 25.9256 97.2624 42.2231 96.3391L217.039 86.4356C231.737 85.6029 243.659 74.2289 245.181 59.5866L246.472 47.1773Z" fill="white" stroke="#F5A623" stroke-linecap="round" stroke-dasharray="5 5"/>
    <path d="M4.45789 46.32C2.92648 30.0765 15.3181 15.8653 31.6189 15.1707L202.25 7.90061C219.336 7.17264 233.212 21.5505 231.877 38.5995L229.767 65.5456C228.586 80.6254 215.831 92.156 200.709 91.8136L33.6855 88.0321C19.2321 87.7049 7.31338 76.6078 5.95641 62.2145L4.45789 46.32Z" stroke="#F5A623" stroke-width="3"/>
    <path d="M62.176 42.2164C59.656 42.2164 58.45 40.2004 58.45 36.0604C58.45 31.9024 59.656 29.9044 62.176 29.9044C64.048 29.9044 65.11 30.9124 65.524 33.1804L63.562 33.6844C63.328 32.4784 62.914 31.9384 62.194 31.9384C61.132 31.9384 60.682 33.1444 60.682 36.0604C60.682 38.9764 61.132 40.1824 62.194 40.1824C62.914 40.1824 63.328 39.6424 63.562 38.4364L65.524 38.9404C65.11 41.2084 64.048 42.2164 62.176 42.2164ZM74.3526 42.0004H71.9046L68.8986 35.9524V42.0004H66.6846V30.1204H68.8986V35.4664L71.7426 30.1204H74.1906L71.2206 35.7004L74.3526 42.0004ZM80.4107 42.0004L80.0147 40.3444H77.0987L76.7207 42.0004H74.4707L77.9987 30.1204H79.1507L82.6607 42.0004H80.4107ZM78.5567 34.3144L77.5127 38.5624H79.6007L78.5567 34.3144ZM87.3071 30.1204H89.5031V42.0004H87.3071V37.6084C86.7491 37.7884 86.1911 37.8784 85.6331 37.8784C83.5631 37.8784 82.3391 36.5824 82.3391 34.3324V30.1204H84.5351V34.1704C84.5351 35.2864 85.0211 35.8444 85.9931 35.8444C86.4431 35.8444 86.8751 35.7544 87.3071 35.5744V30.1204ZM96.2486 42.0004L95.8526 40.3444H92.9366L92.5586 42.0004H90.3086L93.8366 30.1204H94.9886L98.4986 42.0004H96.2486ZM94.3946 34.3144L93.3506 38.5624H95.4386L94.3946 34.3144ZM103 28.8604C101.47 28.8604 100.57 27.9604 100.57 26.4124V25.6204H102.226V26.4124C102.226 26.9524 102.514 27.2764 103 27.2764C103.45 27.2764 103.738 26.9704 103.738 26.4124V25.6204H105.394V26.4124C105.394 27.9604 104.512 28.8604 103 28.8604ZM105.448 30.1204H106.6V42.0004H104.404V35.4484L100.462 42.0004H99.292V30.1204H101.524V36.5644L105.448 30.1204ZM111.808 42.0004V30.1204H118.99V42.0004H116.776V32.1364H114.004V42.0004H111.808ZM120.579 42.0004V30.1204H123.765C126.231 30.1204 127.635 31.5064 127.635 33.9184C127.635 36.3484 126.213 37.7344 123.765 37.7344H122.793V42.0004H120.579ZM122.793 35.7544H123.783C124.863 35.7544 125.403 35.1424 125.403 33.9364C125.403 32.6944 124.863 32.1004 123.783 32.1004H122.793V35.7544ZM134.909 30.1204H136.061V42.0004H133.865V35.4484L129.923 42.0004H128.753V30.1204H130.985V36.5644L134.909 30.1204ZM138.457 30.1204H145.009V42.0004H142.795V32.1364H140.545L140.491 34.6384C140.383 40.5064 140.059 42.0904 137.665 42.0904C137.395 42.0904 137.161 42.0544 136.945 42.0184V40.1284H137.233C138.115 40.1284 138.295 39.2824 138.385 34.6204L138.457 30.1204ZM150.033 42.2164C147.459 42.2164 146.253 40.2364 146.253 36.0244C146.253 31.8664 147.459 29.9044 150.033 29.9044C152.643 29.9044 153.867 31.8484 153.867 36.0064C153.867 40.2004 152.625 42.2164 150.033 42.2164ZM150.033 40.1824C151.185 40.1824 151.635 39.0304 151.635 36.0604C151.635 33.0724 151.185 31.9384 150.033 31.9384C148.917 31.9384 148.485 33.0364 148.485 36.0244C148.485 39.0484 148.917 40.1824 150.033 40.1824ZM166.671 42.0004H164.223L161.415 35.9704V42.0004H159.201V35.9704L156.375 42.0004H153.945L156.933 35.7184L154.089 30.1204H156.537L159.201 35.4484V30.1204H161.415V35.4484L164.079 30.1204H166.509L163.683 35.6824L166.671 42.0004ZM167.601 42.0004V30.1204H173.307V32.1004H169.815V34.7824H172.443V36.6904H169.815V40.0024H173.469V42.0004H167.601ZM174.79 42.0004V30.1204H177.004V34.7284H179.902V30.1204H182.098V42.0004H179.902V36.7444H177.004V42.0004H174.79ZM189.858 30.1204H191.01V42.0004H188.814V35.4484L184.872 42.0004H183.702V30.1204H185.934V36.5644L189.858 30.1204ZM192.614 42.0004V30.1204H198.32V32.1004H194.828V34.7824H197.456V36.6904H194.828V40.0024H198.482V42.0004H192.614Z" fill="black"/>
    <path d="M64.84 53.1204H65.56V65.0004H64.264V56.5404L59.728 65.0004H58.99V53.1204H60.322V61.4904L64.84 53.1204ZM76.5361 65.0004L75.8701 62.5704H72.4141L71.7661 65.0004H70.4341L73.7821 53.1204H74.5021L77.8681 65.0004H76.5361ZM74.1421 56.0184L72.7381 61.3824H75.5461L74.1421 56.0184ZM83.473 58.6104C84.679 59.0784 85.381 60.1584 85.381 61.6344C85.381 63.6864 84.031 65.0004 81.925 65.0004H79.117V53.1204H81.547C83.617 53.1204 84.841 54.2364 84.841 56.1084C84.841 57.2784 84.355 58.1244 83.473 58.6104ZM81.493 54.3084H80.431V58.0704H81.511C82.897 58.0704 83.527 57.3684 83.527 56.1624C83.527 54.9564 82.861 54.3084 81.493 54.3084ZM81.763 63.8124C83.257 63.8124 84.067 62.9664 84.067 61.5624C84.067 60.1224 83.257 59.2764 81.781 59.2764H80.431V63.8124H81.763ZM88.4433 65.0004V54.3084H85.7793V53.1204H92.4033V54.3084H89.7573V65.0004H88.4433ZM96.4864 65.1984C94.1104 65.1984 93.0304 63.2724 93.0304 59.0424C93.0304 54.8304 94.1104 52.9224 96.4864 52.9224C98.8624 52.9224 99.9604 54.8304 99.9604 59.0244C99.9604 63.2544 98.8624 65.1984 96.4864 65.1984ZM96.4864 64.0104C97.9984 64.0104 98.6464 62.5524 98.6464 59.0424C98.6464 55.6044 97.9804 54.1104 96.4864 54.1104C95.0104 54.1104 94.3624 55.5864 94.3624 59.0424C94.3624 62.5524 94.9924 64.0104 96.4864 64.0104ZM101.582 65.0004V53.1204H104.192C106.424 53.1204 107.684 54.3624 107.684 56.5404C107.684 58.7544 106.424 60.0144 104.192 60.0144H102.896V65.0004H101.582ZM102.896 58.8084H104.192C105.632 58.8084 106.352 58.0524 106.352 56.5584C106.352 55.0824 105.614 54.3084 104.192 54.3084H102.896V58.8084ZM114.955 53.1204H115.675V65.0004H114.379V56.5404L109.843 65.0004H109.105V53.1204H110.437V61.4904L114.955 53.1204ZM121.842 58.7004C122.85 59.1504 123.426 60.2124 123.426 61.7424C123.426 63.9384 122.274 65.1804 120.258 65.1804C118.584 65.1804 117.558 64.2624 117.162 62.4444L118.368 62.1204C118.674 63.4164 119.232 64.0104 120.24 64.0104C121.446 64.0104 122.112 63.2004 122.112 61.6704C122.112 60.1764 121.428 59.3484 120.186 59.3484H118.908V58.1424H120.186C121.266 58.1424 121.914 57.4404 121.914 56.2164C121.914 54.8844 121.284 54.1104 120.222 54.1104C119.268 54.1104 118.692 54.6864 118.404 55.8924L117.198 55.5144C117.684 53.7504 118.638 52.9224 120.24 52.9224C122.112 52.9224 123.228 54.1284 123.228 56.1444C123.228 57.4044 122.742 58.2864 121.842 58.7004ZM129.663 53.1204H131.031L128.241 62.8224C127.755 64.4784 127.107 65.1084 125.901 65.1084C125.667 65.1084 125.379 65.0904 125.109 65.0184V63.8484C125.325 63.8844 125.487 63.9024 125.649 63.9024C126.333 63.9024 126.657 63.5964 126.927 62.6604L127.053 62.2464L124.137 53.1204H125.505L127.683 60.3024L129.663 53.1204ZM135.603 51.8244C134.253 51.8244 133.479 50.9424 133.479 49.4484V48.6204H134.523V49.4484C134.523 50.2944 134.919 50.8164 135.603 50.8164C136.251 50.8164 136.647 50.3124 136.647 49.4484V48.6204H137.691V49.4484C137.691 50.9424 136.917 51.8244 135.603 51.8244ZM138.123 53.1204H138.843V65.0004H137.547V56.5404L133.011 65.0004H132.273V53.1204H133.605V61.4904L138.123 53.1204ZM143.876 65.1984C141.572 65.1984 140.474 63.2184 140.474 59.0424C140.474 54.8664 141.554 52.9224 143.876 52.9224C145.46 52.9224 146.396 53.8044 146.81 55.6764L145.604 55.9824C145.28 54.7044 144.74 54.1104 143.876 54.1104C142.454 54.1104 141.806 55.6764 141.806 59.0424C141.806 62.4444 142.454 64.0104 143.876 64.0104C144.74 64.0104 145.28 63.3984 145.604 62.1384L146.81 62.4444C146.396 64.3164 145.46 65.1984 143.876 65.1984ZM151.243 53.1204H153.853V65.0004H152.557V60.3024H151.315H151.081L149.029 65.0004H147.643L149.803 60.0684C148.489 59.5824 147.769 58.4304 147.769 56.7024C147.769 54.4344 149.047 53.1204 151.243 53.1204ZM152.557 59.0964V54.3084H151.261C149.839 54.3084 149.083 55.1364 149.083 56.7024C149.083 58.2864 149.839 59.0964 151.261 59.0964H152.557ZM163.823 58.6104C165.029 59.0784 165.731 60.1584 165.731 61.6344C165.731 63.6864 164.381 65.0004 162.275 65.0004H159.467V53.1204H161.897C163.967 53.1204 165.191 54.2364 165.191 56.1084C165.191 57.2784 164.705 58.1244 163.823 58.6104ZM161.843 54.3084H160.781V58.0704H161.861C163.247 58.0704 163.877 57.3684 163.877 56.1624C163.877 54.9564 163.211 54.3084 161.843 54.3084ZM162.113 63.8124C163.607 63.8124 164.417 62.9664 164.417 61.5624C164.417 60.1224 163.607 59.2764 162.131 59.2764H160.781V63.8124H162.113ZM170.787 65.0004V53.1204H177.249V65.0004H175.953V54.3084H172.083V65.0004H170.787ZM179.242 65.0004V53.1204H181.852C184.084 53.1204 185.344 54.3624 185.344 56.5404C185.344 58.7544 184.084 60.0144 181.852 60.0144H180.556V65.0004H179.242ZM180.556 58.8084H181.852C183.292 58.8084 184.012 58.0524 184.012 56.5584C184.012 55.0824 183.274 54.3084 181.852 54.3084H180.556V58.8084ZM189.861 65.1984C187.485 65.1984 186.405 63.2724 186.405 59.0424C186.405 54.8304 187.485 52.9224 189.861 52.9224C192.237 52.9224 193.335 54.8304 193.335 59.0244C193.335 63.2544 192.237 65.1984 189.861 65.1984ZM189.861 64.0104C191.373 64.0104 192.021 62.5524 192.021 59.0424C192.021 55.6044 191.355 54.1104 189.861 54.1104C188.385 54.1104 187.737 55.5864 187.737 59.0424C187.737 62.5524 188.367 64.0104 189.861 64.0104ZM201.815 53.1204H202.517V65.0004H201.221V57.0264L198.971 61.5264H198.503L196.271 57.0444V65.0004H194.957V53.1204H195.695L198.737 59.2404L201.815 53.1204ZM207.615 65.1984C205.239 65.1984 204.159 63.2724 204.159 59.0424C204.159 54.8304 205.239 52.9224 207.615 52.9224C209.991 52.9224 211.089 54.8304 211.089 59.0244C211.089 63.2544 209.991 65.1984 207.615 65.1984ZM207.615 64.0104C209.127 64.0104 209.775 62.5524 209.775 59.0424C209.775 55.6044 209.109 54.1104 207.615 54.1104C206.139 54.1104 205.491 55.5864 205.491 59.0424C205.491 62.5524 206.121 64.0104 207.615 64.0104Z" fill="black"/>
    <g filter="url(#filter0_d_1820_15379)">
        <path d="M30.7469 0.000485659L14.6469 7.80049L18.0469 18.2005L25.2469 14.7005V66.0005H37.0469V0.000485659H30.7469Z" fill="#E4002B"/>
    </g>
    <defs>
        <filter id="filter0_d_1820_15379" x="14.6465" y="0.000488281" width="24.4004" height="68" filterUnits="userSpaceOnUse" color-interpolation-filters="sRGB">
            <feFlood flood-opacity="0" result="BackgroundImageFix"/>
            <feColorMatrix in="SourceAlpha" type="matrix" values="0 0 0 0 0 0 0 0 0 0 0 0 0 0 0 0 0 0 127 0" result="hardAlpha"/>
            <feOffset dx="2" dy="2"/>
            <feComposite in2="hardAlpha" operator="out"/>
            <feColorMatrix type="matrix" values="0 0 0 0 0.960784 0 0 0 0 0.65098 0 0 0 0 0.137255 0 0 0 1 0"/>
            <feBlend mode="normal" in2="BackgroundImageFix" result="effect1_dropShadow_1820_15379"/>
            <feBlend mode="normal" in="SourceGraphic" in2="effect1_dropShadow_1820_15379" result="shape"/>
        </filter>
    </defs>
</svg>
