<svg width="201" height="126" viewBox="0 0 201 126" fill="none" xmlns="http://www.w3.org/2000/svg">
    <path d="M2.65726 72.9082C1.21433 59.6723 11.1895 47.9428 24.4854 47.2413L160.802 40.049C174.731 39.3141 186.152 50.9551 185.151 64.8676L182.485 101.901C181.539 115.047 169.839 124.761 156.743 123.275L24.7106 108.285C13.9381 107.062 5.45125 98.5375 4.2763 87.7597L2.65726 72.9082Z" fill="white" stroke="#F5A623" stroke-width="0.772878" stroke-linecap="round" stroke-dasharray="3.86 3.86"/>
    <path d="M169.193 35.2911C181.75 34.9074 192.084 45.0865 191.89 57.6475L191.564 78.8215C191.392 89.9811 182.9 99.2484 171.798 100.393L37.1982 114.267C25.541 115.469 14.9838 107.333 13.1762 95.7541L8.37101 64.9745C6.32738 51.8842 16.219 39.9648 29.4617 39.5602L169.193 35.2911Z" stroke="#F5A623" stroke-width="2.31863"/>
    <path d="M79.8789 58.754C80.5809 58.232 80.9589 57.404 80.9589 56.342C80.9589 54.326 79.6269 53.12 77.4129 53.12H74.4609V65H77.9889C80.0589 65 81.4989 63.614 81.4989 61.616C81.4989 60.32 80.8869 59.312 79.8789 58.754ZM77.3589 54.974C78.3489 54.974 78.8349 55.496 78.8349 56.468C78.8349 57.422 78.3669 57.944 77.3589 57.944H76.5669V54.974H77.3589ZM77.7189 63.146H76.5669V59.762H77.7369C78.8169 59.762 79.3749 60.374 79.3749 61.472C79.3749 62.552 78.8169 63.146 77.7189 63.146ZM82.5996 65H85.7856C88.2876 65 89.7096 63.596 89.7096 61.148C89.7096 58.682 88.2696 57.278 85.7856 57.278H84.8136V53.12H82.5996V65ZM90.5736 65H92.7876V53.12H90.5736V65ZM84.8136 63.02V59.276H85.8036C86.9196 59.276 87.4596 59.888 87.4596 61.13C87.4596 62.408 86.9196 63.02 85.8036 63.02H84.8136ZM100.533 53.12L96.609 59.564V53.12H94.377V65H95.547L99.489 58.448V65H101.685V53.12H100.533ZM103.289 65H105.503V55.118H108.707V53.12H103.289V65ZM109.723 65H111.937V60.734H112.909C115.357 60.734 116.779 59.348 116.779 56.918C116.779 54.506 115.375 53.12 112.909 53.12H109.723V65ZM111.937 58.754V55.1H112.927C114.007 55.1 114.547 55.694 114.547 56.936C114.547 58.142 114.007 58.754 112.927 58.754H111.937ZM117.896 65H121.082C123.584 65 125.006 63.596 125.006 61.148C125.006 58.682 123.566 57.278 121.082 57.278H120.11V53.12H117.896V65ZM125.87 65H128.084V53.12H125.87V65ZM120.11 63.02V59.276H121.1C122.216 59.276 122.756 59.888 122.756 61.13C122.756 62.408 122.216 63.02 121.1 63.02H120.11ZM135.092 58.754C135.794 58.232 136.172 57.404 136.172 56.342C136.172 54.326 134.84 53.12 132.626 53.12H129.674V65H133.202C135.272 65 136.712 63.614 136.712 61.616C136.712 60.32 136.1 59.312 135.092 58.754ZM132.572 54.974C133.562 54.974 134.048 55.496 134.048 56.468C134.048 57.422 133.58 57.944 132.572 57.944H131.78V54.974H132.572ZM132.932 63.146H131.78V59.762H132.95C134.03 59.762 134.588 60.374 134.588 61.472C134.588 62.552 134.03 63.146 132.932 63.146ZM142.837 65H145.087L141.577 53.12H140.425L136.897 65H139.147L139.525 63.344H142.441L142.837 65ZM140.983 57.314L142.027 61.562H139.939L140.983 57.314ZM149.589 51.86C151.101 51.86 151.983 50.96 151.983 49.412V48.62H150.327V49.412C150.327 49.97 150.039 50.276 149.589 50.276C149.103 50.276 148.815 49.952 148.815 49.412V48.62H147.159V49.412C147.159 50.96 148.059 51.86 149.589 51.86ZM152.037 53.12L148.113 59.564V53.12H145.881V65H147.051L150.993 58.448V65H153.189V53.12H152.037Z" fill="black"/>
    <path d="M23.6472 88H24.9612V76.12H23.6472V88ZM26.5812 81.61L30.0012 76.12H28.5072L25.0692 81.61L28.6332 88H30.1272L26.5812 81.61ZM35.8606 81.61C36.7426 81.124 37.2286 80.278 37.2286 79.108C37.2286 77.236 36.0046 76.12 33.9346 76.12H31.5046V88H34.3126C36.4186 88 37.7686 86.686 37.7686 84.634C37.7686 83.158 37.0666 82.078 35.8606 81.61ZM33.8806 77.308C35.2486 77.308 35.9146 77.956 35.9146 79.162C35.9146 80.368 35.2846 81.07 33.8986 81.07H32.8186V77.308H33.8806ZM34.1506 86.812H32.8186V82.276H34.1686C35.6446 82.276 36.4546 83.122 36.4546 84.562C36.4546 85.966 35.6446 86.812 34.1506 86.812ZM44.4804 88H45.8124L42.4464 76.12H41.7264L38.3784 88H39.7104L40.3584 85.57H43.8144L44.4804 88ZM42.0864 79.018L43.4904 84.382H40.6824L42.0864 79.018ZM47.0613 88H48.3753V83.014H49.6713C51.9033 83.014 53.1633 81.754 53.1633 79.54C53.1633 77.362 51.9033 76.12 49.6713 76.12H47.0613V88ZM48.3753 81.808V77.308H49.6713C51.0933 77.308 51.8313 78.082 51.8313 79.558C51.8313 81.052 51.1113 81.808 49.6713 81.808H48.3753ZM56.5107 88H57.8247V77.308H60.4707V76.12H53.8467V77.308H56.5107V88ZM67.5714 76.12L63.0534 84.49V76.12H61.7214V88H62.4594L66.9954 79.54V88H68.2914V76.12H67.5714ZM70.282 88H71.596V83.014H72.892C75.124 83.014 76.384 81.754 76.384 79.54C76.384 77.362 75.124 76.12 72.892 76.12H70.282V88ZM71.596 81.808V77.308H72.892C74.314 77.308 75.052 78.082 75.052 79.558C75.052 81.052 74.332 81.808 72.892 81.808H71.596ZM82.4373 76.12L80.4573 83.302L78.2793 76.12H76.9113L79.8273 85.246L79.7013 85.66C79.4313 86.596 79.1073 86.902 78.4233 86.902C78.2613 86.902 78.0993 86.884 77.8833 86.848V88.018C78.1533 88.09 78.4413 88.108 78.6753 88.108C79.8813 88.108 80.5293 87.478 81.0153 85.822L83.8053 76.12H82.4373ZM93.8683 76.12L89.3503 84.49V76.12H88.0183V88H88.7563L93.2923 79.54V88H94.5883V76.12H93.8683ZM107.04 76.12L103.962 82.24L100.92 76.12H100.182V88H101.496V80.044L103.728 84.526H104.196L106.446 80.026V88H107.742V76.12H107.04ZM115.127 88H116.459L113.093 76.12H112.373L109.025 88H110.357L111.005 85.57H114.461L115.127 88ZM112.733 79.018L114.137 84.382H111.329L112.733 79.018ZM117.708 88H128.382V76.12H127.068V86.812H123.702V76.12H122.388V86.812H119.022V76.12H117.708V88ZM136.232 76.12L131.714 84.49V76.12H130.382V88H131.12L135.656 79.54V88H136.952V76.12H136.232ZM138.942 88H140.256V82.222H144.216V88H145.512V76.12H144.216V81.034H140.256V76.12H138.942V88ZM152.381 76.12L150.401 83.302L148.223 76.12H146.855L149.771 85.246L149.645 85.66C149.375 86.596 149.051 86.902 148.367 86.902C148.205 86.902 148.043 86.884 147.827 86.848V88.018C148.097 88.09 148.385 88.108 148.619 88.108C149.825 88.108 150.473 87.478 150.959 85.822L153.749 76.12H152.381Z" fill="black"/>
    <g filter="url(#filter0_d_702_15086)">
        <path d="M181.964 24.6C180.664 24.6 179.464 24.7 178.264 24.9V10.6H196.164V2.7895e-05H167.164V35.2H177.564C184.064 35.2 186.564 37.4 186.564 45.9C186.564 52.6 184.564 55.9 180.464 55.9C177.064 55.9 174.964 53.4 173.964 47.3L163.564 49.9C165.064 60.9 171.364 67.2 180.664 67.2C191.764 67.2 198.464 59 198.464 45.4C198.464 32 192.664 24.6 181.964 24.6Z" fill="#E4002B"/>
    </g>
    <defs>
        <filter id="filter0_d_702_15086" x="163.564" y="3.05176e-05" width="36.8994" height="69.2" filterUnits="userSpaceOnUse" color-interpolation-filters="sRGB">
            <feFlood flood-opacity="0" result="BackgroundImageFix"/>
            <feColorMatrix in="SourceAlpha" type="matrix" values="0 0 0 0 0 0 0 0 0 0 0 0 0 0 0 0 0 0 127 0" result="hardAlpha"/>
            <feOffset dx="2" dy="2"/>
            <feComposite in2="hardAlpha" operator="out"/>
            <feColorMatrix type="matrix" values="0 0 0 0 0.960784 0 0 0 0 0.65098 0 0 0 0 0.137255 0 0 0 1 0"/>
            <feBlend mode="normal" in2="BackgroundImageFix" result="effect1_dropShadow_702_15086"/>
            <feBlend mode="normal" in="SourceGraphic" in2="effect1_dropShadow_702_15086" result="shape"/>
        </filter>
    </defs>
</svg>
