<svg width="296" height="225" viewBox="0 0 296 225" fill="none" xmlns="http://www.w3.org/2000/svg">
<path d="M80 7.73249e-06L216 2.08777e-05C260.183 2.51483e-05 296 35.8172 296 80V107C296 151.183 260.183 187 216 187L177.675 187C173.342 187 169.134 188.426 165.62 190.959C137.955 210.9 111.728 223.451 98.4456 224.949C96.4851 225.17 96.4336 223.355 98.2889 222.684C115.169 216.576 132.043 199.926 138.778 189.841C139.617 188.585 138.676 187 137.166 187H80C35.8172 187 0 151.183 0 107V80C0 35.8172 35.8172 3.46196e-06 80 7.73249e-06Z" fill="#E4002B"/>
</svg>
