<svg width="90" height="64" viewBox="0 0 90 64" fill="none" xmlns="http://www.w3.org/2000/svg">
    <rect width="90" height="64" rx="32" fill="#E4002B" fill-opacity="0.1"/>
    <path d="M52.0267 44.5003C52.0267 42.2902 51.1487 40.1706 49.5859 38.6078C48.0231 37.045 45.9035 36.167 43.6934 36.167H27.0267C24.8166 36.167 22.6969 37.045 21.1341 38.6078C19.5713 40.1706 18.6934 42.2902 18.6934 44.5003" stroke="#E4002B" stroke-linecap="round" stroke-linejoin="round"/>
    <path d="M52.0267 44.4997C52.0267 46.7098 51.1487 48.8294 49.5859 50.3922C48.0231 51.955 45.9035 52.833 43.6934 52.833H27.0267C24.8166 52.833 22.6969 51.955 21.1341 50.3922C19.5713 48.8294 18.6934 46.7098 18.6934 44.4997" stroke="#E4002B" stroke-linecap="round" stroke-linejoin="round"/>
    <path d="M35.3587 29.9167C39.9611 29.9167 43.6921 26.1857 43.6921 21.5833C43.6921 16.981 39.9611 13.25 35.3587 13.25C30.7564 13.25 27.0254 16.981 27.0254 21.5833C27.0254 26.1857 30.7564 29.9167 35.3587 29.9167Z" stroke="#E4002B" stroke-linecap="round" stroke-linejoin="round"/>
    <circle cx="64.6797" cy="15" r="13.75" stroke="#E4002B"/>
    <path d="M69.9836 9.69635L59.377 20.303M69.9836 20.3029L59.377 9.69629" stroke="#E4002B" stroke-linecap="round" stroke-linejoin="round"/>
</svg>
