<svg width="106" height="64" viewBox="0 0 106 64" fill="none" xmlns="http://www.w3.org/2000/svg">
    <rect x="7.59375" width="90" height="64" rx="32" fill="#E4002B" fill-opacity="0.1"/>
    <path d="M42.6185 44.5001C42.6185 42.2899 41.7405 40.1703 40.1777 38.6075C38.6149 37.0447 36.4953 36.1667 34.2852 36.1667H17.6185C15.4084 36.1667 13.2887 37.0447 11.7259 38.6075C10.1631 40.1703 9.28516 42.2899 9.28516 44.5001" stroke="#E4002B" stroke-linecap="round" stroke-linejoin="round"/>
    <path d="M42.6185 44.4999C42.6185 46.7101 41.7405 48.8297 40.1777 50.3925C38.6149 51.9553 36.4953 52.8333 34.2852 52.8333H17.6185C15.4084 52.8333 13.2887 51.9553 11.7259 50.3925C10.1631 48.8297 9.28516 46.7101 9.28516 44.4999" stroke="#E4002B" stroke-linecap="round" stroke-linejoin="round"/>
    <path d="M25.9505 29.9167C30.5529 29.9167 34.2839 26.1857 34.2839 21.5833C34.2839 16.981 30.5529 13.25 25.9505 13.25C21.3481 13.25 17.6172 16.981 17.6172 21.5833C17.6172 26.1857 21.3481 29.9167 25.9505 29.9167Z" stroke="#E4002B" stroke-linecap="round" stroke-linejoin="round"/>
    <path d="M96.7181 19.5L73.8014 42.4167L63.3848 32" stroke="#E4002B" stroke-linecap="round" stroke-linejoin="round"/>
    <path d="M52.5 11.3684C52.5 14.3996 55.1925 16.5 58.2237 16.5M52.5 11.3684C52.5 14.4263 49.8499 16.5 46.7763 16.5M52.5 11.3684V9M46.7763 16.5C49.8075 16.5 52.448 18.6004 52.448 21.6316M46.7763 16.5H45M52.448 21.6316C52.448 18.6004 55.1925 16.5 58.2237 16.5M52.448 21.6316V24M58.2237 16.5H60" stroke="#E4002B"/>
    <path d="M8 4.57895C8 6.59974 9.79499 8 11.8158 8M8 4.57895C8 6.61752 6.23324 8 4.18421 8M8 4.57895V3M4.18421 8C6.20501 8 7.96531 9.40026 7.96531 11.4211M4.18421 8H3M7.96531 11.4211C7.96531 9.40026 9.79499 8 11.8158 8M7.96531 11.4211V13M11.8158 8H13" stroke="#E4002B"/>
</svg>
