<svg width="20" height="20" viewBox="0 0 20 20" fill="none" xmlns="http://www.w3.org/2000/svg">
    <path d="M15.8333 5V8.33333H12.5" stroke="#F5A623" stroke-width="1.5" stroke-linecap="round" stroke-linejoin="round"/>
    <path d="M4.16602 14.9998V11.6665H7.49935" stroke="#F5A623" stroke-width="1.5" stroke-linecap="round" stroke-linejoin="round"/>
    <path d="M4.75882 7.4994C5.04698 6.70296 5.53674 5.99089 6.18238 5.42964C6.82802 4.86839 7.60851 4.47625 8.45103 4.28981C9.29354 4.10337 10.1706 4.1287 11.0004 4.36345C11.8302 4.5982 12.5857 5.0347 13.1963 5.63224L15.8327 8.33317M4.16602 11.6665L6.80238 14.3674C7.41303 14.965 8.1685 15.4015 8.99829 15.6362C9.82809 15.871 10.7052 15.8963 11.5477 15.7099C12.3902 15.5234 13.1707 15.1313 13.8163 14.57C14.462 14.0088 14.9517 13.2967 15.2399 12.5003" stroke="#F5A623" stroke-width="1.5" stroke-linecap="round" stroke-linejoin="round"/>
</svg>
