<svg width="360" height="176" viewBox="0 0 360 176" fill="none" xmlns="http://www.w3.org/2000/svg">
    <g filter="url(#filter0_b_505_7978)">
        <path d="M265.078 152.496C268.873 161.955 279.34 171.097 293.602 175.982C278.67 176.176 261.863 174.522 248.621 170.496C241.874 168.448 231.47 163.413 226.401 159.097C200.071 163.045 109.686 163.686 85.5723 158.446C59.2422 152.734 36.3658 144.997 19.089 126.832C3.71359 110.666 -1.83777 91.4971 0.521515 72.8147C3.71872 47.4971 32.337 27.064 69.0235 16.2805C128.496 -1.18371 285.191 -13.3435 335.933 35.916C382.431 81.0561 354.848 123.299 309.943 140.36C304.448 143.893 271.766 149.769 265.078 152.496Z" fill="url(#paint0_linear_505_7978)"/>
        <path d="M264.613 152.682L264.428 152.221L264.889 152.033C266.603 151.334 269.939 150.447 274.019 149.46C276.801 148.787 279.952 148.062 283.205 147.314C284.738 146.961 286.294 146.603 287.845 146.243C292.691 145.117 297.492 143.968 301.422 142.881C303.387 142.337 305.128 141.811 306.546 141.312C307.973 140.81 309.038 140.347 309.672 139.939L309.716 139.911L309.765 139.892C332.141 131.391 350.116 116.646 356.744 98.4961C363.355 80.397 358.736 58.7503 335.585 36.2748C322.992 24.0497 303.784 15.6017 281.067 10.0967C258.359 4.59379 232.196 2.04363 205.744 1.57679C152.832 0.64302 98.8424 8.0453 69.1645 16.7602C50.8645 22.1393 34.6011 29.9186 22.5246 39.4892C10.4456 49.0617 2.59418 60.3927 1.01758 72.8774C-1.32281 91.4101 4.17886 110.43 19.4513 126.487C36.6198 144.539 59.3696 152.25 85.6783 157.957L85.5723 158.446L85.6784 157.957C97.6731 160.564 126.241 161.716 155.156 161.717C184.059 161.718 213.203 160.57 226.327 158.603L226.552 158.569L226.725 158.716C229.215 160.837 233.043 163.154 237.107 165.201C241.166 167.246 245.427 169.004 248.766 170.018L248.767 170.018C261.133 173.777 276.649 175.463 290.826 175.497C277.803 170.399 268.241 161.721 264.613 152.682Z" stroke="url(#paint1_linear_505_7978)"/>
    </g>
    <defs>
        <filter id="filter0_b_505_7978" x="-20" y="-19.0029" width="400" height="215" filterUnits="userSpaceOnUse" color-interpolation-filters="sRGB">
            <feFlood flood-opacity="0" result="BackgroundImageFix"/>
            <feGaussianBlur in="BackgroundImageFix" stdDeviation="10"/>
            <feComposite in2="SourceAlpha" operator="in" result="effect1_backgroundBlur_505_7978"/>
            <feBlend mode="normal" in="SourceGraphic" in2="effect1_backgroundBlur_505_7978" result="shape"/>
        </filter>
        <linearGradient id="paint0_linear_505_7978" x1="180" y1="0.99707" x2="180" y2="175.997" gradientUnits="userSpaceOnUse">
            <stop stop-color="white"/>
            <stop offset="1" stop-color="white" stop-opacity="0.3"/>
        </linearGradient>
        <linearGradient id="paint1_linear_505_7978" x1="120" y1="0.997081" x2="277" y2="175.997" gradientUnits="userSpaceOnUse">
            <stop stop-color="white" stop-opacity="0"/>
            <stop offset="1" stop-color="white"/>
        </linearGradient>
    </defs>
</svg>
