<svg width="1499" height="488" viewBox="0 0 1499 488" fill="none" xmlns="http://www.w3.org/2000/svg">
    <g filter="url(#filter0_i_649_19227)">
        <path d="M1498.42 64.4384C1500.84 28.211 1470.79 -1.85185 1434.56 0.564143L56.8741 92.4402C20.6689 94.8547 -5.12427 128.604 2.05151 164.173L48.6179 394.994C54.1169 422.252 77.6244 442.16 105.416 443.095L1411.99 487.049C1444.34 488.137 1471.71 463.379 1473.88 431.09L1498.42 64.4384Z" fill="#C20025"/>
        <path d="M1498.42 64.4384C1500.84 28.211 1470.79 -1.85185 1434.56 0.564143L56.8741 92.4402C20.6689 94.8547 -5.12427 128.604 2.05151 164.173L48.6179 394.994C54.1169 422.252 77.6244 442.16 105.416 443.095L1411.99 487.049C1444.34 488.137 1471.71 463.379 1473.88 431.09L1498.42 64.4384Z" fill="url(#paint0_linear_649_19227)" fill-opacity="0.3"/>
    </g>
    <defs>
        <filter id="filter0_i_649_19227" x="0.849609" y="0.427734" width="1500.71" height="489.655" filterUnits="userSpaceOnUse" color-interpolation-filters="sRGB">
            <feFlood flood-opacity="0" result="BackgroundImageFix"/>
            <feBlend mode="normal" in="SourceGraphic" in2="BackgroundImageFix" result="shape"/>
            <feColorMatrix in="SourceAlpha" type="matrix" values="0 0 0 0 0 0 0 0 0 0 0 0 0 0 0 0 0 0 127 0" result="hardAlpha"/>
            <feOffset dx="3" dy="3"/>
            <feGaussianBlur stdDeviation="5"/>
            <feComposite in2="hardAlpha" operator="arithmetic" k2="-1" k3="1"/>
            <feColorMatrix type="matrix" values="0 0 0 0 0 0 0 0 0 0 0 0 0 0 0 0 0 0 0.1 0"/>
            <feBlend mode="normal" in2="shape" result="effect1_innerShadow_649_19227"/>
        </filter>
        <linearGradient id="paint0_linear_649_19227" x1="8.13244" y1="-3.99994" x2="1445.18" y2="479.679" gradientUnits="userSpaceOnUse">
            <stop stop-color="#FF0030"/>
            <stop offset="0.870111" stop-color="#FF0030" stop-opacity="0"/>
        </linearGradient>
    </defs>
</svg>
