<svg width="343" height="113" viewBox="0 0 343 113" fill="none" xmlns="http://www.w3.org/2000/svg">
    <g filter="url(#filter0_i_2034_186946)">
        <path d="M342.08 23.2187C340.972 13.4987 332.931 3.50846 320 2.50001C264.853 -1.80082 165.5 0.999958 62.7025 22.0123C45.3713 25.5548 36.217 18.1567 19.2539 9.743C-4.99969 -3.50017 -0.819928 22.9535 6.06567 34.0352C13.4998 45.9998 26.4821 81.1874 72.5 91C208.5 120 275.604 112.256 300.802 108.99C326 105.725 332.5 99 334.645 82.8537L342.08 23.2187Z" fill="#C20025"/>
        <path d="M342.08 23.2187C340.972 13.4987 332.931 3.50846 320 2.50001C264.853 -1.80082 165.5 0.999958 62.7025 22.0123C45.3713 25.5548 36.217 18.1567 19.2539 9.743C-4.99969 -3.50017 -0.819928 22.9535 6.06567 34.0352C13.4998 45.9998 26.4821 81.1874 72.5 91C208.5 120 275.604 112.256 300.802 108.99C326 105.725 332.5 99 334.645 82.8537L342.08 23.2187Z" fill="url(#paint0_linear_2034_186946)" fill-opacity="0.3"/>
    </g>
    <defs>
        <filter id="filter0_i_2034_186946" x="0.727539" y="0.779297" width="344.353" height="114.645" filterUnits="userSpaceOnUse" color-interpolation-filters="sRGB">
            <feFlood flood-opacity="0" result="BackgroundImageFix"/>
            <feBlend mode="normal" in="SourceGraphic" in2="BackgroundImageFix" result="shape"/>
            <feColorMatrix in="SourceAlpha" type="matrix" values="0 0 0 0 0 0 0 0 0 0 0 0 0 0 0 0 0 0 127 0" result="hardAlpha"/>
            <feOffset dx="3" dy="3"/>
            <feGaussianBlur stdDeviation="5"/>
            <feComposite in2="hardAlpha" operator="arithmetic" k2="-1" k3="1"/>
            <feColorMatrix type="matrix" values="0 0 0 0 0 0 0 0 0 0 0 0 0 0 0 0 0 0 0.1 0"/>
            <feBlend mode="normal" in2="shape" result="effect1_innerShadow_2034_186946"/>
        </filter>
        <linearGradient id="paint0_linear_2034_186946" x1="-23.8738" y1="-1.77204" x2="464.621" y2="275.512" gradientUnits="userSpaceOnUse">
            <stop stop-color="#9F001E"/>
            <stop offset="0.870111" stop-color="#FC002F" stop-opacity="0"/>
        </linearGradient>
    </defs>
</svg>
