<svg width="1149" height="156" viewBox="0 0 1149 156" fill="none" xmlns="http://www.w3.org/2000/svg">
    <g filter="url(#filter0_i_2034_186853)">
        <path d="M1142.61 44.8078C1140.5 26.2133 1125.99 11.6567 1107.33 10.1963C1002.23 1.9687 642.724 -17.9073 137.5 42.4998C104.023 46.5025 67.9638 35.1242 35.6345 19.0285C0.904133 1.73751 -8.51047 39.8111 10.4995 65.5C28.9996 90.5 60.9659 125.936 150.5 131C788.76 167.101 1062.34 152.693 1081.87 151.567C1082.71 151.519 1083.45 151.501 1084.29 151.497C1147.54 151.153 1150.23 125.5 1147.5 101.5L1142.61 44.8078Z" fill="#C20025"/>
        <path d="M1142.61 44.8078C1140.5 26.2133 1125.99 11.6567 1107.33 10.1963C1002.23 1.9687 642.724 -17.9073 137.5 42.4998C104.023 46.5025 67.9638 35.1242 35.6345 19.0285C0.904133 1.73751 -8.51047 39.8111 10.4995 65.5C28.9996 90.5 60.9659 125.936 150.5 131C788.76 167.101 1062.34 152.693 1081.87 151.567C1082.71 151.519 1083.45 151.501 1084.29 151.497C1147.54 151.153 1150.23 125.5 1147.5 101.5L1142.61 44.8078Z" fill="url(#paint0_linear_2034_186853)" fill-opacity="0.3"/>
    </g>
    <defs>
        <filter id="filter0_i_2034_186853" x="0.844727" y="0.389648" width="1150.33" height="157.955" filterUnits="userSpaceOnUse" color-interpolation-filters="sRGB">
            <feFlood flood-opacity="0" result="BackgroundImageFix"/>
            <feBlend mode="normal" in="SourceGraphic" in2="BackgroundImageFix" result="shape"/>
            <feColorMatrix in="SourceAlpha" type="matrix" values="0 0 0 0 0 0 0 0 0 0 0 0 0 0 0 0 0 0 127 0" result="hardAlpha"/>
            <feOffset dx="3" dy="3"/>
            <feGaussianBlur stdDeviation="5"/>
            <feComposite in2="hardAlpha" operator="arithmetic" k2="-1" k3="1"/>
            <feColorMatrix type="matrix" values="0 0 0 0 0 0 0 0 0 0 0 0 0 0 0 0 0 0 0.1 0"/>
            <feBlend mode="normal" in2="shape" result="effect1_innerShadow_2034_186853"/>
        </filter>
        <linearGradient id="paint0_linear_2034_186853" x1="-27.5009" y1="-3.00019" x2="905.2" y2="524.45" gradientUnits="userSpaceOnUse">
            <stop stop-color="#9F001E"/>
            <stop offset="0.870111" stop-color="#FC002F" stop-opacity="0"/>
        </linearGradient>
    </defs>
</svg>
