<svg width="340" height="205" viewBox="0 0 340 205" fill="none" xmlns="http://www.w3.org/2000/svg">
    <path d="M0 30.0029C0 13.4344 13.4315 0.00292969 30 0.00292969H310C326.569 0.00292969 340 13.4344 340 30.0029V174.003C340 190.571 326.569 204.003 310 204.003H30C13.4315 204.003 0 190.571 0 174.003V30.0029Z" fill="#E52613"/>
    <path fill-rule="evenodd" clip-rule="evenodd" d="M235 101C235 136.899 205.898 166 170.001 166C134.103 166 105 136.899 105 101C105 65.1014 134.102 36 169.999 36C205.897 36 234.999 65.1014 234.999 101H235ZM164.206 116.355H157.755V90.2099L152.074 93.2125L149.372 87.9238L157.743 83.1657L159.598 82.1449C160.02 81.9636 160.492 81.8639 160.97 81.8639C162.769 81.8639 164.206 83.5124 164.206 85.5587V116.355ZM214.668 116.356V85.5381H214.667C214.667 85.4964 214.671 85.5177 214.674 85.5394C214.678 85.5621 214.682 85.5853 214.682 85.5381C214.682 83.5124 213.245 81.8505 211.454 81.8505C210.965 81.8505 210.478 81.9552 210.066 82.1449L208.221 83.1657L199.855 87.9239L202.549 93.1967L208.227 90.1989V116.356H214.668ZM183.664 116.126C187.83 116.126 191.22 114.4 193.653 111.031V111.032C196.148 107.644 197.28 103.556 197.28 98.8003C197.28 94.0446 196.06 89.9531 193.571 86.5722C191.121 83.2082 187.829 81.4867 183.663 81.4867C178.048 81.4867 173.67 85.1487 171.538 90.3388C170.501 92.9107 170.016 95.7101 170.016 98.8003C170.016 104.948 172.091 110.38 176.295 113.656C178.42 115.316 180.865 116.126 183.664 116.126ZM178.492 90.6588C179.824 88.4932 181.564 87.4348 183.763 87.4348C185.98 87.4348 187.708 88.4932 188.996 90.6588C190.338 92.7842 190.969 95.3805 190.969 98.4841C190.969 101.588 190.337 104.198 188.996 106.354C187.709 108.483 185.963 109.548 183.763 109.548C181.564 109.548 179.824 108.483 178.492 106.354C177.167 104.198 176.514 101.565 176.514 98.4841C176.514 95.4036 177.167 92.7842 178.492 90.6588ZM145.788 116.355L142.727 108.983H129.165L126.095 116.355H119.176L133.344 83.471C133.834 82.4928 134.821 81.8274 135.943 81.8274C137.139 81.8274 138.177 82.5829 138.645 83.6681L152.712 116.355H145.788ZM131.525 103.346H140.359L135.944 92.7039L131.525 103.346Z" fill="white"/>
</svg>
