<svg width="301" height="181" viewBox="0 0 301 181" fill="none" xmlns="http://www.w3.org/2000/svg">
    <path d="M0 30C0 13.4314 13.4315 0 30 0H271C287.569 0 301 13.4315 301 30V150.6C301 167.169 287.569 180.6 271 180.6H30C13.4315 180.6 0 167.169 0 150.6V30Z" fill="white"/>
    <g clip-path="url(#clip0_2034_187536)">
        <mask id="mask0_2034_187536" style="mask-type:luminance" maskUnits="userSpaceOnUse" x="18" y="-42" width="265" height="265">
            <path d="M282.228 -41.541H18.5293V222.105H282.228V-41.541Z" fill="white"/>
        </mask>
        <g mask="url(#mask0_2034_187536)">
            <path d="M126.366 90.7162C126.333 88.1257 127.092 85.5869 128.544 83.4407C129.995 81.2945 132.069 79.6437 134.486 78.7098C138.03 77.3845 141.935 77.3845 145.479 78.7098C147.091 79.3345 148.563 80.2727 149.809 81.4702C151.017 82.6466 151.978 84.052 152.636 85.6042C153.986 88.8785 153.986 92.554 152.636 95.8283C151.978 97.3799 151.017 98.7845 149.809 99.9597C148.564 101.159 147.092 102.097 145.479 102.72C141.935 104.049 138.03 104.049 134.486 102.72C132.072 101.781 130.003 100.13 128.552 97.9851C127.102 95.8405 126.339 93.305 126.366 90.7162ZM133.064 90.7162C133.054 91.649 133.244 92.5732 133.621 93.4265C134.338 95.0601 135.67 96.3455 137.328 97.0042C138.591 97.5133 139.972 97.6501 141.31 97.3982C142.647 97.1464 143.885 96.5165 144.875 95.5831C145.52 94.9722 146.036 94.2391 146.394 93.4265C146.761 92.5701 146.951 91.648 146.951 90.7162C146.951 89.7845 146.761 88.8624 146.394 88.006C146.036 87.1934 145.52 86.4603 144.875 85.8493C143.881 84.923 142.643 84.2978 141.308 84.0463C139.972 83.7947 138.592 83.9272 137.328 84.4283C135.67 85.087 134.338 86.3724 133.621 88.006C133.244 88.8593 133.054 89.7835 133.064 90.7162Z" fill="#010E54"/>
            <path d="M164.104 103.031H157.699V78.4014H167.894C170.661 78.4014 172.779 79.1202 174.249 80.558C175.719 81.9957 176.453 84.017 176.453 86.6218C176.453 89.2337 175.719 91.255 174.249 92.6857C172.779 94.1164 170.661 94.8344 167.894 94.8397H164.104V103.031ZM164.104 89.7039H166.227C168.579 89.7039 169.756 88.68 169.756 86.6324C169.756 84.5847 168.579 83.5609 166.227 83.5609H164.104V89.7039Z" fill="#010E54"/>
            <path d="M211.671 83.8246V103.031H205.269V83.8246H200.008V78.4014H216.932V83.8246H211.671Z" fill="#01AFEE"/>
            <path d="M234.62 78.4014L230.598 86.5085L226.959 78.4014H219.652L226.883 93.358L221.804 103.031H228.18L241.542 78.4014H234.62Z" fill="#01AFEE"/>
            <path d="M255.015 83.8246V103.031H248.61V83.8246H243.352V78.4014H260.276V83.8246H255.015Z" fill="#01AFEE"/>
            <path d="M186.778 83.8939H188.534H193.787H194.813H196.696V78.4707H194.813H193.787H188.534H186.778H179.771V103.1H186.778H188.534H193.787H194.813H196.696V97.6773H194.813H193.787H188.534H186.778H186.174V93.4326H186.778H193.363H194.813V93.43H196.696V88.0094H188.534H186.778H186.174V83.8939H186.778Z" fill="#010E54"/>
            <path d="M92.5527 103.031L96.735 78.4014H103.074L108.008 91.5336L112.908 78.4014H119.247L123.429 103.031H117.058L114.933 88.8549L109.118 103.031H106.568L101.046 88.8549L98.9237 103.031H92.5527Z" fill="#010E54"/>
            <path d="M86.5453 116.066C86.1287 115.465 85.5459 115.204 84.9104 115.518C84.0158 115.971 83.1618 116.5 82.3578 117.1C81.3663 117.825 80.3352 118.579 79.0853 118.286C78.0727 118.046 77.1207 117.495 76.1846 116.989C75.4462 116.596 74.7791 116.066 74.075 115.615C72.2687 114.463 70.5151 114.611 68.7747 115.8C67.7726 116.485 66.76 117.171 65.6973 117.756C65.1567 118.099 64.5298 118.281 63.8896 118.281C63.2495 118.281 62.6226 118.099 62.082 117.756C61.0272 117.171 60.0067 116.485 59.0046 115.8C57.2642 114.611 55.5106 114.463 53.7043 115.615C52.9949 116.066 52.3278 116.596 51.5947 116.989C50.6586 117.487 49.7066 118.043 48.694 118.286C47.4441 118.579 46.413 117.825 45.4215 117.1C44.6175 116.5 43.7635 115.971 42.8689 115.518C42.2334 115.204 41.6506 115.465 41.234 116.066C40.4587 117.197 40.7066 118.384 41.1839 119.512C41.9591 121.357 43.4754 122.473 45.2527 123.187C47.4494 124.07 49.6565 124.202 51.7687 122.863C52.4596 122.425 53.1822 122.032 53.8572 121.574C55.4711 120.472 57.0533 120.313 58.6697 121.574C59.2472 122.024 59.8933 122.386 60.4945 122.81C61.4792 123.539 62.6722 123.933 63.8976 123.933C65.123 123.933 66.3159 123.539 67.3006 122.81C67.9018 122.386 68.5479 122.019 69.1254 121.574C70.7392 120.311 72.3241 120.469 73.9353 121.574C74.613 122.032 75.3355 122.425 76.0264 122.863C78.136 124.202 80.3458 124.07 82.5424 123.187C84.3197 122.473 85.836 121.365 86.6112 119.512C87.0833 118.384 87.3364 117.197 86.5611 116.066" fill="#01AFEE"/>
            <path d="M84.947 77.0151C84.947 76.8331 84.947 76.6565 84.9285 76.4878C84.3563 65.4489 75.1242 56.6748 63.8326 56.6748C52.1613 56.6748 42.7051 66.029 42.7051 77.5714C42.7051 77.6267 42.7051 77.6847 42.7051 77.7401C42.7216 80.1504 43.1607 82.5392 44.0025 84.7979C44.3034 85.8095 44.6916 86.7931 45.1628 87.7375C45.6216 88.6603 46.2175 89.5198 46.7449 90.3977C47.5888 91.7502 48.6779 92.8997 49.7458 94.0703C50.9826 95.4228 52.2694 96.7384 53.4376 98.1542C54.5034 99.4183 55.473 100.761 56.3383 102.169C57.9205 104.806 59.0491 107.674 60.1197 110.553C60.4201 111.412 60.7878 112.245 61.2194 113.045C61.5121 113.545 61.8493 114.018 62.2267 114.458C62.3961 114.676 62.5929 114.871 62.8121 115.038C62.9514 115.14 63.1077 115.215 63.2736 115.262H63.2894C63.4792 115.329 63.6788 115.365 63.8801 115.368C64.127 115.368 64.3716 115.319 64.6 115.225H64.6158L64.7055 115.18C64.8357 115.117 64.9586 115.039 65.072 114.948C65.1925 114.838 65.3061 114.72 65.4122 114.595C65.5546 114.442 65.6917 114.289 65.8262 114.128C66.0766 113.831 66.2949 113.507 66.4775 113.164L66.728 112.681C66.794 112.547 66.8572 112.417 66.9258 112.278C67.3477 111.392 67.7169 110.495 68.0861 109.573C68.9633 107.262 69.9696 105.003 71.1002 102.805C71.8025 101.454 72.6505 100.183 73.629 99.0163C74.7603 97.6849 75.9575 96.4115 77.1046 95.0932C78.2517 93.775 79.4963 92.4331 80.5696 91.012C82.1828 88.9428 83.3371 86.554 83.9555 84.0043C83.9555 83.941 83.9792 83.8804 83.9924 83.8171C84.5791 81.9672 84.9022 80.0439 84.9523 78.1039C84.9523 77.9282 84.9523 77.7524 84.9523 77.5766C84.9523 77.4009 84.9523 77.2251 84.9523 77.0493M63.8854 91.0726C61.3469 91.0732 58.8653 90.321 56.7543 88.9114C54.6434 87.5018 52.998 85.4979 52.0262 83.1533C51.0544 80.8087 50.7999 78.2286 51.2948 75.7393C51.7897 73.25 53.0118 70.9634 54.8066 69.1686C56.6014 67.3738 58.8883 66.1515 61.3779 65.6561C63.8676 65.1608 66.4483 65.4148 68.7936 66.3859C71.1389 67.357 73.1434 69.0017 74.5538 71.1119C75.9642 73.2221 76.7169 75.703 76.7169 78.241C76.7169 81.6437 75.3651 84.9071 72.9588 87.3134C70.5525 89.7197 67.2888 91.0719 63.8854 91.0726Z" fill="#01AFEE"/>
        </g>
    </g>
    <defs>
        <clipPath id="clip0_2034_187536">
            <rect width="219.553" height="67.2824" fill="white" transform="translate(40.7227 56.6562)"/>
        </clipPath>
    </defs>
</svg>
