<svg width="340" height="205" viewBox="0 0 340 205" fill="none" xmlns="http://www.w3.org/2000/svg">
    <path d="M0 30.0029C0 13.4344 13.4315 0.00292969 30 0.00292969H310C326.569 0.00292969 340 13.4344 340 30.0029V174.003C340 190.571 326.569 204.003 310 204.003H30C13.4315 204.003 0 190.571 0 174.003V30.0029Z" fill="white"/>
    <g clip-path="url(#clip0_2032_177444)">
        <path d="M224.918 90.3672V120H215.082V90.3672H207V82H233V90.3672H224.918Z" fill="#01AFEE"/>
        <path d="M260.248 82L254.002 94.508L248.35 82H237L248.231 105.076L240.342 120H250.242L271 82H260.248Z" fill="#01AFEE"/>
        <path d="M292.607 90.3672V120H282.393V90.3672H274V82H301V90.3672H292.607Z" fill="#01AFEE"/>
        <path d="M185.764 90.5873H188.462H196.532H198.108H201V82H198.108H196.532H188.462H185.764H175V121H185.764H188.462H196.532H198.108H201V112.413H198.108H196.532H188.462H185.764H184.836V105.691H185.764H195.879H198.108V105.687H201V97.104H188.462H185.764H184.836V90.5873H185.764Z" fill="#010E54"/>
        <path d="M150.905 119.996H141V82H156.764C161.041 82 164.316 83.1063 166.591 85.327C168.866 87.5436 170 90.6672 170 94.7019C170 98.7366 168.862 101.856 166.591 104.073C164.316 106.289 161.041 107.4 156.764 107.4H150.905V120V119.996ZM150.905 99.4362H154.187C157.824 99.4362 159.643 97.8581 159.643 94.6978C159.643 91.5376 157.824 89.9595 154.187 89.9595H150.905V99.4321V99.4362Z" fill="#010E54"/>
        <path d="M92 101.5C92 98.6148 92.5197 95.9291 93.559 93.4389C94.5984 90.9486 96.0396 88.7784 97.8828 86.9243C99.726 85.0701 101.931 83.6191 104.496 82.5715C107.062 81.5238 109.888 81 112.974 81C116.059 81 118.84 81.5238 121.422 82.5715C124.004 83.6191 126.225 85.0701 128.089 86.9243C129.948 88.7784 131.402 90.9528 132.441 93.4389C133.48 95.9291 134 98.6148 134 101.5C134 104.385 133.48 107.071 132.441 109.561C131.402 112.051 129.952 114.222 128.089 116.076C126.229 117.93 124.004 119.381 121.422 120.429C118.84 121.476 116.023 122 112.974 122C109.925 122 107.062 121.476 104.496 120.429C101.931 119.381 99.726 117.93 97.8828 116.076C96.0396 114.222 94.5943 112.047 93.559 109.561C92.5197 107.071 92 104.385 92 101.5ZM102.312 101.5C102.312 103.047 102.596 104.473 103.169 105.774C103.737 107.079 104.509 108.214 105.483 109.175C106.453 110.135 107.586 110.883 108.877 111.415C110.168 111.947 111.532 112.214 112.978 112.214C114.423 112.214 115.787 111.947 117.078 111.415C118.369 110.883 119.51 110.135 120.501 109.175C121.491 108.214 122.271 107.079 122.839 105.774C123.408 104.468 123.696 103.042 123.696 101.5C123.696 99.9576 123.412 98.5316 122.839 97.2262C122.267 95.9208 121.487 94.7858 120.501 93.8255C119.51 92.8651 118.369 92.1168 117.078 91.5847C115.787 91.0525 114.423 90.7865 112.978 90.7865C111.532 90.7865 110.168 91.0525 108.877 91.5847C107.586 92.1168 106.453 92.8651 105.483 93.8255C104.509 94.7858 103.737 95.9208 103.169 97.2262C102.596 98.5316 102.312 99.9535 102.312 101.5Z" fill="#010E54"/>
        <path d="M39 120L45.5022 82H55.3539L63.0246 102.261L70.646 82H80.4978L87 120H77.095L73.7947 98.1282L64.7547 120H60.7902L52.2053 98.1282L48.905 120H39Z" fill="#010E54"/>
    </g>
    <defs>
        <clipPath id="clip0_2032_177444">
            <rect width="261.622" height="80" fill="white" transform="translate(39 62)"/>
        </clipPath>
    </defs>
</svg>
