<svg width="340" height="205" viewBox="0 0 340 205" fill="none" xmlns="http://www.w3.org/2000/svg">
    <path d="M0 30.0029C0 13.4344 13.4315 0.00292969 30 0.00292969H310C326.569 0.00292969 340 13.4344 340 30.0029V174.003C340 190.571 326.569 204.003 310 204.003H30C13.4315 204.003 0 190.571 0 174.003V30.0029Z" fill="#1C1C1C"/>
    <g clip-path="url(#clip0_2032_177355)">
        <path d="M218.911 71.6476C218.639 71.3695 218.479 71.1149 218.254 70.7614C218.136 70.5823 218.009 70.389 217.868 70.1816C218.258 69.7293 218.587 69.2061 218.836 68.6309L219.832 66.3545L217.38 66.001C216.967 65.9398 216.3 65.7653 215.52 65.5581C214.017 65.1622 212.087 64.6529 209.982 64.4314C210.701 64.1156 211.312 63.5453 211.739 62.7724L212.143 62.042C212.143 62.042 212.035 61.0191 211.64 60.6987C211.791 60.3829 211.908 60.034 211.988 59.6522L212.321 58.0214L210.752 57.4842C210.508 57.3994 210.264 57.338 210.024 57.3004C209.935 57.0035 209.804 56.6875 209.625 56.353L208.695 54.642L207.018 55.6271C206.6 55.8723 206.248 56.1551 205.961 56.4708C205.713 56.4237 205.445 56.4001 205.163 56.4001C205.163 56.4001 204.205 56.2916 203.148 56.6781L201.795 55.2689L200.193 53.5533C198.695 51.9462 196.666 51.4701 194.599 52.2619C193.81 51.4701 192.579 50.815 190.668 50.815C190.02 50.815 189.451 50.895 189.118 50.9375C189.118 50.9375 186.487 51.4182 185.008 52.8274L183.213 51.9697C182.011 53.869 179.954 54.4724 179.954 54.4724C179.813 53.9162 179.573 53.3977 179.23 52.9217L179.348 52.2525C179.348 52.2337 179.751 49.9666 180.982 48.0436L183.124 44.6971L180.09 45.0412C180.099 44.7396 180.085 44.3813 180.043 43.9571L179.77 41.3553L177.394 42.4348C177.131 42.5525 176.91 42.6704 176.703 42.7788L176.233 41.7749L175.144 42.3404C175.036 42.0718 174.895 41.7655 174.702 41.4121L173.448 39.1025L171.668 41.0302C171.485 41.2282 171.33 41.4121 171.198 41.5865L170.118 40.507L169.028 41.5911C168.892 41.4167 168.741 41.2329 168.558 41.035L166.759 39.1025L165.5 41.4215C165.308 41.7749 165.172 42.0766 165.064 42.3452L163.979 41.7797L163.509 42.7836C163.302 42.6752 163.081 42.5573 162.818 42.4348L160.432 41.3601L160.169 43.9714C160.127 44.3907 160.113 44.7442 160.122 45.0459L157.083 44.7019L159.23 48.0482C160.465 49.9666 160.86 52.2337 160.86 52.2525L160.972 52.9217C160.63 53.4026 160.385 53.921 160.249 54.477C160.249 54.477 158.304 53.6429 157.003 51.9697L155.172 52.8463C153.081 51.4324 151.785 50.8809 149.53 50.815C147.619 50.7631 146.388 51.4701 145.599 52.2619C143.527 51.4747 141.503 51.9508 140.009 53.5581C140.009 53.5581 139.028 54.628 138.408 55.2737C137.788 55.924 136.872 56.4614 136.872 56.4614C136.872 56.4614 135.57 56.1692 134.232 56.4755C133.945 56.1597 133.588 55.8769 133.166 55.6271L131.484 54.642L130.559 56.3624C130.38 56.6924 130.253 57.0035 130.169 57.3004C129.929 57.338 129.685 57.3994 129.441 57.4842L127.881 58.0308L128.206 59.6522C128.285 60.0434 128.398 60.3923 128.553 60.708C128.464 60.8824 128.384 61.0663 128.318 61.2594L128.055 62.0466L128.454 62.7772C128.877 63.5453 129.483 64.1205 130.206 64.4363C128.097 64.6577 126.172 65.1668 124.664 65.5627C123.889 65.7653 123.222 65.9446 122.809 66.0056L120.347 66.364L120.906 67.6364L121.352 68.6498C121.606 69.2155 121.94 69.7387 122.325 70.191C122.179 70.3984 121.559 71.3741 121.282 71.6522L120.037 72.92L121.23 74.2396C121.381 74.4 122.719 75.8093 124.885 75.8139C125.476 75.8139 126.063 75.7103 126.646 75.503C127.224 76.408 127.909 77.3271 128.534 77.7794C127.383 79.1367 126.073 80.3152 124.208 81.2059L122.649 81.9508L123.32 83.7369C123.757 84.8162 124.607 85.9993 126.251 86.4516C125.899 87.5076 125.73 88.5068 125.58 89.3976C125.227 91.5138 125.077 92.3903 123.222 93.0456L121.554 93.63L122.033 95.3363C122.419 96.7265 122.996 97.6458 123.621 98.2537L122.513 99.4791C122.513 99.4791 125.143 101.459 127.722 101.699C127.759 101.704 129.957 101.845 130.944 100.582C131.338 102.015 131.963 103.335 132.532 104.532C133.696 106.992 134.316 108.448 133.537 109.778L131.775 112.775L135.237 112.629C136.75 112.568 138.154 112.474 139.37 112.172C139.37 112.238 139.366 112.299 139.361 112.361L139.079 114.934L142.114 114.293C142.433 114.199 142.734 114.071 143.006 113.925C144.885 116.131 148.079 117.851 152.382 117.851H152.63L147.684 119.887L151.287 121.768C153.659 123.008 156.294 124.045 159.3 124.926L158.882 126.373L160.691 126.906C161.734 127.212 165.505 128.216 170.099 128.216C174.693 128.216 178.46 127.212 179.507 126.906L181.311 126.373L180.893 124.931C183.904 124.049 186.539 123.012 188.911 121.773L192.514 119.892L187.563 117.856H187.812C192.114 117.856 195.304 116.136 197.183 113.93C197.455 114.076 197.756 114.203 198.075 114.298L201.109 114.939L200.832 112.37C200.827 112.309 200.823 112.243 200.823 112.177C202.035 112.478 203.444 112.568 204.951 112.634L208.413 112.78L206.661 109.787C205.877 108.458 206.502 107.002 207.662 104.541C208.23 103.344 208.855 102.024 209.249 100.592C209.916 101.1 210.635 101.407 211.349 101.567C211.349 101.567 211.903 101.732 212.434 101.746C213.965 101.793 214.731 101.355 215.783 100.691L217.695 99.4839L216.577 98.2585C217.202 97.6552 217.779 96.736 218.165 95.3505L218.648 93.6394L216.976 93.0552C215.116 92.3997 214.97 91.5232 214.618 89.4068C214.468 88.5162 214.303 87.5124 213.946 86.4611C215.59 86.0041 216.436 84.8208 216.873 83.7464L217.54 81.9554L215.98 81.2106C214.116 80.32 212.805 79.1415 211.65 77.784C212.279 77.3317 212.965 76.4124 213.547 75.5076C214.125 75.7151 214.712 75.8139 215.309 75.8187C217.474 75.8187 218.817 74.4094 218.963 74.249L220.156 72.9294L218.911 71.6476Z" fill="white"/>
        <path fill-rule="evenodd" clip-rule="evenodd" d="M154.836 94.8744V80.499C154.836 79.1605 154.451 77.8217 153.99 76.5918H165.108C166.128 77.9961 167.978 78.9387 170.101 78.9387C172.215 78.9387 174.066 77.9961 175.09 76.5918H186.208C185.738 77.8265 185.358 79.1605 185.358 80.499V94.8744H154.836ZM170.097 114.519C168.542 112.969 167.433 112.799 163.244 112.799C158.237 112.799 154.836 109.853 154.836 105.145V95.718H185.353V105.145C185.353 109.853 181.957 112.799 176.94 112.799C172.755 112.794 171.647 112.969 170.097 114.519Z" fill="#FFDD2D"/>
        <path d="M156.606 116.297V119.167L154.121 120.171C156.221 121.128 158.828 122.08 161.89 122.782L163.299 118.177C160.293 117.56 158.198 116.914 156.606 116.297Z" fill="white"/>
        <path d="M170.095 120.185C167.159 120.185 164.688 119.879 163.702 119.652L162.213 124.483C164.552 125.058 167.29 125.483 170.095 125.483C172.889 125.483 175.628 125.063 177.976 124.483L176.483 119.652C175.496 119.883 173.035 120.185 170.095 120.185Z" fill="white"/>
        <path d="M183.586 116.297C181.989 116.914 179.899 117.555 176.893 118.182L178.307 122.787C181.374 122.085 183.971 121.133 186.071 120.176L183.591 119.172V116.297H183.586Z" fill="white"/>
        <path d="M151.4 69.9887C155.289 67.8819 164.796 63.2442 158.352 58.2433C157.473 57.5647 156.506 56.9518 155.693 56.1931C154.688 56.9707 156.069 58.9032 156.416 59.6102C156.416 59.6102 154.27 59.8269 153.758 59.8269C150.442 59.8128 146.966 57.8427 148.727 54.0674C147.407 54.3408 147.248 55.6134 146.844 56.7021C145.998 56.1271 144.528 54.8923 143.396 55.0667C144.317 58.0216 148.192 60.6849 151.198 61.288C148.159 62.9471 142.522 64.1819 139.559 60.6092C137.478 64.6487 140.376 66.3359 143.218 68.4521C132.4 73.4059 133.997 78.9627 126.9 83.3367C127.82 83.7701 131.926 82.8984 132.292 82.8464C130.751 84.8496 130.033 85.698 129.582 86.6737C129.15 87.588 128.957 88.6203 128.53 90.8449C128.196 92.6029 127.586 94.3562 125.453 95.5204C126.289 97.0379 128.145 95.8502 128.92 95.6477C128.816 95.8079 128.553 97.6366 127.858 98.5179C131.503 98.2822 129.817 90.5715 133.462 92.4285C134.49 92.947 134.8 94.163 134.326 95.1574C131.93 100.116 137.374 104.485 137.078 108.831C138.417 108.821 139.803 108.784 140.676 106.969C141.132 107.874 141.837 109.146 142.231 110.372L143.321 108.51C143.993 111.593 146.858 114.439 150.728 114.694C148.882 111.762 151.095 107.761 146.609 103.505C147.168 103.052 148.46 102.18 148.92 101.586C143.415 102.237 137.67 97.8675 140.277 95.7938C141.982 94.4411 142.729 97.2501 145.359 96.7788L144.331 95.888C144.692 95.5296 145.106 95.0633 145.533 94.7097C144.415 94.5732 143.194 93.8567 143.194 93.8567L143.861 92.7489C137.412 92.7395 137.247 87.7907 139.868 87.5928C141.099 87.5032 142.691 89.7797 146.66 89.3035C146.153 88.6909 145.951 87.7624 145.712 87.079C146.67 86.9895 147.797 86.9989 148.704 86.5558C146.764 86.3061 146.275 85.6508 144.66 84.4256L146.534 83.7374C143.814 82.3752 143.979 80.0044 143.894 77.5345C145.317 78.3546 146.989 79.6274 148.774 79.0382C149.197 78.8967 149.469 78.6989 149.479 78.2558C146.933 77.2331 145.299 73.2974 151.4 69.9887ZM146.755 70.3752C143.349 74.028 144.824 76.2149 145.51 76.8889C144.241 76.6156 142.349 74.9941 142.781 73.4247C142.377 73.9102 141.964 74.438 141.541 74.98C140.695 76.1113 139.939 77.2189 139.267 78.2936C138.234 81.3758 140.127 84.5575 143.349 85.9666C139.77 85.4388 138.164 82.2433 138.173 80.2072C136.463 83.4499 135.646 86.4097 135.721 88.8937C135.754 89.8174 135.834 90.6799 135.956 91.4952C136.778 93.0601 138.098 93.6352 140.451 93.9225C138.314 94.0593 137.182 93.9603 136.252 92.98C137.708 99.2628 144.519 104.702 147.29 109.358C144.514 105.739 138.77 100.347 136.759 96.4489C136.604 97.858 136.98 101.469 138.727 103.688C136.153 101.148 135.951 97.3019 136.12 95.049C135.467 93.4277 135.054 91.6178 134.998 89.5582C134.946 87.6634 135.077 86.0186 135.364 84.5432C133.739 86.8622 131.39 87.7576 130.235 91.288C130.46 86.7347 133.847 86.6643 136.383 81.1355C137.365 78.7178 138.793 76.6297 140.371 74.2637C138.366 74.9236 136.862 75.3948 134.542 77.9446C136.191 74.0326 145.716 69.6354 150.08 65.3791C148.77 65.6573 143.42 65.7938 141.198 64.3046C145.223 65.3979 154.181 64.149 157.563 61.83C155.228 65.2 150.146 65.3933 143.96 72.0957C144.749 71.4639 145.801 70.8277 146.755 70.3752Z" fill="white"/>
        <path d="M211.654 90.8443C211.227 88.6196 211.039 87.5873 210.607 86.6731C210.161 85.6974 209.437 84.8491 207.892 82.8458C208.258 82.8978 212.373 83.7699 213.289 83.3362C206.191 78.9623 207.788 73.4052 196.966 68.4517C199.808 66.3355 202.706 64.6481 200.625 60.6042C197.662 64.1815 192.025 62.9466 188.986 61.2829C191.997 60.6795 195.867 58.0214 196.788 55.0613C195.651 54.8869 194.181 56.1217 193.336 56.692C192.932 55.6033 192.776 54.3308 191.457 54.0527C193.218 57.8327 189.737 59.8027 186.417 59.817C185.909 59.817 183.768 59.6002 183.768 59.6002C184.11 58.8931 185.491 56.9609 184.481 56.1831C183.669 56.9466 182.711 57.5546 181.828 58.2334C175.378 63.2341 184.895 67.8767 188.784 69.9787C194.876 73.2874 193.256 77.2231 190.705 78.2315C190.715 78.6746 190.987 78.8727 191.414 79.0141C193.19 79.6079 194.872 78.3355 196.285 77.5106C196.205 79.9803 196.374 82.3557 193.655 83.7132L195.524 84.4013C193.909 85.6267 193.425 86.282 191.485 86.5317C192.387 86.9748 193.523 86.9654 194.477 87.0549C194.233 87.7383 194.021 88.6668 193.523 89.2795C197.497 89.7507 199.094 87.4791 200.315 87.5685C202.927 87.7666 202.772 92.7153 196.318 92.7248L196.985 93.8324C196.985 93.8324 195.764 94.5489 194.641 94.6856C195.069 95.0343 195.487 95.5057 195.848 95.8639L194.82 96.7548C197.445 97.226 198.197 94.417 199.902 95.7697C202.509 97.8435 196.769 102.213 191.26 101.562C191.724 102.156 193.016 103.033 193.575 103.485C189.085 107.737 191.292 111.743 189.456 114.679C193.317 114.42 196.182 111.573 196.863 108.491L197.953 110.352C198.343 109.127 199.057 107.854 199.503 106.949C200.372 108.764 201.767 108.802 203.11 108.811C202.805 104.466 208.244 100.096 205.858 95.1381C205.379 94.1484 205.689 92.9324 206.718 92.4092C210.372 90.552 208.676 98.2631 212.326 98.4986C211.626 97.6171 211.368 95.7886 211.269 95.6284C212.039 95.8311 213.89 97.0186 214.726 95.4963C212.608 94.3556 211.997 92.6023 211.654 90.8443ZM204.829 84.538C205.116 86.018 205.261 87.6582 205.196 89.553C205.135 91.6126 204.726 93.4224 204.073 95.0438C204.237 97.2969 204.04 101.143 201.466 103.683C203.209 101.459 203.589 97.853 203.434 96.4436C201.414 100.341 195.675 105.733 192.894 109.353C195.67 104.697 202.481 99.2527 203.942 92.9747C203.002 93.9502 201.88 94.0542 199.738 93.9175C202.086 93.6298 203.406 93.0548 204.228 91.4901C204.35 90.6794 204.43 89.8121 204.463 88.8884C204.543 86.4044 203.721 83.4444 202.011 80.2018C202.025 82.2379 200.419 85.4334 196.835 85.9614C200.048 84.5474 201.945 81.366 200.917 78.2883C200.25 77.2136 199.498 76.1012 198.643 74.9748C198.22 74.4327 197.807 73.9049 197.399 73.4195C197.831 74.9888 195.938 76.6102 194.669 76.8836C195.36 76.2096 196.83 74.0226 193.429 70.3699C194.383 70.8224 195.435 71.4587 196.229 72.0808C190.043 65.3786 184.965 65.1901 182.621 61.8155C186.008 64.1345 194.965 65.3881 198.986 64.2897C196.769 65.7792 191.414 65.6424 190.104 65.3644C194.468 69.6205 204.003 74.0181 205.647 77.9301C203.326 75.3801 201.818 74.9089 199.822 74.249C201.405 76.6196 202.824 78.7031 203.805 81.1208C206.346 86.6494 209.738 86.7156 209.958 91.2733C208.803 87.7523 206.459 86.857 204.829 84.538Z" fill="white"/>
        <path d="M175.084 76.5859C174.064 77.9905 172.209 78.933 170.1 78.933C169.607 78.933 169.132 78.8766 168.681 78.7917C168.808 79.3715 169.104 79.9701 169.719 80.4837C169.47 82.1663 170.194 83.7406 171.993 84.1508C172.185 85.0086 172.712 85.6543 173.604 85.9604L172.35 87.4123C171.866 87.9684 171.237 88.1475 170.729 88.0817L165.13 87.4453C165.374 86.8231 164.726 86.102 162.951 86.4083L165.149 80.234L163.81 77.3731L161.269 79.5506L161.081 86.0265L159.987 85.4941C158.578 84.8812 158.16 87.4593 159.503 87.4687L160.043 87.4736C160.006 87.7374 160.09 88.0297 160.302 88.124C160.048 88.2276 159.973 88.7036 160.288 88.8735C159.968 89.0289 159.921 89.5191 160.179 89.7313C159.902 90.2071 159.851 91.2394 160.833 91.4988C161.64 91.7108 162.148 90.8433 162.312 90.3392L171.025 93.0446C172.251 93.3982 173.134 93.2001 174.158 92.3L176.432 90.3061C176.145 91.6118 176.61 92.7853 177.601 93.1765C177.601 93.1765 177.446 94.3737 177.507 94.8687L180.555 94.8734H185.356V80.4979C185.356 79.1595 185.737 77.8208 186.206 76.5859H180.555H175.084Z" fill="white"/>
        <path d="M162.036 100.775L162.205 100.987C162.44 101.28 162.581 101.209 162.849 101.053L163.243 100.841C163.492 100.653 165.113 101.275 165.202 99.9222C165.381 100.931 164.183 103.056 164.906 104.244L165.878 105.842L162.703 105.889C162.356 105.889 162.173 106.101 162.079 106.29L161.247 108.019C161.031 108.477 161.045 108.948 161.318 109.264L161.881 109.9C161.881 109.9 162.342 109.509 162.492 108.995L162.243 108.736C162.036 108.538 162.036 108.349 162.149 108.104L162.661 107.039C162.858 106.62 163.06 106.53 163.511 106.638L166.08 107.195C166.268 107.242 166.574 107.331 166.757 107.015C167.071 106.455 167.626 106.417 168.19 106.507C169.598 106.719 172.854 107.058 174.014 105.696C175.376 107.511 178.039 107.511 177.866 108.462L177.302 111.583H178.147L178.664 108.392C178.72 108.019 178.951 107.511 178.551 107.223C178.387 107.096 178.312 107.03 177.94 106.389C177.457 105.54 177.48 104.268 177.015 103.17C177.457 102.646 177.936 102.467 178.354 102.566C179.293 102.797 179.547 104.423 180.881 105.748C180.731 105.158 180.665 104.513 180.35 103.952C180.35 103.952 181.275 104.673 181.515 105.517C181.665 106.045 181.82 106.431 182.295 106.676C182.61 106.789 182.985 106.638 183.361 106.186C183.361 106.186 182.483 104.932 181.839 104.112C180.956 102.986 179.777 101.855 178.171 101.986C177.663 102.029 177.175 102.26 176.71 102.538C174.883 101.51 173.464 102.599 172.901 102.599L169.481 102.396C168.81 102.354 168.279 101.572 168.279 101.572C168.194 98.6685 165.869 97.5135 165.066 97.5135C165.066 97.5135 165.141 96.9903 164.93 96.8066L164.216 97.7069L162.233 96.9809L163.788 98.2583L162.102 100.224C161.928 100.417 161.952 100.671 162.036 100.775Z" fill="white"/>
        <path d="M159.794 104.852C159.315 105.225 159.339 105.743 159.625 106.323L159.912 106.86L160.658 106.29L160.489 105.922C160.367 105.663 160.372 105.399 160.583 105.234L161.654 104.423C161.955 104.202 162.049 104.178 162.368 104.225L164.627 104.702C164.627 104.702 164.285 104.202 164.172 103.693L162.044 103.41C161.743 103.372 161.56 103.5 161.297 103.702L159.794 104.852Z" fill="white"/>
        <path d="M174.242 111.583H175.097L176.469 108.194C176.516 108.076 176.581 108.025 176.633 107.926C176.018 107.68 175.656 107.511 175.144 107.214C175.487 107.676 175.755 107.874 175.614 108.303L174.242 111.583Z" fill="white"/>
        <path d="M174.97 65.7466L176.553 56.6172L170.555 58.6628V68.075L174.97 65.7466ZM171.569 59.5865L175.548 58.1161C175.548 58.1161 174.773 58.7475 173.847 59.3837C173.025 59.9541 171.569 60.5622 171.569 60.5622V59.5865ZM171.569 61.797L175.209 60.4913C175.209 60.4913 174.773 60.9534 173.852 61.5897C173.03 62.1552 171.574 62.7631 171.574 62.7631V61.797H171.569ZM171.569 64.1441L174.773 62.9093C174.773 62.9093 174.773 63.3005 173.847 63.9321C173.025 64.5025 171.569 65.1104 171.569 65.1104V64.1441Z" fill="white"/>
        <path d="M164.299 73.8197L164.431 74.0318H165.666L165.68 74.2487C165.694 74.4562 165.741 74.6682 165.811 74.8849C166.004 75.4741 166.385 76.0916 166.995 76.5911C167.704 77.1663 168.728 77.5811 170.091 77.5811C173.045 77.5811 174.379 75.6628 174.506 74.2487L174.515 74.0318H175.755L175.887 73.8197C177.052 71.9911 178.475 69.9596 180.128 69.6675L175.619 67.042L170.091 70.0586L164.557 67.042L160.053 69.6675C161.706 69.955 163.129 71.9911 164.299 73.8197Z" fill="white"/>
        <path d="M169.625 68.075V58.6628L163.637 56.6172L165.21 65.7466L169.625 68.075ZM168.616 65.1198C168.616 65.1198 167.159 64.5073 166.338 63.9416C165.412 63.31 165.412 62.9141 165.412 62.9141L168.62 64.1489V65.1198H168.616ZM168.616 59.5865V60.5622C168.616 60.5622 167.159 59.9541 166.338 59.3837C165.407 58.7475 164.628 58.1161 164.628 58.1161L168.616 59.5865ZM168.616 61.797V62.7679C168.616 62.7679 167.159 62.16 166.338 61.5943C165.407 60.9581 164.975 60.4961 164.975 60.4961L168.616 61.797Z" fill="white"/>
        <path d="M170.094 52.5918C166.669 52.5918 164.1 53.7182 163.541 55.0381L170.094 57.635L176.637 55.0381C176.082 53.7182 173.518 52.5918 170.094 52.5918Z" fill="white"/>
        <path d="M170.096 48.8211C172.618 48.8211 175.145 49.5894 176.845 50.584C177.123 49.6648 177.418 49.0097 177.822 48.2604L176.273 48.5007L175.018 45.8141L172.674 47.0632L170.096 44.5039L167.512 47.0632L165.173 45.8141L163.91 48.5007L162.359 48.2604C162.763 49.0097 163.055 49.6648 163.341 50.584C165.046 49.5894 167.564 48.8211 170.096 48.8211Z" fill="white"/>
        <path d="M212.839 69.5115C213.684 69.4033 214.366 69.1204 215.197 68.4981C213.407 68.0222 209.659 66.6601 206.46 67.2728C205.403 67.4141 204.816 67.843 205.192 68.0881C206.911 69.2334 209.034 71.8869 210.58 74.9838C211.937 73.2916 211.369 71.0716 211.082 70.4354C213.788 72.0708 214.497 72.8674 215.751 72.5562C215.079 71.5241 214.135 70.5956 212.839 69.5115Z" fill="white"/>
        <path d="M129.611 74.9799C131.156 71.8834 133.279 69.2299 135.003 68.0844C135.388 67.8395 134.792 67.4105 133.744 67.2691C130.541 66.6612 126.783 68.0185 124.994 68.4946C125.834 69.1169 126.501 69.3996 127.356 69.508C126.055 70.5967 125.111 71.5206 124.439 72.5527C125.703 72.8637 126.408 72.0673 129.108 70.4317C128.831 71.0727 128.258 73.2879 129.611 74.9799Z" fill="white"/>
        <path fill-rule="evenodd" clip-rule="evenodd" d="M148.367 103.722C149.611 102.732 150.645 102.237 150.593 99.8376C148.724 100.799 143.421 100.747 141.204 97.6837C140.579 96.8118 141.246 96.3735 141.852 97.0615C143.369 98.7866 146.178 98.0043 147.202 97.5092C147.037 96.9156 146.582 96.1424 146.201 95.8126C146.586 95.4356 147.672 94.8698 147.892 93.8989C147.314 93.5832 145.064 93.3569 145.064 93.3569C145.426 93.0082 145.877 92.5227 145.605 91.2266C143.308 91.9337 140.466 90.9721 139.823 90.119C139.188 89.2799 139.837 88.4929 140.372 89.049C141.518 90.2556 147.164 91.6366 149.264 89.5392C148.484 89.3224 147.624 88.6248 147.469 88.1911C149.414 87.9934 150.964 86.8432 151.091 85.4104C150.015 85.4104 147.986 85.3303 147.291 84.8117C148.221 84.4678 148.813 84.1284 149.109 83.082C145.553 82.8654 145.271 80.2163 145.252 79.7781C147.568 81.1166 151.645 80.5227 150.588 77.2234C148.662 77.1198 146.723 73.995 152.016 71.1245C156.831 68.5088 162.303 65.6901 161.819 61.0478C161.504 58.0783 156.634 56.0516 156.014 54.5481C153.98 55.5189 153.571 56.6455 154.487 58.5355C154.487 58.5355 149.954 58.988 149.597 56.1883C149.442 54.9346 150.278 53.7609 151.175 52.8608C150.668 52.8608 147.253 51.9417 146.225 54.7319C144.313 53.4217 142.674 53.4688 141.387 54.8544C143.444 56.0798 144.717 60.2841 148.118 61.5236C145.698 62.8386 141.786 62.2873 139.503 58.2432C137.342 61.5095 136.098 64.7428 140.734 68.1976C132.302 72.0482 132.364 79.4105 125.027 82.917C125.769 84.9202 127.338 84.9202 129.339 84.6092C126.168 88.7426 128.869 93.0694 123.848 94.8369C124.317 96.5243 125.261 97.8722 127.112 97.3773C126.586 98.202 126.239 98.1832 125.421 99.0882C128.164 100.823 131.42 99.569 132.157 94.0025C132.288 93.0082 133.65 93.6303 133.181 94.606C130.052 101.096 137.963 105.979 135.163 110.739C137.629 110.636 139.512 110.442 140.536 109.608C141.039 110.607 141.344 111.597 141.232 112.573C142.594 112.295 143.092 111.489 143.186 110.556C144.078 113.172 147.272 115.966 152.383 115.966C149.672 112.083 152.195 108.147 148.367 103.722ZM143.322 108.505L142.232 110.367C141.842 109.141 141.133 107.869 140.677 106.964C139.799 108.779 138.413 108.816 137.079 108.826C137.375 104.48 131.931 100.111 134.327 95.1527C134.806 94.1629 134.491 92.9469 133.463 92.4238C129.813 90.5667 131.504 98.2775 127.859 98.5132C128.554 97.6317 128.817 95.8032 128.921 95.6428C128.145 95.8455 126.29 97.0332 125.454 95.5157C127.587 94.3515 128.197 92.5982 128.531 90.8402C128.953 88.6153 129.151 87.5832 129.578 86.6688C130.029 85.6933 130.748 84.8449 132.288 82.8417C131.922 82.8935 127.821 83.7656 126.896 83.3319C133.994 78.958 132.396 73.4009 143.214 68.4474C140.377 66.3312 137.479 64.6438 139.555 60.6047C142.519 64.1772 148.151 62.9423 151.194 61.2833C148.188 60.68 144.313 58.0217 143.397 55.0619C144.529 54.8875 145.999 56.1223 146.84 56.6973C147.249 55.6037 147.408 54.336 148.728 54.0626C146.967 57.8378 150.443 59.8081 153.759 59.8223C154.275 59.8223 156.418 59.6053 156.418 59.6053C156.074 58.8984 154.689 56.9659 155.694 56.1883C156.507 56.9518 157.474 57.5598 158.353 58.2385C164.802 63.2439 155.29 67.8818 151.401 69.9888C145.299 73.2973 146.934 77.2377 149.48 78.2417C149.47 78.6845 149.198 78.8825 148.775 79.024C146.99 79.6179 145.318 78.3404 143.895 77.5203C143.979 79.9903 143.81 82.3657 146.535 83.723L144.66 84.4064C146.272 85.6367 146.765 86.2869 148.705 86.5415C147.798 86.9846 146.676 86.9751 145.713 87.0649C145.957 87.7481 146.154 88.6768 146.662 89.2893C142.693 89.7609 141.1 87.4889 139.869 87.5786C137.249 87.7764 137.413 92.7255 143.862 92.7349L143.195 93.8423C143.195 93.8423 144.416 94.5588 145.539 94.6954C145.111 95.0443 144.698 95.5157 144.337 95.8736L145.365 96.7646C142.73 97.2358 141.988 94.4268 140.278 95.7795C137.671 97.8533 143.416 102.223 148.921 101.572C148.461 102.166 147.164 103.043 146.61 103.495C151.096 107.747 148.883 111.753 150.729 114.689C146.859 114.435 143.994 111.583 143.322 108.505Z" fill="black"/>
        <path fill-rule="evenodd" clip-rule="evenodd" d="M136.243 92.9798C137.178 93.9553 138.305 94.059 140.442 93.9223C138.089 93.6348 136.769 93.0597 135.947 91.4951C135.829 90.6845 135.75 89.817 135.717 88.8933C135.642 86.4093 136.459 83.4495 138.169 80.2068C138.159 82.2381 139.761 85.4336 143.345 85.9662C140.123 84.5524 138.23 81.3708 139.263 78.2932C139.935 77.2185 140.691 76.1061 141.537 74.9798C141.959 74.4378 142.373 73.9098 142.777 73.4243C142.344 74.9939 144.237 76.6152 145.506 76.8884C144.82 76.2145 143.345 74.0324 146.75 70.3798C145.801 70.8321 144.749 71.4683 143.951 72.0905C150.132 65.3883 155.219 65.1998 157.554 61.8252C154.172 64.1442 145.214 65.3977 141.189 64.2994C143.411 65.7888 148.761 65.6521 150.071 65.3741C145.712 69.6302 136.186 74.0278 134.533 77.9398C136.853 75.3851 138.356 74.9186 140.367 74.2633C138.784 76.6341 137.361 78.7174 136.379 81.1353C133.843 86.659 130.451 86.7299 130.23 91.2829C131.386 87.7526 133.735 86.8572 135.36 84.5382C135.073 86.0182 134.937 87.6584 134.989 89.5532C135.045 91.6128 135.458 93.4226 136.111 95.044C135.947 97.2971 136.144 101.143 138.718 103.683C136.971 101.463 136.595 97.8532 136.75 96.4439C138.765 100.342 144.51 105.734 147.286 109.354C144.51 104.702 137.704 99.2624 136.243 92.9798Z" fill="black"/>
        <path fill-rule="evenodd" clip-rule="evenodd" d="M199.828 74.2626C201.824 74.9225 203.332 75.3892 205.652 77.9437C204.008 74.0317 194.469 69.6343 190.11 65.3783C191.42 65.6516 196.775 65.7931 198.992 64.3037C194.971 65.4018 186.014 64.1481 182.627 61.8291C184.966 65.2039 190.049 65.3924 196.235 72.0946C195.441 71.4724 194.389 70.8362 193.435 70.3837C196.836 74.0365 195.366 76.2234 194.675 76.8974C195.943 76.6241 197.836 75.0028 197.404 73.433C197.813 73.9187 198.226 74.4465 198.649 74.9885C199.499 76.1198 200.251 77.2272 200.922 78.3019C201.956 81.3845 200.058 84.5658 196.845 85.9751C200.429 85.4473 202.036 82.2468 202.017 80.2155C203.731 83.4582 204.549 86.4182 204.473 88.902C204.44 89.8257 204.361 90.6884 204.238 91.5038C203.412 93.0684 202.092 93.6436 199.743 93.931C201.885 94.0629 203.008 93.9642 203.947 92.9885C202.486 99.2713 195.68 104.71 192.9 109.367C195.68 105.747 201.416 100.355 203.44 96.4572C203.595 97.8666 203.219 101.477 201.472 103.697C204.046 101.157 204.243 97.3104 204.079 95.0575C204.727 93.4362 205.136 91.6263 205.201 89.5665C205.262 87.6718 205.117 86.0269 204.835 84.5517C206.465 86.8705 208.809 87.7663 209.969 91.2965C209.748 86.7386 206.357 86.6679 203.816 81.144C202.829 78.7118 201.411 76.6287 199.828 74.2626Z" fill="black"/>
        <path fill-rule="evenodd" clip-rule="evenodd" d="M210.857 84.5995C212.854 84.9155 214.423 84.9155 215.169 82.9123C207.832 79.4057 207.894 72.0482 199.462 68.193C204.098 64.7428 202.849 61.5047 200.693 58.2385C198.415 62.2824 194.488 62.8339 192.078 61.5189C195.47 60.2793 196.752 56.0752 198.809 54.8497C197.522 53.4639 195.878 53.4168 193.967 54.727C192.933 51.9368 189.523 52.8559 189.011 52.8559C189.904 53.7514 190.749 54.9251 190.589 56.1836C190.237 58.9833 185.704 58.5306 185.704 58.5306C186.62 56.6407 186.212 55.5143 184.178 54.5432C183.558 56.0469 178.692 58.0735 178.372 61.0428C177.884 65.6853 183.365 68.5038 188.175 71.1199C193.469 73.9902 191.529 77.1198 189.608 77.2188C188.541 80.5181 192.619 81.1119 194.939 79.7733C194.929 80.2117 194.634 82.8604 191.078 83.0774C191.379 84.1237 191.966 84.4628 192.896 84.8071C192.201 85.3303 190.171 85.4056 189.1 85.4056C189.227 86.8384 190.782 87.9932 192.727 88.1865C192.571 88.6202 191.707 89.3178 190.932 89.5344C193.032 91.6318 198.678 90.2509 199.824 89.0444C200.35 88.4882 200.994 89.2752 200.364 90.1142C199.716 90.9719 196.879 91.9335 194.577 91.2216C194.314 92.5133 194.756 93.0034 195.117 93.3523C195.117 93.3523 192.868 93.5783 192.285 93.8943C192.506 94.8652 193.595 95.4259 193.976 95.8078C193.591 96.1376 193.135 96.9106 192.971 97.5046C194.004 98.0041 196.813 98.7818 198.321 97.0567C198.931 96.3733 199.598 96.807 198.974 97.679C196.757 100.742 191.454 100.79 189.58 99.8328C189.528 102.232 190.561 102.727 191.806 103.717C187.973 108.142 190.505 112.078 187.794 115.952C192.9 115.952 196.094 113.157 196.987 110.541C197.09 111.47 197.578 112.281 198.936 112.559C198.833 111.583 199.133 110.593 199.631 109.594C200.665 110.428 202.548 110.621 205.014 110.725C202.219 105.965 210.129 101.082 206.992 94.5918C206.527 93.6161 207.889 92.9939 208.02 93.9885C208.753 99.5548 212.013 100.809 214.761 99.0741C213.934 98.1691 213.591 98.188 213.065 97.3631C214.916 97.8579 215.855 96.51 216.33 94.8226C211.332 93.06 214.033 88.7332 210.857 84.5995ZM211.28 95.6476C211.379 95.8078 211.637 97.6365 212.337 98.518C208.687 98.2821 210.378 90.5713 206.729 92.4284C205.7 92.9469 205.395 94.1629 205.869 95.1573C208.255 100.116 202.816 104.485 203.121 108.83C201.778 108.821 200.383 108.783 199.514 106.969C199.068 107.874 198.349 109.146 197.959 110.372L196.869 108.51C196.193 111.592 193.328 114.439 189.467 114.698C191.303 111.767 189.096 107.76 193.586 103.505C193.023 103.052 191.731 102.175 191.266 101.581C196.775 102.232 202.515 97.8629 199.909 95.7889C198.203 94.4362 197.452 97.2454 194.826 96.7738L195.855 95.8833C195.493 95.5251 195.075 95.0583 194.647 94.705C195.77 94.5683 196.992 93.8518 196.992 93.8518L196.324 92.7442C202.774 92.7347 202.929 87.7858 200.322 87.5878C199.096 87.4983 197.499 89.7747 193.53 89.2989C194.032 88.686 194.239 87.7575 194.483 87.0741C193.525 86.9846 192.393 86.994 191.491 86.5509C193.431 86.3012 193.92 85.6461 195.531 84.4207L193.661 83.7325C196.381 82.3703 196.207 79.9995 196.292 77.53C194.873 78.3501 193.191 79.6225 191.421 79.0334C190.998 78.8919 190.721 78.694 190.711 78.2509C193.262 77.2423 194.887 73.3068 188.79 69.9981C184.906 67.8913 175.389 63.2533 181.834 58.2526C182.717 57.574 183.675 56.9612 184.483 56.2024C185.493 56.98 184.112 58.9125 183.769 59.6196C183.769 59.6196 185.911 59.8362 186.418 59.8362C189.739 59.8221 193.22 57.8521 191.458 54.0719C192.778 54.3453 192.933 55.6227 193.337 56.7114C194.183 56.1363 195.648 54.9063 196.79 55.0807C195.864 58.036 191.998 60.6988 188.988 61.3019C192.027 62.9612 197.663 64.1961 200.627 60.6234C202.703 64.6627 199.81 66.35 196.968 68.4663C207.79 73.4152 206.189 78.9768 213.29 83.3508C212.375 83.7843 208.26 82.9123 207.894 82.8604C209.443 84.8635 210.167 85.7119 210.608 86.6876C211.041 87.6019 211.229 88.6296 211.656 90.8588C211.994 92.6169 212.609 94.3701 214.732 95.5345C213.901 97.038 212.051 95.8501 211.28 95.6476Z" fill="black"/>
        <path fill-rule="evenodd" clip-rule="evenodd" d="M159.747 107.813L161.292 106.498L161.057 106.026C160.888 105.687 160.977 105.668 161.156 105.536L161.973 104.928C162.161 104.773 162.358 104.792 162.589 104.848L165.036 105.423H162.452C161.856 105.461 161.682 105.692 161.466 106.135L161.288 106.498L160.625 107.865C160.4 108.336 160.282 108.963 160.874 109.67L161.344 110.231L160.395 112.158H161.193L161.851 110.82C161.903 110.773 162.875 109.882 163.082 108.963C162.8 108.732 162.603 108.572 162.758 108.251L163.053 107.61C163.152 107.398 163.185 107.313 163.467 107.365L166.032 107.921C166.351 108.011 166.821 108.152 167.163 107.634C167.516 107.096 167.563 107.153 168.38 107.233L169.69 107.374C171.48 107.544 173.27 107.096 173.965 106.54C174.209 107.096 174.693 107.525 174.918 107.959C175.003 108.119 174.862 108.345 174.754 108.628L173.284 112.154H175.552L176.835 108.939C176.952 108.633 177.126 108.388 177.257 108.265L176.52 112.158H178.723L179.305 108.308C179.432 107.45 179.357 107.177 178.949 106.823C178.033 106.045 178.051 104.415 177.756 103.425C177.911 103.335 178.094 103.288 178.31 103.316C178.789 103.359 179.151 104.589 179.714 105.381C180.841 106.969 182.377 108.722 184.139 106.253C183.97 105.97 183.787 105.715 183.571 105.47L183.077 104.891C182.791 104.57 181.429 103.005 180.86 102.444C179.569 101.139 177.586 101.337 176.797 101.973C175.008 101.03 173.12 102.02 172.673 101.983L169.592 101.794C169.451 101.784 169.24 101.737 169.089 101.497L169.662 101.309C169.127 99.0697 167.779 97.1985 165.426 96.8734C165.426 96.8734 165.289 96.1663 164.928 96.0296L164.223 96.8592C164.026 96.8875 163.81 96.9487 163.631 97.0242L160.625 95.9023L162.88 98.1884C162.88 98.1884 161.71 99.8521 161.377 100.191C161.156 100.503 161.175 100.743 161.424 101.04L161.86 101.615C162.086 101.912 162.335 101.902 162.697 101.719L163.19 101.459C163.406 101.28 164.129 101.634 164.439 101.351C164.242 102.001 164.143 102.628 164.096 103.123L162.072 102.878C161.63 102.817 161.428 102.878 161.161 103.09L159.432 104.424C158.868 104.858 158.695 105.607 159.042 106.338L159.747 107.813ZM176.468 108.194L175.097 111.588H174.242L175.614 108.303C175.755 107.879 175.487 107.681 175.144 107.219C175.651 107.506 176.018 107.695 176.633 107.931C176.581 108.025 176.515 108.077 176.468 108.194ZM163.241 100.846L162.852 101.054C162.579 101.21 162.443 101.28 162.208 100.988L162.039 100.771C161.955 100.668 161.926 100.418 162.1 100.22L163.782 98.2544L162.232 96.977L164.204 97.7076L164.928 96.8026C165.139 96.9818 165.064 97.5048 165.064 97.5048C165.862 97.5048 168.188 98.6644 168.277 101.568C168.277 101.568 168.803 102.345 169.474 102.388L172.899 102.595C173.467 102.595 174.886 101.511 176.708 102.534C177.168 102.256 177.661 102.034 178.169 101.978C179.775 101.86 180.959 102.982 181.837 104.113C182.481 104.933 183.364 106.187 183.364 106.187C182.983 106.639 182.612 106.79 182.298 106.677C181.823 106.432 181.668 106.05 181.518 105.518C181.278 104.674 180.353 103.953 180.353 103.953C180.668 104.518 180.733 105.159 180.884 105.748C179.545 104.419 179.291 102.798 178.357 102.572C177.943 102.468 177.46 102.647 177.013 103.165C177.483 104.264 177.46 105.536 177.943 106.389C178.31 107.026 178.39 107.082 178.554 107.224C178.949 107.506 178.728 108.02 178.667 108.393L178.16 111.583H177.305L177.868 108.463C178.042 107.511 175.379 107.511 174.017 105.697C172.856 107.059 169.601 106.719 168.192 106.507C167.624 106.422 167.07 106.46 166.759 107.021C166.576 107.337 166.271 107.242 166.083 107.195L163.514 106.639C163.063 106.535 162.866 106.625 162.668 107.04L162.156 108.105C162.044 108.355 162.048 108.539 162.255 108.741L162.499 109.001C162.354 109.509 161.889 109.901 161.889 109.901L161.33 109.269C161.057 108.949 161.043 108.487 161.259 108.034L162.091 106.29C162.189 106.097 162.368 105.89 162.715 105.89L165.891 105.843L164.918 104.254C164.195 103.062 165.397 100.936 165.214 99.9322C165.116 101.275 163.495 100.663 163.241 100.846ZM159.794 104.853L161.297 103.703C161.565 103.5 161.743 103.368 162.048 103.406L164.172 103.689C164.289 104.198 164.627 104.697 164.627 104.697L162.368 104.221C162.048 104.184 161.955 104.198 161.654 104.415L160.583 105.225C160.372 105.39 160.362 105.654 160.484 105.913L160.658 106.286L159.911 106.851L159.625 106.314C159.333 105.744 159.315 105.22 159.794 104.853Z" fill="black"/>
        <path fill-rule="evenodd" clip-rule="evenodd" d="M166.342 63.9369C167.164 64.5073 168.62 65.1152 168.62 65.1152V64.1441L165.412 62.9141C165.412 62.9141 165.412 63.3101 166.342 63.9369Z" fill="black"/>
        <path fill-rule="evenodd" clip-rule="evenodd" d="M168.615 62.7676V61.7969L164.975 60.4912C164.975 60.4912 165.407 60.9532 166.337 61.5894C167.159 62.1551 168.615 62.7676 168.615 62.7676Z" fill="black"/>
        <path fill-rule="evenodd" clip-rule="evenodd" d="M168.617 60.5623V59.5868L164.629 58.1162C164.629 58.1162 165.409 58.7478 166.339 59.384C167.161 59.9544 168.617 60.5623 168.617 60.5623Z" fill="black"/>
        <path fill-rule="evenodd" clip-rule="evenodd" d="M179.818 73.8204H183.895C183.726 73.2264 183.092 72.6279 181.904 72.6279C180.777 72.6279 180.1 73.2784 179.818 73.8204Z" fill="black"/>
        <path fill-rule="evenodd" clip-rule="evenodd" d="M175.555 58.1162L171.576 59.5868V60.5623C171.576 60.5623 173.032 59.9544 173.854 59.384C174.78 58.7478 175.555 58.1162 175.555 58.1162Z" fill="black"/>
        <path fill-rule="evenodd" clip-rule="evenodd" d="M174.78 62.9141L171.576 64.1489V65.1198C171.576 65.1198 173.032 64.5073 173.854 63.9416C174.78 63.3101 174.78 62.9141 174.78 62.9141Z" fill="black"/>
        <path fill-rule="evenodd" clip-rule="evenodd" d="M175.21 60.4912L171.57 61.7969V62.7676C171.57 62.7676 173.031 62.1597 173.848 61.5942C174.778 60.9532 175.21 60.4912 175.21 60.4912Z" fill="black"/>
        <path fill-rule="evenodd" clip-rule="evenodd" d="M158.279 72.6279C157.09 72.6279 156.456 73.2264 156.287 73.8204H160.369C160.078 73.2784 159.411 72.6279 158.279 72.6279Z" fill="black"/>
        <path fill-rule="evenodd" clip-rule="evenodd" d="M178.193 55.4954C178.193 53.1955 174.341 51.1357 170.09 51.1357C165.839 51.1357 161.988 53.1955 161.988 55.4954L162.077 56.0611L163.768 65.8317L155.736 70.5307C154.881 71.0352 153.81 72.4206 153.674 73.8159H155.139C155.383 72.4206 156.478 70.8748 158.531 70.9691C160.386 71.0679 161.485 72.1992 162.575 73.8159L162.857 74.2401L163.261 74.8763H151.447C152.316 76.6249 153.138 78.482 153.138 80.4946V105.14C153.138 111.48 157.991 114.501 163.246 114.501C167.305 114.501 167.854 114.317 170.095 116.565C172.326 114.317 172.876 114.501 176.943 114.501C182.195 114.501 187.051 111.48 187.051 105.14V80.4994C187.051 78.4868 187.873 76.6296 188.742 74.881H176.92L177.328 74.2447L177.61 73.8205C178.695 72.204 179.799 71.0727 181.654 70.9738C183.698 70.8796 184.801 72.4254 185.041 73.8205H186.502C186.37 72.4254 185.295 71.0352 184.445 70.5355L176.412 65.8363L178.108 56.0657L178.193 55.4954ZM163.632 56.6172L169.625 58.6627V68.075L165.21 65.747L163.632 56.6172ZM165.107 76.5874C165.896 77.6713 167.173 78.4725 168.686 78.7835C168.813 79.3539 169.123 79.9807 169.724 80.4852C169.475 82.1677 170.193 83.7373 171.997 84.152C172.185 85.0097 172.716 85.6555 173.604 85.9619L172.35 87.4136C171.87 87.9697 171.246 88.1488 170.729 88.0829L165.13 87.4465C165.374 86.8244 164.726 86.1032 162.955 86.4096L165.158 80.2354L163.815 77.3744L161.269 79.552L161.081 86.0279L160.001 85.4953C158.578 84.8826 158.164 87.4606 159.517 87.47L160.052 87.4748C160.019 87.7388 160.099 88.0309 160.306 88.1205C160.052 88.2291 159.977 88.7097 160.297 88.8795C159.973 89.0303 159.93 89.5204 160.189 89.7324C159.907 90.2086 159.865 91.2407 160.846 91.4999C161.649 91.7121 162.152 90.8448 162.316 90.3405L171.025 93.0459C172.26 93.3993 173.134 93.2015 174.158 92.3013L176.431 90.3076C176.145 91.6131 176.614 92.7867 177.606 93.1778C177.606 93.1778 177.465 94.3515 177.507 94.8748H154.834V80.4994C154.834 79.1607 154.449 77.8221 153.988 76.5874H165.107ZM174.473 82.0405C173.993 82.9597 174.04 84.0153 174.604 84.9722L174.228 85.3397C172.594 85.137 171.95 82.6909 171.95 82.6909C171.917 82.9125 171.899 83.1246 171.903 83.3414C170.95 82.9878 170.349 82.1396 170.395 80.9752C170.757 81.178 171.161 81.3195 171.593 81.3948L171.706 80.6783C170.565 80.4803 169.898 79.764 169.644 78.9156C169.587 78.9108 169.541 78.8967 169.489 78.8921C169.691 78.9062 169.893 78.9251 170.1 78.9251C170.776 78.9251 171.419 78.8213 172.021 78.6422C172.495 79.321 173.336 79.8064 174.181 79.9007C174.045 80.4663 174.111 81.1685 174.473 82.0405ZM176.892 88.5069C176.727 88.7286 176.596 88.9831 176.511 89.2612L175.6 90.1002C175.783 88.7617 174.886 87.1825 174.069 86.5369L175.036 85.5849L175.229 85.7828C174.905 86.6359 175.539 88.3092 176.892 88.5069ZM172.49 88.0877L173.242 87.3475C174.003 88.0169 175.008 89.5109 174.693 90.9345L173.876 91.6886C173.707 91.8534 173.533 91.9713 173.355 92.0797C173.867 90.8117 173.214 88.8607 172.49 88.0877ZM170.875 88.7145H170.898C171.171 88.7569 171.462 88.7097 171.725 88.6013C172.298 89.4214 172.744 91.2879 172.058 92.4521C171.668 92.4615 171.288 92.3908 170.931 92.2872L170.649 92.2021C171.227 91.3021 171.147 89.7091 170.875 88.7145ZM168.982 88.4788L170.039 88.6107C170.208 89.4921 170.095 91.0144 169.536 91.8819L168.305 91.5236C168.845 90.7884 169.099 89.2754 168.982 88.4788ZM166.779 88.2102L168.061 88.361C168.188 89.0679 167.948 90.5714 167.464 91.2879L166.159 90.9108C166.68 90.218 166.868 88.9972 166.779 88.2102ZM161.588 87.8659C160.992 88.0592 160.729 87.6256 160.752 87.258C161.922 86.8292 162.443 87.1072 162.786 87.3241C163.101 87.522 163.364 88.0877 163.787 88.4411C163.716 88.9217 163.571 89.6193 163.397 90.0861C162.199 89.7796 162.138 88.7191 162.584 88.0735C162.335 87.7812 162.072 87.7057 161.588 87.8659ZM160.752 90.2086C160.752 90.2086 161.109 90.3593 161.56 90.3925C161.509 90.6422 161.316 90.8779 161.011 90.8117C160.757 90.7552 160.644 90.4441 160.752 90.2086ZM159.573 86.7678C159.277 86.57 159.409 86.1364 159.738 86.1364C160.099 86.1458 160.578 86.5557 161.053 86.7583C161.053 86.7583 159.808 86.9282 159.573 86.7678ZM160.79 89.266C161.048 89.5158 161.823 89.4214 161.823 89.4214L161.851 89.577C161.513 90.0293 160.574 89.8267 160.79 89.266ZM161.833 88.7523C161.278 88.9737 160.71 88.672 160.884 88.3138C161.142 88.5495 161.861 88.4316 161.861 88.4316L161.833 88.7523ZM162.65 82.281L161.588 86.1598L161.95 79.9007L163.594 78.4916L164.43 80.3344L162.316 86.4144L162.875 82.3233C162.927 82.031 162.697 81.9981 162.65 82.281ZM162.725 86.9848C162.725 86.9848 163.909 86.9282 164.242 87.0552C164.487 87.159 164.322 87.5738 164.003 87.5268C163.669 87.4843 162.725 86.9848 162.725 86.9848ZM164.58 87.9273L165.867 88.0877C165.966 88.7944 165.783 89.9918 165.322 90.6611L164.078 90.2981C164.407 89.5109 164.487 88.7711 164.58 87.9273ZM185.356 105.145C185.356 108.142 183.975 110.419 181.678 111.682L182.5 110.004H181.701L180.645 112.153C179.55 112.568 178.31 112.799 176.939 112.799C172.749 112.799 171.64 112.969 170.09 114.519C168.535 112.969 167.427 112.799 163.242 112.799C161.879 112.799 160.64 112.578 159.55 112.163H159.578L160.635 110.004H159.841L158.916 111.894C158.695 111.79 158.479 111.677 158.272 111.555L159.033 110.004H158.244L157.68 111.159C155.886 109.834 154.829 107.761 154.829 105.145V95.7182H185.346V105.145H185.356ZM186.206 76.5874C185.732 77.8221 185.351 79.1607 185.351 80.4994V94.8748H183.683C182.927 94.1395 182.288 91.6886 182.288 91.6886C181.875 92.5699 182.35 94.3561 182.791 94.8748H180.645C180.114 94.1535 179.654 91.599 179.654 91.599C179.01 92.3342 179.419 94.3185 179.818 94.8748H178.39C178.301 93.852 178.592 92.7396 178.592 92.7396C177.845 92.6028 177.051 92.2069 177.056 91.3774C177.432 91.7309 177.587 91.7263 178.108 91.7169L178.714 91.2359C176.704 91.3021 176.61 89.0867 178.207 88.0498C176.614 88.1016 175.426 87.1498 176.004 85.4528C174.872 84.8636 174.473 82.9408 175.309 82.0971C174.703 81.4372 174.604 80.1411 174.989 79.2597C174.186 79.2597 173.284 78.9391 172.782 78.3876C172.744 78.4065 172.697 78.4207 172.655 78.4348C173.66 78.0248 174.51 77.3838 175.083 76.592H186.206V76.5874ZM180.128 69.6682C178.475 69.9559 177.051 71.987 175.886 73.8205L175.755 74.0325H174.51L174.506 74.2495C174.378 75.6633 173.04 77.5818 170.09 77.5818C168.728 77.5818 167.699 77.1622 166.995 76.592C166.384 76.0923 165.999 75.475 165.811 74.8858C165.741 74.6738 165.698 74.4567 165.68 74.2495L165.67 74.0325H164.435L164.303 73.8205C163.134 71.9918 161.711 69.9603 160.062 69.6682L164.566 67.0429L170.1 70.0595L175.623 67.0429L180.128 69.6682ZM174.97 65.747L170.56 68.075V58.6627L176.553 56.6172L174.97 65.747ZM170.095 57.6353L163.542 55.0384C164.097 53.7185 166.666 52.5921 170.095 52.5921C173.519 52.5921 176.084 53.7185 176.638 55.0384L170.095 57.6353Z" fill="black"/>
        <path fill-rule="evenodd" clip-rule="evenodd" d="M184.657 85.8766L184.671 85.1553C182.468 85.1035 181.961 82.4971 181.961 82.4971C181.317 84.4153 182.999 85.8482 184.657 85.8766Z" fill="black"/>
        <path fill-rule="evenodd" clip-rule="evenodd" d="M181.876 90.2923L181.656 89.609C179.777 90.0897 178.805 87.1016 178.805 87.1016C178.203 89.2744 180.298 90.811 181.876 90.2923Z" fill="black"/>
        <path fill-rule="evenodd" clip-rule="evenodd" d="M183.181 87.521C180.936 87.8791 180.015 85.2588 180.015 85.2588C179.766 86.6868 180.687 88.1337 182.176 88.2845C181.837 90.1465 183.561 91.1029 185.055 90.4384L184.839 89.7881C183.543 90.2264 182.326 88.9395 183.181 87.521Z" fill="black"/>
        <path fill-rule="evenodd" clip-rule="evenodd" d="M181.839 80.0425L181.858 79.3214C178.894 78.7086 179.143 76.6631 179.143 76.6631C178.504 78.5908 180.185 80.0144 181.839 80.0425Z" fill="black"/>
        <path fill-rule="evenodd" clip-rule="evenodd" d="M163.059 110.004L161.998 112.163H162.796L163.853 110.004H163.059Z" fill="black"/>
        <path fill-rule="evenodd" clip-rule="evenodd" d="M164.66 110.004L163.604 112.163H164.407L165.454 110.004H164.66Z" fill="black"/>
        <path fill-rule="evenodd" clip-rule="evenodd" d="M171.077 110.004L170.02 112.163H170.813L171.875 110.004H171.077Z" fill="black"/>
        <path fill-rule="evenodd" clip-rule="evenodd" d="M172.683 110.004L171.617 112.163H172.42L173.472 110.004H172.683Z" fill="black"/>
        <path fill-rule="evenodd" clip-rule="evenodd" d="M169.475 110.004L168.414 112.163H169.212L170.269 110.004H169.475Z" fill="black"/>
        <path fill-rule="evenodd" clip-rule="evenodd" d="M178.846 112.163H179.644L180.701 110.004H179.903L178.846 112.163Z" fill="black"/>
        <path fill-rule="evenodd" clip-rule="evenodd" d="M166.268 110.004L165.211 112.163H166.009L167.066 110.004H166.268Z" fill="black"/>
        <path fill-rule="evenodd" clip-rule="evenodd" d="M167.863 110.004L166.807 112.163H167.61L168.667 110.004H167.863Z" fill="black"/>
        <path fill-rule="evenodd" clip-rule="evenodd" d="M164.237 98.4004C164.092 98.4004 163.965 98.5417 163.965 98.7256C163.965 98.9047 164.092 99.0508 164.237 99.0508C164.388 99.0508 164.519 98.9047 164.519 98.7256C164.515 98.5417 164.388 98.4004 164.237 98.4004Z" fill="black"/>
        <path fill-rule="evenodd" clip-rule="evenodd" d="M170.096 49.6793C173.384 49.6793 176.019 50.7726 177.47 51.9463C177.47 51.9463 177.907 49.3257 179.377 47.0258L176.728 47.3227L175.342 44.3626L172.679 45.753L170.096 43.1797L167.512 45.753L164.84 44.3626L163.454 47.3227L160.805 47.0258C162.28 49.3257 162.712 51.9463 162.712 51.9463C164.168 50.7726 166.808 49.6793 170.096 49.6793ZM163.909 48.501L165.173 45.8144L167.512 47.0634L170.096 44.5041L172.679 47.0634L175.018 45.8144L176.268 48.501L177.823 48.2606C177.423 49.0099 177.123 49.6651 176.845 50.5842C175.145 49.5897 172.618 48.8215 170.096 48.8215C167.564 48.8215 165.042 49.5897 163.341 50.5842C163.059 49.6651 162.764 49.0099 162.36 48.2606L163.909 48.501Z" fill="black"/>
        <path fill-rule="evenodd" clip-rule="evenodd" d="M172.802 44.386C173.187 44.4191 173.53 44.1268 173.562 43.7449C173.6 43.3584 173.036 42.3311 173.036 42.3311C173.036 42.3311 172.196 43.2408 172.167 43.6272C172.13 44.0043 172.421 44.3483 172.802 44.386Z" fill="black"/>
        <path fill-rule="evenodd" clip-rule="evenodd" d="M177.14 45.9646C177.483 46.1482 177.901 46.0117 178.085 45.6675C178.272 45.3282 178.15 44.1641 178.15 44.1641C178.15 44.1641 177.032 44.6684 176.849 45.0124C176.671 45.3518 176.802 45.776 177.14 45.9646Z" fill="black"/>
        <path fill-rule="evenodd" clip-rule="evenodd" d="M167.386 44.386C167.776 44.3483 168.062 44.0089 168.029 43.6272C167.992 43.2408 167.16 42.3311 167.16 42.3311C167.16 42.3311 166.601 43.3632 166.634 43.7449C166.662 44.1268 167.005 44.4191 167.386 44.386Z" fill="black"/>
        <path fill-rule="evenodd" clip-rule="evenodd" d="M163.05 45.9646C163.393 45.776 163.52 45.3518 163.341 45.0124C163.163 44.6684 162.04 44.1641 162.04 44.1641C162.04 44.1641 161.923 45.3282 162.111 45.6675C162.284 46.0117 162.707 46.1482 163.05 45.9646Z" fill="black"/>
        <path fill-rule="evenodd" clip-rule="evenodd" d="M215.118 69.9084C216.043 69.5783 216.757 68.6923 217.114 67.8722C214.761 67.5329 208.509 64.8982 203.37 67.0427C205.296 65.2094 207.025 64.9737 207.189 62.3343C207.988 62.9092 209.336 63.2345 210.097 61.8631C209.566 60.2933 208.227 61.566 208.04 61.1323C207.776 60.529 209.726 61.3162 210.144 59.2755C208.627 58.7521 208.176 59.9964 207.903 59.7089C207.654 59.4355 208.866 58.9123 207.974 57.2676C206.395 58.196 207.217 59.2377 206.884 59.3554C206.48 59.5158 206.799 58.2384 205.052 58.2998C204.878 60.1803 206.691 60.2415 206.395 60.5385C206.034 60.9014 205.564 59.4592 204.244 60.1897C204.268 61.7075 205.493 62.5415 206.757 62.1833C206.55 65.068 203.911 64.5306 201.947 67.7827C206.109 69.9226 207.992 73.6553 210.552 76.2383C211.398 75.635 212.845 72.9579 212.845 72.9579C215.616 75.1118 217.565 72.9671 217.565 72.9671C216.612 71.987 216.574 71.2422 215.118 69.9084ZM211.078 70.4315C211.365 71.0679 211.933 73.2877 210.576 74.9799C209.031 71.8832 206.907 69.2298 205.188 68.0844C204.812 67.8393 205.395 67.4105 206.457 67.2691C209.655 66.661 213.408 68.0184 215.193 68.4946C214.362 69.1166 213.686 69.3994 212.835 69.503C214.132 70.5965 215.08 71.5203 215.747 72.5479C214.493 72.8635 213.784 72.0671 211.078 70.4315Z" fill="black"/>
        <path fill-rule="evenodd" clip-rule="evenodd" d="M184.356 118.572V115.047C181.641 116.296 178.188 117.309 173.745 117.71L173.543 118.968C173.919 119.02 174.398 119.067 175.037 119.11C173.393 119.336 171.265 119.444 170.1 119.444C168.93 119.444 166.807 119.336 165.159 119.11C165.793 119.067 166.272 119.02 166.648 118.968L166.446 117.71C162.002 117.309 158.545 116.296 155.835 115.047V118.572L152.152 120.09C154.882 121.513 158.019 122.673 161.645 123.611L161.213 125.086C163.289 125.699 166.61 126.321 170.091 126.321C173.571 126.321 176.887 125.694 178.968 125.086L178.541 123.611C182.162 122.673 185.309 121.513 188.038 120.09L184.356 118.572ZM154.12 120.17L156.605 119.166V116.296C158.202 116.913 160.297 117.554 163.303 118.181L161.894 122.786C158.827 122.079 156.22 121.127 154.12 120.17ZM170.095 125.477C167.291 125.477 164.553 125.058 162.214 124.478L163.703 119.647C164.689 119.878 167.16 120.18 170.095 120.18C173.036 120.18 175.492 119.873 176.483 119.647L177.977 124.478C175.628 125.058 172.895 125.477 170.095 125.477ZM178.301 122.786L176.892 118.181C179.898 117.559 181.993 116.913 183.59 116.296V119.166L186.07 120.17C183.971 121.127 181.373 122.079 178.301 122.786Z" fill="black"/>
        <path fill-rule="evenodd" clip-rule="evenodd" d="M127.346 72.9579C127.346 72.9579 128.792 75.635 129.633 76.2383C132.198 73.6602 134.086 69.9272 138.243 67.7827C136.275 64.5306 133.635 65.0774 133.438 62.1833C134.701 62.5415 135.923 61.7027 135.951 60.1897C134.626 59.4592 134.156 60.9109 133.8 60.5385C133.503 60.2323 135.312 60.1803 135.143 58.2998C133.396 58.2432 133.715 59.5158 133.306 59.3554C132.977 59.2377 133.8 58.1914 132.217 57.2676C131.329 58.9171 132.545 59.4355 132.292 59.7089C132.024 59.9964 131.563 58.7567 130.051 59.2755C130.46 61.3162 132.418 60.529 132.155 61.1323C131.967 61.566 130.633 60.2933 130.107 61.8631C130.859 63.2391 132.212 62.9141 133.006 62.3389C133.175 64.9829 134.898 65.2045 136.829 67.0427C131.686 64.8982 125.434 67.5329 123.071 67.8771C123.433 68.6923 124.147 69.5785 125.072 69.8989C123.616 71.247 123.579 71.9916 122.625 72.9671C122.625 72.9671 124.569 75.1118 127.346 72.9579ZM124.433 72.5526C125.105 71.5251 126.049 70.5965 127.355 69.5078C126.5 69.3994 125.828 69.1166 124.992 68.4946C126.782 68.0184 130.54 66.6562 133.743 67.2691C134.795 67.4105 135.387 67.8393 135.002 68.0844C133.283 69.2298 131.155 71.8832 129.61 74.9799C128.257 73.2877 128.83 71.0726 129.107 70.4363C126.406 72.0671 125.702 72.8635 124.433 72.5526Z" fill="black"/>
        <path fill-rule="evenodd" clip-rule="evenodd" d="M167.846 70.9922V72.543C168.376 71.8972 169.41 72.0245 169.41 72.0245V74.2634C169.41 74.2634 169.372 75.3661 168.987 75.8375H170.1H171.214C170.824 75.3661 170.791 74.2634 170.791 74.2634V72.0291C170.791 72.0291 171.82 71.9018 172.35 72.5475V70.997H170.1H167.846V70.9922Z" fill="black"/>
        <path d="M95.2087 164.199V152.491H102.099V148.231H83.3008V152.491H90.1912V164.199H95.2087ZM108.957 157.523V148.231H104.107V164.199H108.389L116.751 154.907V164.199H121.601V148.231H117.32L108.957 157.523ZM137.918 158.261V164.199H142.768V148.231H137.918V154.068H130.124V148.231H125.274V164.199H130.124V158.261H137.918ZM156.276 164.199C157.38 164.199 158.383 164.098 159.32 163.83C161.828 163.125 163.467 161.079 163.467 158.295C163.467 155.645 162.063 153.8 159.821 152.961C158.751 152.558 157.48 152.525 156.276 152.525H151.292V148.231H146.442V164.199H156.276ZM155.44 156.282C156.109 156.282 156.744 156.282 157.313 156.483C158.115 156.752 158.584 157.422 158.584 158.228C158.584 159.066 158.115 159.771 157.346 160.106C156.811 160.341 156.276 160.341 155.44 160.341H151.292V156.282H155.44ZM172.164 158.16L177.951 164.199H184.406L176.345 155.879L184.105 148.231H178.017L172.164 154.236H170.826V148.231H165.975V164.199H170.826V158.16H172.164ZM194.386 147.795C187.864 147.795 183.95 151.485 183.95 156.248C183.95 161.012 187.864 164.702 194.386 164.702C200.875 164.702 204.789 161.012 204.789 156.248C204.789 151.485 200.875 147.795 194.386 147.795ZM194.386 160.811C191.142 160.811 189.068 158.865 189.068 156.248C189.068 153.632 191.142 151.72 194.386 151.72C197.597 151.72 199.705 153.632 199.705 156.248C199.705 158.865 197.597 160.811 194.386 160.811ZM220.942 147.325H216.092V148.935C210.004 149.07 206.358 151.653 206.358 156.215C206.358 160.777 210.004 163.159 216.092 163.293V164.903H220.942V163.293C227.063 163.159 230.709 160.777 230.709 156.215C230.709 151.653 227.063 149.07 220.942 148.935V147.325ZM216.092 159.872C212.747 159.737 211.275 158.362 211.275 156.215C211.275 154.068 212.747 152.525 216.092 152.391V159.872ZM220.942 152.391C224.32 152.525 225.758 154.068 225.758 156.215C225.758 158.362 224.32 159.737 220.942 159.872V152.391ZM246.845 147.325H241.995V148.935C235.907 149.07 232.262 151.653 232.262 156.215C232.262 160.777 235.907 163.159 241.995 163.293V164.903H246.845V163.293C252.966 163.159 256.613 160.777 256.613 156.215C256.613 151.653 252.966 149.07 246.845 148.935V147.325ZM241.995 159.872C238.65 159.737 237.178 158.362 237.178 156.215C237.178 154.068 238.65 152.525 241.995 152.391V159.872ZM246.845 152.391C250.224 152.525 251.662 154.068 251.662 156.215C251.662 158.362 250.224 159.737 246.845 159.872V152.391Z" fill="white"/>
    </g>
    <defs>
        <clipPath id="clip0_2032_177355">
            <rect width="173.4" height="125.8" fill="white" transform="translate(83.3008 39.1025)"/>
        </clipPath>
    </defs>
</svg>
