<svg width="155" height="155" viewBox="0 0 155 155" fill="none" xmlns="http://www.w3.org/2000/svg">
    <g filter="url(#filter0_d_2032_177425)">
        <path d="M82.9155 63.5208C97.2929 60.5112 106.508 46.4163 103.499 32.039C100.489 17.6617 86.3942 8.44632 72.0168 11.4559C57.6395 14.4655 48.4241 28.5604 51.4337 42.9377C54.4433 57.3151 68.5382 66.5304 82.9155 63.5208Z" fill="#B59803"/>
        <path d="M82.9155 63.5208C97.2929 60.5112 106.508 46.4163 103.499 32.039C100.489 17.6617 86.3942 8.44632 72.0168 11.4559C57.6395 14.4655 48.4241 28.5604 51.4337 42.9377C54.4433 57.3151 68.5382 66.5304 82.9155 63.5208Z" fill="url(#paint0_radial_2032_177425)"/>
        <path d="M82.9155 63.5208C97.2929 60.5112 106.508 46.4163 103.499 32.039C100.489 17.6617 86.3942 8.44632 72.0168 11.4559C57.6395 14.4655 48.4241 28.5604 51.4337 42.9377C54.4433 57.3151 68.5382 66.5304 82.9155 63.5208Z" fill="url(#paint1_radial_2032_177425)"/>
        <path d="M82.9155 63.5208C97.2929 60.5112 106.508 46.4163 103.499 32.039C100.489 17.6617 86.3942 8.44632 72.0168 11.4559C57.6395 14.4655 48.4241 28.5604 51.4337 42.9377C54.4433 57.3151 68.5382 66.5304 82.9155 63.5208Z" fill="url(#paint2_radial_2032_177425)"/>
    </g>
    <defs>
        <filter id="filter0_d_2032_177425" x="-4.08008" y="-4.05762" width="163.092" height="163.092" filterUnits="userSpaceOnUse" color-interpolation-filters="sRGB">
            <feFlood flood-opacity="0" result="BackgroundImageFix"/>
            <feColorMatrix in="SourceAlpha" type="matrix" values="0 0 0 0 0 0 0 0 0 0 0 0 0 0 0 0 0 0 127 0" result="hardAlpha"/>
            <feOffset dy="40"/>
            <feGaussianBlur stdDeviation="25"/>
            <feComposite in2="hardAlpha" operator="out"/>
            <feColorMatrix type="matrix" values="0 0 0 0 1 0 0 0 0 0.856681 0 0 0 0 0.125 0 0 0 0.3 0"/>
            <feBlend mode="normal" in2="BackgroundImageFix" result="effect1_dropShadow_2032_177425"/>
            <feBlend mode="normal" in="SourceGraphic" in2="effect1_dropShadow_2032_177425" result="shape"/>
        </filter>
        <radialGradient id="paint0_radial_2032_177425" cx="0" cy="0" r="1" gradientUnits="userSpaceOnUse" gradientTransform="translate(71.3892 38.9593) rotate(-48.6522) scale(26.5054 39.7583)">
            <stop stop-color="#D8B70D" stop-opacity="0"/>
            <stop offset="1" stop-color="#D8B70D"/>
        </radialGradient>
        <radialGradient id="paint1_radial_2032_177425" cx="0" cy="0" r="1" gradientUnits="userSpaceOnUse" gradientTransform="translate(85.7157 23.041) rotate(121.497) scale(34.144 36.9131)">
            <stop stop-color="#FFF2B0"/>
            <stop offset="1" stop-color="#FFF2B0" stop-opacity="0"/>
        </radialGradient>
        <radialGradient id="paint2_radial_2032_177425" cx="0" cy="0" r="1" gradientUnits="userSpaceOnUse" gradientTransform="translate(81.7362 30.2042) rotate(100.18) scale(34.4822 36.8421)">
            <stop offset="0.890894" stop-color="#FDD715" stop-opacity="0"/>
            <stop offset="1" stop-color="#FFDD2D"/>
        </radialGradient>
    </defs>
</svg>
