<svg width="262" height="295" viewBox="0 0 262 295" fill="none" xmlns="http://www.w3.org/2000/svg">
    <g opacity="0.3" filter="url(#filter0_f_2801_10098)">
        <ellipse cx="125.169" cy="169.499" rx="64.0542" ry="44.1163" transform="rotate(45.0435 125.169 169.499)" fill="url(#paint0_radial_2801_10098)"/>
    </g>
    <g opacity="0.3" filter="url(#filter1_f_2801_10098)">
        <ellipse cx="132.074" cy="165.085" rx="31.8895" ry="21.9634" transform="rotate(45.0435 132.074 165.085)" fill="url(#paint1_radial_2801_10098)"/>
    </g>
    <path d="M215.877 58.6416C230.329 55.6164 239.592 41.4484 236.567 26.9964C233.541 12.5445 219.373 3.28134 204.921 6.30655C190.47 9.33176 181.206 23.4998 184.232 37.9517C187.257 52.4036 201.425 61.6668 215.877 58.6416Z" fill="#434343"/>
    <path d="M215.877 58.6416C230.329 55.6164 239.592 41.4484 236.567 26.9964C233.541 12.5445 219.373 3.28134 204.921 6.30655C190.47 9.33176 181.206 23.4998 184.232 37.9517C187.257 52.4036 201.425 61.6668 215.877 58.6416Z" fill="url(#paint2_radial_2801_10098)"/>
    <path d="M215.877 58.6416C230.329 55.6164 239.592 41.4484 236.567 26.9964C233.541 12.5445 219.373 3.28134 204.921 6.30655C190.47 9.33176 181.206 23.4998 184.232 37.9517C187.257 52.4036 201.425 61.6668 215.877 58.6416Z" fill="url(#paint3_radial_2801_10098)"/>
    <path d="M215.877 58.6416C230.329 55.6164 239.592 41.4484 236.567 26.9964C233.541 12.5445 219.373 3.28134 204.921 6.30655C190.47 9.33176 181.206 23.4998 184.232 37.9517C187.257 52.4036 201.425 61.6668 215.877 58.6416Z" fill="url(#paint4_radial_2801_10098)"/>
    <path d="M202.834 156.782C235.052 150.038 255.703 118.453 248.958 86.2346C242.214 54.0163 210.629 33.3656 178.411 40.1098C146.192 46.854 125.541 78.4394 132.286 110.658C139.03 142.876 170.615 163.527 202.834 156.782Z" fill="#FFDA18"/>
    <path d="M202.834 156.782C235.052 150.038 255.703 118.453 248.958 86.2346C242.214 54.0163 210.629 33.3656 178.411 40.1098C146.192 46.854 125.541 78.4394 132.286 110.658C139.03 142.876 170.615 163.527 202.834 156.782Z" fill="url(#paint5_radial_2801_10098)"/>
    <path d="M202.834 156.782C235.052 150.038 255.703 118.453 248.958 86.2346C242.214 54.0163 210.629 33.3656 178.411 40.1098C146.192 46.854 125.541 78.4394 132.286 110.658C139.03 142.876 170.615 163.527 202.834 156.782Z" fill="url(#paint6_radial_2801_10098)"/>
    <path d="M202.834 156.782C235.052 150.038 255.703 118.453 248.958 86.2346C242.214 54.0163 210.629 33.3656 178.411 40.1098C146.192 46.854 125.541 78.4394 132.286 110.658C139.03 142.876 170.615 163.527 202.834 156.782Z" fill="url(#paint7_radial_2801_10098)"/>
    <g filter="url(#filter2_i_2801_10098)">
        <path d="M177.069 142.635L174.8 131.742L169.216 132.909L167.254 123.488L172.838 122.32L171.366 115.255L165.782 116.422L163.738 106.608L169.322 105.441L163.578 77.8642L179.057 74.6289C190.715 72.1922 198.669 77.4937 201.142 89.3683C203.677 101.537 198.405 109.603 186.845 112.019L182.828 112.859L184.3 119.925L201.053 116.423L203.015 125.844L186.263 129.346L188.532 140.239L177.069 142.635ZM180.784 103.045L183.919 102.39C189.014 101.325 190.695 98.1062 189.407 91.9236C188.139 85.8391 185.314 83.5622 180.219 84.627L177.084 85.2822L180.784 103.045Z" fill="white"/>
    </g>
    <path d="M177.069 142.635L174.8 131.742L169.216 132.909L167.254 123.488L172.838 122.32L171.366 115.255L165.782 116.422L163.738 106.608L169.322 105.441L163.578 77.8642L179.057 74.6289C190.715 72.1922 198.669 77.4937 201.142 89.3683C203.677 101.537 198.405 109.603 186.845 112.019L182.828 112.859L184.3 119.925L201.053 116.423L203.015 125.844L186.263 129.346L188.532 140.239L177.069 142.635ZM180.784 103.045L183.919 102.39C189.014 101.325 190.695 98.1062 189.407 91.9236C188.139 85.8391 185.314 83.5622 180.219 84.627L177.084 85.2822L180.784 103.045Z" fill="#323232"/>
    <path d="M176.58 142.737C176.607 142.867 176.684 142.98 176.795 143.053C176.906 143.126 177.042 143.151 177.172 143.124L188.634 140.729C188.904 140.672 189.077 140.407 189.021 140.137L186.854 129.733L203.117 126.334C203.388 126.277 203.561 126.013 203.505 125.742L201.542 116.321C201.515 116.191 201.438 116.078 201.327 116.005C201.216 115.932 201.08 115.907 200.95 115.934L184.688 119.333L183.42 113.246L186.947 112.509C192.821 111.281 197.164 108.602 199.701 104.62C202.237 100.639 202.917 95.4375 201.632 89.2663C200.377 83.2412 197.716 78.814 193.822 76.2159C189.926 73.6169 184.876 72.9019 178.955 74.1395L163.476 77.3748C163.206 77.4313 163.032 77.696 163.089 77.9662L168.731 105.054L163.636 106.119C163.365 106.175 163.192 106.44 163.248 106.71L165.293 116.524C165.32 116.654 165.397 116.767 165.508 116.84C165.619 116.913 165.754 116.938 165.884 116.911L170.979 115.846L172.247 121.933L167.151 122.998C166.881 123.055 166.708 123.319 166.764 123.59L168.727 133.011C168.754 133.141 168.831 133.254 168.942 133.327C169.053 133.4 169.189 133.425 169.318 133.398L174.413 132.333L176.58 142.737ZM183.817 101.9L181.172 102.453L177.676 85.6694L180.322 85.1164C182.782 84.6021 184.592 84.9135 185.937 85.9853C187.303 87.0744 188.293 89.0267 188.917 92.0255C189.552 95.0749 189.43 97.2858 188.613 98.8439C187.811 100.376 186.278 101.386 183.817 101.9Z" stroke="url(#paint8_linear_2801_10098)" stroke-opacity="0.6" stroke-linejoin="round"/>
    <defs>
        <filter id="filter0_f_2801_10098" x="0.181641" y="44.4824" width="249.975" height="250.033" filterUnits="userSpaceOnUse" color-interpolation-filters="sRGB">
            <feFlood flood-opacity="0" result="BackgroundImageFix"/>
            <feBlend mode="normal" in="SourceGraphic" in2="BackgroundImageFix" result="shape"/>
            <feGaussianBlur stdDeviation="35" result="effect1_foregroundBlur_2801_10098"/>
        </filter>
        <filter id="filter1_f_2801_10098" x="64.6992" y="97.6953" width="134.75" height="134.779" filterUnits="userSpaceOnUse" color-interpolation-filters="sRGB">
            <feFlood flood-opacity="0" result="BackgroundImageFix"/>
            <feBlend mode="normal" in="SourceGraphic" in2="BackgroundImageFix" result="shape"/>
            <feGaussianBlur stdDeviation="20" result="effect1_foregroundBlur_2801_10098"/>
        </filter>
        <filter id="filter2_i_2801_10098" x="163.578" y="74.0488" width="40.4375" height="69.5859" filterUnits="userSpaceOnUse" color-interpolation-filters="sRGB">
            <feFlood flood-opacity="0" result="BackgroundImageFix"/>
            <feBlend mode="normal" in="SourceGraphic" in2="BackgroundImageFix" result="shape"/>
            <feColorMatrix in="SourceAlpha" type="matrix" values="0 0 0 0 0 0 0 0 0 0 0 0 0 0 0 0 0 0 127 0" result="hardAlpha"/>
            <feOffset dx="1" dy="1"/>
            <feGaussianBlur stdDeviation="1"/>
            <feComposite in2="hardAlpha" operator="arithmetic" k2="-1" k3="1"/>
            <feColorMatrix type="matrix" values="0 0 0 0 0.3625 0 0 0 0 0.30381 0 0 0 0 0 0 0 0 0.6 0"/>
            <feBlend mode="normal" in2="shape" result="effect1_innerShadow_2801_10098"/>
        </filter>
        <radialGradient id="paint0_radial_2801_10098" cx="0" cy="0" r="1" gradientUnits="userSpaceOnUse" gradientTransform="translate(125.169 169.499) rotate(90) scale(44.1163 64.0542)">
            <stop stop-color="#FFD600"/>
            <stop offset="1" stop-color="#FFD600" stop-opacity="0"/>
        </radialGradient>
        <radialGradient id="paint1_radial_2801_10098" cx="0" cy="0" r="1" gradientUnits="userSpaceOnUse" gradientTransform="translate(132.074 165.085) rotate(90) scale(21.9634 31.8895)">
            <stop stop-color="white"/>
            <stop offset="1" stop-color="#FFF0A4" stop-opacity="0"/>
        </radialGradient>
        <radialGradient id="paint2_radial_2801_10098" cx="0" cy="0" r="1" gradientUnits="userSpaceOnUse" gradientTransform="translate(204.291 33.9527) rotate(-48.6522) scale(26.6429 39.9646)">
            <stop stop-color="#1C1C1C" stop-opacity="0"/>
            <stop offset="1" stop-color="#282828"/>
        </radialGradient>
        <radialGradient id="paint3_radial_2801_10098" cx="0" cy="0" r="1" gradientUnits="userSpaceOnUse" gradientTransform="translate(218.691 17.9517) rotate(121.497) scale(34.3211 37.1046)">
            <stop stop-color="white"/>
            <stop offset="1" stop-color="#555555" stop-opacity="0"/>
        </radialGradient>
        <radialGradient id="paint4_radial_2801_10098" cx="0" cy="0" r="1" gradientUnits="userSpaceOnUse" gradientTransform="translate(214.691 25.1522) rotate(100.18) scale(34.6611 37.0332)">
            <stop offset="0.890894" stop-color="#1C1C1C" stop-opacity="0"/>
            <stop offset="1" stop-color="#1D1D1D"/>
        </radialGradient>
        <radialGradient id="paint5_radial_2801_10098" cx="0" cy="0" r="1" gradientUnits="userSpaceOnUse" gradientTransform="translate(182.799 96.8723) rotate(-44.9343) scale(57.5411 86.3122)">
            <stop stop-color="#D8B70D" stop-opacity="0"/>
            <stop offset="1" stop-color="#D8B70D"/>
        </radialGradient>
        <radialGradient id="paint6_radial_2801_10098" cx="0" cy="0" r="1" gradientUnits="userSpaceOnUse" gradientTransform="translate(200.877 73.2844) rotate(118.68) scale(66.1419 71.5061)">
            <stop stop-color="#FFF2B0"/>
            <stop offset="1" stop-color="#FFF2B0" stop-opacity="0"/>
        </radialGradient>
        <radialGradient id="paint7_radial_2801_10098" cx="0" cy="0" r="1" gradientUnits="userSpaceOnUse" gradientTransform="translate(190.622 98.4461) rotate(93.9159) scale(59.8716 63.9691)">
            <stop offset="0.890894" stop-color="#FDD715" stop-opacity="0"/>
            <stop offset="1" stop-color="#FFDD2D"/>
        </radialGradient>
        <linearGradient id="paint8_linear_2801_10098" x1="158" y1="74" x2="199" y2="138" gradientUnits="userSpaceOnUse">
            <stop stop-color="white"/>
            <stop offset="1" stop-color="white" stop-opacity="0"/>
        </linearGradient>
    </defs>
</svg>
